<svg xmlns="http://www.w3.org/2000/svg" width="1240" height="1753"><path d="M717 29.355c-1.925.63-4.148 1.562-4.941 2.072-.95.611-1.575.526-1.833-.25-.216-.647-.832-1.177-1.368-1.177-.537 0-.651.526-.253 1.17.486.787.178.961-.941.531-1.279-.49-1.664-.059-1.664 1.866 0 2.057-.312 2.344-1.75 1.611-2.501-1.274-13.098-3.189-21.008-3.796-7.576-.581-22.104 2.621-23.542 5.19-.44.785-1.622 1.428-2.627 1.428-1.006 0-2.398.687-3.095 1.527-1.113 1.341-1.409 1.249-2.434-.75-.758-1.48-1.934-2.194-3.356-2.039-1.203.131-2.188-.192-2.188-.718 0-.527-.749-.67-1.664-.319-1.119.43-1.427.256-.941-.531.398-.644.246-1.17-.336-1.17-1.708 0-1.215 2.808.691 3.939 1.343.796.877.91-2 .488-3.006-.441-3.75-.231-3.75 1.057 0 1.312-.689 1.481-3.75.923-2.062-.376-5.013-1.571-6.558-2.655-1.544-1.083-3.065-1.712-3.381-1.396-.316.315-1.359.154-2.318-.36-2.515-1.346-15.869-2.006-16.601-.821-.336.543-1.704.713-3.041.377-1.464-.368-3.298-.002-4.613.919-1.201.841-3.16 1.529-4.354 1.529-1.193 0-2.443.711-2.776 1.58-.464 1.207-1.372 1.416-3.857.884-1.788-.382-3.733-1.081-4.321-1.553-2.38-1.907-13.159-.204-19.606 3.097-8.445 4.325-16.042 6.161-19.911 4.812-2.166-.755-3.348-.704-4.429.193-1.177.977-1.972.897-3.944-.395-3.026-1.983-3.54-2.012-3.54-.201 0 .779-.558 1.602-1.241 1.83-1.393.464-3.759-1.535-3.759-3.176 0-.589-.675-1.071-1.5-1.071s-1.5.702-1.5 1.559-.43 1.293-.956.968c-.526-.325-.703-1.252-.393-2.059.309-.807.065-1.468-.544-1.468s-1.107.441-1.107.98c0 .539-1.999-.136-4.442-1.5-6.392-3.568-6.799-3.364-6.506 3.27.408 9.216.216 9.957-2.802 10.82-1.512.432-4.55.695-6.75.584-2.2-.112-4.607.199-5.348.691-.742.492-2.217 3.99-3.279 7.775-1.716 6.112-2.002 11.653-2.563 49.649l-.632 42.769-5.589 1.631c-3.074.897-7.389 1.73-9.589 1.851-2.2.122-7.825 1.644-12.5 3.383-8.492 3.159-10.695 4.11-23.101 9.976-3.631 1.717-7.056 3.121-7.611 3.121-.555 0-2.658 1.119-4.674 2.487-2.016 1.369-4.892 2.788-6.39 3.154-1.498.367-2.949.935-3.224 1.263-.719.857-7.078 3.838-9.903 4.643-1.322.377-3.347 1.551-4.5 2.608-5.562 5.102-11.87 8.54-22.097 12.042-3.3 1.13-7.432 3.123-9.183 4.429-1.751 1.306-3.674 2.374-4.274 2.374-.6 0-3.258 1.49-5.906 3.312-2.648 1.821-6.237 3.901-7.976 4.621-1.738.72-3.161 1.656-3.161 2.08 0 .424-1.021 1.027-2.27 1.34-1.248.313-3.161 1.378-4.25 2.366-1.089.988-3.105 2.518-4.48 3.4-3.092 1.983-9.633 7.619-12.339 10.631-1.112 1.238-2.444 2.25-2.959 2.25-.516 0-2.476 1.35-4.355 3-1.879 1.65-3.877 3-4.441 3-.563 0-.772.407-.465.905.308.498-1.466 2.091-3.941 3.542-2.475 1.451-4.5 3.068-4.5 3.595 0 .527-.622.958-1.381.958-.76 0-2.583 1.575-4.051 3.5s-3.44 3.5-4.382 3.5c-.941 0-2.545 1.111-3.565 2.468-1.019 1.357-4.279 4.339-7.245 6.627-2.965 2.288-6.371 5.903-7.568 8.033-1.197 2.129-2.543 3.872-2.992 3.872-.449 0-.816.9-.816 2s-.45 2-1 2-1 .705-1 1.567c0 1.566-6.574 8.433-8.072 8.433-.436 0-1.072.877-1.412 1.949-.34 1.072-1.495 2.227-2.567 2.567-1.072.34-1.949 1.263-1.949 2.051 0 .788-.45 1.433-1 1.433s-1 .675-1 1.5-.596 1.5-1.325 1.5c-1.373 0-2.568 1.078-7.758 7-1.687 1.925-5.508 6.097-8.492 9.272-2.984 3.174-5.425 6.437-5.425 7.25 0 .813-.45 1.478-1 1.478s-1 .678-1 1.507c0 .828-1.138 2.495-2.528 3.705-1.391 1.209-2.305 2.781-2.032 3.493.293.762-.237 1.295-1.287 1.295-1.763 0-8.153 6.346-8.153 8.096 0 .497-.355.904-.79.904-.434 0-2.104 2.25-3.71 5-1.606 2.75-3.276 5-3.71 5-.435 0-.79.564-.79 1.253 0 .69-1.265 2.447-2.811 3.906-1.545 1.459-4.321 5.508-6.168 8.997-1.847 3.489-4.375 7.694-5.618 9.344-1.242 1.65-2.207 3.225-2.142 3.5.064.275-1.161 2.679-2.722 5.343s-2.802 6.125-2.757 7.692c.059 2.081-.305 2.701-1.351 2.3-.787-.302-1.431-.068-1.431.519 0 .588-2.027 3.556-4.503 6.597-2.477 3.041-4.391 5.871-4.253 6.289.137.418-1.579 2.642-3.815 4.943-2.235 2.3-4.691 6.08-5.456 8.398-.797 2.416-2.155 4.415-3.182 4.684-.985.258-1.791 1.091-1.791 1.852 0 .76-.675 1.383-1.5 1.383s-1.5.45-1.5 1-.563 1-1.252 1c-1.562 0-6.173 8.503-5.341 9.85.336.544.026 1.588-.69 2.319-.716.732-1.9 2.793-2.631 4.581-.731 1.788-1.674 3.25-2.096 3.25-.422 0-1.08 1.667-1.463 3.705-.382 2.038-1.599 4.49-2.705 5.449-1.105.959-2.388 3.229-2.851 5.045a725.718 725.718 0 0 1-2.335 8.801c-.822 3.025-2.163 8.2-2.98 11.5-1.388 5.605-2.177 9.174-6.298 28.5-.879 4.125-1.657 9.075-1.729 11-.071 1.925-.392 3.725-.713 4-.321.275-.227 6.575.209 14 .435 7.425 1.054 18.132 1.374 23.793.321 5.661 1.015 11.428 1.542 12.815 1.461 3.842 1.159 13.158-.509 15.703-.807 1.232-1.426 4.318-1.375 6.858.051 2.54-.196 5.085-.549 5.656A1.22 1.22 0 0 0 123 620.5c.568.351.792 1.028.497 1.504-.294.477.005 4.158.665 8.181.661 4.023 1.167 8.327 1.125 9.565-.041 1.237.357 2.25.886 2.25s.669.922.312 2.048c-.358 1.126-.099 2.712.575 3.524.674.812.943 1.758.598 2.103-.345.345.154 1.235 1.108 1.979 1.642 1.28 1.642 1.319-.016.741-2.05-.714-2.18-.067-.586 2.911.64 1.196 1.291 3.079 1.446 4.185.716 5.099 7.42 26.95 8.378 27.307.44.164.57 1.176.289 2.25-.281 1.074-.091 1.952.421 1.952 1.028 0 4.302 6.334 4.302 8.322 0 .691.88 2.98 1.955 5.089 1.075 2.109 2.934 7.042 4.132 10.962 1.197 3.92 2.442 7.577 2.767 8.127.324.55.672 1.543.773 2.206.101.664 1.398 3.814 2.883 7 1.485 3.187 3.073 6.694 3.53 7.794.457 1.1 1.76 4.195 2.895 6.877 1.136 2.683 2.065 5.495 2.065 6.25 0 .755.401 1.373.892 1.373.49 0 1.155 1.012 1.477 2.25.321 1.237 1.87 3.608 3.441 5.267 1.571 1.66 3.157 4.216 3.525 5.68.367 1.465 1.283 3.278 2.035 4.03.751.751 1.712 2.47 2.136 3.82.423 1.349 1.607 3.526 2.632 4.838 1.024 1.312 1.866 2.887 1.871 3.5.005.613 1.441 2.24 3.191 3.615 4.106 3.227 7.977 7.49 11.35 12.5 1.482 2.2 3.357 4.384 4.169 4.854.811.47 2.444 1.988 3.628 3.374 1.184 1.387 3.671 3.927 5.527 5.646 5.516 5.109 21.499 21.045 23.232 23.163.883 1.08 2.883 2.863 4.444 3.963s3.538 2.836 4.394 3.859c3.179 3.797 7.236 7.641 8.066 7.641.47 0 1.134.877 1.474 1.949.374 1.179 1.191 1.729 2.067 1.393.797-.306 1.449-.058 1.449.551 0 .609.623 1.107 1.383 1.107.761 0 1.628.933 1.926 2.074.298 1.141 1.476 2.319 2.617 2.617 1.141.298 2.074.94 2.074 1.426 0 .485.702.883 1.559.883s1.281.45.941 1c-.34.55.367 1 1.574 1 1.205 0 2.919.836 3.809 1.857.889 1.021 2.742 2.203 4.117 2.626 1.375.422 4.435 2.062 6.8 3.643s4.883 2.874 5.595 2.874c.712 0 2.135.928 3.161 2.062 1.092 1.206 2.633 1.86 3.716 1.577 1.047-.274 2.087.134 2.396.939.3.782 1.104 1.422 1.785 1.422 1.922 0 7.547 3.036 7.547 4.073 0 .51.608.927 1.351.927s3.331 1.041 5.75 2.314c2.419 1.273 6.424 3.105 8.899 4.071 2.475.966 7.231 3.525 10.57 5.686 3.338 2.161 6.388 3.929 6.778 3.929.39 0 3.959 1.506 7.93 3.347 11.689 5.418 14.491 6.653 15.093 6.653.314 0 3.029 1.125 6.035 2.5 3.006 1.375 5.745 2.5 6.086 2.5.341 0 3.309 1.334 6.596 2.965 3.287 1.631 9 4.067 12.694 5.414 3.695 1.347 10.093 3.889 14.218 5.649 13.455 5.742 23.414 9.153 28 9.59 5.286.504 16.706 4.098 17.596 5.538.34.55 3.157 2.205 6.261 3.679 3.104 1.473 9.601 4.909 14.438 7.636l8.795 4.957-.706 5.536c-.717 5.611-.791 70.843-.098 85.536.207 4.4.885 25.1 1.506 46 .62 20.9 1.408 40.7 1.75 44 .342 3.3 1.274 21.975 2.071 41.5.797 19.525 1.888 40.225 2.424 46 .536 5.775.746 24 .468 40.5-.678 40.182-.773 54.762-.578 88.87.091 15.879-.024 29.06-.256 29.292-.398.398-5.478-1.33-12.171-4.141-1.65-.693-6.375-2.492-10.5-3.998-8.303-3.032-18.737-8.117-20.716-10.096-1.538-1.538-12.761-8.427-13.729-8.427-3.395 0-19.993-10.108-23.797-14.492-2.981-3.437-11.945-15.931-12.561-17.508-.322-.825-1.173-2.095-1.891-2.821-.718-.727-1.306-2.209-1.306-3.292 0-1.084-.832-2.863-1.849-3.955-1.016-1.091-2.444-3.885-3.173-6.208-.729-2.323-1.698-4.651-2.152-5.174-.454-.522-.826-2.462-.826-4.309s-.399-3.113-.886-2.812c-.487.301-1.099-.572-1.361-1.941-.262-1.368-.088-2.488.386-2.488.473 0 .861-.675.861-1.5s-.664-1.5-1.476-1.5c-1.197 0-1.38-1.16-.967-6.12.434-5.215.283-6.033-1.024-5.531-.948.364-1.533.028-1.533-.88 0-.808.364-1.469.809-1.469.445 0 .896-5.513 1.002-12.25.231-14.617.944-23.397 2.081-25.62.459-.897 1.126-3.542 1.483-5.88.539-3.531.372-4.25-.985-4.25-1.474 0-1.486-.221-.129-2.25.941-1.407 2.298-2.133 3.622-1.937 1.164.172 2.119-.053 2.121-.5.009-2.138 18.738-22.313 20.714-22.313.705 0 1.282-.465 1.282-1.034 0-.568 1.237-2.26 2.75-3.76 2.754-2.731 4.536-6.44 6.463-13.456.567-2.062 1.366-3.75 1.777-3.75 1.91 0 1.77-8.289-.216-12.818-3.457-7.879-17.517-23.329-24.274-26.674-1.65-.816-5.25-3.511-8-5.987s-5.326-4.507-5.725-4.512c-.399-.005-1.605-1.941-2.681-4.303s-3.063-4.887-4.415-5.61c-1.352-.724-3.009-2.345-3.682-3.602-.673-1.257-2.522-3.246-4.11-4.419-1.588-1.174-2.887-2.796-2.887-3.605 0-.808-.675-1.47-1.5-1.47s-1.5-.391-1.5-.869c0-.479-1.897-3.252-4.215-6.164-2.319-2.912-4.306-5.908-4.416-6.658-.11-.751-2.713-3.722-5.785-6.603-3.071-2.882-5.584-5.635-5.584-6.12 0-.932-6.133-8.86-9.188-11.875-.997-.984-1.812-2.446-1.812-3.25 0-.804-.415-1.461-.923-1.461s-3.043-3.189-5.634-7.086c-5.617-8.449-7.794-10.612-11.494-11.425-2.055-.452-3.192-1.639-4.357-4.55-.867-2.166-2.029-3.939-2.584-3.939-.554 0-1.008-.623-1.008-1.385 0-1.998-9.063-4.675-17.916-5.293-4.171-.291-8.089-.94-8.706-1.442-.713-.58-3.566.185-7.843 2.104-3.697 1.659-7.335 3.016-8.085 3.016-.75 0-5.694 2.259-10.988 5.02-5.294 2.761-11.989 5.851-14.878 6.866-2.89 1.016-6.437 2.469-7.883 3.23-5.122 2.696-19.277 12.943-24.701 17.882-3.025 2.755-6.287 5.262-7.25 5.573-.962.31-1.75.953-1.75 1.428s-2.307 3.033-5.127 5.683-6.532 6.299-8.25 8.109c-1.718 1.81-6.948 7.246-11.623 12.079-10.173 10.516-17.898 19.13-17.156 19.13.296 0-.172.563-1.041 1.25-.868.688-3.254 3.5-5.302 6.25-2.047 2.75-5.81 7.285-8.362 10.078-2.551 2.793-5.755 7.18-7.118 9.75-1.364 2.57-2.777 4.672-3.142 4.672-.364 0-.945 1.125-1.29 2.5-.345 1.375-1.014 2.5-1.487 2.5-.473 0-1.451 1.463-2.174 3.25-.723 1.787-1.565 3.475-1.871 3.75-1.243 1.116-5.057 10.188-5.057 12.027 0 1.085-.45 1.973-1 1.973s-.919.338-.82.75c.244 1.013-3.488 8.665-4.43 9.083-.412.184-.75 1.421-.75 2.75s-.45 2.417-1 2.417-1 .649-1 1.443c0 .793-.918 2.999-2.04 4.9-3.614 6.126-8.017 21.515-8.627 30.157-.155 2.2-1.491 12.1-2.968 22-2.095 14.04-2.762 22.675-3.028 39.25-.191 11.896.048 21.25.543 21.25.486 0 1.204 3.854 1.597 8.565.392 4.71.87 9.548 1.062 10.75.191 1.202.739 4.66 1.217 7.685.479 3.025 1.47 6.606 2.203 7.958.734 1.351 1.298 3.714 1.254 5.25-.044 1.535.299 2.792.76 2.792.462 0 .604.9.317 2-.288 1.1-.035 2 .562 2 .597 0 .826.675.51 1.5-.317.825-.136 1.5.401 1.5s1.228 1.912 1.535 4.25c.307 2.337.861 5.375 1.231 6.75a83.07 83.07 0 0 1 1.186 5.25c.281 1.513.849 2.75 1.26 2.75.411 0 .533 1.125.27 2.5-.279 1.459-.013 2.5.638 2.5.615 0 1.046.337.958.75-.174.823.851 3.88 2.108 6.288.442.847 1.125 3.443 1.519 5.77.393 2.328 1.348 4.866 2.123 5.64.775.775 1.409 2.251 1.409 3.281 0 1.029.534 2.405 1.186 3.057.653.653 1.339 2.186 1.526 3.407.536 3.514 4.864 12.024 7.786 15.307 1.467 1.65 3.125 4.237 3.683 5.75.558 1.513 1.674 2.75 2.48 2.75.812 0 1.367.78 1.246 1.75-.319 2.547 1.603 6.406 4.535 9.105 1.407 1.295 2.558 2.79 2.558 3.321 0 .532.675 1.642 1.5 2.467.825.825 1.5 2.394 1.5 3.487 0 1.094.448 1.711.996 1.373.547-.339 1.556.613 2.24 2.116 1.672 3.67 6.815 9.381 8.448 9.381.724 0 1.316.596 1.316 1.324 0 .729 2.917 3.934 6.483 7.123s6.239 6.193 5.941 6.676c-.298.482.385.877 1.517.877s2.069.338 2.082.75c.036 1.169 6.667 8.25 7.726 8.25.858 0 3.367 1.831 7.169 5.231.781.698 3.256 2.261 5.5 3.474 2.245 1.212 3.632 2.229 3.082 2.259-1.351.073 8.668 4.965 10.25 5.005.688.017 1.25.979 1.25 2.138 0 1.462.459 1.931 1.5 1.531.825-.316 1.5-.139 1.5.393 0 .533.705.969 1.567.969.861 0 2.999 1.076 4.75 2.391 5.104 3.834 17.571 9.705 24.945 11.749 3.746 1.038 10.732 3.956 15.525 6.484 4.792 2.528 13.438 6.145 19.213 8.037 5.775 1.892 11.4 3.867 12.5 4.388 1.1.521 3.72 1.528 5.823 2.238 2.103.711 3.678 1.641 3.5 2.068-.178.427 2.377 2.047 5.677 3.6 3.3 1.552 6.566 3.772 7.258 4.934.693 1.161 1.809 2.111 2.481 2.111 1.553 0 15.036 5.153 26.268 10.039 4.182 1.819 34.515 11.631 37.993 12.29 1.1.209 3.751 1.152 5.892 2.098 2.141.945 5.741 1.927 8 2.182 2.259.254 6.583 1.169 9.608 2.033 8.505 2.429 10.151 2.714 15.25 2.642 3.22-.046 4.75.344 4.75 1.209 0 .8 2.092 1.538 5.605 1.977 3.083.385 7.695 1.315 10.25 2.066 2.555.751 6.895 1.647 9.645 1.991 2.75.344 9.05 1.264 14 2.045 4.95.781 11.152 1.422 13.781 1.424 2.915.002 4.958.492 5.232 1.254.958 2.657 2.604 24.21 3.457 45.25 1.094 27.001 2.165 30.128 11.934 34.854 1.872.905 4.009 1.646 4.75 1.646.74 0 1.346.45 1.346 1s.469 1 1.042 1c.573 0 2.008.9 3.188 2 2.287 2.131 9.158 2.8 10.27 1 .34-.55 1.506-1 2.59-1 1.085 0 2.221-.647 2.524-1.437a1.534 1.534 0 0 1 1.969-.893c.791.304 1.424-.056 1.432-.813.013-1.129.162-1.126.887.018.479.757 2.497 1.555 4.484 1.774 3.604.397 4.14-.132 3.644-3.595-.181-1.262.016-1.262 1.544 0 1.013.837 1.893 1.025 2.088.446.193-.573 3.647-.924 8.088-.821 4.262.099 9.823-.42 12.356-1.153 2.534-.733 7.934-1.368 12-1.412a700.88 700.88 0 0 0 15.394-.38c8.086-.305 9.004-.168 18 2.688 6.158 1.955 5.972 1.959 8.123-.172 1.594-1.58 1.703-1.587 1.129-.069-.512 1.352-.05 1.665 2.352 1.597 1.644-.047 3.489.415 4.099 1.025.814.814 1.937.415 4.204-1.494 2.606-2.195 3.144-2.345 3.416-.956.237 1.205.976 1.485 2.75 1.039 2.013-.505 2.427-.237 2.427 1.571 0 3.516 2.396 5.269 5.357 3.92 2.044-.931 2.987-.793 5.314.781 1.556 1.052 5.857 3.396 9.557 5.209 6.079 2.978 7.064 3.186 10.2 2.151 1.91-.631 4.831-2.694 6.491-4.585 1.661-1.891 3.484-3.439 4.05-3.439 1.583 0 1.223 4.596-.469 6-.825.685-1.5 2.765-1.5 4.622 0 2.336.463 3.378 1.5 3.378.825 0 1.5.395 1.5.879 0 1.791 5.694 3.355 7.906 2.171 1.99-1.065 6.836-9.05 5.492-9.05-.354 0-.108-.645.546-1.433s1.947-1.433 2.873-1.433c.926 0 3.596-.314 5.933-.699 2.989-.491 4.25-.349 4.25.479 0 1.489 6.874.806 9.708-.964 1.623-1.013 1.929-2.048 1.583-5.353-.352-3.353.026-4.577 2.081-6.74 1.38-1.453 2.236-2.915 1.902-3.25-.334-.334-.082-.663.559-.732a19.268 19.268 0 0 0 2.167-.375c.55-.138 1.394-.306 1.875-.375.481-.069 1.135-1.423 1.452-3.01.413-2.067 1.442-3.187 3.625-3.948 1.676-.585 3.048-1.536 3.048-2.115 0-.579.675-1.052 1.5-1.052s1.5-.45 1.5-1 .482-1 1.071-1c.59 0 1.747-.675 2.572-1.5 1.333-1.333 1.321-1.678-.106-3.106-1.232-1.232-1.339-1.927-.46-2.987.631-.76.907-2.007.613-2.772-.294-.765-.006-1.919.638-2.563.836-.836 1.172-8.619 1.172-27.122 0-14.273.131-25.95.292-25.95.161 0 3.761-.678 8-1.507 4.239-.829 12.433-2.428 18.208-3.552 5.775-1.124 11.625-2.555 13-3.179 1.375-.625 3.4-1.218 4.5-1.319 4.636-.424 20.056-4.632 21.467-5.858.843-.733 4.683-1.893 8.533-2.58 7.768-1.384 17.89-4.34 24-7.009 2.2-.96 6.475-2.326 9.5-3.034 8.926-2.09 36-11.046 36-11.908 0-.437 2.138-1.372 4.75-2.079 2.613-.707 5.2-1.585 5.75-1.952.55-.366 4.6-2.131 9-3.921s13.4-5.918 20-9.175c9.259-4.568 12.074-5.579 12.323-4.424.178.823.77 1.497 1.316 1.497 1.983 0 4.861-2.106 4.861-3.557 0-.817 1.111-1.992 2.469-2.611 1.357-.618 2.228-1.513 1.935-1.988-.294-.475.758-1.951 2.338-3.28a372.933 372.933 0 0 0 6.815-5.943c2.168-1.939 5.042-4.11 6.386-4.823 1.343-.714 4.268-3.274 6.5-5.689 2.231-2.414 9.457-8.864 16.057-14.331 13.978-11.579 24.335-21.086 43.336-39.778 7.548-7.425 15.286-14.896 17.194-16.602 1.909-1.706 6.136-6.546 9.395-10.756 3.259-4.209 7.759-9.372 10-11.472 4.921-4.612 7.575-7.84 7.575-9.213 0-.561.672-1.278 1.494-1.593.822-.316 1.265-.946.984-1.4-.282-.455.496-1.533 1.728-2.396 1.231-.862 1.829-1.568 1.328-1.568-.501 0-.039-.845 1.027-1.877 4.026-3.899 15.615-20.851 15.389-22.511-.066-.489.255-1.164.715-1.5 1.331-.975 5.335-6.94 5.335-7.949 0-.505.675-1.478 1.5-2.163.825-.685 1.5-1.877 1.5-2.65 0-1.666 6.753-15.571 7.93-16.327.792-.509 1.764-2.543 7.652-16.023 1.561-3.575 3.11-6.725 3.442-7 .529-.438 4.945-10.241 11.939-26.5 1.183-2.75 2.327-6.575 2.541-8.5.745-6.686 2.663-15.505 3.577-16.45 1.52-1.572 1.109-23.76-.526-28.395-1.131-3.206-1.458-10.578-1.503-33.876-.035-17.663-.49-31.407-1.121-33.779-.585-2.2-1.708-7.708-2.495-12.241-.788-4.532-2.282-10.832-3.321-14a471.251 471.251 0 0 1-3.648-11.759c-.967-3.3-2.571-7.575-3.565-9.5-2.008-3.888-4.403-9.487-7.913-18.5-1.285-3.3-2.673-6.23-3.084-6.51-.41-.281-1.922-2.851-3.359-5.712-1.437-2.861-3.203-5.792-3.923-6.512-.721-.721-2.453-3.101-3.849-5.288-1.396-2.188-3.378-4.954-4.406-6.147-1.027-1.193-2.768-3.405-3.868-4.916-1.1-1.512-4.142-5.486-6.761-8.832-4.302-5.498-6.975-8.66-15.289-18.083-1.456-1.65-3.957-5.025-5.559-7.5-1.601-2.475-5.494-7.028-8.651-10.117-3.157-3.089-6.247-6.239-6.867-7-.62-.761-1.97-2.155-3-3.098-3.645-3.339-5.373-5.467-5.373-6.619 0-.641-.744-1.166-1.654-1.166-1.527 0-11.642-10.205-13.773-13.895-.832-1.44-.74-1.452.894-.113 1.694 1.388 1.767 1.318 1.045-1-.427-1.371-1.179-2.646-1.671-2.834-.492-.188-1.803-2.123-2.913-4.299-1.11-2.176-2.673-4.208-3.473-4.515-.8-.307-1.455-1.684-1.455-3.059 0-2.112-.359-2.412-2.304-1.924-2.147.539-4.965-1.383-5.406-3.687-.311-1.622-4.697-4.732-5.98-4.24-.718.276-2.022-.591-2.897-1.927-.876-1.336-2.452-2.702-3.502-3.035-1.051-.334-1.911-1.141-1.911-1.795 0-.654-1.652-2.536-3.671-4.183-13.798-11.255-18.797-15.705-18.579-16.539.138-.525-.312-.843-1-.705-.687.137-1.13-.334-.984-1.047.154-.753-.476-1.173-1.5-1-1.083.182-1.651-.243-1.468-1.098.164-.767-.924-2.671-2.419-4.232-2.103-2.195-3.024-2.582-4.071-1.713-1.045.867-1.228.796-.804-.31.633-1.649-5.007-6.275-6.514-5.344-.543.336-.706-.083-.372-.954.328-.854.167-1.552-.358-1.552s-1.992-.9-3.26-2c-2.483-2.154-4.547-2.694-3.438-.9.491.795.108.794-1.386-.006-1.135-.607-2.384-1.622-2.775-2.254-.439-.71-.269-.876.444-.435.635.392 1.155.188 1.155-.453 0-.647-.696-.899-1.563-.566-1.63.625-8.854-3.635-7.856-4.633.313-.314-.341-.86-1.455-1.213-1.113-.353-3.346-1.857-4.96-3.341-1.615-1.485-7.024-5.174-12.02-8.199-4.996-3.025-9.097-6.032-9.114-6.683-.018-.65-.82-1.436-1.782-1.747-1.907-.616-6.935-5.196-11.912-10.852-1.829-2.079-4.78-4.056-7-4.69-2.111-.604-5.413-1.957-7.338-3.008-1.925-1.051-4.587-2.403-5.916-3.004-1.329-.601-3.182-1.975-4.117-3.054-.936-1.079-2.011-1.962-2.389-1.962-.377 0-2.077-1.299-3.776-2.887-1.699-1.588-4.937-3.476-7.196-4.195-2.258-.719-5.378-2.345-6.933-3.613-1.554-1.268-3.435-2.305-4.178-2.305-.744 0-1.947-.57-2.674-1.268-.726-.697-3.345-2.159-5.818-3.25-2.474-1.09-8.099-4.119-12.5-6.731-4.402-2.612-8.517-4.75-9.146-4.75-.629-.001-1.402-.676-1.719-1.501-.316-.825-1.205-1.5-1.976-1.5-.77 0-5.677-2.137-10.905-4.75-5.228-2.612-12.027-5.875-15.11-7.25s-5.615-2.837-5.626-3.25c-.012-.413-.702-.75-1.535-.75-1.643 0-4.958-1.674-7.742-3.911-.966-.775-2.058-1.109-2.426-.74-.368.368-1.603-.197-2.744-1.257-1.141-1.059-4.774-2.866-8.074-4.015-3.3-1.149-8.812-3.312-12.25-4.806l-6.25-2.716-.025-5.028c-.013-2.765-.158-22.802-.322-44.527-.273-36.221.507-78.622 1.813-98.5 2.738-41.694 3.637-79.118 4.155-173 .257-46.75.648-87.7.867-91 .219-3.3.424-8.828.455-12.285.056-6.212.083-6.271 2.307-5.048 1.237.68 2.7 1.348 3.25 1.485 3.747.929 8.405 3.11 7.842 3.672-.371.372.187.679 1.241.682 1.055.004 3.201.676 4.771 1.495 1.57.819 3.257 1.239 3.75.935.493-.305.896-.077.896.505s.563 1.057 1.25 1.055c1.574-.006 16.133 7.241 16.583 8.254.184.412.908.75 1.609.75 4.089 0 22.43 12.014 22.518 14.75.022.688.46 1.25.973 1.25.765 0 1.75 1.889 2.606 5 .811 2.941 5.699 12.038 6.811 12.675 2.522 1.443 9.65 10.718 9.65 12.557 0 .972.436 1.768.97 1.768.533 0 1.602 2.137 2.376 4.75 1.642 5.547 1.427 35.086-.288 39.597-.569 1.497-.963 3.044-.875 3.438.37 1.66-1.617 11.122-3.407 16.215-1.869 5.321-2.324 7.477-4.741 22.5-2.475 15.386-2.163 17.5 2.587 17.5 1.765 0 2.408-.58 2.494-2.25.087-1.693.229-1.817.573-.5.252.962 1.148 1.75 1.991 1.75.976 0 1.317-.565.938-1.552-.362-.944-.181-1.296.461-.899.58.359 1.303-.293 1.605-1.448.302-1.156.977-2.101 1.5-2.101s.665.9.316 2c-.44 1.387-.18 2 .851 2 2.9 0 4.65-1.243 4.728-3.357.043-1.179.306-1.58.583-.893.539 1.336 3.338 1.755 3.338.5 0-1.121 7.345-.905 8.5.25.55.55 1.639 2.237 2.419 3.75 1.411 2.735 1.884 2.886 10.07 3.221 1.758.072 2.769.899 3.443 2.816.525 1.492 1.317 2.713 1.761 2.713.444 0 .807.733.807 1.628 0 1.332.708 1.514 3.896 1.005 4.304-.689 10.018 1.153 9.388 3.025-.214.637.065 1.439.62 1.782.555.343.753 1.29.441 2.103-.402 1.049-.098 1.3 1.044.861 1.228-.471 1.611.002 1.611 1.989 0 1.434.285 2.607.633 2.607 1.067 0 4.367-4.227 4.367-5.594 0-.708.52-1.609 1.155-2.001.684-.423.884-.277.49.36-.365.591-.006 1.731.798 2.535s1.217 1.707.918 2.006c-.871.87 7.355 1.66 17.639 1.693 15.915.051 19.999.402 20 1.72 0 .672.672.96 1.5.643.922-.354 1.5.002 1.5.924 0 1.61 2.034 2.714 4.998 2.714 1.01 0 1.985.356 2.169.79.379.9 11.377 6.21 12.86 6.21.535 0 .973.675.973 1.5s.466 1.5 1.035 1.5c.688 0 .711.605.07 1.804-.531.992-.592 2.408-.136 3.146 1.014 1.64 4.031.658 4.031-1.312 0-1.82 2.903-2.963 4.39-1.729.626.519 2.931 1.146 5.124 1.394 2.192.248 4.768.777 5.723 1.176.956.399 3.109.247 4.785-.337 2.211-.771 2.859-.759 2.364.043-.46.744.2.936 2.017.589 2.496-.477 2.654-.312 2.104 2.196-.411 1.868-.077 3.142 1.072 4.095 1.472 1.222 2.052.925 4.957-2.535 2.832-3.373 3.511-3.736 4.877-2.602.873.724 1.587 1.937 1.587 2.694 0 1.912 1.254 1.721 3.705-.562 1.145-1.067 2.316-1.706 2.601-1.421.286.286 3.123.639 6.305.785 3.267.149 5.953.768 6.17 1.42.62 1.86 4.21 1.363 4.295-.594.042-.962.642-.175 1.333 1.75 1.03 2.869 1.828 3.557 4.424 3.813 1.742.173 3.167.794 3.167 1.382 0 .669 1.495.868 4 .532 2.2-.295 4.215-.189 4.477.236.263.426 2.784 1.079 5.603 1.453 3.801.504 5.72.29 7.43-.83 1.829-1.199 2.407-1.244 2.801-.218.719 1.874 9.144.638 9.324-1.368.074-.825.193-2.175.265-3 .093-1.067.348-1.158.884-.315 1.039 1.634 11.216 2.944 11.216 1.444 0-.621.598-1.129 1.329-1.129 2.206 0 6.339-10.182 6.597-16.25.041-.962.697-1.75 1.457-1.75 1.3 0 2.594-2.525 3.101-6.051.123-.853 1.64-4.517 3.37-8.143 1.73-3.626 3.146-6.894 3.146-7.263 0-1.547 5.043-11.543 5.824-11.543.468 0 1.672-2.414 2.675-5.364 1.527-4.495 2.146-5.28 3.818-4.843 1.345.352 1.762.144 1.28-.635-.393-.637-.324-1.158.155-1.158.726 0 2.203-4.444 3.989-12 .195-.825.57-3.75.833-6.5s.717-6.8 1.009-9c.291-2.2.692-5.35.889-7 .198-1.65-.099-5.925-.659-9.5-.561-3.575-1.155-9.65-1.322-13.5-.681-15.736-1.667-25.159-3.593-34.332-1.116-5.318-2.725-14.168-3.575-19.668-.85-5.5-1.901-10.225-2.336-10.5-.435-.275-1.124-2.725-1.532-5.445-.407-2.72-1.543-5.807-2.524-6.86-.981-1.053-1.576-2.457-1.321-3.12.254-.664-.193-2.47-.995-4.015-.801-1.545-1.241-3.37-.978-4.055.263-.686-.223-1.516-1.08-1.845-.856-.328-1.557-1.456-1.557-2.506 0-1.05-.695-2.486-1.546-3.192-.85-.705-1.307-1.903-1.016-2.662.291-.758.119-2.149-.383-3.09-.501-.94-1.928-3.937-3.169-6.66-1.242-2.722-3.862-7.132-5.822-9.799-2.908-3.957-4.012-4.767-6.001-4.403-1.715.314-2.985-.251-4.287-1.905-1.017-1.294-2.471-2.114-3.23-1.822-.873.335-1.995-.765-3.05-2.989-.919-1.935-2.336-3.657-3.149-3.825-2.174-.451-6.82-12.532-5.453-14.18.777-.935.672-1.82-.379-3.209-.798-1.055-1.466-2.706-1.483-3.668-.018-.962-.482-1.75-1.032-1.75s-1-.675-1-1.5-.45-1.5-1-1.5-1-.63-1-1.4c0-.769-1.626-3.807-3.613-6.75-1.988-2.942-4.199-7.28-4.914-9.638-.715-2.359-2.464-5.204-3.887-6.323-1.422-1.119-2.586-2.451-2.586-2.961 0-.509-2.812-3.926-6.25-7.592-9.662-10.306-10.949-11.556-16.275-15.812-6.681-5.339-12.114-10.891-17.17-17.546-4.15-5.46-9.249-9.978-11.265-9.978-.572 0-1.04-.592-1.04-1.315s-1.621-2.088-3.602-3.032c-1.981-.945-3.834-2.603-4.117-3.686-.283-1.082-1.051-1.967-1.707-1.967-.656 0-2.741-1.79-4.634-3.977-1.892-2.188-3.791-3.988-4.219-4-.429-.013-3.057-1.823-5.84-4.023-2.783-2.2-5.518-4-6.076-4-.559 0-2.353-1.125-3.987-2.5s-3.557-2.5-4.274-2.5c-.716 0-3.873-1.548-7.016-3.441-3.143-1.893-6.922-3.706-8.397-4.03-1.476-.324-3.121-1.579-3.657-2.787-.587-1.326-2.958-2.941-5.974-4.069-2.75-1.028-6.125-2.487-7.5-3.241-5.566-3.051-13.425-6.432-14.954-6.432-.634 0-2.808-1.125-4.831-2.5-2.024-1.375-4.454-2.5-5.4-2.5-.947 0-2.755-.413-4.018-.919-5.041-2.015-6.392-2.437-8.662-2.702-1.3-.152-3.1-.902-4-1.667-.899-.764-4.335-2.179-7.635-3.144-3.3-.965-8.25-2.792-11-4.06-5.562-2.565-18.383-5.958-19.247-5.094-.305.305-1.05-.095-1.654-.889-.666-.876-3.553-1.63-7.331-1.917-3.427-.261-7.477-1.122-9-1.915-1.522-.793-5.243-2.244-8.268-3.223-3.025-.98-7.62-2.787-10.211-4.017-2.591-1.229-7.091-2.793-10-3.475-2.909-.682-5.739-1.557-6.289-1.944-.89-.626-3.772-1.298-15.25-3.554-3.125-.614-3.256-.51-3.4 2.691-.135 2.992-.192 3.053-.564.601-.228-1.5-1.52-3.597-2.871-4.66-1.631-1.283-2.029-2.082-1.185-2.379.698-.246-.53-.523-2.73-.614-2.2-.092-5.8-.501-8-.909l-4-.742-.279-14.416c-.153-7.929-.675-14.897-1.16-15.484-1.022-1.237-2.472-8.186-2.288-10.966.069-1.044-.527-3.159-1.324-4.701-.797-1.541-1.449-4.362-1.449-6.268 0-1.906-.337-3.655-.75-3.886-.413-.23-.187-.282.5-.114.688.167 1.25-.325 1.25-1.093 0-1.576-2.658-4.54-4.071-4.54-.511 0-.929-1.035-.929-2.3s-.358-2.728-.796-3.25c-1.562-1.865-3.102-8.114-4.67-18.95-1.985-13.72-4.839-24.948-6.853-26.962-1.762-1.762-3.73-1.803-8.681-.183M177.948 413.154c-.796 1.15-1.989 2.657-2.65 3.349-.662.693-.927 1.535-.589 1.873.338.337 1.706-.994 3.041-2.959s2.252-3.748 2.037-3.963c-.215-.215-1.042.55-1.839 1.7m308.433 17.939c-2.685 2.84-6.681 6.783-8.881 8.762-7.309 6.575-15.965 15.556-22.308 23.145-8.349 9.99-8.192 9.781-8.192 10.851 0 .514-.675 1.194-1.5 1.511-.825.316-1.5 1.109-1.5 1.762s-1.132 2.671-2.515 4.484c-2.981 3.908-10.468 22.653-13.546 33.912-1.2 4.389-2.69 8.311-3.311 8.715-.62.404-.735.741-.256.75.48.008.425.578-.122 1.265-1.54 1.935-7.214 21.088-7.837 26.455-.306 2.637-1.267 8.17-2.134 12.295-1.776 8.447-2.11 12.228-2.339 26.5-.185 11.57.491 16.342 3.149 22.239 1.051 2.332 1.911 4.633 1.911 5.115 0 .481 1.343 2.398 2.984 4.26 1.641 1.863 2.991 3.977 3 4.7.009.723 4.179 5.48 9.266 10.573 5.087 5.092 10.6 11.25 12.25 13.686 1.65 2.435 3.45 4.94 4 5.566.55.627 1.9 2.393 3 3.925 2.575 3.587 5.021 5.908 10.123 9.605 2.267 1.643 4.706 4.077 5.419 5.409.713 1.332 1.713 2.422 2.224 2.422.51 0 2.948 1.779 5.417 3.952 2.47 2.174 5.998 4.842 7.842 5.93l3.351 1.977.048-18.078c.027-9.943.501-23.974 1.053-31.18.919-11.991 1.522-31.145 2.521-80.101.202-9.9.617-23.625.922-30.5 1.235-27.787 1.655-69.246.825-81.264-.486-7.02-.571-15.12-.19-18 .382-2.88.584-5.365.45-5.522-.133-.157-2.439 2.039-5.124 4.879M204.623 716.095c.692 5.942 6.635 19.278 11.563 25.942l2.138 2.892 1.338-2.579c1.764-3.4 1.732-3.487-1.034-2.793-1.954.491-2.489.133-3.031-2.027-.362-1.442-.396-3.046-.076-3.565.324-.522-.135-.667-1.029-.324-1.102.423-1.787-.055-2.168-1.511-.307-1.172-.955-2.13-1.441-2.13-.485 0-.883-.681-.883-1.514 0-.832-.562-2.421-1.25-3.53-1.03-1.662-.986-2.191.25-3.006 1.297-.854 1.237-1.188-.441-2.469-1.068-.815-2.049-2.215-2.181-3.112-.484-3.294-2.137-3.552-1.755-.274M197.58 723c.918 6.921 2.023 10 3.586 10 .524 0 .658-.476.298-1.058-.36-.582-1.515-3.845-2.568-7.25-1.77-5.729-1.869-5.855-1.316-1.692m-25.025 4c.669 4.239 3.451 11 4.527 11 .986 0-.264-4.199-2.976-10-2.071-4.431-2.095-4.446-1.551-1m6.15 16.325c-.269.701.876 3.052 2.543 5.225 1.667 2.172 2.692 3.05 2.278 1.95-.414-1.1-1.008-2.9-1.32-4-.837-2.948-2.877-4.799-3.501-3.175m261.295 188c1.375.769 3.85 1.667 5.5 1.995l3 .597-3-1.335c-1.65-.734-4.125-1.632-5.5-1.995l-2.5-.66 2.5 1.398m9.322 3.33c.928.928 8.678 4.337 8.678 3.816 0-.519-7.625-4.471-8.627-4.471-.388 0-.412.295-.051.655m293.937 167.083c-.094.969-.463 9.412-.82 18.762-.358 9.35-1.072 17.156-1.587 17.347-.57.212-.555.805.039 1.521.632.762.626 6.08-.016 15.153-.544 7.688-.992 15.104-.995 16.479-.004 1.375.063 9.113.149 17.196.151 14.222-.389 18.457-2.017 15.824-.406-.657-1.049 2.332-1.43 6.643-.381 4.31-.879 9.412-1.108 11.337-1.501 12.66-.19 54.433 1.784 56.81.8.964 1.34 5.802 1.517 13.593.151 6.653.313 12.772.359 13.597.047.825-.457 5.325-1.12 10-.662 4.675-1.14 10.075-1.061 12 .079 1.925.11 9.077.07 15.893-.065 10.959.102 12.248 1.44 11.138.833-.691 1.437-2.443 1.343-3.894-.458-7.044.207-11.137 1.811-11.137 1.111 0 1.457.61 1.106 1.952-.281 1.074-.186 2.086.211 2.25.397.164.461 5.854.144 12.645-.318 6.791-.3 12.518.04 12.727.339.209 5.215-2.084 10.835-5.097 5.62-3.012 10.742-5.481 11.382-5.487.641-.005 3.996-1.805 7.455-4 3.46-2.194 6.667-3.99 7.128-3.99.46 0 1.455-.751 2.21-1.669.754-.917 5.958-5.594 11.564-10.391 5.605-4.798 9.917-8.997 9.583-9.332-.335-.334-.008-.608.725-.608s1.111-.222.84-.493 1.454-2.584 3.834-5.139c2.379-2.555 4.326-5.457 4.326-6.448 0-.991.408-2.054.908-2.363.924-.571 2.443-5.229 6.028-18.481 1.105-4.083 2.502-7.728 3.105-8.101.603-.373 2.217-3.097 3.587-6.054 1.37-2.957 2.802-5.612 3.182-5.899 1.559-1.179 7.19-8.982 7.19-9.963 0-.583.379-1.059.843-1.059 1.867 0 4.646-19.493 4.563-32-.073-10.868-.441-13.542-2.816-20.483-1.503-4.391-3.092-8.441-3.531-9-.439-.56-1.368-2.817-2.065-5.017-1.945-6.141-4.382-11.5-5.23-11.5-.42 0-.764-.639-.764-1.419 0-.781-2.25-3.882-5-6.891s-5-5.989-5-6.622c0-1.872-6.014-9.78-13.205-17.366-3.688-3.89-7.231-8.339-7.872-9.887s-1.531-2.815-1.978-2.815c-.446 0-2.754-1.949-5.128-4.331-2.375-2.382-7.692-7.183-11.817-10.668-4.125-3.486-7.743-6.97-8.039-7.743-.297-.773-.883-1.342-1.302-1.264-.42.078-5.931-3.826-12.246-8.676-6.316-4.85-11.821-8.936-12.234-9.08-.413-.144-.827.531-.92 1.5m-581.039 48.676c-1.771 1.877-3.22 3.695-3.22 4.039 0 .677 2.388-1.619 5.412-5.203 2.921-3.462 1.42-2.665-2.192 1.164m-13.018 17.336c-2.791 3.97-5.429 9.356-4.861 9.924.268.269 1.281-1.236 2.251-3.343s2.614-5.068 3.654-6.581c1.039-1.513 1.665-2.75 1.39-2.75-.275 0-1.37 1.237-2.434 2.75m-7.452 14c-.665 1.513-1.78 3.11-2.479 3.55-.699.44-1.271 1.43-1.271 2.2 0 .77-.631 1.76-1.401 2.2-1.383.789-5.986 13.246-5.189 14.043.225.226 2.059-3.112 4.074-7.416 2.015-4.305 4.242-8.502 4.948-9.327 1.381-1.612 3.772-8 2.995-8-.259 0-1.013 1.237-1.677 2.75m2.935 17.629c-.31.806-1.603 1.664-2.874 1.907-2.135.408-2.11.452.332.578 2.332.12 4.737-2.317 3.504-3.55-.22-.22-.653.259-.962 1.065m-6.416 12.697c-.128 1.701.104 1.859 1.287.877 1.791-1.486 1.868-2.953.157-2.953-.708 0-1.358.934-1.444 2.076m-5.074 11.452c.836 1.835 1.375 2.178 1.963 1.25 1.396-2.199.921-3.778-1.137-3.778-1.753 0-1.847.288-.826 2.528m-12.624 6.043c-.367 1.466-.443 2.89-.168 3.165.275.275.801-.699 1.168-2.165.368-1.465.444-2.889.169-3.164-.275-.275-.801.699-1.169 2.164m12.096-1.904c-.367.366-.667 1.716-.667 3 0 1.283-.436 2.333-.969 2.333-.532 0-.69.724-.351 1.609.776 2.021 1.759.407 2.657-4.359.625-3.315.509-3.763-.67-2.583M113.787 1240c-.242 1.65-.069 3 .386 3s.827-1.35.827-3-.174-3-.387-3c-.212 0-.584 1.35-.826 3m3.365 1.241c-1.795 5.796-2.426 10.138-2.343 16.111.074 5.324-.095 5.807-1.864 5.344-1.07-.28-1.963-.213-1.984.148-.022.361-.253 3.469-.514 6.906-.294 3.869-.089 6.25.539 6.25 1.491 0 1.234 1.922-.486 3.643-1.206 1.206-1.482 4.373-1.406 16.178.087 13.625 2.451 49.81 2.765 42.335.101-2.401.69-3.487 2.087-3.852 2.651-.693 2.753-1.919 1.311-15.762-1.14-10.947-1.048-33.726.192-47.944.245-2.804.723-8.923 1.062-13.598.34-4.675 1.236-10.628 1.993-13.228.756-2.601.989-4.967.516-5.259-.472-.293-1.313.935-1.868 2.728m10.475 7.759c-1.087 4.354-1.376 12.963-.416 12.369 1.133-.7 1.954-6.521 1.608-11.392l-.319-4.477-.873 3.5m-5.035 33.621c-.323.84.008 2.122.735 2.849 1.096 1.096 1.506 1.028 2.395-.397.838-1.342.677-1.967-.735-2.849-1.429-.892-1.932-.809-2.395.397m1.965 6.287c-.308.499-.139 1.961.378 3.25.878 2.191.942 2.132 1.002-.908.064-3.286-.356-3.999-1.38-2.342m-2.029 18.631c.326 8.503.27 8.327 2.473 7.751 1.67-.437 1.959-1.248 1.75-4.902-.158-2.761-.725-4.38-1.533-4.383-.705-.003-1.651-1-2.1-2.216-.549-1.484-.743-.252-.59 3.75m618.124 7.211c-.896 9.481-.805 17.25.201 17.25.867 0 2.147-11.72 2.147-19.651 0-6.783-1.639-5.107-2.348 2.401m-614.799 4.92c-.906.24-1.897 1.426-2.201 2.634-.51 2.026-.45 2.058.779.417 1.201-1.605 1.394-1.62 1.954-.16.853 2.223-.105 3.462-2.167 2.801-1.348-.432-1.419-.338-.331.437.817.582 1.191 2.015.909 3.487-.262 1.374.088 5.134.78 8.356.691 3.222 1.294 5.247 1.34 4.501.046-.746.678-1.129 1.403-.851 1.05.403 1.162-.647.551-5.143-.423-3.107-.897-8.237-1.055-11.399-.157-3.162-.292-5.698-.3-5.634-.008.064-.756.313-1.662.554m4.147 26.389c0 .582-.45.781-1 .441s-1 .11-1 1 .412 1.364.915 1.053c.503-.311 1.142 0 1.421.691.278.691.542.019.585-1.494.043-1.513-.146-2.75-.421-2.75s-.5.477-.5 1.059m-1.85 7.177c-.213 3.893 2.054 11.764 3.39 11.764 1.571 0 3.63 7.09 2.467 8.492-1.414 1.703-.014 5.508 2.026 5.508.99 0 2.027.563 2.305 1.25.335.831.531.73.583-.3.043-.852-.336-1.977-.843-2.5-.747-.77-6.078-19.14-6.078-20.946 0-.277-.645-.504-1.434-.504-.796 0-1.618-1.223-1.85-2.75l-.416-2.75-.15 2.736m7.564 3.764c.332 1.925.982 3.65 1.445 3.833.462.184.841 1.196.841 2.25 0 1.055.477 1.917 1.059 1.917s.899-.338.703-.75c-.401-.844-1.992-4.504-3.586-8.25-.952-2.235-1.001-2.129-.462 1m-19.442 4c0 2.475.195 3.487.434 2.25.238-1.237.238-3.263 0-4.5-.239-1.237-.434-.225-.434 2.25m.812 7.5c.062 3.792 5.616 16.991 7.289 17.323 2.32.461 2.011-1.756-.555-3.981-1.201-1.041-3.214-4.919-4.475-8.618-1.26-3.698-2.277-5.824-2.259-4.724m6.955 22.07c.948 1.688 2.052 5.012 2.454 7.386.401 2.374 2.479 8.017 4.618 12.539 2.139 4.522 3.889 9.086 3.889 10.141 0 1.84 1.726 4.837 4.978 8.646.837.981 1.578 2.218 1.647 2.75.069.533.188 1.531.265 2.218.103.917.376.878 1.024-.146.51-.804 1.598-1.122 2.569-.749 1.138.437 1.495.241 1.101-.604-.32-.688-.86-2.038-1.2-3.001-.339-.963-1.015-1.75-1.501-1.75-.485 0-.883-.81-.883-1.8s-.378-2.227-.84-2.75c-.462-.522-1.455-2.525-2.207-4.45-.753-1.925-1.954-4.099-2.67-4.831-.716-.731-1.046-1.744-.733-2.25.312-.505.091-.919-.491-.919s-1.059.54-1.059 1.2c0 .867-.347.832-1.25-.125-1-1.06-1-1.417 0-1.783.688-.252 1.25-1.287 1.25-2.3 0-2.415-5.983-17.395-7.12-17.825-.484-.184-.88-.859-.88-1.5 0-.642-1.054-1.167-2.342-1.167-2.323 0-2.328.026-.619 3.07m13.021-1.57c-.033 2.781 1.42 5.69 2.176 4.357.267-.471-.106-2.207-.83-3.857-1.275-2.908-1.317-2.923-1.346-.5m5.514 6.225c1.44 4.326 1.81 4.842 3.109 4.343.824-.316 1.151-.109.779.494-.353.571.123 2.65 1.057 4.62 1.28 2.696 1.916 3.24 2.575 2.2 1.138-1.797 1.149-3.15.019-2.452-1.321.816-3.425-2.174-2.756-3.917.864-2.253-.328-4.513-2.381-4.513-.995 0-2.038-.461-2.318-1.025-.279-.564-.317-.451-.084.25m1.508 14.525c1.295 3.641 4.604 7.897 5.469 7.033.378-.378-.052-1.427-.955-2.33-.904-.903-2.319-2.95-3.145-4.548-1.899-3.672-2.65-3.757-1.369-.155m6.187 11.774c.692 2.257 1.354 3.087 1.837 2.305.769-1.244-.388-4.267-2.018-5.275-.496-.306-.415 1.03.181 2.97m-14.269-.646c0 1.26 2.935 3.52 3.648 2.808 1.024-1.024-.505-3.686-2.117-3.686-.842 0-1.531.395-1.531.878m11.817 24.124c2.61 4.571 6.545 9.93 9.933 13.528.688.73 1.25 1.744 1.25 2.253 0 1.624 13.756 16.217 15.287 16.217.471 0 .146-.71-.722-1.578-3.79-3.79-4.476-8.151-.839-5.332 1.408 1.092 1.368.901-.191-.924-1.738-2.033-2.097-2.118-3.11-.732-.63.861-1.433 1.566-1.785 1.566-1.173 0-.659-2.827.589-3.243 1.595-.532-.536-3.812-9.262-14.257-3.676-4.4-6.937-8.675-7.247-9.5-.343-.915-.593-1.012-.641-.25-.043.688-.781 1.25-1.638 1.25-.857 0-1.337-.36-1.065-.8.272-.44-.394-1.355-1.48-2.033-1.66-1.036-1.513-.426.921 3.835m45.689 46.498c4.487 7.093 4.934 7.628 8.994 10.8l4 3.125-4.5-5.083a579.392 579.392 0 0 1-7.763-8.963l-3.262-3.879 2.531 4" fill-rule="evenodd"/></svg>