<svg xmlns="http://www.w3.org/2000/svg" width="1240" height="1753"><path d="M547.622 75.712c-.223.222-3.716.602-7.763.843-7.81.466-9.195.73-31.859 6.096-15.307 3.623-29.859 8.007-31.45 9.473-.522.482-1.766.876-2.764.876-.997 0-2.595.412-3.55.916-2.656 1.401-8.967 4.084-9.607 4.084-.314 0-3.029 1.125-6.035 2.5-3.006 1.375-5.751 2.5-6.099 2.5-.348 0-6.79 2.956-14.314 6.569-7.525 3.613-17.506 8.2-22.181 10.194-4.675 1.993-8.725 3.921-9 4.283-.275.363-2.975 1.467-6 2.454-12.57 4.103-42.009 16.066-43 17.473-.275.391-2.637 1.518-5.25 2.505-2.613.986-4.75 2.1-4.75 2.474 0 .374-2.7 1.971-6 3.548s-6 3.164-6 3.526c0 .363-1.575 1.507-3.5 2.544-1.925 1.037-3.5 2.188-3.5 2.56 0 .371-1.35 1.145-3 1.72s-3 1.489-3 2.031c0 .541-.919 1.276-2.042 1.632-1.123.357-3.729 2.3-5.79 4.318-2.062 2.018-4.855 4.174-6.208 4.791-4.718 2.152-20.184 17.833-28.419 28.815-4.563 6.084-10.824 14.213-13.913 18.063-3.089 3.85-5.619 7.537-5.622 8.193-.003.657-.908 1.825-2.01 2.597-2.513 1.76-12.147 17.656-11.417 18.837.296.48.115.873-.403.873-1.011 0-6.436 10.672-6.482 12.75-.015.688-.368 1.25-.785 1.25-.85 0-8.399 18.85-9.411 23.5-.36 1.65-1.048 3.9-1.531 5-.779 1.776-2.03 5.556-7.445 22.5-1.568 4.906-3.24 13.892-3.914 21.042-.445 4.721-3.92 17.393-10.759 39.232-2.2 7.025-3.803 13.325-3.562 14 .241.674-.166 2.424-.905 3.889-2.464 4.885-6.512 22.244-6.958 29.837-.549 9.37-.946 13.361-2.367 23.794-1.217 8.932-.809 22.355.949 31.206.601 3.025 1.499 8.65 1.995 12.5 1.248 9.689 1.693 12.322 2.957 17.5.604 2.475 1.269 5.203 1.477 6.062.207.858 1.299 3.558 2.426 6 1.127 2.441 3.674 9.613 5.66 15.938 4.718 15.02 9.479 28.158 10.818 29.848.587.741 1.186 2.124 1.331 3.073.242 1.584 4.223 8.869 9.162 16.767 1.097 1.754 2.324 4.229 2.727 5.5.403 1.272 1.889 4.112 3.302 6.312 3.766 5.865 6.603 12.223 9.184 20.588 1.258 4.076 3.509 9.267 5.002 11.535 1.493 2.268 3.269 5.868 3.948 8 .679 2.132 2.503 5.902 4.055 8.377 1.552 2.475 3.307 5.784 3.9 7.352 1.553 4.109 12.116 23.034 13.263 23.763 1.132.719 2.289 2.724 7.433 12.885 4.449 8.785 14.277 24 15.504 24 .468 0 .85.51.85 1.133s.792 1.86 1.761 2.75c.969.889 3.082 3.417 4.697 5.617 1.615 2.2 3.209 4.225 3.542 4.5.333.275 1.693 2.3 3.021 4.5 4.71 7.798 10.97 15.142 22.652 26.572 21.195 20.738 32.993 34.042 31.841 35.905-.247.4-3.506.984-7.242 1.297-8.672.727-25.307 4.944-31.772 8.054-2.75 1.323-6.125 2.747-7.5 3.164-6.644 2.015-22.743 9.303-38.293 17.335-21.174 10.937-63.279 36.107-74.707 44.66a1275.263 1275.263 0 0 1-8 5.922c-19.942 14.633-24.076 17.849-23.582 18.342.311.311-.752 1.506-2.36 2.657-2.814 2.012-17.233 19.055-27.574 32.592-2.731 3.575-9.478 12.125-14.993 19-16.51 20.581-30.49 43.223-35.195 57-.845 2.475-3.427 8.775-5.739 14-2.311 5.225-5.011 12.425-5.999 16a669.571 669.571 0 0 1-3.144 11c-.742 2.475-2.906 10.8-4.81 18.5-1.903 7.7-5.478 20.75-7.942 29-4.516 15.116-8.617 32.446-8.684 36.7-.07 4.439-.79 10.36-2.041 16.8-1.694 8.72-1.327 35.876.635 46.88 1.466 8.227 1.417 15.444-.214 31.62-1.598 15.847.147 47.981 3.177 58.5.713 2.475 1.829 7.65 2.48 11.5 2.788 16.486 12.023 47.5 14.144 47.5.463 0 .841.685.841 1.522 0 1.537 4.859 12.288 7.221 15.975.703 1.099 3.754 5.533 6.779 9.853 3.025 4.32 5.95 8.581 6.5 9.468 5.199 8.386 14.694 22.184 15.272 22.193.401.007 1.613 1.858 2.695 4.115 1.081 2.257 2.544 4.325 3.25 4.595.705.271 1.283 1.423 1.283 2.56 0 3.385 7.562 17.2 18.457 33.719 5.623 8.525 11.758 18.059 13.633 21.186 1.876 3.128 4.181 6.053 5.123 6.5.941.448 4.659 5.314 8.262 10.814 10.783 16.464 11.284 17.162 15.483 21.577 2.223 2.337 4.042 4.469 4.042 4.738 0 .269 1.786 2.333 3.969 4.587 7.537 7.782 10.004 11.027 16.238 21.363 4.024 6.672 8.148 12.044 11.558 15.054 2.916 2.575 13.049 12.399 22.518 21.832 18.731 18.66 24.698 23.985 37.625 33.578 7.557 5.608 9.334 6.675 18.706 11.23 5.013 2.436 12.564 7.171 16.78 10.521 4.216 3.35 12.04 8.484 17.386 11.408 5.346 2.923 12.513 7.07 15.926 9.214 15.723 9.876 18.329 11.398 19.521 11.405.7.003 2.623.9 4.273 1.993 1.65 1.093 3.963 1.99 5.141 1.993 2.995.01 21.202 4.772 25.01 6.542 1.733.806 3.469 1.465 3.857 1.465.388 0 3.47 1.317 6.849 2.927s8.393 3.464 11.143 4.121c2.75.657 7.662 2.04 10.915 3.073 3.253 1.034 7.313 1.879 9.02 1.879 1.708 0 6.246.863 10.085 1.918 3.839 1.054 9.832 2.139 13.317 2.409 5.328.414 6.591.196 7.933-1.371 1.549-1.809 1.661-1.798 3.842.384 2.404 2.404 16.25 6.787 27.388 8.67 6.733 1.138 26.129 3.003 34 3.269 8.81.298 61.766-2.016 62.954-2.751.365-.225 3.787-.492 7.605-.593 4.334-.114 12.762-1.692 22.441-4.202 8.525-2.211 17.075-4.158 19-4.327 1.925-.169 5.525-.623 8-1.009 2.475-.385 5.175-.795 6-.911.825-.115 3.863-1.165 6.75-2.333 2.888-1.168 5.25-1.912 5.25-1.653 0 .259 2.362-.471 5.25-1.621 2.888-1.151 7.5-2.74 10.25-3.531 2.75-.791 5.9-1.81 7-2.265 2.68-1.108 15.3-3.792 24.25-5.158 3.987-.608 7.25-1.445 7.25-1.859 0-.414 3.038-1.727 6.75-2.918 24.113-7.732 28.39-9.219 31.857-11.077 2.125-1.139 4.419-2.071 5.098-2.071.679 0 2.935-.978 5.015-2.173 4.514-2.596 10.07-5.581 24.78-13.313 16.725-8.792 20.834-11.975 45.379-35.155 8.131-7.678 19.433-16.359 21.298-16.359.465 0 2.144 2.813 3.732 6.25 1.587 3.438 4.057 7.957 5.488 10.044 1.432 2.087 2.616 4.112 2.631 4.5.015.388 1.365 2.474 3 4.634 1.635 2.161 2.972 4.459 2.972 5.107 0 1.422 10.915 18.061 13.89 21.173 1.16 1.215 2.11 2.525 2.11 2.913 0 .717 5.983 10.467 6.982 11.379.302.275 2.792 3.369 5.533 6.875 2.742 3.506 6.138 7.781 7.548 9.5 1.409 1.719 3.815 5.304 5.346 7.967 1.531 2.663 3.64 5.576 4.687 6.472 1.047.897 1.904 1.999 1.904 2.45 0 1.053 1.788 3.292 5.25 6.574 1.512 1.434 2.75 2.964 2.75 3.399 0 .435 1.462 2.104 3.25 3.709 3.055 2.742 3.639 2.887 9.75 2.409 3.575-.28 9.297-.56 12.717-.624 4.109-.076 6.386-.558 6.718-1.423.276-.719 1.191-1.308 2.034-1.308.842 0 1.531-.822 1.531-1.826 0-2.289 4.523-6.632 7.081-6.799 3.238-.211 3.287-.306 1.351-2.625-1.034-1.237-1.238-1.687-.455-1 2.245 1.972 4.335 1.552 3.733-.75-.34-1.3-.03-2 .884-2 .773 0 1.406-.362 1.406-.804 0-.443 3.367-2.537 7.481-4.653 4.115-2.117 7.745-4.68 8.068-5.696.322-1.016 1.069-1.847 1.66-1.847s2.384-1.37 3.984-3.044c2.928-3.064 7.348-5.358 8.707-4.518.403.249 1.516-.872 2.473-2.492.957-1.62 2.39-3.002 3.184-3.071.793-.069 1.893-.237 2.443-.375s1.45-.306 2-.375 1-.607 1-1.196c0-.59.614-1.686 1.364-2.436 1.047-1.047 1.639-1.09 2.542-.187.903.903 1.368.868 1.997-.15.452-.73 1.22-1.346 1.709-1.369.488-.023 1.338-.187 1.888-.365.55-.178 2.894-.808 5.208-1.4 2.314-.592 4.466-1.494 4.782-2.006.316-.511 1.235-.675 2.042-.365.915.351 1.468-.042 1.468-1.044 0-1.119.911-1.607 3-1.607 2.268 0 3-.458 3-1.878 0-1.032.622-2.394 1.383-3.025 1.078-.894 1.538-.756 2.081.627.595 1.515.87 1.36 1.87-1.051l1.172-2.826 2.24 2.576c2.817 3.24 4.55 3.261 6.254.077 1.388-2.593 3-3.333 3-1.378 0 .789.434.763 1.461-.09.866-.718 4.937-1.257 10-1.322 6.285-.08 8.539-.452 8.539-1.41 0-.715.348-1.3.773-1.3 1.544 0 4.474-6.929 3.993-9.444-.314-1.643-.04-2.556.766-2.556 1.396 0 2.468 2.187 2.468 5.035 0 1.029.53 3.035 1.179 4.458 1.071 2.351 1.64 2.561 6.25 2.308 4.9-.268 8.228-1.928 7.201-3.591-.274-.443-.126-1.407.329-2.143.477-.772.237-2.746-.566-4.67-1.89-4.523-1.784-5.082 1.107-5.808 1.375-.345 2.5-1.245 2.5-2.001 0-1.6 2.144-2.588 5.613-2.588 1.347 0 2.702-.658 3.011-1.462.308-.804 1.419-1.734 2.468-2.067 1.05-.333 1.908-1.475 1.908-2.538 0-1.063.45-1.933 1-1.933 1.798 0 1.05-1.504-1.25-2.513-1.84-.807-2.291-1.882-2.474-5.895-.158-3.444.23-5.241 1.298-6.023 1.05-.767 1.394-2.283 1.108-4.878-.323-2.939.001-3.986 1.48-4.778 1.042-.557 1.618-1.46 1.28-2.007-.338-.546-.07-1.649.594-2.45.665-.801.816-1.463.336-1.471-.479-.009-.37-.346.243-.75 1.908-1.257 2.725-5.235 1.075-5.235-2.121 0-3.643-2.261-4.087-6.07-.215-1.848-.874-3.52-1.465-3.717-.591-.197-1.357-1.862-1.701-3.699-.345-1.838-1.484-4.261-2.532-5.386-1.048-1.124-1.905-2.538-1.905-3.141 0-1.389-7.257-12.125-9.395-13.9-.883-.732-1.605-1.861-1.605-2.508s-1.687-3.009-3.75-5.248c-3.851-4.183-12.192-16.853-14.878-22.6-2.102-4.5-5.191-9.588-9.872-16.261-2.2-3.136-4.267-6.213-4.592-6.836-1.666-3.189-2.812-5.04-7.408-11.971-8.289-12.498-13.833-21.849-13.833-23.331 0-.77-1.077-2.562-2.394-3.982l-2.393-2.583 7.364-7.633c4.05-4.199 8.408-9.132 9.684-10.963 1.276-1.83 3.277-4.331 4.446-5.556 6.773-7.095 17.803-21.34 25.649-33.124 6.733-10.113 11.396-15.751 21.717-26.262 10.519-10.713 12.26-13.217 12.26-17.633 0-2.008.499-3.596 1.131-3.596 1.906 0 .288-6.315-3.897-15.202-6.685-14.195-17.779-25.847-29.484-30.967-4.051-1.772-4.75-2.492-4.75-4.895 0-1.55-.45-3.096-1-3.436-.55-.34-1-2.209-1-4.153 0-2.693-.476-3.659-2-4.057-2.477-.648-2.475-.729.099-4.211 1.755-2.372 1.906-3.202.918-5.047-.869-1.624-1.78-2.057-3.447-1.639-1.754.44-2.53-.009-3.431-1.987-.64-1.406-.905-2.975-.588-3.488.316-.512-.353-2.236-1.488-3.829-1.135-1.594-2.063-3.297-2.063-3.785s-1.472-2.444-3.272-4.346c-3.416-3.609-7.585-5.958-10.579-5.958-.966 0-3.982-1.075-6.703-2.389-2.72-1.313-6.491-2.669-8.38-3.011-1.889-.343-4.189-1.307-5.112-2.141-.922-.835-3.045-1.617-4.718-1.738-1.673-.122-2.836-.555-2.584-.963.251-.408-1.509-2.736-3.912-5.173-3.087-3.132-4.719-5.847-5.567-9.258-.659-2.655-1.375-5.527-1.591-6.382-.926-3.671-3.558-8.945-4.464-8.945-.541 0-1.235-.787-1.543-1.75-.308-.963-2.363-3.719-4.567-6.126-2.205-2.407-4.008-4.579-4.008-4.826 0-1.142-8.533-14.94-9.928-16.052-.864-.69-3.147-2.014-5.072-2.942-1.925-.928-5.179-2.726-7.23-3.996-2.052-1.269-4.539-2.308-5.528-2.308-1.611 0-5.242-3.171-5.242-4.578 0-.306-1.123-2.028-2.495-3.827-1.373-1.799-2.198-3.569-1.834-3.933.364-.364-4.387-.662-10.558-.662h-11.22l-7.196 5.646c-3.959 3.105-16.061 14.58-26.895 25.5-10.835 10.92-20.172 19.854-20.75 19.854-.579 0-1.052-.9-1.052-2 0-1.111-.667-2-1.5-2-.825 0-1.5-.873-1.5-1.941s-.457-2.224-1.016-2.569c-.559-.346-.758-1.047-.441-1.559.316-.512.069-.931-.549-.931-1.554 0-6.351-5.869-6.708-8.208-.345-2.261-4.811-10.534-7.04-13.042-.856-.963-1.235-1.75-.843-1.75.695 0-4.312-10.008-5.504-11-.914-.761-6.119-9.055-8.159-13-.995-1.925-2.882-5.3-4.194-7.5-1.312-2.2-2.421-4.679-2.465-5.509-.045-.831-.924-2.037-1.955-2.68-1.031-.644-2.151-2.275-2.49-3.626-.339-1.35-2.208-4.82-4.153-7.71-1.945-2.89-3.306-5.485-3.025-5.766.281-.281-.234-1.056-1.145-1.722-.91-.666-1.761-1.931-1.89-2.813-.13-.881-1.178-2.925-2.329-4.542-1.152-1.618-2.094-3.434-2.094-4.036 0-.603-.355-1.096-.79-1.096-.434 0-2.549-3.263-4.7-7.25-2.151-3.987-4.721-8.122-5.711-9.189-.989-1.066-1.799-2.528-1.799-3.25 0-.721-.39-1.311-.867-1.311s-3.112-3.491-5.855-7.758c-2.744-4.266-5.729-8.371-6.634-9.122-.904-.751-1.644-1.778-1.644-2.283 0-.966-3.757-6.6-5.552-8.326-.579-.556-2.366-3.036-3.971-5.511-1.606-2.475-4.057-5.886-5.448-7.58l-5.867-7.143c-1.836-2.235-4.004-5.347-4.819-6.917-.814-1.569-3.19-5.105-5.279-7.857-2.09-2.751-4.647-6.337-5.682-7.966-1.035-1.63-2.944-4.105-4.243-5.5-1.298-1.396-2.707-3.437-3.131-4.537-.424-1.1-4.311-6.76-8.639-12.579-4.328-5.818-8.319-11.283-8.869-12.145-.55-.861-5.765-8.701-11.59-17.421-13.215-19.786-19.184-29.173-24.853-39.086-2.444-4.273-4.737-7.994-5.096-8.269-1.209-.927-8.961-12.734-8.961-13.649 0-.499-.9-1.677-2-2.619-1.1-.942-2-2.144-2-2.671 0-1.372 5.596-5.386 12-8.608 6.813-3.428 14.776-8.498 22.069-14.051 3.063-2.332 6.94-5.064 8.615-6.071l10.431-6.271c4.353-2.618 11.167-8.222 16.597-13.65 5.067-5.066 13.392-12.711 18.5-16.99 5.108-4.278 11.313-9.671 13.788-11.984 17.313-16.179 28.121-27.027 33.811-33.936 3.624-4.4 7.287-8.714 8.139-9.587.853-.873 4.925-5.559 9.05-10.413 4.125-4.855 9.58-10.918 12.123-13.474 2.542-2.556 4.935-5.633 5.317-6.837.382-1.204 1.282-2.189 1.999-2.189 1.422 0 10.559-19.565 10.564-22.619.003-2.316 5.865-12.17 10.819-18.188 4.177-5.073 8.935-12.718 15.885-25.523 2.636-4.856 7.661-13.856 11.166-20 5.686-9.965 8.372-14.743 11.923-21.208 5.831-10.616 13.914-28.417 16.749-36.89 3.754-11.219 12.081-39.518 13.557-46.072 2.158-9.586 3.984-20.58 4.65-28 1.12-12.478.563-51.156-.846-58.824-.951-5.169-.992-8.564-.17-14 1.405-9.295.763-30.565-1.12-37.085-.808-2.8-2.2-8.016-3.093-11.591-.893-3.575-2.015-7.4-2.493-8.5-3.966-9.117-9.829-20.787-18.338-36.5l-14.621-27c-8.523-15.741-14.979-24.757-30.332-42.36-5.835-6.69-32.809-31.385-40.738-37.295-8.465-6.311-41.433-39.12-47.071-46.845-2.408-3.3-8.911-11.85-14.451-19-5.539-7.15-10.868-14.267-11.841-15.816-4.159-6.615-13.838-16.514-18.441-18.86-3.115-1.587-12.806-7.716-18.86-11.928-2.29-1.593-4.492-2.896-4.892-2.896-.401 0-3.487-1.742-6.857-3.87-3.37-2.129-8.144-4.79-10.608-5.914-2.464-1.124-8.98-4.153-14.48-6.731-11.561-5.418-18.524-7.979-27.14-9.979-3.378-.785-12.843-3.472-21.035-5.972-15.658-4.779-41.043-10.596-47.825-10.959-2.2-.118-4.9-.514-6-.879-1.1-.365-4.7-.928-8-1.25-7.063-.689-56.288-1.324-56.878-.734m-4.205 240.422c-.294.476-2.504.866-4.911.866-2.407 0-5.643.491-7.191 1.092-1.548.601-3.919 1.301-5.268 1.556-12.638 2.393-26.143 6.564-36.547 11.289-17.033 7.736-22.175 10.691-26.939 15.485-8.706 8.758-9.074 9.513-14.695 30.078-.979 3.584-1.331 11.087-1.241 26.5.132 22.845 1.312 34.386 4.342 42.5 5.9 15.796 12.632 32.329 14.048 34.5.896 1.375 2.649 4.975 3.895 8 4.293 10.422 16.425 35.504 18.139 37.5 2.182 2.541 5.354 8.542 5.551 10.5.082.825 1.959 4.2 4.169 7.5 4.238 6.327 9.32 15.659 13.069 24 1.236 2.75 4.441 9.05 7.122 14 10.649 19.664 12.129 22.716 11.84 24.421-.321 1.899 1.817 5.079 3.415 5.079 1.019 0 33.461 32.357 45.017 44.898l6.731 7.306 2.769-2.48c8.725-7.818 13.157-11.511 26.271-21.893 20.091-15.903 46.134-43.755 55.945-59.831 5.5-9.012 19.052-35.74 19.052-37.576 0-.937 1.35-3.897 3-6.578 1.65-2.682 3-5.139 3-5.46 0-.321.689-2.035 1.531-3.809.842-1.775 2.372-7.918 3.4-13.652 1.029-5.734 2.787-13.476 3.908-17.205 1.757-5.849 1.997-9.008 1.742-23-.336-18.498-2.147-26.938-7.776-36.254-10.515-17.399-12.535-21.86-13.937-30.787-1.207-7.679-5.266-17.233-10.587-24.919-1.804-2.607-3.281-5.017-3.281-5.355 0-1.602-23.463-26.405-24.978-26.405-.392 0-1.516-.889-2.499-1.974-.983-1.086-2.734-2.276-3.891-2.643-1.158-.367-6.113-3.304-11.011-6.525-4.899-3.222-9.483-5.858-10.187-5.858-.704 0-2.553-1.054-4.107-2.341-1.555-1.288-3.727-2.586-4.827-2.885-21.003-5.704-35.035-8.23-52-9.362-3.85-.257-8.023-.619-9.274-.805-1.25-.186-2.515.051-2.809.527m-333.67 191.687c.83 2.574 2.689 8.613 4.131 13.422 1.442 4.809 3.072 8.592 3.622 8.407 1.13-.38.766-4.692-.508-6.022-.46-.479-.596-1.498-.302-2.263.294-.765.097-1.947-.437-2.628-.535-.68-1.266-2.787-1.626-4.683-1.538-8.089-2.595-10.626-4.489-10.769-1.813-.136-1.831.069-.391 4.536m12.518 32.92c-.948.319-.889 1.085.25 3.288.817 1.579 1.485 3.541 1.485 4.359 0 .871.829 1.425 2 1.337 1.98-.149 2.926-2.725 1-2.725-.55 0-1.014-.788-1.032-1.75-.043-2.394-2.198-5.017-3.703-4.509m6.129 12.919c-.756.281-.598 1.497.5 3.843 2.107 4.503 4.32 4.731 3.054.314-1.046-3.647-1.981-4.74-3.554-4.157m3.922 9.053c-1.554.538.603 6.802 4.131 11.994 1.404 2.066 2.553 4.328 2.553 5.025 0 .697.45 1.268 1 1.268 1.628 0 1.145-3.736-1-7.739-1.1-2.052-2.003-4.188-2.007-4.746-.012-1.901-3.489-6.213-4.677-5.802m23.359 18.946c-.766.765 1.102 4.341 2.267 4.341.988 0 .209-3.789-.923-4.488-.407-.252-1.012-.186-1.344.147m5.11 10.487c-.584 1.75 2.158 7.007 3.29 6.308.514-.318.204-1.971-.706-3.761-2.058-4.048-2.078-4.067-2.584-2.547M271 613.018c0 2.72 4.291 9.808 5.627 9.295 1.061-.407.923-1.069-.636-3.051-1.095-1.393-1.991-3.091-1.991-3.774 0-.684-.675-1.803-1.5-2.488-1.199-.995-1.5-.991-1.5.018m-9.43 9.869c-.301.487.122 1.442.941 2.122.819.68 1.508 1.968 1.531 2.863.023.896 1.384 3.878 3.024 6.628 1.64 2.75 3.494 6.013 4.119 7.25.625 1.237 1.791 2.25 2.592 2.25.955 0 1.279.676.942 1.966-.283 1.081-.223 1.928.134 1.881 1.777-.231 2.511.27 1.415.967-.934.592-.691 1.795 1 4.953 1.227 2.294 3.02 5.09 3.982 6.214.962 1.123 1.75 2.487 1.75 3.03 0 .544.436.989.969.989.532 0 .711.671.396 1.492-.327.851.116 1.755 1.031 2.107.904.347 1.604 1.752 1.604 3.222 0 2.483.084 2.524 1.749.859 1.664-1.665 1.657-1.903-.16-4.964-1.049-1.769-2.848-5.016-3.998-7.216-1.15-2.2-2.411-4.241-2.802-4.535-.668-.502-4.137-8.188-3.929-8.702.053-.131-1.215-2.381-2.818-5-1.603-2.62-4.09-7.226-5.525-10.236-3.655-7.662-6.464-10.54-7.947-8.14m228.93 377.314c-2.2 1.09-5.8 3.673-8 5.74s-5.8 5.052-8 6.634c-2.2 1.582-6.943 5.924-10.54 9.65-3.598 3.726-7.043 6.775-7.658 6.775-.614 0-2.62 1.333-4.459 2.962-5.263 4.663-11.936 10.076-19.77 16.038-13.569 10.327-32.433 26.363-40.508 34.438-11.606 11.604-25.818 27.266-27.571 30.384-.829 1.473-3.482 6.278-5.896 10.678-2.414 4.4-5.111 8.96-5.994 10.134a101.943 101.943 0 0 0-3.104 4.423c-.825 1.259-2.891 3.899-4.591 5.866-5.323 6.16-12.026 17.327-14.2 23.657-1.149 3.344-2.628 10.769-3.287 16.5-1.018 8.841-.955 12.086.416 21.42 3.154 21.467 4.908 31.039 6.247 34.089.746 1.699 1.552 4.67 1.792 6.602.643 5.187 4.634 18.896 6.194 21.276 1.726 2.636 4.15 9.261 6.415 17.533 2.923 10.679 7.596 22.567 12.096 30.775 5.863 10.695 17.761 26.132 26.645 34.571 4.099 3.893 10.17 10.47 13.493 14.616 3.322 4.146 6.769 7.957 7.66 8.469.891.512 3.645 2.82 6.12 5.129 13.433 12.534 19.912 16.854 38 25.341 7.425 3.484 13.927 6.731 14.45 7.217.522.485 1.545.882 2.272.882 1.386 0 17.271 5.9 23.278 8.645 1.925.88 7.1 2.423 11.5 3.43 4.4 1.006 11.375 2.757 15.5 3.892 9.808 2.697 28.556 3.759 36 2.039 3.025-.699 9.325-1.595 14-1.992 7.847-.665 28.34-3.793 39-5.953 4.08-.827 28.887-12.335 39.985-18.55 2.466-1.381 5.256-2.511 6.2-2.511s2.075-.573 2.515-1.274c1.095-1.744 4.131-3.599 20.594-12.579a5033.494 5033.494 0 0 0 16.206-8.864c1.1-.613 3.575-1.861 5.5-2.772 5.196-2.46 8.195-4.221 8.885-5.219.571-.824 14.764-9.546 19.168-11.779 1.071-.543 1.947-1.355 1.947-1.805 0-1.1-7.753-12.461-10.116-14.824-1.036-1.036-2.334-1.884-2.884-1.884-.55 0-1-.696-1-1.548 0-.851-1.056-2.539-2.346-3.75-1.29-1.211-4.289-5.352-6.663-9.202-2.375-3.85-5.706-8.487-7.404-10.306-1.698-1.818-2.89-3.393-2.65-3.5.407-.181-2.751-5.583-3.914-6.694-.288-.275-.973-1.224-1.523-2.11-2.759-4.442-14.073-19.886-16.952-23.14-.851-.963-1.285-1.75-.964-1.75.321 0-.842-1.8-2.584-4s-2.87-4-2.506-4c.364 0-.948-1.881-2.916-4.18-1.968-2.299-3.596-4.661-3.619-5.25-.022-.588-1.372-2.628-3-4.532-1.627-1.904-2.959-3.856-2.959-4.337 0-.481-1.287-2.748-2.86-5.038-1.573-2.289-4.458-6.638-6.412-9.663-1.953-3.025-4.491-6.494-5.64-7.708-1.148-1.215-2.088-2.599-2.088-3.076 0-.477-1.17-1.958-2.599-3.292-1.429-1.333-3.671-4.53-4.981-7.103-1.31-2.574-2.841-4.963-3.401-5.309-.56-.347-1.019-1.263-1.019-2.036 0-.773-.925-2.434-2.057-3.691-5.811-6.458-16.393-22.148-22.241-32.979-1.903-3.524-5.633-9.76-8.289-13.857-2.655-4.097-4.725-7.816-4.599-8.264.126-.448-.62-2.023-1.658-3.5-1.039-1.477-3.591-5.835-5.672-9.685-7.828-14.482-8.715-16.037-9.984-17.5-.715-.825-1.998-3.187-2.849-5.25-.852-2.062-2.001-3.75-2.553-3.75-.553 0-1.898-2.019-2.989-4.487-1.092-2.469-3.657-7.081-5.699-10.25-2.042-3.17-4.77-7.45-6.062-9.513l-4.697-7.5c-1.292-2.062-5.32-8.33-8.951-13.929-3.632-5.598-7.962-12.587-9.623-15.531-1.662-2.944-3.951-6.351-5.088-7.572-1.137-1.22-1.782-2.218-1.433-2.218.792 0-3.893-8.179-7.702-13.447-1.57-2.171-2.854-4.488-2.854-5.15 0-1.212-6.566-11.474-7.936-12.403-.405-.275-1.978-2.638-3.496-5.25-1.517-2.612-3.278-4.701-3.913-4.641-.635.06-2.955 1.001-5.155 2.092m-357.325 39.726c-.58 1.666-.683 3.259-.227 3.541.455.281 1.05-.946 1.321-2.728.648-4.252.217-4.573-1.094-.813" fill-rule="evenodd"/></svg>