<svg xmlns="http://www.w3.org/2000/svg" width="1240" height="1753"><path d="M721.521 19.976c-1.007 1.113-2.606 2.024-3.554 2.024-1.938 0-4.594 2.706-3.616 3.685.35.35 1.462-.111 2.472-1.024 1.009-.914 2.244-1.661 2.745-1.661 1.32 0-6.731 6.862-8.89 7.577-1.048.347-1.593 1.203-1.282 2.013.353.919-.144 1.41-1.427 1.41-1.083 0-1.969.423-1.969.941 0 1.447 1.784 2.218 2.49 1.075.345-.559 1.389-1 2.319-.981 1.224.026 1.004.416-.796 1.413-1.369.757-2.8 1.184-3.181.948-.382-.236-.976.029-1.322.588-.345.559-1.753 1.016-3.128 1.016-1.412 0-2.231.435-1.882 1 .34.55.025 1-.699 1s-3.338 1.073-5.809 2.384c-3.417 1.814-5.611 2.287-9.165 1.978-4.193-.365-5.964.266-17.229 6.145-7.86 4.103-14.714 6.951-18.327 7.617-3.174.586-6.896 1.649-8.271 2.363-5.717 2.967-18.782 7.191-28 9.051-4.479.904-9.426 3.421-16.609 8.453-3.147 2.205-6.09 4.009-6.539 4.009-.96 0-14.12 7.935-14.852 8.956-.275.383-3.2 1.769-6.5 3.08-3.3 1.311-7.125 3.134-8.5 4.05-3.225 2.15-17.47 9.236-22 10.944-1.925.725-4.625 2.072-6 2.991-1.375.92-4.975 2.855-8 4.3-3.025 1.445-6.175 3.055-7 3.576-1.733 1.096-11.103 6.608-15.5 9.118-7.651 4.369-11.039 6.448-11.5 7.056-.275.363-2.389 1.618-4.699 2.789-2.309 1.17-5.256 3.143-6.548 4.384-3.371 3.236-7.83 6.887-11.805 9.667-1.896 1.327-4.123 3.024-4.948 3.773-3.548 3.221-9.776 7.656-13.25 9.436-2.063 1.056-3.75 2.331-3.75 2.833 0 .502-.861 1.185-1.913 1.519-1.052.334-3.864 2.65-6.25 5.147-2.385 2.496-7.712 7.267-11.837 10.602-4.125 3.334-8.506 7.298-9.735 8.809-1.229 1.51-3.342 3.024-4.696 3.363-1.355.34-3.259 1.966-4.231 3.613-.973 1.647-2.082 2.994-2.465 2.994-.864 0-4.81 3.598-18.645 17-5.961 5.775-13.764 13.104-17.339 16.286-3.575 3.182-7.294 7.129-8.264 8.772-.97 1.642-3.943 5.265-6.606 8.052-2.664 2.786-5.22 5.481-5.681 5.988-.461.507-2.638 2.612-4.838 4.677-5.159 4.843-11.5 12.606-11.5 14.078 0 .631-.36 1.147-.801 1.147-.44 0-1.784 2.025-2.987 4.5-1.202 2.475-2.63 4.5-3.173 4.5-.543 0-1.649 1.278-2.457 2.841-1.337 2.585-12.328 17.305-15.925 21.326-.82.916-1.228 1.929-.907 2.25.321.32.058.583-.583.583-.642 0-1.167.627-1.167 1.393s-.704 1.663-1.563 1.993c-.86.33-1.325.986-1.033 1.458.292.473-1.255 3.607-3.437 6.965-2.182 3.358-3.997 6.462-4.033 6.898-.037.436-1.623 2.818-3.524 5.293-1.902 2.475-3.724 5.287-4.05 6.25-.326.962-.991 1.75-1.477 1.75-.485 0-.883.59-.883 1.311 0 .722-.813 2.184-1.806 3.25-.993 1.067-1.896 2.389-2.005 2.939-.254 1.279-8.343 14.99-11.856 20.099-1.476 2.146-5.215 8.851-8.31 14.901-5.126 10.02-8.598 16.086-17.033 29.75-1.612 2.613-2.725 4.75-2.473 4.75.252 0-1.043 2.362-2.878 5.25-5.334 8.396-14.603 26.453-13.926 27.13.341.341.095.62-.546.62-.642 0-1.167.543-1.167 1.206 0 1.152-6.251 15.663-8.096 18.794-1.675 2.842-7.065 14.503-7.396 16-.182.825-1.996 5.325-4.031 10-2.035 4.675-5.878 15.025-8.541 23a5012.71 5012.71 0 0 1-5.866 17.5c-3.156 9.233-6.021 19.254-6.004 21 .034 3.608-2.814 15.682-3.887 16.475-1.163.86-4.438 14.138-4.816 19.525-.193 2.75-.628 5.675-.968 6.5-.94 2.284-4.452 19.911-4.98 25-.257 2.475-1.103 7.893-1.881 12.041-1.91 10.196-3.444 29.653-4.068 51.633-.222 7.795-.929 17.245-1.572 21-.643 3.754-1.29 14.476-1.438 23.826-.149 9.35-.769 18.8-1.378 21-.609 2.2-1.287 8.725-1.506 14.5-.22 5.775-.888 11.767-1.486 13.315-.597 1.548-1.086 4.165-1.086 5.816 0 1.65-.44 3.822-.977 4.826-.537 1.004-1.226 5.587-1.53 10.184-.304 4.598-1.44 11.959-2.524 16.359-1.084 4.4-2.164 10.7-2.399 14-.235 3.3-.696 7.35-1.024 9a2207.91 2207.91 0 0 0-1.659 8.5c-.585 3.025-1.469 7.525-1.965 10-.496 2.475-1.103 5.85-1.348 7.5-.246 1.65-1.371 8.625-2.502 15.5-1.13 6.875-2.253 15.2-2.496 18.5-.243 3.3-.916 9.825-1.496 14.5-2.447 19.725-2.592 28.125-1.709 99 .578 46.395 1.033 58.535 2.776 74 1.147 10.175 2.446 18.729 2.887 19.008.441.28 1.3 4.972 1.908 10.426 1.031 9.245 3.304 20.417 5.099 25.066 3.001 7.769 3.959 10.781 3.959 12.449 0 1.049.678 2.587 1.508 3.416.829.829 1.114 1.75.634 2.047-.953.589-.305 5.587.725 5.59.348.001.734 1.43.856 3.175.123 1.744.573 3.431 1 3.748.428.316.777 1.25.777 2.075 0 .825.596 1.376 1.324 1.225.768-.159 1.029.203.622.862-.386.625-.082 1.529.676 2.009.998.633 1.033.878.128.889-.687.008-1.25.465-1.25 1.015 0 .55.675 1 1.5 1s1.5.638 1.5 1.418c0 .78.301 2.204.67 3.164.457 1.191.298 1.516-.5 1.023-2.031-1.255-1.267 1.223 1.08 3.503 1.238 1.202 1.687 1.868 1 1.48-.767-.433-1.25-.104-1.25.853 0 .857.433 1.559.961 1.559 1.069 0 3.472 7.901 2.652 8.72-.285.285.136 1.172.935 1.97.798.799 1.452 2.321 1.452 3.381 0 1.061.374 1.929.832 1.929 1.218 0 3.139 6.913 2.432 8.754-.381.993-.198 1.324.494.896.63-.39 1.379.287 1.758 1.585 1.781 6.117 7.111 20.035 10.116 26.419 1.853 3.935 3.368 7.653 3.368 8.264 0 .61.415 1.891.922 2.846.508.955 2.379 5.561 4.158 10.236 1.78 4.675 3.756 9.175 4.392 10 .635.825 2.448 4.875 4.028 9 1.58 4.125 3.429 8.175 4.108 9 .68.825 1.545 2.737 1.922 4.25.378 1.512 1.115 2.75 1.637 2.75.523 0 .721.373.439.829-.282.455.817 2.283 2.441 4.061 1.624 1.779 2.953 3.618 2.953 4.088 0 .471.358 1.005.795 1.189.436.183 3.024 4.33 5.75 9.216 2.725 4.885 5.96 9.835 7.188 11 1.228 1.164 2.241 2.567 2.251 3.117.01.55 1.143 2.307 2.517 3.906 1.375 1.598 2.499 3.312 2.499 3.809 0 .496.418.645.928.329.51-.315 1.24.411 1.622 1.615.382 1.203 1.54 3.094 2.572 4.203 1.033 1.108 1.878 2.68 1.878 3.493 0 .813.297 1.181.661.818.629-.629 2.128 1.451 4.2 5.827.521 1.1 1.9 3.004 3.064 4.231 1.164 1.226 2.072 2.493 2.018 2.813-.055.321 1.398 2.411 3.229 4.646 1.83 2.234 4.003 4.942 4.828 6.017.825 1.076 2.963 3.761 4.75 5.969 1.788 2.207 3.252 4.308 3.254 4.669.002.36 3.039 3.86 6.75 7.778 7.445 7.861 10.246 11.124 10.246 11.938 0 .296 1.528 2.112 3.396 4.035 1.868 1.924 4.665 5.389 6.215 7.701 1.55 2.311 5.984 8.025 9.853 12.695 3.87 4.671 7.486 9.073 8.036 9.782.55.71 5.275 5.694 10.5 11.077 5.225 5.382 11.923 12.452 14.886 15.711 2.962 3.259 6.725 6.913 8.363 8.122 1.638 1.208 7.771 6.836 13.628 12.506 5.857 5.671 13.339 12.56 16.626 15.31 3.287 2.75 8.423 7.362 11.413 10.25 2.991 2.887 5.906 5.25 6.479 5.25.573 0 2.038 1.16 3.257 2.579 1.219 1.418 2.899 2.679 3.734 2.801.835.123 2.327.887 3.316 1.699.989.811 4.048 3.025 6.798 4.919 2.75 1.893 5.9 4.275 7 5.291 1.1 1.017 6.057 4.274 11.016 7.238 4.959 2.963 9.909 6.195 11 7.181 2.551 2.304 17.259 12.39 17.964 12.319.685-.07 14.083 7.479 20.79 11.713 2.823 1.782 9.204 5.314 14.181 7.848 4.977 2.535 11.749 6.11 15.049 7.946 3.3 1.835 6.536 3.366 7.191 3.402.655.035 5.015 1.864 9.689 4.064s8.738 4 9.032 4c.293 0 2.908 1.084 5.811 2.408 2.902 1.324 6.616 2.708 8.253 3.076 1.637.367 8.162 2.726 14.5 5.242 6.338 2.516 12.424 4.7 13.524 4.853 1.1.153 5.825 1.709 10.5 3.456 4.675 1.748 11.425 4.047 15 5.11a1799.612 1799.612 0 0 1 16 4.879c5.225 1.621 10.972 3.237 12.771 3.591 1.799.354 3.513 1.035 3.809 1.514.296.479 1.524.871 2.729.871 1.205.001 5.566 1.085 9.691 2.41 5.967 1.916 7.706 2.149 8.509 1.138.684-.862 1.753-.995 3.324-.414 1.358.502 3.058.459 4.11-.103.987-.529 1.966-.8 2.176-.604.331.31 14.709 1.617 18.881 1.717.825.02 2.899.459 4.609.977s4.635 1.11 6.5 1.316c8.326.92 16.307 2.782 19.69 4.595 2.019 1.082 4.186 1.968 4.816 1.968.629 0 2.679 1.751 4.554 3.89 2.951 3.366 3.644 3.72 5.143 2.624 1.381-1.01 1.533-1.791.75-3.851-.953-2.507-.902-2.551 1.728-1.509 1.49.591 4.239 1.034 6.107.985 1.869-.049 6.369.385 10 .964 8.488 1.353 12.122 1.19 14.138-.635.892-.807 2.342-1.468 3.221-1.468 1.841 0 5.968-4.828 5.451-6.378-.19-.572-2.115-1.212-4.277-1.422-3.805-.37-8.346-2.105-5.68-2.17.688-.016 1.25-.886 1.25-1.932 0-1.833-4.817-4.562-7.75-4.393-.687.04-1.25-.257-1.25-.661 0-1.114 3.499-4.044 4.829-4.044.644 0 1.171-.45 1.171-1s1.575-1 3.5-1 3.5-.406 3.5-.901c0-.496 1.506-1.79 3.347-2.876 4.061-2.396 6.6-9.594 3.914-11.097-1.321-.739-1.238-1.149.604-2.991 2.306-2.306 2.778-4.135 1.068-4.135-.621 0-.796-.857-.418-2.048.358-1.126.171-2.625-.414-3.33-.792-.954-.342-1.975 1.756-3.985 3.378-3.236 4.267-9.583 1.363-9.716-1.032-.047-.603-.486 1.071-1.097 2.544-.928 2.771-1.414 2.559-5.494-.145-2.81.252-4.775 1.066-5.278.799-.494 1.039-1.619.624-2.927-.405-1.276-.241-2.125.411-2.125 1.253 0 1.185-9.798-.074-10.576-.441-.273.106-2.114 1.217-4.091 1.111-1.978 1.767-4.253 1.459-5.057-.35-.912.192-1.658 1.443-1.985 2.282-.597 2.644-2.108.685-2.86-2.011-.772-.01-13.102 2.54-15.652 1.14-1.14 1.755-2.764 1.465-3.871-.274-1.05-.043-1.908.515-1.908.557 0 .754-.675.437-1.5-.316-.825-.252-1.502.143-1.504 1.097-.005 4.467-8.785 3.792-9.877-.325-.527.459-1.786 1.744-2.796 2.749-2.162 4.226-7.964 2.544-9.99-1.476-1.779-.478-2.73 2.927-2.787 2.175-.037 2.773-.57 3.019-2.694.185-1.603 1.062-2.846 2.222-3.149 1.337-.35 2.113-1.74 2.571-4.602.361-2.256 1.048-4.101 1.528-4.101s.872-.675.872-1.5-.337-1.5-.75-1.5-.75-2.025-.75-4.5c0-3.619.343-4.5 1.75-4.5 2.446 0 2.192-2.072-.335-2.732-1.513-.396-1.733-.763-.803-1.337.96-.594.669-1.329-1.165-2.938-1.346-1.18-1.884-1.86-1.197-1.51.737.374 1.25-.005 1.25-.924 0-.857-.528-1.559-1.174-1.559-.646 0-.246-1.013.89-2.25 1.527-1.665 1.931-3.111 1.552-5.562-.431-2.784-.166-3.402 1.666-3.881 1.255-.328 1.967-1.123 1.679-1.874-.275-.717.037-1.524.693-1.792.918-.376.911-.689-.027-1.356-1.899-1.349.519-8.285 2.889-8.285 1.008 0 1.832-.45 1.832-1s-.675-1-1.5-1c-1.671 0-2.057-1.646-.508-2.167.545-.183 1.193-2.48 1.438-5.104.308-3.29.107-4.561-.646-4.095-.656.405-.807.212-.377-.483.413-.669 1.747-.9 3.154-.546 1.828.458 2.439.209 2.439-.997 0-.884-.577-1.608-1.283-1.608-1.128 0-1.294-1.314-.798-6.321.044-.452.788-.115 1.652.75 1.983 1.982 3.429 2.012 3.429.071 0-.825-.606-1.5-1.347-1.5-1.526 0-6.45-3.963-5.056-4.069.497-.038 2.14-.232 3.653-.432 1.513-.199 2.75.105 2.75.676 0 .572.631.797 1.402.501.771-.296 1.681-.26 2.021.08 1.145 1.146 4.577.92 4.577-.301 0-1.711-2.709-3.753-3.956-2.982-.574.355-1.044-.092-1.044-.993 0-1.285-.621-1.502-2.873-1.008-2.127.467-3.034.212-3.493-.984-.341-.888-1.064-1.34-1.606-1.005-1.158.715-4.549-.956-7.465-3.681-1.135-1.06-4.65-2.647-7.813-3.528-3.163-.881-5.75-1.978-5.75-2.438 0-1.572-1.852-.839-2.311.914-.388 1.486-.474 1.504-.573.117-.064-.899-.904-1.895-1.866-2.214-.962-.32-3.52-1.248-5.684-2.062-2.164-.815-4.321-1.243-4.794-.95-.473.292-1.471.024-2.219-.597-1.495-1.241-6.393-2.883-11.053-3.705-1.65-.292-4.575-1.232-6.5-2.089-1.925-.857-3.856-1.483-4.291-1.391-.434.092-1.781-.362-2.991-1.01-1.211-.648-3.73-1.346-5.598-1.552-1.868-.206-4.185-.797-5.149-1.313-.965-.516-3.49-1.153-5.612-1.415a4335.2 4335.2 0 0 0-12.859-1.554c-4.95-.591-12.6-1.987-17-3.101-4.4-1.114-9.616-2.436-11.591-2.939-2.12-.539-6.777-.556-11.374-.041-6.583.738-8.633.58-13.3-1.025-3.035-1.044-6.016-2.285-6.626-2.759-1.306-1.012-7.118-3.105-10.449-3.761-1.287-.253-4.212-1.155-6.5-2.004-2.288-.848-7.193-2.553-10.9-3.788-3.708-1.234-7.045-2.549-7.417-2.921-.372-.372-1.76-.676-3.085-.676-2.959 0-22.457-7.511-27.258-10.501-1.925-1.198-4.783-2.496-6.35-2.883-1.568-.388-4.043-1.506-5.5-2.486-1.458-.979-4.749-3.209-7.313-4.955-2.565-1.746-5.153-3.175-5.75-3.175-.598 0-1.087-.441-1.087-.981 0-.539-1.125-1.263-2.5-1.608-1.375-.345-2.5-1.043-2.5-1.551 0-.507-.736-1.205-1.636-1.551-1.644-.631-9.277-5.577-14.864-9.632-1.65-1.197-5.25-4.352-8-7.01-2.75-2.658-6.237-5.482-7.75-6.276-1.513-.793-2.751-1.768-2.751-2.167-.003-1.559-4.665-5.948-7.749-7.294-1.787-.78-3.25-1.743-3.25-2.141 0-1.475-13.364-10.818-14.001-9.787-.4.646-1.346.273-2.478-.978-2.015-2.227-3.521-2.625-3.521-.93 0 .601.858 1.318 1.908 1.592 1.049.274 2.151 1.431 2.449 2.571.418 1.598.847 1.818 1.878.963 1.037-.861 1.336-.674 1.336.835 0 1.07-.348 1.945-.773 1.945-1.322 0-12.623-11.884-15.991-16.815-1.76-2.577-3.745-5.135-4.411-5.685-1.325-1.094-4.387-7.708-6.481-14-.733-2.2-1.626-4.45-1.986-5-.554-.848-1.42-3.633-2.486-8-.894-3.662-5.522-16.521-6.838-19-.876-1.65-1.595-3.397-1.599-3.883-.003-.485-.839-1.61-1.858-2.5-1.019-.889-2.65-3.192-3.624-5.117-2.256-4.455-10.414-16.897-12.746-19.439-.978-1.066-1.785-2.416-1.793-3-.008-.583-1.505-2.823-3.327-4.977-3.381-3.995-5.658-4.211-5.658-.535 0 1.836-.099 1.846-2 .219-1.1-.942-2-2.081-2-2.531 0-1.527-4.313-6.661-5.158-6.139-.462.285-1.785-1.082-2.94-3.039-1.155-1.958-2.403-3.559-2.773-3.559-.371 0-1.56-1.687-2.642-3.75-1.082-2.062-2.197-3.975-2.477-4.251-1.269-1.246-4.01-7.332-4.01-8.902 0-1.912-5.798-13.218-7.296-14.228-1.06-.714-8.151-19.074-9.185-23.783-.373-1.697-.982-3.086-1.354-3.086-1.27 0-2.943-6.907-1.768-7.299.749-.25.698-1.196-.166-3.094-.723-1.586-.811-2.465-.209-2.093 1.273.786 1.246-16.555-.033-21.014a376.75 376.75 0 0 1-1.965-7.25c-.607-2.338-1.688-4.25-2.401-4.25-.809 0-1.912-2.912-2.936-7.75-2.362-11.164-2.779-13.96-3.197-21.446-.309-5.522-.121-6.6 1.068-6.143 1.052.403 1.476-.287 1.567-2.554.145-3.593.173-3.716 1.674-7.332.623-1.498 1.579-6.284 2.124-10.633.545-4.35 1.893-12.349 2.994-17.776 1.101-5.426 2.239-12.469 2.529-15.651.29-3.182.957-8.582 1.483-12 1.83-11.895 1.418-39.911-.909-61.715-.498-4.675-.549-11.65-.112-15.5.437-3.85.653-10.375.479-14.5-.174-4.125.297-13.125 1.047-20s1.431-15.2 1.512-18.5c.082-3.3 1.105-10.5 2.274-16s2.228-11.575 2.354-13.5c.451-6.893 5.562-37.697 7.964-48 3.55-15.226 4.448-19.635 4.95-24.32.247-2.299 1.52-7.555 2.829-11.68 2.299-7.243 3.024-10.019 7.711-29.5 1.191-4.95 3.045-12.051 4.12-15.78 1.075-3.729 2.15-8.004 2.388-9.5.674-4.224 4.063-16.893 6.88-25.72 1.405-4.4 2.58-8.9 2.611-10 .032-1.1 2.552-8.75 5.602-17 3.049-8.25 5.776-16.434 6.059-18.187.284-1.753 1.37-3.961 2.414-4.905 1.044-.945 1.898-2.256 1.898-2.914 0-.658 1.176-3.401 2.613-6.095a849.09 849.09 0 0 0 5.178-9.899c1.411-2.75 3.416-6.237 4.455-7.75 1.04-1.512 1.604-2.75 1.254-2.75-.35 0 .232-1.237 1.292-2.75 1.061-1.512 3.236-5.225 4.833-8.25 1.598-3.025 5.057-8.771 7.687-12.769 2.63-3.998 4.51-7.711 4.176-8.25-.333-.54.096-.981.953-.981s1.446-.39 1.309-.866c-.138-.476 2.55-5.16 5.973-10.409 3.422-5.248 6.993-11.158 7.935-13.134.942-1.975 2.079-3.591 2.527-3.591.448 0 .815-.675.815-1.5s.42-1.5.933-1.5c.513 0 1.236-.959 1.608-2.13.826-2.603 10.975-17.158 18.477-26.499 3.035-3.779 6.716-8.727 8.18-10.994 1.465-2.268 3.707-5.303 4.982-6.745 1.276-1.442 3.895-4.683 5.82-7.204 8.348-10.929 13.347-16.983 14.647-17.739.767-.447 1.163-1.187.88-1.645-.283-.459 2.914-3.919 7.106-7.689C585.867 411.949 608.01 390 607.248 390c-.256 0 2.145-2.137 5.335-4.75 3.191-2.612 8.077-6.793 10.859-9.29 2.782-2.497 6.858-5.864 9.058-7.483 2.2-1.618 7.2-5.875 11.11-9.46 5.68-5.207 8.697-7.108 15-9.458 4.34-1.617 14.794-6.45 23.233-10.739 8.438-4.288 17.566-8.458 20.284-9.265 2.718-.807 6.289-2.427 7.936-3.6 1.647-1.173 4.669-2.589 6.716-3.148 2.046-.559 5.971-2.047 8.721-3.306 2.75-1.26 10.625-3.769 17.5-5.575 6.875-1.807 12.648-3.39 12.83-3.519.181-.128-.486-1.51-1.483-3.07-1.535-2.403-1.56-2.637-.16-1.532 1.361 1.076 1.798 1.071 2.482-.028.457-.734 2.717-2.165 5.022-3.181s4.415-2.43 4.689-3.143c.641-1.671 8.909-6.525 11.855-6.961 3.645-.538 7.085-1.396 9.765-2.434 1.375-.533 3.85-1.169 5.5-1.413 1.65-.245 4.237-.929 5.75-1.52 1.513-.592 2.75-.81 2.75-.485 0 .324 1.125-.147 2.5-1.048s2.5-1.395 2.5-1.098c0 .297 2.235-.593 4.967-1.977 2.732-1.385 6.67-2.761 8.75-3.06 4.345-.622 16.216-5.56 16.256-6.761.015-.443 1.376-2.243 3.025-4 1.648-1.758 3.642-4.546 4.43-6.196.788-1.65 2.778-4.287 4.422-5.86 1.643-1.572 3.258-3.935 3.588-5.25.33-1.314 1.304-2.39 2.164-2.39.861 0 1.397-.504 1.192-1.119-.206-.616.886-2.468 2.426-4.117s3.07-4.07 3.399-5.381c.329-1.311.999-2.383 1.489-2.383 1.189 0 1.152-13.721-.039-14.457-.512-.317-.728-1.693-.48-3.059.247-1.366.005-2.484-.538-2.484-.544 0-.729-.675-.413-1.5.317-.825.132-1.5-.41-1.5-1.226 0-3.613-5.567-2.889-6.739.649-1.051-5.83-9.437-6.655-8.612-.322.323-.857-.704-1.188-2.281-.918-4.383-4.682-11.516-7.746-14.681-1.513-1.562-2.75-3.444-2.75-4.182 0-.737-1.125-3.581-2.5-6.318-1.375-2.738-2.5-5.475-2.5-6.082 0-.608-.675-1.105-1.5-1.105-1 0-1.5-1-1.5-3 0-1.65-.45-3-1-3s-1-.868-1-1.929c0-1.06-.644-2.572-1.431-3.359-.787-.788-1.575-3.182-1.75-5.322-.176-2.139-.673-3.761-1.105-3.604-1.189.432-3.714-2.432-3.714-4.215 0-.864-.498-1.571-1.107-1.571s-.848-.675-.531-1.5c.316-.825.252-1.502-.143-1.504-.396-.002-1.547-2.139-2.558-4.75-2.947-7.605-4.05-9.663-5.928-11.064-.971-.726-1.507-1.738-1.191-2.25.317-.513-.843-.932-2.577-.932-2.311 0-3.292-.534-3.675-2-.288-1.1-.921-2-1.407-2-.485 0-.883-.916-.883-2.035 0-1.12-.68-3.073-1.511-4.342-.831-1.268-1.619-4.175-1.75-6.459-.132-2.285-.733-4.156-1.337-4.159-1.659-.008-4.697-7.499-3.97-9.79.383-1.209.027-2.613-.898-3.538-.844-.844-1.534-1.738-1.534-1.988s-1.727-2.194-3.839-4.321c-2.115-2.132-4.633-6.112-5.61-8.868-.974-2.75-2.018-5.675-2.32-6.5-.302-.825-.466-1.871-.365-2.324.101-.454-.247-.559-.772-.234-.526.325-1.238.133-1.584-.426-.345-.559-1.463-1.016-2.483-1.016-2.231 0-8.546-5.91-9.489-8.88-.37-1.166-1.092-2.12-1.605-2.12-.513 0-.933-.631-.933-1.402 0-.771-1.356-1.875-3.013-2.453-1.657-.577-3.32-1.859-3.694-2.848-.965-2.546-2.554-3.964-4.445-3.964-2.532 0-7.881-2.47-7.319-3.38.277-.448-.015-1.135-.649-1.527-1.094-.676-2.029-.844-7.88-1.414-1.793-.175-2.005-.373-.75-.701.962-.252 1.75-1.003 1.75-1.669 0-1.658-5.273-4.642-8.204-4.642-1.318 0-2.857-.461-3.42-1.024-.698-.698-1.606-.38-2.855 1M728 27c-1.956 1.071-2.777 1.935-1.861 1.958.902.023 2.702-.843 4-1.925 2.967-2.472 2.333-2.482-2.139-.033m-10.5 4.625c-2.615 2.225-2.68 2.39-.5 1.285 7.417-3.762 7.613-3.899 5.5-3.868-1.1.017-3.35 1.179-5 2.583M378.25 1034.744c-1.462.494-1.748 11.3-.371 14.02 1.625 3.209 4.13 11.713 4.194 14.236.062 2.482.07 2.484 1.124.302.807-1.669.658-3.207-.619-6.398-1.126-2.814-1.349-4.533-.676-5.206.673-.673.63-1.697-.13-3.101-.623-1.153-1.39-4.837-1.703-8.186-.397-4.249-.947-5.962-1.819-5.667m5.702 5.391c-.288 2-.164 4.925.276 6.5.853 3.061 2.788 15.722 3.231 21.145.147 1.804.554 3.566.904 3.916 1.287 1.288.583-8.15-1.309-17.539-1.07-5.311-2.088-11.457-2.262-13.657l-.316-4-.524 3.635m17.574 70.824c-.414.668-.258 1.709.344 2.311 1.537 1.537 2.51.231 1.36-1.823-.7-1.251-1.153-1.38-1.704-.488M415 1143c0 1.1.45 2 1 2s1 .668 1 1.484c0 1.937 5.624 8.225 6.538 7.311.767-.767-4.566-9.79-5.788-9.793-.413-.001-.75-.677-.75-1.502s-.45-1.5-1-1.5-1 .9-1 2m9 13.752c0 .622.45 1.408 1 1.748.55.34 1 1.491 1 2.559s.45 1.941 1 1.941c1.681 0 1.115-2.96-1-5.23-1.1-1.181-2-1.639-2-1.018m73.595 133.467c3.628 4.225 4.503 5.017 4.997 4.522.52-.52-5.317-6.741-6.324-6.741-.318 0 .279.998 1.327 2.219m17.814 8.281c1.375 1.375 2.824 2.5 3.22 2.5.396 0-.337-1.125-1.629-2.5s-2.741-2.5-3.22-2.5c-.479 0 .254 1.125 1.629 2.5m-39.409-.089c0 .776 1.238 2.468 2.75 3.759 1.512 1.292 3.38 3.566 4.151 5.055.77 1.489 1.79 2.466 2.266 2.172.983-.608.758-1.09-3.551-7.621-3.054-4.63-5.616-6.165-5.616-3.365m30.351.639c1.977 3.118 7.878 7.711 7.014 5.459-.318-.83-.927-1.509-1.353-1.509-.426 0-2.238-1.463-4.026-3.25-2.669-2.668-2.962-2.793-1.635-.7m-35.598 3.19c-.371 1.115 3.192 4.76 4.655 4.76 1.341 0 .454-2.673-1.419-4.278-2.398-2.053-2.697-2.098-3.236-.482m50.072 11.349c2.238 3.32 4.998 5.941 5.585 5.304.199-.216-1.444-2.193-3.653-4.393-3.484-3.471-3.739-3.592-1.932-.911m9.179-.089c1.373 1.65 2.608 3.188 2.746 3.417.138.229.47.196.74-.073.269-.269-.967-1.807-2.747-3.417l-3.236-2.927 2.497 3m-40.043 2.428c.568 1.06.766 2.747.441 3.75-.45 1.389-.357 1.495.392.444.564-.791 1.518-1.047 2.238-.602.691.427.419-.641-.604-2.372-1.986-3.363-4.199-4.457-2.467-1.22m-11.464 5.076c-.724 1.172 1.838 2.384 3.717 1.758.829-.276.509-.84-.906-1.597-1.441-.772-2.399-.826-2.811-.161m61.364 10.94c1.298 1.131 2.873 2.049 3.5 2.041 1.193-.016-.469-1.34-3.861-3.075-1.572-.804-1.495-.583.361 1.034m8.639 7.489c2.2 1.904 4.684 4.057 5.52 4.785 1.86 1.618 10.98 7.012 10.98 6.494 0-.205-2.138-1.898-4.75-3.763-5.861-4.183-6.782-4.912-9.547-7.556-1.212-1.159-3.103-2.403-4.203-2.764-1.175-.386-.35.77 2 2.804m-19.473.254c1.36.927 4.687 3.653 7.394 6.056 2.706 2.403 5.856 4.819 7 5.37 1.64.789 1.551.558-.421-1.094-1.375-1.152-4.075-3.579-6-5.393-4.104-3.868-8.036-6.626-9.445-6.626-.55 0 .113.759 1.472 1.687m-20.469 2.496c.63 1.984 3.518 5.074 4.151 4.442.746-.747-1.177-4.436-2.861-5.488-1.856-1.159-1.962-1.073-1.29 1.046m7.662 3.798c.68 1.089 1.824 2.206 2.541 2.481.822.315.645-.405-.479-1.95-2.128-2.925-3.831-3.364-2.062-.531m9.221 4.551c1.068.807 2.418 1.454 3 1.436.583-.017.185-.692-.882-1.5-1.068-.807-2.418-1.454-3-1.436-.583.017-.185.692.882 1.5m23.059 4.938c1.65 1.353 5.858 4.154 9.35 6.223 3.493 2.07 7.362 4.701 8.599 5.847 1.236 1.146 4.004 3.082 6.149 4.303l3.902 2.219-3.5-3.057c-1.925-1.681-5.372-4.189-7.659-5.572-2.287-1.384-4.411-3.173-4.719-3.975-.307-.802-1.214-1.458-2.014-1.458-.8 0-2.728-1.013-4.285-2.25-3.235-2.571-6.939-4.752-8.059-4.745-.42.003.586 1.112 2.236 2.465m24 .893c1.65 1.377 4.8 3.479 7 4.67l4 2.166-3.467-2.842c-1.907-1.563-5.057-3.664-7-4.67l-3.533-1.828 3 2.504m14.5 9.528c1.375 1.135 3.175 2.072 4 2.081 1.315.014.516-.519-5.247-3.498-.689-.356-.128.281 1.247 1.417m-32.914 5.713c.637.768 1.992 1.396 3.011 1.396 1.021 0 2.507 1.268 3.313 2.827 1.344 2.598 13.086 10.01 14.159 8.937.235-.235-.584-.977-1.821-1.648-1.236-.671-3.572-2.997-5.19-5.168-1.618-2.172-3.755-3.948-4.75-3.948-.994 0-1.808-.45-1.808-1s-.675-1-1.5-1-1.5-.338-1.501-.75c0-.412-1.142-.816-2.536-.896-2.064-.12-2.32.113-1.377 1.25m65.414 11.375c1.65.425 3.9 1.115 5 1.532l2 .758-2-1.603c-1.1-.881-3.35-1.571-5-1.532l-3 .071 3 .774m8.895 2.851c.398.644 1.371 1.17 2.164 1.17.793 0 1.441.41 1.441.911 0 .501 2.138 1.886 4.75 3.077 2.612 1.192 5.944 2.807 7.404 3.589 1.46.783 3.485 1.412 4.5 1.397 1.015-.014-.951-1.382-4.37-3.04-3.419-1.658-6.483-3.447-6.809-3.974-.326-.528-1.493-.96-2.593-.96-1.1 0-1.722-.45-1.382-1 .34-.55-.047-1-.859-1-.813 0-2.263-.301-3.223-.67-1.191-.457-1.516-.298-1.023.5m92.605 5.555c0 .631 10.182 3.766 10.664 3.284.245-.244-1.685-1.17-4.288-2.057-4.77-1.625-6.376-1.934-6.376-1.227m-63 8.21c0 .584 5.325 2.852 9 3.833 2.058.549 2.195.476.776-.416-2.3-1.444-9.776-4.057-9.776-3.417m17.015 7.272c1.917 1.026 5.06 2.203 6.985 2.615 1.925.412 3.95 1.101 4.5 1.53 1.757 1.374 17.5 5.859 17.5 4.986 0-.461-1.462-1.126-3.25-1.477-3.264-.64-4.172-.967-10.901-3.919-2.008-.881-4.371-1.602-5.25-1.602-.88 0-1.599-.477-1.599-1.059s-.402-.81-.894-.507c-.491.304-2.502-.119-4.468-.941-5.042-2.106-6.789-1.858-2.623.374M772.5 1590c-.787 1.273 1.53 1.273 3.5 0 1.219-.788 1.09-.972-.691-.985-1.205-.008-2.469.435-2.809.985" fill-rule="evenodd"/></svg>