<svg xmlns="http://www.w3.org/2000/svg" width="1240" height="1753"><path d="M422 39.043c0 .423-.788.587-1.75.365-2.04-.473-7.649 4.137-6.769 5.562.329.531 2.044.912 3.812.845 1.769-.066 4.671.632 6.451 1.552 1.779.921 3.468 1.658 3.752 1.64.285-.019 2.75 1.097 5.478 2.48 2.728 1.382 5.199 2.513 5.493 2.513 1.151 0 .453-3.947-.832-4.7-3.379-1.98-8.635-6.772-8.635-7.873 0-1.304-2.418-2.672-5.25-2.97-.962-.101-1.75.163-1.75.586m8 2.85c0 1.109 3.076 2.364 3.864 1.576.318-.318-.084-.996-.893-1.508-1.87-1.183-2.971-1.208-2.971-.068m-21.726 5.449c-1.775.514-3.479 1.727-3.786 2.696-.47 1.481-3.622 3.054-6.774 3.38-.433.045-1.214.757-1.735 1.582-.522.825-.973 1.05-1.003.5-.03-.55-.693.469-1.473 2.264-.78 1.795-1.775 3.205-2.211 3.132-2.348-.393-3.448.499-5.369 4.354-2.677 5.376-7.955 10.378-11.85 11.234-2.496.548-3.125 1.288-3.688 4.338-.373 2.023-1.512 5.246-2.532 7.163-1.019 1.917-1.853 3.963-1.853 4.547 0 .584-1.356 2.166-3.013 3.515-3.179 2.587-6.366 8.531-5.407 10.083.934 1.511-2.727 9.87-4.323 9.87-.927 0-1.248.582-.868 1.572.332.865.181 2.362-.335 3.328-.517.965-1.098 2.94-1.292 4.389-.194 1.45-.67 2.952-1.058 3.34-.387.387-.704 1.754-.704 3.038 0 1.283-.525 2.333-1.167 2.333-.641 0-.87.296-.508.658 1.247 1.247-1.577 3.342-4.506 3.342-1.717 0-2.679.418-2.315 1.007.343.554-.081 1.277-.941 1.607-.859.33-1.563 1.172-1.563 1.871 0 .698-.685 1.839-1.523 2.534-.837.695-1.277 2.036-.977 2.981.3.945-.14 2.286-.977 2.981-.838.695-1.523 2.082-1.523 3.082 0 1.001-.474 2.112-1.053 2.47-.579.357-.874 1.172-.656 1.809.218.637-.502 1.945-1.601 2.908-1.098.963-1.445 1.75-.772 1.75.844 0 .758.467-.275 1.5-.825.825-2.019 1.5-2.653 1.5-.743 0-.984 1.257-.677 3.534.299 2.216-.031 4.041-.884 4.894-2.097 2.097-4.718 9.377-4.025 11.181.435 1.134.187 1.448-.833 1.057-1.008-.387-1.812.572-2.633 3.138-.649 2.033-2.039 5.12-3.088 6.86-1.049 1.741-1.841 3.541-1.76 4 .342 1.948-.196 3.443-1.84 5.112-2.5 2.537-7.472 12.055-6.836 13.085.295.476-1.282 2.777-3.504 5.113-2.363 2.484-3.81 4.845-3.486 5.688.343.894.128 1.179-.565.751-.674-.417-.932-.139-.65.698.258.764-.129 2.826-.86 4.583-.731 1.757-1.032 3.968-.669 4.914.469 1.222.296 1.495-.596.944-.896-.554-1.175-.098-.971 1.586.157 1.299-.2 3.262-.794 4.362-1.793 3.32-.364 16.5 1.789 16.5.491 0 .907.563.925 1.25.045 1.669 3.506 5.75 4.877 5.75.6 0 1.09.576 1.09 1.279 0 .704.9 1.928 2 2.721 1.1.793 2 2.006 2 2.697 0 .69 1.575 2.688 3.5 4.439 1.925 1.752 3.5 3.788 3.5 4.525 0 .736.45 1.339 1 1.339s1 .454 1 1.009c0 .555 1.35 2.422 3 4.148 1.65 1.727 3 3.461 3 3.855 0 1.125 11.223 5.871 15.048 6.363 1.899.244 5.702 1.428 8.452 2.63s5.9 2.341 7 2.53c2.167.374 7.132 1.716 12.175 3.291 1.746.545 3.395.771 3.664.502.269-.27 1.536.07 2.816.755 2.095 1.121 3.474 1.472 9.006 2.288 2.71.4 9.839 3.864 9.839 4.781 0 .466.675.848 1.5.848s1.5.42 1.5.933c0 .513.866 1.207 1.924 1.543 1.059.336 3.565 1.724 5.569 3.084 2.005 1.36 4.064 2.214 4.576 1.898 1.339-.828 1.149.924-.252 2.325-.651.651-.989 1.335-.75 1.52.238.185 5.833 1.768 12.433 3.517 17.478 4.634 28.418 8.226 33.291 10.93 2.359 1.31 6.634 3.071 9.5 3.912 2.865.842 6.784 2.347 8.709 3.343 6.273 3.249 29.363 13.799 35 15.993 5.353 2.083 13.994 6.676 15 7.974.275.354 3.65 3.222 7.5 6.373 3.85 3.15 9.291 7.734 12.091 10.185 2.8 2.451 6.85 5.744 9 7.318 2.15 1.573 8.634 7.363 14.409 12.865 22.794 21.72 25.524 24.251 26.171 24.269.774.021 16.631 18.585 21.829 25.554 1.925 2.581 4.213 5.429 5.084 6.329 8.064 8.327 39.916 50.51 39.916 52.862 0 1 15.236 23.757 16.139 24.106.474.184.861.823.861 1.421 0 .597 2.848 5.622 6.33 11.166 3.481 5.544 8.319 13.394 10.75 17.443 2.431 4.05 4.873 8.1 5.428 9 3.874 6.293 10.492 18.539 10.492 19.416 0 .585.617 1.774 1.37 2.642 3.797 4.374 15.177 36.43 24.523 69.079 18.958 66.222 27.871 101.011 32.153 125.5 1.838 10.51 3.586 19.526 7.079 36.5.509 2.475 1.349 8.325 1.866 13 .517 4.675 1.595 14.125 2.394 21 2.911 25.027 3.335 40.116 2.05 73-.312 7.975-.116 20.239.434 27.252.957 12.192 10.219 63.446 12.424 68.748 1.402 3.372 1.437 3.53 1.597 7.25.094 2.166.42 2.809.978 1.93 1.162-1.834 2.064 6.789 1.497 14.32-.763 10.137-3.487 21.495-5.401 22.519-1.125.602-2.113 3.112-2.836 7.203-1.779 10.075-1.86 25.348-.128 24.278 1.161-.717 1.359.807.25 1.916-.413.413-.806 2.772-.875 5.242-.069 2.471-.631 4.998-1.25 5.617-.619.619-1.14 2.497-1.159 4.175-.019 1.677-1.368 6.425-2.997 10.55-1.629 4.125-2.963 8.028-2.965 8.673-.002.646-1.051 2.446-2.331 4-3.162 3.841-7.106 12.243-7.255 15.456-.115 2.459-4.021 11.763-5.404 12.871-.344.275-2.138 2.862-3.988 5.75-1.849 2.888-3.877 5.25-4.506 5.25-1.214 0-5.52 5.309-5.52 6.805 0 .487-.9 1.7-2 2.695-1.947 1.762-2.003 1.746-2.118-.595-.066-1.323-.03-3.035.078-3.805.316-2.252-1.897.406-7.41 8.9-2.677 4.125-6.082 9.3-7.568 11.5-4.642 6.876-11.658 19.783-14.421 26.529-1.458 3.559-3.046 7.371-3.53 8.471-.484 1.1-1.099 3.125-1.367 4.5-1.015 5.212-.929 4.924-7.768 26-.624 1.925-1.934 4.4-2.911 5.5-.976 1.1-2.89 3.665-4.252 5.701-3.2 4.781-15.839 18.799-16.95 18.799-1.342 0 .79-3.345 4.347-6.823 1.788-1.747 2.769-3.177 2.182-3.177-.587 0-1.632.681-2.323 1.513-.691.832-1.758 1.408-2.372 1.279-1.934-.405-17.586 12.299-28.056 22.774-9.717 9.721-24.949 22.181-35.982 29.434l-8.201 5.393a446.22 446.22 0 0 0-5.588 3.75c-1.49 1.022-3.065 1.858-3.5 1.86-.434.001-3.273 1.499-6.307 3.329-5.648 3.406-25.195 11.43-39.483 16.209-9.594 3.208-26.588 9.921-30.899 12.204-2.333 1.237-6.195 1.686-15.601 1.818-10.16.142-13.998.64-20.5 2.66-8.385 2.604-29.215 6.837-33.5 6.807-1.375-.01-3.789.655-5.364 1.476-1.576.822-3.698 1.494-4.716 1.494-1.019 0-3.555.737-5.636 1.639-6.198 2.684-7.468 3.157-14.784 5.508-3.85 1.237-7.759 2.879-8.687 3.649-.928.77-2.147 1.116-2.709.768-.563-.347-1.828-.167-2.813.402-2.563 1.479-7.659 3.385-8.541 3.195-.412-.088-.75.319-.75.906 0 .613-.853.797-2 .433-1.1-.349-2-.199-2 .333s-2.207 1.497-4.905 2.144c-2.98.715-6.414 2.52-8.75 4.599-2.115 1.882-4.857 3.423-6.095 3.423-1.316.001-2.25.613-2.25 1.476 0 1.122-.756 1.324-3.155.844-2.256-.451-2.952-.302-2.441.525.466.755-.137 1.156-1.738 1.156-1.915 0-3.673 1.597-3.665 3.332 0 .092 1.125.233 2.5.312 1.374.08 2.499-.285 2.499-.809s.5-.644 1.112-.266c.611.378 1.399.237 1.75-.313.351-.551 2.112-.781 3.913-.511 2.685.401 3.064.744 2.103 1.902-.792.955-.869 2.131-.236 3.633 1.086 2.575.647 6.72-.712 6.72-.511 0-.93.478-.93 1.063 0 .584.98.922 2.179.75 1.912-.275 2.192.176 2.293 3.687.063 2.2.463 5.013.889 6.25.485 1.412.376 2.25-.294 2.25-.587 0-1.067.625-1.067 1.389s.736 1.326 1.637 1.25c2.089-.177 4.564 6.278 3.11 8.111-.734.925-.375 1.271 1.381 1.329 1.304.043 1.81.306 1.122.583-.688.278-1.25.965-1.25 1.528 0 .563.675.765 1.5.448 1.13-.433 1.529.219 1.618 2.643.066 1.771.057 3.581-.018 4.024-.075.443.534 1.762 1.353 2.932 1.143 1.632 1.221 2.451.333 3.521-.881 1.061-.863 1.576.076 2.156.94.582.863 1.07-.327 2.057-1.188.986-1.29 1.62-.425 2.662.899 1.083.694 1.367-.988 1.367-1.167 0-2.122.609-2.122 1.354 0 .913 1.138 1.297 3.5 1.179 4.161-.208 4.402.174.94 1.49-1.684.64-2.295 1.402-1.786 2.225.426.689.829 2.827.896 4.752.189 5.404 2.546 11.896 4.552 12.532 1.066.339 1.568 1.164 1.235 2.032-.909 2.37 1.338 4.137 4.644 3.652 3.544-.52 4.036 1.169.839 2.88-1.99 1.065-2.035 1.273-.516 2.385.916.669 1.406 1.476 1.089 1.793-1.105 1.105.606 4.252 2.848 5.237 1.429.628 2.23 1.819 2.18 3.241-.044 1.236.209 2.248.563 2.248.353 0 1.261 1.575 2.016 3.5.755 1.925 1.794 3.5 2.309 3.5.515 0 .376.675-.309 1.5-.987 1.19-.989 1.5-.006 1.5.747 0 1.031.795.716 2-.287 1.1-.115 2 .384 2 .498 0 .906.638.906 1.417s.515 1.588 1.144 1.798c1.346.448 2.125 4.341 2.259 11.285.054 2.75.543 5.319 1.088 5.708.545.39 1.033 1.29 1.084 2 .166 2.311 2.839 7.792 3.799 7.792.515 0 .23.787-.632 1.75-2.207 2.462-.97 13.034 1.913 16.355.766.883 1.109 2.346.762 3.25-.347.905-.195 1.645.337 1.645.533 0 .754 1.125.491 2.5s-.072 2.5.424 2.5.988.9 1.093 2c.105 1.1.269 2.787.364 3.75.096.963 1.165 2.943 2.376 4.401 2.188 2.634 2.714 8.073 1.042 10.778-.407.659.034 2.052.979 3.097.972 1.074 1.446 2.613 1.089 3.541-.903 2.354 1.427 9.384 3.474 10.479 1.162.622 1.547 1.643 1.166 3.097-.393 1.504-.207 1.947.607 1.444.645-.399.915-1.144.598-1.656-.316-.512-.084-.931.515-.931.6 0 1.316.587 1.592 1.305.275.718 1.731 1.22 3.235 1.116 1.802-.125 4.022.891 6.509 2.979 3.142 2.638 3.443 3.193 1.8 3.317-3.058.23-7.108 3.306-7.108 5.398 0 1.037.563 1.914 1.25 1.948 2.139.109-3.197 1.901-6.382 2.144-1.661.126-3.232.572-3.49.991-.975 1.578 1.733 4.684 5.034 5.773 1.886.622 3.958 1.77 4.606 2.551 1.174 1.414 2.48 1.406 12.982-.084 2.475-.351 6.075-.752 8-.891 1.925-.139 4.767-.768 6.315-1.4 3.944-1.607 4.628-1.449 4.164.961-.223 1.159.163 2.677.857 3.371 1.018 1.018 1.691.917 3.464-.518 1.21-.98 2.2-2.224 2.2-2.764 0-1.015 2.925-2.636 4.25-2.356.413.088.75-.291.75-.841s.863-1 1.917-1 2.066-.411 2.25-.913c.408-1.119 17.785-6.234 18.88-5.558.432.267 1.956.04 3.387-.504s4.731-1.245 7.334-1.557c2.602-.313 6.082-.791 7.732-1.062 6.546-1.077 19.983-1.242 20.595-.253 1.264 2.046 76.038-24.327 111.905-39.468 14.152-5.975 49.504-24.319 60.223-31.251a3506.838 3506.838 0 0 1 21.5-13.768c5.928-3.759 12.091-7.809 13.698-9 1.606-1.191 7.681-5.658 13.5-9.925 5.818-4.268 11.88-8.768 13.471-10 1.591-1.233 5.416-3.994 8.5-6.136 3.084-2.142 5.758-4.279 5.941-4.75.184-.47.939-.855 1.678-.855s2.164-1.015 3.166-2.255c1.003-1.24 3.045-3.04 4.538-4 1.494-.96 6.672-5.683 11.506-10.495a3913.757 3913.757 0 0 1 18.785-18.538c21.371-20.931 39.905-40.786 47.88-51.289 2.473-3.258 6.101-7.723 8.063-9.923 1.961-2.2 5.006-6.25 6.767-9 4.253-6.644 14.136-19.861 19.206-25.684 4.472-5.138 8.779-10.643 14.328-18.316a529.029 529.029 0 0 1 6.327-8.56c1.492-1.958 4.598-6.641 6.903-10.407 2.304-3.765 4.827-7.482 5.605-8.261.778-.778 1.415-1.88 1.415-2.449s1.013-2.274 2.25-3.79c1.238-1.515 2.812-3.605 3.498-4.644.686-1.039 3.274-4.937 5.75-8.663 2.476-3.725 4.502-7.006 4.502-7.29 0-.284.846-1.736 1.879-3.226 3.258-4.697 16.121-26.769 16.121-27.662 0-.47 1.41-3.823 3.133-7.451 1.724-3.628 4.164-9.522 5.424-13.097 1.26-3.575 3.255-8.745 4.434-11.489 2.353-5.478 6.855-17.926 13.821-38.213 2.561-7.459 4.96-12.939 5.515-12.596.54.334.696.145.347-.42-.674-1.091 3.607-16.662 4.374-15.909.249.244.535-1.12.636-3.032.101-1.912.628-4.012 1.171-4.666 1.433-1.727 4.068-9.746 2.982-9.074-1.482.916.249-4.978 1.836-6.25 1.149-.921 1.175-1.268.13-1.75-1.032-.476-1.041-.723-.047-1.186.691-.322 1.002-.997.691-1.5-.311-.503-.142-.915.375-.915 1.348 0 3.06-7.872 2.609-12-.329-3.015-.261-3.154.494-1 .87 2.484 1.059 2.128 1.593-3 .143-1.375.991-4.975 1.884-8 4.036-13.674 6.83-27.815 9.783-49.5 2.137-15.691 2.299-20.08 2.112-57-.351-69.317-1.051-99.444-2.74-118-1.796-19.723-7.513-56.62-10.6-68.405-1.076-4.109-1.957-8.852-1.957-10.54 0-1.687-.457-4.64-1.016-6.562-1.057-3.631-1.32-4.887-3.46-16.493-2.604-14.127-4.717-25.181-6.212-32.5-2.321-11.359-3.222-16.731-4.281-25.5-1.552-12.855-1.835-14.745-2.954-19.698-.584-2.583-1.527-12.708-2.095-22.5-.568-9.791-1.46-19.827-1.982-22.302-.522-2.475-1.405-12.344-1.962-21.931-1.397-24.028-4.366-47.055-8.648-67.069-1.353-6.325-3.176-14.875-4.051-19-2.683-12.651-5.137-22.137-7.89-30.5-1.448-4.4-2.811-8.9-3.028-10-.216-1.1-1.348-5.15-2.514-9-1.166-3.85-2.717-9.025-3.446-11.5-1.611-5.473-5.196-15.764-6.444-18.5-.501-1.1-2.098-5.15-3.548-9-6.433-17.085-19.407-45.729-28.083-62-.879-1.65-4.091-7.725-7.137-13.5-3.045-5.775-7.4-13.425-9.676-17-3.654-5.739-16.86-27.471-37.706-62.052-7.658-12.703-10.665-17.256-16.592-25.122-2.351-3.121-4.275-5.97-4.275-6.331 0-.361-1.633-3.207-3.63-6.326-8.007-12.506-12.453-18.91-16.562-23.854-2.369-2.851-5.433-6.842-6.808-8.869-1.375-2.026-3.717-5.093-5.205-6.815-5.002-5.791-7.795-9.415-7.795-10.115 0-.934-3.532-4.818-15.847-17.424-5.691-5.826-11.485-12.059-12.877-13.852-1.391-1.793-7.76-7.83-14.153-13.416-6.392-5.585-12.073-10.683-12.623-11.328-.55-.645-5.29-4.958-10.533-9.585-5.244-4.626-10.644-9.46-12-10.741-5.309-5.015-20.523-17.155-21.509-17.162-.573-.004-3.048-2.059-5.5-4.566-4.381-4.479-9.554-8.455-21.458-16.493-5.056-3.414-11.472-8.139-16.078-11.841-.594-.476-3.033-2.1-5.422-3.608s-4.828-3.157-5.422-3.665c-1.327-1.137-26.289-16.374-32.078-19.582-1.1-.609-4.903-2.378-8.451-3.93-3.548-1.553-7.823-3.613-9.5-4.578-3.459-1.992-6.122-3.24-16.049-7.523-17.182-7.414-28.483-12.901-34.565-16.782-9.838-6.278-31.021-17.22-34.435-17.786-1.65-.274-5.025-1.145-7.5-1.935-2.475-.789-7.2-2.224-10.5-3.187-3.3-.963-7.575-2.355-9.5-3.094-1.925-.739-6.076-1.844-9.224-2.456-3.149-.612-7.874-2.259-10.5-3.661-12.141-6.476-14.184-7.404-17.103-7.774-1.714-.217-3.548-.661-4.076-.987-.527-.326-1.242-.134-1.588.426C464.462 65.679 455 63.855 455 61.96c0-.889-3.981-2.496-5.304-2.14-.442.119-1.486-.467-2.319-1.301-.834-.834-2.723-1.773-4.197-2.086-1.474-.314-6.28-2.12-10.68-4.015-4.4-1.894-9.125-3.706-10.5-4.026-6.883-1.599-10.793-1.898-13.726-1.05M948.328 567.5c.317 1.1.872 3.237 1.233 4.75.361 1.513 1.004 2.75 1.43 2.75.426 0 .117-1.911-.688-4.247-1.501-4.356-3.01-6.841-1.975-3.253M979.145 694c-.033 1.375.557 4.975 1.312 8 1.783 7.142 1.869 3.33.102-4.5-.745-3.3-1.381-4.875-1.414-3.5M943.3 961c0 3.025.187 4.263.416 2.75.229-1.513.229-3.987 0-5.5s-.416-.275-.416 2.75m-150.724 97.671c-.329 3.756-1.287 12.229-2.127 18.829-.84 6.6-1.769 13.961-2.065 16.357-.693 5.609 1.085 4.697 2.113-1.085 1-5.622 1.065-6.096 1.94-14.272.412-3.85.938-8.35 1.169-10 .565-4.04.578-15.65.018-16.209-.246-.247-.718 2.625-1.048 6.38m4.424-.488c0 2.932-.412 6.765-.914 8.519-.612 2.133-.564 3.305.144 3.541.728.243.68 1.498-.153 4.023-1.319 3.996-2.094 16.734-1.018 16.734.366 0 .968-2.955 1.338-6.566.37-3.612 1.429-8.449 2.354-10.75 1.07-2.662 1.694-7.085 1.715-12.159.029-6.813-.221-8.027-1.716-8.324-1.491-.296-1.75.44-1.75 4.982m-33 104.783c0 .715-.788 2.032-1.75 2.927-.962.896-2.312 2.63-3 3.854-1.398 2.49-1.686 5.64-.444 4.873 1.389-.859 6.496-11.651 5.829-12.318-.349-.35-.635-.051-.635.664m-78.61 152.539c-3.646 4.097-2.669 4.787 1.07.755 2.161-2.331 3.207-4.274 2.29-4.255-.138.003-1.65 1.578-3.36 3.5m21.427 6.245c-.821.963-2.991 4.112-4.823 7-1.832 2.888-3.705 5.25-4.162 5.25-.458 0-.818.787-.8 1.75.03 1.667.095 1.667 1.36 0 .731-.963 1.89-1.75 2.575-1.75.693 0 .993-.661.676-1.488-.314-.818-.237-1.381.171-1.25 1.403.45 8.186-7.197 8.186-9.229 0-2.496-1.204-2.603-3.183-.283m-38.809 2.238c-2.558 3.593-1.29 4.006 1.893.617 1.308-1.392 1.832-2.652 1.251-3.011-.55-.34-1.964.738-3.144 2.394m9.657.003c-3.17 3.558-3.536 5.107-.572 2.425 1.987-1.799 4.397-5.416 3.607-5.416-.203 0-1.569 1.346-3.035 2.991m34.121 1.783c-1.866 2.173-2.833 4.845-2.041 5.637.816.817 5.255-3.429 5.255-5.026 0-2.123-1.648-2.436-3.214-.611m-40.585 5.168c-2.563 3.466-2.121 3.993.949 1.133 1.137-1.059 1.897-2.435 1.689-3.058-.208-.623-1.395.243-2.638 1.925m-7.824 8.308c-2.979 3.399-4.677 5.75-4.152 5.75.978 0 4.51-3.591 5.653-5.75.656-1.237 1.03-2.25.831-2.25-.198 0-1.248 1.013-2.332 2.25m30.357.723c-2.487 3.545-2.256 5.591.357 3.157 1.15-1.071 1.93-2.776 1.734-3.789-.316-1.635-.551-1.564-2.091.632M704 1346c-.893 1.668-.76 2 .798 2 2.393 0 3.203-.833 2.526-2.598-.759-1.977-2.072-1.741-3.324.598m-74.394 16.485c-2.499 2.499-3.123 3.515-2.158 3.515.999 0 5.826-5.059 5.315-5.571-.303-.302-1.724.623-3.157 2.056m5.394 4.003c-3.025 2.468-8.087 6.382-11.25 8.697-3.163 2.315-5.75 4.563-5.75 4.995 0 .432-2.218 1.91-4.929 3.284-4.864 2.465-6.764 4.177-5.754 5.186.502.502 18.647-12.392 25.158-17.877 1.781-1.5 3.414-2.583 3.631-2.406.217.177 1.676-1.183 3.242-3.023 3.957-4.644 2.17-4.175-4.348 1.144m16.867 2.474c-3.526 3.302-5.69 5.979-4.851 6 .834.021 4.164-2.662 7.401-5.962 7.614-7.762 5.728-7.79-2.55-.038m23.791-2.411c.306.797.11 1.449-.434 1.449-.545 0-1.226.9-1.514 2-.598 2.287-.324 2.399 2.356.965 2.269-1.215 2.57-4.507.485-5.307-.969-.372-1.265-.076-.893.893m-5.425 3.142c-1.75 2.03-2.937 3.936-2.639 4.235.543.542 3.572-2.879 5.47-6.178 1.565-2.721.639-2.085-2.831 1.943m-9.927 5.867c-2.043 1.865-2.24 2.287-.724 1.555 2.075-1.002 5.174-4.115 4.096-4.115-.311 0-1.829 1.152-3.372 2.56m-27.124 7.94c-1.634 1.375-3.31 2.5-3.725 2.5-.415 0-2.305 1.596-4.199 3.546-1.894 1.95-5.313 4.726-7.597 6.168-2.284 1.442-3.599 2.807-2.922 3.032 1.064.355 6.804-2.96 8.261-4.771.275-.342 3.987-3.231 8.25-6.419 4.263-3.189 7.75-5.969 7.75-6.177 0-1.216-3.269-.024-5.818 2.121m-35.188 10.641c-1.922 1.643-2.594 2.541-1.494 1.996 3.143-1.557 6.046-3.924 5.492-4.478-.278-.278-2.077.839-3.998 2.482m29.916 5.167c-4.279 2.044-6.624 4.053-12.895 11.049l-2.485 2.772 2.866-1.089c1.576-.6 4.113-1.979 5.639-3.065 1.526-1.086 3.154-1.978 3.619-1.981.465-.004 1.613-1.354 2.549-3 .937-1.647 2.384-2.994 3.215-2.994.832 0 1.993-.9 2.582-2 1.33-2.484.672-2.445-5.09.308m-60.203 11.39c-.986.256-3.011 1.143-4.5 1.97l-2.707 1.506 2.706-.595c3.7-.814 7.794-2.418 7.794-3.054 0-.569-.546-.541-3.293.173m-12.874 5.147c-.337.856-1.95 1.771-11.833 6.717-3.025 1.514-4.964 2.936-4.309 3.159 1.732.591 17.286-6.998 17.298-8.44.006-.67.64-.977 1.41-.681.769.295 1.696.056 2.059-.532.4-.648-.315-1.068-1.816-1.068-1.361 0-2.625.38-2.809.845m240.974 6.905c-1.908 2.222-3.07 4.25-2.434 4.25.27 0 1.452-1.35 2.627-3 2.33-3.272 2.21-4.048-.193-1.25m-334.822 2.097c-1.917 1.015-4.776 2.162-6.353 2.548-1.577.386-2.627.943-2.332 1.238.744.744 14.7-3.841 14.7-4.83 0-1.319-2.312-.918-6.015 1.044m72.456 2.735c-1.776 1.447-1.785 1.532-.109 1 1.007-.32 2.245-.582 2.75-.582.505 0 .918-.45.918-1 0-1.448-1.336-1.23-3.559.582m-10.959 4.91c-3.84 1.85-6.661 3.395-6.27 3.435 1.146.117 12.198-4.091 13.221-5.034 2.33-2.146-.549-1.484-6.951 1.599m-91.798 2.89c-.292.76-2.816 1.93-5.61 2.6-2.794.671-5.378 1.7-5.741 2.288-.419.678-.038.831 1.04.417.936-.359 4.136-1.36 7.111-2.225 3.945-1.147 5.26-1.965 4.856-3.018-.69-1.798-.986-1.81-1.656-.062M548 1435.5c-1.596 1.923.032 1.943 2.559.032 1.631-1.234 1.681-1.473.313-1.5-.895-.018-2.187.643-2.872 1.468m-36.5 1.384c-1.1.377-3.125 1.191-4.5 1.81-2.49 1.12-16.693 6.565-20.5 7.859-3.696 1.256.363 1.646 4.241.407 8.274-2.643 19.893-7.445 22.144-9.152 2.458-1.864 2.086-2.112-1.385-.924m-93.626 188.464c.663.799 2.095 1.211 3.202.922 2.483-.649 1.998-1.208-1.617-1.863-2.343-.425-2.595-.276-1.585.941" fill-rule="evenodd"/></svg>