<svg xmlns="http://www.w3.org/2000/svg" width="1240" height="1753"><path d="M523.561 393.936c-1.424 1.487-2.363 2.929-2.086 3.205.962.962-7.616 5.056-9.539 4.553-1.083-.284-1.95.003-1.968.65-.017.636-.675.306-1.462-.734-1.302-1.719-1.637-1.754-3.718-.39-2.259 1.479-4.477 1.848-4.087.678.11-.331-.869-.397-2.176-.148-1.761.337-2.925 1.809-4.499 5.687-1.885 4.644-4.667 17.71-5.545 26.045-.845 8.027-1.627 18.455-1.67 22.282-.05 4.484-1.433 6.441-2.907 4.114-.481-.758-.88-3.365-.889-5.795-.019-5.628-1.171-4.608-1.623 1.439-.189 2.526-.606 5.016-.927 5.535-1.087 1.759-2.33.954-2.019-1.307 1.066-7.749 1.945-10.75 3.15-10.75.781 0 1.101-.626.766-1.5-.317-.825-.078-1.5.531-1.5s1.107-.45 1.107-1-.702-1-1.559-1-1.276-.457-.931-1.016c.346-.559.935-.827 1.309-.596.375.232.723-1.224.774-3.233.234-9.235 5.993-32.978 9.202-37.936 1.812-2.801 1.079-3.757-1.73-2.254-1.158.62-2.64.798-3.292.394-2.589-1.6-4.773-3.862-4.773-4.944 0-2.072-5.266-.613-7.603 2.107-1.376 1.601-2.771 2.365-3.497 1.916-.807-.498-.948-.325-.426.519.441.714.258 1.591-.42 2.009-.893.553-.78 1.166.444 2.389 1.001 1.001 1.183 1.645.465 1.645-.745 0-.958.882-.579 2.395.331 1.318-.085 4.038-.923 6.045-.839 2.007-1.584 5.223-1.657 7.147-.072 1.923-.508 3.73-.968 4.014-.46.284-.836 2.258-.836 4.387 0 2.128-.676 4.545-1.502 5.371-1.13 1.13-1.263 2.128-.538 4.036.617 1.622.617 2.748.002 3.129-.529.327-.962.042-.962-.632s-.235-.991-.521-.704c-.803.803.874 4.284 2.183 4.533 1.396.265 2.92-3.657 5.331-13.721 1.625-6.783 6.643-21.885 7.615-22.917 1.394-1.481 1.2 2.132-.674 12.537-1.177 6.534-2.255 13.455-2.396 15.38-.141 1.925-.994 5.653-1.897 8.285-1.866 5.44-2.104 8.119-.641 7.215.582-.36 1.052.765 1.125 2.691.247 6.539-.26 18.586-.983 23.401l-.738 4.908-.727-7.441c-.399-4.093-.91-7.626-1.135-7.851-1.132-1.131-2.633 1.294-2.104 3.401.33 1.315.166 2.391-.364 2.391-.531 0-1.133 2.137-1.339 4.75-.344 4.361-.389 4.245-.555-1.417-.112-3.85-.65-6.356-1.43-6.671-1-.403-1-.52 0-.583 1.788-.113 1.552-2.079-.25-2.079-.905 0-1.5.926-1.5 2.333 0 1.284-.337 2.671-.75 3.084-.413.412-.787 15.225-.832 32.917-.07 27.622-.314 32.685-1.731 35.84-3.599 8.013-4.457 34.606-3.93 121.826l.256 42.5-45.256-.679c-24.892-.373-47.957-1.128-51.257-1.676-8.091-1.345-94.909.055-115.5 1.862-5.225.458-14.662 1.13-20.971 1.491-6.309.362-11.747.828-12.083 1.035-.337.208-7.774.671-16.529 1.029-14.455.591-22.469 1.587-33.917 4.217-6.858 1.576-10.865 3.766-14.733 8.052-3.509 3.889-3.696 4.423-3.112 8.903.342 2.621 1.005 5.257 1.474 5.858.47.601.534 1.412.143 1.803s.063.414 1.008.051c1.291-.495 1.72-.135 1.72 1.447 0 1.159.477 2.107 1.059 2.107s.813-.398.512-.884c-.542-.878 7.002-3.386 11.03-3.667 1.155-.081 2.674-.501 3.375-.934 1.185-.732 13.182-1.594 26.024-1.868 3.025-.065 5.831-.574 6.235-1.132.449-.621.74-.482.75.357.012 1.072.326 1.115 1.433.196.78-.648 3.818-1.127 6.75-1.065 2.933.062 7.348-.389 9.813-1.002 3.145-.782 4.587-.798 4.835-.052.195.585.766.809 1.269.498.75-.463 1.205 2.386.83 5.191-.047.351.333.914.846 1.25.512.337 1.217 2.75 1.566 5.362.611 4.569.54 4.75-1.865 4.75-2.093 0-2.408.366-1.935 2.25.541 2.159.297 2.252-6.049 2.311-5.908.055-6.562-.131-6.139-1.751.261-.997.063-1.558-.441-1.247-.503.311-1.333-.476-1.843-1.749-.511-1.273-.957-1.751-.992-1.064-.09 1.79-2.063 1.551-2.063-.25 0-.825-.464-1.5-1.031-1.5-.568 0-1.291.675-1.607 1.5-.776 2.021-2.112 1.896-2.673-.25-.39-1.493-.474-1.46-.573.223-.11 1.87-.197 1.857-1.673-.25-1.799-2.57-4.244-2.905-5.091-.697-.413 1.076-.946 1.226-1.811.508-.674-.559-1.562-.683-1.973-.275-1.088 1.077-4.93.908-5.894-.259-.535-.648-1.005-.56-1.333.25-.279.688-1.745 1.25-3.258 1.25-1.512 0-3.063.313-3.445.696-1.697 1.696-3.748 1.086-3.447-1.026.261-1.83 1.015-2.196 4.809-2.334 2.475-.091 8.325-.525 13-.965 4.675-.441 11.2-.808 14.5-.817 3.3-.009 6.324-.475 6.719-1.035.478-.676 1.404-.595 2.75.239 1.747 1.083 2.036 1.013 2.07-.5.023-1.023.63-.399 1.452 1.492 1.253 2.884 1.841 3.238 5.211 3.147l3.798-.104-3.674-.978c-5.583-1.486-6.006-5.752-.576-5.8 2.339-.02 2.238-1.654-.141-2.276-1.039-.272-5.877-.287-10.75-.034-8.557.445-34.968 1.169-44.513 1.22-2.559.014-5.263.635-6.009 1.38-.745.746-2.026 1.151-2.846.9-1.203-.367-1.25-.199-.241.87 1.675 1.776 1.577 2.925-.25 2.925-2.165 0-1.918 3.992.25 4.032 1.621.029 1.614.135-.1 1.433-1.439 1.09-1.85 2.736-1.85 7.4 0 3.983-.434 6.164-1.294 6.494-1.007.387-1.237 4.661-1.039 19.319.307 22.771.339 23.353 1.283 23.204 2.729-.431 5.36.289 5 1.368-.229.687-1.054 1.261-1.833 1.275-.917.016-1.351.986-1.229 2.75.124 1.791-.305 2.725-1.25 2.725-.791 0-1.438.45-1.438 1s.388 1 .861 1c.474 0 .647 1.125.384 2.5s-.928 2.5-1.478 2.5c-.55 0-.746.973-.435 2.162s.175 2.891-.303 3.783c-1.347 2.519-1.988 8.414-2.48 22.823-.25 7.298-.768 13.778-1.152 14.399-.98 1.586-1.641 7.285-1.663 14.333-.01 3.416-.234 4.708-.521 3-.378-2.258-.852-.899-1.916 5.5-1.8 10.817-2.057 15.061-1.045 17.24.471 1.015.168 4.208-.726 7.659-.843 3.255-1.23 6.708-.86 7.674.452 1.178.299 1.523-.467 1.05-.784-.484-1.109.482-1.039 3.086.098 3.672 4.175 9.82 5.832 8.796 1.177-.728 5.235 7.52 4.702 9.559-.284 1.083.003 1.95.65 1.968.636.017.306.675-.734 1.462-1.719 1.302-1.754 1.637-.39 3.718 1.631 2.491 2.019 4.405.828 4.087-.413-.11-.547.869-.298 2.176.337 1.761 1.809 2.925 5.687 4.499 4.644 1.885 17.71 4.667 26.045 5.545 8.027.845 18.455 1.627 22.282 1.67 4.484.05 6.441 1.433 4.114 2.907-.758.481-3.366.88-5.795.889-5.628.019-4.608 1.171 1.439 1.623 2.526.189 5.016.606 5.535.927 1.759 1.087.954 2.33-1.307 2.019-7.749-1.066-10.75-1.945-10.75-3.15 0-.781-.626-1.101-1.5-.766-.825.317-1.5.078-1.5-.531s-.45-1.107-1-1.107-1 .702-1 1.559-.457 1.276-1.016.931c-.559-.346-.827-.935-.596-1.309.232-.375-1.224-.723-3.233-.774-9.235-.234-32.978-5.993-37.936-9.202-2.801-1.812-3.757-1.079-2.254 1.73.62 1.158.798 2.64.394 3.292-1.6 2.589-3.862 4.773-4.944 4.773-2.072 0-.613 5.266 2.107 7.603 1.601 1.376 2.365 2.771 1.916 3.497-.498.807-.325.948.519.426.714-.441 1.591-.258 2.009.42.553.893 1.166.78 2.389-.444 1.001-1.001 1.645-1.183 1.645-.465 0 .745.882.958 2.395.579 1.318-.331 4.038.085 6.045.923 2.007.839 5.223 1.584 7.147 1.657 1.923.072 3.73.508 4.014.968.284.46 2.258.836 4.387.836 2.128 0 4.545.676 5.371 1.502 1.13 1.13 2.128 1.263 4.036.538 1.622-.617 2.748-.617 3.129-.002.327.529.042.962-.632.962s-.991.235-.704.521c.803.803 4.284-.874 4.533-2.183.265-1.396-3.657-2.92-13.721-5.331-6.783-1.625-21.885-6.643-22.917-7.615-1.481-1.394 2.132-1.2 12.537.674 6.534 1.177 13.455 2.255 15.38 2.396 1.925.141 5.653.994 8.285 1.897 5.44 1.866 8.119 2.104 7.215.641-.36-.582.765-1.052 2.691-1.125 6.539-.247 18.586.26 23.401.983l4.908.738-7.441.727c-4.093.399-7.626.91-7.851 1.135-1.131 1.132 1.294 2.633 3.401 2.104 1.315-.33 2.391-.166 2.391.364 0 .531 2.137 1.133 4.75 1.339 4.361.344 4.245.389-1.417.555-3.85.112-6.356.65-6.671 1.43-.403 1-.52 1-.583 0-.113-1.788-2.079-1.552-2.079.25 0 .905.926 1.5 2.333 1.5 1.284 0 2.671.338 3.084.75.412.413 15.225.787 32.917.832 27.622.07 32.685.314 35.84 1.731 8.008 3.597 34.572 4.455 121.69 3.933l42.364-.254-.735 4.754c-1.165 7.526-.729 82.995.587 101.754.795 11.327.915 22.507.36 33.5-.458 9.075-.739 19.875-.625 24 .548 19.729.326 26.867-.906 29.134-1.617 2.975-1.75 4.213-1.706 15.866.115 30.58.015 41.441-.458 49.5-.744 12.668 1.67 26.621 7.007 40.5 3.505 9.117 8.248 12.82 8.248 6.441 0-1.343.45-2.441 1-2.441s1 .675 1 1.5.498 1.5 1.107 1.5c.623 0 .827-.73.466-1.67-1.164-3.034-2.444-9.747-2.921-15.33-.259-3.025-.786-6.737-1.17-8.25-1.032-4.061 1.311-3.491 3.082.75.805 1.925 1.835 3.5 2.289 3.5.909 0 .657-10.823-.274-11.754-.928-.928-.638-6.607.421-8.246 1.109-1.717 1.142-1.581 1.532 6.47.16 3.284.78 6.134 1.379 6.334 1.496.498 1.376 3.909-.161 4.555-.895.376-.753.839.5 1.633.962.609 1.75 1.91 1.75 2.891 0 2.494 1.077 3.298 2.658 1.986 1.072-.89 1.342-.51 1.342 1.886 0 2.943 2.425 6.153 3.691 4.887.354-.354.197-3.106-.349-6.117s-.677-5.599-.292-5.75c.385-.151.116-3.875-.598-8.275-.919-5.668-1.049-10.769-.446-17.5.469-5.225.635-14.112.369-19.75-.293-6.219-.105-10.25.477-10.25 1.857 0 3.033 13.242 3.419 38.5.223 14.576 1.587 22.5 3.874 22.5.587 0 .678-.916.224-2.25-.422-1.237-.768-8.633-.77-16.434-.001-8.21-.384-13.949-.908-13.625-.517.32-.592-.459-.174-1.816.907-2.946 1.296-3.395 2.177-2.515.656.656 1.595 17.253 1.386 24.503-.053 1.849.336 4.999.865 7 1.774 6.714 1.968 9.135.739 9.2-.651.035-.172.471 1.066.968 1.238.498 2.25 1.467 2.25 2.153 0 .687.736 3.177 1.636 5.533 1.464 3.833 1.978 4.283 4.893 4.283 3.249 0 5.649-2.654 3.565-3.942-.535-.331-.932-2.054-.881-3.83.123-4.347 2.483-4.2 4.351.272.805 1.925 1.907 3.5 2.449 3.5.543 0 .987.723.987 1.607 0 1.055.544 1.398 1.582 1 .87-.334 1.756-.607 1.968-.607.213 0 .101-.746-.249-1.659-.541-1.409-.142-1.559 2.656-1 1.811.363 3.912.659 4.668.659.756 0 1.375.73 1.375 1.622 0 1.308.283 1.388 1.456.414.801-.664 1.926-.918 2.5-.563.574.355 1.046.056 1.048-.664.002-.72.895.154 1.985 1.941 1.213 1.99 2.86 3.307 4.246 3.398 1.246.081 2.94.194 3.765.25.825.056 1.95.354 2.5.662.55.308 2.35.508 4 .443 1.65-.064 3.595.471 4.321 1.19 1.539 1.522 4.179 1.742 4.179.349 0-.527 1.688-.85 3.75-.719 2.063.132 5.1-.292 6.75-.941 1.65-.648 4.35-1 6-.781 1.65.219 6.375.453 10.5.52s8.037.551 8.693 1.075c1.184.947 15.427.466 17.116-.578.486-.3 3.315-.085 6.287.478 2.972.564 7.204 1.198 9.404 1.41 2.2.212 6.475.617 9.5.9 3.025.283 8.552.941 12.281 1.461 3.73.521 7.555.829 8.5.684.946-.144 3.463.347 5.595 1.093 2.131.746 6.467 1.356 9.633 1.356 5.407 0 5.97-.234 9.22-3.832 2.271-2.513 3.693-5.278 4.134-8.036.37-2.313 1.564-5.87 2.655-7.904 1.09-2.034 1.989-4.38 1.997-5.213.009-.833.472-2.19 1.031-3.015.753-1.113.85-.79.376 1.25-.839 3.611.248 7.75 2.035 7.75 2.048 0 1.468 3.786-.665 4.344-.986.258-1.792 1.374-1.792 2.481 0 1.106-.267 2.836-.594 3.843-.492 1.517-.412 1.574.469.332.899-1.268 1.394-1.295 3.199-.176 1.174.728 1.837.84 1.472.25-.365-.591-.044-1.074.715-1.074.758 0 2.022-1.436 2.809-3.191 1.77-3.949 3.919-4.84 3.96-1.642.027 2.037.158 2.115 1.032.616 1.386-2.379 2.078-8.548 2.272-20.283.15-9.054.9-12.091 2.709-10.973.962.594.916 28.128-.052 31.506-.519 1.809-.461 3.176.15 3.554.546.338 1.241-.331 1.543-1.486.302-1.156.995-2.101 1.54-2.101.544 0 .752-.62.461-1.378-.291-.758-.089-1.818.448-2.355.537-.537 1.147-7.112 1.356-14.611.209-7.499.635-14.047.946-14.552.702-1.135 4.62-.187 6.345 1.535.703.702 1.106 2.309.895 3.569-.211 1.261-.191 1.73.044 1.042.235-.687 1.217-1.25 2.181-1.25 1.38 0 1.66-.64 1.313-3-.264-1.801.005-3 .674-3 .612 0 1.113.675 1.113 1.5 0 2.432 1.729 1.714 2.411-1 1.349-5.377 4.144-.523 2.997 5.208-.373 1.865-.086 3.315.802 4.051 1.136.943 1.386.443 1.405-2.812.017-2.913.733-4.7 2.704-6.758 2.848-2.973 3.703-5.282 1.181-3.189-1.923 1.596-1.943-.032-.032-2.559 1.881-2.486 1.955-4.037.121-2.515-1.86 1.544-2.556.277-2.764-5.029-.099-2.521.314-4.443 1.004-4.673.644-.215 1.171-1.28 1.171-2.366 0-1.114-.454-1.695-1.04-1.333-.675.417-.811-.269-.388-1.954.383-1.527.143-3.21-.583-4.084-.877-1.057-.928-1.856-.176-2.762.605-.729 1.149-7.124 1.271-14.93.22-14.231 1.03-18.21 2.801-13.771.849 2.126.999 2.193 1.063.476.041-1.1.344-3.633.674-5.63.551-3.328.363-3.708-2.261-4.583-2.731-.91-2.867-1.245-2.99-7.37-.072-3.529.109-6.822.401-7.316.292-.495.608-4.32.703-8.5.112-4.926.561-7.522 1.275-7.376 1.282.262 2.704-5.181 1.755-6.717-.354-.572-1.062-.782-1.574-.465-.512.316-.931-.502-.931-1.817 0-1.316-.324-2.717-.72-3.112-1.185-1.185-1.325-8.468-.176-9.178.696-.43.989.681.847 3.203-.12 2.123.145 4.728.59 5.788.799 1.902.818 1.902 1.564 0 .683-1.744.761-1.707.825.382.038 1.272.519 2.031 1.07 1.691 1.422-.879 1.243-7.252-.218-7.739-.882-.294-1.142-3.425-.942-11.334.243-9.587.105-10.694-1.13-9.024-1.824 2.466-3.71 1.256-3.71-2.38 0-4.335.886-5.866 3.065-5.296 1.769.463 1.928-.039 1.859-5.86-.042-3.502-.661-7.942-1.375-9.867l-1.299-3.5-.738 3.761c-1.764 8.983-2.891 2.978-1.596-8.511.046-.412.534-.75 1.084-.75s.947.338.882.75c-.552 3.493 1.566 4.346 3.726 1.5 1.173-1.545 1.332-1.258 1.36 2.441.031 4.089 1.149 5.973 2.902 4.89.478-.296.531-2.389.117-4.651-.413-2.262-.523-4.99-.242-6.062.828-3.167 2.772-1.471 2.555 2.227-.11 1.873-.229 5.617-.264 8.32-.036 2.703-.558 5.51-1.162 6.237-.604.727-.864 1.932-.578 2.676.285.744.076 1.988-.466 2.763-.672.96-.791-.263-.373-3.841.666-5.714-.662-7.089-2.644-2.739-1.687 3.703.062 12.094 2.437 11.695 2.274-.382 2.21.334-.25 2.794-1.556 1.556-2 3.333-2 8 0 6.778 1.918 8.339 2.15 1.75.105-2.984.274-3.431.566-1.5.229 1.513.949 2.757 1.6 2.765.701.009.576.4-.308.959-1.188.751-1.238 1.196-.25 2.184.989.989 1.242.966 1.242-.113 0-.987.545-.862 2.006.461 1.104.998 2.181 1.63 2.396 1.405.861-.909 2.488-8.28 2.001-9.067-.286-.464-.176-1.403.246-2.086.669-1.082 1.768-28.494 1.443-35.972-.065-1.493.312-4.628.837-6.967.593-2.637.601-4.68.022-5.378-.513-.619-.679-1.379-.368-1.69 1.312-1.313.311-63.523-1.189-73.867l-.525-3.616 41.316-.075c22.723-.04 48.965-.612 58.315-1.27 11.343-.798 22.49-.919 33.5-.363 9.075.458 19.875.739 24 .625 19.729-.548 26.867-.326 29.134.906 2.975 1.617 4.213 1.75 15.866 1.706 30.58-.115 41.441-.015 49.5.458 12.668.744 26.621-1.67 40.5-7.007 9.117-3.505 12.82-8.248 6.441-8.248-1.343 0-2.441-.45-2.441-1s.675-1 1.5-1 1.5-.498 1.5-1.107c0-.623-.73-.827-1.67-.466-3.034 1.164-9.747 2.444-15.33 2.921-3.025.259-6.737.786-8.25 1.17-4.061 1.032-3.491-1.311.75-3.082 1.925-.805 3.5-1.835 3.5-2.289 0-.909-10.823-.657-11.754.274-.928.928-6.607.638-8.246-.421-1.717-1.109-1.581-1.142 6.47-1.532 3.284-.16 6.134-.78 6.334-1.379.498-1.496 3.909-1.376 4.555.161.376.895.839.753 1.633-.5.609-.962 1.91-1.75 2.891-1.75 2.494 0 3.298-1.077 1.986-2.658-.89-1.072-.51-1.342 1.886-1.342 2.943 0 6.153-2.425 4.887-3.691-.354-.354-3.106-.197-6.117.349s-5.599.677-5.75.292c-.151-.385-3.875-.116-8.275.598-5.668.919-10.769 1.049-17.5.446-5.225-.469-14.112-.635-19.75-.369-6.219.293-10.25.105-10.25-.477 0-1.857 13.242-3.033 38.5-3.419 14.576-.223 22.5-1.587 22.5-3.874 0-.587-.916-.678-2.25-.224-1.237.422-8.633.768-16.434.77-8.21.001-13.949.384-13.625.908.32.517-.459.592-1.816.174-2.946-.907-3.395-1.296-2.515-2.177.656-.656 17.253-1.595 24.503-1.386 1.849.053 4.999-.336 7-.865 6.714-1.774 9.135-1.968 9.2-.739.035.651.471.171.968-1.066.498-1.237 1.467-2.25 2.153-2.25.687 0 3.177-.736 5.533-1.636 3.833-1.464 4.283-1.978 4.283-4.893 0-3.249-2.654-5.649-3.942-3.565-.331.535-2.054.932-3.83.881-4.347-.123-4.2-2.483.272-4.351 1.925-.805 3.5-1.907 3.5-2.449 0-.543.723-.987 1.607-.987 1.055 0 1.398-.544 1-1.582-.334-.87-.607-1.756-.607-1.968 0-.213-.746-.101-1.659.249-1.409.541-1.559.142-1-2.656.363-1.811.659-3.912.659-4.668 0-.756.73-1.375 1.622-1.375 1.308 0 1.388-.283.414-1.456-.664-.801-.918-1.926-.563-2.5.355-.574.056-1.046-.664-1.048-.72-.002.154-.895 1.941-1.985 1.99-1.213 3.307-2.86 3.398-4.246.081-1.246.194-2.94.25-3.765.056-.825.354-1.95.662-2.5.308-.55.508-2.35.443-4-.064-1.65.471-3.595 1.19-4.321 1.522-1.539 1.742-4.179.349-4.179-.527 0-.85-1.687-.719-3.75.132-2.062-.292-5.1-.941-6.75-.648-1.65-1-4.35-.781-6 .219-1.65.453-6.375.52-10.5s.551-8.037 1.075-8.693c.947-1.184.466-15.427-.578-17.116-.3-.486-.085-3.315.478-6.287.564-2.972 1.198-7.204 1.41-9.404.212-2.2.617-6.475.9-9.5.283-3.025.941-8.552 1.461-12.281.521-3.73.829-7.555.684-8.5-.144-.946.347-3.463 1.093-5.595.746-2.131 1.356-6.467 1.356-9.633 0-5.407-.234-5.97-3.832-9.22-2.513-2.271-5.278-3.693-8.036-4.134-2.313-.37-5.87-1.564-7.904-2.655-2.034-1.09-4.38-1.989-5.213-1.997-.833-.009-2.19-.472-3.015-1.031-1.113-.753-.79-.85 1.25-.376 3.611.839 7.75-.248 7.75-2.035 0-2.048 3.786-1.468 4.344.665.258.986 1.374 1.792 2.481 1.792 1.106 0 2.836.267 3.843.594 1.517.492 1.574.412.332-.469-1.268-.899-1.295-1.394-.176-3.199.728-1.174.84-1.837.25-1.472-.591.365-1.074.044-1.074-.715 0-.758-1.436-2.022-3.191-2.809-3.949-1.77-4.84-3.919-1.642-3.96 2.037-.027 2.115-.158.616-1.032-2.379-1.386-8.548-2.078-20.283-2.272-9.054-.15-12.091-.9-10.973-2.709.594-.962 28.128-.916 31.506.052 1.809.519 3.176.461 3.554-.15.338-.546-.331-1.241-1.486-1.543-1.156-.302-2.101-.995-2.101-1.54 0-.544-.62-.752-1.378-.461-.758.291-1.818.089-2.355-.448-.537-.537-7.112-1.147-14.611-1.356-7.499-.209-14.047-.635-14.552-.946-1.135-.702-.187-4.62 1.535-6.345.702-.703 2.309-1.106 3.569-.895 1.261.211 1.73.191 1.042-.044-.687-.235-1.25-1.217-1.25-2.181 0-1.38-.64-1.66-3-1.313-1.801.264-3-.005-3-.674 0-.612.675-1.113 1.5-1.113 2.432 0 1.714-1.729-1-2.411-5.377-1.349-.523-4.144 5.208-2.997 1.865.373 3.315.086 4.051-.802.943-1.136.443-1.386-2.812-1.405-2.913-.017-4.7-.733-6.758-2.704-2.973-2.848-5.282-3.703-3.189-1.181 1.596 1.923-.032 1.943-2.559.032-2.486-1.881-4.037-1.955-2.515-.121 1.544 1.86.277 2.556-5.029 2.764-2.521.099-4.443-.314-4.673-1.004-.215-.644-1.28-1.171-2.366-1.171-1.114 0-1.695.454-1.333 1.04.417.675-.269.811-1.954.388-1.527-.383-3.21-.143-4.084.583-1.057.877-1.856.928-2.762.176-.729-.605-7.124-1.149-14.93-1.271-14.231-.22-18.21-1.03-13.771-2.801 2.126-.849 2.193-.999.476-1.063-1.1-.041-3.633-.344-5.63-.674-3.328-.551-3.708-.363-4.583 2.261-.91 2.731-1.245 2.867-7.37 2.99-3.529.072-6.822-.109-7.316-.401-.495-.292-4.32-.608-8.5-.703-4.926-.112-7.522-.561-7.376-1.275.262-1.282-5.181-2.704-6.717-1.755-.572.354-.782 1.062-.465 1.574.316.512-.502.931-1.817.931-1.316 0-2.717.324-3.112.72-1.185 1.185-8.468 1.325-9.178.176-.43-.696.681-.989 3.203-.847 2.123.12 4.728-.145 5.788-.59 1.902-.799 1.902-.818 0-1.564-1.744-.683-1.707-.761.382-.825 1.272-.038 2.031-.519 1.691-1.07-.879-1.422-7.252-1.243-7.739.218-.294.882-3.425 1.142-11.334.942-9.587-.243-10.694-.105-9.024 1.13 2.466 1.824 1.256 3.71-2.38 3.71-4.335 0-5.866-.886-5.296-3.065.463-1.769-.039-1.928-5.86-1.859-3.502.042-7.942.661-9.867 1.375l-3.5 1.299 3.761.738c8.983 1.764 2.978 2.891-8.511 1.596-.413-.046-.75-.534-.75-1.084s.337-.947.75-.882c3.493.552 4.346-1.566 1.5-3.726-1.545-1.173-1.258-1.332 2.441-1.36 4.089-.031 5.973-1.149 4.89-2.902-.296-.478-2.389-.531-4.651-.117-2.262.413-4.99.523-6.062.242-3.167-.828-1.471-2.772 2.227-2.555 1.873.11 5.617.229 8.32.264 2.703.036 5.51.558 6.237 1.162.727.604 1.932.864 2.676.578.744-.285 1.988-.076 2.763.466.96.672-.263.791-3.841.373-5.714-.666-7.089.662-2.739 2.644 3.703 1.687 12.094-.062 11.695-2.437-.382-2.274.334-2.21 2.794.25 1.556 1.556 3.333 2 8 2 6.778 0 8.339-1.918 1.75-2.15-2.984-.105-3.431-.274-1.5-.566 1.513-.229 2.757-.949 2.765-1.6.009-.701.4-.576.959.308.751 1.188 1.196 1.238 2.184.25.989-.989.966-1.242-.113-1.242-.987 0-.862-.545.461-2.006.998-1.104 1.63-2.181 1.405-2.396-.909-.861-8.28-2.488-9.067-2.001-.464.286-1.403.176-2.086-.246-1.082-.669-28.494-1.768-35.972-1.443-1.493.065-4.628-.312-6.967-.837-2.637-.593-4.68-.601-5.378-.022-.619.513-1.383.676-1.698.36-1.329-1.328-60.683-.351-73.993 1.219l-4.75.56.015-31.844c.009-17.514.555-38.594 1.213-46.844 1.771-22.189.98-102.301-1.253-127-.448-4.95-1.11-14.162-1.472-20.471-.362-6.309-.829-11.747-1.036-12.083-.208-.337-.671-7.774-1.029-16.529-.591-14.455-1.587-22.469-4.217-33.917-1.576-6.858-3.766-10.865-8.052-14.733-3.889-3.509-4.423-3.696-8.903-3.112-2.621.342-5.257 1.005-5.858 1.474-.601.47-1.412.534-1.803.143s-.414.063-.051 1.008c.495 1.291.135 1.72-1.447 1.72-1.159 0-2.107.477-2.107 1.059s.398.813.884.512c.878-.542 3.386 7.002 3.667 11.03.081 1.155.501 2.674.934 3.375.732 1.185 1.594 13.182 1.868 26.024.065 3.025.574 5.831 1.132 6.235.621.449.482.74-.357.75-1.072.012-1.115.326-.196 1.433.648.78 1.127 3.818 1.065 6.75-.062 2.933.389 7.348 1.002 9.813.782 3.145.798 4.587.052 4.835-.585.195-.809.766-.498 1.269.463.75-2.386 1.205-5.191.83-.351-.047-.914.333-1.25.846-.337.512-2.75 1.217-5.362 1.566-4.569.611-4.75.54-4.75-1.865 0-2.093-.366-2.408-2.25-1.935-2.159.541-2.252.297-2.311-6.049-.055-5.908.131-6.562 1.751-6.139.997.261 1.558.063 1.247-.441-.311-.503.476-1.333 1.749-1.843 1.273-.511 1.752-.957 1.064-.992-1.79-.09-1.551-2.063.25-2.063.825 0 1.5-.464 1.5-1.031 0-.568-.675-1.291-1.5-1.607-2.021-.776-1.896-2.112.25-2.673 1.493-.39 1.46-.474-.223-.573-1.87-.11-1.857-.197.25-1.673 2.57-1.799 2.905-4.244.697-5.091-1.076-.413-1.226-.946-.508-1.811.559-.674.683-1.562.275-1.973-1.077-1.088-.908-4.93.259-5.894.648-.535.56-1.005-.25-1.333-.687-.279-1.25-1.745-1.25-3.258 0-1.512-.313-3.063-.696-3.445-1.696-1.697-1.086-3.748 1.026-3.447 1.83.261 2.196 1.015 2.334 4.809.091 2.475.525 8.325.965 13 .441 4.675.808 11.2.817 14.5.009 3.3.475 6.324 1.035 6.719.676.478.595 1.404-.239 2.75-1.083 1.747-1.013 2.036.5 2.07 1.023.023.399.63-1.492 1.452-2.884 1.253-3.238 1.841-3.147 5.211l.104 3.798.978-3.674c1.486-5.583 5.752-6.006 5.8-.576.02 2.339 1.654 2.238 2.276-.141.272-1.039.287-5.877.034-10.75-.445-8.557-1.169-34.968-1.22-44.513-.014-2.559-.635-5.263-1.38-6.009-.746-.745-1.151-2.026-.9-2.846.367-1.203.199-1.25-.87-.241-1.776 1.675-2.925 1.577-2.925-.25 0-2.165-3.992-1.918-4.032.25-.029 1.621-.135 1.614-1.433-.1-1.09-1.439-2.736-1.85-7.4-1.85-3.983 0-6.164-.434-6.494-1.294-.387-1.007-4.661-1.237-19.319-1.039-22.771.307-23.353.339-23.204 1.283.431 2.729-.289 5.36-1.368 5-.687-.229-1.261-1.054-1.275-1.833-.016-.917-.986-1.351-2.75-1.229-1.791.124-2.725-.305-2.725-1.25 0-.791-.45-1.438-1-1.438s-1 .388-1 .861c0 .474-1.125.647-2.5.384s-2.5-.928-2.5-1.478c0-.55-.973-.746-2.162-.435s-2.891.175-3.783-.303c-2.519-1.347-8.414-1.988-22.823-2.48-7.298-.25-13.778-.768-14.399-1.152-1.586-.98-7.285-1.641-14.333-1.663-3.416-.01-4.708-.234-3-.521 2.258-.378.899-.852-5.5-1.916-10.817-1.8-15.061-2.057-17.24-1.045-1.015.471-4.208.168-7.659-.726-3.255-.843-6.708-1.23-7.674-.86-1.153.443-1.52.294-1.071-.434.459-.741-.619-1.089-3.26-1.053-2.938.041-4.607.745-6.535 2.757m171.102 25.314c.881 4.677 2.271 6.951 2.293 3.75.023-3.449-1.016-7-2.048-7-.472 0-.582 1.462-.245 3.25m9.566-.75c.164 1.976.738 2.485 2.739 2.43 2.311-.064 2.357-.146.532-.93-1.861-.8-1.87-.864-.128-.93 1.55-.058 1.658-.329.628-1.57-1.967-2.37-4.005-1.829-3.771 1m-208.775 4.76c-.337.877-.432 2.64-.212 3.917.387 2.241.444 2.22 1.617-.59.814-1.95.883-3.245.211-3.917-.673-.673-1.207-.478-1.616.59m8.728 11.99c-.536 1.788-1.02 7.262-1.076 12.165-.056 4.903-.328 9.14-.604 9.416-.276.277-.502-1.203-.502-3.287 0-3.08-.254-3.578-1.359-2.661-.845.701-1.249 2.676-1.068 5.218.347 4.877-.292 6.899-2.18 6.899-.837 0-1.393 1.048-1.393 2.622 0 2.218.232 2.431 1.5 1.378 1.036-.86 1.5-.898 1.5-.122 0 .617.675 1.122 1.5 1.122s1.514.563 1.532 1.25c.02.795.492.645 1.296-.412.851-1.119 1.333-6.186 1.476-15.5.116-7.611.473-15.525.792-17.588.713-4.611-.097-4.897-1.414-.5m94.756 3.75c-.8 2.133.979 32.899 2.111 36.5.649 2.066.744.043.303-6.5a2065.25 2065.25 0 0 1-1.246-20.5c-.333-6.05-.859-10.325-1.168-9.5M549 448.059c0 3.882.392 6.817.871 6.521 1.246-.771 1.38-13.58.141-13.58-.587 0-1.012 2.964-1.012 7.059m-55.714 1.441c.008 2.75.202 3.756.432 2.236.229-1.52.223-3.77-.014-5-.237-1.23-.425.014-.418 2.764m-30.522-.5c-.318 1.375-.422 4.3-.23 6.5.191 2.2.375 5.462.407 7.25.081 4.453 1.681 4.105 2.298-.5.645-4.826-1.619-16.95-2.475-13.25m100.564 8.5c.005 3.85.185 5.302.402 3.228.216-2.075.213-5.225-.008-7-.221-1.776-.398-.078-.394 3.772m-66.661-4.833c-1.059 1.058-.773 7.333.333 7.333.55 0 1-1.8 1-4 0-4.087-.166-4.501-1.333-3.333m-25.378 2.332c.288 1.099.115 2.251-.383 2.559-.498.308-.906.083-.906-.499s-.421-1.059-.935-1.059c-1.318 0-.81 7.24.614 8.75.648.688 1.36 1.25 1.583 1.25.223 0 .413-.562.424-1.25.01-.687.352-3.613.76-6.5.544-3.85.419-5.25-.469-5.25-.718 0-.998.813-.688 1.999m225.972 12.104c.302 6.69 1.036 12.594 1.642 13.2.796.796 1.136.15 1.239-2.353.239-5.824.19-7.258-.442-12.95-.336-3.025-.63-6.512-.655-7.75-.025-1.238-.559-2.25-1.187-2.25-.823 0-.989 3.38-.597 12.103M559.272 461c0 2.475.195 3.488.434 2.25.238-1.238.238-3.262 0-4.5-.239-1.238-.434-.225-.434 2.25m63.928 2.503c0 1.926.405 3.753.9 4.059.495.306.9-1.271.9-3.503s-.405-4.059-.9-4.059-.9 1.576-.9 3.503M466.717 488.75c-.221.413-.068 1.875.341 3.25.694 2.337.749 2.288.842-.75.096-3.135-.345-4.067-1.183-2.5M504.208 689c-.033 4.125.301 9.525.741 12 .759 4.266.803 4.135.838-2.5.021-3.85-.313-9.25-.741-12-.756-4.854-.781-4.781-.838 2.5m415.042 14.723c-1.788.222-3.25.763-3.25 1.201 0 1.146 7.05.426 8.327-.851 1.134-1.134 1.204-1.129-5.077-.35m7.082.825c-1.65 1.25-1.664 1.392-.141 1.42.93.018 1.999-.466 2.375-1.075.499-.807.871-.803 1.375.012.703 1.137 7.059.434 7.059-.78 0-1.276-8.891-.924-10.668.423M1002 704c0 1.145 1.425 1.145 5 0 2.231-.715 2.097-.811-1.25-.9-2.062-.055-3.75.35-3.75.9m13.25-.195c-1.3.193-2.256 1.044-2.265 2.015-.012 1.33-.196 1.396-.879.317-.554-.875-.997-.971-1.235-.27-.204.601-2.846 1.338-5.871 1.636-3.025.299-6.513.645-7.75.77-4.512.455-1.425 2.228 3.947 2.267 3.693.026 6.057.571 7.128 1.642 1.471 1.471 1.338 1.737-1.611 3.226l-3.214 1.623 4.493-.265c3.789-.224 4.697-.696 5.804-3.016 1.071-2.244 1.992-2.762 5.008-2.813 3.323-.057 3.459-.158 1.353-1.002-1.289-.517-2.751-.686-3.25-.378-.5.309-.908-.11-.908-.93 0-1.047.817-1.383 2.75-1.128 1.513.2 3.055.394 3.429.432.373.038 1.293.684 2.045 1.436.859.859 6.175 1.825 14.321 2.603 16.695 1.593 16.297 1.539 17.101 2.343 1.076 1.076 4.836.805 6.079-.438.833-.833.309-1.87-2.023-4-1.731-1.581-3.921-2.875-4.866-2.875-.945 0-2.028-.501-2.406-1.113-.427-.692-2.738-.943-6.101-.664-2.978.247-5.614.125-5.858-.27-.244-.395-3.488-.483-7.208-.196-8.643.668-14.48.472-15.198-.512-.311-.426-1.578-.624-2.815-.44m-106.435 1.059c1.217.772 6.185.386 6.185-.481 0-.21-1.687-.376-3.75-.368-2.39.01-3.273.318-2.435.849m-16.493 1.63c1.336.976 1.456 1.435.481 1.826-.886.355-.778.547.34.601 2.915.14 2.963-2.668.055-3.223-2.39-.457-2.479-.376-.876.796m15.131 1.43c.314.509-.222 1.131-1.191 1.384-1.186.31-.928.498.788.576 1.402.064 2.978-.29 3.5-.787.522-.497 1.85-1.119 2.95-1.384 1.1-.265.061-.533-2.309-.597-2.411-.065-4.057.291-3.738.808m9.893.21c1.324.769 2.159.761 2.95-.03.805-.805.305-1.096-1.846-1.074-2.586.027-2.722.163-1.104 1.104M872 709.8c0 1.452 2.367 3.2 4.335 3.2 1.71 0 1.64-.232-.608-2-2.731-2.149-3.727-2.469-3.727-1.2m-43.996 1.45c-.006 1.107 7.251.882 8.996-.278 1.074-.714.01-.923-3.746-.735-2.885.145-5.247.6-5.25 1.013m61.329 2.25c0 .825.525 1.5 1.167 1.5s1.167-.675 1.167-1.5-.525-1.5-1.167-1.5-1.167.675-1.167 1.5m105.167-.432c-1.629.645-1.397.804 1.25.862 3.38.073 4.145-.38 2-1.185-.687-.257-2.15-.112-3.25.323m-68.84 5.489c.329.857 1.252 1.307 2.051 1 .799-.306 1.641-.557 1.871-.557.23 0 .418-.45.418-1s-1.111-1-2.469-1c-1.824 0-2.312.407-1.871 1.557m6.34.013c0 1.042.729 1.462 2.172 1.25 3.201-.472 3.544-2.82.411-2.82-1.68 0-2.583.549-2.583 1.57M880 721c0 .55 1.237.993 2.75.985 2.143-.012 2.419-.23 1.25-.985-1.957-1.264-4-1.264-4 0m30.25 3.706c-3.731.718-2.529 2.294 1.75 2.294 4.041 0 5.33-1.276 2.418-2.393-.87-.334-1.657-.546-1.75-.471-.092.075-1.181.331-2.418.57m24.589-.212c-.272.272-3.886.545-8.031.607-10.212.154-12.598 1.835-2.808 1.978 4.125.06 9.75.2 12.5.311 5.77.232 9.625-1.064 7.385-2.482-1.475-.934-8.217-1.243-9.046-.414m16.911.126c-2.486.748-2.169 2.158.5 2.223 1.237.031 12.058.152 24.045.269 11.988.118 21.213.584 20.5 1.036-1.906 1.209 7.541 1.055 10.779-.176 6.141-2.335 1.096-2.915-30.074-3.459-13.2-.23-24.788-.182-25.75.107M964.5 729c-5.333.381-7 .857-7 2 0 1.2 1.2 1.44 6 1.201 3.3-.165 9.15-.191 13-.059 8.898.306 18.719-.028 19.348-.657 1.282-1.282-1.61-1.818-9.804-1.818-4.926 0-8.794-.263-8.596-.584.441-.715-3.726-.742-12.948-.083m54.5 1c0 .55.873 1 1.941 1s2.219-.45 2.559-1c.351-.567-.49-1-1.941-1-1.407 0-2.559.45-2.559 1m16.889 3.437c-.214.21-2.56.606-5.214.881-7.046.729-7.328 1.594-.973 2.987 1.211.265 2.358.016 2.548-.555.233-.699 1.037-.667 2.466.098 2.484 1.33 8.535.397 7.985-1.231-.208-.614-1.238-1.117-2.289-1.117-1.052 0-2.412-.325-3.023-.723-.61-.397-1.285-.551-1.5-.34M969.829 736c-6.419.275-12.007.837-12.417 1.25-.968.974-.361 1.024 15.588 1.28 7.425.119 17.63.404 22.679.632 6.482.294 9.696.037 10.941-.873 1.588-1.162 1.471-1.296-1.179-1.358-1.617-.038-4.291-.291-5.941-.563-1.65-.272-3.675-.475-4.5-.452-5.043.144-12.281.051-12.841-.163-.363-.139-5.911-.028-12.33.247m6.826 5.235c-1.451.923-1.433.926 6.095 1.111 3.788.094 6.119-.24 5.917-.846-.383-1.149-10.279-1.368-12.012-.265m17.345.7c-2.26.623-2.116.754 1.5 1.366 5.89.997 8.229.85 8.762-.551.545-1.429-6.118-1.958-10.262-.815m-830.75 4.206c-2.071 2.085-1.461 3.854 1.25 3.63 1.976-.164 2.485-.738 2.43-2.739-.064-2.281-.149-2.334-.865-.532-.731 1.838-.827 1.854-1.18.191-.309-1.451-.632-1.56-1.635-.55m53.639 7.288c-.412.396-9.838 1.45-13.639 1.526-1.238.025-2.25.559-2.25 1.187 0 1.498 23.74.518 25.303-1.045.796-.796.287-1.117-1.853-1.171-1.622-.041-3.9-.254-5.061-.473-1.161-.219-2.286-.23-2.5-.024m-53.139 4.26c-3.153.824-1.831 2.276 1.5 1.648 4.872-.918 6.915-2.295 3.25-2.191-1.65.047-3.787.292-4.75.543M206 829.9c0 .495 1.576.9 3.503.9 1.926 0 3.753-.405 4.059-.9.306-.495-1.271-.9-3.503-.9s-4.059.405-4.059.9m1.5 23.146c-2.75.428-9.275.832-14.5.897-5.358.066-8.846.464-8 .912 1.771.938 32.148-.575 36.5-1.818 2.478-.707 1.955-.849-3-.813-3.3.024-8.25.394-11 .822m-7.772 37.676c1.775.221 4.925.224 7 .008 2.074-.217.622-.397-3.228-.402-3.85-.004-5.548.173-3.772.394m5.022 3.984c1.238.238 3.262.238 4.5 0 1.238-.239.225-.434-2.25-.434s-3.488.195-2.25.434M187 903.988c0 .587 2.964 1.012 7.059 1.012 3.882 0 6.817-.392 6.521-.871-.771-1.246-13.58-1.38-13.58-.141M1038 941c0 .55.648 1 1.441 1s1.719-.45 2.059-1c.34-.55-.309-1-1.441-1-1.132 0-2.059.45-2.059 1m-857.602 8.374c1.722.8 6.743 1.388 12.379 1.449 5.215.056 9.724.344 10.019.64.296.295-1.168.537-3.252.537-3.08 0-3.578.254-2.661 1.359.701.845 2.676 1.249 5.218 1.068 4.877-.347 6.899.292 6.899 2.18 0 .837 1.048 1.393 2.622 1.393 2.218 0 2.431-.232 1.378-1.5-.86-1.036-.898-1.5-.122-1.5.617 0 1.122-.675 1.122-1.5s.563-1.514 1.25-1.532c.795-.02.645-.492-.412-1.296-1.119-.851-6.186-1.333-15.5-1.476-7.611-.116-15.638-.427-17.838-.691l-4-.478 2.898 1.347M432 949c-3.973.618-3.622.709 3 .776 4.125.042 9.525-.285 12-.725 4.078-.726 3.796-.798-3-.776-4.125.014-9.525.34-12 .725m594.1 1.824c-1.413 1.169-1.337 1.268.65.844 1.237-.264 2.25-.073 2.25.426 0 .498.675.906 1.5.906s1.5-.45 1.5-1 .975-1 2.167-1c1.191 0 1.828-.337 1.414-.75-1.244-1.24-7.766-.845-9.481.574m-23.6.176-7 .647 6 .333c3.3.183 7.35.444 9 .58 1.65.136 4.109-.007 5.464-.318 2.281-.524 2.318-.623.5-1.334-2.187-.854-3.838-.844-13.964.092m-833.795 5.628c-1.248 1.248.436 2.372 3.554 2.372 1.876 0 2.758-.358 2.191-.888-1.397-1.305-4.994-2.234-5.745-1.484M198.5 957c.34.55 2.166 1 4.059 1 1.893 0 3.441-.45 3.441-1s-1.827-1-4.059-1c-2.451 0-3.814.396-3.441 1m-5.236 3.718c1.52.229 3.77.223 5-.014 1.23-.237-.014-.425-2.764-.418-2.75.008-3.756.202-2.236.432M838 963.583c0 .871.534 1.406 1.188 1.188 1.854-.618 2.161-2.771.395-2.771-.871 0-1.583.712-1.583 1.583M953 971c2.113.677 1.832.816-1.809.9-6.669.155-3.983 2.1 2.899 2.1 4.461 0 6.123-.391 6.565-1.543.834-2.174-.324-2.977-2.131-1.477-1.042.865-1.524.91-1.524.142 0-.62-1.454-1.077-3.25-1.022-3.079.094-3.119.141-.75.9m92.992 4.75c-.794 1.253-1.257 1.395-1.633.5-.289-.687-.965-1.25-1.501-1.25-.537 0-.698.45-.358 1 .346.559-.426 1-1.75 1-1.302 0-3.241.661-4.309 1.468-1.838 1.391-1.772 1.47 1.25 1.5 1.755.018 3.434-.362 3.732-.843.297-.481 1.65-.875 3.005-.875 2.216 0 5.572-2.215 5.572-3.679 0-1.313-2.987-.435-4.008 1.179M199 982.023c0 .718.813.998 1.999.688 1.099-.288 2.251-.115 2.559.383.308.498.083.906-.499.906s-1.059.421-1.059.935c0 1.318 7.24.81 8.75-.614.688-.648 1.25-1.36 1.25-1.583 0-.223-.562-.413-1.25-.424-.687-.01-3.613-.352-6.5-.76-3.85-.544-5.25-.419-5.25.469m850.917-.618c-.229.222-1.992.679-3.917 1.014-7.694 1.341-10.37 2.19-10.78 3.422-.325.974.511 1.13 3.425.638 4.746-.801 12.346-3.711 12.351-4.729.004-.827-.438-.969-1.079-.345m-815.5 5.461c.498.805 5.583.366 5.583-.483 0-.21-1.377-.383-3.059-.383-1.682 0-2.818.39-2.524.866M198 989.465c-4.173.877-4.962 1.299-3.272 1.746 2.274.602 16.432-.058 17.189-.802 1.663-1.634-7.635-2.266-13.917-.944m544.015 96.285c.009 2.063.465 4.425 1.013 5.25.714 1.074.923.01.735-3.746-.299-5.961-1.771-7.228-1.748-1.504m-252.786 7.438c.618 1.854 2.771 2.161 2.771.395 0-.87-.712-1.583-1.583-1.583s-1.406.534-1.188 1.188M742.2 1127.2c-.66.66-1.2 2.071-1.2 3.135 0 1.71.232 1.64 2-.608 1.1-1.398 2-2.809 2-3.135 0-.994-1.531-.661-2.8.608m-10.185 9.55c.012 2.143.23 2.419.985 1.25 1.264-1.957 1.264-4 0-4-.55 0-.993 1.237-.985 2.75m6.985 7.75c0 .642.675 1.167 1.5 1.167s1.5-.525 1.5-1.167-.675-1.167-1.5-1.167-1.5.525-1.5 1.167m8.329 2.084c-.489 1.275-.772 1.324-1.453.25-.659-1.041-.849-.973-.861.309-.025 2.763 2.723 3.005 3.243.286.525-2.746-.012-3.234-.929-.845m-3.213 14.466c-.064 1.402.29 2.977.787 3.5.497.522 1.119 1.85 1.384 2.95.265 1.1.533.061.597-2.309.065-2.411-.291-4.057-.808-3.738-.509.314-1.131-.222-1.384-1.191-.31-1.186-.498-.928-.576.788M727 1166c0 3.878 1.264 5.36 2.29 2.687.697-1.816-.328-6.687-1.407-6.687-.485 0-.883 1.8-.883 4m21.775-2.75c-.242.688-.11 2.375.293 3.75.637 2.175.746 2.013.832-1.25.102-3.808-.329-4.765-1.125-2.5m-3.201 8.417c-.352.917-.175 2.132.393 2.7.711.711 1.033.19 1.033-1.667 0-3.085-.499-3.447-1.426-1.033m2.992 1.96c.159 1.995.832 4.132 1.497 4.75.931.865 1.066.548.587-1.377-.343-1.375-.629-3.513-.636-4.75-.008-1.237-.401-2.25-.875-2.25-.473 0-.731 1.632-.573 3.627M726.921 1178c-.06 4.125-.2 9.75-.311 12.5-.111 2.75.211 5.859.715 6.91 1.685 3.511 2.958-.944 2.225-7.785-.363-3.397-.679-8.456-.7-11.245-.066-8.463-1.806-8.806-1.929-.38m8.295 1.845c-.708.449-.996 1.564-.643 2.485.963 2.509 2.427 2.008 2.427-.83 0-2.792.003-2.789-1.784-1.655m12.784.396c0 .903.498 1.949 1.107 2.325.807.499.803.871-.012 1.375-1.185.732-.409 7.059.865 7.059 1.22 0 .583-9.857-.722-11.162-.984-.984-1.238-.902-1.238.403m-13.82 7.931c.472 3.201 2.82 3.544 2.82.411 0-1.68-.549-2.583-1.57-2.583-1.042 0-1.462.729-1.25 2.172m-253.43 13.4c-.413.419-.75 3.4-.75 6.626 0 4.363.395 6.016 1.543 6.457 2.174.834 2.977-.324 1.477-2.131-.865-1.042-.91-1.524-.142-1.524.627 0 1.062-1.433.986-3.25-.121-2.89-.199-2.973-.703-.75-.463 2.046-.665 1.71-1.113-1.845-.302-2.389-.885-4.002-1.298-3.583m246.407 4.678c-.031 1.237-.152 12.058-.269 24.045-.118 11.988-.584 21.213-1.036 20.5-1.209-1.906-1.055 7.541.176 10.779 2.247 5.911 2.806 1.583 3.635-28.176.596-21.414.161-29.398-1.603-29.398-.466 0-.873 1.013-.903 2.25m-11.283 5.75c-.103.825-.285 7.575-.404 15-.119 7.425-.404 17.63-.632 22.679-.294 6.482-.037 9.696.873 10.941 1.162 1.589 1.297 1.472 1.372-1.179.046-1.617.271-4.066.499-5.441.228-1.375.392-3.85.363-5.5-.029-1.65-.05-3.675-.047-4.5.079-24.738-.079-30.49-.879-31.859-.806-1.381-.988-1.404-1.145-.141m5.925-.466c-.293.294-.338 3.106-.1 6.25.239 3.144.319 8.866.177 12.716-.325 8.804.002 18.712.639 19.348 1.282 1.282 1.818-1.61 1.818-9.804 0-4.926.275-8.786.611-8.579.666.412.257-17.185-.447-19.215-.45-1.295-1.768-1.645-2.698-.716m-9.88 18.466c-.661 2.962-.204 12.928.581 12.667 1.149-.383 1.368-10.279.265-12.012-.404-.635-.785-.93-.846-.655m-1.272 19.719c-.955 5.776-.775 8.018.688 8.579 1.032.396 1.292-.83 1.147-5.412-.222-7.071-.975-8.37-1.835-3.167m29.368.531c.011 2.21.292 2.814.878 1.889.786-1.241.4-5.139-.51-5.139-.21 0-.376 1.463-.368 3.25m3.577-.398c-.29.468-.429 3.088-.309 5.821.153 3.501-.269 5.455-1.426 6.612-1.523 1.524-1.76 1.41-3.265-1.571l-1.623-3.214.265 4.493c.224 3.789.696 4.697 3.016 5.804 2.244 1.071 2.762 1.992 2.813 5.008.057 3.323.158 3.459 1.002 1.353.517-1.289.686-2.751.378-3.25-.309-.5.11-.908.93-.908 1.047 0 1.383.817 1.128 2.75-.2 1.513-.394 3.055-.432 3.429-.038.373-.684 1.293-1.436 2.045-.859.859-1.825 6.175-2.603 14.321-1.593 16.695-1.539 16.297-2.343 17.101-1.076 1.076-.805 4.836.438 6.079.833.833 1.87.309 4-2.023 1.581-1.731 2.875-3.921 2.875-4.866 0-.945.501-2.028 1.113-2.406.692-.427.943-2.738.664-6.101-.247-2.978-.125-5.614.27-5.858.395-.244.483-3.488.196-7.208-.689-8.904-.455-14.692.607-15.046 1.532-.511-.012-5.216-1.717-5.232-1.303-.013-1.358-.19-.27-.879.875-.554.971-.997.27-1.235-.601-.204-1.338-2.846-1.636-5.871-.299-3.025-.645-6.513-.77-7.75-.232-2.297-1.191-2.926-2.135-1.398m-241.591 5.648c-.157 3.3-.41 7.523-.562 9.384-.151 1.861.077 4.336.508 5.5 1.407 3.8 2.038-3.013 1.148-12.384l-.808-8.5-.286 6m247.099 1.75c.055.688.46 2.375.9 3.75.715 2.231.811 2.097.9-1.25.055-2.062-.35-3.75-.9-3.75s-.955.563-.9 1.25m-26.1 17.691c0 1.068.45 2.219 1 2.559.567.351 1-.49 1-1.941 0-1.407-.45-2.559-1-2.559s-1 .873-1 1.941m-220.73 5.809c.299 1.237.135 2.25-.364 2.25-.498 0-.906.675-.906 1.5s.45 1.5 1 1.5 1 .927 1 2.059c0 1.132.433 1.791.962 1.464 1.279-.79.465-8.52-1.045-9.92-.901-.836-1.058-.558-.647 1.147m215.342-.643c-1.182 3.792-1.303 5.829-.362 6.143.699.233.667 1.037-.098 2.466-1.33 2.484-.397 8.535 1.231 7.985.614-.208 1.117-1.31 1.117-2.449 0-1.139.306-2.381.681-2.759.375-.379.503-1.207.284-1.841-.218-.633-.603-3.106-.856-5.493-.493-4.665-1.296-6.296-1.997-4.052m-250.091 12.538c.822 4.867 3.721 12.346 4.788 12.351.445.002.602-.334.349-.746s-.736-2.325-1.074-4.25c-1.353-7.724-2.194-10.37-3.425-10.78-.974-.325-1.13.511-.638 3.425m6.511-.954c-.018 1.755.362 3.434.843 3.732.481.297.875 1.65.875 3.005 0 2.216 2.215 5.572 3.679 5.572 1.313 0 .435-2.987-1.179-4.008-1.253-.794-1.395-1.257-.5-1.633.688-.289 1.25-.965 1.25-1.501 0-.537-.45-.698-1-.358-.559.346-1-.426-1-1.75 0-1.302-.661-3.241-1.468-4.309-1.391-1.838-1.47-1.772-1.5 1.25m37.968 1.75c0 .793.45 1.719 1 2.059.55.34 1-.309 1-1.441 0-1.132-.45-2.059-1-2.059s-1 .648-1 1.441" fill-rule="evenodd"/></svg>