<svg xmlns="http://www.w3.org/2000/svg" width="1240" height="1753"><path d="M681 1163.044c-4.125.413-18.075.765-31 .782-30.811.041-31.986.06-35.5.587-1.65.247-5.538.48-8.639.518-4.705.058-5.616.355-5.5 1.796.11 1.368-1.001 1.871-5.351 2.42-3.781.477-5.723.329-6.235-.477-.67-1.053-1.159-.261-.922 1.493.112.835-23.637 1.089-24.968.266-.614-.38-.52-1.164.252-2.094.99-1.192.95-1.669-.201-2.401-.79-.502-1.908-.741-2.485-.532-.578.21-4.178.05-8-.355-3.823-.405-7.851-.387-8.951.039-1.1.427-3.237 1.04-4.75 1.364-1.513.323-2.75 1.255-2.75 2.069 0 .859-.945 1.496-2.25 1.516-1.237.02-5.484.287-9.437.594-5.77.448-7.773.212-10.157-1.196-1.708-1.009-2.752-2.323-2.456-3.094.386-1.006-.819-1.377-4.843-1.491-6.772-.193-7.096-.237-8.607-1.183-.687-.431-1.25-.381-1.25.109 0 .491-1.238.934-2.75.983-14.202.47-47.317 3.208-48.876 4.043-1.089.582-4.796 1.307-8.239 1.609-7.033.618-8.135 1.055-8.135 3.227 0 .835-1.365 2.883-3.033 4.55-1.968 1.969-2.835 3.656-2.469 4.807.403 1.271-.095 1.94-1.753 2.356-1.274.32-2.401 1.385-2.505 2.366-.104.982-.435 5.61-.736 10.285-.3 4.675-1.243 10.275-2.094 12.444-1.118 2.847-1.63 8.47-1.84 20.229-.178 9.933-.72 16.803-1.39 17.61-.604.728-1.768 7.698-2.587 15.488-.818 7.79-1.927 14.984-2.463 15.985-1.696 3.17-5.188 18.584-5.038 22.237.257 6.213-1.163 32.319-2.093 38.507-3.479 23.129-3.453 21.738-.523 28.267 2.362 5.264 2.556 6.453 1.611 9.859-2.383 8.581-.016 24.116 4.141 27.181 1.976 1.457 2.403 5.816.629 6.407-.851.284-.856.919-.022 2.478.617 1.153 1.772 6.082 2.566 10.952.794 4.871 1.786 9.756 2.204 10.856 1.664 4.379 5.156 7.853 10.395 10.342 5.341 2.538 6.034 2.611 24.021 2.526 10.186-.047 25.936-.597 35-1.223 9.063-.625 21.292-1.288 27.175-1.474 12.327-.39 12.021-1.13 4.016 9.734-2.591 3.517-5.489 7.677-6.439 9.245-.95 1.567-3.302 4.875-5.226 7.35-1.925 2.475-5.006 6.75-6.849 9.5-5.602 8.362-6.64 9.847-9.78 14-1.664 2.2-5.485 7.6-8.492 12-3.007 4.4-7.482 10.919-9.946 14.486-4.898 7.092-5.237 8.014-2.945 8.014 1.226 0 1.319.403.464 2.002-1.111 2.075-10.49 13.877-15.893 19.998-1.7 1.925-4.39 5.975-5.979 9-1.588 3.025-4.954 8.578-7.479 12.34-7.765 11.568-7.374 17.549 1.733 26.543 4.559 4.502 6.079 5.406 9.285 5.525 2.109.078 4.482.548 5.275 1.044.933.584 1.579.487 1.833-.275.216-.647 1.016-1.177 1.778-1.177.825 0 1.151.611.805 1.511-.414 1.079-.121 1.336 1.023.897.975-.375 1.844.013 2.219.988.338.882 1.467 1.604 2.508 1.604s1.893.563 1.894 1.25c0 .688 1.213 1.32 2.695 1.406 1.481.086 3.251.919 3.932 1.85.727.995 1.75 1.379 2.475.93.88-.543 1.039-.247.55 1.026-.648 1.69-.546 1.698 1.83.141 2.126-1.393 2.517-1.421 2.517-.185 0 .805-.457 1.747-1.016 2.092-.559.346-.795.986-.525 1.424.696 1.127 5.927.409 6.353-.871.698-2.094 3.011-1.009 4.02 1.885.839 2.408 1.544 2.911 3.847 2.75 2.236-.157 2.885.268 3.14 2.052.176 1.237.851 2.257 1.501 2.265.775.01.714.311-.177.875-.871.553-.986 1.089-.322 1.5.569.351 1.31-.226 1.645-1.283.815-2.567 3.708-3.589 5.033-1.778.578.791 1.94 1.619 3.026 1.841 1.197.244 1.861 1.071 1.685 2.1-.202 1.181.185 1.516 1.271 1.099.941-.361 2.601.44 4.177 2.016 1.438 1.438 3.228 2.615 3.978 2.615.802 0 1.397 1.133 1.443 2.75.043 1.513.29 2.235.548 1.606.65-1.585 4.373-.454 4.373 1.328 0 .996.627 1.252 2 .816 1.419-.45 2-.18 2 .933 0 .862.52 1.567 1.155 1.567.655 0 .371.866-.655 2-1.918 2.119-.742 2.842 1.3.8 1.18-1.18 1.32-1.051 1.58 1.45.075.725 1.192 1.127 2.657.957 2.453-.284 6.963 3.453 6.963 5.769 0 .529.727.682 1.615.341 1.27-.487 1.476-.178.96 1.448-.361 1.136-.208 2.344.341 2.683.548.339.743 1.277.433 2.084-.408 1.064.17 1.468 2.103 1.468 1.597 0 2.407.418 2.021 1.044-1.189 1.924 1.713 3.956 5.649 3.956 2.78 0 3.878.425 3.878 1.5 0 .825.689 1.5 1.531 1.5.843 0 1.768.616 2.057 1.368.289.753 2.784 2.832 5.545 4.621 2.761 1.789 5.504 4.315 6.095 5.613.968 2.124 3.553 3.741 6.272 3.924 2.065.14 5.5 3.017 5.5 4.608 0 1.799 1.964 2.866 5.278 2.866 3.424 0 9.945 5.04 9.369 7.242-.356 1.36-.031 1.776 1.181 1.516.92-.197 2.752.773 4.072 2.155 2.373 2.486 3.464 2.954 7.849 3.373 1.237.117 2.257.664 2.266 1.214.01.662.264.66.75-.006.404-.553 2.535-2.33 4.735-3.949 7.32-5.387 17.613-15.857 16.354-16.635-.676-.418-1.927.192-2.931 1.43-.963 1.188-2.03 1.882-2.371 1.543-.673-.671 5.973-9.592 10.665-14.315 2.666-2.684 7.178-10.506 6.469-11.215-.165-.165-2.299 2.057-4.743 4.937-2.444 2.88-6.87 7.481-9.835 10.223-5.35 4.948-5.379 4.959-3.601 1.487.985-1.925 2.58-4.058 3.545-4.739 2.383-1.683 9.948-13.795 9.948-15.928 0-1.515-.165-1.489-1.418.224-2.098 2.87-2.819 1.254-1.184-2.653 1.639-3.919 10.602-13.817 10.602-11.709 0 .773-.337 1.855-.75 2.406-.413.55.932-.82 2.988-3.044 2.055-2.225 3.63-4.66 3.5-5.411-.271-1.553 8.937-9.805 9.884-8.858 1.26 1.261-.733 5.669-4.867 10.764-8.891 10.96-12.313 16.41-12.524 19.948l-.208 3.5 2.048-2.5c1.126-1.375 5.396-5.988 9.488-10.251 4.093-4.262 7.441-8.386 7.441-9.164 0-.777 1.575-3.035 3.5-5.017 1.925-1.983 3.5-4.261 3.5-5.063 0-.802 1.013-2.126 2.25-2.942 2.283-1.504 10.213-11.009 10.294-12.338.117-1.911 6.694-11.025 9.401-13.026 1.68-1.243 3.055-2.736 3.055-3.32 0-.584 1.575-2.901 3.5-5.15 1.925-2.249 3.5-4.683 3.5-5.409s.405-1.32.899-1.32c.495 0 1.833-1.792 2.974-3.982 1.142-2.19 5.451-8.152 9.577-13.25 15.875-19.616 34.573-44.018 41.581-54.268 6.243-9.13 16.225-23.249 17.575-24.858.857-1.021 2.157-3.552 2.888-5.624.73-2.071 2.943-6.014 4.917-8.762 1.974-2.747 3.589-5.395 3.589-5.884 0-.489 2.587-4.77 5.75-9.512 3.163-4.743 8.61-13.15 12.107-18.683 3.496-5.533 7.208-10.831 8.25-11.773 1.041-.943 1.897-2.207 1.903-2.809.015-1.717 6.792-9.812 9.233-11.029 1.432-.714 2.681-2.835 3.582-6.081 1.305-4.706 4.511-9.485 6.363-9.485.461 0 .158 1.63-.675 3.622-1.674 4.007-2.032 8.817-.589 7.925 1.642-1.015 4.243-10.432 4.227-15.306-.016-4.927.243-5.436 12.352-24.241 2.301-3.575 5.043-8.062 6.091-9.97 1.048-1.909 2.263-3.934 2.699-4.5 2.496-3.243 14.689-22.154 14.697-22.795.009-.713 4.873-8.635 9.21-15.002 4.059-5.958 14.577-26.421 15.284-29.733.411-1.925 1.329-4.625 2.04-6 2.325-4.494 3.8-13.905 2.436-15.548-.663-.799-.837-1.452-.386-1.452.45 0-.708-1.575-2.574-3.5-1.866-1.925-3.873-3.5-4.461-3.5-.588 0-2.637-.831-4.554-1.847-1.917-1.015-4.61-2.139-5.985-2.497-1.375-.359-6.1-3.826-10.5-7.705-10.301-9.083-14.792-12.172-27.381-18.838-1.44-.762-5.613-4.25-9.272-7.75-3.659-3.499-7.114-6.363-7.679-6.363-.564 0-2.696-1.575-4.737-3.5s-4.516-3.5-5.499-3.5c-.984 0-2.395-.562-3.135-1.25-2.153-2-10.781-7.75-11.629-7.75-.426 0-2.55-1.291-4.721-2.87-2.171-1.578-6.958-4.482-10.637-6.454-9.362-5.016-11.101-6.013-12.81-7.346-3.072-2.395-14.427-8.429-22.213-11.803-4.425-1.917-9.59-4.665-11.479-6.106-4.808-3.667-14.879-7.513-20.808-7.946-5.941-.435-9.443-.972-15.5-2.38-5.013-1.165-14.681-1.184-26-.051m-39.523 9.993c-.429.694 1.119.836 4.679.429 6.973-.797 7.461-1.466 1.07-1.466-2.81 0-5.396.467-5.749 1.037M800.75 1396.53c-2.489 3.337-2.234 5.399.347 2.817 1.154-1.153 1.941-2.787 1.75-3.631-.27-1.194-.734-1.014-2.097.814m-5.115 7.904c-.899 1.372-1.635 2.906-1.635 3.408 0 .502-.7 1.494-1.555 2.203-.855.71-1.99 2.105-2.523 3.1-.766 1.433-.651 1.688.555 1.226.838-.322 1.523-.955 1.523-1.407 0-.451.563-1.424 1.25-2.161 1.884-2.019 5.009-7.877 4.483-8.403-.254-.255-1.198.661-2.098 2.034m32.98 25.031c-2.066 3.153-2.197 5.263-.226 3.627 1.148-.952 2.908-6.092 2.087-6.092-.135 0-.973 1.109-1.861 2.465m-51.084 1.828c-.428.986-.497 2.074-.155 2.417 1.016 1.015 1.835-.411 1.367-2.382-.414-1.747-.468-1.748-1.212-.035m42.138 20.308c-1.394 1.503-3.342 4.233-4.329 6.066-.987 1.833-2.169 3.333-2.626 3.333-.458 0-.554.45-.214 1 .34.55.214 1-.28 1s-3.541 3.713-6.771 8.25-7.43 10.191-9.333 12.563c-1.903 2.371-3.57 5.296-3.704 6.5l-.329 2.934c-.045.411-1.77 2.638-3.833 4.949-2.472 2.77-2.898 3.571-1.25 2.35 3.728-2.761 16.077-19.477 20-27.073 1.375-2.662 3.084-5.545 3.799-6.406.714-.862 3.771-5.11 6.794-9.439 5.621-8.053 6.606-10.912 2.076-6.027M708.65 1593c-1.944 3.898-.665 3.892 1.553-.006.937-1.647 1.308-2.994.824-2.994-.484 0-1.554 1.35-2.377 3m-11.213 22.125c-2.056 2.188-2.307 2.743-.835 1.852 1.816-1.1 5.005-4.977 4.094-4.977-.177 0-1.644 1.406-3.259 3.125m-23.061 27.125c-4.322 4.487-17.948 20.169-20.203 23.25-5.363 7.328-7.412 10.595-6.939 11.067.314.314 1.852-1.076 3.418-3.089 1.567-2.012 5.431-6.782 8.589-10.599 3.157-3.817 7.535-9.288 9.728-12.159 2.193-2.871 5.63-7.132 7.638-9.47 5.028-5.852 3.866-5.331-2.231 1" fill-rule="evenodd"/></svg>