<svg xmlns="http://www.w3.org/2000/svg" width="595" height="842"><path d="M300 374.682c-3.025.166-33.4.448-67.5.624-34.1.177-66.275.646-71.5 1.042-5.225.396-11.885.785-14.801.864-2.916.079-5.53.514-5.809.966-.279.452-1.381.822-2.449.822-1.068 0-1.941.45-1.941 1s-.623 1-1.383 1c-1.591 0-2.705 3.24-1.682 4.895.885 1.432 20.637.552 23.781-1.06 2.642-1.355 5.284.289 5.284 3.287 0 1.033.505 1.878 1.122 1.878.776 0 .738.464-.122 1.5-.685.825-.852 1.532-.372 1.57.479.039-.028.457-1.128.93-2.684 1.153-9.454 1.257-7.655.117 2.106-1.335-3.296-2.322-8.463-1.547-4.455.668-7.026 2.392-3.691 2.475 1.189.03.78.496-1.191 1.361-1.65.724-3.288 1.157-3.64.964-1.409-.775-1.862 6.889-.761 12.865.992 5.38.933 6.802-.384 9.349-1.38 2.668-2.452 9.821-3.061 20.416-.111 1.925-.544 4.044-.962 4.71-.418.665-.672 2.69-.565 4.5.108 1.809-.142 4.773-.555 6.587-.633 2.776-.342 3.705 1.838 5.886 2.829 2.828 3.282 4.299 1.34 4.349-2.526.064 2.525 2.839 6.342 3.484 2.178.367 3.908 1.23 3.908 1.947 0 1.358 4.267 2.537 9.184 2.537 1.93 0 2.695.388 2.234 1.132-.694 1.124-13.053.604-18.168-.764-2.938-.785-2.938 1.186 0 2.094 1.238.382 7.852 1.04 14.699 1.462 7.894.487 12.589 1.19 12.833 1.922.212.635 1.36 1.207 2.551 1.272 1.614.088 1.402.297-.833.818-6.528 1.523 97.005 3.977 196 4.645 85.263.575 107.457.069 108.299-2.471.367-1.106-.591-1.288-4.699-.894-4.848.466-7.645-.427-4.856-1.552.691-.278-5.044-.573-12.744-.655-7.7-.082-14.9-.526-16-.987-1.179-.493 2.517-.69 9-.481 13.968.452 20.5-.284 20.5-2.309 0-1.23-.966-1.394-5.25-.891-2.887.339-6.955.339-9.039 0l-3.789-.615 2.82-1.715c1.551-.944 4.269-1.629 6.039-1.524 1.771.105 3.219-.213 3.219-.707s.457-.615 1.016-.27c1.941 1.199 5.859 1.5 6.479.498.343-.554 1.721-1.008 3.064-1.008 2.567 0 3.325-1.447 1.187-2.267-.69-.265-4.022-.426-7.405-.357-3.382.068-5.942-.213-5.687-.626.255-.413 1.547-.75 2.87-.75 1.344 0 2.857-.843 3.428-1.91.694-1.298 1.695-1.734 3.121-1.361 1.756.46 2.045.158 1.763-1.84-.256-1.823.18-2.462 1.841-2.699 1.198-.171 2.748-.997 3.445-1.837 1.667-2.009 2.276-17.169.762-18.993-.831-1.002-.833-1.36-.006-1.36 1.526 0 1.459-9.263-.078-10.8-.81-.81-.843-1.2-.101-1.2.626 0 1.4-3.009 1.801-7.004.387-3.852 1.108-7.254 1.602-7.559.494-.305.898-1.892.898-3.526 0-2.704-.653-3.283-7.25-6.432-3.988-1.902-6.301-3.229-5.141-2.947 2.413.587 5.391-.318 5.391-1.639 0-.491-1.069-.893-2.375-.893-5.165 0-8.625-1.23-8.625-3.066 0-2.592-1.752-3.325-3.579-1.498-.86.86-2.094 1.61-2.742 1.665-.649.056-2.979.27-5.179.475-2.476.231-4.381-.117-5-.913-.55-.708-1.788-1.582-2.75-1.944-.962-.361-1.75-1.087-1.75-1.614 0-.527.788-1.164 1.75-1.416 1.077-.281.692-.502-1-.573-1.726-.073-2.75-.674-2.75-1.616 0-1.6-3.515-2.094-4.425-.621-.299.484-1.451 1.117-2.561 1.407-1.109.29-1.788.157-1.508-.295.906-1.467-9.334-2.989-20.805-3.091-6.161-.055-12.326-.46-13.701-.9-2.398-.768-2.409-.805-.25-.9 1.238-.055 2.25-.519 2.25-1.03 0-.512-1.012-1.126-2.25-1.364-1.238-.239 1.238-.495 5.5-.57 4.262-.075 7.75-.519 7.75-.988 0-.468-3.712-1.141-8.25-1.494-7.936-.618-85.453-.596-96.75.028M143.75 468.22c1.238.597 2.25 1.467 2.25 1.933 0 .466 1.605.847 3.566.847 1.961 0 4.474.486 5.585 1.081 2.358 1.262 2.367 1.256 3.227-2.331l.66-2.75-8.769.068c-7.053.054-8.329.28-6.519 1.152" fill-rule="evenodd"/></svg>