<svg xmlns="http://www.w3.org/2000/svg" width="1240" height="1753"><path d="M570 20.164c-6.317 1.326-22.695 4.186-39 6.809-15.65 2.518-25.736 4.686-28.236 6.067-.955.528-2.616.96-3.691.96-1.075 0-2.197.392-2.493.871-.296.479-1.916 1.146-3.6 1.483-2.616.523-3.019 1.007-2.77 3.328.288 2.698.246 2.717-6.71 3.018-3.85.167-7.675.581-8.5.921-.825.34-2.794.741-4.375.892-1.582.151-3.262.885-3.735 1.631-.557.878-.865.943-.875.183-.029-2.238-21.367 4.859-33.434 11.12-2.706 1.404-5.44 2.553-6.076 2.553-.636 0-2.191 1.102-3.456 2.448-1.265 1.347-3.51 2.714-4.988 3.039-1.479.324-4.841 2.566-7.472 4.982-2.631 2.415-5.302 4.666-5.936 5.001-5.565 2.939-16.487 11.379-21.716 16.78-1.996 2.062-4.374 3.75-5.283 3.75-.91 0-1.654.45-1.654 1s-.465 1-1.032 1c-.943 0-14.127 8.624-22.523 14.733-1.798 1.308-4.82 3.25-7.852 5.046-1.598.946-3.712 2.485-4.696 3.418-.985.933-3.052 2.39-4.594 3.238-1.542.848-4.475 3.043-6.519 4.879-3.437 3.088-3.607 3.494-2.266 5.408 1.33 1.899 1.224 2.22-1.284 3.896-1.504 1.005-3.071 1.727-3.484 1.604-.413-.122-.75.178-.75.667 0 .488-1.618 1.192-3.596 1.563-1.992.374-4.875 1.984-6.466 3.611-1.579 1.615-3.512 2.937-4.296 2.937-.784 0-3.685 2.031-6.446 4.514-3.297 2.964-5.196 4.08-5.532 3.25-.314-.777-4.107 2.292-9.838 7.959-5.129 5.072-13.376 12.917-18.326 17.432-4.95 4.515-9.323 9.028-9.718 10.027-.395 1-1.172 1.818-1.727 1.818-1.052 0-5.738 5.774-12.555 15.47-2.2 3.129-5.681 7.566-7.736 9.86-2.055 2.293-3.742 4.504-3.75 4.911-.008.408-1.589 2.805-3.514 5.327-1.925 2.522-3.5 4.996-3.5 5.499 0 .502-2.014 3.855-4.476 7.451-2.461 3.595-7.102 11.812-10.312 18.259-6.151 12.353-7.998 15.773-9.839 18.223-.62.825-3.71 6.45-6.867 12.5-3.156 6.05-6.011 11.45-6.344 12-.333.55-.686 1.528-.784 2.174-.098.646-2.207 5.455-4.685 10.687-2.479 5.232-4.825 11.004-5.215 12.826-.39 1.822-1.134 3.842-1.654 4.488-.519.646-1.083 2.221-1.252 3.5-.304 2.297-.665 3.456-2.904 9.325-.63 1.65-1.181 3.225-1.226 3.5-.045.275-.599 2.3-1.231 4.5-.633 2.2-1.323 4.9-1.535 6-.211 1.1-1.141 3.712-2.066 5.805-1.552 3.509-3.768 12.864-3.433 14.494.079.386-.819 2.726-1.995 5.201-1.176 2.475-2.148 5.422-2.16 6.55-.012 1.127-.436 2.477-.942 3-.506.522-1.6 3.425-2.433 6.45-1.823 6.627-4.11 13.101-6.535 18.5-.989 2.2-3.04 7.825-4.56 12.5-1.519 4.675-3.838 10.975-5.151 14-1.314 3.025-2.619 6.625-2.9 8-1.295 6.341-5.808 23.668-6.543 25.127-.452.895-1.127 3.37-1.501 5.5-.373 2.13-1.477 7.023-2.452 10.873-.975 3.85-1.782 7.675-1.792 8.5-.011.825-.699 4.425-1.529 8-1.791 7.713-4.78 27.655-4.571 30.5.23 3.13-2.065 19.289-3.803 26.785-.866 3.731-1.315 7.043-.999 7.359.315.316-.352 2.888-1.483 5.715-1.213 3.033-2.132 7.814-2.24 11.659-.101 3.585-.445 6.96-.765 7.5-.319.54-.878 4.221-1.242 8.18-.363 3.959-1.31 11.159-2.103 16-.794 4.841-1.451 10.685-1.461 12.987-.009 2.302-.503 5.452-1.098 7-.595 1.548-1.109 6.415-1.143 10.815-.034 4.4-.443 8.751-.91 9.668-.467.917-1.086 6.412-1.376 12.211-.29 5.798-1.062 12.923-1.717 15.832-.654 2.909-1.102 8.664-.994 12.789.108 4.125.112 10.2.008 13.5-.103 3.3-.21 9.825-.238 14.5-.033 5.671-.476 8.836-1.331 9.51-3.051 2.404-4.262 12.069-4.287 34.206-.013 11.981-.005 22.459.018 23.284.022.825-.169 3.75-.426 6.5-1.141 12.226-1.229 18.872-.416 31.5.477 7.425 1.278 15.075 1.78 17 .501 1.925 1.45 5.525 2.109 8 .659 2.475 1.174 5.723 1.144 7.217-.03 1.495.376 2.984.903 3.309.526.326.957 1.859.957 3.407 0 1.549.659 4.684 1.465 6.968 1.083 3.07 1.199 4.853.445 6.837-.562 1.476-.718 3.826-.348 5.223.37 1.396.803 5.239.962 8.539.349 7.232 1.496 18.717 1.943 19.462.178.296.633 7.763 1.011 16.594l.688 16.055-2.937 3.144c-2.606 2.79-3.094 4.359-4.333 13.944-.908 7.025-1.221 15.81-.896 25.127.275 7.88.225 15.08-.111 16-1.133 3.101-1.754 16.14-.796 16.731.517.32.595 1.113.173 1.762-.421.65-1.057 6.356-1.413 12.681-.357 6.325-1.186 15.1-1.843 19.5-1.332 8.917-.595 55.142 1.015 63.629.505 2.667.55 5.845.099 7.064-.451 1.219-.464 3.812-.029 5.762.435 1.95 1.061 8.007 1.391 13.46.33 5.453.772 10.194.983 10.535.211.342 1.117 6.455 2.012 13.585.896 7.131 2.279 16.209 3.074 20.173.795 3.964 1.445 8.927 1.445 11.027 0 2.101.642 4.737 1.427 5.858.785 1.121 1.663 4.583 1.95 7.695.288 3.111.984 6.519 1.549 7.573.564 1.055 1.244 4.105 1.51 6.778.266 2.674 2.025 9.586 3.909 15.361s3.737 12.975 4.118 16c.381 3.025 1.535 8.425 2.565 12 1.03 3.575 2.609 10.1 3.508 14.5s2.046 9.305 2.549 10.899c.503 1.595.935 4.07.959 5.5.024 1.431.718 4.401 1.543 6.601.824 2.2 1.726 5.082 2.003 6.405.278 1.322.915 3.171 1.417 4.108.501.936 1.016 3.454 1.143 5.595.128 2.141.822 5.343 1.544 7.117.721 1.773 1.505 4.732 1.741 6.575.822 6.426 10.248 36.296 15.998 50.7 2.422 6.066 2.889 7.479 2.726 8.248-.087.412 1.143 3.562 2.734 7 1.59 3.439 4.584 10.077 6.653 14.752 2.069 4.675 6.311 12.55 9.427 17.5 3.116 4.95 7.394 11.925 9.507 15.5 3.567 6.036 9.52 13.214 9.52 11.479 0-.417 1.125.9 2.5 2.926 1.375 2.026 2.5 3.908 2.5 4.182 0 1.187 8.161 11.261 12.145 14.992 5.922 5.546 12.528 10.528 13.53 10.204 1.543-.5 4.825 2.709 4.825 4.717 0 1.264.624 1.952 1.693 1.871 1.036-.08 2.351 1.279 3.388 3.5.932 1.996 4.22 6.46 7.307 9.921 3.086 3.46 6.865 7.936 8.397 9.947 1.532 2.011 6.932 8.091 12 13.513 5.068 5.422 9.215 10.319 9.215 10.883 0 .565.787 1.602 1.75 2.306.962.704 1.75 1.615 1.75 2.026 0 .411 2.145 2.836 4.766 5.39s9.158 10.055 14.526 16.669c5.368 6.614 10.649 12.58 11.734 13.258 1.086.678 1.974 1.679 1.974 2.223 0 1.34 8.643 10.559 25.722 27.438 22.395 22.131 33.395 32.555 34.356 32.555.488 0 2.133 1.106 3.655 2.459 7.295 6.482 17.01 12.917 26.305 17.423 6.19 3.001 8.685 4.517 11.581 7.034 1.373 1.195 4.158 2.939 6.189 3.878 2.031.938 4.564 2.493 5.631 3.456 1.066.963 2.528 1.75 3.25 1.75.721 0 1.311.4 1.311.889 0 .488 1.575 1.184 3.5 1.545s3.5 1.028 3.5 1.481c0 .454 2.137 1.417 4.75 2.141 2.612.723 7.225 2.445 10.25 3.826 4.066 1.855 7.586 2.593 13.5 2.829 4.4.175 12.725 1.455 18.5 2.843 19.533 4.696 31.842 6.635 44.5 7.011 4.95.148 12.114.992 15.919 1.876 5.096 1.185 11.818 1.596 25.5 1.56 31.364-.082 56.905-1.029 70.081-2.597 3.025-.36 12.475-.493 21-.296 26.88.621 31.633.404 57.5-2.619 12.583-1.47 29.993-4.774 37.428-7.102 2.436-.763 5.46-1.387 6.722-1.387 1.261 0 4.75-1.087 7.754-2.415 3.003-1.328 8.038-2.95 11.188-3.604 3.151-.654 7.718-2.042 10.151-3.085 2.432-1.043 5.222-1.896 6.199-1.896.977 0 4.427-1.344 7.667-2.987s6.522-2.993 7.294-3c2.719-.025 24.741-9.317 36.597-15.442 6.6-3.41 14.925-7.707 18.5-9.548a4892.381 4892.381 0 0 0 14-7.238c3.402-1.762 11.922-8.942 18.433-15.535 1.765-1.787 3.763-3.25 4.44-3.25.677 0 1.702-1.35 2.277-3 .575-1.65 1.617-3 2.315-3 1.373 0 10.535-9.765 10.535-11.228 0-.49.377-.657.837-.373 1.195.739 5.311-2.35 4.621-3.467-.317-.513.152-.932 1.042-.932s1.34-.45 1-1c-.34-.55.11-1 1-1 1.011 0 1.348-.469.899-1.25-.396-.687-.35-.915.103-.505.452.41 2.211-.313 3.91-1.606 1.698-1.293 4.213-2.7 5.588-3.126 1.375-.427 3.694-1.616 5.154-2.644s4.246-1.869 6.191-1.869c1.945 0 3.794-.416 4.108-.924.314-.507 2.802-1.664 5.529-2.57 4.811-1.598 22.26-13.061 24.752-16.261.679-.871 2.268-2.296 3.53-3.165 3.437-2.366 23.744-24.003 24.891-26.521.548-1.204 2.028-2.834 3.288-3.623 4.261-2.669 20.557-23.014 20.557-25.664 0-.413 1.127-1.88 2.504-3.261 3.724-3.734 13.066-16.305 16.554-22.276 1.682-2.879 4.886-8.145 7.12-11.701 2.234-3.556 4.133-6.945 4.219-7.532.086-.586 1.13-2.434 2.321-4.106 2.784-3.91 13.282-25.273 13.282-27.029 0-.735 1.37-3.564 3.044-6.285 1.675-2.721 3.22-5.766 3.434-6.765.214-.999 1.318-3.6 2.455-5.778 1.137-2.179 2.067-4.937 2.067-6.128 0-1.191.646-2.702 1.436-3.358.789-.655 1.741-2.623 2.115-4.372.374-1.75 1.034-3.631 1.466-4.181.433-.55 2.238-5.725 4.012-11.5 1.775-5.775 3.646-11.029 4.16-11.676.513-.647.834-1.772.714-2.5s.064-1.999.409-2.824c.344-.825.796-2.625 1.004-4 .207-1.375.635-3.175.95-4 1.741-4.548 5.734-18.9 5.734-20.607 0-1.096.425-2.42.943-2.943.899-.905 4.481-14.382 9.025-33.95 1.943-8.37 4.488-22.317 5.564-30.5.254-1.925.887-6.425 1.407-10 .521-3.575.952-7.85.958-9.5.006-1.65.444-5.243.972-7.984.528-2.741.765-5.299.527-5.685-.239-.385.01-2.679.551-5.096.949-4.232 1.589-14.71 2.573-42.065.253-7.057.627-13.132.83-13.5.202-.369.423-4.186.489-8.483.066-4.297.467-8.347.889-9 1.166-1.802 1.285-8.632 1.713-98.687.226-47.738.882-90.353 1.531-99.5.937-13.197 3.749-35.593 5.513-43.891.305-1.438-.407-1.107-2.976 1.383-2.904 2.814-3.474 4.168-4.06 9.641-.445 4.154-1.127 6.367-1.963 6.367-.754 0-1.241-1.131-1.184-2.75.263-7.431-.325-10.443-2.128-10.915-1.005-.263-2.61-1.803-3.567-3.424-.958-1.62-2.048-2.756-2.424-2.524-.701.433-.75-2.124-.391-20.566.163-8.379.562-11.032 1.853-12.323 1.227-1.227 1.835-1.339 2.391-.44.517.837 1.247.44 2.387-1.301 1.32-2.014 1.587-4.635 1.36-13.361l-.283-10.855 2.5-.021 2.5-.02-.323-10.5c-.178-5.775-.778-14.325-1.332-19-.555-4.675-1.237-12.1-1.514-16.5-.433-6.849-.848-8.289-2.884-10.01-2.168-1.832-2.424-2.984-2.89-13-.925-19.853-1.583-28.892-2.612-35.909-.628-4.276-.658-7.141-.08-7.5.515-.32.769-2.606.565-5.081-.203-2.475-.593-12.713-.866-22.752-.282-10.39-.971-19.14-1.599-20.314-.82-1.531-.796-2.433.094-3.505.844-1.017.969-3.287.422-7.686-.923-7.424-1.425-16.309-1.54-27.243-.046-4.4-.918-14.046-1.939-21.436-1.835-13.287-1.834-13.463.112-15.936 1.773-2.254 1.913-3.591 1.42-13.564-.614-12.435-1.108-15.748-2.994-20.064-.721-1.65-1.628-8.85-2.016-15.999-.966-17.797-1.443-22.482-2.489-24.436-.529-.989-.526-4.63.009-8.888.72-5.73.526-9.212-.941-16.945-1.015-5.352-2.384-12.882-3.042-16.732-.658-3.85-2.029-10.825-3.048-15.5-1.019-4.675-2.146-10.525-2.504-13-.987-6.817-5.406-25.268-6.523-27.236-.542-.955-.986-2.882-.986-4.282s-.855-5.118-1.901-8.264c-1.046-3.145-2.424-8.418-3.062-11.718-1.613-8.33-9.232-34.691-11.706-40.5-.351-.825-.824-2.62-1.051-3.988-.227-1.369-1.022-3.844-1.767-5.5-.745-1.657-1.632-4.137-1.972-5.512-.971-3.927-4.756-16.289-5.664-18.5-.452-1.1-1.768-4.475-2.925-7.5-4.371-11.434-18.868-39.139-20.82-39.789-.623-.208-1.132-.761-1.132-1.229 0-1.279-1.81-5.155-3.765-8.063a699.964 699.964 0 0 1-4.925-7.5c-3.224-4.971-6.875-9.834-8.93-11.894-.617-.617-1.895-2.62-2.841-4.449-.946-1.829-3.742-5.857-6.213-8.951a3180.82 3180.82 0 0 1-5.679-7.125c-.652-.825-2.259-3.24-3.57-5.367-1.312-2.127-4.115-5.867-6.231-8.311-2.115-2.444-3.846-4.781-3.846-5.194 0-.413-.817-1.628-1.815-2.699-2.175-2.335-12.14-15.543-17.606-23.338a443.926 443.926 0 0 0-8-10.97c-2.244-2.959-4.529-6.069-5.079-6.913-.55-.843-1.675-2.326-2.5-3.296-.825-.971-3.75-4.752-6.5-8.404-2.75-3.653-6.608-8.523-8.573-10.824-1.965-2.301-7.893-9.837-13.173-16.746-10.059-13.162-10.885-14.087-22.835-25.562-6.957-6.682-11.846-10.903-18.579-16.044-1.562-1.192-4.817-3.995-7.233-6.228-6.522-6.029-39.247-28.678-45.028-31.165-2.757-1.187-5.258-2.896-5.557-3.798-.298-.903-5.513-4.791-11.589-8.641-6.075-3.85-11.622-7.521-12.326-8.158-1.716-1.552-11.367-7.54-15.107-9.372-1.65-.809-3.599-2.037-4.331-2.729-.731-.693-1.744-1.004-2.25-.691-.505.312-.919.091-.919-.491S786.299 61 785.442 61c-.856 0-3.444-1.049-5.75-2.332-2.305-1.282-5.654-2.621-7.442-2.975-1.787-.354-5.25-1.554-7.695-2.668-2.445-1.114-4.829-2.025-5.298-2.025-.469 0-3.774-1.496-7.345-3.325-4.824-2.47-8.924-3.651-15.952-4.595-5.203-.699-13.357-2.578-18.12-4.175-4.763-1.598-9.852-2.905-11.309-2.905-1.457 0-2.406-.394-2.108-.875.979-1.584-25.516-7.112-34.224-7.141-2.584-.008-7.399-.667-10.699-1.464-3.3-.797-8.025-1.472-10.5-1.5-2.475-.028-7.2-.721-10.5-1.539-6.405-1.587-44.03-4.48-56.5-4.344-4.125.045-9.525.507-12 1.027m33.832 299.191c-2.018.63-4.005 1.482-4.417 1.895-.412.413-2.334.75-4.271.75-1.938 0-6.026.434-9.084.965-3.058.531-9.671 1.433-14.695 2.003-5.024.571-10.649 1.661-12.5 2.424-1.851.762-5.832 1.718-8.846 2.123-3.076.413-6.807 1.706-8.5 2.944-3.057 2.236-12.992 4.985-14.545 4.025-.887-.548-5.838 1.992-11.867 6.089-1.964 1.335-3.979 2.427-4.477 2.427-.499 0-2.843 1.785-5.209 3.966-2.367 2.181-5.422 4.247-6.791 4.591-1.368.343-4.882 2.836-7.809 5.54-2.927 2.704-5.996 4.862-6.821 4.795-3.095-.252-3.799.212-6.604 4.358-1.581 2.337-5.171 6.552-7.977 9.365-2.806 2.813-5.403 5.738-5.771 6.5-.369.762-1.501 2.735-2.516 4.385-1.347 2.188-1.61 3.64-.971 5.364.69 1.862.573 2.248-.548 1.818-1.374-.528-3.414 1.188-5.133 4.318-.526.958-.036.809 1.354-.411 1.198-1.05 2.5-1.588 2.893-1.195.393.393.201 1.032-.427 1.42-.628.388-1.473 2.052-1.879 3.696-.406 1.645-1.45 4.09-2.322 5.435-.872 1.345-1.447 3.258-1.279 4.25.186 1.1-.304 1.805-1.257 1.805-.86 0-1.563.637-1.563 1.417 0 .779-.519 1.589-1.152 1.8-.634.212-1.219 1.288-1.301 2.393-.191 2.595-4.385 9.39-5.795 9.39-.597 0-.812.273-.479.606.334.334-.316 1.571-1.443 2.75s-2.872 4.029-3.877 6.332c-1.006 2.303-2.773 5.132-3.927 6.286-1.155 1.155-1.873 2.464-1.597 2.911.276.447-.414 1.796-1.534 2.998-1.12 1.202-3.291 5.208-4.824 8.901-3.921 9.446-7.071 16.46-8.181 18.216-.521.825-1.212 2.288-1.536 3.25-.323.962-1.322 1.757-2.221 1.765-1.427.014-1.444.149-.133 1.076 1.135.803 1.194 1.185.244 1.571-.691.28-1.002.92-.691 1.423.311.503.088.915-.494.915s-1.059.675-1.059 1.5-.4 1.5-.889 1.5-.842.563-.785 1.25c.057.688-.472 3.207-1.176 5.6-1.043 3.54-1.64 4.255-3.215 3.843-2.318-.606-2.508.167-.417 1.697 1.351.988 1.327 1.606-.213 5.61-.951 2.475-2.048 4.729-2.436 5.009-.389.28-.855 2.08-1.038 4-.273 2.883-.704 3.453-2.473 3.272-2.259-.231-2.874.871-5.422 9.719-.713 2.475-1.666 4.998-2.119 5.606-.452.608-.994 2.408-1.204 4-.21 1.592-.72 3.794-1.132 4.894-.688 1.835-.636 1.859.634.295.762-.938 2.675-2.184 4.251-2.769 2.852-1.06 2.863-1.049 2.18 2.205-.377 1.798-.796 5.969-.931 9.269-.134 3.3-.931 7.575-1.772 9.5-.84 1.925-2.084 5.975-2.763 9-.68 3.025-1.499 6.175-1.821 7-.323.825-.642 1.725-.711 2-.068.275-.849 2.075-1.734 4-2.016 4.38-5.619 19.171-6.797 27.896-.49 3.632-1.346 9.079-1.904 12.104-2.56 13.902-4.144 29.254-5.157 50-.604 12.375-1.698 26.072-2.431 30.438-.732 4.366-1.167 9.242-.965 10.836.327 2.582-.281 7.449-3.651 29.226-1.041 6.723-5.607 25.035-6.843 27.438-1.562 3.04-2.405 9.695-2.604 20.562-.111 6.05-.532 14.278-.937 18.285-.404 4.007-.844 10.385-.976 14.172-.133 3.788-.698 8.16-1.256 9.715-2.616 7.295-3.504 10.978-4.953 20.538-1.831 12.084-3.17 34.784-2.09 35.447.413.254.75 3.584.75 7.402 0 5.792.274 6.941 1.655 6.941 1.54 0 1.54.127 0 1.829-.91 1.006-1.662 3.368-1.67 5.25-.018 3.863-1.291 6.421-3.199 6.421-.707 0-1.402 1.35-1.544 3-.791 9.209-1.399 11.5-3.053 11.515-1.365.013-1.422.185-.293.899.767.486 1.136 1.56.819 2.387-.42 1.094.341 1.674 2.801 2.136 3.211.602 3.392.866 3.681 5.348l.303 4.715 16.5-15.365c9.075-8.45 19.365-18.125 22.866-21.5 3.501-3.374 6.651-6.15 7-6.168.734-.038 3.4-2.547 23.175-21.805 7.998-7.789 18.108-17.312 22.468-21.162 4.359-3.85 9.066-8.34 10.459-9.978 4.716-5.545 25.527-25.906 26.282-25.713.413.105.75-.446.75-1.225 0-.779 1.8-2.842 4-4.584 2.2-1.742 4-3.805 4-4.584a1.42 1.42 0 0 1 1.415-1.416c.779 0 3.971-2.911 7.095-6.469 3.123-3.557 6.038-6.37 6.478-6.25.439.121 3.659-2.507 7.155-5.839 3.497-3.332 9.957-9.359 14.357-13.394 4.4-4.035 12.894-12.559 18.875-18.942 5.98-6.383 11.184-11.606 11.564-11.606.379 0 4.26-3.603 8.625-8.006 9.394-9.477 17.051-16.494 17.998-16.494.374 0 6.861-5.84 14.415-12.978 7.553-7.138 14.024-12.763 14.378-12.5.355.263.435.193.177-.156-.495-.672 8.118-7.621 8.855-7.145.442.286 4.613-4.675 4.613-5.486 0-.683 30.952-31.753 35.32-35.456 2.101-1.781 9.406-8.535 16.233-15.009 6.828-6.473 12.759-11.786 13.18-11.805 1.795-.083 5.228-2.62 5.007-3.699-.132-.646.323-1.252 1.01-1.346.688-.093 1.7-.226 2.25-.295.55-.069 1-.645 1-1.279 0-1.301 16.007-16.458 17.047-16.143.368.111 1.942-1.126 3.498-2.75 1.556-1.624 3.39-2.953 4.075-2.953s1.528-.891 1.874-1.98c.345-1.089.938-1.896 1.317-1.794 1.011.272 7.567-3.32 8.424-4.616.404-.61.741-.723.75-.249.008.473.9-.202 1.982-1.5l1.966-2.361.034 3.191c.018 1.755-.493 3.516-1.137 3.914-.769.476-.966.192-.575-.828.435-1.132.103-1.422-1.231-1.073-1.004.262-2.038 1.588-2.297 2.945-.354 1.853-.112 2.329.973 1.913.984-.378 1.329.003 1.082 1.192-.247 1.183-1.157 1.664-2.823 1.493-1.826-.188-2.09-.015-1.023.674 1.189.768 1.211 1.197.127 2.503-.719.867-.98 1.576-.579 1.576.4 0 1.613-1.125 2.695-2.5 2.206-2.804 4.135-3.306 3.644-.947-.178.854-.717 1.501-1.199 1.437-.482-.064-1.386.906-2.009 2.154-1.526 3.063-8.837 7.992-10.065 6.788-1.269-1.245-2.55-1.181-2.55.127 0 .582.45.781 1 .441 1.921-1.187.981 2.892-1.25 5.428-1.94 2.205-1.963 2.317-.171.815 3.853-3.231 7.427-1.329 4.171 2.219-.687.749.1.437 1.75-.692 4.416-3.023 6.833-5.946 5.565-6.73-.586-.362-1.515-.38-2.065-.04s-1-.01-1-.778c0-1.414 8.241-9.722 9.644-9.722 1.686 0 7.169-6.323 6.652-7.672-.607-1.581 3.347-6.328 5.271-6.328 1.552 0 2.666 2.819 1.714 4.34-.398.638-.819 1.781-.934 2.541-.16 1.061.065 1.107.972.2.65-.65 1.191-1.721 1.203-2.381.013-.66.913-1.101 2-.979 1.088.121 1.416-.029.728-.333-2.526-1.121-1.31-5.105 2.429-7.957 3.015-2.3 3.546-2.461 2.944-.892-.65 1.695-.463 1.659 1.636-.313 1.303-1.224 2.812-2.226 3.353-2.226.54 0 2.722-1.781 4.848-3.959 2.126-2.177 4.165-3.773 4.532-3.546.367.227 3.107-2.105 6.088-5.182 2.981-3.077 4.924-5.321 4.318-4.987-.651.36-1.57-.957-2.25-3.225-1.407-4.698-1.395-6.499.02-3.101.927 2.225 1.117 2.299 1.726.676.376-1.003 1.046-1.747 1.489-1.652.442.094 2.112-1.082 3.71-2.614 3.18-3.046 4.096-1.468 1.157 1.994-1.314 1.548-1.354 1.757-.158.837.876-.673 1.888-.928 2.25-.566.362.362.658-.092.658-1.008 0-.917.361-1.555.803-1.417.442.137 5.204-3.8 10.582-8.75 5.378-4.95 10.641-9.144 11.697-9.32a2.268 2.268 0 0 0 1.918-2.241c0-1.057.9-2.484 2-3.171 1.1-.687 2-1.617 2-2.068 0-.45-.45-.54-1-.2s-1-.057-1-.882.45-1.778 1-2.118c.55-.34 1-.221 1 .265s1.381.819 3.068.74c2.072-.097 3.847-1.096 5.465-3.074 2.804-3.431 3.115-4.894.856-4.027-1.197.46-1.449.194-.977-1.034.53-1.383.385-1.447-.889-.389-2.205 1.83-2.056-.735.187-3.213 1.452-1.605 1.495-2.023.284-2.772-.837-.517-1.892-.495-2.552.053-.62.513-1.347.713-1.617.443-.27-.27-1.937 1.309-3.705 3.508-3.146 3.915-6.12 5.246-6.12 2.741 0-.693.9-1.822 2-2.509 1.1-.687 2-2.159 2-3.272 0-1.112.788-2.306 1.75-2.651.962-.346 2.528-1.428 3.479-2.404 1.546-1.589 1.583-2.177.353-5.59-.756-2.098-2.094-5.165-2.972-6.815-.879-1.65-1.6-3.562-1.604-4.25-.003-.687-.393-1.25-.867-1.25-.473 0-2.295-2.691-4.048-5.981-1.753-3.289-4.207-7.227-5.452-8.75-1.245-1.523-3.515-5.457-5.044-8.742-3.472-7.46-10.07-16.953-13.214-19.013-1.309-.858-2.381-2.17-2.381-2.915 0-.745-.67-1.91-1.489-2.59-.819-.68-1.195-1.711-.836-2.292.409-.662.02-.814-1.041-.407-1.192.458-2.026-.077-2.811-1.798-.613-1.347-1.466-2.233-1.894-1.968-.428.265-1.927-.762-3.331-2.281-5.188-5.616-7.598-8.575-7.598-9.327 0-.425-1.587-1.754-3.527-2.952-1.939-1.199-4.16-2.814-4.936-3.59-.884-.884-1.642-1.034-2.032-.402-1.15 1.861-4.396 1.031-6.208-1.587-2.784-4.021-5.185-6.405-6.452-6.405-.662 0-.397.837.621 1.963 1.796 1.984 1.504 5.037-.483 5.037-1.403 0-5.91-5.126-5.951-6.769-.022-.871-.864-1.06-2.687-.603-2.295.576-2.585.399-2.139-1.31.632-2.415-1.659-6.013-2.727-4.283-.481.777-1.617.225-3.479-1.691-1.52-1.564-4.955-4.635-7.632-6.823-2.678-2.189-7.472-6.576-10.654-9.75-3.182-3.174-6.021-5.771-6.309-5.771-.559 0-6.574-5.394-15.053-13.5-4.722-4.514-17.306-13.79-25.776-19-1.789-1.1-4.032-2.788-4.985-3.75-.954-.962-2.152-1.75-2.662-1.75-.511 0-.929-.675-.929-1.5s-.402-1.5-.894-1.5c-1.57 0-7.106-5.742-7.106-7.37 0-.982-.56-1.352-1.5-.992-.879.338-1.501.014-1.501-.781-.002-1.322-9.643-5.857-12.452-5.857-.774 0-4.324-1.35-7.889-3-7.642-3.537-8.644-3.663-7.948-1 .364 1.391.031 2-1.093 2-.95 0-1.617-.825-1.617-2 0-2.296-2.299-2.478-8.168-.645m146.247 77.24c-.043.602.795 1.886 1.864 2.854 1.069.967 2.22 3.016 2.557 4.553.35 1.593 1.45 3.013 2.557 3.303 2.754.72 2.47-1.687-.557-4.714-1.375-1.375-2.5-2.971-2.5-3.546 0-.575-.638-1.045-1.417-1.045s-1.643-.562-1.921-1.25c-.291-.722-.537-.787-.583-.155m12.831 17.237c.54 1.008 1.764 2.47 2.722 3.25 1.54 1.254 1.521 1.043-.161-1.832-1.972-3.369-4.293-4.654-2.561-1.418m3.09 16.109c0 1.132.45 2.059 1 2.059s1-.648 1-1.441-.45-1.719-1-2.059c-.55-.34-1 .309-1 1.441m50.2 78.259c-1.633 1.633-1.508 2.8.3 2.8.833 0 1.5-.889 1.5-2 0-2.331-.186-2.414-1.8-.8m.542 12.925c-.958.536-1.742 1.727-1.742 2.647 0 1.405.351 1.321 2.194-.522 2.455-2.455 2.208-3.614-.452-2.125m-8.397 1.418c-.326.849-.341 1.794-.035 2.1.876.876 2.69-.609 2.69-2.202 0-1.919-1.908-1.845-2.655.102M832 525.359c0 .967-.396 1.515-.879 1.216-.484-.299-2.059.636-3.5 2.077-1.442 1.441-2.653 2.222-2.691 1.734-.039-.487-.394-.065-.789.938-.396 1.003-1.152 1.882-1.68 1.953-.529.071-2.48 1.501-4.337 3.176-1.856 1.676-3.769 2.935-4.25 2.797-.481-.138-.874.19-.874.727 0 .538-3.931 4.701-8.736 9.25C789.862 562.865 789 563.754 789 564.948c0 .632 1.634-.439 3.631-2.378 1.997-1.939 3.931-3.341 4.297-3.114.367.226 3.746-2.921 7.509-6.995 3.763-4.074 7.229-7.167 7.702-6.875.474.293.861-.158.861-1.001 0-.844 1.315-2.213 2.921-3.044 1.607-.831 3.908-2.896 5.113-4.589 1.21-1.699 2.786-2.851 3.517-2.571.798.307 1.448-.332 1.637-1.608.171-1.164.937-2.322 1.701-2.574.941-.311 1.14-.013.616.921-.425.759.734-.076 2.576-1.855 2.629-2.538 3.088-3.496 2.134-4.45-.953-.953-1.215-.836-1.215.544m-5.971 12.11c-1.276 1.358-2.634 2.275-3.019 2.037-.384-.237-2.794 1.85-5.355 4.638-2.56 2.789-4.655 4.742-4.655 4.341 0-.402-.604-.229-1.342.384-.738.612-1.638.818-2 .456-.362-.362-.658.026-.658.863s-2.514 3.899-5.586 6.805c-4.144 3.919-5.241 5.496-4.25 6.11.924.572 2.827-.782 6.169-4.388 8.789-9.484 10.139-10.779 13.308-12.77 1.728-1.086 4.796-3.992 6.817-6.459 3.984-4.862 4.303-5.989.571-2.017m-431.424 1.119c-.958 2.496-.718 3.412.895 3.412.825 0 1.5-.873 1.5-1.941 0-2.515-1.614-3.507-2.395-1.471m433.324 4.907c-3.459 3.563-6.431 6.336-6.605 6.162-.255-.255-17.521 16.748-19.324 19.031-.783.99 2.177-.804 5.75-3.486 1.788-1.342 3.25-3.075 3.25-3.852 0-.777.771-1.709 1.714-2.071.943-.361 3.812-2.822 6.375-5.468 2.564-2.646 5.071-4.811 5.571-4.811 1.61 0 11.571-10.739 10.547-11.372-.544-.336-3.819 2.304-7.278 5.867m-28.702-4.322c-1.693 1.693-1.539 2.884.284 2.184 1.082-.415 1.336-.121.893 1.032-.34.886-.12 1.611.489 1.611 1.23 0 1.328-1.585.264-4.277-.555-1.405-.96-1.52-1.93-.55m36.331 3.763c-.97 1.072-1.584 2.486-1.365 3.143.224.673 1.176.006 2.182-1.529 2.156-3.29 1.633-4.322-.817-1.614M829 548.643c-.825.225-2.27 1.754-3.211 3.397-.941 1.642-2.235 2.868-2.875 2.723-.64-.145-1.37.3-1.622.987-.991 2.702 2.407.835 6.088-3.344 2.134-2.423 3.709-4.354 3.5-4.29-.209.064-1.055.301-1.88.527M762 559.5c0 .825-.471 1.5-1.048 1.5-1.714 0-5.952 5.139-5.952 7.217 0 1.712.167 1.759 1.5.426.825-.825 1.5-1.982 1.5-2.572 0-.589.788-1.075 1.75-1.079.962-.004 2.313-1.219 3-2.699 1.511-3.254 1.572-4.293.25-4.293-.55 0-1 .675-1 1.5m-11.321 11.036c-1.552 1.945-2.6 4.082-2.329 4.75.376.928.511.919.571-.036.043-.687.623-1.25 1.287-1.25.665 0-.725 1.97-3.088 4.378-3.16 3.22-4.385 5.335-4.633 8-.185 1.992.064 3.622.553 3.622 1.09 0 3.085-3.542 2.387-4.239-1.105-1.105 2.112-5.931 5.245-7.867 1.955-1.209 3.328-2.873 3.328-4.035 0-1.183-.442-1.704-1.1-1.297-.751.464-.731-.009.065-1.497 2.058-3.845.624-4.177-2.286-.529m17.346 2.051c-3.104 3.149-4.075 4.763-3.322 5.516.754.754 1.465.524 2.431-.786.751-1.019 2.603-2.642 4.116-3.607 2.666-1.702 3.58-4.079 1.955-5.083-.437-.27-2.768 1.512-5.18 3.96m12.176-.72c-2.317 1.534-3.975 3.026-3.685 3.316.644.643-15.274 16.317-16.571 16.317-.506 0-2.12 1.8-3.586 4-2.222 3.334-1.348 2.752 5.25-3.5 13.421-12.716 16.367-15.133 17.558-14.397.718.444.867.261.401-.492-.848-1.373 1.233-4.352 2.495-3.572.836.517 3.433-3.377 2.724-4.085-.206-.206-2.27.88-4.586 2.413m-23.688-.888c-.333.539-.151 1.83.406 2.869.556 1.039.726 2.173.379 2.521-.347.347-.106.631.535.631.642 0 1.167-.9 1.167-2s-.436-2-.969-2c-.532 0-.709-.675-.393-1.5.641-1.67-.18-2.05-1.125-.521m-13.446 6.45c-1.255 1.335-2.096 2.985-1.869 3.666.409 1.226 5.802-3.733 5.802-5.335 0-1.452-1.664-.746-3.933 1.669m16.17 2.733c-.68.681-1.237 1.919-1.237 2.752 0 1.311.218 1.297 1.616-.101.889-.889 1.446-2.128 1.238-2.752-.274-.82-.723-.792-1.617.101m-26.708 18.791c-.295.477-.256 1.594.085 2.482.48 1.251.932 1.357 2.003.468.761-.631 1.383-1.495 1.383-1.918 0-1.17-2.861-2.019-3.471-1.032m-29.063 25.083c-2.73 2.849-2.756 2.964-.653 2.964 1.203 0 2.187.597 2.187 1.326 0 1.716-4.44 5.9-5.324 5.016-.372-.371-.676-.102-.676.598 0 .701.603 1.042 1.341.76.737-.283 1.975-.12 2.75.362 1.141.71 1.176 1.254.179 2.861-2.457 3.966.458 2.836 5.235-2.029 2.692-2.742 4.13-4.691 3.195-4.332-.935.358-1.7 1.129-1.7 1.712 0 .582-.301.758-.669.39-.368-.367-1.493.077-2.5.989-1.249 1.13-1.831 1.259-1.831.406 0-1.719 3.804-7.092 6.923-9.779l2.577-2.22-3.954 1.966c-4.356 2.166-7.491 1.117-4.091-1.37 1.07-.782 1.427-1.611.85-1.968-.55-.339-2.277.717-3.839 2.348m-5.457 5.453c-.68.819-1.569 1.283-1.977 1.031-.408-.252-1.731.595-2.941 1.883-1.903 2.026-1.985 2.424-.607 2.952.932.358 1.826-.001 2.159-.866.311-.813.973-1.227 1.469-.92.496.307 1.209-.258 1.583-1.256.375-.997 1.384-2.361 2.243-3.031.859-.67 1.055-1.233.434-1.25-.62-.018-1.683.638-2.363 1.457m-14.279 12.908c-2.623 2.694-4.648 5.009-4.5 5.145.593.545 9.975-8.411 9.635-9.197-.201-.465-2.511 1.359-5.135 4.052m426.246 34.238c-1.125.314-1.424 1.462-1.145 4.395.295 3.087.033 3.97-1.176 3.97-.856 0-2.057-.788-2.671-1.75-.888-1.394-1.002-.936-.56 2.25.305 2.2.559 5.462.565 7.25.006 1.788.36 3.25.787 3.25.427 0 .601-1.839.387-4.087-.414-4.347 1.066-7.084 2.862-5.288.564.564 1.256 4.586 1.539 8.939.283 4.353.947 8.347 1.475 8.875.529.529.961 2.446.961 4.261s.507 3.3 1.127 3.3c.778 0 .921-1.629.463-5.25-.366-2.888-.561-8.85-.435-13.25.467-16.327.425-16.95-1.155-17.124-.825-.091-2.186.026-3.024.259M1179 786c0 1.65-.45 3-1 3s-1-.873-1-1.941c0-2.496-1.964-3.725-3.096-1.937-1.195 1.886-1.131 4.136.096 3.378.55-.34 1-.141 1 .441s-.45 1.059-1 1.059-.955 1.237-.9 2.75l.099 2.75.887-2.5c.734-2.073.814-1.86.463 1.25-.254 2.253.002 3.75.643 3.75.703 0 .836 1.731.391 5.087-.457 3.443-.337 4.879.371 4.441.599-.37 1.046.235 1.046 1.413 0 2.263 1.527 2.787 2.359.809.374-.892.846-.743 1.644.521 2.778 4.394 3.977-3.159 2.059-12.972a186.487 186.487 0 0 1-1.561-9.549c-.687-5.235-2.501-6.504-2.501-1.75m-315.465 91.089a1568.077 1568.077 0 0 0-17.26 16.485c-4.562 4.44-8.515 7.853-8.785 7.583-.269-.27-.49.19-.49 1.021 0 .832-.9 2.327-2 3.322-1.1.995-2 1.42-2 .943s-2.138 1.169-4.75 3.658-6.49 5.798-8.617 7.353c-4.461 3.26-28.663 25.598-63.975 59.046-6.387 6.05-12.18 11-12.872 11-.693 0-1.852 1.237-2.577 2.75-.725 1.513-1.797 2.75-2.382 2.75-.585 0-5.061 3.649-9.946 8.108-4.884 4.46-8.881 7.797-8.881 7.416 0-.381-5.893 4.858-13.095 11.642-7.202 6.784-13.415 12.334-13.805 12.334-.391 0-5.086 4.039-10.433 8.976-5.348 4.937-10.498 9.406-11.445 9.931-1.386.769-29.064 26.101-51.995 47.589-2.351 2.202-4.606 4.004-5.013 4.004-.407 0-1.184.961-1.727 2.137-.543 1.175-1.437 2.116-1.987 2.091-.55-.025-3.475 2.249-6.5 5.054l-19.5 18.078c-7.7 7.138-18.503 17.515-24.008 23.06-12.895 12.988-39.551 37.956-45.992 43.078-2.75 2.187-11.614 10.194-19.698 17.794-8.085 7.6-15.019 13.905-15.409 14.013-.391.107-3.643 3.21-7.228 6.895-3.585 3.685-6.814 6.517-7.176 6.293-.362-.223-2.607 1.58-4.989 4.007-2.382 2.427-4.676 4.2-5.097 3.94-.42-.26-1.052-.008-1.402.559-.528.854-6.756 4.088-8.501 4.414-1.612.301-9.752 7.334-18 15.553-5.225 5.207-9.807 9.482-10.182 9.5-.375.019-2.838 2.284-5.473 5.034s-5.247 5-5.804 5c-.558 0-1.607 1.237-2.332 2.75-.725 1.513-1.884 2.75-2.576 2.75-.693 0-2.375 1.237-3.739 2.75-1.935 2.145-2.45 3.74-2.339 7.25.135 4.278 3.026 12.099 4.752 12.852.444.194 2 1.544 3.458 3 1.459 1.457 3.121 2.709 3.694 2.783.572.074 1.604.186 2.291.25.688.063 1.25.79 1.25 1.615s.379 1.5.843 1.5c.463 0 1.7 1.686 2.75 3.747 1.049 2.062 3.002 5.471 4.341 7.578 1.881 2.96 2.142 4.01 1.147 4.625-.978.604-1.022 1.292-.184 2.857.607 1.134 1.103 2.892 1.103 3.906 0 1.015.9 2.494 2 3.287 2.237 1.612 2.619 3.627.804 4.232-.841.28-.544 1.713 1.004 4.833 1.927 3.884 2.014 4.573.7 5.543-1.307.964-1.207 1.543.781 4.493 1.255 1.862 3.166 3.542 4.246 3.734 1.081.192 2.865 1.324 3.965 2.516 4.209 4.56 9.404 11.411 8.978 11.838-.246.245 3.259 4.307 7.788 9.026 4.529 4.719 10.709 11.389 13.734 14.821 10.298 11.684 14.495 15.67 19.462 18.485 2.729 1.546 5.968 3.818 7.198 5.048 2.204 2.204 10.455 6.476 15.34 7.943 1.375.413 3.625 1.539 5 2.502 1.375.964 5.359 2.482 8.854 3.375 3.495.893 7.545 2.446 9 3.452 5.063 3.5 18.364 8.731 26.146 10.283 5.349 1.067 10.385 2.614 14.5 4.453 1.65.738 7.5 2.336 13 3.552 8.267 1.827 12.513 2.163 24.5 1.937 7.975-.151 14.95-.618 15.5-1.038.55-.421 4.15-1.331 8-2.023 13.237-2.381 29.321-8.634 36.385-14.144 1.312-1.024 3.149-1.861 4.084-1.861.935 0 4.362-1.871 7.615-4.157 3.254-2.286 7.834-5.009 10.179-6.052 2.345-1.043 8.264-4.572 13.155-7.844 4.89-3.271 9.21-5.947 9.599-5.947.759 0 8.739-5.737 19.821-14.248 3.761-2.889 7.752-5.595 8.87-6.014 1.951-.732 3.088-1.556 11.365-8.238 2.044-1.65 5.315-3.791 7.268-4.759 1.953-.967 3.801-2.094 4.105-2.505 1.333-1.799 8.059-6.236 9.452-6.236.842 0 2.029-.929 2.636-2.064.884-1.651 1.701-1.934 4.076-1.412 1.972.433 3.787.118 5.395-.936 1.334-.873 3.054-1.588 3.824-1.588 3.238 0 13.187-11.686 14.048-16.5.099-.55.497-1.509.886-2.13 3.537-5.655 7.79-14.696 8.055-17.125.286-2.612 4.475-10.223 7.715-14.017.597-.699 1.553-2.611 2.124-4.25 1.144-3.279 3.462-3.972 4.11-1.228.308 1.308.607 1.055 1.181-1 .423-1.513 1.17-2.75 1.66-2.75.491 0 .892-.734.892-1.632 0-.898.902-3.092 2.005-4.876 1.103-1.785 2.159-4.564 2.347-6.176.187-1.612 1.104-5.605 2.038-8.874 3.053-10.693 7.718-25.9 8.572-27.942.46-1.1 1.377-3.575 2.038-5.5.661-1.925 1.554-4.4 1.985-5.5.43-1.1 1.604-4.7 2.607-8 4.182-13.755 10.161-11.964 6.679 2-1.745 6.997-1.586 7.557.855 3.003 1.17-2.182 2.769-4.437 3.553-5.01.951-.695 1.476-3.205 1.573-7.518.255-11.29-.719-27.974-1.633-27.975-.484 0-.558-1.687-.163-3.75.395-2.062.707-4.54.693-5.505-.014-.965.588-2.937 1.338-4.382.871-1.679 1.065-3.41.539-4.796-.454-1.192-.584-3.431-.289-4.974.303-1.581.043-3.111-.595-3.506-.657-.406-1.24-4.139-1.387-8.893-.174-5.583-.639-8.194-1.46-8.194-2.84 0-3.13-8.066-1.422-39.5.658-12.1 1.401-26.725 1.651-32.5.586-13.537 1.369-23.768 2.093-27.324.593-2.917 1.194-9.753 1.773-20.176.505-9.085 1.652-18.545 2.784-22.957.558-2.177.974-6.227.923-9-.05-2.774.343-10.893.875-18.043 2.589-34.862 3.094-43.243 3.559-59 .276-9.35.744-22.85 1.04-30 .831-20.053 1.046-41.584.459-45.911l-.53-3.911-8.965 8.411M1121 901.049c0 1.771.272 1.971 1.403 1.032 1.077-.894 1.537-.864 1.982.127.319.711.47.397.336-.697-.352-2.867-3.721-3.285-3.721-.462m-537.015 153.466c-1.857 1.917-2.923 3.485-2.368 3.485 1.292 0 6.9-5.817 6.242-6.475-.273-.272-2.016 1.073-3.874 2.99m-45.019 49.163c-3.006 3.123-3.988 4.489-2.181 3.035 3.104-2.497 8.825-8.713 8.02-8.713-.205 0-2.833 2.555-5.839 5.678M853 1269c0 .55-.675 1-1.5 1-1.086 0-1.5 1.117-1.5 4.05 0 3.444.243 3.914 1.625 3.14 1.463-.819 3.169-9.19 1.873-9.19-.274 0-.498.45-.498 1m-443.576 65.332c.317 1.007.576 2.456.576 3.218 0 .855.608 1.154 1.584.779.871-.334 1.17-.882.664-1.218-.505-.336-1.477-1.511-2.159-2.611-1.039-1.676-1.147-1.703-.665-.168m160.076 386.71-5 .542 4.5.699c6.258.971 22.107.445 20.977-.696-1.027-1.038-12.992-1.356-20.477-.545" fill-rule="evenodd"/></svg>