<svg xmlns="http://www.w3.org/2000/svg" width="1240" height="1753"><path d="M622 38.559c0 1.451.433 2.292 1 1.941.55-.34 1-1.491 1-2.559S623.55 36 623 36s-1 1.152-1 2.559m3.25 1.103c-1.416.572-1.72 3.338-.367 3.338.486 0 1.119-.9 1.407-2 .287-1.1.452-1.964.366-1.921-.086.043-.718.306-1.406.583m153.25 6.327c-1.549.657-1.144.83 1.794.766 2.387-.052 3.314-.387 2.5-.903-1.529-.97-1.696-.965-4.294.137m13.04.208c-1.077.625-4.12 1.217-6.762 1.315-2.641.098-5.098.475-5.46.837-.362.362-1.746-.055-3.075-.925-1.329-.871-2.536-1.435-2.682-1.254-.146.182-.769 1.23-1.383 2.33-.615 1.1-1.131 1.422-1.148.715-.023-.999-.502-1.033-2.151-.15-1.166.624-1.861.715-1.544.201.318-.513-.058-.933-.835-.933-.777 0-1.199.344-.94.765.26.42.015 1.046-.544 1.392-.562.348-1.016-.291-1.016-1.431 0-1.132-.4-2.059-.889-2.059s-.826.777-.75 1.726c.128 1.589-.671 1.842-4.42 1.399-.582-.069-.738-.645-.346-1.28.443-.715.275-.883-.44-.44-.635.392-1.191 1.699-1.234 2.904-.043 1.205-.306 1.629-.583.941-.278-.687-1.105-1.25-1.838-1.25-.733 0-1.56-.562-1.838-1.25-.388-.961-.522-.948-.583.059-.043.72-.524 1.034-1.068.698-.568-.351-.733.054-.388.952.435 1.136.158 1.394-1.012.945-.886-.34-1.618-1.132-1.626-1.761-.012-.847-.206-.85-.75-.011-.404.622-1.86 1.061-3.235.975-1.424-.089-3.088.644-3.866 1.703-.916 1.246-1.697 1.527-2.372.852-1.281-1.281-3.762-.366-3.762 1.389 0 1.095 5.601 1.265 31.016.942 17.059-.217 31.373-.615 31.809-.885.435-.269 3.578-.59 6.984-.713 6.764-.244 7.666-1.065 3.441-3.13-1.566-.766-2.635-2.029-2.484-2.934.223-1.331-1.057-2.15-4.289-2.743-.262-.049-.432.249-.377.662.055.413.505.638 1 .5.495-.137.9.2.9.75 0 1.467-1.638 1.219-3.365-.508-.934-.934-1.744-1.124-2.13-.5-.343.555-1.609.979-2.814.945l-2.191-.064 2.25-.904c1.237-.498 2.25-1.144 2.25-1.437 0-.83-1.318-.577-3.46.665m12.938 2.839c-.281.454-.053 1.108.506 1.454.559.345 1.016.166 1.016-.4 0-.565.629-.786 1.399-.49.769.295 1.626.168 1.904-.282.278-.45-.579-.883-1.905-.963-1.326-.079-2.64.227-2.92.681m3.022 37.416c-2.2.655-4.793 1.546-5.763 1.981a3.162 3.162 0 0 1-3.25-.444c-1.174-.974-1.487-.975-1.487-.004 0 .676-.652.979-1.449.673-.881-.338-1.695.22-2.077 1.424-.51 1.608-1.225 1.87-3.801 1.396-1.745-.32-6.863-1.168-11.373-1.884-8.039-1.275-8.207-1.26-8.613.803-.395 2.003-.421 1.996-.551-.146-.132-2.191-.375-2.239-9.386-1.854-5.087.218-11.725 1.145-14.75 2.06-3.025.915-6.251 1.667-7.169 1.671-.918.005-1.928.682-2.243 1.504-.316.823-1.365 1.399-2.331 1.281-.966-.119-2.844.228-4.173.769-1.901.775-2.804.598-4.228-.826-.996-.996-2.484-1.552-3.308-1.236-.823.316-2.215-.144-3.094-1.023-.878-.878-2.127-1.59-2.775-1.582-.691.009-.558.417.321.985 1.333.862 1.333.979 0 1.055-1.01.058-.847.366.5.945 1.849.795 1.811.873-.5 1.045-1.375.102-3.291.105-4.257.006-.966-.098-2.021.51-2.344 1.353-.771 2.008-8.618 1.106-12.942-1.486-1.673-1.004-3.923-1.826-5-1.828-1.076-.002-4.207-.405-6.957-.895-2.75-.491-7.7-.722-11-.514-3.3.209-7.559.391-9.465.405-1.906.015-3.952.43-4.547.924-.595.494-2.768 1.084-4.828 1.311-2.059.227-4.334 1.219-5.055 2.205-1.179 1.612-1.753 1.663-5.708.512-5.799-1.687-17.611-2.123-20.835-.769-1.409.592-7.737 1.149-14.062 1.237-9.577.134-12.42.551-17 2.495-3.025 1.284-6.226 2.948-7.114 3.698-1.374 1.162-2.086 1.1-4.795-.417-2.991-1.676-3.24-1.68-4.163-.074-.599 1.045-1.618 1.465-2.618 1.081-1.096-.421-1.399-.242-.915.541.398.644.439 1.17.093 1.17-1.06 0-3.488-2.786-3.488-4.002 0-.63-.788-.972-1.75-.762-.962.211-1.637.919-1.5 1.573.396 1.885-1.554 1.383-2.173-.559-.352-1.104-1.72-1.831-3.706-1.971-1.732-.121-3.909-.908-4.839-1.75-2.04-1.846-5.699-2.008-6.299-.279-.238.688-.214 4.063.054 7.5l.487 6.25-2.887.092c-1.588.05-4.012.188-5.387.305-1.375.117-4.188.301-6.25.408-3.042.158-4.772 1.187-9.156 5.445-2.973 2.888-6.011 5.766-6.75 6.396-.739.63-4.719 4.839-8.844 9.354-4.125 4.515-8.111 8.724-8.858 9.354-.747.63-2.322 2.224-3.5 3.542a374.447 374.447 0 0 1-4.892 5.327c-1.512 1.612-2.75 3.081-2.75 3.265 0 .572-6.007 7.045-19.25 20.743-7.012 7.253-12.75 13.543-12.75 13.978 0 .435-.627.791-1.393.791s-1.652.675-1.969 1.5c-.316.825-1.039 1.5-1.607 1.5-1.235 0-5.031 3.65-5.031 4.839 0 .461-3.15 4.071-7 8.021-3.85 3.951-7 7.593-7 8.094 0 .501-.9 1.197-2 1.546s-2 1.245-2 1.99c0 .746-3.15 4.575-7 8.51-3.85 3.935-7.014 7.457-7.032 7.827-.017.37-1.592 2.226-3.5 4.125-1.907 1.898-3.468 4.036-3.468 4.75 0 .714-.43 1.298-.955 1.298-.525 0-2.049 1.175-3.388 2.611a201.795 201.795 0 0 1-3.573 3.75c-.626.627-5.964 5.937-11.861 11.802-5.898 5.865-11.398 11.656-12.223 12.869-1.944 2.859-8.145 8.972-11.428 11.265-1.415.988-2.572 2.45-2.572 3.25 0 .799-.384 1.453-.854 1.453-1.276 0-6.146 4.741-6.146 5.984 0 .593-.726 1.357-1.613 1.698-1.512.58-14.601 13.425-24.898 24.433-2.513 2.687-5.076 4.885-5.696 4.885-.619 0-.883.243-.586.541.298.297-5.228 6.26-12.28 13.25C293.904 359.666 288 365.229 288 364.394c0-.381-2.187 1.625-4.859 4.457-2.673 2.832-5.215 5.149-5.65 5.149-1.031 0-10.491 9.867-10.491 10.942 0 .454-.9 1.06-2 1.348-1.1.287-2 1.21-2 2.049s-.9 1.812-2 2.161-2 .982-2 1.406c0 1.014-5.207 7.077-11.568 13.471-2.803 2.818-5.899 6.361-6.879 7.873-.981 1.512-2.406 2.75-3.168 2.75s-1.385.9-1.385 2c0 1.111-.667 2-1.5 2-.825 0-1.5.37-1.5.822 0 .451-4.725 5.633-10.5 11.514-5.775 5.881-10.5 11.136-10.5 11.678 0 .542-.374.986-.831.986-.457 0-1.433 1.125-2.169 2.5s-1.741 2.5-2.234 2.5c-1.194 0-6.138 5.93-6.394 7.668-.2 1.367-4.255 5.235-5.555 5.299-.375.018-.989 1.045-1.364 2.283-.376 1.238-1.981 3.462-3.568 4.944-1.587 1.481-2.885 3.121-2.885 3.644 0 .523-1.37 2.461-3.044 4.306a3549.341 3549.341 0 0 0-8.25 9.151c-2.863 3.187-5.79 6.337-6.504 7-5.262 4.885-6.202 5.897-6.202 6.679 0 .486-.579 1.478-1.286 2.205-3.141 3.226-6.714 8.653-6.714 10.197 0 .928-.675 1.946-1.5 2.262-.825.317-1.5 1.598-1.5 2.847 0 1.248-.695 2.847-1.546 3.553-.85.705-1.319 1.871-1.043 2.59.276.719.071 1.574-.455 1.899-1.479.914-1.129 8.911.53 12.109.817 1.575 1.681 2.639 1.919 2.364.239-.275 1.483.466 2.764 1.648 1.311 1.207 3.426 2.056 4.831 1.94 1.375-.114 3.287.451 4.25 1.257 1.606 1.345 1.75 1.206 1.75-1.69 0-1.735.43-3.155.955-3.155.525 0 1.25-1.575 1.611-3.5.385-2.054 1.245-3.5 2.08-3.5 1.119 0 1.193.433.343 2.021-.595 1.111-.766 2.531-.381 3.154.43.695.254.858-.453.42-.728-.449-1.155.037-1.155 1.315 0 1.279.492 1.838 1.334 1.515.885-.339 1.306.26 1.25 1.782-.067 1.822.392 2.242 2.233 2.043 1.883-.203 2.202.113 1.702 1.689-.426 1.342.015 2.276 1.433 3.035 1.126.603 2.048 1.725 2.048 2.494 0 .768.9 1.683 2 2.032 1.94.616 2.421 1.613 2.067 4.285-.233 1.752 10.704 12.474 11.943 11.709.544-.337.99.259.99 1.325 0 2.517 2.58 4.825 3.324 2.973.285-.711.554-.349.597.803.082 2.187 3.813 6.274 4.934 5.405.355-.275 1.089.513 1.632 1.75.543 1.237 1.486 2.25 2.095 2.25.609 0 1.917.894 2.907 1.987 1.704 1.884 1.882 1.897 3.405.25.883-.955 2.506-1.862 3.606-2.014 1.99-.276 1.99-.27.022 1.277-1.587 1.246-1.753 1.895-.843 3.277.624.948 1.703 1.585 2.397 1.417 1.014-.246 1.015-.009.007 1.206-1.373 1.654-.552 4.008 1.053 3.016 1.261-.779 3.799 2.59 3.175 4.215-.256.669.407 1.683 1.474 2.254 1.068.571 2.507 2.406 3.199 4.077.692 1.671 1.654 3.038 2.137 3.038.484 0 .88.563.882 1.25.003 1.347 9.746 11.75 11.004 11.75.418 0 1.007.945 1.309 2.101.303 1.156 1.029 1.804 1.617 1.441.587-.363 1.067-.028 1.067.744 0 1.753 3.425 4.956 4.331 4.05.368-.368.669.24.669 1.351 0 1.112 1.125 3.235 2.5 4.718 1.375 1.484 2.5 3.376 2.5 4.206 0 .829.45 1.229 1 .889.55-.34 1 .11 1 1s.45 1.34 1 1c.55-.34 1 .115 1 1.012 0 .896 1.8 3.764 4 6.373 2.2 2.609 4 5.11 4 5.558 0 .448 1.575 2.558 3.5 4.689 1.925 2.13 3.5 3.632 3.5 3.336 0-1.421 3.75 1.708 5.04 4.205 5.003 9.686 9.947 14.524 15.164 14.839 2.088.126 3.796-.171 3.796-.661 0-.489 1.171-.678 2.603-.418 3.074.557 7.397 3.217 7.397 4.551 0 1.712 4.182 4.866 5.991 4.518 1.382-.266 1.661.142 1.247 1.827-.293 1.194-.171 1.837.272 1.43.443-.408 1.374-.27 2.069.307 1.672 1.387 14.852-4.16 18.029-7.588 1.263-1.363 2.768-2.478 3.344-2.478.577 0 1.048-.473 1.048-1.052 0-.579 1.314-1.51 2.92-2.07 1.606-.56 3.167-1.661 3.468-2.448.302-.786.995-1.43 1.54-1.43 1.144 0 4.994-3.308 12.511-10.75 7.766-7.688 10.171-6.931 2.987.941-1.69 1.852-2.854 4.03-2.587 4.838.406 1.227.226 1.256-1.087.172-1.689-1.393-2.999-.332-2.419 1.959.187.737.155 1.015-.071.618-.225-.396-1.522.391-2.881 1.75-1.36 1.36-2.906 2.472-3.436 2.472-.53 0-2.367 1.341-4.082 2.98-1.715 1.639-3.429 2.788-3.808 2.554-.38-.235-1.322.449-2.094 1.52-.771 1.07-1.923 1.946-2.559 1.946-.637 0-1.726.686-2.422 1.524-.696.838-1.494 1.295-1.774 1.016-.279-.28-1.003.092-1.607.826-.605.734-4.155 2.602-7.89 4.152-4.84 2.008-6.697 3.272-6.464 4.399.18.871 1.065 1.459 1.966 1.306.901-.152 1.94.212 2.308.808 1.068 1.728 1.292 5.968.346 6.552-.476.294-.865 1.258-.865 2.143 0 .884.285 1.322.634.973.349-.348 1.762.254 3.141 1.339 1.818 1.43 2.857 1.682 3.777.919.794-.66 1.492-.695 1.863-.095.326.528 1.379.809 2.339.625.96-.183 2.309-.368 2.996-.41.688-.043 1.25-1.277 1.25-2.744 0-1.466.273-2.394.606-2.06.333.333 1.704-.492 3.046-1.834 1.341-1.341 2.996-2.439 3.677-2.439 1.563 0 11.237-6.08 15.057-9.463 2.232-1.976 3.196-2.299 4.25-1.424 1.349 1.119 1.78.1 1.633-3.863-.068-1.818 1.466-1.53 2.665.5.944 1.598 1.089 1.556 1.664-.489.346-1.231 1.028-1.992 1.516-1.691.487.302.886.098.886-.452s-.519-1.321-1.154-1.713c-1.849-1.143-5.846-1.319-5.846-.258 0 .534-.412.716-.915.405-.504-.311-2.304.603-4 2.03-1.697 1.428-3.085 2.313-3.085 1.968 0-.345-1.012.328-2.25 1.496-2.097 1.979-7.089 5.004-8.233 4.987-1.323-.018-8.11 3.613-8.817 4.717-.44.688-1.438 1.25-2.218 1.25-2.275 0-.541-2.947 2.128-3.617 1.315-.33 2.39-1.076 2.39-1.658 0-.582.255-.803.567-.491.312.312 1.903-.738 3.535-2.333 1.632-1.596 3.626-2.901 4.432-2.901.807 0 1.466-.473 1.466-1.051s1.575-1.709 3.5-2.513c1.925-.805 3.503-2.019 3.506-2.699.008-1.415 5.395-4.737 7.682-4.737 1.004 0 1.311-.561.896-1.641-.515-1.342-.364-1.421.823-.436 1.17.971 1.655.829 2.488-.727.569-1.063.77-2.197.447-2.521-.323-.323.648-.363 2.158-.089 2.305.418 2.646.21 2.121-1.294-.552-1.58-.449-1.564.862.13 1.444 1.864 1.564 1.834 4.002-1 1.382-1.607 2.513-3.614 2.514-4.459 0-.863.959-1.61 2.184-1.702 1.201-.09 2.573-.861 3.05-1.713.476-.851 1.349-1.548 1.939-1.548.702 0 .655.504-.136 1.456-.664.801-.921 1.921-.57 2.489.38.616.012.792-.914.437-.921-.354-1.552-.058-1.552.729 0 1.391-4.702 5.889-6.156 5.889-.464 0-.844.71-.844 1.577s-1.375 2.952-3.056 4.633c-2.02 2.02-2.828 3.604-2.384 4.673.474 1.138.811 1.247 1.14.367.257-.688 1.179-1.25 2.05-1.25.871 0 1.291-.293.933-.65-.358-.358.58-1.79 2.083-3.181 1.504-1.392 3.972-4.087 5.484-5.988 1.512-1.901 2.75-3.099 2.75-2.663 0 .436 1.124-.514 2.499-2.112 1.374-1.599 2.499-2.521 2.5-2.05 0 .47 1.307-.542 2.902-2.25 1.596-1.708 3.406-3.106 4.022-3.106.616 0 1.629-1.116 2.25-2.481.622-1.364 1.962-2.745 2.979-3.067 1.016-.323 1.848-.962 1.848-1.421 0-.46 3.622-4.592 8.049-9.183s10.757-11.16 14.067-14.598c3.31-3.437 6.663-6.25 7.451-6.25.788 0 1.433-.473 1.433-1.051s1.575-1.709 3.5-2.513c1.925-.805 3.5-1.907 3.5-2.449 0-.543.337-.891.75-.775 1.43.405 5.764-2.54 8.616-5.855 1.577-1.832 3.182-3.136 3.568-2.898.386.239 1.346-.502 2.134-1.647.788-1.144 2.018-2.582 2.735-3.196.716-.614 2.291-2.161 3.5-3.439 2.873-3.039 8.858-9.012 15.697-15.668 3.025-2.944 8.752-8.763 12.726-12.931 3.974-4.168 7.612-7.578 8.083-7.578.472 0 2.046-1.237 3.499-2.75 1.452-1.513 6.28-6.488 10.729-11.056l8.087-8.306-.672 19.306c-.369 10.618-.779 24.931-.91 31.806-.381 19.959-2.457 63.101-3.874 80.5-1.242 15.251-1.299 24.63-.653 106.5.137 17.325-.044 45.225-.403 62-.359 16.775-.86 47.186-1.114 67.58-.254 20.395-1.12 45.82-1.925 56.5-2.155 28.604-2.814 63.477-1.672 88.42.554 12.1 1.469 33.925 2.034 48.5.564 14.575 1.489 33.25 2.056 41.5 1.727 25.164 1.843 27.352 2.514 47.5.357 10.725 1.365 23.325 2.241 28 1.675 8.936 1.998 29.631 1.33 85-.176 14.575-.265 45.175-.199 68 .117 40.076-.838 68.794-2.844 85.5-2.471 20.586-3.761 33.539-3.934 39.5-.104 3.575-1.035 13.925-2.07 23-3.49 30.607-3.503 69.181-.033 101 .51 4.675 1.001 12.325 1.092 17 .33 17.02 2.919 27.189 7.824 30.733 2.669 1.928 9.382 4.581 14.509 5.734 1.607.361 4.03 1.529 5.385 2.595 3.666 2.884 11.172 2.407 18.712-1.189 2.651-1.265 5.419-1.4 8.433-.413l2.451.802-1.8-2.747c-1.268-1.934-1.401-2.62-.451-2.317.742.237 1.793 1.415 2.336 2.617 1.144 2.532 4.513 2.957 4.513.568 0-1.124.609-1.457 2-1.093 1.1.287 2 .208 2-.177s5.288-.695 11.75-.689c6.462.006 13.325-.37 15.25-.837 5.672-1.374 44.878-2.594 45.604-1.419.283.457 1.95.837 3.705.843 1.755.006 5.216.614 7.691 1.351 2.475.738 7.2 1.256 10.5 1.151 3.3-.104 6.765.191 7.699.657 1.094.545 2.985.233 5.309-.875 3.135-1.495 3.73-1.529 4.521-.258.726 1.167 1.295 1.225 2.812.285 2.254-1.396 4.159-.028 4.159 2.985 0 1.313.484 1.721 1.552 1.311.89-.341 1.291-.173.941.393-.766 1.24-.494 1.234 3.243-.069 2.659-.927 3.921-.606 10.206 2.597 3.944 2.01 7.708 3.736 8.364 3.836.657.1 1.644.454 2.194.788.55.333 2.868.915 5.15 1.293 4.707.778 11.272-1.913 14.882-6.1 2.166-2.512 5.472-3.182 5.462-1.106-.004.688-.6 2.387-1.325 3.777-2.888 5.534-2.933 10.395-.086 9.303.779-.299 1.417-.1 1.417.442s1.382 1.558 3.072 2.258c4.606 1.908 9.234-.615 11.912-6.494 1.136-2.495 2.392-4.574 2.791-4.619.399-.046 1.625-.214 2.725-.373 1.1-.16 4.362-.63 7.25-1.046 3.799-.547 5.25-.429 5.25.427 0 1.554 11.258.8 11.788-.79.208-.624 1.071-1.135 1.918-1.135 1.208 0 1.288-.302.373-1.404-.641-.773-.885-2.522-.541-3.89.705-2.81 4.901-6.894 6.036-5.875.409.368.462-.118.117-1.081-.408-1.137-.114-1.794.84-1.875.808-.069 1.919-.237 2.469-.375.55-.138 1.45-.306 2-.375s1.014-.687 1.032-1.375c.053-2.1 2.615-4.797 4.991-5.254 1.238-.239 2.977-1.054 3.864-1.813 1.742-1.489 5.209-3.079 6.267-2.874.36.07 1.231-.568 1.936-1.417 1.007-1.213 1.018-1.707.054-2.303-.945-.584-.973-1.777-.122-5.174a486.17 486.17 0 0 0 2.124-8.915c1.232-5.445 1.245-35.299.017-39.5-1.584-5.422-.055-106.996 1.793-119 2.289-14.88 3.051-29.92 3.564-70.403.303-23.871.732-43.696.954-44.056.222-.359.624-7.292.892-15.406.443-13.42.336-14.725-1.189-14.434-1.324.252-1.741 1.679-1.98 6.771-.299 6.35-1.555 9.543-3.324 8.449-.495-.306-.895-5.363-.888-11.239.008-5.875-.072-12.482-.177-14.682-.194-4.078.621-10.583 2.295-18.315.514-2.373.604-4.848.2-5.5-.403-.652-.613-5.256-.466-10.231.27-9.103-1.162-16.164-2.755-13.586-.525.849-.82.317-.852-1.534-.027-1.559-.31-14.084-.629-27.834-.474-20.395-.314-25.737.865-29 .796-2.2 1.518-6.7 1.606-10 .088-3.3.366-5.213.617-4.25.564 2.157 1.898 2.268 2.683.223.322-.84.512-9.278.421-18.75-.09-9.473.401-22.538 1.093-29.033.881-8.262.944-12.19.21-13.074-.618-.745-.681-1.644-.154-2.19.492-.509 1.159-6.551 1.481-13.426.323-6.875 1.017-20.825 1.543-31 2.223-42.987 2.097-56.253-.938-99-1.187-16.724-1.818-23.699-2.594-28.67-2.675-17.143-5.201-84.67-4.874-130.328.12-16.773-.162-33.184-.626-36.468-.56-3.965-.492-6.189.202-6.618.663-.41.824-3.169.44-7.531-.333-3.787-.539-10.035-.457-13.885.199-9.338.198-17.479-.004-26.211-.091-3.967.534-20.392 1.39-36.5 1.492-28.066 2.229-40.302 4.631-76.789.597-9.075 1.198-51.825 1.335-95 .23-72.408.776-101.454 3.506-186.5 1.137-35.413 1.698-48.463 3.052-71 .529-8.8.964-21.48.966-28.177.004-10.758-.199-12.23-1.745-12.634-1.667-.435-1.667-.463 0-.573 1.54-.102 1.758-1.344 1.82-10.366.039-5.637.376-10.981.75-11.874.374-.894 2.362-3.533 4.417-5.866 2.056-2.333 3.49-4.643 3.186-5.134-.546-.883-4.547-.536-6.3.548-1.598.987-2.004-3.453-2.236-24.424-.163-14.805-.578-20.919-1.493-22.009-.697-.83-1.501-2.797-1.787-4.372-.285-1.576-.727-3.072-.981-3.327-.255-.254.011-1.822.591-3.484.823-2.362.751-3.215-.332-3.9-.823-.522-.921-.884-.242-.893.629-.008 1.393-.667 1.699-1.464.372-.969.076-1.265-.893-.893-.861.33-1.449-.041-1.449-.916 0-.81-1.004-2.749-2.232-4.309-1.227-1.561-1.634-2.468-.903-2.017.951.588 1.227.298.972-1.022-.195-1.014-1.361-2.345-2.59-2.958-1.229-.613-1.938-1.412-1.574-1.775.363-.364.087-.661-.613-.661-.722 0-1.024-.651-.698-1.5.316-.825.113-1.5-.452-1.5-.566 0-.779-.403-.475-.895.305-.493-.194-1.182-1.108-1.533-1.266-.486-1.384-.915-.494-1.805 1.537-1.537 1.491-4.449-.083-5.184-1-.466-1-.7 0-1.166 1.893-.884 1.517-2.265-1.336-4.909-1.946-1.804-3.286-5.105-5.412-13.331-3.813-14.757-5.15-17.214-9.278-17.046-1.773.071-5.024.666-7.224 1.321M769.417 320.5c.001 10.45.149 14.589.329 9.198.18-5.391.179-13.941-.002-19-.181-5.059-.328-.648-.327 9.802M678.3 424c0 3.025.187 4.262.416 2.75.229-1.512.229-3.988 0-5.5s-.416-.275-.416 2.75m.986 14.5c.008 2.75.202 3.756.432 2.236.229-1.52.223-3.77-.014-5-.237-1.23-.425.014-.418 2.764m-470.814 49.42c.638 1.058.441 1.261-.772.795-1.091-.418-2.3.319-3.664 2.235-1.12 1.572-2.036 3.251-2.036 3.731s-1.785 2.661-3.967 4.846c-2.182 2.185-3.982 4.536-4 5.223-.018.688-.469 1.25-1.002 1.25-.532 0-.681.749-.33 1.664.453 1.18.269 1.436-.632.878-.83-.512-2.446.559-4.651 3.086-1.859 2.13-3.388 4.153-3.399 4.496-.01.344-1.594 2.344-3.519 4.446-1.925 2.101-3.5 4.183-3.5 4.625 0 .443-.619.805-1.375.805-1.406 0-4.901 6.057-4.009 6.949.271.271.864-.107 1.317-.841.622-1.006.925-1.034 1.231-.115.224.671 1.291-.516 2.371-2.637 1.081-2.121 3.09-5.017 4.465-6.437 1.375-1.419 3.825-4.204 5.444-6.189 1.619-1.985 3.306-3.384 3.75-3.11.443.274.806-.218.806-1.092 0-.875.787-1.874 1.75-2.219 1.485-.533 5.162-4.12 9.254-9.028.559-.67.9-1.795.756-2.5-.143-.705.492-1.224 1.411-1.155 1.034.077 1.47-.399 1.143-1.25-.29-.757-.1-1.376.423-1.376 1.169 0 6.856-4.793 6.22-5.243-.251-.177-1.331-.983-2.399-1.79-1.612-1.218-1.797-1.226-1.086-.047m5.528 4.611c0 .843-.675 1.791-1.5 2.107-.825.317-1.5 1.155-1.5 1.862 0 .707.675 1.545 1.5 1.862.825.316 1.5.102 1.5-.477 0-.578.563-.862 1.25-.631.688.232 1.778-.293 2.424-1.166.922-1.249.836-1.962-.405-3.338-1.947-2.158-3.269-2.246-3.269-.219m4.182 6.687c-.67.67-2.447 1.282-3.95 1.36-2.302.121-2.702.558-2.544 2.783.104 1.451-.234 2.639-.75 2.639s-.938-.948-.938-2.107c0-1.51-.448-1.935-1.582-1.5-.87.334-2.107.614-2.75.622-.739.01-.664.335.205.885 1.057.67.311 1.916-3.25 5.427-2.543 2.506-4.623 4.756-4.623 4.998 0 .243 1.129.658 2.509.921 2.03.389 2.293.22 1.377-.883-1.418-1.709.253-1.802 2.026-.113 1.071 1.02 1.188.837.636-.991-.937-3.103.207-4.708 2.185-3.065 1.359 1.128 1.458.976.778-1.202-.762-2.444-.738-2.457 1.257-.677 1.406 1.255 2.248 1.468 2.729.69.473-.765 1.162-.547 2.157.685 1.344 1.664 1.431 1.548 1.077-1.44-.379-3.201.619-4.441 1.61-2 .361.89.745.933 1.333.15.454-.605 1.822-1.625 3.039-2.266 2.235-1.176 2.188-4.277-.058-3.852-.635.12-1.042-.344-.905-1.032.313-1.566-.027-1.573-1.568-.032m4.737 5.51c-.78 1.5-2.939 4.218-4.796 6.039-1.857 1.822-3.142 3.547-2.856 3.833.287.287 1.646-.604 3.021-1.979s2.773-2.227 3.106-1.894c.333.334.606-.096.606-.955s1.117-2.622 2.483-3.917c2.784-2.641 3.158-3.855 1.186-3.855-.732 0-1.97 1.227-2.75 2.728m-29.969 16.26c-2.415 2.687-3.139 4.109-2.262 4.446.708.272 1.181.173 1.05-.22s.16-.714.647-.714 1.271-1.041 1.742-2.314c.471-1.273 1.283-2.051 1.804-1.729.521.323.879-.323.796-1.435-.084-1.112-.169-2.014-.19-2.003-.02.01-1.635 1.797-3.587 3.969m-7.828 9.044c-3.662 3.662-3.576 3.355-1.43 5.096 1.15.932 1.451.971.941.122-.413-.687-.387-1.253.058-1.256.955-.008 4.559-6.078 3.962-6.674-.225-.226-1.814.995-3.531 2.712m-4.118 6.164c1.507 1.821 1.192 3.212-.424 1.871-1.125-.934-1.373-.862-1.195.348.354 2.412 1.224 2.761 2.637 1.059 1.089-1.313 1.03-1.816-.354-3.028-.914-.799-1.212-.912-.664-.25m110.496 39.43c-4.414 4.999-4.418 5.334-.017 1.157 2.154-2.044 3.714-3.905 3.467-4.136-.248-.231-1.8 1.11-3.45 2.979m69.5 69.103c-2.246.855-3.018 2.545-1.82 3.987.723.872.731 1.284.026 1.284-.572 0-1.273-.562-1.558-1.25-.707-1.701-4.721 2.896-4.052 4.639.272.71-.2 1.868-1.05 2.573-1.975 1.639-2.004 3.151-.046 2.4.825-.317 1.5-1.076 1.5-1.687 0-2.104 5.131-5.673 6.871-4.781 1.874.961 4.129.395 4.129-1.036 0-.537-.45-.698-1-.358-.888.549-1.405-1.591-1.269-5.25.026-.687-.016-1.214-.092-1.171-.076.043-.814.336-1.639.65m22.837 19.104c-.915.917-3.039 2.792-4.72 4.167-1.682 1.375-3.071 2.907-3.087 3.405-.017.498.794.159 1.801-.752 1.007-.912 2.132-1.356 2.5-.989.368.368.669-.107.669-1.056 0-.949.337-1.527.75-1.283s2.016-.855 3.563-2.441c1.547-1.586 2.222-2.846 1.5-2.801-.722.046-2.061.834-2.976 1.75M372 666.728c-2.152.817-7.347 5.272-6.148 5.272.553 0 1.659-.654 2.458-1.452.798-.799 1.618-1.307 1.821-1.129.203.177 1.235-.519 2.294-1.548 2.025-1.968 1.99-2.061-.425-1.143M686.32 681c0 3.575.182 5.038.403 3.25.222-1.788.222-4.712 0-6.5-.221-1.788-.403-.325-.403 3.25m-350.57-1.428c-3.044 1.651-3.362 2.096-1.5 2.093.688-.001 2.116-.826 3.175-1.834 2.302-2.189 1.976-2.24-1.675-.259M730.286 938.5c.008 2.75.202 3.756.432 2.236.229-1.52.223-3.77-.014-5-.237-1.23-.425.014-.418 2.764m107.074 377.484c-.583 4.357-.764 9.631-.402 11.719.571 3.29.775 2.663 1.528-4.703 1.154-11.273 1.213-12.869.521-13.988-.322-.522-1.064 2.615-1.647 6.972m-17.693 19.683c-.367.366-.622 2.279-.567 4.25l.101 3.583.915-3.901c.922-3.928.781-5.163-.449-3.932m-25.037 26.583c-.872 3.254-.764 6.75.208 6.75.461 0 .914-2.025 1.008-4.5.186-4.913-.274-5.764-1.216-2.25" fill-rule="evenodd"/></svg>