<svg xmlns="http://www.w3.org/2000/svg" width="1240" height="1753"><path d="M611.14 38.539c-10.988 1.57-20.138 3.449-29.14 5.983-3.025.852-10 1.969-15.5 2.483-11.94 1.115-23.789 3.319-32 5.953-7.028 2.254-27.491 7.505-39.195 10.058-4.507.982-10.357 2.486-13 3.34-2.643.854-10.88 3.113-18.305 5.02-13.765 3.535-27.962 8.129-40.5 13.104-3.85 1.528-9.7 3.769-13 4.98-7.811 2.866-24.646 11.037-31 15.046-2.75 1.735-5.675 3.47-6.5 3.856-2.9 1.357-30.772 18.979-39.29 24.841-14.73 10.138-24.567 17.746-38.047 29.426-7.064 6.122-14.041 11.74-15.503 12.486-7.49 3.819-32.068 23.855-41.384 33.736-6.899 7.317-18.267 23.849-25.545 37.149-2.258 4.125-5.766 9.075-7.796 11-2.03 1.925-6.518 7.837-9.974 13.137-3.456 5.3-6.722 9.8-7.258 10-.535.2-3.546 4.638-6.689 9.863-3.144 5.225-6.507 10.4-7.474 11.5-.967 1.1-4.238 6.725-7.27 12.5-3.031 5.775-8.925 16.653-13.098 24.173-4.172 7.521-9.338 17.196-11.48 21.5-2.142 4.305-6.475 12.041-9.63 17.191-5.522 9.012-20.484 38.901-24.446 48.834a8950.557 8950.557 0 0 1-5.127 12.802c-5.194 12.94-12.867 37.079-15.565 48.965-1.378 6.069-3.82 16.66-5.427 23.535-3.863 16.527-6.79 37.269-8.079 57.241-.577 8.942-2.162 23.459-3.522 32.259-4.261 27.582-4.562 31.751-4.138 57.257.324 19.415 1.102 30.664 3.614 52.243 1.76 15.125 3.881 29.594 4.712 32.153.832 2.559 3.255 7.14 5.384 10.18 2.129 3.04 4.667 7.203 5.639 9.251.972 2.048 3.119 4.442 4.771 5.32 1.653.878 5.056 3.396 7.564 5.596 5.804 5.093 9.865 7.333 14.29 7.882 1.933.24 4.959 1.182 6.723 2.095 2.893 1.496 7.355 1.604 45.377 1.095 23.192-.311 44.917-.973 48.276-1.472 3.359-.499 7.859-.788 10-.642 2.141.146 9.517-.136 16.392-.625 6.875-.49 17.9-1.112 24.5-1.383 6.6-.27 12.9-.922 14-1.45 1.1-.527 3.125-1.426 4.5-1.996 1.375-.571 4.391-2.106 6.703-3.413 2.805-1.585 4.358-1.995 4.671-1.233.321.784.493.75.547-.108.043-.687 1.339-1.25 2.879-1.25s3.34-.54 4-1.2c.933-.933 1.2-.904 1.2.131 0 .962.968 1.174 3.493.764 2.39-.388 3.965-.094 4.992.933.825.825 1.953 1.219 2.507.877.593-.367 1.008.636 1.008 2.436 0 2.819.27 3.059 3.441 3.059 1.893 0 3.733-.472 4.089-1.049.439-.71 1.128-.65 2.135.186 1.652 1.371 1.507 1.513 5.965-5.887 1.408-2.338 2.967-3.999 3.465-3.691.498.307.958-.48 1.023-1.75.097-1.882.243-1.754.789.691.664 2.97.681 2.955 1.803-1.5.624-2.475 1.453-7.6 1.843-11.389.39-3.789 1.323-8.064 2.072-9.5.75-1.436 1.394-3.286 1.432-4.111.04-.86.456-.54.975.751.497 1.238.617 3 .266 3.914-.429 1.118-.254 1.426.532.94.713-.441 1.17-3.457 1.17-7.723 0-5.334-.298-6.821-1.25-6.249-.986.592-.994.435-.041-.744.922-1.14 1.223-20.816 1.268-82.877.033-44.76.277-81.599.541-81.864.265-.265.482 30.194.482 67.685 0 44.778.343 68.167 1 68.167.55 0 1-1.328 1-2.95 0-1.623.627-3.31 1.394-3.75.931-.535 1.599-3.616 2.015-9.3 1.189-16.275 4.648-53.547 5.613-60.5.535-3.85 1.435-13.525 2.001-21.5.566-7.975 1.724-16.975 2.573-20 .849-3.025 2.017-7.3 2.596-9.5.579-2.2 1.876-6.7 2.883-10 1.007-3.3 3.439-11.85 5.405-19 3.7-13.459 10.262-33.214 11.642-35.048 1.549-2.06 8.68-17.089 11.722-24.704 6.334-15.854 10.264-23.015 19.949-36.352 8.253-11.364 13.865-17.55 28.481-31.396 36.211-34.304 44.314-41.089 51.329-42.974 2.693-.724 10.297-2.877 16.897-4.783 18.565-5.364 37.686-9.938 48.845-11.687 10.638-1.667 18.113-3.008 25.655-4.604 6.156-1.303 25.785-2.933 35.44-2.943 4.367-.005 10.528-.544 13.691-1.197 6.305-1.302 23.032-.222 50.206 3.243 15.71 2.003 16.665 2.163 28.413 4.783 4.538 1.012 8.25 1.431 8.25.932 0-.5 1.013-.755 2.25-.566 1.237.189 2.126.929 1.975 1.644-.156.739.209 1.002.846.608.616-.38 2.089-.233 3.274.328s5.53 1.563 9.655 2.227c7.167 1.153 14 4.116 14 6.071 0 .505 1.877.918 4.171.918 2.294 0 4.882.625 5.75 1.389.869.763 3.968 1.669 6.888 2.013 2.919.343 7.465 1.717 10.102 3.053 8.2 4.155 24.29 15.503 31.089 21.926 3.575 3.377 8.075 7.522 10 9.211 1.925 1.688 4.021 3.934 4.657 4.989.636 1.055 1.619 1.817 2.183 1.691 1.452-.322 11.212 9.363 14.843 14.728 6.02 8.894 12.538 22.73 11.801 25.05-.393 1.24-.127 3.249.615 4.634 1.012 1.892 1.035 2.615.104 3.191-1.303.805 1.576 7.977 4.567 11.375.847.962 1.213 1.75.812 1.75-.4 0 .206 1.186 1.345 2.635 1.14 1.449 2.073 3.289 2.073 4.088 0 .799 1.398 4.451 3.106 8.115 5.456 11.705 8.61 19.038 11.895 27.662 1.776 4.66 9.341 33.332 9.764 37 .253 2.2.804 4.45 1.225 5 2.252 2.944 8.936 35.755 10.085 49.5 1.178 14.11 1.33 15.228 2.269 16.748.412.666 1.431 5.158 2.264 9.982.833 4.823 2.223 11.232 3.088 14.24 1.97 6.849 2.87 13.24 4.789 34.03 1.759 19.061 1.463 53.628-.501 58.5-.778 1.93-1.305 10.521-1.477 24.084-.147 11.597-.515 21.947-.817 23-.303 1.054-.823 4.452-1.156 7.551-.669 6.233-.867 7.341-2.479 13.865-.611 2.475-1.277 5.175-1.479 6-.833 3.402-4.201 9.644-6.315 11.702-1.244 1.211-2.261 2.843-2.261 3.627 0 1.331-10.982 23.956-12.712 26.188-.433.559-2.586 3.709-4.783 7-2.197 3.291-4.447 6.496-5 7.122-.553.627-1.905 2.404-3.005 3.95-3.013 4.234-8.193 9.411-9.417 9.411-.595 0-1.083.477-1.083 1.059s-.45.781-1 .441-1-.24-1 .222c0 .462-1.35 1.349-3 1.972s-3 1.785-3 2.583c0 .799-2.024 2.224-4.5 3.17-3.171 1.211-4.5 2.285-4.5 3.636 0 1.054-.477 1.917-1.059 1.917s-.828.374-.546.83c.282.457-3.179 3.26-7.691 6.23-4.512 2.97-9.486 6.534-11.054 7.92-1.567 1.386-3.367 2.561-4 2.611-2.403.192-6.65 1.654-6.65 2.29 0 .365-1.575 1.512-3.5 2.549s-3.5 2.264-3.5 2.727c0 .464-.675.843-1.5.843s-1.5.477-1.5 1.059-.382.823-.849.535c-.466-.289-1.704.247-2.75 1.191-2.128 1.919-26.511 14.503-30.401 15.689-1.375.42-3.175 1.31-4 1.98-.825.669-3.075 1.828-5 2.575-1.925.746-3.725 1.654-4 2.016-.275.362-3.2 1.686-6.5 2.942-5.573 2.122-7.882 2.717-11.367 2.93-.834.051-1.174.819-.872 1.972.406 1.555-2.944 3.963-18.924 13.595-10.68 6.438-20.012 11.792-20.737 11.898-.725.107-2.168 1.043-3.205 2.08-1.037 1.037-4.664 3.146-8.061 4.686-3.396 1.54-7.401 3.936-8.9 5.326-1.499 1.389-3.327 2.526-4.062 2.526-.735 0-4.171 1.687-7.636 3.75-3.464 2.062-6.866 3.869-7.559 4.014-.694.145-3.033 1.383-5.199 2.75s-4.46 2.486-5.098 2.486c-.637 0-3.417 1.39-6.177 3.088-2.76 1.698-5.762 3.231-6.67 3.406-.909.175-5.901 2.9-11.093 6.056s-11.015 6.398-12.94 7.206c-4.86 2.039-23.235 13.347-24.718 15.212-.67.843-1.24 1.082-1.266.532-.026-.569-.363-.516-.781.121-.896 1.368-14.043 9.916-20.235 13.157-2.475 1.296-4.95 2.927-5.5 3.625-.55.698-3.015 2.538-5.478 4.089-2.462 1.552-5.059 3.402-5.769 4.112s-6.305 4.312-12.433 8.004c-6.127 3.692-11.892 7.464-12.809 8.381-1.475 1.475-5.471 3.998-16.371 10.337-1.727 1.005-3.59 2.373-4.14 3.042-.55.668-2.8 2.278-5 3.577s-4.45 2.894-5 3.544c-.55.651-2.8 2.366-5 3.811-2.2 1.445-5.8 3.899-8 5.454-2.2 1.554-6.925 4.564-10.5 6.689-3.575 2.124-7.625 4.85-9 6.057-1.375 1.207-5.425 3.918-9 6.024-6.392 3.767-10.478 6.8-16.588 12.317-1.699 1.533-5.52 4.284-8.492 6.113-2.972 1.829-5.857 3.873-6.412 4.542-1.402 1.693-21.33 13.502-22.805 13.514-.661.005-3.185 1.585-5.608 3.511-2.423 1.926-4.597 3.31-4.832 3.076-.234-.235-9.052 4.761-19.595 11.102-10.542 6.341-19.281 11.478-19.418 11.415-1.061-.485-2.56.196-4.331 1.967-1.145 1.145-7.782 5.487-14.75 9.651-6.968 4.163-13.718 8.514-15 9.669-1.281 1.154-2.631 2-3 1.878-.368-.121-11.14 6.107-23.938 13.842-12.799 7.734-23.858 14.148-24.577 14.254-.72.105-4.58 2.135-8.579 4.511-3.999 2.376-7.789 4.4-8.423 4.499-.634.099-2.952 1.197-5.152 2.441-2.2 1.244-4.225 2.165-4.5 2.047-.275-.117-2.404.988-4.73 2.457-2.327 1.468-4.814 2.67-5.528 2.67-.713 0-2.297.701-3.519 1.557-1.223.856-2.223 1.263-2.223.905 0-.359-2.025.535-4.5 1.985-2.475 1.451-4.5 2.399-4.5 2.109 0-.291-2.362.804-5.25 2.434-2.887 1.629-6.631 3.591-8.32 4.36-1.688.768-4.951 2.585-7.25 4.036-2.299 1.452-4.18 2.38-4.18 2.063 0-.318-1.688.279-3.75 1.326-7.96 4.039-11.13 5.456-11.434 5.111-.174-.197-2.003.685-4.066 1.959-2.062 1.275-3.75 2.066-3.75 1.758 0-.308-4.162 1.97-9.25 5.062-5.088 3.093-10.825 6.279-12.75 7.081-4.409 1.837-20.389 11.371-20.826 12.425-.18.433-4.117 3.077-8.75 5.875-4.633 2.799-8.424 5.405-8.424 5.792 0 .387-2.025 1.81-4.5 3.162-2.475 1.352-4.5 2.768-4.5 3.148 0 .379-1.687 1.697-3.75 2.93-2.062 1.232-4.875 3.221-6.25 4.42-1.375 1.199-4.975 3.659-8 5.467-3.025 1.808-5.86 3.906-6.3 4.661-.44.756-1.245 1.374-1.79 1.374-1.513 0-6.917 4.053-11.2 8.4-2.802 2.845-3.496 4.114-2.566 4.689 1.011.625.956 1.166-.264 2.6-1.579 1.856-4.176 8.526-5.347 13.732-.361 1.607-1.529 4.03-2.595 5.385-2.884 3.666-2.407 11.172 1.189 18.712 1.265 2.651 1.4 5.419.413 8.433l-.802 2.451 2.747-1.8c1.934-1.268 2.62-1.401 2.317-.451-.237.742-1.415 1.793-2.617 2.336-2.532 1.144-2.957 4.513-.568 4.513 1.124 0 1.457.609 1.093 2-.287 1.1-.208 2 .177 2s.695 5.288.689 11.75c-.006 6.463.37 13.325.837 15.25 1.374 5.672 2.594 44.878 1.419 45.604-.457.283-.837 1.95-.843 3.705-.006 1.755-.614 5.216-1.351 7.691-.738 2.475-1.256 7.2-1.151 10.5.104 3.3-.191 6.765-.657 7.699-.545 1.094-.233 2.985.875 5.309 1.495 3.135 1.529 3.73.258 4.521-1.167.726-1.225 1.295-.285 2.812 1.396 2.254.028 4.159-2.985 4.159-1.313 0-1.721.484-1.311 1.552.341.89.173 1.291-.393.941-1.24-.766-1.234-.494.069 3.243.927 2.659.606 3.921-2.597 10.206-2.01 3.944-3.736 7.708-3.836 8.364-.1.657-.454 1.644-.788 2.194-.333.55-.915 2.868-1.293 5.15-.778 4.707 1.913 11.272 6.1 14.882 2.512 2.166 3.182 5.472 1.106 5.462-.687-.004-2.387-.6-3.777-1.325-5.534-2.888-10.395-2.933-9.303-.086.299.779.1 1.417-.442 1.417s-1.558 1.382-2.258 3.072c-1.908 4.606.615 9.234 6.494 11.912 2.495 1.136 4.573 2.392 4.619 2.791.046.399.214 1.625.373 2.725.16 1.1.63 4.362 1.046 7.25.547 3.799.429 5.25-.427 5.25-1.554 0-.8 11.258.79 11.788.624.208 1.135 1.071 1.135 1.918 0 1.208.302 1.288 1.404.373.773-.641 2.522-.885 3.89-.541 2.81.705 6.894 4.901 5.875 6.036-.368.409.119.462 1.081.117 1.137-.408 1.794-.114 1.875.84.069.808.237 1.919.375 2.469.138.55.306 1.45.375 2s.688 1.014 1.375 1.032c2.1.053 4.797 2.615 5.254 4.991.239 1.238 1.054 2.977 1.813 3.864 1.489 1.742 3.079 5.209 2.874 6.267-.07.36.568 1.231 1.417 1.936 1.213 1.007 1.707 1.018 2.303.054.584-.945 1.777-.973 5.174-.122a486.17 486.17 0 0 0 8.915 2.124c5.445 1.232 35.299 1.245 39.5.017 5.422-1.584 106.996-.055 119 1.793 14.88 2.289 29.92 3.051 70.403 3.564 23.871.303 43.696.732 44.056.954.359.222 7.292.624 15.406.892 13.42.443 14.725.336 14.434-1.189-.252-1.324-1.679-1.741-6.771-1.98-6.35-.299-9.543-1.555-8.449-3.324.306-.495 5.363-.895 11.239-.888 5.875.008 12.482-.072 14.682-.177 4.078-.194 10.583.621 18.315 2.295 2.373.514 4.848.604 5.5.2.652-.403 5.256-.613 10.231-.466 9.103.27 16.164-1.162 13.586-2.755-.849-.525-.317-.82 1.534-.852 1.559-.027 14.084-.31 27.834-.629 20.395-.474 25.737-.314 29 .865 2.2.796 6.7 1.518 10 1.606 3.3.088 5.212.366 4.25.617-2.157.564-2.268 1.898-.223 2.683.84.322 9.278.512 18.75.421 9.473-.09 22.538.401 29.033 1.093 8.262.881 12.19.944 13.074.21.745-.618 1.644-.681 2.19-.154.509.492 6.551 1.159 13.426 1.481 6.875.323 20.825 1.017 31 1.543 42.987 2.223 56.253 2.097 99-.938 16.724-1.187 23.699-1.818 28.67-2.594 17.143-2.675 84.67-5.201 130.328-4.874 16.773.12 33.184-.162 36.468-.626 3.965-.56 6.189-.492 6.618.202.408.66 3.188.83 7.531.459l9.385-.798c1.375-.116 6.775.077 12 .43 5.225.354 11.257.334 13.404-.044 2.146-.377 9.571-.375 16.5.004 6.928.38 26.096 1.402 42.596 2.273 16.5.87 36.075 2.012 43.5 2.538 7.425.525 21.337 1.458 30.916 2.072 14.031.899 17.918 1.471 20 2.946 2.297 1.627 3.195 1.699 8.084.653 3.025-.647 6.05-1.531 6.723-1.965.673-.434 2.923-1.005 5-1.27 2.077-.264 3.927-.92 4.11-1.457.184-.538.794-.977 1.357-.977s.752.708.42 1.573c-.978 2.551 2.734 1.271 3.881-1.338.545-1.239 1.895-2.533 3-2.875 1.105-.342 3.134-1.398 4.509-2.345 2.63-1.813 5.182-2.598 11.602-3.568 6.815-1.03 26.023-6.202 29.27-7.881 2.291-1.185 3.128-2.315 3.128-4.226 0-2.939-1.693-9.717-3.261-13.056-.762-1.623-.7-2.626.233-3.75.987-1.19.997-1.534.043-1.534-.676 0-.979-.652-.673-1.449.338-.881-.22-1.695-1.424-2.077-1.608-.51-1.87-1.225-1.396-3.801.32-1.745 1.168-6.863 1.884-11.373 1.275-8.039 1.26-8.207-.803-8.613-2.003-.395-1.996-.421.146-.551 2.191-.132 2.239-.375 1.854-9.386-.218-5.088-1.145-11.725-2.06-14.75-.915-3.025-1.667-6.251-1.671-7.169-.005-.918-.682-1.928-1.504-2.243-.823-.316-1.399-1.365-1.281-2.331.119-.966-.228-2.844-.769-4.173-.775-1.901-.598-2.804.826-4.228.996-.996 1.552-2.484 1.236-3.308-.316-.823.144-2.215 1.023-3.094.878-.878 1.59-2.127 1.582-2.775-.009-.691-.417-.558-.985.321-.862 1.333-.979 1.333-1.055 0-.058-1.01-.366-.847-.945.5-.795 1.849-.873 1.811-1.045-.5-.102-1.375-.105-3.291-.006-4.257.098-.966-.51-2.021-1.353-2.344-2.008-.771-1.106-8.618 1.486-12.942 1.004-1.673 1.826-3.923 1.828-5 .002-1.076.405-4.207.895-6.957.491-2.75.722-7.7.514-11-.209-3.3-.391-7.559-.405-9.465-.015-1.906-.43-3.952-.924-4.547-.494-.595-1.084-2.768-1.311-4.828-.227-2.059-1.219-4.334-2.205-5.055-1.612-1.179-1.663-1.753-.512-5.708 1.842-6.331 2.088-17.504.486-22.046-.748-2.118-1.125-3.851-.84-3.851.286 0-.492-1.8-1.728-4-1.237-2.2-2.565-4-2.953-4-.388 0-.652-.562-.588-1.25.065-.687-.255-5.245-.711-10.129-.566-6.062-.491-9.088.238-9.538.731-.452.622-1.516-.347-3.383-1.245-2.4-1.211-3.084.284-5.757 1.597-2.856 1.597-3.091-.011-4.015-1.045-.599-1.465-1.618-1.081-2.618.421-1.096.242-1.399-.541-.915-.644.398-1.17.439-1.17.093 0-1.06 2.786-3.488 4.002-3.488.63 0 .972-.787.762-1.75-.211-.963-.919-1.638-1.573-1.5-1.885.396-1.383-1.554.559-2.173 1.104-.352 1.831-1.72 1.971-3.706.121-1.732.908-3.909 1.75-4.839 1.846-2.04 2.008-5.699.279-6.299-.687-.238-3.995-.219-7.349.042l-6.099.475-.64-3.875c-.352-2.131-.645-6.137-.651-8.902-.026-11.842-3.082-12.603-52.511-13.067-34.599-.324-56.173-1.206-81-3.31-4.95-.42-22.275-.666-38.5-.546-16.225.119-43.675.329-61 .465-17.325.137-45.225-.044-62-.403-16.775-.358-47.375-.868-68-1.133-20.625-.264-45.825-1.129-56-1.92-10.175-.792-30.786-1.758-45.802-2.148-16.637-.431-26.941-1.068-26.38-1.629.506-.506 1.542-1.04 2.301-1.185 1.713-.329 6.869-2.496 8.881-3.733.825-.507 2.288-1.186 3.25-1.51.962-.323 1.75-.985 1.75-1.471 0-.485.513-.883 1.139-.883.627 0 3.334-1.35 6.015-3 2.682-1.65 5.544-3 6.361-3 .817 0 1.485-.42 1.485-.933 0-.513.986-1.245 2.192-1.628 1.206-.383 5.039-2.438 8.518-4.567 3.479-2.13 6.712-3.872 7.185-3.872.473 0 1.375-.621 2.005-1.379.63-.759 2.372-1.628 3.872-1.932 1.501-.303 3.741-1.5 4.978-2.659 1.238-1.159 2.264-1.753 2.282-1.319.017.434.59.114 1.273-.711.683-.825 2.131-2.05 3.218-2.723l10.287-6.353c4.571-2.822 9.474-6.209 10.896-7.527 1.422-1.319 2.928-2.397 3.345-2.397.418 0 2.544-1.463 4.726-3.25 2.181-1.787 5.936-4.482 8.344-5.987 2.409-1.506 6.404-4.316 8.879-6.245 2.475-1.93 6.3-4.703 8.5-6.163 2.2-1.459 4.273-3.071 4.607-3.581.632-.968 1.746-1.757 11.488-8.146 3.248-2.129 6.355-4.388 6.905-5.02.55-.631 3.947-2.979 7.549-5.216 3.602-2.237 7.427-4.791 8.5-5.674 4.523-3.725 14.271-10.605 18.451-13.023 2.475-1.432 7.2-5.106 10.5-8.165 3.3-3.059 7.246-6.332 8.77-7.273 1.523-.941 2.55-2.284 2.281-2.984-.268-.7.104-1.273.827-1.273.724 0 2.377-.92 3.674-2.045 1.297-1.125 3.954-3.014 5.903-4.197 1.95-1.184 3.77-2.401 4.045-2.705.894-.988 4.456-3.096 6.25-3.699.962-.323 1.75-.985 1.75-1.471 0-.485.498-.883 1.106-.883.608 0 2.52-1.132 4.25-2.515 4.681-3.745 4.71-3.763 10.644-6.798 6.645-3.399 8.845-4.719 11.14-6.687.962-.825 3.912-2.618 6.555-3.985s5.4-3.055 6.126-3.75c.727-.696 1.759-1.265 2.293-1.265.534 0 1.514-.453 2.178-1.006.664-.553 5.258-4.237 10.208-8.187 4.95-3.95 9.588-7.997 10.307-8.994.718-.997 1.851-1.813 2.518-1.813.666 0 2.89-1.141 4.943-2.536 2.053-1.395 3.732-2.049 3.732-1.455 0 2.388 17.648-3.448 18.833-6.227.184-.43.767-.782 1.296-.782s2.107-1.145 3.506-2.544c2.897-2.898 2.573-5.585-.574-4.762-2.313.605-2.526.043-1.038-2.738.735-1.373 1.859-1.814 3.988-1.566 1.746.203 3.461-.253 4.172-1.111 1.028-1.238 1.336-1.109 2.066.864.842 2.276.929 2.241 4.804-1.956 2.171-2.35 3.947-4.618 3.947-5.039 0-.421-2.295-.822-5.1-.89-2.805-.069-5.367-.391-5.692-.717-.525-.525 9.435-10.61 18.878-19.115 3.648-3.286 10.512-10.837 15.414-16.958 1.65-2.061 3.45-4.246 4-4.857.55-.611 2.327-2.911 3.949-5.111 1.621-2.2 3.828-4.787 4.903-5.75 1.075-.962 1.628-1.75 1.23-1.75-.399 0-.062-.663.749-1.473.81-.811 2.454-3.061 3.653-5 1.198-1.94 2.592-3.527 3.098-3.527.505 0 .923-.562.929-1.25.005-.687 1.801-3.5 3.989-6.25 2.188-2.75 3.984-5.357 3.989-5.793.01-.732 7.644-11.576 8.947-12.707.316-.275 1.764-2.075 3.218-4 1.453-1.925 3.476-4.4 4.495-5.5 1.02-1.1 2.936-4.138 4.259-6.75 1.324-2.613 2.741-4.75 3.15-4.75.41 0 1.617-1.462 2.685-3.25 2.007-3.363 5.4-7.485 11.007-13.373 1.787-1.878 3.25-3.825 3.25-4.328 0-.503.803-1.169 1.784-1.48.981-.312 2.521-1.805 3.423-3.318.901-1.513 2.48-3.651 3.508-4.751 1.027-1.1 3.64-4.7 5.804-8 2.165-3.3 4.498-6.583 5.184-7.297.686-.713 1.956-2.79 2.822-4.615.866-1.825 2.47-4.279 3.564-5.453 1.094-1.174 1.691-2.135 1.328-2.135-.364 0-.102-.675.583-1.5.685-.825.852-1.507.372-1.515-.479-.009-.398-.346.181-.75 1.435-1.002 5.776-8.235 4.942-8.235-.367 0 .721-1.889 2.418-4.197 1.698-2.308 3.087-4.783 3.087-5.5 0-.717.346-1.303.768-1.303.749 0 5.873-11.003 5.589-11.999-.078-.276.629-2.076 1.571-4.001.942-1.925 2.296-5.525 3.007-8 .711-2.475 1.632-5.4 2.046-6.5.852-2.263 2.275-7.781 4.643-18 .892-3.85 2.016-7.9 2.497-9 .481-1.1 1.01-2.9 1.176-4 .165-1.1.847-2.994 1.515-4.209.668-1.216 1.156-2.566 1.083-3-.072-.435-.044-1.016.063-1.291.107-.275.344-1.273.525-2.218.182-.944 1.233-4.769 2.336-8.5 1.103-3.73 2.04-8.652 2.082-10.938.043-2.286.579-5.436 1.193-7 1.005-2.562 1.383-5.722 2.254-18.878.147-2.219.549-4.49.894-5.048.344-.558.493-2.23.33-3.716-.163-1.486.018-2.702.403-2.702.386 0 .762-1.627.837-3.616.075-1.989.662-4.25 1.304-5.024.643-.775.933-1.645.644-1.933-.289-.289-.096-2.416.428-4.726.524-2.311 1.112-5.428 1.307-6.927.194-1.5.857-5.153 1.473-8.119.616-2.966 1.046-5.789.957-6.274-.089-.485-.07-1.106.043-1.381.112-.275.34-1.85.506-3.5.167-1.65.589-5.25.939-8 1.392-10.941 1.721-17.5.879-17.5-.488 0-.711-3.037-.496-6.75.71-12.262.688-21.6-.078-33.75-.868-13.746-.959-14.581-4.314-39.5-5.429-40.331-7.579-56.696-8.013-61-.403-4.001-1.462-11.479-4.461-31.5-.495-3.3-1.326-10.554-1.847-16.12-.521-5.566-1.64-11.778-2.487-13.805-1.589-3.802-4.114-15.562-5.599-26.075-2.221-15.72-5.008-29.312-11.141-54.315-1.661-6.773-2.799-12.89-2.529-13.594.269-.703-.151-4.161-.936-7.685-1.987-8.928-2.204-9.797-3.326-13.302-1.07-3.344-1.741-6.358-3.105-13.955-1.161-6.461-5.862-22.456-7.613-25.899-.769-1.512-1.173-2.75-.898-2.75s-.986-3.263-2.803-7.25c-1.818-3.988-3.435-7.7-3.595-8.25-1.142-3.93-5.706-13.415-11.066-23-2.153-3.85-4.711-8.687-5.686-10.75-.974-2.062-2.115-3.75-2.535-3.75-.42 0-.764-.414-.764-.92s-2.904-5.569-6.454-11.25c-3.55-5.682-8.387-14.155-10.75-18.83-2.363-4.675-4.634-8.65-5.046-8.833-.412-.184-.75-1.041-.75-1.906s-1.024-2.965-2.275-4.667-3.582-5.569-5.179-8.594c-1.597-3.025-4.102-7.075-5.567-9-2.979-3.916-6.151-8.299-18.092-25-4.522-6.325-8.484-11.725-8.804-12-.321-.275-2.146-2.75-4.057-5.5-6.419-9.237-16.818-20.441-24.385-26.271-3.222-2.482-7.3-5.912-9.061-7.621-3.193-3.1-4.157-3.917-12.609-10.692-9.201-7.375-25.889-17.954-38.465-24.383-7.147-3.654-13.926-7.518-15.065-8.588-1.138-1.07-2.415-1.945-2.837-1.945-.422 0-2.643-1.529-4.936-3.398-2.292-1.87-9.128-6.353-15.19-9.964-6.062-3.61-11.912-7.38-13-8.378-3.004-2.754-26.37-18.03-40.854-26.71C863.757 98.439 849.034 91 846.827 91c-.508 0-2.814-.932-5.125-2.07-2.311-1.139-6.564-2.971-9.452-4.072S827 82.303 827 81.626s2.25-2.04 5-3.029c2.75-.989 4.988-2.09 4.973-2.447-.026-.613-8.363-5.15-9.462-5.15-.281 0-.511.848-.511 1.884 0 1.514-.637 1.83-3.25 1.612-1.788-.15-3.886.24-4.663.866-1.067.86-1.515.832-1.833-.112-.231-.687-1.058-1.25-1.837-1.25-.779 0-1.417-.675-1.417-1.5 0-.833.889-1.5 2-1.5 3.819 0 2.032-2.829-2.75-4.352-7.75-2.468-16.213-2.996-21.09-1.315-5.193 1.789-12.107 1.004-20.16-2.29-9.495-3.883-16.572-5.875-28.714-8.082-6.469-1.176-12.06-2.321-12.422-2.545-.363-.224-4.193-.897-8.512-1.496-7.332-1.016-17.608-3.234-36.852-7.955-21.201-5.202-54.896-7.207-74.36-4.426m14.36 16.083c-9.71.699-15.661 1.55-15.057 2.154.576.577 4.937.461 10.557-.28 1.375-.181 6.962-.367 12.417-.413 5.454-.045 9.642-.357 9.306-.693-.785-.785-10.78-1.231-17.223-.768M645 55c0 .55 1.913.968 4.25.93 3.292-.055 3.799-.264 2.25-.93-2.789-1.198-6.5-1.198-6.5 0m-61 5.61c-5.225 1.331-14.225 3.362-20 4.513-10.769 2.145-15.58 3.788-11.264 3.847 2.26.03 3.564-.236 19.764-4.034 4.95-1.161 12.938-2.812 17.75-3.67 4.813-.858 8.75-1.944 8.75-2.413 0-1.391-4.899-.817-15 1.757m88-.717c0 .609.702 1.107 1.559 1.107s1.281.45.941 1c-.367.594.725.971 2.691.93 2.694-.058 2.937-.22 1.309-.876-1.867-.751-1.833-.837.5-1.293 2.192-.428 2.11-.505-.668-.625-1.743-.075-3.88-.409-4.75-.743-.87-.334-1.582-.109-1.582.5m-91.75 9.83c-1.788.222-3.25.825-3.25 1.34 0 1.28 2.8 1.054 7-.563 3.498-1.347 2.505-1.553-3.75-.777M539 70.969c-1.375.447-6.775 1.826-12 3.067-5.225 1.24-9.749 2.636-10.054 3.102-.305.466-2.78 1.12-5.5 1.454-2.72.335-7.196 1.409-9.946 2.389-2.75.979-6.909 2.098-9.242 2.486-2.334.389-6.494 1.792-9.245 3.12-2.752 1.327-5.793 2.447-6.758 2.489-.965.042-3.33.713-5.255 1.491l-3.5 1.414 4.5-.587c2.475-.322 7.65-1.623 11.5-2.89 3.85-1.267 10.15-3.079 14-4.026 3.85-.948 7.45-2.05 8-2.449.55-.4 6.85-2.213 14-4.029 7.15-1.816 13.472-3.665 14.05-4.107.577-.443 2.939-1.108 5.25-1.477 2.31-.369 4.2-1.064 4.2-1.544 0-1.018-.608-1.003-4 .097m300.5 3.953c-1.92.751-1.907.812.325 1.521 1.279.407 2.592.474 2.917.148.325-.325.04-.591-.634-.591s-.948-.45-.608-1c.702-1.136.707-1.136-2-.078m18.5 30.971c0 .457 3.569 2.58 7.932 4.719 6.323 3.1 7.945 4.344 8 6.138.037 1.241.629 2.138 1.318 2 .688-.138 1.152.27 1.032.905-.143.757.625.929 2.231.5 3.873-1.036 3.144-2.355-3.149-5.695-3.225-1.712-7.664-4.236-9.864-5.609-4.846-3.025-7.5-4.072-7.5-2.958m-179.736 7.825c1.52.229 3.77.223 5-.014 1.23-.237-.014-.425-2.764-.418-2.75.008-3.756.202-2.236.432m193.487 8.433c1.475 1.475 7.499 5.141 13.249 8.063 2.475 1.257 5.116 2.87 5.869 3.584.753.713 1.653 1.01 2 .66.347-.351-.719-1.715-2.369-3.033-1.65-1.318-3.051-3.303-3.113-4.411-.137-2.431.017-2.45 3.148-.399 1.434.94 2.465 1.164 2.465.535 0-.594-1.003-1.617-2.229-2.273-1.227-.656-2.834-1.797-3.572-2.535-.738-.738-2.772-1.29-4.52-1.226-2.129.078-2.519.278-1.179.608 2.978.732 4.383 2.178 4.22 4.343-.204 2.71-1.496 2.438-7.444-1.567-5.082-3.423-9.014-4.838-6.525-2.349M345.422 157c0 11.275.146 15.887.324 10.25.178-5.637.178-14.863 0-20.5-.178-5.637-.324-1.025-.324 10.25m582.23-8.778c-.312 1.196-.082 2.76.512 3.476.595.716.758 1.302.364 1.302-.395 0 1.186 1.59 3.511 3.533 4.504 3.762 5.822 3.944 4.007.553-1.381-2.581-.013-2.765 3.489-.471 1.356.888 2.465 1.165 2.465.615s-1.23-1.806-2.734-2.791c-1.503-.985-3.865-2.865-5.25-4.177-4.258-4.038-5.719-4.506-6.364-2.04m20.381 7.528c.057 1.272 3.436 4.895 5.693 6.103 3.822 2.046 3.757 1.226-.226-2.853-3.721-3.811-5.54-4.892-5.467-3.25m-9.314 7.895c-.732 1.185 5.357 7.251 13.281 13.23 6.367 4.803 10.493 8.074 12.549 9.946.798.727 1.451.895 1.451.373s-.683-1.516-1.518-2.209c-.836-.693-2.235-2.77-3.11-4.614-.875-1.844-1.958-3.127-2.406-2.85-.449.277-2.299-.852-4.114-2.509-1.814-1.656-4.124-3.012-5.134-3.012-1.01 0-1.561-.445-1.225-.989.364-.589-.117-.727-1.191-.34-.991.356-1.468.28-1.061-.17 1.035-1.141-1.13-3.501-3.211-3.501-.948 0-2.164-.985-2.701-2.189-.545-1.221-1.257-1.737-1.61-1.166m16.858 4.925c2.708 2.513 6.273 5.257 7.923 6.097 2.794 1.423 2.725 1.26-1-2.375-4.233-4.13-9.792-8.292-11.078-8.292-.422 0 1.447 2.056 4.155 4.57M949 180.843c0 1.312 7.753 7.417 8.878 6.991.483-.184-1.317-2.054-4-4.157S949 180.299 949 180.843M345.355 190.5c-.003 4.95.166 7.101.376 4.78.209-2.321.212-6.371.005-9-.206-2.629-.378-.73-.381 4.22M804 182.49c0 .685 6.123 3.72 6.58 3.263.217-.217-1.174-1.143-3.093-2.058-1.918-.914-3.487-1.456-3.487-1.205m-157.238 4.217c1.244.239 3.044.23 4-.02s-.062-.446-2.262-.435c-2.2.011-2.982.216-1.738.455M495.5 188c-2.548 1.095.081 1.095 3.5 0 2.01-.644 2.108-.806.5-.83-1.1-.016-2.9.357-4 .83m485.689 11.158c.788 1.187 2.527 2.563 3.864 3.057 2.344.868 2.326.791-.498-2.158-3.373-3.52-5.48-4.083-3.366-.899m17.311 15.196c5.5 5.274 10.45 9.602 11 9.616 1.386.036-15.775-16.524-18.66-18.005-1.287-.661 2.16 3.114 7.66 8.389m-8.5 1.697c0 .902 5.807 3.949 7.527 3.949 1.35 0-.783-1.981-3.701-3.437-3.714-1.853-3.826-1.868-3.826-.512M345.31 221.5c.005 3.3.192 4.529.415 2.732.222-1.797.218-4.497-.01-6-.229-1.503-.411-.032-.405 3.268m672.69 7c3.548 3.66 4.603 4.357 3.41 2.25-1.323-2.336-4.755-5.75-5.78-5.75-.562 0 .504 1.575 2.37 3.5m-672.748 5c.011 2.2.216 2.982.455 1.738.239-1.244.23-3.044-.02-4s-.446.062-.435 2.262M522.5 246l-2 .859 2 .055c1.1.031 2.675-.381 3.5-.914 1.333-.862 1.333-.963 0-.914-.825.03-2.4.441-3.5.914m-177.151 29c0 4.675.173 6.587.383 4.25.211-2.337.211-6.163 0-8.5-.21-2.337-.383-.425-.383 4.25m.029 25c0 6.325.163 8.913.361 5.75.198-3.163.198-8.337 0-11.5-.198-3.163-.361-.575-.361 5.75M1066 295.443c0 1.183 4.313 7.557 5.113 7.557.503 0-.276-1.8-1.732-4-2.445-3.695-3.381-4.68-3.381-3.557m21.028 9.307c1.225 2.063 4.366 7.575 6.98 12.25 7.767 13.886 8.436 14.947 9.742 15.453 1.601.62 1.589.039-.034-1.632-1.226-1.262-3.869-5.606-8.711-14.321-3.691-6.644-9.26-15.5-9.746-15.5-.251 0 .545 1.688 1.769 3.75M345.382 324.5c.002 6.6.164 9.17.359 5.711.196-3.459.195-8.859-.003-12s-.358-.311-.356 6.289m745.959 13.14c2.578 4.895 4.9 7.238 2.581 2.605-1.171-2.34-2.57-4.527-3.108-4.86-.539-.333-.301.682.527 2.255M345 399.5c0 30.708.23 55.603.511 55.322.666-.665.661-109.984-.005-110.649-.278-.278-.506 24.619-.506 55.327m757.219-42.75c.213.413 1.156 2.438 2.097 4.5 1.462 3.205 3.684 5.097 3.684 3.136 0-1.341-4.425-8.386-5.267-8.386-.495 0-.726.337-.514.75M1115 369c0 .55.45 1 1 1s1 .595 1 1.323c0 2.208 9.227 20.265 9.697 18.976.527-1.448-9.603-22.299-10.834-22.299-.474 0-.863.45-.863 1m-793.655 23.543c-.81 2.11.542 3.25 1.694 1.428 1.224-1.936 1.2-2.971-.07-2.971-.568 0-1.298.694-1.624 1.543m806.219 1.957c.932 4.897 5.762 18.021 6.176 16.78.482-1.445-3.165-13.365-5.21-17.027l-1.536-2.753.57 3m-255.418 41.082c.691 1.605 2.066 4.112 3.055 5.572.99 1.46 1.799 3.373 1.799 4.25 0 .878.48 1.596 1.067 1.596 1.093 0 .277-4.043-1.009-5-.369-.275-1.257-1.948-1.972-3.717-.716-1.769-1.953-3.757-2.749-4.418-1.252-1.039-1.278-.807-.191 1.717M860 440.346c0 2.437 3.118 7.654 4.573 7.654 1.918 0 1.831-.399-1.086-5.02-2.655-4.206-3.487-4.834-3.487-2.634m150.597 2.546c.871 3.316 4.354 10.859 4.381 9.486.012-.617-1.11-3.542-2.494-6.5-1.383-2.958-2.233-4.302-1.887-2.986M345.411 489c0 9.625.15 13.563.334 8.75.183-4.812.183-12.687 0-17.5-.184-4.812-.334-.875-.334 8.75M893 476.124c0 .313.619 1.875 1.375 3.472a185.752 185.752 0 0 1 2.745 6.154c.752 1.788 1.692 3.25 2.089 3.25.862 0-2.58-8.264-4.707-11.3-.826-1.18-1.502-1.889-1.502-1.576M345.31 516.5c.005 3.3.192 4.529.415 2.732.222-1.797.218-4.497-.01-6-.229-1.503-.411-.032-.405 3.268m.099 23c-.001 9.35.149 13.31.334 8.799.185-4.51.186-12.16.002-17-.183-4.839-.335-1.149-.336 8.201m.606 192.417c-.008 4.629.17 8.229.395 8 .94-.955 1.405-13.596.55-14.948-.616-.973-.935 1.371-.945 6.948m839.055-.834c.039 4.08.412 8.289.829 9.354.417 1.066.591-2.066.387-6.959-.456-10.901-1.312-12.589-1.216-2.395M334.31 732.5c.005 3.3.192 4.529.415 2.732.222-1.797.218-4.497-.01-6-.229-1.503-.411-.032-.405 3.268m15.989 3.836c.351.915.202 1.664-.33 1.664-.533 0-.969 1.548-.969 3.441 0 1.893-.498 3.749-1.107 4.125-.732.453-.762.897-.089 1.313.636.393.725 2.228.237 4.896-.429 2.348-.389 4.51.089 4.806.966.597.944.703 1.192-5.581.098-2.475.554-4.775 1.013-5.111 1.452-1.064 1.905-9.623.553-10.458-.852-.527-1.033-.25-.589.905m834.774 14.164a64.308 64.308 0 0 1-.58 3.881c-.238 1.265-.024 1.55.654.872.555-.555.817-2.302.581-3.881-.282-1.89-.506-2.188-.655-.872m-.683 7.927c-.302.785-.381 2.473-.176 3.75.274 1.709.507 1.332.879-1.427.523-3.882.246-4.798-.703-2.323m-837.757 4.088c-1.038 2.704-.747 6.674.435 5.943.588-.363.848-1.235.578-1.937-.269-.703.015-1.782.632-2.399.795-.795.811-1.433.055-2.189-.757-.757-1.252-.587-1.7.582m-3.885 8.575c-1.09 1.915-1.44 3.639-.925 4.558 1.308 2.338 3.384-.836 2.995-4.578l-.318-3.06-1.752 3.08M1176 779.941c0 1.682.173 3.059.383 3.059.849 0 1.288-5.085.483-5.583-.476-.294-.866.842-.866 2.524m-256.333 4.726c-.367.366-.667 2.691-.667 5.166 0 4.584.941 5.249 1.422 1.005.146-1.286.591-3.351.989-4.588.686-2.132-.3-3.027-1.744-1.583m202.134 169.083c-.829.962-2.17 3.123-2.978 4.8-1.341 2.782-1.32 3.062.241 3.18 1.134.085 1.569-.438 1.288-1.551-.233-.923.717-2.897 2.112-4.385 1.395-1.489 2.536-2.951 2.536-3.25 0-1.135-1.749-.475-3.199 1.206m3.229 7.5c-1.656 2.888-3.015 5.688-3.021 6.223-.011 1.193 2.741-2.619 2.787-3.861.018-.489.418-1.164.889-1.5 1.003-.717 3.487-6.112 2.814-6.112-.252 0-1.813 2.362-3.469 5.25m-7.423 13.332c-1.094 2.851-.636 3.839.861 1.859.808-1.067 1.483-2.278 1.5-2.691.059-1.397-1.75-.76-2.361.832m-15.177 24.668c-.387 1.237-1.992 4.131-3.567 6.43-1.575 2.299-2.863 4.662-2.863 5.25 0 .589-.45 1.07-1 1.07s-1 .408-1 .906c0 .498 1.104.386 2.453-.25 2.527-1.191 5.059-5.2 4.676-7.406-.119-.687.478-1.25 1.327-1.25 1.664 0 1.718-.116 1.969-4.25.203-3.318-1.017-3.624-1.995-.5m-7.965 3-1.585 3.25 2.038-2.5c1.962-2.407 2.602-4 1.608-4-.261 0-1.188 1.462-2.061 3.25m9.723 11.5c-1.783 3.712-2.519 5.85-1.635 4.75 2.395-2.982 6.601-11.5 5.678-11.5-.441 0-2.26 3.038-4.043 6.75m-12.254 3.373c-1.512 2.825-.678 3.257 1.926.998 1.795-1.556 1.914-1.994.676-2.469-.908-.348-1.941.236-2.602 1.471m12.102 4.81c-.569 1.063-1.513 3.2-2.098 4.75-1.555 4.117.588 1.519 2.418-2.933 1.628-3.959 1.429-5.086-.32-1.817m-16.795 9.053c-.683 1.093-1.241 2.668-1.241 3.5 0 .833-.399 1.514-.887 1.514-.487 0-1.084 1.347-1.325 2.992-.242 1.646-.222 2.775.044 2.509s1.057-.008 1.756.572c.941.781 1.572.497 2.423-1.094 1.525-2.85.388-3.847-1.603-1.406-1.448 1.776-1.526 1.784-.99.095.32-1.007.582-2.294.582-2.858 0-.621 1.087-.754 2.748-.337 1.511.379 2.42.361 2.018-.04-.401-.402.234-1.566 1.413-2.588 1.178-1.022 1.808-2.192 1.4-2.6-.409-.408-1.318.045-2.021 1.007-1.859 2.542-3.356 2.14-2.803-.752.577-3.017.141-3.165-1.514-.514m-33.46 40.286a5715.71 5715.71 0 0 1-4.75 5.631c-1.117 1.322-2.031 2.845-2.031 3.385 0 .54.952-.229 2.117-1.709l2.116-2.691 1.483 2.117c1.325 1.891 1.302 2.317-.208 3.987-1.598 1.765-1.587 1.841.2 1.374 1.04-.272 2.435-1.366 3.1-2.43 1.008-1.615.941-1.936-.407-1.936-1.049 0-1.406-.544-1.019-1.552.341-.89.173-1.291-.393-.941-1.464.904-1.201-2.15.317-3.686 1.143-1.156 3.004-4.858 2.413-4.799-.121.011-1.443 1.474-2.938 3.25m-10.224 13.008c-1.01 1.221-2.561 3.089-3.446 4.151-1.592 1.909-1.58 1.909 1.043 0 2.705-1.968 5.286-5.325 4.612-5.998-.205-.205-1.199.626-2.209 1.847m5.193 2.469c-.963.219-1.75 1.026-1.75 1.793 0 .868-.604 1.163-1.599.782-1.389-.533-1.428-.34-.294 1.475 1.087 1.741 1.062 2.399-.151 3.951-.801 1.023-.331.666 1.044-.794 6.136-6.515 6.746-8.114 2.75-7.207m-12.043 16.751c-2.636 3.304-2.928 4.982-.386 2.219 3.601-3.914 4.89-5.719 4.084-5.719-.498 0-2.162 1.575-3.698 3.5m-5.707 34.333c0 .642-.482 1.167-1.071 1.167-1.121 0-3.929 2.446-3.929 3.422 0 .311 1.013.411 2.25.222 1.237-.189 2.257-.748 2.265-1.244.009-.495.391-1.492.85-2.217.46-.724.565-1.586.235-1.916-.33-.33-.6-.075-.6.566m-153.101 73.879c1.061.42.818 1.027-1 2.504l-2.399 1.951 3.196-1.767c3.27-1.809 3.517-3.462.495-3.321-1.259.059-1.334.22-.292.633m164.851 329.011c1.787.222 4.713.222 6.5 0 1.787-.221.325-.403-3.25-.403s-5.037.182-3.25.403m-256.486 43.995c1.52.229 3.77.223 5-.014 1.23-.237-.014-.425-2.764-.418-2.75.008-3.756.202-2.236.432m351.986 38.998c1.513.229 3.987.229 5.5 0s.275-.416-2.75-.416-4.263.187-2.75.416M358 1648.838c0 .461 2.137.883 4.75.939 3.495.074 4.221-.129 2.75-.768-2.608-1.133-7.5-1.244-7.5-.171m26.083 24.529c.23.202 2.149.681 4.265 1.064 2.621.474 3.639.357 3.191-.367-.361-.585-2.28-1.064-4.265-1.064-1.984 0-3.42.165-3.191.367M399 1690.905c-2.94.57-2.139.821 5 1.565 11.357 1.184 12.86 1.235 14.087.476.576-.356-1.694-.934-5.045-1.284s-7.094-.816-8.317-1.036c-1.224-.22-3.8-.094-5.725.279" fill-rule="evenodd"/></svg>