<svg xmlns="http://www.w3.org/2000/svg" width="1240" height="1753"><path d="M842 121.634c-14.575.682-54.625 1.591-89 2.02-72.454.903-59.197.848-136.5.573-33.55-.119-68.875-.062-78.5.126-13.61.267-74.7.574-89 .448-2.423-.022-19.19.414-66 1.715-12.375.344-26.1 1.053-30.5 1.577-4.4.523-18.575.886-31.5.806-30.522-.188-33.371-.147-46.861.675-8.304.506-12.879.321-17-.687-3.5-.856-9.622-1.269-16.139-1.089-5.775.159-24.45.408-41.5.552-29.282.248-31.693.411-43.5 2.937-14.226 3.044-27.334 7.046-26.338 8.041.369.37-.079.672-.995.672-1 0-1.667.8-1.667 2 0 1.62.712 2.026 3.75 2.136 2.321.084 2.893.301 1.5.57-1.238.238-2.25 1.107-2.25 1.931 0 .953.636 1.313 1.75.99 5.601-1.626 10.331-2.581 14.75-2.978 2.75-.248 7.475-.781 10.5-1.185 5.778-.772 6.127.235.702 2.019-2.322.763-3.183 1.642-3.132 3.196.052 1.594-.681 2.293-2.858 2.729-2.076.415-2.761 1.023-2.352 2.089.318.826.141 1.503-.391 1.503-.533 0-.969-.623-.969-1.384 0-1.177-1.073-1.179-7.181-.015-3.95.752-7.438 1.758-7.75 2.234-.313.476-1.244 1.105-2.069 1.399-1.22.433-1.148.678.382 1.307 1.083.446 2.677.279 3.75-.392 1.152-.719 1.868-.779 1.868-.157 0 .554.675 1.008 1.5 1.008s1.5-.398 1.5-.883c0-.486.965-1.136 2.144-1.444 1.609-.421 1.859-.276 1 .583-.629.629-1.144 1.475-1.144 1.879 0 .882 21.779.12 23.292-.815.581-.359 12.49-.751 26.465-.87 20.592-.176 24.966.016 23.076 1.012-1.283.675-2.697.911-3.143.523-.445-.387-2.695-.373-5 .031-2.304.405-10.49.869-18.19 1.031-7.7.163-16.475.36-19.5.437-8.792.226-19 2.482-19 4.198 0 1.081.737 1.326 2.75.914 1.512-.31 7.206-.818 12.652-1.13 5.446-.312 10.171-.598 10.5-.635 2.98-.338 7.097.361 6.625 1.125-.325.526-1.203.722-1.951.435s-7.596.024-15.218.691c-7.622.668-15.507 1.202-17.523 1.187-2.648-.019-3.791.454-4.117 1.703-.298 1.138-1.891 1.96-4.656 2.402-5.203.832-9.062 3.262-9.062 5.706 0 2.283 3.567 4.331 5.828 3.346.92-.4 3.148-.813 4.952-.917 4.195-.242 3.711 1.614-.811 3.108-1.859.614-3.55 1.627-3.758 2.25-.208.623-.989 1.133-1.735 1.133-2.019 0-2.937 2.095-1.354 3.089.758.476 2.151.625 3.096.331 1.534-.477 1.596-.181.575 2.773-.629 1.819-1.808 3.801-2.62 4.404-.964.717-1.109 1.325-.418 1.751 1.432.885.35 4.652-1.336 4.652-1.705 0-3.419 3.142-3.419 6.268 0 1.319-.312 2.71-.692 3.091-1.302 1.302-1.352 4.996-.079 5.804.942.598.846.81-.372.822-2.426.022-3.296 3.221-1.278 4.696 1.221.893 1.521 2.068 1.086 4.245-.375 1.876-.143 3.304.616 3.792.723.463 1.219 3.085 1.219 6.437 0 3.11-.337 5.446-.75 5.191-.412-.255-.75-.025-.75.512 0 .536.563 1.167 1.25 1.402.999.342.998 1.11-.007 3.831-.798 2.162-.892 3.526-.259 3.737.549.183.287 1.044-.583 1.914-1.091 1.091-1.392 2.537-.971 4.669.336 1.699.857 4.889 1.158 7.089.302 2.2.925 4.136 1.385 4.302.461.166.392 1.915-.153 3.888-.734 2.659-.672 3.783.24 4.347.864.534.666.87-.665 1.127-1.47.284-1.907 1.261-1.951 4.351-.065 4.698-.576 6.72-1.944 7.704-.659.474-.621 1.332.11 2.513.697 1.126.789 2.659.248 4.123-.474 1.281-.641 2.686-.372 3.122.27.437-.015 2.243-.633 4.016-.899 2.576-.846 3.397.262 4.099.762.483.921.884.353.893-.567.008-1.133 1.233-1.256 2.721s-.671 3.153-1.218 3.7c-1.421 1.421-1.23 10.929.256 12.71 2.528 3.031 9.361 6.506 13.25 6.738 2.2.132 6.475.994 9.5 1.918 4.722 1.441 5.103 1.727 2.691 2.025-1.545.191-3.056.99-3.357 1.775-.301.785-1.512 1.396-2.691 1.358-2.084-.069-2.088-.094-.143-.93 2.201-.946 2.045-1.144-1.172-1.487-1.195-.128-4.007-.526-6.25-.885-2.513-.401-4.078-.263-4.078.36 0 .557.505 1.012 1.122 1.012.785 0 .756.443-.099 1.472-1.691 2.038.859 4.472 5.467 5.22 3.708.602 4.868 2.308 1.569 2.308-3.335 0-3.196 1.74.201 2.511 1.782.404 10.199.856 18.704 1.005 9.22.161 15.6.675 15.799 1.274.185.553-.699.985-1.964.961-1.264-.024-8.149.024-15.299.107-7.15.082-15.138-.136-17.75-.484-3.238-.432-4.75-.274-4.75.496 0 1.538-2.723 1.438-3.28-.12-.245-.687-.786-.934-1.202-.548-1.545 1.436 2.055 3.514 5.269 3.043 1.85-.272 3.213-.033 3.213.562 0 1.731 15.981 3.039 23.227 1.901 2.015-.316 2.881.058 3.317 1.432.325 1.023 1.01 1.86 1.523 1.86 1.419 0 1.114-1.99-.317-2.07-.687-.039-.469-.38.486-.759.955-.378 3.784-.525 6.287-.326 3.689.294 4.338.618 3.427 1.715-.617.744-.789 1.892-.382 2.551.452.731.318.936-.344.527a1.274 1.274 0 0 0-1.75.404c-.378.612-1.875.809-3.474.458-1.581-.347-3.096-.154-3.464.441-.36.583-.001 1.059.798 1.059s1.698.64 1.998 1.422c.362.945 1.747 1.326 4.132 1.137 1.973-.156 3.828.104 4.121.578.293.475-.656.863-2.109.863-3.541 0-2.71 2.319 1.106 3.088l2.918.588-2.75.77c-1.512.424-3.884.486-5.271.138-2.504-.628-6.479.767-6.479 2.274 0 .434 2.213.755 4.918.715 3.891-.058 5.457.433 7.5 2.351 2.89 2.714 3.278 4.076 1.161 4.076-.781 0-1.715 1.345-2.076 2.989-.864 3.929-1.679 4.312-7.485 3.513-3.64-.5-4.751-1.034-4.347-2.087.446-1.164-1.298-1.416-9.814-1.423-5.696-.005-14.305-.461-19.13-1.014-17.325-1.985-18.358 1.549-2.227 7.617 3.226 1.214 10.787 1.411 12.106.317.821-.682 1.426-.669 1.864.039.845 1.368 8.53 1.367 8.53-.001 0-.688.577-.727 1.674-.112 1.059.592 2.759.558 4.628-.093 2.052-.716 4.392-.697 7.671.059 4.763 1.1 9.027.68 9.027-.889 0-.469.675-.593 1.5-.277.839.322 1.5.027 1.5-.67 0-.907 1.354-1.086 4.972-.658 2.757.327 5.234.166 5.559-.36.323-.523 2.184-.95 4.135-.95 2.743 0 3.417-.34 2.972-1.5-.316-.825-.139-1.5.393-1.5.533 0 .969-.675.969-1.5 0-1-1-1.5-3-1.5s-3 .5-3 1.5c0 2.502-9.094 2.549-11.583.06-1.413-1.413-1.177-1.56 2.512-1.56 4.57 0 5.176-1.307 1.916-4.134l-2.155-1.869 2.583.214c1.421.117 2.364.568 2.096 1.001-.268.433.44.788 1.572.788 1.132 0 2.059-.45 2.059-1 0-1.869 3.862-1.01 4.5 1 .356 1.122 1.513 2 2.635 2 1.516 0 1.853-.464 1.391-1.917-.497-1.568-.224-1.817 1.499-1.366 1.158.303 3.231-.051 4.606-.787 1.879-1.006 2.678-1.048 3.222-.168.512.829 5.435 1.106 16.935.953 8.917-.118 16.213.122 16.213.535-.001.413-.901.75-2.001.75-1.1 0-2 .429-2 .953 0 .535 3.179.864 7.25.75 6.723-.188 7.274-.369 7.575-2.492.312-2.201.642-2.278 8.5-2 7.143.252 8.138.51 7.881 2.039-.226 1.348.406 1.75 2.75 1.75 3.282 0 4.514-2.934 1.294-3.079-.962-.043-1.3-.266-.75-.495.55-.229 3.025-.018 5.5.469s3.712.935 2.75.995c-2.802.176-2.016 2.11.857 2.11 1.839 0 2.447-.418 2.063-1.417-.299-.78.14-1.68.975-2 2.166-.832 2.356-.748 1.769.781-.35.912.53 1.575 2.656 2 4.773.955 5.93.786 5.93-.864 0-.825.675-1.5 1.5-1.5.833 0 1.5.889 1.5 2 0 1.736.667 2 5.059 2 3.118 0 4.822-.384 4.441-1-.358-.579.61-1 2.302-1 2.576 0 2.864.295 2.443 2.5-.383 2.002-.074 2.5 1.55 2.5 1.571 0 1.967-.565 1.754-2.5-.25-2.279.046-2.487 3.339-2.35 3.144.13 3.246.205.783.574-1.76.264-2.645.901-2.343 1.688.267.695-.21 2.7-1.06 4.454-.85 1.755-1.326 3.409-1.058 3.677.268.268 2.547.577 5.065.686 2.518.11 4.415.463 4.216.785-.414.671 103.892.261 113.009-.444 3.3-.255 9.6-.495 14-.533 4.4-.038 11.15-.629 15-1.312 3.85-.683 8.859-.99 11.131-.682 8.144 1.104 111.608-.291 116.369-1.569.825-.221 18.299-.668 38.831-.993 20.532-.326 38.307-.931 39.5-1.345 1.193-.414 8.469-.885 16.169-1.047 7.7-.161 14.374-.522 14.832-.801 1.105-.674 57.398-2.18 101.668-2.72 33.503-.409 35.361-.339 33.037 1.249-1.355.926-4.345 3.258-6.645 5.183a976.28 976.28 0 0 1-10.287 8.437c-3.358 2.716-6.105 5.304-6.105 5.75 0 .447-.397.813-.882.813-.486 0-2.698 1.688-4.917 3.75-2.219 2.063-6.803 6.225-10.188 9.25-3.384 3.025-8.306 7.525-10.937 10-7.928 7.458-13.039 11.45-15.881 12.406-3.299 1.109-15.796 11.178-22.932 18.477-2.895 2.96-5.263 5.098-5.263 4.75 0-.348-.843.154-1.873 1.117-1.03.962-4.711 4-8.18 6.75-3.469 2.75-7.968 6.462-9.998 8.25-2.03 1.787-4.087 3.251-4.57 3.251-.876.001-14.081 10.277-17.879 13.913-1.1 1.053-3.913 2.899-6.25 4.101-2.337 1.203-4.25 2.527-4.25 2.942 0 .416-2.7 2.722-6 5.125s-6 4.728-6 5.165c0 .438-1.185 1.336-2.634 1.996-1.449.66-4.936 3.342-7.75 5.961s-5.663 4.769-6.331 4.778c-.669.01-2.694 1.271-4.5 2.801-1.807 1.531-5.085 3.941-7.285 5.356s-5.575 4.051-7.5 5.858c-3.031 2.844-5.698 4.821-12.821 9.503a65.498 65.498 0 0 0-3.1 2.208c-4.735 3.622-10.004 7.468-18.21 13.292-5.037 3.575-11.003 8.188-13.258 10.25-2.255 2.063-4.412 3.75-4.793 3.75-.381 0-2.858 2.039-5.505 4.531-2.647 2.492-6.471 5.411-8.497 6.487-2.026 1.075-4.276 2.775-5 3.778-.724 1.002-3.752 3.735-6.73 6.072a350.262 350.262 0 0 0-10.5 8.643C537.102 627.208 530.081 633 529.113 633c-.612 0-1.113.438-1.113.974s-1.397 1.697-3.104 2.58c-1.708.883-4.727 3.369-6.709 5.526-1.983 2.156-4.186 3.92-4.896 3.92s-1.291.337-1.291.75-2.981 3-6.625 5.75c-13.553 10.229-17.994 13.506-22.625 16.696-2.613 1.8-4.75 3.577-4.75 3.949 0 .373-3.262 3.21-7.25 6.305a1124.213 1124.213 0 0 0-14.32 11.339 1341.258 1341.258 0 0 1-15 11.89c-4.362 3.398-9.505 7.579-11.43 9.291-1.925 1.712-5.413 4.244-7.75 5.628-2.337 1.383-4.25 2.901-4.25 3.373 0 .472-2.363 2.292-5.25 4.045-2.887 1.753-8.45 5.617-12.362 8.586-3.911 2.969-7.597 5.398-8.191 5.398-.593 0-1.331.408-1.639.906-.49.793 2.673 31.385 3.938 38.094.26 1.375 1.861 13.975 3.558 28 1.698 14.025 4.404 36.3 6.014 49.5 1.611 13.2 3.219 26.391 3.575 29.313l.647 5.314 3.605-.604c2.088-.349 5.288-.02 7.605.784 3.985 1.382 4.003 1.412 4.683 7.79.671 6.295.628 6.45-2.5 9.211-1.751 1.545-4.421 3.064-5.933 3.375-4.339.894-3.229 2.801 2.724 4.677 3.011.95 6.724 2.771 8.25 4.047 2.874 2.403 14.182 10.413 29.776 21.091 4.95 3.389 12.15 8.348 16 11.019 3.85 2.671 12.625 8.67 19.5 13.332 6.875 4.661 15.2 10.345 18.5 12.631 26.514 18.367 41.538 27.958 50.63 32.321 5.846 2.806 11.246 5.715 12 6.465.753.751 4.52 3.095 8.37 5.21 8.695 4.777 18.835 10.809 19.5 11.6.61.726 9.003 5.357 23 12.694 5.775 3.026 13.447 7.208 17.049 9.293 3.602 2.085 9.902 5.462 14 7.505 4.098 2.043 9.701 5.158 12.451 6.922 4.386 2.814 7.478 4.181 19.71 8.715 1.49.552 4.963 2.645 7.717 4.65 2.755 2.005 6.905 4.77 9.223 6.145 2.317 1.375 5.594 3.9 7.282 5.61 1.687 1.711 6.801 5.761 11.364 9 4.562 3.24 11.537 8.255 15.5 11.145 3.962 2.891 8.779 6.113 10.704 7.162 4.21 2.293 20.67 16.926 30.892 27.463 4.066 4.191 8.004 7.62 8.75 7.62a1.36 1.36 0 0 1 1.358 1.353c0 .744 2.363 3.581 5.25 6.304 2.888 2.723 7.692 7.852 10.677 11.397 2.985 3.545 6.167 7.121 7.071 7.946 4.401 4.015 17.771 24.525 25.002 38.352 1.375 2.629 3.315 5.661 4.311 6.738.996 1.076 2.465 3.409 3.265 5.183.8 1.775 1.845 3.902 2.323 4.727 2.128 3.673 7.541 20.682 9.069 28.5 4.557 23.309 1.907 51.7-5.847 62.652-7.426 10.487-12.557 21.792-14.002 30.848-1.395 8.742-2.655 13.066-5.317 18.246-1.059 2.06-1.677 4.146-1.375 4.636.303.49-.094 1.427-.883 2.082-.789.654-2.886 3.518-4.66 6.363-1.775 2.845-3.723 5.623-4.329 6.173-.606.55-2.137 2.35-3.403 4-2.45 3.194-17.436 18.653-21.327 22-2.596 2.233-4.293 3.289-10.825 6.74-2.475 1.307-8.325 4.773-13 7.702-4.675 2.929-10.075 5.992-12 6.806-1.925.815-4.706 2.338-6.18 3.385-2.529 1.796-24.825 9.822-31.32 11.274-1.65.369-5.925 1.496-9.5 2.504a1468.788 1468.788 0 0 1-15 4.115c-4.675 1.255-8.95 2.606-9.5 3.002-2.533 1.827-21.25 4.274-35 4.576-112.873 2.48-113.421 2.463-129-4.106-7.799-3.288-35.02-16.932-36.321-18.205-.727-.711-1.708-1.293-2.179-1.293-.471 0-1.48-.623-2.242-1.385-2.568-2.568-16.178-11.615-17.474-11.615-.706 0-1.284-.378-1.284-.839 0-.462-1.024-1.306-2.275-1.876-4.929-2.246-16.034-12.913-20.286-19.485-2.441-3.774-4.439-7.095-4.439-7.379 0-.284-1.575-2.979-3.5-5.988-1.925-3.01-3.5-6.273-3.5-7.252 0-.98-.421-2.209-.935-2.731-1.129-1.147-4.932-14.069-6.119-20.793-.47-2.663-1.321-5.404-1.892-6.092-.57-.687-.755-1.531-.41-1.876.345-.345-.119-1.766-1.032-3.158-.912-1.392-1.206-2.531-.654-2.531 1.055 0 .233-9.291-.862-9.749-1.478-.618 1.023-39.729 2.892-45.251.466-1.375 1.1-4.638 1.41-7.25.449-3.782.262-4.75-.917-4.75-1.755 0-1.826-.487-.446-3.066.57-1.064 1.815-1.934 2.769-1.934 1.044 0 3.817-3.081 6.976-7.75 2.883-4.263 6.714-9.325 8.513-11.25 10.511-11.25 16.896-21.16 18.236-28.305.382-2.032 1.087-3.695 1.567-3.695s.69-2.408.466-5.35c-.422-5.561-4.377-15.423-8.746-21.809-4.039-5.904-14.997-17.841-16.377-17.841-.699 0-2.996-1.865-5.105-4.144-2.109-2.279-4.658-4.867-5.665-5.75-1.007-.883-2.759-3.406-3.892-5.606-1.134-2.2-4.811-7.15-8.172-11-6.784-7.772-10.605-12.941-10.605-14.347 0-.511-1.512-3.127-3.361-5.814-1.848-2.687-3.678-5.888-4.067-7.112-.389-1.225-1.041-2.227-1.449-2.227-.781 0-7.04-9.354-11.376-17-1.403-2.475-3.947-6.3-5.652-8.5-1.706-2.2-3.775-4.879-4.598-5.953-.823-1.075-1.497-2.382-1.497-2.906s-1.125-2.427-2.5-4.23c-1.375-1.803-2.5-3.573-2.5-3.935 0-1.919-5.848-8.475-8-8.968-1.603-.366-3.143-1.905-4.293-4.29-3.611-7.486-4.25-8.206-9.183-10.346-2.763-1.199-7.949-2.459-11.524-2.801-3.575-.341-7.065-.975-7.756-1.408-1.467-.921-7.588.986-11.398 3.551-1.46.982-3.572 1.786-4.694 1.786-1.121 0-2.69.93-3.487 2.067-1.665 2.379-5.473 4.72-14.665 9.02a926.215 926.215 0 0 0-9.965 4.727c-5.684 2.766-19.876 14.689-30.285 25.443-5.363 5.54-9.75 10.425-9.75 10.856 0 .431-1.013 1.895-2.25 3.252-1.238 1.358-5.602 6.575-9.699 11.594-4.097 5.018-8.934 10.793-10.749 12.833-1.815 2.039-3.301 4.233-3.301 4.875-.001.641-.368 1.316-.817 1.5-1.576.644-10.227 11.982-12.689 16.631-1.37 2.586-5.221 8.527-8.558 13.202-7.756 10.865-22.692 41.429-24.434 50-.329 1.62-2.937 8.66-5.001 13.5-.704 1.65-1.605 4.125-2.002 5.5-.397 1.375-1.312 3.85-2.033 5.5-1.252 2.867-3.724 11.014-5.614 18.5-1.226 4.859-2.777 17.009-3.356 26.291-.267 4.285-1.242 13.51-2.165 20.5-1.953 14.775-2.18 46.579-.454 63.709.609 6.05 1.304 13.25 1.544 16 .987 11.308 1.913 16.917 3.203 19.389.75 1.436 1.365 4.1 1.369 5.92.004 2.035.406 3.062 1.046 2.666.675-.417.812.266.392 1.941-.397 1.581-.231 2.584.428 2.584.593 0 .836.629.54 1.399-.295.769-.056 1.696.532 2.059.587.363 1.068 2.208 1.068 4.101 0 1.893.436 3.441.969 3.441.532 0 .693.718.356 1.595-.568 1.48.908 8.982 4.405 22.405.789 3.025 1.83 7.703 2.315 10.396.484 2.693 1.797 5.872 2.918 7.064 1.12 1.193 2.037 3.092 2.037 4.221s.85 4.25 1.89 6.936c1.039 2.685 2.457 6.784 3.151 9.107.694 2.323 2.094 5.117 3.11 6.208 1.017 1.092 1.849 2.678 1.849 3.526 0 .848.36 1.542.799 1.542.44 0 1.369 1.575 2.065 3.5s1.686 3.5 2.201 3.5c.514 0 .935.761.935 1.69 0 1.653 5.883 14.321 7.11 15.31.341.275.941 1.527 1.333 2.782.392 1.255 1.751 3.444 3.021 4.864 4.364 4.88 5.536 6.355 5.536 6.972 0 .34 1.238 2.128 2.75 3.973 1.513 1.845 4.775 5.881 7.25 8.969 5.075 6.331 10.929 13.021 19 21.711 5.206 5.605 20.407 16.729 22.861 16.729.627 0 1.139.645 1.139 1.433s.922 1.725 2.048 2.082c1.127.358 5.514 3.255 9.75 6.437 8.279 6.221 15.308 10.101 22.922 12.654 2.629.881 5.455 2.183 6.28 2.892 1.658 1.425 26.184 13.502 27.42 13.502 1.517 0 17.58 8.224 17.58 9.001 0 .435 2.256 2.238 5.013 4.008 2.758 1.769 5.345 3.786 5.75 4.481.781 1.34 13.018 7.73 17.237 9.001 1.375.414 7 2.904 12.5 5.533 16.804 8.032 45.879 19.01 51.879 19.588 2.198.212 6.31 1.25 9.137 2.308 2.827 1.058 9.155 2.868 14.062 4.023 4.907 1.155 11.622 2.981 14.922 4.058 7.548 2.462 19.622 5.05 25.5 5.465 2.475.175 10.8 1.232 18.5 2.349 7.7 1.117 19.4 2.525 26 3.13 24.884 2.278 121.356 2.892 158 1.004 11.092-.571 23.181-1.887 31.5-3.427 7.425-1.374 14.873-2.504 16.55-2.51 1.678-.007 3.478-.39 4-.851.523-.461 3.65-1.413 6.95-2.114 3.3-.701 8.025-1.849 10.5-2.55 2.475-.701 9-2.254 14.5-3.451s11.125-2.675 12.5-3.285c1.375-.611 2.807-1.042 3.182-.958 1.142.254 15.057-4.483 19.318-6.576 2.2-1.081 6.475-2.535 9.5-3.231 5.93-1.366 21.864-6.811 23.5-8.032.55-.41 5.725-2.321 11.5-4.247 5.775-1.926 15.225-5.755 21-8.509 20.478-9.767 32.541-15.448 35.694-16.809 1.757-.758 7.979-4.309 13.827-7.889 5.849-3.581 10.81-6.51 11.025-6.51.215 0 .132.675-.184 1.5-.317.825-.052 1.5.587 1.5 1.386 0 6.108-4.94 10.037-10.5 1.555-2.2 6.824-7.838 11.709-12.529 4.886-4.692 9.641-9.613 10.568-10.936.927-1.324 8.126-8.96 15.998-16.971 7.873-8.01 15.872-16.382 17.776-18.603 7.407-8.64 15.643-18.08 19.562-22.421 2.254-2.497 4.556-5.388 5.115-6.425.559-1.037 3.587-4.637 6.729-8 4.759-5.094 22.573-27.967 26.057-33.457.55-.867 3.762-5.87 7.139-11.117 3.376-5.248 6.855-11.263 7.731-13.368.876-2.105 2.854-5.705 4.396-8 1.542-2.295 3.443-5.748 4.224-7.673.78-1.925 2.339-5.075 3.464-7 3.682-6.304 15.725-33.364 17.579-39.5.997-3.3 4.039-11.201 6.761-17.558 8.843-20.655 15.563-41.419 15.355-47.442-.038-1.1.586-6.05 1.387-11 1.808-11.178 1.859-24.415.119-31-.95-3.595-1.37-14.41-1.494-38.5-.095-18.425-.571-35.75-1.058-38.5-2.002-11.289-4.395-22.534-6.704-31.5-4.151-16.114-11.641-40-12.543-40-.471 0-.856-.479-.856-1.064 0-.585-1.172-3.623-2.605-6.75-1.432-3.127-3.313-7.486-4.179-9.686-1.273-3.232-13.157-24.247-17.247-30.5-.54-.825-1.292-2.175-1.671-3-.38-.825-3.913-5.775-7.852-11-3.94-5.225-10.003-13.756-13.475-18.957-3.471-5.202-7.942-11.277-9.934-13.5-1.993-2.224-4.388-5.168-5.322-6.543-7.306-10.748-9.008-12.937-9.722-12.496-.447.276-2.901-2.424-5.453-6.001-2.553-3.577-4.996-6.503-5.43-6.503-.434 0-1.326-1.179-1.983-2.62-1.022-2.243-.973-2.535.34-2.031 2.039.782 1.928-.189-.471-4.123-1.098-1.801-1.996-3.877-1.996-4.614 0-.737-1.064-2.413-2.365-3.726-1.301-1.312-2.681-3.399-3.067-4.636-.387-1.24-1.511-2.25-2.503-2.25-.991 0-2.987-1.796-4.446-4-1.456-2.2-3.066-4-3.578-4-1.182 0-16.052-15.136-26.524-27-2.184-2.475-4.319-4.387-4.744-4.25-.425.138-.661-.312-.523-1 .137-.687-.313-1.137-1-1-.688.138-1.138-.312-1-1 .137-.687-.249-1.159-.858-1.047-.61.111-2.41-1.237-4-2.997-2.869-3.173-2.87-3.179-.142-.778 1.513 1.331 2.75 1.971 2.75 1.421 0-1.444-4.537-5.494-5.763-5.145-.57.163-1.114-.154-1.208-.704-.295-1.722-3.254-4.479-4.187-3.902-.491.303-.768-.025-.617-.728.151-.704-.287-1.3-.975-1.325-.687-.025-1.288-.495-1.335-1.045-.141-1.663-2.081-3.515-3.053-2.915-.501.31-.788-.022-.637-.737.151-.715-.716-1.452-1.928-1.638-1.211-.185-2.479-1.208-2.817-2.273-.338-1.066-1.148-1.937-1.8-1.937-.651 0-3.261-1.913-5.799-4.25-2.538-2.337-7.677-6.725-11.419-9.75-3.743-3.025-7.597-6.257-8.566-7.183-.969-.926-2.917-2.44-4.329-3.365-1.412-.925-2.567-2.305-2.567-3.067s-.498-1.385-1.107-1.385-.829-.725-.489-1.611c.426-1.109.185-1.445-.772-1.078-1.259.483-3.258-1.259-12.031-10.487-1.4-1.472-5.181-4.082-8.404-5.8-3.223-1.717-7.285-4.425-9.028-6.017-1.743-1.592-3.169-2.625-3.169-2.295 0 .329-1.013-.529-2.25-1.907-2.577-2.87-11.101-8.805-12.645-8.805-.57 0-2.514-1.264-4.32-2.809-6.365-5.444-31.998-22.438-40.962-27.157-3.123-1.644-5.957-3.442-6.299-3.995-.341-.553-4.087-2.73-8.322-4.837-7.578-3.771-11.578-5.959-13.651-7.466-4.366-3.174-8.875-5.736-10.095-5.736-.801 0-1.456-.388-1.456-.863s-3.487-2.605-7.75-4.734c-4.263-2.128-11.35-5.938-15.75-8.466-4.4-2.527-9.575-5.174-11.5-5.881-3.152-1.158-14.886-6.838-15.917-7.705-.862-.726 5.493-6.297 7.215-6.323.988-.016 3.942-2.166 6.563-4.778 2.621-2.612 5.985-5.394 7.475-6.181 1.49-.787 4.13-2.7 5.867-4.25 1.736-1.551 3.653-2.819 4.259-2.819.606 0 3.853-2.7 7.215-6 3.362-3.3 6.395-6 6.739-6 .899 0 7.944-4.647 16.281-10.74 3.958-2.893 7.476-5.26 7.816-5.26.745 0 6.499-4.214 11.917-8.727 2.161-1.8 4.523-3.273 5.247-3.273.725 0 3.006-1.514 5.07-3.364 2.064-1.85 5.328-4.161 7.253-5.136 1.925-.975 5.189-3.286 7.253-5.136s4.324-3.364 5.022-3.364c.698 0 2.834-1.284 4.747-2.854 1.913-1.57 4.828-3.556 6.478-4.414 1.65-.857 4.513-2.92 6.362-4.585 1.849-1.664 4.988-3.797 6.975-4.74 1.988-.943 4.221-2.322 4.963-3.064.743-.743 3.444-2.791 6.003-4.552 2.56-1.761 5.563-3.984 6.675-4.942 1.112-.957 3.446-2.777 5.187-4.045 1.741-1.267 6.641-5.004 10.89-8.304 8.931-6.937 16.467-12.663 22.616-17.183 2.381-1.751 5.172-3.944 6.203-4.874 1.03-.93 5.755-4.588 10.5-8.13 4.744-3.542 10.369-7.873 12.499-9.626 2.13-1.753 5.617-4.245 7.75-5.539 2.132-1.293 3.877-2.723 3.877-3.177 0-.454 2.766-2.507 6.147-4.561 3.382-2.053 7.063-4.786 8.181-6.072 1.118-1.286 2.59-2.338 3.271-2.338s2.71-1.56 4.509-3.467c1.798-1.907 4.985-4.153 7.081-4.992 2.096-.839 3.811-1.929 3.811-2.422 0-.494 4.605-3.985 10.234-7.758 5.628-3.774 11.013-7.633 11.966-8.577.952-.944 3.435-2.856 5.516-4.249 6.94-4.646 13.757-9.666 16.284-11.99 1.375-1.266 3.625-2.872 5-3.571 1.375-.699 3.85-2.361 5.5-3.693 1.65-1.333 4.575-3.492 6.5-4.799 14.46-9.816 21.493-14.854 28-20.057 4.125-3.298 11.325-8.58 16-11.738 32.46-21.925 31.034-19.755 32.015-48.732.411-12.147 1.163-21.42 1.84-22.685.792-1.479 1.145-12.061 1.145-34.3 0-26.174-.29-33.161-1.559-37.526-.858-2.951-1.421-7.295-1.25-9.654.296-4.105.46-4.304 3.809-4.611 1.925-.177 3.928-.74 4.45-1.25.522-.511 2.21-.929 3.75-.929s2.8-.42 2.8-.933c0-.513.787-1.188 1.75-1.501.963-.313 3.45-2.184 5.528-4.157 3.416-3.244 3.717-3.94 3.139-7.249-.352-2.013-1.192-4.11-1.866-4.66-.675-.55-1.037-1.563-.805-2.251.268-.794-.156-1.029-1.162-.643-1.136.436-1.584.012-1.584-1.499 0-2.658-1.424-2.683-4.036-.071-2 2-4.617 1.83-3.352-.217.354-.573.024-1.435-.734-1.915-1.09-.691-1.012-.877.372-.889 1.078-.009 1.75-.783 1.75-2.015 0-1.227-.677-2.012-1.75-2.03-1.616-.028-1.61-.112.084-1.097 1.308-.76 1.661-1.756 1.231-3.47-.369-1.472-.167-2.403.523-2.403.619 0 .872-.661.563-1.468-.31-.807-.085-1.764.499-2.125.708-.437.609-.95-.293-1.532-1.14-.735-1.137-1.017.018-1.761 1.693-1.092 2.42-14.114.788-14.114-.674 0-.624-.439.137-1.2 1.757-1.757 1.464-3.795-.55-3.832-1.667-.03-1.667-.095 0-1.36 1.875-1.423 2.436-6.608.715-6.608-.67 0-.62-.777.143-2.202.878-1.641.887-2.3.035-2.584-.628-.209-1.143-1.723-1.143-3.365 0-2.529-.305-2.887-2-2.349-1.1.349-3.013.292-4.25-.128-2.127-.72-2.086-.793.738-1.325 3.373-.635 4.622-3.62 1.819-4.347-1.162-.301-.809-.509.988-.584 2.64-.11 2.759-.311 2.139-3.616-.436-2.323-.276-3.5.474-3.5.719 0 .892-.949.476-2.607-.41-1.632-.192-2.894.583-3.373 1.674-1.034 2.257-8.906 1.772-23.948-.166-5.166.171-7.839 1.108-8.776.741-.741 1.112-1.959.826-2.707-.287-.748.144-2.311.959-3.474.815-1.163 1.118-2.115.675-2.115-.444 0-.807-1.13-.807-2.511 0-1.598.455-2.337 1.25-2.031.855.327 1.274-.697 1.327-3.239.042-2.046.245-5.069.451-6.719.999-8.016 1.089-11.132.363-12.591-.445-.896-.159-3.692.656-6.4 1.091-3.625 1.167-5.148.309-6.182-.898-1.083-.805-1.245.441-.767 1.288.495 1.569-.158 1.523-3.535-.054-3.92-.332-4.297-5.189-7.046-5.828-3.299-8.026-6.159-7.063-9.193.547-1.724.337-1.975-1.203-1.435-1.753.615-1.76.572-.115-.709 2.424-1.887 2.188-4.53-.5-5.611l-2.25-.904 2.25-.064c2.065-.058 3.387-2.063 1.361-2.063-.489 0-.826-.779-.75-1.73.182-2.264-13.464-5.794-25.83-6.681-4.811-.345-12.861-1.061-17.889-1.591-5.028-.53-12.292-1.032-16.142-1.116l-7-.154 7.168-.754c3.943-.415 7.617-1.032 8.165-1.371.548-.338 1.208-.05 1.467.641.329.877.958.653 2.088-.744 1.463-1.81 1.555-1.823.963-.135-.551 1.572-.299 1.753 1.6 1.151 4.556-1.446 38.75 3.883 44.647 6.958 5.335 2.783 7.479 1.062 3.249-2.607-1.729-1.499-1.835-1.867-.535-1.867.89 0 2.099-.9 2.688-2 .644-1.204 2.094-2 3.642-2 2.057 0 2.428-.35 1.852-1.75a40.476 40.476 0 0 1-1.224-3.5c-.277-.963-1.158-1.75-1.958-1.75s-2.13-.675-2.955-1.5c-1.051-1.051-1.129-1.5-.262-1.5 2.257 0-.043-1.325-2.812-1.62-1.496-.16-3.106.252-3.578.915-.652.916-.973.923-1.34.027-.305-.743-1.746-.972-3.908-.621-1.883.305-4.717.02-6.297-.635-2.802-1.161-6.686-1.74-18.414-2.749-3.687-.317-5.519-.875-5.101-1.552.914-1.478-4.879.045-5.95 1.564-.464.657-.529.123-.149-1.217.608-2.146.415-2.338-1.905-1.894-1.419.271-2.343.108-2.052-.362.291-.471-.173-.856-1.03-.856-2.159 0-1.974 2.981.191 3.079 1.045.047 1.247.282.5.583-2.065.833-1.42 2.074 1.5 2.886 3.995 1.111 4.724 1.23 11.553 1.885 3.408.327 9.503 1.713 13.543 3.081 4.04 1.367 8.765 2.522 10.5 2.565 1.735.043 2.583.309 1.884.59-.698.281-5.873-.047-11.5-.73-5.626-.682-13.38-1.345-17.23-1.473-7.602-.253-9.715-.588-10.53-1.669-.291-.387-2.498-1.018-4.903-1.402-3.19-.51-4.181-.388-3.661.453.392.633.284 1.152-.24 1.152s-1.229-.722-1.567-1.604c-.339-.882-1.231-1.367-1.983-1.079-.842.323-1.319-.117-1.242-1.146.074-.982-.477-1.539-1.335-1.351-.803.176-2.884.412-4.623.523-1.74.111-3.851.773-4.692 1.471-1.237 1.027-1.611 1.024-1.957-.013-.761-2.284 1.789-3.612 6.817-3.55 11.317.14 16.416-.436 16.416-1.854 0-.769-1.013-1.45-2.25-1.515-2.72-.144-.932-.202-15 .492-6.463.32-11.75.253-11.75-.147s-9.112-.521-20.25-.269c-37.969.857-53.724.543-61.25-1.224-6.101-1.433-14.195-1.624-63-1.492-30.8.084-67.925.71-82.5 1.392m224.629 11.157c-.38.615 2.811 1.016 8.521 1.069 5.022.048 8.886-.158 8.588-.456-1.054-1.053-16.495-1.607-17.109-.613m15.371 6.171c2.546.854 11.676 1.377 10.917.625-.229-.227-3.342-.649-6.917-.939-4.151-.335-5.597-.222-4 .314m-940 7.716c-3.429.577-12.962 4.654-12.983 5.553-.022.929 8.622-.072 12.173-1.41 1.479-.558 3.1-.76 3.602-.449.502.31 1.766-.059 2.808-.821 1.25-.914 2.29-1.057 3.058-.42 1.17.971 3.097-.71 2.033-1.773-.729-.73-7.743-1.176-10.691-.68M167 148c-1.169.755-.893.973 1.25.985 1.512.008 2.75-.435 2.75-.985 0-1.264-2.043-1.264-4 0m6.162.031c1.048.611 2.526.623 4 .033 2.045-.82 1.837-.941-1.662-.97-3.05-.025-3.605.197-2.338.937m11.6-.324c1.244.239 3.044.23 4-.02s-.062-.446-2.262-.435c-2.2.011-2.982.216-1.738.455M158 149.5c0 .833.889 1.5 2 1.5 1.1 0 2-.417 2-.927 0-.509.787-1.132 1.75-1.384.963-.251.063-.509-2-.573-2.718-.084-3.75.297-3.75 1.384m961.083 2.858c.23.198 2.217.635 4.417.972 2.724.418 3.521.308 2.5-.343-1.366-.871-7.887-1.464-6.917-.629m-42.201 1.392c-.066.412-.05 1.134.034 1.603.084.469-.832 1.707-2.035 2.75-2.2 1.909-1.965 2.097 2.619 2.097 8.11 0 10.562-.29 10.01-1.184-.335-.541-2.049-1.358-3.809-1.814-1.761-.456-3.05-1.2-2.866-1.654.185-.453-.265-1.205-1-1.671-1.666-1.056-2.799-1.105-2.953-.127m9.868.956c1.237.238 3.263.238 4.5 0 1.237-.239.225-.434-2.25-.434s-3.487.195-2.25.434M232 158.975c0 .56 1.383.712 3.25.356 4.557-.867 4.702-1.331.417-1.331-2.017 0-3.667.439-3.667.975M1106.5 160c1.1.473 3.35.838 5 .811l3-.048-3-.763c-1.65-.42-3.9-.785-5-.811l-2-.048 2 .859m-961.25 3.731c-2.18.76-1.349 2.269 1.25 2.269 1.375 0 2.5-.402 2.5-.893 0-1.151-2.142-1.937-3.75-1.376M187 164c0 1.264 2.043 1.264 4 0 1.169-.755.893-.973-1.25-.985-1.512-.008-2.75.435-2.75.985m-14.935 13.138c-7.235 1.196-7.614 1.882-.982 1.774 6.812-.11 16.94-1.581 12.249-1.778-1.743-.074-3.768-.305-4.5-.514-.733-.209-3.778.024-6.767.518m-19.565.891c-1.808.684-1.835.824-.283 1.458 2.247.918 3.91.309 3.001-1.101-.426-.66-1.532-.805-2.718-.357m943.276 22.704c2.352.212 5.952.209 8-.006s.124-.388-4.276-.384c-4.4.003-6.076.179-3.724.39M1145 345.941c0 .582-1.773 1.059-3.941 1.059s-4.211.436-4.54.97c-.363.587.978.812 3.402.571 4.792-.477 7.86-1.94 6.207-2.962-.62-.383-1.128-.22-1.128.362m-954.5 16.071c-2.115.529-.196.835 6.5 1.035 16.618.496 21.18.468 21.553-.134.2-.324-4.588-.637-10.64-.698-6.053-.06-11.771-.3-12.709-.532-.937-.233-3.054-.085-4.704.329M169 364.5c0 .825.675 1.5 1.5 1.5s1.5-.675 1.5-1.5-.675-1.5-1.5-1.5-1.5.675-1.5 1.5m33 1.602c-1.925.43-6.2.52-9.5.2s-5.714-.27-5.364.111c.604.658 9.237 1.903 11.364 1.639.55-.068 9.988-.358 20.973-.645 10.986-.286 20.182-.729 20.437-.984.255-.254-7.037-.422-16.204-.372-9.167.05-17.013-.094-17.436-.32-.424-.226-2.345-.059-4.27.371m-61.369.6c-1.212 1.213-.616 2.298 1.262 2.298 1.041 0 2.152.675 2.469 1.5.64 1.67 3.638 2.075 3.638.492 0-.616.741-.546 1.9.178 1.045.652 1.672 1.781 1.393 2.508-.353.921.435 1.322 2.6 1.322 3.667 0 4.349-2.622.857-3.294-1.238-.239.338-.495 3.5-.57 5.049-.119 5.75-.381 5.75-2.148 0-1.908-.496-1.988-9.668-1.555-5.317.252-10.433.048-11.368-.452-.936-.501-1.985-.626-2.333-.279m60.869 5.322c-6.934.909-.267 1.605 13 1.356 6.6-.124 15.262-.26 19.25-.302 3.988-.043 7.25-.504 7.25-1.024 0-.979-32.075-1.003-39.5-.03m-35.004 1.983c-.783 1.266 2.001 2.4 4.004 1.631.825-.316 1.5-1.039 1.5-1.607 0-1.328-4.685-1.349-5.504-.024m94.754.8c-2.337.17-4.25.687-4.25 1.15 0 1.044 8.814 1.825 9.79.866.39-.383 2.735-.847 5.21-1.031l4.5-.335-5.5-.479c-3.025-.263-7.413-.34-9.75-.171M184 376.044l-2.5.757 2.5.256c1.375.14 3.625.366 5 .502 3.157.311 40.472.292 44.5-.023 1.65-.129 5.662-.302 8.917-.385 3.254-.083 5.639-.428 5.3-.768-.666-.666-28.97-.663-39.918.004-4.087.25-6.835.006-7.045-.625-.218-.655-1.166-.525-2.58.352-1.44.893-2.491 1.03-2.955.386-.874-1.216-7.779-1.497-11.219-.456m174 1.043-5.5.587 5.25.163c3.698.115 5.25.568 5.25 1.532 0 1.363-4.496 2.519-10.5 2.699-3.144.094-2.804.359 1.75 1.364 4.896 1.079 2.916 2.568-3.417 2.568-8.247 0-7.018.854 1.785 1.241 6.742.297 7.002.223 6.603-1.868-.485-2.535 2.434-3.909 6.029-2.837 2.209.659 2.213.643.25-.865-2.192-1.684-1.415-3.191 2-3.881 3.776-.763-3.731-1.319-9.5-.703m-24.25 1.602c-2.138.559-2.327 2.311-.25 2.311 1.802 0 2.037 1.963.25 2.086-.687.047.073.481 1.69.964 3.337.997 5.56-.243 5.56-3.103 0-1.08.906-1.982 2.25-2.241 1.238-.239 0-.443-2.75-.454-2.75-.011-5.788.186-6.75.437m-69.5 3.561c.229.688 1.692 1.25 3.25 1.25s3.021-.562 3.25-1.25c.283-.848-.761-1.25-3.25-1.25s-3.533.402-3.25 1.25m-31.611.444c-1.126 1.126-.685 2.306.861 2.306.825 0 1.5-.423 1.5-.941 0-1.261-1.562-2.164-2.361-1.365M220 384c0 .55 1.35 1 3 1s3-.45 3-1-1.35-1-3-1-3 .45-3 1m146.251 2.607c-1.545 1.173-1.251 1.333 2.499 1.361 2.337.018 4.25-.366 4.25-.851 0-1.529-4.918-1.9-6.749-.51M222 387c0 .55.9 1 2 1s2-.45 2-1-.9-1-2-1-2 .45-2 1m57.5 1c-.349 1.1-1.054 2-1.567 2-.513 0-.933.675-.933 1.5 0 1.498-1.611 1.966-5.633 1.636-2.552-.209-7.367 1.492-7.367 2.603 0 1.022 11.112.96 12.75-.07.72-.454 1.25-.319 1.25.317 0 .694 1.209.897 3.25.548 1.788-.307 5.884-.748 9.103-.981 6.241-.453 7.897-1.163 5.773-2.475-.937-.579-.534-1.01 1.4-1.495 2.575-.646 5.474-2.771 5.474-4.012 0-.314-1.152-.571-2.559-.571-1.407 0-2.313.399-2.011.886.78 1.263-3.008 2.085-9.68 2.1-4.222.01-5.75.382-5.75 1.397 0 1.612-3.732 2.859-4.558 1.523-.308-.498-.156-.906.338-.906.771 0 3.22-4.219 3.22-5.547 0-1.366-1.96-.153-2.5 1.547m102.228-1.278c1.775.221 4.925.224 7 .008 2.074-.217.622-.397-3.228-.402-3.85-.004-5.548.173-3.772.394m-70.121 3.86c-.853 2.222-.925 2.144 2.436 2.638 2.326.341 2.915.113 2.5-.969-.299-.778-.543-1.828-.543-2.333 0-1.572-3.753-1.005-4.393.664M169.5 391c-.34.55.309 1 1.441 1 1.132 0 2.385.034 2.784.075.399.041.886-.409 1.083-1 .453-1.357-4.473-1.426-5.308-.075m33.043.931c-.317.512-.118 1.213.441 1.559 1.193.737 3.016-.199 3.016-1.549 0-1.217-2.707-1.225-3.457-.01M202 396.5c0 .825.675 1.5 1.5 1.5s1.5-.675 1.5-1.5-.675-1.5-1.5-1.5-1.5.675-1.5 1.5m-19 .5c0 .55 2.025 1 4.5 1s4.5-.45 4.5-1-2.025-1-4.5-1-4.5.45-4.5 1m10 0c0 .55.9 1 2 1s2-.45 2-1-.9-1-2-1-2 .45-2 1m137 481.941c0 1.132.45 2.059 1 2.059s1-.648 1-1.441-.45-1.719-1-2.059c-.55-.34-1 .309-1 1.441M476.215 944.5c2.023 1.375 4.346 2.5 5.161 2.5.814 0 2.097.563 2.851 1.25 1.797 1.64 9.773 5.959 9.773 5.292 0-1.306-17.601-11.439-19.982-11.502-.815-.022.173 1.085 2.197 2.46m-257.147 240.404c-1.137 1.598-2.068 3.26-2.068 3.695 0 .434 1.125-.735 2.5-2.599 1.375-1.864 2.5-3.526 2.5-3.694 0-.945-1.107.036-2.932 2.598m-7.068 9.095c-1.742 2.2-2.94 4.563-2.662 5.25.318.791.533.646.583-.392.043-.904.642-1.866 1.329-2.139 1.234-.489 5.305-6.718 4.391-6.718-.26 0-1.898 1.8-3.641 3.999m-10.387 16.274c-3.234 5.529-7.778 14.896-7.407 15.266.195.195 1.448-1.759 2.785-4.342 1.337-2.583 3.488-6.418 4.779-8.52 1.291-2.103 2.209-4.231 2.039-4.728-.17-.497-1.158.549-2.196 2.324m-10.35 20.477c-.899 2.063-1.532 4.144-1.407 4.625.125.481-.391 1.606-1.146 2.5-1.151 1.361-4.053 9.814-7.251 21.125-1.143 4.04.464 1.67 2.457-3.623 1.009-2.682 3.217-8.266 4.905-12.408 4.485-11.001 6.663-21.902 2.442-12.219m4.499 18.076c-.898 1.52-1.291 3.318-.873 3.994.487.789 1.17-.106 1.903-2.494 1.418-4.619 1.092-5.093-1.03-1.5m3.809 6.745c-.367 1.466-.443 2.89-.168 3.165.275.275.801-.699 1.168-2.165.368-1.465.444-2.889.169-3.164-.275-.275-.801.699-1.169 2.164m-6.492 3.679c-.043.963-.754 1.75-1.579 1.75s-1.537.338-1.583.75l-.33 2.954c-.135 1.212.127 1.973.584 1.691.456-.282.829-1.014.829-1.625 0-.612.721-1.909 1.603-2.883.881-.974 1.367-2.36 1.079-3.079-.341-.851-.552-.696-.603.442m-18.096 13.5c-.01.412-.678 3.869-1.486 7.681-1.497 7.065-1.303 9.819.38 5.393 1.202-3.163 2.543-13.824 1.738-13.824-.338 0-.623.338-.632.75m9.017 2.297c0 1.009.451 2.114 1.003 2.455.652.403.577 1.385-.213 2.809-.668 1.204-1.09 2.614-.938 3.134.153.519-.251 1.933-.898 3.141-.82 1.531-.867 2.747-.157 4.015.835 1.493 1.143.932 1.721-3.141.387-2.728 1.554-6.93 2.593-9.337 1.039-2.408 1.889-4.433 1.888-4.5 0-.068-1.125-.188-2.5-.267-1.81-.105-2.499.362-2.499 1.691m-14.513 21.37c-.363 1.146-.854 4.108-1.092 6.583-.237 2.475-.578 5.625-.757 7-.179 1.375-.395 4.412-.481 6.75-.159 4.31-2.144 6.138-2.172 2-.013-1.819-.201-1.963-.985-.75-1.615 2.498-1.23 8 .559 8 .857 0 1.276.457.931 1.016-.346.559-.991.792-1.434.518-.443-.273-1.11 1.399-1.48 3.718-.422 2.64-.282 4.346.375 4.565.577.192 1.049 1.239 1.049 2.325 0 1.087-.45 1.698-1 1.358-.62-.383-1.064 1.777-1.167 5.691-.093 3.47-.264 8.777-.382 11.793-.117 3.017.155 6.392.605 7.5.449 1.109.846 1.427.881.707.084-1.748 2.063-.466 2.063 1.337 0 .881-.6 1.179-1.599.796-1.434-.551-1.544.824-1.064 13.281.633 16.458 1.545 28.611 2.195 29.261.258.257.468-1.183.468-3.199 0-3 .364-3.667 2-3.667 2.646 0 2.627.537 1.021-30-.917-17.424.1-43.602 2.525-65 .343-3.025.711-6.85.818-8.5.107-1.65.499-3.487.871-4.083.372-.596.055-1.084-.706-1.084s-1.68.938-2.042 2.084m69.513.083c0 1.375.338 2.5.75 2.5s.75-1.125.75-2.5-.338-2.5-.75-2.5-.75 1.125-.75 2.5m-72.97 1.05c.027 2.586.163 2.722 1.104 1.104.769-1.324.761-2.159-.03-2.95-.805-.805-1.096-.305-1.074 1.846m13.1 9.613c-.91 1.458-.98 2.387-.236 3.131.637.637.701 1.489.159 2.142-.494.596-.561 2.654-.148 4.574l.751 3.49.636-3c.86-4.059 1.242-11.299.629-11.912-.273-.273-1.079.436-1.791 1.575m-4.412 36.808c-.28 1.069.097 2.128.86 2.421 2.018.774 2.767-1.19 1.093-2.864-1.275-1.275-1.518-1.22-1.953.443m1.368 6.529c.03 1.65.441 3.9.914 5 .702 1.634.869 1.36.914-1.5.031-1.925-.381-4.175-.914-5-.74-1.146-.956-.791-.914 1.5m-.614 32.231c.414 14.229 1.827 29.901 2.782 30.856.253.253 1.137.2 1.965-.118 1.202-.461 1.427-2.033 1.114-7.773-.689-12.658-1.664-22.249-2.078-20.446-.955 4.162-3.212.332-3.241-5.5-.019-3.73 1.449-3.469 2.814.5.984 2.862 1.049 2.533.549-2.75-.382-4.028-1.187-6.581-2.451-7.769-1.84-1.729-1.873-1.431-1.454 13M177 1390c0 1.1.45 2 1 2s1-.9 1-2-.45-2-1-2-1 .9-1 2m5 25c0 .55-.717 1-1.593 1-1.316 0-1.508.911-1.107 5.25.677 7.335 2.836 15.042 4.586 16.368 1.051.798 1.528 3.411 1.661 9.101.103 4.39.703 8.837 1.333 9.882.997 1.649 1.066 1.537.525-.851-.704-3.114.91-3.756 2.515-1 1.974 3.39 1.189-.77-4.765-25.25-.401-1.65-1.238-3-1.859-3-1.995 0-2.617-1.408-1.316-2.976 1.049-1.263.975-1.524-.431-1.524-1.094 0-1.56-.621-1.313-1.75.211-.963.919-1.638 1.573-1.5.67.141 1.191-.843 1.191-2.25 0-1.375-.225-2.5-.5-2.5s-.5.45-.5 1m-13.275 14c.268 4.125 1.054 10.2 1.746 13.5 3.837 18.296 4.772 22.459 6.085 27.088.794 2.798 1.449 6.173 1.455 7.5.006 1.327 2.031 6.459 4.5 11.405s4.489 9.736 4.489 10.645c0 1.983 4.014 11.871 11.325 27.894 1.388 3.043 4.583 8.873 7.099 12.954 2.517 4.082 4.579 7.893 4.583 8.468.004.575 3.885 5.096 8.624 10.046 4.739 4.95 7.998 8.1 7.243 7-.756-1.1-1.609-2.225-1.897-2.5-1.437-1.373-4.072-6.238-3.623-6.687.282-.283 2.644 1.669 5.249 4.337 5.122 5.247 4.354 3.97-2.799-4.65-4.669-5.626-17.881-25.921-19.187-29.472-.577-1.57-.899-1.69-1.58-.588-1.152 1.863-3.319-.286-5.463-5.416-1.955-4.68-1.966-5.524-.074-5.524.825 0 1.5.75 1.5 1.667 0 .916.286 1.381.635 1.032.569-.57-.223-3.304-2.666-9.199-.455-1.1-2.271-5.724-4.035-10.276-1.764-4.551-3.596-8.515-4.071-8.809-.475-.293-.863-1.602-.863-2.909 0-1.307-.525-3.643-1.166-5.191-.642-1.548-1.228-3.04-1.304-3.315-2.439-8.895-6.344-19.248-8.199-21.737-2.609-3.5-6.204-17.671-6.409-25.263-.067-2.475-.473-5.625-.903-7-.447-1.432-.573.703-.294 5m19.314.136c1.08 3.767 2.526 5.428 1.622 1.864-.348-1.375-.64-3.062-.647-3.75-.008-.687-.433-1.25-.944-1.25-.567 0-.579 1.224-.031 3.136m.693 35.119c-.332.867-.256 2.851.169 4.41.715 2.621.825 2.676 1.458.73.857-2.64-.699-7.558-1.627-5.14m4.268 6.461c0 .344 1.451 3.703 3.225 7.463 3.099 6.572 4.912 8.027 5.598 4.492.224-1.155-.155-1.481-1.236-1.066-1.068.41-1.881-.248-2.58-2.087-.562-1.477-.784-3.069-.495-3.537.289-.469-.607-1.985-1.993-3.371-1.385-1.385-2.519-2.238-2.519-1.894m1 14.978c0 1.12.816 3.109 1.814 4.421 1.772 2.33 3.563 6.008 6.185 12.702.927 2.367 1.534 2.94 2.118 2 .457-.735.391-1.464-.149-1.65-.532-.184-.968-1.421-.968-2.75s-.401-2.417-.892-2.417c-.49 0-1.2-1.237-1.577-2.75-1.017-4.077-6.531-12.146-6.531-9.556m-4.985 15.056c.028 1.369 1.867 3.702 2.454 3.114.788-.788-.467-3.864-1.576-3.864-.491 0-.886.338-.878.75m48.585 75.269c1.155 1.365 3.528 4.602 5.273 7.194 3.859 5.733 9.916 12.407 8.201 9.037-.629-1.237-1.579-2.25-2.109-2.25-.531 0-.884-.338-.785-.75.44-1.83-3.871-8.088-8.08-11.731-2.53-2.189-3.655-2.864-2.5-1.5" fill-rule="evenodd"/></svg>