<svg xmlns="http://www.w3.org/2000/svg" width="1240" height="1753"><path d="M517.518 103.747c-1.385 2.478-2.518 4.843-2.518 5.257 0 .413-.652 1.292-1.449 1.953-.796.662-4.921 7.311-9.166 14.778-4.245 7.466-8.927 14.968-10.404 16.67-1.478 1.702-4.869 6.92-7.537 11.595-2.669 4.675-7.685 12.612-11.148 17.638-3.463 5.027-6.296 9.498-6.296 9.936 0 .438-.843 1.726-1.874 2.862-1.031 1.135-3.099 4.314-4.595 7.064-1.497 2.75-3.524 5.9-4.504 7-.98 1.1-5.59 7.85-10.243 15-4.654 7.15-12.718 19.525-17.921 27.5-5.203 7.975-11.667 18.1-14.365 22.5-2.698 4.4-5.893 9.35-7.1 11-1.208 1.65-3.259 4.8-4.558 7l-4.351 7.363c-1.094 1.85-3.902 6.329-6.239 9.953-2.337 3.625-4.25 6.94-4.25 7.368 0 .427-2.171 4.049-4.823 8.047-2.653 3.998-5.45 8.844-6.214 10.769-.765 1.925-2.461 5.075-3.77 7-1.309 1.925-3.478 5.652-4.82 8.283-1.342 2.631-4.113 7.3-6.157 10.377-10.333 15.552-19.767 31.831-22.218 38.34-1.294 3.437-5.302 9.529-7.565 11.5-1.601 1.394-7.61 12.169-9.518 17.069-.871 2.238-3.348 6.513-5.504 9.5-2.156 2.987-4.931 7.295-6.168 9.573a3439.581 3439.581 0 0 1-3.538 6.5c-.708 1.297-2.732 4.584-4.497 7.304-1.764 2.72-3.208 5.262-3.208 5.649 0 .387-1.79 3.562-3.978 7.055-2.189 3.492-5.625 9.275-7.638 12.85-2.012 3.575-4.653 8.075-5.869 10-8.686 13.75-13.157 21.848-19.878 36-1.175 2.475-2.373 4.725-2.662 5-1.799 1.715-8.975 11.414-8.975 12.131 0 1.744.966.759 4.545-4.633 3.71-5.589 5.19-7.096 6.087-6.199.644.643-5.282 11.165-7.171 12.733-.791.657-1.192 1.594-.891 2.081.301.488.089.887-.472.887-.561 0-2.492 2.25-4.293 5-1.8 2.75-3.618 5-4.039 5-.421 0-.766.845-.766 1.878 0 1.032-.675 2.437-1.5 3.122s-1.536 1.977-1.579 2.872c-.051 1.046-.26 1.179-.585.372-.279-.691-.899-1.014-1.378-.718-.479.296-.589 1.272-.244 2.17.418 1.091.238 1.392-.544.909-.644-.398-1.219-.359-1.28.086-.06.445-.234 2.306-.386 4.136-.154 1.839-1.381 4.523-2.744 6-2.452 2.657-4.219 5.998-3.922 7.413.086.407-1.128 2.882-2.696 5.5-1.569 2.618-5.47 9.26-8.671 14.76-3.2 5.5-7.213 11.8-8.916 14-1.704 2.2-4.438 6.019-6.076 8.487-2.569 3.87-13.304 18.56-15.721 21.513-.45.55-3.572 5.275-6.937 10.5s-8.677 12.875-11.805 17c-6.527 8.608-27.334 40.084-31.12 47.078-1.799 3.324-13.073 20.266-13.921 20.922-.865.668-7.975 11.89-7.975 12.586 0 .784-5.354 7.849-6.25 8.247-.412.184-.75.939-.75 1.679 0 .74-.568 1.94-1.262 2.667-.694.726-3.594 4.921-6.444 9.321-2.85 4.4-6.554 9.841-8.232 12.091-1.678 2.25-4.125 6.075-5.438 8.5-1.313 2.425-4.906 8.574-7.986 13.665-3.079 5.091-7.07 11.887-8.868 15.102-1.96 3.504-5.941 8.208-9.938 11.744-3.667 3.244-7.637 7.135-8.822 8.648-1.186 1.513-2.628 2.75-3.205 2.75-.622 0-.503-.714.292-1.75.738-.962.107-.649-1.402.698-1.51 1.346-4.196 5.335-5.97 8.864-2.099 4.177-4.796 7.668-7.725 10.001-6.841 5.449-7.156 5.985-5.457 9.27 3.014 5.828 1.929 8.331-8.07 18.617l-6.027 6.2.648 6.3c.356 3.465 1.126 7.771 1.712 9.569.601 1.843.657 3.017.13 2.691-1.113-.687-1.262.881-.186 1.956.993.993 1.07 2.096 1.598 23.084.254 10.056.047 18.761-.468 19.723-.626 1.17-.297 3.576 1.024 7.488 1.322 3.915 1.627 6.149.952 6.963-.661.796-.653 1.837.023 3.1.56 1.047.773 2.842.472 3.991-.359 1.372.173 2.703 1.552 3.884 1.153.987 2.09 2.258 2.082 2.823-.009.566-.358.489-.777-.169-.479-.754-1.287-.872-2.182-.319-1.114.688-.824 1.151 1.337 2.136 2.228 1.015 2.643 1.718 2.158 3.652-.346 1.379-.204 2.15.334 1.818 1.392-.861 2.346 2.463 1.128 3.931-1.27 1.53 1.241 4.471 3.838 4.494 1.45.014 1.474.148.179.985-.825.533-1.05.991-.5 1.016.55.026.102.726-.995 1.555-1.541 1.165-1.699 1.691-.692 2.313 1.322.817.783 5.496-.879 7.632-.747.96.461 9.229 1.824 12.484.991 2.367.949 4.391-.12 5.813-.543.722-1.089 4.322-1.215 8-.125 3.678-.552 9.977-.95 13.998-.683 6.913-.607 7.341 1.402 7.867 2.205.576 2.966 2.322 1.012 2.322-.676 0-.936 1.216-.66 3.093.294 2.002-.017 3.273-.881 3.604-.734.282-1.109.878-.833 1.324.275.446.745 5.877 1.043 12.069.298 6.192.806 11.687 1.13 12.21.323.524.698 2.783.833 5.022.341 5.635 2.604 7.103 14.186 9.196 8.169 1.476 12.949 1.663 28.795 1.125 10.45-.355 25.722-1.306 33.937-2.113 10.892-1.071 16.715-1.204 21.5-.49 3.61.539 11.288 1.689 17.063 2.556 8.588 1.29 24.522 1.673 87.5 2.103 42.35.289 90.569.67 107.153.847 16.585.177 34.36-.073 39.5-.556 5.141-.482 25.547-1.123 45.347-1.424 19.8-.3 46.8-.792 60-1.092 13.2-.3 34.35-.742 47-.981 12.65-.24 31.325-.718 41.5-1.063s32-.106 48.5.532 39.675 1.312 51.5 1.499c13.226.209 24.771.92 30 1.848 5.022.892 18.525 1.771 33 2.147 13.475.351 29.45 1.074 35.5 1.608 19.382 1.709 59.601 1.471 71.326-.422 5.679-.917 10.673-1.452 11.098-1.189.425.262 1.085 11.63 1.468 25.262s1.113 29.96 1.623 36.285c1.324 16.429 1.786 24.996 2.507 46.5.351 10.45 1.353 22.825 2.227 27.5 1.671 8.934 1.995 29.673 1.327 85-.176 14.575-.265 45.175-.199 68 .117 40.076-.838 68.794-2.844 85.5-2.471 20.586-3.761 33.539-3.934 39.5-.104 3.575-1.035 13.925-2.07 23-3.49 30.607-3.503 69.181-.033 101 .51 4.675 1.001 12.325 1.092 17 .33 17.02 2.919 27.189 7.824 30.733 2.669 1.928 9.382 4.581 14.509 5.734 1.607.361 4.03 1.529 5.385 2.595 3.666 2.884 11.172 2.407 18.712-1.189 2.651-1.265 5.419-1.4 8.433-.413l2.451.802-1.8-2.747c-1.268-1.934-1.401-2.62-.451-2.317.742.237 1.793 1.415 2.336 2.617 1.144 2.532 4.513 2.957 4.513.568 0-1.124.609-1.457 2-1.093 1.1.287 2 .208 2-.177s5.288-.695 11.75-.689c6.462.006 13.325-.37 15.25-.837 5.672-1.374 44.878-2.594 45.604-1.419.283.457 1.95.837 3.705.843 1.755.006 5.216.614 7.691 1.351 2.475.738 7.2 1.256 10.5 1.151 3.3-.104 6.765.191 7.699.657 1.094.545 2.985.233 5.309-.875 3.135-1.495 3.73-1.529 4.521-.258.726 1.167 1.295 1.225 2.812.285 2.254-1.396 4.159-.028 4.159 2.985 0 1.313.484 1.721 1.552 1.311.89-.341 1.291-.173.941.393-.766 1.24-.494 1.234 3.243-.069 2.659-.927 3.921-.606 10.206 2.597 3.944 2.01 7.708 3.736 8.364 3.836.657.1 1.644.454 2.194.788.55.333 2.868.915 5.15 1.293 4.707.778 11.272-1.913 14.882-6.1 2.166-2.512 5.472-3.182 5.462-1.106-.004.688-.6 2.387-1.325 3.777-2.888 5.534-2.933 10.395-.086 9.303.779-.299 1.417-.1 1.417.442s1.382 1.558 3.072 2.258c4.606 1.908 9.234-.615 11.912-6.494 1.136-2.495 2.392-4.573 2.791-4.619.399-.046 1.625-.214 2.725-.373 1.1-.16 4.362-.63 7.25-1.046 3.799-.547 5.25-.429 5.25.427 0 1.554 11.258.8 11.788-.79.208-.624 1.071-1.135 1.918-1.135 1.208 0 1.288-.302.373-1.404-.641-.773-.885-2.522-.541-3.89.705-2.81 4.901-6.894 6.036-5.875.409.368.462-.118.117-1.081-.408-1.137-.114-1.794.84-1.875.808-.069 1.919-.237 2.469-.375.55-.138 1.45-.306 2-.375s1.014-.687 1.032-1.375c.053-2.1 2.615-4.797 4.991-5.254 1.238-.239 2.977-1.054 3.864-1.813 1.742-1.489 5.209-3.079 6.267-2.874.36.07 1.231-.568 1.936-1.417 1.007-1.213 1.018-1.707.054-2.303-.945-.584-.973-1.777-.122-5.174a486.17 486.17 0 0 0 2.124-8.915c1.232-5.445 1.245-35.299.017-39.5-1.584-5.422-.055-106.996 1.793-119 2.289-14.88 3.051-29.92 3.564-70.403.303-23.871.732-43.696.954-44.056.222-.359.624-7.292.892-15.406.443-13.42.336-14.725-1.189-14.434-1.324.252-1.741 1.679-1.98 6.771-.299 6.35-1.555 9.543-3.324 8.449-.495-.306-.895-5.363-.888-11.239.008-5.875-.072-12.482-.177-14.682-.194-4.078.621-10.583 2.295-18.315.514-2.373.604-4.848.2-5.5-.403-.652-.613-5.256-.466-10.231.27-9.103-1.162-16.164-2.755-13.586-.525.849-.82.317-.852-1.534-.027-1.559-.31-14.084-.629-27.834-.474-20.395-.314-25.737.865-29 .796-2.2 1.518-6.7 1.606-10 .088-3.3.366-5.212.617-4.25.564 2.157 1.898 2.268 2.683.223.322-.84.512-9.278.421-18.75-.09-9.473.401-22.538 1.093-29.033.881-8.262.944-12.19.21-13.074-.618-.745-.681-1.644-.154-2.19.492-.509 1.159-6.551 1.481-13.426.323-6.875 1.017-20.825 1.543-31 2.223-42.987 2.097-56.253-.938-99-1.187-16.724-1.818-23.699-2.594-28.67-2.675-17.143-5.201-84.67-4.874-130.328.12-16.773-.162-33.184-.626-36.468-.56-3.965-.492-6.189.202-6.618.663-.41.824-3.169.44-7.531-.333-3.787-.539-10.035-.457-13.885.199-9.338.198-17.479-.004-26.211-.091-3.967.534-20.392 1.39-36.5 1.492-28.066 2.229-40.302 4.631-76.789.597-9.075 1.198-51.825 1.335-95 .23-72.408.776-101.454 3.506-186.5 1.137-35.413 1.698-48.463 3.052-71 .529-8.8.964-21.48.966-28.177.004-10.758-.199-12.23-1.745-12.634-1.621-.423-1.617-.466.055-.573 1.71-.11 1.794-2.156 1.612-39.108-.151-30.714-.469-39.222-1.5-40.077-.719-.597-1.821-3.638-2.449-6.758-.627-3.12-1.577-6.494-2.11-7.498-.533-1.004-1.179-3.479-1.437-5.5-.257-2.021-.907-3.825-1.444-4.008-.538-.184-.977-.794-.977-1.357s.708-.752 1.573-.42c2.551.978 1.271-2.734-1.338-3.881-1.239-.545-2.533-1.895-2.875-3-.342-1.105-1.398-3.134-2.345-4.509-1.813-2.63-2.598-5.182-3.568-11.602-1.03-6.815-6.202-26.023-7.881-29.27-1.185-2.291-2.315-3.128-4.226-3.128-2.939 0-9.717 1.693-13.056 3.261-1.623.762-2.626.7-3.75-.233-1.19-.987-1.534-.997-1.534-.043 0 .676-.652.979-1.449.673-.881-.338-1.695.22-2.077 1.424-.51 1.608-1.225 1.87-3.801 1.396-1.745-.32-6.863-1.168-11.373-1.884-8.039-1.275-8.207-1.26-8.613.803-.395 2.003-.421 1.996-.551-.146-.132-2.191-.375-2.239-9.386-1.854-5.088.218-11.725 1.145-14.75 2.06-3.025.915-6.251 1.667-7.169 1.671-.918.005-1.928.682-2.243 1.504-.316.823-1.365 1.399-2.331 1.281-.966-.119-2.844.228-4.173.769-1.901.775-2.804.598-4.228-.826-.996-.996-2.484-1.552-3.308-1.236-.823.316-2.215-.144-3.094-1.023-.878-.878-2.127-1.59-2.775-1.582-.691.009-.558.417.321.985 1.333.862 1.333.979 0 1.055-1.01.058-.847.366.5.945 1.849.795 1.811.873-.5 1.045-1.375.102-3.291.105-4.257.006-.966-.098-2.021.51-2.344 1.353-.771 2.008-8.618 1.106-12.942-1.486-1.673-1.004-3.923-1.826-5-1.828-1.076-.002-4.207-.405-6.957-.895-2.75-.491-7.7-.722-11-.514-3.3.209-7.559.391-9.465.405-1.906.015-3.952.43-4.547.924-.595.494-2.768 1.084-4.828 1.311-2.059.227-4.334 1.219-5.055 2.205-1.179 1.612-1.753 1.663-5.708.512-6.331-1.842-17.504-2.088-22.046-.486-2.118.748-3.851 1.125-3.851.84 0-.286-1.8.492-4 1.728-2.2 1.237-4 2.565-4 2.953 0 .388-.562.652-1.25.588-.687-.065-5.245.255-10.129.711-6.062.566-9.088.491-9.538-.238-.452-.731-1.516-.622-3.383.347-2.4 1.245-3.084 1.211-5.757-.284-2.856-1.597-3.091-1.597-4.015.011-.599 1.045-1.618 1.465-2.618 1.081-1.096-.421-1.399-.242-.915.541.398.644.439 1.17.093 1.17-1.06 0-3.488-2.786-3.488-4.002 0-.63-.788-.972-1.75-.762-.962.211-1.638.919-1.5 1.573.396 1.885-1.554 1.383-2.173-.559-.352-1.104-1.72-1.831-3.706-1.971-1.732-.121-3.909-.908-4.839-1.75-2.04-1.846-5.699-2.008-6.299-.279-.238.688-.219 3.995.042 7.349l.475 6.099-3.875.64c-2.131.352-6.137.645-8.902.651-6.595.014-8.992 1.844-10.867 8.294-1.934 6.654-2.86 32.48-2.839 79.217.015 31.405.547 43.435 3.092 69.866.417 4.326.397 17.826-.044 30-.85 23.468-1.088 104.821-.337 115.061 1.745 23.786 2.717 44.612 2.22 47.573-.323 1.925-.991 5.64-1.485 8.254-.493 2.615-.551 9.365-.128 15 .767 10.226 1.027 37.223.44 45.746-.33 4.794-1.761 53.449-2.015 68.5-.273 16.196-2.51 60.655-3.874 77-.938 11.242-1.231 29.2-.985 60.389.326 41.348.23 44.481-1.401 45.719-1.666 1.265-1.666 1.33 0 1.36.962.018 1.75.608 1.75 1.312 0 .98-3.997 1.346-17 1.559-19.399.318-23.367-1.258-6-2.383 6.05-.392 11-1.128 11-1.636 0-.957-21.824-.401-45.5 1.16-7.15.471-17.275 1.115-22.5 1.431-5.225.316-12.2 1.049-15.5 1.628-3.3.58-7.248 1.238-8.773 1.463-1.526.225-3.127.627-3.559.894-.431.267-12.244.568-26.249.669-14.006.101-27.537.498-30.069.882s-7.921.35-11.977-.076c-11.065-1.162-32.74-1.604-33.658-.686-.444.444-2.361 1.005-4.261 1.247-5.549.708-38.806.777-39.93.083-.563-.348-1.513-.331-2.11.038s-7.685.817-15.75.994c-17.557.387-29.708 1.179-37.164 2.424-5.942.991-22.959 2.223-19.25 1.393 2.551-.57 3.07-2.364.684-2.364-.861 0-2.548.534-3.75 1.188-1.297.705-7.06 1.239-14.184 1.316-6.6.07-13.8.256-16 .412-3.66.259-3.788.359-1.5 1.17 1.831.65 1.563.692-1 .16-6.14-1.275-70.51-.899-72.1.421-1.078.896-1.823.862-3.199-.144-2.039-1.49-5.374-.956-7.951 1.273-1.572 1.36-1.75 1.345-1.75-.141 0-2.231-3.724-2.149-4.311.095-.419 1.605-.467 1.599-.573-.074-.097-1.518-.913-1.797-4.866-1.661-2.613.089-5.287.123-5.944.074-1.993-.148 2.181-8.239 11.279-21.861 4.628-6.93 8.415-13.159 8.415-13.842 0-.682 1.072-2.084 2.383-3.115 1.31-1.031 3.545-4.168 4.965-6.972 5.538-10.927 12.558-19.609 15.124-18.703 1.422.502 6.154-6.917 13.456-21.096 6.285-12.203 11.24-19.422 6.864-10-1.278 2.75-2.759 5.675-3.292 6.5-.533.825-2.001 3.525-3.261 6-1.261 2.475-2.949 5.625-3.751 7s-1.465 3.25-1.473 4.167c-.008.917-.985 3.842-2.171 6.5-2.878 6.454-2.921 6.904-.66 6.904 1.433 0 3.135-2.308 6.481-8.785 3.99-7.726 5.149-9.145 7.339-8.986.757.054 13.148-16.499 15.869-21.2 2.637-4.556 5.993-10.674 11.498-20.965 2.021-3.776 5.013-8.491 6.651-10.478s2.978-3.936 2.978-4.332c0-1.77 14.252-29.978 18.101-35.825 6.691-10.164 19.012-30.75 23.299-38.926 2.142-4.084 6.303-11.68 9.247-16.878 2.944-5.199 5.353-9.647 5.353-9.885 0-.545 24.457-43.472 27.704-48.626 1.322-2.099 3.237-5.299 4.256-7.113 1.018-1.814 2.457-4.372 3.196-5.685.739-1.313 2.072-3.287 2.961-4.387.89-1.1 3.421-5.375 5.625-9.5 9.596-17.956 17.569-32.575 18.272-33.5 2.399-3.155 21.541-40.778 24.052-47.271 3.552-9.188 7.094-16.229 8.163-16.229.424 0 .771-.468.771-1.04 0-.908 3.568-6.564 5.02-7.96.287-.275 1.071-1.625 1.743-3 .672-1.375 1.62-3.175 2.105-4 2.884-4.903 5.128-10.019 5.105-11.636-.014-1.025-1.43.723-3.146 3.886-1.716 3.162-3.391 5.749-3.723 5.748-.332-.002-.654-1.389-.715-3.084-.071-1.985.182-2.609.711-1.753 1.371 2.22 3.76-2.075 3.285-5.906-.397-3.196 1.554-8.482 3.596-9.744 1.21-.747.242 2.168-1.647 4.962-1.53 2.261-1.791 4.927-.398 4.067.515-.319 2.143-3.045 3.617-6.059 1.475-3.015 3.105-5.481 3.623-5.481.518 0 .622-.518.23-1.152-.391-.633-.037-1.646.788-2.25 2.595-1.901 7.329-12.657 4.913-11.164-2.015 1.245-1.152-1.166 2.176-6.084 12.615-18.637 27.988-39.781 29.689-40.832 1.625-1.005 1.202.445-.916 3.138-1.069 1.359-1.696 3.118-1.393 3.908.722 1.881 2.337 1.85 2.337-.045 0-.814 1.575-3.942 3.5-6.952 1.925-3.009 3.5-5.943 3.5-6.519 0-.576.337-1.052.75-1.056.413-.004 1.237-1.017 1.831-2.25 2.526-5.238 7.728-14.361 9.021-15.821.769-.868 1.398-1.889 1.398-2.27 0-.38 1.059-2.369 2.354-4.421 1.295-2.051 3.144-7.105 4.108-11.23 2.858-12.223 3.825-15.418 5.146-17.002 1.867-2.238 3.352-6.382 6.361-17.756 1.492-5.642 3.01-10.554 3.372-10.917.363-.362.659-1.258.659-1.991 0-2.368 17.941-37.968 21.449-42.564 7.281-9.535 13.028-24.83 14.829-39.463l.516-4.193-6.147-2.098c-3.381-1.154-8.847-2.298-12.147-2.542-3.3-.245-12.75-.94-21-1.545-8.25-.606-16.8-1.708-19-2.449-2.2-.741-9.175-2.099-15.5-3.017-6.325-.918-16.225-2.749-22-4.069-5.775-1.319-11.303-2.398-12.285-2.396-3.582.005-18.442-5.19-27.215-9.514-8.15-4.018-10.075-4.542-20.384-5.556-7.352-.722-13.728-2.001-18-3.61-7.378-2.777-22.252-5.301-31.529-5.35-6.432-.033-22.695-2.211-28.587-3.828-1.925-.528-8.554-1.171-14.732-1.429l-11.232-.469-2.518 4.505M1108.3 183c0 3.025.187 4.262.416 2.75.229-1.512.229-3.988 0-5.5s-.416-.275-.416 2.75m.082 28.5c.002 6.6.164 9.17.359 5.711.196-3.459.195-8.859-.003-12s-.358-.311-.356 6.289m-672.324 52.126c-1.177 1.994-1.976 3.789-1.776 3.989.199.199 1.371-1.432 2.604-3.626 2.801-4.983 2.084-5.297-.828-.363M1108.467 319c0 30.525.127 43.012.282 27.75.156-15.263.156-40.238 0-55.5-.155-15.263-.282-2.775-.282 27.75M428.5 274.187c-2.2 3.327-4.9 7.534-6 9.349-1.1 1.814-3.706 6.092-5.792 9.506-2.085 3.414-3.615 6.385-3.398 6.601.518.518 2.594-2.603 17.644-26.523 3.829-6.085 1.648-5.137-2.454 1.067m606.619 11.587c.131 2.874.551 5.226.933 5.226.916 0 .531-8.751-.428-9.709-.409-.409-.636 1.608-.505 4.483M408 307c-1.925 3.284-3.837 5.977-4.25 5.985-.413.008-.748.803-.745 1.765.006 2.224 3.501-1.993 7.398-8.925 3.922-6.977 1.755-5.917-2.403 1.175m629.936 13.25c-.604 2.364-.487 6.75.18 6.75.486 0 .884-1.575.884-3.5s-.225-3.5-.5-3.5-.529.113-.564.25m-646.443 13.405c-3.665 5.7-10.314 17.569-10.417 18.595-.153 1.513 1.709.696 2.28-1 .633-1.88 3.762-7.426 5.354-9.489 2.303-2.985 7.364-12.761 6.606-12.761-.457 0-2.177 2.095-3.823 4.655m646.176-.405c.867 4.557 1.331 4.702 1.331.417 0-2.017-.439-3.667-.975-3.667-.56 0-.712 1.383-.356 3.25m.583 9.25c.011 2.2.216 2.982.455 1.738.239-1.244.23-3.044-.02-4s-.446.062-.435 2.262m-661.698 16.837c-1.006.736-1.634 1.922-1.396 2.637.279.838 1.047.363 2.161-1.337 1.957-2.987 1.832-3.199-.765-1.3M372.2 365.2c-.66.66-1.2 2.01-1.2 3 0 .99-.343 1.8-.763 1.8-.794 0-2.301 2.554-4.276 7.25-.636 1.512-1.563 2.75-2.059 2.75-.496 0-.902.513-.902 1.139 0 .627-1.376 3.376-3.058 6.109-1.682 2.734-2.807 5.221-2.5 5.528.307.306.672.37.811.141.14-.23 1.265-1.861 2.5-3.627 1.236-1.765 2.247-3.707 2.247-4.316s1.075-2.54 2.388-4.291c1.314-1.751 3.555-5.514 4.981-8.362 1.426-2.849 3.052-5.463 3.612-5.809 1.208-.747 1.362-2.512.219-2.512-.44 0-1.34.54-2 1.2m668.1 36.8c0 3.025.187 4.262.416 2.75.229-1.512.229-3.988 0-5.5s-.416-.275-.416 2.75m-689.059-1.014c-1.831 2.931-1.511 3.568.759 1.514 2.031-1.838 2.62-3.5 1.241-3.5-.418 0-1.318.894-2 1.986m-7.358 12.837c-2.397 2.8-3.075 4.177-2.057 4.177 1.044 0 4.561-4.947 3.951-5.557-.211-.211-1.063.41-1.894 1.38m-8.248 13.611c-1.806 2.757-2.009 3.57-.885 3.558.839-.009 3.43-5.146 2.875-5.7-.195-.195-1.09.769-1.99 2.142M1017.3 459c0 3.025.187 4.262.416 2.75.229-1.512.229-3.988 0-5.5s-.416-.275-.416 2.75m.986 14.5c.008 2.75.202 3.756.432 2.236.229-1.52.223-3.77-.014-5-.237-1.23-.425.014-.418 2.764M229.212 578.434c-1.748 3.836-1.483 5.608.322 2.149.836-1.605 1.379-3.343 1.206-3.864-.174-.52-.861.251-1.528 1.715M1025.32 716c0 3.575.182 5.038.403 3.25.222-1.788.222-4.712 0-6.5-.221-1.788-.403-.325-.403 3.25M849.5 819c.34.55 1.518 1 2.618 1 1.1 0 1.722-.45 1.382-1-.34-.55-1.518-1-2.618-1-1.1 0-1.722.45-1.382 1m-225.738 13.707c1.244.239 3.044.23 4-.02s-.062-.446-2.262-.435c-2.2.011-2.982.216-1.738.455M79.857 860.25c-1.617 2.306-1.766 2.838-.513 1.832 1.782-1.431 4.124-5.082 3.259-5.082-.257 0-1.492 1.462-2.746 3.25m80.608 9-1.585 3.25 2.038-2.5c1.962-2.407 2.602-4 1.608-4-.261 0-1.188 1.462-2.061 3.25m-108.34 85.375c-.66 1.448-.971 2.863-.69 3.143.28.28.984-.74 1.565-2.268 1.372-3.608.684-4.296-.875-.875m2 3c-.66 1.448-.971 2.863-.69 3.143.28.28.984-.74 1.565-2.268 1.372-3.608.684-4.296-.875-.875M1069.286 973.5c.008 2.75.202 3.756.432 2.236.229-1.52.223-3.77-.014-5-.237-1.23-.425.014-.418 2.764m-1029.52 5.433c-2.433 2.185-2.978 3.225-2.139 4.077.842.855 1.622.43 3.086-1.683 4.348-6.275 4.093-6.92-.947-2.394m-1.683 101.423c1.108.948 6.96 1.522 6.408.629-.335-.542-2.007-.985-3.717-.985-1.709 0-2.92.16-2.691.356m1138.277 270.628c-.583 4.357-.764 9.631-.402 11.719.571 3.29.775 2.663 1.528-4.703 1.154-11.273 1.213-12.869.521-13.988-.322-.522-1.064 2.615-1.647 6.972m-17.693 19.683c-.367.366-.622 2.279-.567 4.25l.101 3.583.915-3.901c.922-3.928.781-5.163-.449-3.932m-25.037 26.583c-.872 3.254-.764 6.75.208 6.75.461 0 .914-2.025 1.008-4.5.186-4.913-.274-5.764-1.216-2.25" fill-rule="evenodd"/></svg>