<svg xmlns="http://www.w3.org/2000/svg" width="1240" height="1753"><path d="M116.5 58.499c-7.15.675-18.85 1.511-26 1.858-7.15.347-13.9.834-15 1.082-1.1.248-3.686.721-5.747 1.051-6.14.983-11.217 7.242-13.201 16.272-.366 1.667-1.54 3.822-2.609 4.789-3.045 2.756-2.305 10.564 1.702 17.949 1.159 2.137.728 4.848-.637 4.005-.452-.279-.589.382-.304 1.47.425 1.626.868 1.789 2.492.92 1.086-.581 2.224-.808 2.528-.504.305.304-.634 1.004-2.085 1.556-3.178 1.209-3.541 4.053-.517 4.053 1.819 0 1.936.225.815 1.576-.774.932-.926 1.852-.373 2.25.515.371.947 4.949.96 10.174.013 5.225.415 10.85.894 12.5.479 1.65 1.001 6.825 1.16 11.5.159 4.675.466 12.459.681 17.299.216 4.839.021 9.028-.433 9.309-.454.28-.826 1.863-.826 3.517 0 1.653-.525 3.987-1.167 5.186-.641 1.199-1.264 4.882-1.383 8.184-.119 3.303-.523 7.163-.898 8.579-.468 1.77-.192 2.98.884 3.873 1.713 1.421 2.119 4.053.626 4.053-.516 0-.854 1.237-.75 2.749.149 2.18-.291 2.817-2.123 3.078-2.846.404-3.564 2.056-2.319 5.332.791 2.081.298 3.633-2.916 9.173-2.128 3.667-3.608 6.668-3.289 6.668.319 0 .127.563-.427 1.25-.554.688-1.312 2.676-1.684 4.419-.825 3.858 2.231 10.489 5.959 12.931 2.748 1.801 3.331 4.4.987 4.4-.825 0-1.507-.788-1.515-1.75-.013-1.485-.158-1.524-.959-.258-.751 1.188-1.196 1.238-2.184.25-.683-.683-3-1.242-5.149-1.242-3.062 0-3.782.324-3.331 1.5.316.825.128 1.5-.418 1.5s-1.453 1.208-2.014 2.684c-1.709 4.494.884 8.859 5.872 9.886 2.646.545 5.772 3.251 5.85 5.063.044 1.027.423 3.78.842 6.117.514 2.869.407 4.25-.33 4.25-.64 0-1.054 1.859-1.001 4.493.116 5.747 2.187 8.117 6.714 7.684 4.579-.438 5.608.935 5.711 7.623.048 3.135.425 19.65.837 36.7.702 28.997.954 51.988.965 88 .003 8.25.025 23.325.05 33.5s-.291 26.825-.703 37c-.728 17.996-.941 100.483-.28 108.5.559 6.781.662 54.018.121 55.553-2.259 6.409-3.444 84.871-1.982 131.232.651 20.662 2.611 32.92 5.577 34.878.73.482 3.127.795 5.327.696 2.2-.099 5.411.141 7.136.535 3.651.832 4.639 3.728 3.457 10.132-.408 2.214-.559 4.577-.334 5.25.477 1.433 4.857 1.654 5.702.287.318-.515 1.927-1.609 3.576-2.431 1.648-.823 2.738-1.076 2.421-.564-.317.513.174.932 1.09.932.982 0 1.455-.55 1.152-1.341-.283-.737-.088-1.975.434-2.75.735-1.09.883-.957.658.591-.205 1.407.352 2.092 1.88 2.309 1.763.251 2.07-.081 1.629-1.765-.437-1.672-.197-1.941 1.243-1.389 1.224.47 1.557.317 1.061-.485-.434-.702-.1-1.17.836-1.17.892 0 1.559.855 1.559 2 0 2.413.253 2.438 4.182.406 1.751-.906 3.35-1.198 3.701-.677.88 1.307 4.117 2.374 4.117 1.356 0-2.886 14.271-.74 19.171 2.883 1.611 1.192 3.694 2.343 4.629 2.559.935.217 2.615.664 3.734.994 2.453.723 11.741-3.956 19.08-9.613l5.115-3.942 6.885 1.623c8.972 2.115 24.402 1.417 32.886-1.486 3.3-1.13 7.859-2.065 10.131-2.078 3.542-.021 4.504.463 6.741 3.396l2.61 3.422-6.505.696c-7.054.756-6.888.655-7.878 4.791-.591 2.469-.433 2.752 1.238 2.222 1.371-.435 2.062-.045 2.433 1.374.431 1.646 1.173 1.911 4.374 1.56 2.121-.233 3.069-.179 2.106.119-.963.298-1.75 1.409-1.75 2.468 0 2.328.647 2.423 2.677.393.843-.844 2.31-1.287 3.259-.986.974.309 2.771-.359 4.123-1.531 1.368-1.187 2.55-1.622 2.753-1.014.195.586 1.169 1.065 2.164 1.065.996 0 2.046.616 2.335 1.368.289.753 4.229 2.368 8.755 3.589 6.645 1.793 9.787 2.109 16.311 1.637 8.992-.649 19.199-2.41 21.873-3.772 1.45-.74 1.75-.44 1.75 1.75 0 1.977.391 2.492 1.552 2.046.89-.341 1.291-.173.941.393-.336.544.053.989.865.989.811 0 1.665-.562 1.896-1.25.328-.975.787-.948 2.083.122.915.755 1.663 1.081 1.663.725 0-.357 1.328.038 2.95.877 4.736 2.449 8.505 1.99 10.058-1.224.73-1.513 1.366-3.2 1.413-3.75.047-.55.725-3.072 1.507-5.604l1.423-4.605 4.054.911c2.23.501 4.963.659 6.075.351 1.111-.308 27.895-.792 59.52-1.076 54.19-.487 71.95-1.218 88.5-3.643 7.243-1.061 100.573-2.398 120-1.719 24.692.864 56.965.367 59.235-.911 1.982-1.116 3.029-.785 9.25 2.926 3.858 2.301 7.015 4.491 7.015 4.867 0 .375 1.237 1.235 2.75 1.911 2.929 1.31 11.264 6.608 33.665 21.402 18.054 11.923 34.666 23.97 47.47 34.426 1.862 1.52 5.125 3.601 7.25 4.625 2.126 1.024 3.865 2.291 3.865 2.817 0 .526 1.013.672 2.25.324 1.504-.423 1.816-.331.94.278-1.004.699-.697 1.313 1.318 2.633 1.445.947 3.497 1.787 4.56 1.867 1.063.08 2.174.908 2.47 1.84.692 2.179 3.462 3.299 3.462 1.401 0-1.154.602-1.216 3.25-.332 1.788.596 3.678 1.473 4.2 1.947.523.475 1.527.864 2.231.864 2.013 0 9.823 6.185 11.997 9.5 3.588 5.471 8.641 13.923 11.88 19.868 1.87 3.433 3.404 5.3 3.696 4.5.281-.769.799-.053 1.182 1.632 1.031 4.528 2.135 6.03 4.197 5.708 1.481-.231 1.573-.094.446.665-1.201.808-1.123 1.377.5 3.674 1.057 1.495 2.431 3.596 3.055 4.669 1.976 3.4 3.05 4.049 3.738 2.256.425-1.107-.498-2.798-2.767-5.067-1.873-1.873-2.948-3.405-2.39-3.405 1.394 0 7.821 7.133 7.254 8.05-.252.407.243 1.009 1.1 1.338.857.329 1.278 1.051.935 1.605-.342.554-.183 1.007.354 1.007 1.365 0 7.427 12.73 6.656 13.978-.348.562-.195 1.022.339 1.022.533 0 2.225 3.263 3.758 7.25 1.534 3.987 4.801 11.075 7.262 15.75 5.79 11.002 6.209 11.754 9.193 16.5 1.383 2.2 3.373 6.025 4.421 8.5 2.518 5.947 5.447 10.159 6.578 9.46.502-.31.644.134.317.988-.338.878-.068 1.552.62 1.552.847 0 1.032-1.139.609-3.75a277.839 277.839 0 0 1-.776-5c-.093-.687-.57-1.25-1.061-1.25-.49 0-.614-.45-.274-1 .34-.55.066-1-.608-1-.674 0-.934-.291-.578-.648.769-.768-3.316-8.352-4.498-8.352-.449 0-.834.563-.855 1.25-.074 2.349-2.961-5.473-2.961-8.02 0-1.398-1.055-3.934-2.344-5.636-2.824-3.728-7.954-16.262-7.332-17.914.256-.681.766-.335 1.207.82 2.067 5.414 4.567 10.442 5.466 10.998.552.341 1.003 1.451 1.003 2.467 0 1.36.532 1.709 2.015 1.321 1.533-.401 1.87-.149 1.407 1.056-.375.977.384 2.501 1.986 3.985 1.425 1.321 2.592 2.941 2.592 3.6 0 2.805 5.268 11.985 8.969 15.627 2.204 2.171 3.803 4.509 3.551 5.196-.251.688-.096 1.25.345 1.25.441 0 .853.563.916 1.25.063.688.534 5.29 1.047 10.229.514 4.938.721 9.532.462 10.208-.26.677.071 2.878.736 4.891.984 2.983.957 3.815-.15 4.499-1.119.691-1.051 1.356.383 3.785.958 1.621 1.741 3.627 1.741 4.459 0 .832.495 1.677 1.1 1.879.607.202 1.247 3.367 1.428 7.062.18 3.683.609 7.151.952 7.706.364.589-.02.762-.924.415-1.335-.512-1.461.278-.914 5.762.348 3.495 1.111 6.96 1.696 7.699.793 1.003.534 1.765-1.02 3-2.66 2.114-3.642 10.173-1.844 15.13 1.361 3.751 4.459 20.116 6.063 32.026.111.825 1.02 5.775 2.019 11 .999 5.225 1.72 11.75 1.601 14.5-.208 4.837-3.245 17.915-5.109 22-.802 1.758-1.631 4.769-4.996 18.132-.433 1.723-1.139 3.7-1.568 4.394-.429.694-.928 2.538-1.11 4.097-.182 1.56-2.365 7.133-4.852 12.384-2.487 5.252-4.522 10.179-4.522 10.95 0 .77-.707 2.107-1.571 2.972-.865.864-1.283 1.571-.929 1.571.354 0-.064.707-.929 1.571-.864.865-1.571 2.215-1.571 3 0 .786-.401 1.429-.892 1.429-.49 0-1.201 1.233-1.579 2.74-.378 1.507-1.043 2.969-1.477 3.25-.434.28-1.959 2.829-3.388 5.663-1.43 2.834-3.964 6.647-5.632 8.473-1.667 1.826-3.032 3.878-3.032 4.561 0 3.662-10.572 19.07-17.961 26.179-2.497 2.401-3.976 4.062-3.289 3.691 1.664-.898 1.606.903-.074 2.297-.837.695-1.673.749-2.275.147-.601-.601-1.444-.133-2.294 1.274-1.076 1.783-1.081 1.977-.025.975 1.545-1.465 2.918-1.628 2.918-.346 0 1.125-6.105 8.096-7.09 8.096-.398 0-.487-.9-.2-2 .288-1.1 1.146-2 1.907-2 1.564 0 1.861-1.587.458-2.454-.508-.314-2.196.819-3.75 2.518a256.662 256.662 0 0 1-5.075 5.377c-1.237 1.258-2.253 2.687-2.258 3.174-.004.487-1.817 1.919-4.03 3.182-2.212 1.263-3.76 2.721-3.44 3.239.32.517-.004.721-.72.452-.72-.27-2.361 1.069-3.671 2.997-1.303 1.917-2.835 3.198-3.404 2.846-.594-.367-.736-.154-.332.499.395.639-.743 2.59-2.596 4.45-1.814 1.821-4.874 5.243-6.799 7.605-4.294 5.269-16.955 17.731-20.154 19.837-1.29.85.129-.927 3.154-3.949s6.85-7.138 8.5-9.148c1.65-2.01 4.8-5.602 7-7.982s5.575-6.26 7.5-8.622c1.925-2.362 4.063-4.876 4.75-5.586 1.54-1.592 1.626-3.435.161-3.435-1.294 0-9.911 8.677-9.911 9.979 0 .497-.445 1.178-.989 1.514-.566.35-.734-.051-.393-.941.386-1.006.03-1.552-1.011-1.552-.884 0-1.607.675-1.607 1.5 0 1.823-2.133 1.961-3.867.25-1.017-1.003-2.059-.362-5.282 3.25-2.209 2.475-3.727 3.938-3.374 3.25 1.24-2.417-.614-3.398-2.441-1.291-.982 1.131-4.879 4.337-8.66 7.124-3.782 2.786-9.801 7.867-13.376 11.29-5.522 5.288-15.417 13.89-22.601 19.649-1.044.837-6.174 4.331-11.399 7.764-5.225 3.433-9.992 6.637-10.594 7.121-.602.484-2.605 1.661-4.451 2.616-1.846.955-3.887 2.24-4.534 2.857-.647.616-2.181 1.795-3.409 2.62-4.324 2.904-8.012 6.821-8.012 8.508 0 1.106-.528 1.503-1.5 1.13-.825-.316-1.518-.027-1.541.643-.049 1.458-7.865 5.246-13.459 6.523-2.2.502-6.71 2.064-10.023 3.472-6.721 2.855-15.323 3.63-19.927 1.797-3.515-1.4-16.047-2.877-34.55-4.07-15.131-.976-37.033-4.439-38.003-6.008-.35-.565-2.404-1.224-4.566-1.463-2.162-.239-5.503-.906-7.424-1.483-4.274-1.283-4.27-1.283-3.507-.049.886 1.434-1.253 1.233-4.346-.409-1.46-.774-6.244-2.657-10.631-4.184-4.388-1.527-9.349-3.705-11.025-4.841-1.677-1.136-5.062-2.9-7.523-3.919-2.461-1.019-5.375-2.336-6.475-2.927-1.1-.591-2.906-1.557-4.014-2.147-1.108-.59-3.427-2.086-5.154-3.323-3.966-2.842-5.209-2.889-2.737-.104 1.904 2.144 1.904 2.144-.467.75-4.739-2.789-5.723-3.445-9.384-6.257-2.048-1.574-3.434-3.331-3.08-3.905.355-.574.211-.775-.32-.446-.531.328-2.963-1.177-5.405-3.344-2.441-2.168-4.777-3.942-5.189-3.943-.413 0-2.527-1.778-4.699-3.95-2.172-2.172-3.223-3.671-2.336-3.33 1.074.412 1.372.228.89-.551-.398-.644-1.713-1.17-2.923-1.17-1.211 0-2.769-.91-3.464-2.023-1.166-1.866-1.111-1.927.714-.787 4.058 2.534 2.974-.104-2.075-5.047-5.07-4.965-6.517-8.184-1.864-4.149 4.347 3.77 5.494 2.089 1.507-2.211-1.375-1.482-2.5-3.165-2.5-3.739 0-.574-.45-1.044-1-1.044s-1-.9-1-2c0-1.111-.667-2-1.5-2-.825 0-1.5-.723-1.5-1.607 0-.992-.554-1.394-1.449-1.051-1.02.392-1.265.076-.826-1.067.46-1.2.2-1.46-1-1-1.133.435-1.458.193-1.077-.8.513-1.338-3.359-7.299-4.819-7.42-.973-.08-8.829-7.992-8.829-8.892 0-.418-1.772-2.604-3.937-4.858-2.166-2.253-3.666-4.369-3.334-4.701.595-.595-1.354-1.007-3.148-.666-.506.096-.284-.59.492-1.526 1.268-1.528 1.193-1.631-.747-1.016-1.288.409-2.455.204-2.896-.51-.467-.755-.314-.932.415-.481 1.453.897 1.452.34-.006-2.858-1.155-2.535-2.839-3.453-2.839-1.547 0 .55-.675 1-1.5 1s-1.5-.702-1.5-1.559.419-1.3.931-.984c3.278 2.026.21-6.023-3.266-8.569-.46-.336-.685-.884-.5-1.217.184-.334-.34-1.417-1.165-2.408-.825-.992-2.799-3.706-4.386-6.033-1.587-2.326-3.4-4.23-4.028-4.23-1.269 0-3.533-2.423-6.247-6.684-.986-1.549-2.028-3.041-2.316-3.316-1.811-1.731-17.937-33.753-17.312-34.378.342-.342.133-.622-.465-.622-.598 0-1.384-1.35-1.746-3-.362-1.65-1.02-3-1.461-3-.441 0-1.289-1.912-1.885-4.25-.596-2.338-1.951-5.937-3.011-8-2.232-4.342-1.513-4.933 1.37-1.126a277.263 277.263 0 0 0 2.487 3.25c.275.344 1.937 1.14 3.693 1.767l3.192 1.142-1.88-4.771c-1.035-2.624-1.631-5.725-1.326-6.891.472-1.806-1.26-7.527-4.732-15.621-2.881-6.718-4.283-10.061-4.405-10.5-.076-.275-1.292-2.975-2.702-6-2.605-5.587-3.632-8.381-4.29-11.67-.201-1.007-1.753-6.78-3.447-12.83-6.533-23.323-11.438-59.32-13.627-100-.67-12.44-1.238-16.07-3.21-20.5-2.385-5.36-5.136-7.524-12.766-10.047-3.85-1.273-8.073-3.133-9.385-4.134-3.786-2.888-9.445-2.427-17.827 1.454-1.216.563-3.466 1.07-5 1.126-2.008.073-2.749.591-2.649 1.851.198 2.496-.532 2.162-1.639-.75-1.143-3.006-3.98-3.294-4.716-.479-.429 1.641-.802 1.794-1.982.814-.869-.721-1.726-.83-2.128-.271-.371.515-5.174.936-10.674.936-5.5 0-11.575.388-13.5.862-3.564.879-17.682 1.593-33 1.67-8.357.043-13.841-.727-21.235-2.98-2.692-.82-4.299-.837-5.75-.06-1.148.615-2.015.676-2.015.143 0-.514-1.545-.935-3.434-.935-1.888 0-3.933-.309-4.544-.686-.61-.378-2.199.027-3.531.9-2.786 1.825-5.947 2.133-4.925.479.476-.77-.268-.898-2.441-.42-2.853.626-3.125.467-3.125-1.826 0-2.948-2.571-4.121-6.105-2.784-1.918.726-3.864.137-9.773-2.958-4.058-2.125-7.74-3.641-8.181-3.368-.442.272-1.054.089-1.361-.407-2.289-3.703-14.835-.723-18.131 4.307-.923 1.41-2.302 2.563-3.064 2.563-1.918 0-1.816-5.621.115-6.362.999-.383 1.5-1.958 1.5-4.714 0-3.267-.316-4.017-1.5-3.562-.825.316-1.5.194-1.5-.272 0-1.387-5.696-3.321-7.808-2.651-2.907.923-5.496 3.619-7.36 7.664-1.523 3.307-2.171 3.703-7.888 4.828-4.48.882-6.419.919-6.905.132-.931-1.506-9.922-1.037-11.562.603-.734.734-1.929 1.341-2.656 1.349-1.068.013-1.061.18.036.875 3.24 2.053-2.738 12.11-7.98 13.426-1.467.368-2.857 1.793-3.556 3.644-.764 2.024-1.832 3.04-3.195 3.04-1.127 0-2.853.844-3.837 1.876s-2.893 2.216-4.242 2.632c-1.35.416-3.118 1.421-3.931 2.233-1.303 1.303-1.278 1.589.21 2.422 1.303.729 1.455 1.378.667 2.85-.561 1.048-.901 2.487-.757 3.196.161.785-.579 1.204-1.888 1.07-1.848-.189-2.248.445-2.835 4.5-1.013 6.996-.845 18.08.355 23.431.581 2.59 1.31 7.765 1.619 11.5.31 3.734.772 7.915 1.027 9.29.256 1.375 1.367 12.175 2.471 24 1.103 11.825 2.458 24.65 3.011 28.5 1.338 9.318 1.932 15.914 2.561 28.434.288 5.739 1.147 11.814 1.908 13.5 1.801 3.992 4.37 15.846 4.673 21.566.131 2.475 1.022 6.761 1.98 9.525.958 2.763 2.012 8.163 2.344 12 .331 3.836 1.013 7.117 1.514 7.29.501.173.69.892.419 1.598-.271.705.599 4.183 1.933 7.727 1.334 3.545 2.763 8.441 3.175 10.88.413 2.44 1.336 5.346 2.053 6.458.717 1.112 3.139 7.647 5.382 14.522 2.244 6.875 4.48 13.4 4.97 14.5 1.986 4.462 3.499 8.989 3.639 10.888.081 1.106.67 2.184 1.307 2.397.637.212.921.771.63 1.241-.291.471 1.335 5.27 3.613 10.665a4362.63 4362.63 0 0 1 7.885 18.809c2.058 4.95 7.03 15.747 11.047 23.993 4.017 8.246 7.304 15.558 7.304 16.25 0 .691.375 1.257.834 1.257.458 0 .833.873.833 1.941s.469 2.231 1.042 2.585c.573.354 1.747 2.406 2.609 4.559.861 2.153 1.919 3.915 2.349 3.915.431 0 1.061 1.105 1.4 2.456.339 1.351 1.13 3.713 1.759 5.25s1.035 3.87.902 5.186c-.174 1.727.159 2.237 1.201 1.838.987-.379 2.753 1.634 5.59 6.371 2.281 3.809 4.148 7.307 4.148 7.773 0 .466 1.059 2.408 2.354 4.316 1.295 1.908 3.713 5.909 5.372 8.89a875.477 875.477 0 0 0 5.586 9.863c1.412 2.444 2.343 4.806 2.069 5.25-.275.444-.037.807.529.807.565 0 .784.634.486 1.41-.325.847.286 1.672 1.532 2.067 1.139.362 2.072 1.077 2.072 1.59 0 .513.787 1.725 1.75 2.692.963.968 3.906 4.786 6.541 8.486 6.145 8.63 10.674 14.149 24.879 30.323 2.932 3.338 7.805 9.356 10.83 13.374 4.597 6.106 11.041 13.577 19 22.031.825.876 2.784 3.296 4.353 5.378 1.569 2.082 3.932 4.277 5.25 4.878s2.401 1.582 2.406 2.182c.005.599 1.344 2.143 2.974 3.431 4.833 3.817 11.017 10.08 11.017 11.157 0 .551.361 1.001.802 1.001.441 0 3.254 2.269 6.25 5.043s6.663 5.699 8.148 6.5c1.485.801 3.06 2.019 3.5 2.707.682 1.065 6.888 5.278 22.569 15.319 2.123 1.36 3.131 2.731 2.939 4-.218 1.448-.062 1.592.623.578.713-1.055 1.384-1.102 3.042-.215 2.369 1.268 2.916 2.585.725 1.744-.771-.296-1.661-.279-1.978.037-.316.316 2.118 2.324 5.409 4.463 4.692 3.049 6.38 3.676 7.82 2.905 1.342-.719 2.753-.479 5.244.891 6.187 3.401 21.371 10.776 23.407 11.368 1.1.32 3.244.796 4.765 1.057 3.232.556 22.616 10.072 23.735 11.652.275.388 2.387 1.021 4.692 1.407 2.306.385 4.724 1.34 5.373 2.122.649.782 1.912 1.458 2.807 1.501.896.043 1.109.292.474.551-1.247.511-23.343-7.867-27.183-10.306-1.285-.816-2.631-1.189-2.991-.829-.361.36.138 1.099 1.107 1.641.97.543 1.484 1.439 1.142 1.992-.342.553.211 1.636 1.229 2.407 2.843 2.154 3.882 1.724 1.211-.502-1.299-1.081-1.982-1.981-1.519-2 1.248-.049 5.673 3.618 5.081 4.211-.28.28.209.784 1.086 1.121 1.097.421 1.358.226.836-.626-.418-.682.346-.445 1.698.526 1.351.971 3.582 2.247 4.957 2.835 1.375.589 4.3 1.933 6.5 2.988s4.788 1.916 5.75 1.915c.962-.002 1.75.379 1.75.845 0 .467 1.912 1.686 4.25 2.71 2.337 1.023 5.954 2.908 8.037 4.187 2.083 1.28 4.221 2.059 4.75 1.732.53-.327.963-.117.963.468 0 .584 2.025 1.604 4.5 2.266 2.475.662 4.5 1.56 4.5 1.996 0 .436.662.793 1.471.793s3.396 1.283 5.75 2.852c7.263 4.841 19.103 11.677 22.779 13.152 1.925.773 5.975 2.887 9 4.698 3.025 1.811 5.954 3.294 6.508 3.295.554.002 3.253 1.198 5.996 2.658 5.344 2.845 11.339 4.773 21.1 6.787 3.357.693 6.621 1.579 7.253 1.969.632.391 3.398 1.066 6.147 1.501 3.75.592 5.279.452 6.12-.561 1.963-2.366 5.761-1.658 6.48 1.209.428 1.703 1.131 2.372 2.101 2 .802-.308 2.128-.56 2.946-.56.971 0 1.377-.782 1.169-2.25-.241-1.691-1.19-2.406-3.82-2.878-3.196-.573-3.3-.693-1.193-1.381 1.55-.507 2.123-1.284 1.747-2.372-.461-1.336-.321-1.313.804.131 1.669 2.143 3.066 2.296 2.28.25-.316-.825-.139-1.5.393-1.5.533 0 .969 1.125.969 2.5 0 1.416.578 2.5 1.333 2.5.776 0 1.248.94 1.129 2.25-.112 1.237-.696 2.143-1.297 2.012-.605-.132-.829.449-.502 1.302.434 1.131 1.419 1.377 3.714.927 2.339-.459 2.747-.35 1.623.433-2.96 2.063 1.696 1.188 5.443-1.023 3.971-2.343 4.605-1.955 1.513.925-2.033 1.894-2.015 1.909 3.25 2.699 2.912.437 5.519.874 5.794.971.275.097 1.175.438 2 .757 2.367.916 9.841 1.893 18 2.355 13.796.779 31.384 2.386 44 4.019 13.345 1.727 30.832 1.523 62-.723 8.525-.614 17.119-1.182 19.097-1.261 1.978-.078 4.298-.725 5.154-1.436.857-.711 4.638-1.511 8.403-1.777 10.983-.775 27.049-1.272 24.596-.76-1.237.258-2.25.924-2.25 1.479 0 1.043 1.67.827 12.5-1.618 3.3-.745 7.7-1.642 9.778-1.993 2.114-.358 3.508-1.075 3.166-1.629-.337-.545-1.474-.717-2.528-.382-1.071.34-1.916.137-1.916-.46 0-.587.337-.983.75-.879.413.103 2.775-.208 5.25-.691s4.8-.905 5.167-.938c.366-.032.973-.365 1.347-.74.375-.375 1.313-.439 2.084-.143.773.296 1.416-.071 1.432-.819.022-.948.322-.858.998.3 1.059 1.814 4.961 1.404 4.987-.524.009-.623.452-.458.985.367.613.949.975 1.052.985.281.008-.67.69-.959 1.515-.643.825.317 1.5.078 1.5-.531s-.525-1.107-1.167-1.107c-.641 0-.929-.238-.638-.528.29-.29 1.677-.091 3.081.443 1.923.731 2.683.635 3.076-.389.33-.862 2.138-1.359 4.94-1.359 2.431 0 6.172-.478 8.314-1.062 2.142-.583 6.474-1.551 9.627-2.15 3.152-.599 5.992-1.509 6.309-2.022.317-.513 1.476-.933 2.576-.933 1.257 0 1.735-.429 1.287-1.155-.414-.669-.278-.884.326-.511 1.157.715 7.449-1.182 8.338-2.514.313-.469 3.796-1.525 7.739-2.347 3.944-.822 8.751-2.383 10.681-3.467 1.931-1.085 3.511-1.665 3.511-1.289 0 .376.505.178 1.122-.439.617-.617 1.742-.884 2.5-.593.818.314 1.378-.124 1.378-1.078 0-1.446 1.15-2.057 3.25-1.725.413.065.75-.282.75-.771 0-.488 1.529-1.175 3.399-1.526 1.869-.351 4.527-1.526 5.907-2.611 1.38-1.086 3.015-1.974 3.633-1.974.618 0 1.376-.658 1.685-1.462.308-.804 1.511-1.763 2.672-2.132 1.161-.368 2.649-1.173 3.307-1.788.658-.615 4.211-2.918 7.895-5.118 3.685-2.2 8.662-5.446 11.061-7.213 3.911-2.881 13.654-8.31 14.925-8.316.569-.003 12.164-7.011 18.978-11.471 4.754-3.112 20.454-14.766 26.944-20a817.04 817.04 0 0 1 7.551-6c9.128-7.147 11.677-9.225 15.952-13 6.905-6.098 14.058-13.37 19.591-19.915 11.647-13.78 33.871-39.142 34.893-39.82.609-.404.669-.741.134-.75-.535-.008.377-1.252 2.026-2.765 1.65-1.512 6.796-7.7 11.437-13.75 4.64-6.05 9.506-12.125 10.813-13.5 1.307-1.375 3.569-4.3 5.027-6.5 1.458-2.2 2.899-4.225 3.202-4.5 1.372-1.247 15-19.94 16.967-23.274 1.209-2.049 2.631-3.726 3.159-3.726s.701-.419.384-.932c-.316-.512.329-1.565 1.435-2.339 1.106-.775 1.724-1.695 1.374-2.045-.351-.35.1-.92 1-1.265.901-.346 1.387-1.035 1.08-1.531-.307-.496.146-1.172 1.006-1.502.859-.33 1.563-1.227 1.563-1.993s.353-1.393.784-1.393c.96 0 4.765-6.206 4.445-7.25-.126-.413.171-.75.66-.75 1.694 0 15.07-22.734 25.463-43.279 9.653-19.081 14.81-32.406 20.598-53.221l4.174-15c1.837-6.6 3.609-12.225 3.939-12.5.624-.522 5.239-22.218 8.933-42 1.181-6.325 3.051-15.55 4.155-20.5 1.104-4.95 2.068-9.787 2.143-10.75.074-.963.471-1.75.883-1.75.411 0 .719-2.425.683-5.388-.035-2.964 1.297-11.401 2.96-18.75 3.675-16.233 6.189-32.454 6.179-39.862-.005-3.025.645-9.1 1.443-13.5s2.105-13.16 2.903-19.466c.798-6.306 1.939-11.629 2.536-11.828 1.76-.586 2.917-6.91 3.651-19.967.621-11.035.529-12.2-.921-11.643-1.15.441-1.611.046-1.611-1.382 0-1.1-.675-2.259-1.5-2.576-1.006-.386-1.506-1.986-1.518-4.857-.021-4.976-2.285-20.53-3.83-26.305-2.537-9.487-4.24-18.397-4.582-23.976-.203-3.3-1.572-9.825-3.042-14.5-4.923-15.651-10.248-31.441-12.816-38a421.086 421.086 0 0 1-4.795-13c-5.064-14.63-10.184-27.453-11.114-27.835-.449-.185-.568-.736-.266-1.224.302-.489-.872-3.938-2.609-7.665a8336.296 8336.296 0 0 1-6.633-14.276c-4.029-8.699-8.268-17.124-18.238-36.25-3.942-7.563-6.805-13.757-6.362-13.765.443-.009.13-.442-.695-.964-.825-.521-1.522-1.302-1.549-1.735-.127-2.022-1.682-5.286-2.518-5.286-.513 0-.933-.924-.933-2.053s-1.125-3.709-2.5-5.732c-1.375-2.024-2.5-4.009-2.5-4.413 0-.677-4.751-9.357-9.5-17.356-7.551-12.718-12.529-20.793-16.231-26.328-2.348-3.511-4.269-6.855-4.269-7.431 0-1.558-10.315-16.512-14.959-21.687-2.221-2.475-4.039-4.833-4.04-5.239 0-.407-2.139-3.137-4.751-6.067-8.025-9-15.724-17.85-16.25-18.678-.68-1.073-12.749-14.644-16.65-18.722-1.732-1.812-3.009-3.294-2.837-3.294.172 0-2.11-2.362-5.072-5.25-6.428-6.267-5.798-5.633-13.652-13.754-10.137-10.483-21.237-20.042-30.885-26.595-6.072-4.124-19.46-9.401-23.851-9.401-2 0-4.144-1.205-6.964-3.914-2.24-2.153-4.414-4.065-4.831-4.25-.417-.185-2.411-2.212-4.432-4.505-2.596-2.945-3.833-3.756-4.214-2.762-.297.774-.151 1.3.324 1.169s.929.212 1.008.762c.079.55 2.074 2.8 4.433 5 4.032 3.761 6.449 7.503 4.842 7.498-.396-.002-4.991-4.342-10.211-9.645-6.724-6.83-8.766-9.424-7-8.896 1.37.41 3.05 1.454 3.732 2.321.681.867 1.519 1.296 1.861.954.951-.951-4.649-5.732-6.716-5.732-1.06 0-1.619-.53-1.336-1.267.267-.696-.482-1.934-1.666-2.75-3.281-2.262-5.883-5.213-5.883-6.672 0-.721-.421-1.311-.936-1.311-1.524 0-13.044-11.224-12.471-12.151.289-.467-.428-.849-1.593-.849-1.362 0-1.86-.417-1.395-1.17.482-.779.184-.963-.89-.551-1.083.416-1.446.183-1.105-.706.326-.849-1.101-1.991-3.968-3.178-2.463-1.018-4.283-2.166-4.045-2.551.237-.385-.525-1.004-1.695-1.375-1.171-.372-5.695-3.104-10.054-6.072S845.632 637 845.276 637c-.356 0-1.576-.87-2.712-1.933C840.253 632.902 814.928 620 812.99 620c-.684 0-3.773-1.268-6.866-2.819-3.093-1.55-8.324-3.873-11.624-5.163-3.3-1.29-6.45-2.662-7-3.049-.55-.387-3.475-1.49-6.5-2.449-3.025-.96-7.3-2.749-9.5-3.975-2.2-1.227-6.25-2.8-9-3.497-2.75-.697-8.6-2.297-13-3.557-4.4-1.259-11.6-3.101-16-4.093-4.4-.991-8.45-1.921-9-2.065-6.547-1.715-30.82-5.658-37-6.01-4.4-.251-9.368-1.078-11.04-1.837-4.2-1.907-13.859-3.312-27.46-3.994-6.325-.317-17.575-1.006-25-1.53-21.514-1.52-93.2-1.207-110.61.483-8.189.795-19.615 1.68-25.39 1.966-12.736.631-37.817 2.401-44 3.106-12.73 1.451-44.123 2.47-77.682 2.521-20.656.032-37.666-.077-37.8-.24-.805-.984-4.071-163.067-3.946-195.798.046-11.825.161-29.262.255-38.75L325 332h8.777c5.765 0 9.455-.467 10.75-1.359 2.889-1.991 26.075-2.866 83.473-3.151 27.225-.136 51.637-.577 54.25-.982 2.997-.464 4.75-.365 4.75.267 0 .617 2.595.823 6.75.536 3.713-.257 11.025-.343 16.25-.191 12.22.355 14.264.321 21.5-.361 3.3-.311 9.825-.181 14.5.288 4.675.47 18.4 1.121 30.5 1.446 12.1.326 29.425 1.041 38.5 1.589s23.7 1.434 32.5 1.968c12.752.773 59.652 1.076 123.5.796 18.179-.08 102.115 1.338 127 2.146 16.225.526 38.275 1.23 49 1.564 10.725.334 21.75.767 24.5.961 2.75.195 19.106.677 36.347 1.07 26.361.602 31.489.493 32.235-.685.632-.998.892-1.042.903-.152.012.978 8.365 1.25 38.393 1.25 32.804 0 38.93-.231 42.18-1.589 2.092-.874 5.859-1.976 8.372-2.449 6.761-1.273 12.341-2.616 14.331-3.448 1.354-.566 1.619-.364 1.143.875-.718 1.871-.035 2.019 2.662.576 1.064-.57 1.934-1.695 1.934-2.5 0-.806.91-1.465 2.021-1.465 1.112 0 3.7-1.085 5.75-2.411 2.157-1.395 6.048-2.685 9.229-3.059 11.154-1.313 13.155-1.668 20.254-3.593 3.985-1.081 8.476-2.238 9.98-2.573 1.503-.334 2.489-1.003 2.191-1.486-.299-.483-.066-.878.516-.878.582 0 1.059-.96 1.059-2.134 0-2.565-2.031-9.938-3.151-11.44-.441-.59-.25-1.659.425-2.375.942-1 .949-1.403.032-1.741-.656-.241-.946-1.085-.643-1.875.371-.967-.136-1.435-1.556-1.435-2.499 0-2.483.222-.553-7.969 2.211-9.378 2.836-21.191 1.446-27.303-1.796-7.891-3.347-12.108-4.903-13.326-.771-.604-1.08-1.62-.686-2.258.394-.638.029-1.847-.812-2.687-1.37-1.371-1.32-1.736.488-3.544 1.227-1.227 1.788-2.731 1.434-3.846-.359-1.133.002-2.054.949-2.417.842-.323 1.53-1.051 1.53-1.619 0-1.246-2.21-.926-3.235.469-.735 1.001-1.154-1.436-.817-4.75.098-.968-.493-1.75-1.322-1.75-2.068 0-1.087-6.553 1.542-10.3 1.081-1.54 1.771-3.34 1.534-4-.238-.66-.007-2.024.512-3.031 1.413-2.742 1.93-15.791.685-17.291-.585-.705-.795-2.131-.465-3.169.329-1.038-.025-3.422-.788-5.298-.762-1.876-1.196-3.932-.964-4.568.232-.636-.523-1.819-1.679-2.629-1.658-1.16-1.957-2.079-1.415-4.343.378-1.579 1.024-3.321 1.434-3.871 2.567-3.439-.535-20.094-4.573-24.556-2.315-2.558-4.257-16.826-2.443-17.947 1.098-.679 1.058-1.25-.223-3.205-1.34-2.045-1.364-2.645-.171-4.277 1.779-2.433 1.777-4.515-.005-4.515-.766 0-1.661-.698-1.989-1.552-.341-.89-.173-1.291.393-.941.544.336.989-.301.989-1.417 0-1.391.471-1.847 1.5-1.452 1.041.4 1.5-.069 1.5-1.531 0-1.159-.45-2.107-1-2.107s-1-.436-1-.969c0-.532.606-.736 1.346-.452.95.365 1.374-.446 1.44-2.75.051-1.797.795-3.781 1.653-4.408 1.862-1.362 2.087-5.373.311-5.536-.687-.063-3.999-.026-7.358.084l-6.108.199-.753-3.334c-.414-1.834-.667-5.045-.562-7.137.313-6.221-1.824-8.335-9.678-9.574-14.632-2.309-97.286-3.098-125.291-1.197-21.368 1.451-27.21 1.52-105 1.257-44.205-.15-75.677.193-88.734.967-15.54.922-21.416.928-25.327.025-5.923-1.367-23.745-1.572-27.124-.312-1.307.488-16.671.449-35.278-.089l-32.963-.953-4.167-4.475-4.167-4.475-22.87.135c-12.578.074-29.62.545-37.87 1.046-37.386 2.274-84.76 3.129-170.5 3.077-109.203-.065-142.511-.578-169.5-2.611-28.862-2.173-99.5-2.567-99.5-.555 0 .375-4.387.102-9.75-.605-12.485-1.647-70.795-1.554-88.75.141m200.75 785.286c-7.404.575-4.582 2.141 3.174 1.762 8.636-.421 13.677-2.261 5.911-2.156-2.659.035-6.748.213-9.085.394M724 869.418c0 .231 1.688 1.444 3.75 2.698 2.063 1.253 4.063 2.739 4.446 3.302.382.563.976.743 1.32.399.343-.343-1.401-2.018-3.876-3.721-4.304-2.961-5.64-3.595-5.64-2.678m-7.714 9.883c1.218 1.265 2.358 2.209 2.533 2.097.741-.471-2.405-4.398-3.524-4.398-.678 0-.236 1.026.991 2.301m25.135 19.571c.354.572 1.377.759 2.275.414 1.044-.4 1.387-.229.952.475-.374.605-.18 1.41.432 1.788.7.433.98-.005.756-1.181-.202-1.06-1.373-2.013-2.707-2.202-1.439-.205-2.101.07-1.708.706M1131.532 1035c.312 1.375.676 2.95.807 3.5.131.55.77 1.9 1.419 3 1.975 3.345 1.312-.55-.851-5-1.151-2.368-1.712-2.98-1.375-1.5m6.898 21.5c.391 1.65 1.142 3.44 1.668 3.977.526.538.427-.587-.219-2.5-1.514-4.478-2.367-5.347-1.449-1.477M883 1072.642c0 1.087.66 2.849 1.468 3.917 1.343 1.777 1.388 1.654.531-1.445-1.132-4.088-1.999-5.161-1.999-2.472M340.48 1212c.906 3.112 3.519 7.334 4.149 6.704.425-.425-3.122-7.506-4.361-8.704-.284-.275-.189.625.212 2m557.694 22.111c-1.278 3.465-2.281 7.889-1.787 7.889.682 0 3.655-9.291 3.138-9.808-.258-.258-.866.606-1.351 1.919M380 1273.5c0 .825.477 1.5 1.059 1.5s.781.45.441 1-.093 1 .548 1 .921.638.622 1.417c-.564 1.471 2.155 3.132 3.223 1.97.334-.364.07-.853-.587-1.088-.656-.236-1.704-1.974-2.327-3.864-1.151-3.486-2.979-4.674-2.979-1.935m4 9.5c0 .55.477 1 1.059 1s.803.414.491.919c-.62 1.004 2.381 4.484 3.178 3.686.858-.858-2.164-6.605-3.472-6.605-.691 0-1.256.45-1.256 1m-292.588 10.374c.501 3.865 1.182 5.366 2.043 4.504.25-.25-.22-2.237-1.045-4.416l-1.5-3.962.502 3.874m298.227-2.599c-.91 1.473 2.149 8.206 4.062 8.94 2.149.825 2.993-.734 1.133-2.095-.915-.668-2.291-2.753-3.057-4.632-.9-2.205-1.658-2.99-2.138-2.213m-273.887 27.481c-.594 1.617.162 3.744 1.331 3.744 1.181 0 1.199-3.708.022-4.435-.493-.305-1.101.006-1.353.691m25.677 9.315c.864.865 1.571 2.065 1.571 2.667 0 .602.266.829.591.504 1.054-1.053-.681-4.742-2.23-4.742-1.31 0-1.301.203.068 1.571m-23.884 1.179c.417.963.839 2.801.937 4.086.098 1.285.762 2.697 1.476 3.138.714.441 1 1.284.636 1.874-.694 1.123 1.356 5.152 2.622 5.152.404 0 .296-1.154-.241-2.565-1.313-3.454-1.241-5.717.155-4.855.688.426.941.156.646-.691-.266-.764-1.257-1.249-2.203-1.078-1.165.21-1.646-.273-1.492-1.5.29-2.321-1.002-5.311-2.295-5.311-.575 0-.677.744-.241 1.75m295.316 9.283c1.298 1.082 2.058 1.967 1.688 1.967-1.137 0 5.136 8.185 10.921 14.25 3.017 3.162 5.736 5.75 6.043 5.75.943 0-1.225-3.302-4.925-7.5a914.308 914.308 0 0 1-4.656-5.315c-.622-.723-.913-2.151-.645-3.175.331-1.264.057-1.696-.853-1.346-.736.282-2.757-1.101-4.49-3.075-1.733-1.974-3.667-3.574-4.298-3.556-.63.019-.084.919 1.215 2m-288.861.793c0 2.123 2.773 7.35 3.379 6.37.36-.582.196-1.34-.363-1.686-.559-.345-1.016-1.475-1.016-2.51 0-1.035-.45-2.16-1-2.5-.55-.34-1-.193-1 .326m4.015 12.53c-.008 1.605 1.08 4.156 2.485 5.826 1.375 1.634 2.5 2.542 2.5 2.017 0-.525-.675-1.514-1.5-2.199-.825-.685-1.507-2.202-1.515-3.372-.009-1.171-.452-2.803-.985-3.628-.751-1.162-.973-.856-.985 1.356m684.235 2.052c-1.237 1.306-2.257 2.985-2.265 3.733-.012 1.051-.235 1.019-.985-.141-.533-.825-.976-.997-.985-.383-.008.615-2.94 4.145-6.515 7.845-3.575 3.701-6.5 7.291-6.5 7.978 0 .688-.9 2.065-2 3.06-1.1.995-2 2.64-2 3.655 0 1.015-.627 1.845-1.393 1.845s-1.676.739-2.023 1.641c-.53 1.383-.386 1.439.917.358 2.148-1.783 2.908-.632 1.419 2.15-.788 1.473.336.773 3.078-1.915 2.376-2.328 4.811-4.241 5.411-4.249.6-.009.455-.418-.323-.911-1.156-.732-.928-1.473 1.25-4.061 1.465-1.742 2.664-3.785 2.664-4.542 0-.756 1.575-2.904 3.5-4.774 1.925-1.869 3.5-3.916 3.5-4.548 0-.632.638-1.149 1.418-1.149 1.254 0 5.582-5.714 5.582-7.368 0-1.275-1.557-.538-3.75 1.776m-31 9.938c-2.371 2.344-2.967 4.654-1.202 4.654 1.125 0 5.868-5.007 5.92-6.25.062-1.464-2.5-.597-4.718 1.596m-645.861 9.224c.336.877.611 1.808.611 2.071 0 .262.45.199 1-.141 1.484-.917 1.213-2.204-.611-2.904-1.18-.453-1.448-.192-1 .974m636.525 26.239c-3.114 3.32-3.166 4.637-.069 1.754 1.735-1.615 3.155-3.078 3.155-3.25 0-.826-1.664-.019-3.086 1.496m-593.237 9.381c1.824 5.293 5.761 13.721 9.711 20.79 1.684 3.013 3.145 6.042 3.246 6.73.231 1.576 3.366 4.782 3.366 3.442 0-.999-3.064-7.224-4.012-8.151-.709-.693-9.485-18.661-11.357-23.251-2.07-5.077-2.747-4.765-.954.44m349.54 36.36c.954.955 10.783 5.448 10.783 4.93 0-.528-5.031-3.161-8.722-4.564-1.505-.573-2.432-.737-2.061-.366m-316.567 18.135c.602 2.396 4.35 6.295 4.35 4.526 0-.605-1.102-2.362-2.45-3.905-2.186-2.504-2.39-2.571-1.9-.621m30.923 88.409c1.61 1.977 3.129 3.425 3.376 3.218.247-.207-1.071-1.824-2.928-3.594l-3.376-3.218 2.928 3.594m-3.445 11.656c1.687 2.151 3.09 3.215 4.268 3.235.493.008-.318-1.11-1.801-2.485-3.119-2.89-4.467-3.3-2.467-.75M260 1584.708c0 1.087 9.462 10.292 10.58 10.292.75 0-1.055-2.35-4.173-5.432-4.299-4.249-6.407-5.848-6.407-4.86m82.55 49.132c.522.462 2.75 1.905 4.95 3.206 3.058 1.81 3.664 1.949 2.573.594-.785-.974-2.675-2.417-4.201-3.206-3.069-1.587-4.794-1.896-3.322-.594m26.45 20.562c0 .221 1.462.89 3.25 1.486 2.973.992 3.085.958 1.309-.402-1.789-1.37-4.559-2.028-4.559-1.084m-22 8.529c0 .512 3.21 2.537 7.134 4.5 3.924 1.963 6.737 3.583 6.25 3.599-.486.017-.063.508.941 1.092 1.004.584 2.129.733 2.5.333.371-.401.113-.93-.575-1.175-.687-.246-1.25-1.054-1.25-1.796 0-1.101-2.696-2.687-5-2.941-.275-.03-2.128-1.065-4.118-2.299-3.842-2.383-5.882-2.838-5.882-1.313m180.1 60.819c-.063 1.412-.733 2.25-1.8 2.25-1.24 0-1.401.299-.596 1.104 1.862 1.862 4.045-.242 3.218-3.104-.688-2.38-.727-2.392-.822-.25m3.563-.956c-1.061 1.644 1.185 4.478 2.997 3.783.737-.283 1.34-.078 1.34.454 0 .533.788.962 1.75.954 1.066-.01 1.326-.303.665-.75-.597-.404-1.596-1.635-2.22-2.735-.989-1.745-1.138-1.777-1.165-.25-.044 2.549-1.835 2.145-2.212-.5-.23-1.619-.555-1.887-1.155-.956M539 1730c0 1.1-.337 1.888-.75 1.75-.413-.138-.886.2-1.053.75-.166.55.299 1.127 1.035 1.282.849.179 1.422-.826 1.569-2.75.127-1.668-.001-3.032-.285-3.032s-.516.9-.516 2" fill-rule="evenodd"/></svg>