<svg xmlns="http://www.w3.org/2000/svg" width="1240" height="1753"><path d="M663.67 51.663c-.123.124-6.062.488-13.197.81-11.721.529-24.84 2.018-26.427 2.999-.337.208-4.198.659-8.58 1.002-4.381.343-9.316.842-10.966 1.109-7.816 1.264-17.557 1.704-34.381 1.554-5.71-.051-10.707.108-11.105.354-.399.247-7.202 1.603-15.119 3.014-7.917 1.411-14.845 2.684-15.395 2.828-.55.144-4.6 1.074-9 2.065-4.4.992-11.6 2.834-16 4.093-4.4 1.26-10.25 2.86-13 3.557-2.75.697-6.8 2.27-9 3.497-2.2 1.226-6.475 3.015-9.5 3.975-3.025.959-5.95 2.062-6.5 2.449-.55.387-3.7 1.759-7 3.049s-8.531 3.613-11.624 5.163C443.783 94.732 440.694 96 440.01 96c-1.938 0-27.263 12.902-29.574 15.067-1.136 1.063-2.356 1.933-2.712 1.933-.356 0-4.213 2.429-8.572 5.397-4.359 2.968-8.883 5.7-10.054 6.072-1.17.371-1.932.99-1.695 1.375.238.385-1.582 1.533-4.045 2.551-2.867 1.187-4.294 2.329-3.968 3.178.341.889-.022 1.122-1.105.706-1.074-.412-1.372-.228-.89.551.465.753-.033 1.17-1.395 1.17-1.165 0-1.882.382-1.593.849.573.927-10.947 12.151-12.471 12.151-.515 0-.936.59-.936 1.311 0 1.459-2.602 4.41-5.883 6.672-1.184.816-1.933 2.054-1.666 2.75.283.737-.276 1.267-1.336 1.267-2.067 0-7.667 4.781-6.716 5.732.342.342 1.18-.087 1.861-.954.682-.867 2.362-1.911 3.732-2.321 1.766-.528-.276 2.066-7 8.896-5.22 5.303-9.815 9.643-10.211 9.645-1.607.005.81-3.737 4.842-7.498 2.359-2.2 4.421-4.45 4.583-5 .162-.55.615-.893 1.008-.762s.471-.395.174-1.169c-.381-.994-1.618-.183-4.214 2.762-2.021 2.293-4.015 4.32-4.432 4.505-.417.185-2.591 2.097-4.831 4.25-2.82 2.709-4.964 3.914-6.964 3.914-4.391 0-17.779 5.277-23.851 9.401-9.648 6.553-20.748 16.112-30.885 26.595-7.854 8.121-7.224 7.487-13.652 13.754-2.962 2.887-5.244 5.25-5.072 5.25.172 0-1.104 1.482-2.837 3.294-3.901 4.078-15.97 17.649-16.65 18.722-.526.828-8.225 9.678-16.25 18.678-2.612 2.93-4.751 5.66-4.751 6.067-.001.406-1.819 2.764-4.04 5.239-4.644 5.175-14.959 20.129-14.959 21.687 0 .576-1.921 3.92-4.269 7.431C178.775 329.014 161 359.191 161 360.802c0 .404-1.125 2.389-2.5 4.413-1.375 2.023-2.5 4.603-2.5 5.732 0 1.129-.42 2.053-.933 2.053-.836 0-2.391 3.264-2.518 5.286-.027.433-.724 1.214-1.549 1.735-.825.522-1.138.955-.695.964.443.008-2.42 6.202-6.362 13.765-9.97 19.126-14.209 27.551-18.238 36.25a8336.296 8336.296 0 0 1-6.633 14.276c-1.737 3.727-2.911 7.176-2.609 7.665.302.488.183 1.039-.266 1.224-.93.382-6.05 13.205-11.114 27.835a421.086 421.086 0 0 1-4.795 13c-4.236 10.819-15.855 46.798-17.902 55.433-.382 1.614-1.298 4.089-2.034 5.5-.737 1.412-1.349 3.242-1.36 4.067-.028 1.992-2.633 9.507-5.05 14.566-1.068 2.236-1.942 5.633-1.942 7.55 0 1.916-.471 3.955-1.047 4.531-3.513 3.513-14.707 66.136-16.419 91.853-1.351 20.296-1.753 57.425-.688 63.569.613 3.537 1.103 11.381 1.089 17.431-.014 6.05.023 11.9.082 13 .128 2.399.11 2.754-.447 8.5-.24 2.475-.755 10.688-1.145 18.25-.637 12.37-.543 13.75.933 13.75 1.14 0 1.642-.875 1.642-2.86 0-1.574.286-4.949.636-7.5.489-3.57 1.052-4.64 2.439-4.64 1.501 0 1.92 1.176 2.494 7 .379 3.85 1.039 7 1.467 7 .427 0 1.049-4.162 1.381-9.25 2.094-32.113 2.363-34.031 1.948-13.877-.219 10.654-.64 19.763-.935 20.24-.934 1.512.775 17.878 1.802 17.244.528-.327.77-1.891.537-3.475-.232-1.585-.163-2.882.154-2.881.317 0 .511-2.363.431-5.25-.081-2.888.06-3.789.313-2.001.253 1.787.791 3.25 1.195 3.25.779 0 .549 16.305-.445 31.685-.517 8.002-.808 9.106-2.255 8.573-2.616-.963-3.13-2.355-3.147-8.508-.008-3.163-.465-5.75-1.015-5.75-.596 0-1.014 3.94-1.035 9.75-.024 6.561-.503 10.568-1.465 12.25-1.724 3.017-1.925 6.094-.375 5.75.619-.137 1.331.313 1.584 1.001.293.801-.111 1.032-1.125.643-1.323-.508-1.587.276-1.599 4.749-.009 2.946-.452 6.032-.985 6.857-.679 1.05-.974-.523-.985-5.25-.011-5.037-.362-6.75-1.383-6.75-1.124 0-1.403 5.452-1.559 30.5l-.191 30.5h2.726c1.499 0 2.394.332 1.988.737-.405.406-1.493.743-2.417.75-1.237.01-1.631.802-1.496 3.013.54 8.824.477 16.673-.137 17.287-.383.383-1.14-.097-1.682-1.066-2.551-4.559-3.855 4.032-1.939 12.779.482 2.2 1.178 6.587 1.547 9.75.733 6.276 2.528 7.874 2.528 2.25 0-1.925.422-3.5.939-3.5.988 0 2.064 6.42 1.926 11.5-.197 7.284.159 9.659 1.385 9.249.901-.302 1.181-2.909 1.004-9.334-.153-5.532.073-8.156.597-6.915 1.065 2.528 1.396 29.23.369 29.864-.878.543.676 23.882 1.64 24.636.352.275.648 5.675.658 12 .011 6.325.55 13.975 1.199 17 2.03 9.46 2.993 26.174 1.539 26.732-1.555.597-1.617 6.437-.125 11.768 1.023 3.652 1.193 3.804 1.962 1.75 1.074-2.869 1.712-2.869 1.635 0-.033 1.237.307 3.561.755 5.164.71 2.536.587 2.827-.945 2.239-1.644-.631-1.715.135-1.07 11.586.734 13.057 1.891 19.381 3.651 19.967.597.199 1.746 5.522 2.555 11.828 2.219 17.303 3.567 24.966 4.389 24.966.408 0 .521 2.759.251 6.132-.581 7.254 1.658 23.198 5.86 41.73 1.667 7.349 3.001 15.786 2.966 18.75-.036 2.963.272 5.388.683 5.388.412 0 .809.787.883 1.75.075.963 1.039 5.8 2.143 10.75 1.104 4.95 2.974 14.175 4.155 20.5 3.694 19.782 8.309 41.478 8.933 42 .33.275 2.102 5.9 3.939 12.5l4.174 15c5.788 20.815 10.945 34.14 20.598 53.221 10.393 20.545 23.769 43.279 25.463 43.279.489 0 .786.338.66.75-.32 1.044 3.485 7.25 4.445 7.25.431 0 .784.627.784 1.393s.704 1.663 1.563 1.993c.86.33 1.313 1.006 1.006 1.502-.307.496.179 1.185 1.08 1.531.9.345 1.351.915 1 1.265-.35.35.268 1.27 1.374 2.045 1.106.774 1.751 1.827 1.435 2.339-.317.513-.144.932.384.932s1.95 1.677 3.159 3.726c1.967 3.334 15.595 22.027 16.967 23.274.303.275 1.744 2.3 3.202 4.5s3.72 5.125 5.027 6.5 6.173 7.45 10.813 13.5c4.641 6.05 9.787 12.237 11.437 13.75 1.649 1.512 2.561 2.757 2.026 2.765-.535.009-.475.346.134.75 1.022.678 23.246 26.04 34.893 39.82 5.533 6.545 12.686 13.817 19.591 19.915 4.275 3.775 6.824 5.853 15.952 13a817.04 817.04 0 0 1 7.551 6c6.49 5.234 22.19 16.888 26.944 20 6.879 4.502 17.86 11.142 18.719 11.318 1.977.405 11.286 5.598 15.184 8.469 2.399 1.767 7.376 5.013 11.061 7.213 3.684 2.2 7.237 4.503 7.895 5.118.658.615 2.146 1.42 3.307 1.788 1.161.369 2.364 1.328 2.672 2.132.309.804 1.067 1.462 1.685 1.462.618 0 2.253.888 3.633 1.974 1.38 1.085 4.038 2.26 5.907 2.611 1.87.351 3.399 1.038 3.399 1.526 0 .489.337.836.75.771 2.1-.332 3.25.279 3.25 1.725 0 .954.56 1.392 1.378 1.078.758-.291 1.883-.024 2.5.593s1.122.815 1.122.439c0-.376 1.58.204 3.511 1.289 1.93 1.084 6.737 2.645 10.681 3.467 3.943.822 7.426 1.878 7.739 2.347.889 1.332 7.181 3.229 8.338 2.514.604-.373.74-.158.326.511-.448.726.03 1.155 1.287 1.155 1.1 0 2.259.42 2.576.933.317.513 3.157 1.423 6.309 2.022 3.153.599 7.485 1.567 9.627 2.15 2.142.584 5.883 1.062 8.314 1.062 2.802 0 4.61.497 4.94 1.359.393 1.024 1.153 1.12 3.076.389 1.404-.534 2.791-.733 3.081-.443.291.29.003.528-.638.528-.642 0-1.167.498-1.167 1.107s.675.848 1.5.531c.825-.316 1.507-.027 1.515.643.01.771.372.668.985-.281.533-.825.976-.99.985-.367.026 1.928 3.928 2.338 4.987.524.676-1.158.976-1.248.998-.3.016.748.659 1.115 1.432.819.771-.296 1.709-.232 2.084.143.374.375.981.708 1.347.74.367.033 2.692.455 5.167.938 2.475.483 4.837.794 5.25.691.412-.104.75.292.75.879 0 .597-.845.8-1.916.46-1.054-.335-2.191-.163-2.528.382-.342.554 1.052 1.271 3.166 1.629 2.078.351 6.478 1.248 9.778 1.993 10.83 2.445 12.5 2.661 12.5 1.618 0-.555-1.013-1.221-2.25-1.479-2.453-.512 13.613-.015 24.596.76 3.765.266 7.546 1.066 8.403 1.777.856.711 3.176 1.358 5.154 1.436 1.978.079 10.572.647 19.097 1.261 31.168 2.246 48.655 2.45 62 .723 12.616-1.633 30.204-3.24 44-4.019 8.159-.462 15.633-1.439 18-2.355.825-.319 1.725-.66 2-.757.275-.097 2.882-.534 5.794-.971 5.265-.79 5.283-.805 3.25-2.699-3.092-2.88-2.458-3.268 1.513-.925 3.747 2.211 8.403 3.086 5.443 1.023-1.124-.783-.716-.892 1.623-.433 2.295.45 3.28.204 3.714-.927.327-.853.103-1.434-.502-1.302-.601.131-1.185-.775-1.297-2.012-.119-1.31.353-2.25 1.129-2.25.755 0 1.333-1.084 1.333-2.5 0-1.375.436-2.5.969-2.5.532 0 .709.675.393 1.5-.786 2.046.611 1.893 2.28-.25 1.125-1.444 1.265-1.467.804-.131-.376 1.088.197 1.865 1.747 2.372 2.107.688 2.003.808-1.193 1.381-2.63.472-3.579 1.187-3.82 2.878-.208 1.468.198 2.25 1.169 2.25.818 0 2.144.252 2.946.56.97.372 1.673-.297 2.101-2 .719-2.867 4.517-3.575 6.48-1.209.841 1.013 2.37 1.153 6.12.561 2.749-.435 5.515-1.11 6.147-1.501.632-.39 3.896-1.276 7.253-1.969 9.761-2.014 15.756-3.942 21.1-6.787 2.743-1.46 5.442-2.656 5.996-2.658.554-.001 3.483-1.484 6.508-3.295s7.075-3.925 9-4.698c3.676-1.475 15.516-8.311 22.779-13.152 2.354-1.569 4.941-2.852 5.75-2.852.809 0 1.471-.357 1.471-.793 0-.436 2.025-1.334 4.5-1.996 2.475-.662 4.5-1.682 4.5-2.266 0-.585.433-.795.963-.468.529.327 2.667-.452 4.75-1.732 2.083-1.279 5.7-3.164 8.037-4.187 2.337-1.024 4.25-2.243 4.25-2.71 0-.466.788-.847 1.75-.845.962.001 3.55-.86 5.75-1.915 2.2-1.055 5.125-2.399 6.5-2.988 1.375-.588 3.606-1.864 4.957-2.835 1.352-.971 2.116-1.208 1.698-.526-.522.852-.261 1.047.836.626.877-.337 1.366-.841 1.086-1.121-.592-.593 3.833-4.26 5.081-4.211.463.019-.22.919-1.519 2-2.671 2.226-1.632 2.656 1.211.502 1.018-.771 1.571-1.854 1.229-2.407-.342-.553.172-1.449 1.142-1.992.969-.542 1.468-1.281 1.107-1.641-.36-.36-1.706.013-2.991.829-3.84 2.439-25.936 10.817-27.183 10.306-.635-.259-.422-.508.474-.551.895-.043 2.158-.719 2.807-1.501.649-.782 3.067-1.737 5.373-2.122 2.305-.386 4.417-1.019 4.692-1.407 1.119-1.58 20.503-11.096 23.735-11.652 1.521-.261 3.665-.737 4.765-1.057 2.036-.592 17.22-7.967 23.407-11.368 2.491-1.37 3.902-1.61 5.244-.891 1.44.771 3.128.144 7.82-2.905 3.291-2.139 5.725-4.147 5.409-4.463-.317-.316-1.207-.333-1.978-.037-2.191.841-1.644-.476.725-1.744 1.658-.887 2.329-.84 3.042.215.685 1.014.841.87.623-.578-.192-1.269.816-2.64 2.939-4 15.681-10.041 21.887-14.254 22.569-15.319.44-.688 2.015-1.906 3.5-2.707 1.485-.801 5.152-3.726 8.148-6.5 2.996-2.774 5.809-5.043 6.25-5.043.441 0 .802-.45.802-1.001 0-1.077 6.184-7.34 11.017-11.157 1.63-1.288 2.969-2.832 2.974-3.431.005-.6 1.088-1.581 2.406-2.182s3.681-2.796 5.25-4.878c1.569-2.082 3.528-4.502 4.353-5.378 7.959-8.454 14.403-15.925 19-22.031 3.025-4.018 7.898-10.036 10.83-13.374 14.205-16.174 18.734-21.693 24.879-30.323 2.635-3.7 5.578-7.518 6.541-8.486.963-.967 1.75-2.179 1.75-2.692 0-.513.933-1.228 2.072-1.59 1.246-.395 1.857-1.22 1.532-2.067-.298-.776-.079-1.41.486-1.41.566 0 .804-.363.529-.807-.274-.444.657-2.806 2.069-5.25a875.477 875.477 0 0 0 5.586-9.863c1.659-2.981 4.077-6.982 5.372-8.89 1.295-1.908 2.354-3.85 2.354-4.316 0-.466 1.867-3.964 4.148-7.773 2.837-4.737 4.603-6.75 5.59-6.371 1.042.399 1.375-.111 1.201-1.838-.133-1.316.273-3.649.902-5.186s1.42-3.899 1.759-5.25c.339-1.351.969-2.456 1.4-2.456.43 0 1.488-1.762 2.349-3.915.862-2.153 2.036-4.205 2.609-4.559.573-.354 1.042-1.517 1.042-2.585s.375-1.941.833-1.941c.459 0 .834-.566.834-1.257 0-.692 3.287-8.004 7.304-16.25s8.989-19.043 11.047-23.993a4362.63 4362.63 0 0 1 7.885-18.809c2.278-5.395 3.904-10.194 3.613-10.665-.291-.47-.007-1.029.63-1.241.637-.213 1.226-1.291 1.307-2.397.14-1.899 1.653-6.426 3.639-10.888.49-1.1 2.726-7.625 4.97-14.5 2.243-6.875 4.665-13.41 5.382-14.522.717-1.112 1.64-4.018 2.053-6.458.412-2.439 1.841-7.335 3.175-10.88 1.334-3.544 2.204-7.022 1.933-7.727-.271-.706-.082-1.425.419-1.598.501-.173 1.183-3.454 1.514-7.29.332-3.837 1.386-9.237 2.344-12 .958-2.764 1.849-7.05 1.98-9.525.303-5.72 2.872-17.574 4.673-21.566.761-1.686 1.608-7.761 1.883-13.5.471-9.846 1.164-15.449 2.097-16.959.458-.741 4.071-30.633 5.236-43.322.72-7.842.726-16.526.036-60.153-.264-16.758-.629-20.851-2.249-25.25-1.063-2.888-2.28-5.25-2.704-5.25-.424 0-.512-.675-.196-1.5.317-.825.083-1.5-.519-1.5-.603 0-1.029-.787-.949-1.75.314-3.743-.215-6.34-1.17-5.75-.57.352-1.036-.589-1.083-2.191-.161-5.417-2.727-14.309-4.13-14.309-.398 0-.463-.681-.144-1.513.32-.832.043-2.16-.614-2.952-.657-.791-.902-2.361-.544-3.487.357-1.126.228-2.048-.288-2.048s-1.248-3.14-1.626-6.977c-.378-3.837-1.111-7.239-1.629-7.559-.518-.32-.942-1.334-.942-2.254 0-1.808-2.938-9.718-6.578-17.71-1.252-2.75-2.602-6.781-3-8.957-.397-2.177-1.866-6.452-3.263-9.5-1.398-3.049-2.481-6.355-2.408-7.347.073-.992-.516-2.052-1.309-2.357-.793-.304-1.442-1.367-1.442-2.363 0-.995-.409-1.959-.91-2.143-.5-.183-1.142-1.836-1.427-3.674-.284-1.837-1.225-4.122-2.09-5.078-.865-.956-1.573-2.196-1.573-2.755 0-.559-.9-1.831-2-2.826-1.1-.995-2-2.603-2-3.572 0-.969-.338-1.911-.75-2.095-.412-.183-2.935-4.579-5.605-9.769-2.67-5.189-6.044-11.264-7.498-13.5-1.453-2.235-4.49-7.664-6.749-12.064-12.596-24.541-20.361-38.182-24.478-43-.94-1.1-2.555-3.575-3.589-5.5-3.486-6.49-7.002-11.468-13.771-19.5-1.391-1.65-3.917-4.8-5.614-7s-7.216-8.349-12.266-13.665c-5.049-5.316-14.805-15.736-21.68-23.157-6.875-7.421-12.986-13.534-13.581-13.585-.595-.051-1.683-1.218-2.419-2.593s-1.69-2.5-2.121-2.5c-.43 0-2.267-1.514-4.081-3.364-1.814-1.85-5.548-5.289-8.298-7.642-2.75-2.354-10.129-9.053-16.397-14.887-13.749-12.795-15.029-13.923-22.353-19.69-3.163-2.49-5.75-4.952-5.75-5.472 0-.52-.671-.945-1.492-.945-.82 0-2.053-.9-2.74-2-.687-1.1-1.61-2-2.051-2-.815 0-1.245-.317-5.788-4.266-1.413-1.228-4.061-3.359-5.883-4.734s-4.265-3.353-5.429-4.396c-1.164-1.042-7.079-5.092-13.143-9-28.162-18.146-34.41-21.159-64.546-31.12-11.235-3.714-20.878-7.087-21.428-7.496-1.115-.828-20.648-5.698-36-8.975-5.5-1.174-14.725-3.284-20.5-4.69-5.775-1.405-11.85-2.687-13.5-2.849-1.65-.162-7.725-1.29-13.5-2.507-20.137-4.244-25.554-5.122-33.615-5.45-4.463-.181-10.538-1.014-13.5-1.851-2.962-.836-9.39-2.026-14.285-2.644-4.894-.617-11.518-2.225-14.719-3.572-4.807-2.023-7.486-2.45-15.382-2.45-7.29 0-9.69.334-10.101 1.405-.431 1.122-1.885.796-7.214-1.621-6.533-2.962-6.912-3.013-18.003-2.409-7.604.414-12.02.247-13.43-.508-1.155-.619-7.205-1.27-13.444-1.448-6.238-.177-11.8-.606-12.36-.952-.897-.554-11.643-.686-23.447-.288-9.159.309-20.04-.578-22.435-1.828-1.854-.968-2.08-1.34-.815-1.345 2.674-.009 2.084-1.914-1-3.224l-2.75-1.168 2.75-.373c3.941-.536 3.391-2.048-1-2.748-2.062-.329-5.637-1.025-7.943-1.546-9.337-2.109-14.694-.734-11.107 2.853.933.933.933 1.2 0 1.2-.66 0-1.2.45-1.2 1s.6 1 1.333 1c.734 0 1.334.694 1.334 1.543 0 .92-.572 1.324-1.415 1-.779-.299-5.398-.543-10.266-.543-7.973 0-8.914-.198-9.486-2-.609-1.918-1.513-2-22.047-2-17.764 0-22.14.288-25.683 1.692-2.348.931-4.764 2.349-5.368 3.153-.604.803-1.581 1.163-2.17.799s-1.823.09-2.742 1.009c-1.145 1.144-1.888 1.322-2.357.562-.445-.719-1.204-.782-2.159-.178-.811.513-3.698.939-6.415.948-4.561.014-4.792.128-3 1.483 1.067.808 2.729 1.483 3.691 1.5 2.207.04 2.342 3.591.168 4.425-3.158 1.212-22.224.673-22.759-.643-.39-.963-.702-.975-1.359-.053-.55.772-1.373.876-2.318.292-.806-.498-2.594-.636-3.974-.306l-2.508.599 2.123-2.391c2.961-3.336 2.085-4.589-4.187-5.993-2.99-.669-5.436-1.762-5.436-2.429 0-1.386 7.512-2.862 9.311-1.829.654.375.064-.555-1.311-2.067l-2.5-2.749-11.5.77c-11.141.747-15.094.82-29.135.539L367.23 582l.274-6.213c.151-3.432.771-6.379 1.385-6.583.611-.204 1.111-1.051 1.111-1.883 0-.832.783-2.838 1.741-4.459 1.434-2.429 1.502-3.094.383-3.785-1.107-.684-1.134-1.516-.15-4.499.665-2.013.996-4.214.736-4.891-.259-.676-.052-5.27.462-10.208.513-4.939.984-9.541 1.047-10.229.063-.687.475-1.25.916-1.25.441 0 .596-.562.345-1.25-.252-.687 1.347-3.025 3.551-5.196 3.701-3.642 8.969-12.822 8.969-15.627 0-.659 1.167-2.279 2.592-3.6 1.602-1.484 2.361-3.008 1.986-3.985-.463-1.205-.126-1.457 1.407-1.056 1.483.388 2.015.039 2.015-1.321 0-1.016.451-2.126 1.003-2.467.899-.556 3.399-5.584 5.466-10.998.441-1.155.951-1.501 1.207-.82.622 1.652-4.508 14.186-7.332 17.914-1.289 1.702-2.344 4.238-2.344 5.636 0 2.547-2.887 10.369-2.961 8.02-.021-.687-.406-1.25-.855-1.25-1.182 0-5.267 7.584-4.498 8.352.356.357.096.648-.578.648-.674 0-.948.45-.608 1 .34.55.216 1-.274 1-.491 0-.968.563-1.061 1.25-.092.688-.441 2.938-.776 5-.423 2.611-.238 3.75.609 3.75.688 0 .958-.674.62-1.552-.327-.854-.185-1.298.317-.988 1.131.699 4.06-3.513 6.578-9.46 1.048-2.475 3.038-6.3 4.421-8.5 2.984-4.746 3.403-5.498 9.193-16.5 2.461-4.675 5.728-11.762 7.262-15.75 1.533-3.988 3.225-7.25 3.758-7.25.534 0 .687-.46.339-1.022-.771-1.248 5.291-13.978 6.656-13.978.537 0 .696-.453.354-1.007-.343-.554.078-1.276.935-1.605.857-.329 1.352-.931 1.1-1.338-.567-.917 5.86-8.05 7.254-8.05.558 0-.517 1.532-2.39 3.405-2.269 2.269-3.192 3.96-2.767 5.067.688 1.793 1.762 1.144 3.738-2.256.624-1.073 1.998-3.174 3.055-4.669 1.623-2.297 1.701-2.866.5-3.674-1.127-.759-1.035-.896.446-.665 2.062.322 3.166-1.18 4.197-5.708.383-1.685.901-2.401 1.182-1.632.292.8 1.826-1.067 3.696-4.5 3.239-5.945 8.292-14.397 11.88-19.868 2.174-3.315 9.984-9.5 11.997-9.5.704 0 1.709-.389 2.231-.864.523-.474 2.412-1.351 4.2-1.947 2.648-.884 3.25-.822 3.25.332 0 1.898 2.77.778 3.462-1.401.296-.932 1.407-1.76 2.47-1.84 1.063-.08 3.115-.92 4.56-1.867 2.015-1.32 2.322-1.934 1.318-2.633-.876-.609-.564-.701.94-.278 1.238.348 2.25.202 2.25-.324s1.739-1.793 3.865-2.817c2.125-1.024 5.388-3.105 7.25-4.625 12.804-10.456 29.416-22.503 47.47-34.426 22.401-14.794 30.736-20.092 33.665-21.402 1.513-.676 2.75-1.543 2.75-1.926s3.487-2.73 7.75-5.216c7.68-4.478 22.043-9.951 29.75-11.336 2.2-.395 4.273-1.138 4.606-1.651.913-1.404 27.77-2.967 31.378-1.826 1.659.524 6.841 1.658 11.516 2.519 4.675.862 13 2.874 18.5 4.471 17.175 4.989 18.97 5.483 20.107 5.536 1.063.05 4.937 1.775 12.393 5.52 1.925.967 6.763 2.549 10.75 3.515 3.987.966 7.25 2.036 7.25 2.377 0 .341 1.462 1.251 3.25 2.022 9.446 4.072 16.019 7.599 18.967 10.178 1 .875 4.817 3.344 8.481 5.487 7.01 4.1 27.746 23.894 26.739 25.525-.305.493-.127.897.395.897 1.702 0 14.417 13.351 17.898 18.792 3.134 4.9 11.696 21.061 11.764 22.208.017.275 1.487 2.606 3.268 5.18 1.781 2.574 3.238 5.162 3.238 5.75 0 .589.354 1.07.786 1.07.432 0 3.209 4.058 6.17 9.019 2.961 4.96 6.029 9.554 6.818 10.209.789.654 1.844 2.108 2.345 3.231.501 1.123 1.797 3.391 2.881 5.041 1.084 1.65 2.381 3.921 2.883 5.047.502 1.126 2.076 3.151 3.498 4.5 1.421 1.349 2.599 2.903 2.618 3.453.018.55 1.263 2.462 2.767 4.249 1.504 1.788 4.084 5.069 5.734 7.292 1.65 2.223 3.717 4.811 4.594 5.751.876.939 2.436 3.17 3.465 4.958 1.03 1.788 2.252 3.25 2.716 3.25.463 0 .602.39.308.866-.295.477.405 1.714 1.555 2.75s2.489 2.784 2.974 3.884c1.218 2.758 2.866 5.317 6.443 10 1.68 2.2 4.35 6.25 5.934 9 1.584 2.75 3.479 5.601 4.211 6.337.732.735 2.527 2.985 3.991 5 2.622 3.611 6.169 7.648 11.559 13.155 1.513 1.546 2.75 3.53 2.75 4.409 0 .88.413 1.599.918 1.599.506 0 1.949 1.688 3.209 3.75 1.259 2.063 2.983 4.298 3.831 4.968.848.67 1.239 1.233.869 1.25-.818.039 4.45 5.401 5.75 5.853.508.177 1.694 1.019 2.636 1.872.942.852 2.367 1.298 3.167.991.8-.307 1.703.089 2.006.879.303.79 1.295 1.437 2.205 1.437 1.357 0 1.43.27.409 1.5-1.02 1.229-.951 1.5.378 1.5.892 0 1.622-.436 1.622-.969 0-.532.647-.72 1.437-.417.856.329 1.184 1.226.813 2.219-.529 1.411-.382 1.47.957.382 1.289-1.047 1.832-1.042 2.937.024.746.72 1.935 1.298 2.642 1.285 1.564-.029 3.287-2.596 2.547-3.794-.294-.475.397-1.108 1.536-1.406 1.956-.511 1.988-.715.578-3.683-1.407-2.962-1.399-3.014.138-.913 1.295 1.771 2.017 2.02 3.522 1.215 1.295-.693 1.893-.684 1.893.03 0 .657.742.581 2-.205 1.1-.687 2-2.014 2-2.95 0-1.895 1.024-2.745 3.996-3.317 1.102-.213 2.004.093 2.004.679 0 .673.552.607 1.5-.18 1.225-1.016 1.5-.958 1.5.319 0 .859.423 1.824.939 2.144.517.319.871-.329.788-1.441-.084-1.112-.454-2.022-.823-2.022-1.4 0-1.636-3.978-.301-5.086 1.08-.896 1.413-.847 1.467.214.039.754.425.472.859-.628.689-1.748.879-1.59 1.509 1.25.573 2.584 1.222 3.25 3.166 3.25 1.915 0 2.576.648 3.043 2.984.755 3.778 2.691 2.773 2.122-1.102-.481-3.283-.437-3.316 2.202-1.668 1.634 1.02 2.321.86 4.301-1 1.296-1.218 2.89-2.214 3.542-2.214.653 0 1.186-.45 1.186-1s.733-1 1.628-1c1.35 0 1.514-.711.96-4.176l-.668-4.177 2.676 2.677c1.472 1.472 2.984 2.676 3.36 2.676.376 0 1.835-2.234 3.241-4.964 2.507-4.866 2.593-4.925 4.336-3 1.883 2.082 4.467 2.639 4.467.964 0-.55.498-1 1.106-1 .608 0 1.975-1.105 3.037-2.454 1.119-1.423 2.546-2.219 3.394-1.894.958.368 1.468-.079 1.478-1.295.012-1.358.237-1.508.839-.56.926 1.461 2.282.251 3.484-3.11.356-.998 1.05-1.565 1.542-1.261.491.303 1.427-.091 2.08-.878.652-.786 1.737-1.218 2.411-.959 1.556.597 6.049-4.101 5.213-5.452-.38-.616.335-.838 1.829-.567 1.441.261 4.399-.59 7.169-2.063 2.594-1.379 5.129-2.507 5.634-2.507.505 0 2.351-1.487 4.101-3.304 3.796-3.94 9.208-7.837 9.91-7.135.276.276 1.315-.739 2.308-2.254.993-1.516 2.629-3.64 3.635-4.72 1.007-1.08 1.83-2.731 1.83-3.669 0-.937.675-1.963 1.5-2.28.825-.316 1.5-1.234 1.5-2.039 0-.805.858-1.737 1.908-2.07 1.049-.333 2.171-1.292 2.493-2.13.321-.839 1.007-1.265 1.523-.946a1.096 1.096 0 0 0 1.508-.343c.313-.507 1.484-.683 2.602-.391 2.203.576 5.966-2.161 5.966-4.339 0-.72.9-1.791 2-2.38s2-.818 2-.51c0 .309 1.29-.106 2.867-.921 2.697-1.395 2.926-1.352 3.891.724 1.019 2.194 1.031 2.19 2.109-.543.596-1.512 1.545-2.75 2.108-2.75.564 0 1.025-.623 1.025-1.383 0-1.774 4.201-2.91 5.14-1.39.392.634 1.842 1.303 3.223 1.488 5.464.732 9.895-8.767 7.547-16.175-.705-2.222-1.322-4.265-1.372-4.54-.05-.275-1.269-2.525-2.71-5s-2.922-5.513-3.292-6.75c-.369-1.238-1.09-2.25-1.603-2.25-.513 0-.933-.675-.933-1.5s-.466-1.5-1.035-1.5c-.714 0-.714-.601 0-1.934 1.733-3.238 1.2-5.75-2.825-13.313-2.123-3.989-4.876-10.178-6.119-13.753-1.243-3.575-2.881-7.918-3.64-9.651-.76-1.733-1.381-3.557-1.381-4.052 0-.495-2.919-6.727-6.486-13.849-3.567-7.121-6.492-13.554-6.5-14.294-.008-.74-.637-2.54-1.398-4-.761-1.46-2.177-4.454-3.146-6.654-.97-2.2-2.148-4.675-2.619-5.5-.471-.825-1.277-2.469-1.792-3.653-.514-1.184-1.413-2.448-1.997-2.809-.584-.361-1.062-1.425-1.062-2.365 0-.94-1.125-3.364-2.5-5.388-1.375-2.023-2.5-4.108-2.5-4.633 0-.881-20.959-35.919-23.033-38.505-.506-.631-2.283-2.712-3.949-4.625-1.665-1.914-3.281-4.276-3.591-5.25-.309-.975-.958-1.772-1.443-1.772-.485 0-2.264-2.896-3.953-6.435-1.689-3.539-4.562-7.97-6.386-9.848-1.823-1.877-3.611-4.185-3.973-5.128-.362-.944-1.06-1.467-1.551-1.164-.492.304-1.128-.342-1.414-1.436-.286-1.094-.082-1.989.454-1.989 1.253 0 .162-3.589-2.354-7.746l-1.965-3.246-4.566 2.676-4.566 2.676-1.876-2.43c-2.077-2.691-12.697-14.159-26.084-28.168-4.812-5.036-8.75-9.712-8.75-10.392 0-.679-.9-1.521-2-1.87-1.1-.349-2-1.073-2-1.609s-4.335-5.43-9.633-10.876c-5.298-5.446-11.261-12.152-13.25-14.903-1.989-2.751-4.149-5.026-4.8-5.057-.65-.03-1.464-.943-1.809-2.029-.344-1.086-1.95-2.916-3.567-4.068-1.618-1.152-2.941-2.739-2.941-3.526 0-.788-.421-1.432-.935-1.432-.515 0-3.552-2.764-6.75-6.143-8.544-9.025-16.372-16.704-22.791-22.357-3.124-2.75-6.908-6.125-8.411-7.5-1.503-1.375-6.306-5.535-10.673-9.244-4.367-3.709-9.374-8.08-11.126-9.715-1.753-1.634-4.361-3.266-5.797-3.626-1.436-.36-2.372-.893-2.082-1.184.589-.589-3.299-4.231-4.517-4.231-.426 0-1.37-.584-2.097-1.298-2.073-2.036-18.043-11.384-20.821-12.187-1.375-.398-3.625-1.458-5-2.357-4.466-2.919-5.648-3.618-10.828-6.408-2.808-1.513-5.795-2.75-6.639-2.75-.843 0-1.533-.379-1.533-.843 0-.936-7.109-4.637-11-5.727-1.375-.385-2.725-1.007-3-1.382-.275-.376-5.45-2.403-11.5-4.504-11.391-3.957-19.5-5.512-19.5-3.738 0 .554-.788.843-1.75.642-13.82-2.883-36.183-6.551-45.25-7.422-22.836-2.195-22.275-2.184-21.606-.442.333.869.606 1.993.606 2.498 0 .505 1.377.918 3.059.918 1.682 0 2.827.375 2.544.833-.283.459-1.885.632-3.559.387-2.923-.429-3.05-.294-3.204 3.417-.156 3.775-.169 3.788-.568.556-.224-1.819-1.052-3.555-1.84-3.857-1.887-.725-1.84-2.336.068-2.336 2.072 0 1.889-2.613-.25-3.564-1.499-.666-41.952-1.4-42.58-.773M652 55.514c-.825.203-5.55.679-10.5 1.057-9.426.719-9.548 2.222-.191 2.359 3.404.049 4.598.412 4.086 1.24-.507.821-.152.944 1.191.412 1.053-.418 5.878-.948 10.722-1.178 4.845-.231 10.633-.83 12.862-1.331 2.23-.501 5.691-.693 7.692-.427 2.537.338 3.184.197 2.138-.465-1.503-.952-25.18-2.361-28-1.667m66.515 3.51c.332.537 3.126.976 6.211.976 7.02 0 6.564-.613-1.02-1.372-3.658-.366-5.572-.22-5.191.396m25.985 4.499c6.763 1.738 10.287 1.656 4-.093-2.75-.765-5.9-1.347-7-1.292-1.1.055.25.678 3 1.385M523.184 348.145c-2.374 1.681-4.037 3.335-3.696 3.677.342.341.934.159 1.316-.404.383-.563 2.384-2.049 4.446-3.302 2.063-1.254 3.75-2.467 3.75-2.698 0-.97-1.758-.146-5.816 2.727m11.987 6.952c-1.796 2.877-1.116 2.966 1.543.204 1.227-1.275 1.669-2.301.991-2.301-.673 0-1.813.944-2.534 2.097m-27.504 19.57c-1.07 1.069-.767 3.513.349 2.823.559-.346.71-1.124.336-1.729-.435-.704-.092-.875.952-.475.898.345 1.898.196 2.223-.33.662-1.071-2.818-1.332-3.86-.289M119.644 513.261c-1.912 5.008-2.106 7.115-.39 4.239.657-1.1 1.228-2.225 1.269-2.5.041-.275.432-1.546.867-2.825 1.445-4.241-.071-3.298-1.746 1.086m-6.43 20.393c-.616 2.009-.724 3.246-.238 2.75.978-1.002 2.497-6.404 1.8-6.404-.242 0-.945 1.644-1.562 3.654M369 547.257c0 .141-.435 1.828-.968 3.75-.883 3.186-.839 3.323.5 1.552 1.392-1.841 2.04-5.559.968-5.559-.275 0-.5.115-.5.257m172.5 39.829c-1.655.782-1.526.853.75.41 1.551-.301 2.75-.09 2.75.485 0 .56.375 1.019.833 1.019.459 0 .834-.675.834-1.5 0-1.673-2.14-1.845-5.167-.414m-72.857.682c-.261.423 1.4.624 3.691.448 6.729-.52 7.548-.975 1.975-1.1-2.855-.064-5.405.23-5.666.652m-15.214 8.346c0 1.037.578 1.886 1.285 1.886s1.286-.627 1.286-1.393-.579-1.615-1.286-1.886c-.767-.295-1.285.266-1.285 1.393M612 598.38c0 1.255.655 1.54 2.687 1.172 1.477-.268 3.204-.057 3.838.469.633.525 4.599 1.491 8.813 2.146 5.08.79 7.662 1.637 7.662 2.512 0 .956-1.867 1.345-6.75 1.407-5.689.072-6.279.23-3.75 1.005 1.65.506 7.05 1.204 12 1.551s9.45.963 10 1.369c.55.405 3.25 1.036 6 1.401s6.237.907 7.75 1.205c1.513.298 2.75.101 2.75-.437s-1.913-1.2-4.25-1.47c-3.663-.423-12.889-1.922-20.5-3.332-1.237-.229-2.25-1.116-2.25-1.972 0-1.151.83-1.472 3.184-1.231 2.93.299 3.213.067 3.555-2.925l.372-3.25-10.305-.009c-5.669-.004-12.668-.292-15.556-.639-4.477-.538-5.25-.386-5.25 1.028M76.252 711.5c.011 2.2.216 2.982.455 1.738.239-1.244.23-3.044-.02-4s-.446.062-.435 2.262M68.3 733c0 3.025.187 4.263.416 2.75.229-1.513.229-3.987 0-5.5s-.416-.275-.416 2.75m-.957 28.5c.003 4.4.179 6.076.39 3.724.212-2.352.209-5.952-.006-8s-.388-.124-.384 4.276m6.098-2.15c-.557 1.778-.742 4.339-.413 5.691.452 1.855.761 1.123 1.261-2.982.779-6.401.543-7.154-.848-2.709m-1.273 22.599c-.585 1.678-.686 3.051-.224 3.051.916 0 2.423-4.966 1.72-5.669-.238-.238-.911.94-1.496 2.618M69.252 804.5c.011 2.2.216 2.982.455 1.738.239-1.244.23-3.044-.02-4s-.446.062-.435 2.262m-7.152 9.75c.055.688.46 2.375.9 3.75.715 2.231.811 2.097.9-1.25.055-2.062-.35-3.75-.9-3.75s-.955.563-.9 1.25m3.9 48.632c0 1.65.45 3.278 1 3.618.582.36 1-.637 1-2.382 0-1.65-.45-3.278-1-3.618-.582-.36-1 .637-1 2.382m454.71 3.741c-.166.166-15.356.552-33.756.858-18.4.305-37.279.999-41.954 1.541-8.131.943-18.748 1.34-29.5 1.105-2.75-.06-10.131.596-16.402 1.459-6.272.862-12.13 1.377-13.018 1.145-.888-.232-5.882.217-11.098.998-5.215.781-12.632 1.574-16.482 1.762-8.237.403-19.656 2.284-20.812 3.429-1.12 1.109-1.672 24.152-2.123 88.58-.303 43.335-.081 57.545 1.044 67 .786 6.6 1.671 25.05 1.966 41 .395 21.302.898 29.796 1.895 32 .746 1.65 1.677 5.25 2.068 8 .682 4.798 2.365 9.471 2.432 6.75.043-1.794 2.03-1.55 2.03.25 0 .825-.45 1.5-1 1.5-2.32 0 .115 16.273 5.154 34.442 1.077 3.882 2.624 9.533 3.439 12.558.814 3.025 1.889 6.4 2.389 7.5.5 1.1 1.843 5.6 2.983 10 1.141 4.4 2.485 8.9 2.987 10 .802 1.758 1.631 4.769 4.996 18.132.433 1.723 1.139 3.7 1.568 4.394.429.694.928 2.538 1.11 4.097.182 1.56 2.365 7.133 4.852 12.384 2.487 5.252 4.522 10.179 4.522 10.95 0 .77.707 2.107 1.571 2.972.865.864 1.283 1.571.929 1.571-.354 0 .064.707.929 1.571.864.865 1.571 2.215 1.571 3 0 .786.401 1.429.892 1.429.49 0 1.201 1.233 1.579 2.74.378 1.507 1.043 2.969 1.477 3.25.434.28 1.959 2.829 3.388 5.663 1.43 2.834 3.964 6.647 5.632 8.473 1.667 1.826 3.032 3.878 3.032 4.561 0 3.662 10.572 19.07 17.961 26.179 2.497 2.401 3.977 4.062 3.289 3.691-1.664-.898-1.606.903.074 2.297.837.695 1.673.749 2.275.147.601-.601 1.444-.133 2.294 1.274 1.076 1.783 1.081 1.977.025.975-1.545-1.465-2.918-1.628-2.918-.346 0 1.125 6.105 8.096 7.09 8.096.398 0 .487-.9.2-2-.288-1.1-1.146-2-1.907-2-1.564 0-1.861-1.587-.458-2.454.508-.314 2.196.819 3.75 2.518a254.054 254.054 0 0 0 5.075 5.377c1.238 1.258 2.253 2.687 2.258 3.174.004.487 1.817 1.919 4.03 3.182 2.212 1.263 3.76 2.721 3.44 3.239-.32.517.004.721.72.452.72-.27 2.361 1.069 3.671 2.997 1.303 1.917 2.835 3.198 3.404 2.846.594-.367.736-.154.332.499-.395.639.743 2.59 2.596 4.45 1.814 1.821 4.874 5.243 6.799 7.605 4.294 5.269 16.955 17.731 20.154 19.837 1.29.85-.129-.927-3.154-3.949s-6.85-7.138-8.5-9.148c-1.65-2.01-4.8-5.602-7-7.982s-5.575-6.26-7.5-8.622c-1.925-2.362-4.062-4.876-4.75-5.586-1.54-1.592-1.626-3.435-.161-3.435 1.294 0 9.911 8.677 9.911 9.979 0 .497.445 1.178.989 1.514.566.35.734-.051.393-.941-.386-1.006-.03-1.552 1.011-1.552.884 0 1.607.675 1.607 1.5 0 1.823 2.133 1.961 3.867.25 1.017-1.003 2.059-.362 5.282 3.25 2.209 2.475 3.727 3.938 3.374 3.25-1.24-2.417.614-3.398 2.441-1.291.982 1.131 4.879 4.337 8.66 7.124 3.782 2.786 9.801 7.867 13.376 11.29 5.522 5.288 15.417 13.89 22.601 19.649 1.044.837 6.174 4.331 11.399 7.764 5.225 3.433 9.992 6.637 10.594 7.121.602.484 2.605 1.661 4.451 2.616 1.846.955 3.887 2.24 4.534 2.857.647.616 2.181 1.795 3.409 2.62 4.324 2.904 8.012 6.821 8.012 8.508 0 1.106.528 1.503 1.5 1.13.825-.316 1.518-.027 1.541.643.049 1.458 7.865 5.246 13.459 6.523 2.2.502 6.71 2.064 10.023 3.472 6.721 2.855 15.323 3.63 19.927 1.797 3.515-1.4 16.047-2.877 34.55-4.07 15.131-.976 37.033-4.439 38.003-6.008.35-.565 2.404-1.224 4.566-1.463 2.162-.239 5.503-.906 7.424-1.483 4.274-1.283 4.27-1.283 3.507-.049-.886 1.434 1.253 1.233 4.346-.409 1.46-.774 6.244-2.657 10.631-4.184 4.388-1.527 9.349-3.705 11.025-4.841 1.677-1.136 5.062-2.9 7.523-3.919 2.461-1.019 5.375-2.336 6.475-2.927 1.1-.591 2.906-1.557 4.014-2.147 1.108-.59 3.427-2.086 5.154-3.323 3.966-2.842 5.209-2.889 2.737-.104-1.904 2.144-1.904 2.144.467.75 4.739-2.789 5.723-3.445 9.384-6.257 2.048-1.574 3.434-3.331 3.08-3.905-.355-.574-.211-.775.32-.446.531.328 2.963-1.177 5.405-3.344 2.441-2.168 4.776-3.942 5.189-3.943.413 0 2.527-1.778 4.699-3.95 2.172-2.172 3.223-3.671 2.336-3.33-1.074.412-1.372.228-.89-.551.398-.644 1.713-1.17 2.923-1.17 1.211 0 2.769-.91 3.464-2.023 1.166-1.866 1.111-1.927-.714-.787-4.058 2.534-2.974-.104 2.075-5.047 5.07-4.965 6.517-8.184 1.864-4.149-4.347 3.77-5.494 2.089-1.507-2.211 1.375-1.482 2.5-3.165 2.5-3.739 0-.574.45-1.044 1-1.044s1-.9 1-2c0-1.111.667-2 1.5-2 .825 0 1.5-.723 1.5-1.607 0-.992.554-1.394 1.449-1.051 1.02.392 1.265.076.826-1.067-.46-1.2-.2-1.46 1-1 1.133.435 1.458.193 1.077-.8-.513-1.338 3.359-7.299 4.819-7.42.973-.08 8.829-7.992 8.829-8.892 0-.418 1.772-2.604 3.937-4.858 2.166-2.253 3.666-4.369 3.334-4.701-.595-.595 1.354-1.007 3.148-.666.506.096.284-.59-.492-1.526-1.268-1.528-1.193-1.631.747-1.016 1.288.409 2.455.204 2.896-.51.467-.755.314-.932-.415-.481-1.453.897-1.452.34.006-2.858 1.155-2.535 2.839-3.453 2.839-1.547 0 .55.675 1 1.5 1s1.5-.702 1.5-1.559-.419-1.3-.931-.984c-3.278 2.026-.21-6.023 3.266-8.569.46-.336.794-1.011.742-1.5-.051-.488.473-1.572 1.165-2.408.692-.836 2.557-3.423 4.144-5.75 1.587-2.326 3.4-4.23 4.028-4.23 1.269 0 3.533-2.423 6.247-6.684.986-1.549 2.028-3.041 2.316-3.316 1.811-1.731 17.937-33.753 17.312-34.378-.342-.342-.133-.622.465-.622.598 0 1.384-1.35 1.746-3 .362-1.65 1.02-3 1.461-3 .441 0 1.289-1.912 1.885-4.25.596-2.338 1.951-5.937 3.011-8 2.232-4.342 1.513-4.933-1.37-1.126a277.263 277.263 0 0 1-2.487 3.25c-.275.344-1.937 1.14-3.693 1.767l-3.192 1.142 1.88-4.771c1.035-2.624 1.631-5.725 1.326-6.891-.472-1.806 1.26-7.527 4.732-15.621 2.881-6.718 4.283-10.061 4.405-10.5.076-.275 1.292-2.975 2.702-6 2.594-5.563 3.618-8.343 4.299-11.67.206-1.007 1.987-7.676 3.958-14.82 1.97-7.145 3.583-14.411 3.583-16.148 0-1.913 2.499-8.024 6.344-15.51 3.489-6.793 6.933-13.927 7.653-15.852 1.861-4.973 2.396-11.139 1.038-11.978-.624-.386-1.208-1.674-1.298-2.862-.089-1.188-.467-2.16-.839-2.16-.542 0-1.945-4.935-2.32-8.167-.043-.366-.415-1.004-.828-1.416-.413-.413-.75-1.974-.75-3.469 0-1.496-.672-4.008-1.494-5.584-.821-1.575-1.496-3.787-1.5-4.914-.003-1.128-.402-2.478-.885-3-.484-.523-1.446-2.75-2.139-4.95-1.661-5.271-9.49-20.904-13.112-26.18-1.579-2.299-2.87-4.433-2.87-4.742 0-.308-1.575-2.624-3.5-5.146s-3.5-5.171-3.5-5.886c0-.716-.71-1.89-1.578-2.611-2.243-1.861-6.547-10.682-6.207-12.722.19-1.141-.492-1.823-2.041-2.043-1.443-.204-2.134-.832-1.819-1.652.279-.727.233-1.597-.102-1.932-.335-.335-.692-2.62-.793-5.078-.101-2.459-.703-5.096-1.338-5.861-.889-1.071-.645-2.919 1.057-8.018l2.213-6.627-2.007-2.688c-1.104-1.478-2.654-2.89-3.446-3.138-.799-.25-.327.809 1.061 2.382 2.489 2.82 2.483 2.819-1.564-.3-2.235-1.722-5.197-3.648-6.583-4.279-2.561-1.167-8.737-11.979-6.842-11.979.544 0 .989.525.989 1.167 0 .641.296.871.657.51.728-.728-1.957-3.403-8.693-8.663-2.455-1.917-5.093-4.088-5.862-4.826-3.886-3.727-14.967-12.188-15.963-12.188-.626 0-1.139-.45-1.139-1s-.675-1-1.5-1-3.256-1.756-5.401-3.901c-2.146-2.146-4.846-4.201-6-4.568-1.155-.366-2.099-1.085-2.099-1.598 0-.513-.675-.933-1.5-.933s-1.5-.42-1.5-.933c0-.513-.978-1.243-2.173-1.622s-3.108-1.57-4.25-2.646c-1.142-1.077-5.902-3.806-10.577-6.065-4.675-2.26-9.175-4.655-10-5.322-.825-.667-3.075-1.681-5-2.253-4.602-1.366-20.95-7.031-23.5-8.143-1.1-.479-5.15-1.837-9-3.016-3.85-1.179-7.9-2.557-9-3.06-2.924-1.34-16.14-5.805-22.5-7.602-10.242-2.894-12.602-3.262-18.896-2.95-4.301.214-6.431-.076-6.755-.92-.26-.678-2.329-1.529-4.597-1.892-2.269-.363-5.629-1.373-7.466-2.244-2.79-1.324-5.602-1.473-17.063-.9-8.133.406-20.037.206-29.223-.49-13.399-1.016-102.456-2.152-103.29-1.319M66 872c0 1.65.45 3 1 3s1-1.35 1-3-.45-3-1-3-1 1.35-1 3m-8.97 20.083c.023 4.843.281 5.988 1.049 4.669.905-1.554.405-9.596-.664-10.669-.228-.229-.401 2.471-.385 6M57.057 913c-.317 3.984-.056 8.3.54 8.917.819.847.889-.56.321-6.417-.424-4.376-.657-5.053-.861-2.5m.059 27.25c.121 5.455.514 4.931 1.126-1.5.196-2.062-.003-3.75-.443-3.75-.439 0-.747 2.362-.683 5.25m-.101 12c.009 2.549.339 3.74.824 2.977.76-1.199.383-7.227-.452-7.227-.213 0-.38 1.913-.372 4.25m.985 9.809c0 1.682.39 2.818.866 2.524.805-.498.366-5.583-.483-5.583-.21 0-.383 1.377-.383 3.059m801.055.644c.031.438 1.379 1.843 2.997 3.12 1.618 1.278 2.699 1.728 2.402 1-.642-1.577-5.478-5.267-5.399-4.12m13.684 15.71c.537 2.812 7.314 8.616 9.952 8.524 1.456-.051 1.37-.24-.441-.968-1.237-.498-2.25-1.494-2.25-2.214 0-1.532-5.461-7.755-6.805-7.755-.505 0-.71 1.086-.456 2.413M59 1000.941c0 1.132.45 2.059 1 2.059s1-.648 1-1.441-.45-1.719-1-2.059c-.55-.34-1 .309-1 1.441M66.757 1019c.286 4.125.682 7.688.881 7.917.695.8.156-10.438-.619-12.917-.44-1.411-.555.768-.262 5M73 1032.435c0 1.339.401 3.488.89 4.776 1.247 3.28 2.476 31.55 1.317 30.289-.506-.55-1.437-4.805-2.068-9.454-.631-4.65-1.596-8.903-2.143-9.45-1.295-1.295-1.292-2.897.004-2.096.55.34 1-.11 1-1s-.408-1.366-.907-1.058c-.498.309-.671-.34-.383-1.441.364-1.392.031-2.001-1.093-2.001-.89 0-1.617-.723-1.617-1.607 0-1.096.556-1.413 1.75-.998 1.404.489 1.355.303-.25-.943-1.549-1.202-2.055-1.259-2.245-.252-.134.715.091 10.3.5 21.3l.745 20 2.75-.188c2.119-.145 2.75.256 2.75 1.75 0 1.066.436 1.938.969 1.938.532 0 .692-.72.354-1.601-.338-.881.013-1.992.781-2.47 1.07-.666 1.545 0 2.034 2.851.402 2.344.217 3.997-.5 4.47-.812.535-.826.965-.052 1.5 1.638 1.131 3.414 7.061 3.414 11.399 0 2.118.45 3.851 1 3.851s1 1.098 1 2.441c0 1.343.498 2.749 1.107 3.125.754.466.93-.233.553-2.191-.518-2.69-.865-5.453-2.231-17.799-.3-2.708-.908-5.633-1.352-6.5-.444-.867-1.121-6.301-1.505-12.076-.728-10.971-.929-12.591-2.489-20.06-.523-2.508-1.133-6.82-1.354-9.581-.222-2.762-.728-5.548-1.125-6.191-.397-.642-.444-1.618-.104-2.168s.141-1-.441-1-1.059 1.096-1.059 2.435m2 40.006c0 2.322 1.585 4.307 2.615 3.277.761-.761-.733-5.718-1.723-5.718-.491 0-.892 1.098-.892 2.441M64 1083.5c0 1.925.45 3.5 1 3.5s1-1.575 1-3.5-.45-3.5-1-3.5-1 1.575-1 3.5m8.355 5.097c1.099 9.833 3.261 22.353 3.985 23.076.374.375.461-.636.192-2.246-1.575-9.417-2.524-17.769-2.071-18.221.287-.287-.008-1.16-.655-1.94-.916-1.104-.859-1.62.258-2.327 1.084-.686 1.115-.912.127-.924-.72-.008-1.05-.434-.734-.946.317-.512.05-1.256-.593-1.653-.869-.537-1 .795-.509 5.181m835.824 104.51c-2.471 4.629-2.636 5.294-1.077 4.33 1.217-.752 4.239-7.429 3.636-8.033-.209-.209-1.361 1.458-2.559 3.703M351 1211.122c0 1.212 3.256 9.955 3.585 9.626.553-.553-1.651-8.123-2.678-9.198-.499-.523-.907-.715-.907-.428m517.021 43.313c-.623 1.89-1.671 3.628-2.327 3.864-.657.235-.921.724-.587 1.088 1.068 1.162 3.787-.499 3.223-1.97-.299-.779-.019-1.417.622-1.417s.888-.45.548-1c-.34-.55-.141-1 .441-1s1.059-.675 1.059-1.5c0-2.739-1.828-1.551-2.979 1.935m-4.886 9.622c-.744 1.682-1.133 3.278-.863 3.548.797.798 3.798-2.682 3.178-3.686-.312-.505-.091-.919.491-.919s1.059-.45 1.059-1c0-2.197-2.593-.816-3.865 2.057m-4.006 8.004c-.616 1.767-1.909 3.789-2.873 4.494-1.929 1.41-1.159 3.005 1.043 2.16 2.051-.787 5.104-7.712 3.921-8.895-.629-.629-1.366.161-2.091 2.241m299.624-.853c-.273 1.261-.827 3.079-1.231 4.042-.433 1.03-.299 1.75.326 1.75.584 0 1.361-1.596 1.727-3.547.729-3.889-.022-5.942-.822-2.245m-25.071 25.444c-.997.996-.834 4.348.211 4.348.491 0 1.125-.603 1.407-1.341.618-1.61-.653-3.973-1.618-3.007m-26.206 10.423c-.362 1.142-.393 2.342-.067 2.667.325.325.591.098.591-.504s.707-1.802 1.571-2.667c1.369-1.368 1.378-1.571.068-1.571-.827 0-1.801.934-2.163 2.075m23.977.675c-.418.963-.658 2.565-.534 3.561.154 1.227-.327 1.71-1.492 1.5-.946-.171-1.937.314-2.203 1.078-.295.847-.042 1.117.646.691 1.396-.862 1.468 1.401.155 4.855-.537 1.411-.645 2.565-.241 2.565 1.266 0 3.316-4.029 2.622-5.152-.364-.59-.078-1.433.636-1.874.714-.441 1.378-1.853 1.476-3.138.098-1.285.52-3.123.937-4.086.436-1.006.334-1.75-.241-1.75-.55 0-1.342.787-1.761 1.75m-296.397 10.839c-1.733 1.974-3.754 3.357-4.49 3.075-.91-.35-1.184.082-.853 1.346.268 1.024-.023 2.452-.645 3.175-.622.723-2.717 3.115-4.656 5.315-3.7 4.198-5.868 7.5-4.925 7.5.307 0 3.026-2.588 6.043-5.75 5.785-6.065 12.058-14.25 10.921-14.25-.37 0 .39-.885 1.688-1.967 1.299-1.081 1.845-1.981 1.215-2-.631-.018-2.565 1.582-4.298 3.556m290.395.018c-.329 1.041-1.005 2.66-1.504 3.597-.498.937-.547 1.925-.108 2.196.937.58 3.613-6.281 2.776-7.118-.312-.313-.836.284-1.164 1.325m-3.701 10.725c-.412 1.007-.75 2.64-.75 3.627 0 .988-.675 2.356-1.5 3.041s-1.5 1.674-1.5 2.199c0 .525 1.156-.419 2.569-2.098 1.717-2.041 2.463-3.973 2.25-5.827-.265-2.303-.446-2.463-1.069-.942m-686.75 1.3c0 1.654 4.328 7.368 5.582 7.368.78 0 1.418.517 1.418 1.149s1.575 2.679 3.5 4.548c1.925 1.87 3.5 4.018 3.5 4.774 0 .757 1.199 2.8 2.664 4.542 2.178 2.588 2.406 3.329 1.25 4.061-.778.493-.923.902-.323.911.6.008 3.035 1.921 5.411 4.249 2.742 2.688 3.866 3.388 3.078 1.915-1.489-2.782-.729-3.933 1.419-2.15 1.303 1.081 1.447 1.025.917-.358-.347-.902-1.257-1.641-2.023-1.641-.766 0-1.393-.83-1.393-1.845 0-1.015-.9-2.66-2-3.655-1.1-.995-2-2.372-2-3.06 0-.687-2.925-4.277-6.5-7.978-3.575-3.7-6.507-7.23-6.515-7.845-.009-.614-.452-.442-.985.383-.862 1.333-.973 1.333-1.002 0-.049-2.245-5.998-7.57-5.998-5.368m30.032 10.118c.052 1.243 4.795 6.25 5.92 6.25 1.886 0 1.1-2.594-1.46-4.82-2.516-2.188-4.519-2.83-4.46-1.43m649.061 10.193c-.766.473-1.018 1.37-.583 2.074.574.928 1.007.811 1.72-.464 1.157-2.067.684-2.736-1.137-1.61M476 1376.313c0 .172 1.35 1.606 3 3.187 3.557 3.408 4.025 2.709.635-.948-2.075-2.24-3.635-3.201-3.635-2.239m595.369 10.437c-1.872 4.59-10.648 22.558-11.357 23.251-.948.927-4.012 7.152-4.012 8.151 0 1.34 3.135-1.866 3.366-3.442.101-.688 1.562-3.717 3.246-6.73 5.503-9.847 11.997-24.98 10.72-24.98-.239 0-1.122 1.688-1.963 3.75m-354.119 38.714c-2.888 1.344-5.25 2.669-5.25 2.944 0 .547 9.731-3.806 10.721-4.796 1.045-1.044-.037-.678-5.471 1.852m319.823 17.171c-2.597 3.301-2.711 5.252-.173 2.955 1.643-1.486 3.536-5.59 2.579-5.59-.184 0-1.267 1.186-2.406 2.635m-29.563 87.355c-1.575 1.644-2.672 3.149-2.437 3.344.235.195 1.709-1.15 3.275-2.99 3.538-4.153 3.014-4.375-.838-.354m1.582 12.615c-1.325 1.317-2 2.388-1.5 2.38 1.19-.02 2.588-1.077 4.28-3.235 1.999-2.548.035-1.944-2.78.855m-22.638 24.232c-2.174 2.068-4.629 4.6-5.454 5.626-2.741 3.407 2.057.152 6.435-4.365 5.04-5.201 4.241-6.228-.981-1.261m-82.095 47.086c-1.727 1.053-3.495 2.487-3.927 3.187-.719 1.163 5.798-2.307 8.018-4.27 1.785-1.578-.887-.871-4.091 1.083m-26.918 20.563c-1.776 1.36-1.664 1.394 1.309.402 3.393-1.132 4.171-1.888 1.941-1.888-.72 0-2.182.669-3.25 1.486m20.041 9.22c-2.19 1.488-3.982 2.547-3.982 2.353 0-.194-1.013-.031-2.25.362-1.237.392-2.25 1.321-2.25 2.063 0 .742-.562 1.55-1.25 1.796-.687.245-.946.774-.575 1.175.371.4 1.496.251 2.5-.333 1.004-.584 1.427-1.075.941-1.092-.487-.016 2.326-1.636 6.25-3.599 3.924-1.963 7.134-3.988 7.134-4.5 0-1.658-2.446-.992-6.518 1.775M719 1702.8c0 1.21-.45 2.2-1 2.2s-1.014-.787-1.03-1.75c-.027-1.527-.176-1.495-1.165.25-.624 1.1-1.623 2.331-2.22 2.735-.661.447-.401.74.665.75.962.008 1.75-.421 1.75-.954 0-.532.603-.737 1.34-.454 1.997.766 4.292-2.345 2.818-3.819-.877-.877-1.158-.624-1.158 1.042m3.868.4c-.621 2.931 1.602 4.73 3.499 2.833.711-.711.524-1.033-.597-1.033-.921 0-1.783-.98-1.98-2.25-.323-2.078-.394-2.043-.922.45m-11.571 6.582c.088 2.167.588 3.186 1.471 3 1.383-.292 1.813-1.828.482-1.723-.413.032-1.051-.98-1.418-2.25-.534-1.847-.641-1.653-.535.973" fill-rule="evenodd"/></svg>