<svg xmlns="http://www.w3.org/2000/svg" width="1240" height="1753"><path d="M377.5 54.058c-13.367 1.388-23.475 3.174-22.932 4.052.301.486-.604.446-2.011-.088-1.659-.631-2.557-.63-2.557.003 0 .536-2.137 1.042-4.75 1.125-2.934.092-3.699.309-2 .566 1.512.229 2.75.85 2.75 1.379 0 .595-8.353.856-21.906.683-12.048-.153-21.696.059-21.441.472.256.413-4.399.697-10.344.632-6.64-.073-9.652-.392-7.809-.827 3.745-.883-5.126-1.723-27-2.556-8.25-.313-20.625-1.07-27.5-1.681-13.422-1.193-14.252-1.208-47.5-.813-12.1.143-34.375-.052-49.5-.433-17.626-.445-28.398-.336-30 .303-1.748.698-1.974 1.017-.75 1.062 4.943.179-1.653 4.063-6.899 4.063-1.293 0-2.351.47-2.351 1.044 0 .574.563.936 1.25.804 3.061-.588 5.749 1.301 5.65 3.969-.11 2.957-1.641 8.428-1.8 6.433-.055-.687-.775-1.25-1.6-1.25-1.777 0-1.895 1.846-1.556 24.5.131 8.8-.054 15.711-.412 15.357-.894-.883-1.477-5.755-1.945-16.239-.249-5.601-.853-9.164-1.634-9.647-.682-.422-.992-1.713-.69-2.87.336-1.283.155-1.859-.463-1.477-.635.392-.762-.169-.34-1.499.4-1.261.241-2.125-.393-2.125-.587 0-1.081 1.688-1.097 3.75-.025 3.043-.224 3.419-1.055 1.992-.563-.967-.767-2.173-.453-2.681.314-.507.133-1.193-.402-1.524-.535-.331-.742-1.202-.46-1.938.293-.763-.328-1.556-1.448-1.849-1.631-.426-2.038.099-2.417 3.119-.251 1.997-.058 4.141.429 4.763.487.623.867 2.423.845 4-.022 1.578.185 4.668.46 6.868 1.252 10.007 1.099 33.501-.219 33.499-.412 0-.881-3.713-1.041-8.25-.159-4.537-.702-10.724-1.205-13.749-.503-3.025-.559-7.335-.125-9.577.434-2.242.686-4.717.56-5.5-.479-2.979-.972-4.383-1.939-5.529-1.205-1.427-2.813-.71-1.861.83 1.172 1.897 1.433 7.614.377 8.266-.565.349-1.079-.397-1.158-1.681-.078-1.27-.43-.509-.782 1.691-.781 4.877-.384 5.616 1.609 2.998 1.47-1.93 1.497-1.913.796.502-.399 1.375-1.143 3.022-1.652 3.661-.579.725-.533 1.404.122 1.809 1.636 1.011 1.231 2.814-.483 2.156-1.948-.747-4.088 4.154-2.505 5.737.57.57 1.03 1.51 1.022 2.087-.009.578-.401.442-.872-.301-1.472-2.323-2.158 6.443-1.64 20.965.267 7.487.785 14.395 1.152 15.351.366.955.173 2.042-.431 2.415-.787.487-.717 2.504.249 7.149.942 4.527 1.033 6.856.303 7.752-.748.919-.611 1.626.484 2.5 1.639 1.309 1.351 8.719-.339 8.719-1.444 0-1.099 14.75.359 15.338.949.382.956.523.031.583-.67.043-1.022.641-.783 1.329.24.688.653 8.675.918 17.75.494 16.876 2.365 33.662 5.239 47 .888 4.125 1.667 8.588 1.73 9.917.063 1.329.565 2.566 1.115 2.748.572.189.854 2.928.658 6.403-.189 3.34.146 7.278.744 8.752.598 1.474 1.168 6.146 1.267 10.382.098 4.235.446 7.536.773 7.334.327-.202.426 1.405.219 3.572s.363 6.197 1.265 8.957c.903 2.759 1.45 5.336 1.215 5.726-.234.39-.076 2.509.352 4.709.69 3.55.792 3.663.907 1 .147-3.387 1.638-6.296 2.688-5.246.383.383.663 3.295.622 6.471-.04 3.176.458 6.489 1.108 7.362 1.541 2.068 5.569 4.209 8.541 4.538 1.297.144 3.132.962 4.078 1.818.946.857 2.166 1.557 2.712 1.557.545 0 2.503 1.35 4.351 3 3.486 3.112 5.441 3.714 6.5 2 .34-.55 1.716-1 3.059-1 1.412 0 2.441-.583 2.441-1.383 0-.761 1.013-1.655 2.25-1.987 3.201-.857 9.545-.771 10.106.137.261.422 5.8.585 12.309.361 6.509-.224 13.86-.424 16.335-.445 5.725-.049 25.707 2.16 29 3.205 1.375.437 3.85.411 5.5-.057 2.696-.765 28.251.586 29.209 1.545.472.471-12.826 2.074-14.209 1.712-3.705-.969-8.583-.838-8.23.221.217.653 2.158 1.264 4.313 1.358 2.154.093 5.674.502 7.822.907 3.12.59 3.741.471 3.085-.591-.514-.831.073-.702 1.567.344 1.605 1.125 4.408 1.673 8.551 1.673 5.86 0 12.106-1.953 10.71-3.348-.358-.359-.174-.652.408-.652.583 0 1.285.587 1.561 1.305.592 1.542 31.857 2.173 97.463 1.966 40.069-.127 52.67.82 30.25 2.273-6.05.392-11 1.128-11 1.636 0 .957 21.824.401 45.5-1.16 7.15-.471 17.275-1.115 22.5-1.431 5.225-.316 12.2-1.049 15.5-1.628 3.3-.58 7.248-1.238 8.773-1.463 1.526-.225 3.127-.627 3.559-.894.431-.267 12.244-.568 26.249-.669 14.006-.101 27.537-.498 30.069-.882s7.921-.35 11.977.076c11.065 1.162 32.74 1.604 33.658.686.444-.444 2.361-1.005 4.261-1.247 5.549-.708 38.806-.777 39.93-.083.563.348 1.513.331 2.11-.038s7.685-.817 15.75-.994c17.557-.387 29.708-1.179 37.164-2.424 5.942-.991 22.959-2.223 19.25-1.393-2.551.57-3.07 2.364-.684 2.364.861 0 2.548-.534 3.75-1.188 1.297-.705 7.06-1.239 14.184-1.316 6.6-.07 13.8-.256 16-.412 3.66-.259 3.788-.359 1.5-1.17-1.831-.65-1.563-.692 1-.16 6.14 1.275 70.51.899 72.1-.421 1.078-.896 1.823-.862 3.199.144 2.039 1.49 5.374.956 7.951-1.273 1.572-1.36 1.75-1.345 1.75.141 0 2.231 3.724 2.149 4.311-.095.419-1.605.467-1.599.573.074.097 1.518.913 1.797 4.866 1.661 2.612-.089 5.287-.123 5.944-.074 1.993.148-2.181 8.239-11.279 21.861-4.628 6.93-8.415 13.159-8.415 13.842 0 .682-1.072 2.084-2.383 3.115-1.31 1.031-3.545 4.168-4.965 6.972-5.538 10.927-12.558 19.609-15.124 18.703-1.422-.502-6.154 6.917-13.456 21.096-6.285 12.203-11.24 19.422-6.864 10 1.278-2.75 2.759-5.675 3.292-6.5.533-.825 2.001-3.525 3.261-6 1.261-2.475 2.949-5.625 3.751-7s1.465-3.25 1.473-4.167c.008-.917.985-3.842 2.171-6.5 2.878-6.454 2.921-6.904.66-6.904-1.433 0-3.135 2.308-6.481 8.785-3.99 7.726-5.149 9.145-7.339 8.986-.757-.054-13.148 16.499-15.869 21.2-2.637 4.556-5.993 10.674-11.498 20.965-2.021 3.776-5.013 8.491-6.651 10.478S717 478.779 717 479.175c0 1.77-14.252 29.978-18.101 35.825-6.691 10.164-19.012 30.75-23.299 38.926-2.142 4.084-6.303 11.68-9.247 16.878-2.944 5.199-5.353 9.647-5.353 9.885 0 .545-24.457 43.472-27.704 48.626-1.322 2.099-3.237 5.299-4.256 7.113a6104.565 6104.565 0 0 1-3.196 5.685c-.739 1.313-2.072 3.287-2.961 4.387-.89 1.1-3.539 5.6-5.887 10-6.735 12.619-10.781 20.043-18.531 34-3.97 7.15-10.704 19.75-14.964 28-4.261 8.25-8.029 14.975-8.374 14.944-.766-.068-5.265-1.171-10.627-2.605-2.2-.588-4.9-1.179-6-1.313-1.1-.133-5.375-1.289-9.5-2.568-4.125-1.278-8.793-2.417-10.372-2.531-1.58-.113-3.155-.617-3.5-1.12-.549-.8-13.451-3.71-21.401-4.828-1.526-.214-3.27-.696-3.875-1.071-.606-.374-4.584-.802-8.841-.951-4.256-.148-8.587-.735-9.625-1.304-1.547-.849-14.414-3.752-20.386-4.6-.825-.117-3.075-.598-5-1.068-1.925-.469-4.272-.745-5.216-.612-1.609.226-8.082-.887-17.284-2.972-4.575-1.036-14.035-2.907-17.01-3.364-1.105-.169-5.138-1.275-8.963-2.456-3.825-1.181-8.446-2.339-10.268-2.572-1.822-.234-3.67-.645-4.106-.914-.436-.27-4.136-.788-8.223-1.152-4.086-.364-7.868-.926-8.403-1.249-.535-.323-7.865-.683-16.289-.801-8.424-.117-15.861-.643-16.527-1.169-.666-.525-6.611-2.596-13.211-4.602-6.6-2.006-13.35-4.132-15-4.723-1.65-.592-4.345-1.265-5.988-1.496-1.644-.231-3.871-.7-4.95-1.042-1.078-.342-3.886-.755-6.238-.918-2.352-.163-4.706-.561-5.231-.886a1.133 1.133 0 0 0-1.552.377c-.329.532-2.111.773-3.96.537-3.826-.49-9.069 2.814-8.173 5.149.291.759.045 1.38-.546 1.38-.592 0-.828.646-.525 1.435.303.79.231 1.577-.16 1.75-.972.431-5.072 15.232-5.828 21.042-.338 2.6-1.005 4.486-1.482 4.191-.477-.295-.867.166-.867 1.023 0 .857.397 1.559.883 1.559.983 0-1.467 7.793-3.049 9.7-.555.669-1.193 4.497-1.418 8.508-.224 4.011-.84 9.317-1.368 11.792-.529 2.475-.98 6.174-1.004 8.22-.024 2.045-.871 5.195-1.882 7-1.01 1.804-1.643 3.858-1.405 4.564s-.02 1.831-.573 2.5c-.554.669-.907 3.129-.787 5.466.152 2.946-.182 4.25-1.089 4.25-1.772 0-1.668 2.925.129 3.614 1.926.739.81 3.386-1.427 3.386-1.101 0-1.959.951-2.255 2.5-.263 1.375-.057 2.5.456 2.5.514 0 .008 1.178-1.125 2.618-1.132 1.439-1.813 3.014-1.513 3.5.3.485-.355.882-1.455.882-2.277 0-4.08 2.179-2.295 2.774.647.216 1.177.832 1.177 1.368 0 .537-.399.73-.886.428-.981-.606-2.079 2.658-2.1 6.239-.009 1.405-.439 2.046-1.1 1.638-.681-.421-1.013.21-.89 1.691.109 1.299.079 2.812-.066 3.362-.144.55-.372 1.45-.505 2-.932 3.85-1.886 5.5-3.178 5.5-1.126 0-1.324.67-.806 2.731.377 1.503.724 2.965.772 3.25.123.732-1.121 5.923-2.343 9.777-.569 1.792-1.26 5.167-1.537 7.5-.781 6.585-.904 7.193-1.723 8.519-.422.682-.5 2.084-.173 3.114.366 1.151.035 2.087-.858 2.429-.898.345-1.246 1.344-.913 2.619.297 1.133.079 2.061-.484 2.061-.562 0-.787.9-.5 2 .364 1.391.031 2-1.093 2-1.842 0-2.096 1.121-.595 2.622.696.696.376 1.766-1 3.353-1.112 1.282-2.022 3.106-2.022 4.052 0 .947-.655 3.578-1.456 5.847-.8 2.269-1.046 4.126-.545 4.126s1.225 1.676 1.609 3.725c.385 2.049 1.288 4.314 2.008 5.034 1.55 1.55 3.371 7.669 3.378 11.356.003 1.438-.888 3.752-1.98 5.14-1.725 2.192-1.833 2.967-.821 5.87.642 1.839 1.985 4.223 2.987 5.298 1.001 1.075 1.82 3.024 1.82 4.331 0 1.308.451 3.219 1.001 4.248.551 1.029 1.242 3.785 1.536 6.125.566 4.503 2.103 7.213 3.576 6.303.488-.301.887.352.887 1.452s.45 2.278 1 2.618c.55.34 1 1.46 1 2.488 0 1.403 1.312 2.237 5.25 3.338 5.026 1.406 12.135 2.981 14.25 3.158.55.046 3.025.6 5.5 1.23s6.525 1.603 9 2.161c2.475.559 8.55 1.965 13.5 3.125 10.537 2.469 14.831 3.408 23 5.027 3.3.654 7.31 1.592 8.912 2.085 1.602.494 3.105.704 3.341.469.235-.236 2.146.178 4.247.919 2.101.741 4.022 1.144 4.271.896.248-.249 1.752.043 3.34.648 1.589.605 5.139 1.563 7.889 2.129 2.75.566 6.575 1.411 8.5 1.879 7.482 1.818 13.62 3.143 16.329 3.527 1.556.22 3.231.649 3.723.953.491.304 2.594.767 4.671 1.029 2.077.263 4.609.738 5.627 1.057 1.017.319 2.817.718 4 .887 4.602.657 12.274 2.399 14.797 3.359 1.456.555 2.919.737 3.25.405.332-.331.603-.121.603.468 0 1.332-7.138 13.866-14.814 26.015-15.688 24.828-16.96 26.882-32.364 52.248-14.179 23.347-17.693 29.562-24.804 43.866-2.789 5.61-7.784 14.432-11.102 19.604-3.317 5.173-6.098 10.302-6.181 11.398-.083 1.097-.619 1.912-1.193 1.813-.573-.1-.975.636-.892 1.636.082.999-.103 1.563-.413 1.253-.844-.843-4.237 5.173-4.237 7.513 0 1.345-.424 1.791-1.25 1.316-.687-.396-.916-.351-.509.099.408.45.183 1.508-.5 2.352-1.004 1.24-.988 1.382.083.737 1.091-.656 1.097-.434.034 1.268-.765 1.225-1.55 1.643-1.931 1.027-.811-1.312-7.029 7.164-9.637 13.136-2.461 5.637-13.155 21.982-14.382 21.982-.499 0-.908.794-.908 1.763 0 1.755-6.646 12.454-8.106 13.049-.42.171-2.241 2.646-4.045 5.5-1.805 2.853-3.859 5.548-4.565 5.988-.706.44-1.284 1.511-1.284 2.382 0 .87-.979 3.21-2.176 5.2-5.296 8.807-20.407 32.998-22.986 36.798-1.561 2.299-2.838 4.635-2.838 5.19 0 .556-2.644 4.975-5.876 9.82-5.521 8.276-12.031 19.691-13.409 23.509-.432 1.196-.193 1.538.804 1.155.78-.299 1.379-.839 1.331-1.199-.435-3.284 3.514-5.066 5.122-2.312.878 1.504.97 1.49.998-.152.016-.995.449-1.55.961-1.234.512.317 1.213.118 1.559-.441.932-1.507 2.177-1.231 2.177.484 0 .825-.402 1.5-.893 1.5-.49 0-.648.395-.349.879.605.979-2.026 6.756-3.488 7.66-.515.319-.937 1.47-.937 2.56 0 2.498-3.725 9.901-4.982 9.901-.517 0-1.411 1.748-1.987 3.884-.575 2.135-1.75 4.468-2.611 5.183-.861.714-2.881 4.029-4.487 7.366-1.607 3.337-4.254 8.092-5.883 10.567-1.629 2.475-5.48 9.308-8.558 15.185-3.078 5.877-7.369 12.911-9.534 15.631-2.166 2.72-7.066 10.737-10.89 17.815-3.823 7.078-9.565 16.884-12.76 21.79-3.194 4.907-7.035 11.167-8.535 13.912-1.5 2.744-3.606 5.929-4.68 7.078-3.042 3.255-13.093 18.705-13.093 20.127 0 .7-1.462 3.059-3.25 5.242-1.787 2.183-6.4 8.338-10.25 13.677-3.85 5.339-9.85 13.383-13.333 17.875-6.83 8.81-6.731 8.618-14.815 28.668-2.993 7.425-7.37 17.325-9.726 22-2.356 4.675-6.219 13.45-8.585 19.5-2.366 6.05-5.404 13.412-6.752 16.359-1.43 3.128-2.219 6.284-1.894 7.578.512 2.042 1.478 3.309 8.068 10.592 1.259 1.391 4.156 3.416 6.437 4.5 2.322 1.103 5.019 3.428 6.125 5.28 1.087 1.819 2.406 3.042 2.932 2.718 1.394-.862 7.595 1.963 13.29 6.055 2.729 1.96 4.601 2.969 4.161 2.241-1.269-2.099 6.333 4.744 15.653 14.091 6.847 6.866 9.518 8.863 13.334 9.971 2.624.762 5.017 2.025 5.317 2.807.3.783 1.196 1.173 1.991.868.795-.305 2.119.119 2.941.941.823.823 2.702 1.757 4.176 2.077 1.474.319 5.155 1.617 8.18 2.884 3.025 1.267 6.769 2.598 8.319 2.957 1.551.36 4.026 1.881 5.5 3.381 2.995 3.046 9.64 7.2 11.52 7.2.673 0 3.477 2.138 6.232 4.75 2.754 2.612 6.22 5.385 7.702 6.16 1.481.776 2.967 2.271 3.301 3.322.334 1.052 1.173 1.695 1.865 1.43.692-.266 3.689 1.484 6.66 3.889 2.97 2.405 5.908 4.39 6.529 4.411.62.021 1.687.713 2.372 1.538.685.825 2.104 1.5 3.154 1.5 1.05 0 2.174.691 2.498 1.535.824 2.147 7.921 5.389 10.387 4.745 1.125-.295 1.938-.141 1.805.342-.821 2.994 2.089 6.074 7.28 7.707.893.281 1.917 2.078 2.277 3.994.72 3.836 4.621 7.255 6.33 5.546.666-.666 1.542.355 2.626 3.066.897 2.242 2.304 4.065 3.138 4.065.83 0 3.108 1.768 5.06 3.93 1.953 2.161 5.781 5.36 8.506 7.109 7.59 4.871 12.099 3.456 23.099-7.25 2.662-2.591 4.84-5.162 4.84-5.715 0-.552.886-1.478 1.969-2.057 1.082-.58 3.178-3.183 4.656-5.785 1.479-2.603 4.418-7.533 6.532-10.957 2.113-3.425 3.842-6.575 3.84-7-.001-.426.98-2.8 2.18-5.275 1.2-2.475 2.849-6.075 3.664-8 2.407-5.688 5.213-10.959 10.848-20.378 2.921-4.883 5.311-9.3 5.311-9.817 0-1.226 12.327-21.345 19.253-31.424 5.852-8.516 15.747-25.711 15.747-27.364 0-.559.464-1.017 1.031-1.017.568 0 1.322-.787 1.677-1.75 1.447-3.92 5.43-9.283 6.435-8.662.683.423.853-.024.469-1.234-.39-1.23.301-2.941 1.97-4.875 3.818-4.425 13.211-19.035 17.176-26.715 1.912-3.705 3.779-6.55 4.147-6.323.369.228 1.216-.818 1.883-2.325.668-1.507 2.198-3.797 3.401-5.089 3.213-3.449 10.872-15.435 15.353-24.027 2.151-4.125 4.259-7.65 4.684-7.833.426-.184.774-1.106.774-2.05 0-.944.398-2.144.884-2.667 1.383-1.486 8.116-14.379 8.116-15.542 0-.572 2.737-6.749 6.081-13.725 3.345-6.975 6.441-13.583 6.881-14.683.439-1.1 1.581-4.025 2.538-6.5 3.726-9.638 4.087-10.472 6.716-15.5.863-1.65 3.506-7.05 5.874-12s5.227-10.35 6.354-12c1.126-1.65 1.942-3.11 1.813-3.245-.13-.135.725-2.385 1.9-5 1.175-2.615 2.462-5.655 2.861-6.755 1.529-4.216 9.289-20.116 10.98-22.5 1.823-2.568 11.036-19.134 16.188-29.105 1.593-3.084 3.665-6.459 4.605-7.5.94-1.042 3.049-4.82 4.686-8.395 1.637-3.575 4.899-9.731 7.25-13.68 2.35-3.949 4.273-7.369 4.273-7.6 0-.37 3.479-6.868 12.964-24.22 2.55-4.663 9.95-17.874 12.784-22.821.687-1.199 1.733-2.055 2.325-1.904.591.151.81-.156.485-.681-.325-.526-.126-1.243.442-1.594.568-.351.8-1.015.515-1.476-.285-.461.383-.602 1.484-.314 1.1.288 2.001.091 2.001-.438 0-.528 1.126-2.268 2.501-3.866 3.468-4.029 5.938-9.345 5.995-12.906.064-4 1.414-6.25 2.614-4.357.575.908.864.963.875.166.008-.655-.407-1.452-.924-1.771-.516-.319.689-3.594 2.678-7.277 4.965-9.193 7.868-13.307 8.798-12.468.431.389.482.181.114-.462-.368-.644-.071-1.769.661-2.5.732-.732 1.524-1.781 1.759-2.331.236-.55 1.007-.935 1.714-.855.987.111 1.017-.179.128-1.25-.912-1.099-.801-1.395.524-1.395.928 0 1.388-.474 1.027-1.059-.646-1.044 2.917-7.072 7.057-11.941 1.169-1.375 5.39-7.675 9.38-14 3.99-6.325 9.042-13.975 11.227-17a397.893 397.893 0 0 0 7.45-10.744c1.912-2.885 5.489-7.716 7.949-10.736 2.46-3.021 4.473-5.703 4.473-5.96 0-.471 7.921-11.53 12.16-16.978 1.249-1.605 3.187-4.567 4.306-6.58 1.99-3.583 8.465-14.008 17.6-28.339 2.511-3.94 5.886-9.437 7.5-12.215 7.579-13.051 6.89-12.44 13.773-12.203 3.389.117 6.412.558 6.718.981.307.422 1.929.928 3.606 1.123 1.677.195 3.558.669 4.179 1.053 1.015.627 9.495 2.407 14.658 3.076 1.1.143 3.267.769 4.815 1.391 1.548.622 3.971 1.131 5.384 1.131 3.753 0 10.391 2.082 13.551 4.25 1.513 1.037 2.75 1.625 2.75 1.306 0-.32 1.817.566 4.037 1.967 2.221 1.402 4.39 2.331 4.822 2.064.431-.266 2.102.221 3.713 1.084 1.61.863 4.493 1.711 6.406 1.884 1.913.173 3.638.794 3.834 1.38.195.586 1.33 1.071 2.521 1.078 1.192.007 4.879.863 8.194 1.903 3.315 1.039 7.738 2.162 9.829 2.494 2.091.332 4.691 1.08 5.778 1.662 1.087.582 2.514.866 3.171.632.657-.235 2.898.428 4.979 1.473 3.869 1.941 5.716 1.739 5.716-.625 0-.731-1.497-1.61-3.326-1.953-1.83-.344-4.192-1.286-5.25-2.094-1.702-1.301-1.382-1.312 2.773-.101 2.584.752 4.876 1.19 5.094.972.218-.219 2.227.248 4.463 1.037 2.236.789 4.275 1.225 4.531.969.256-.256 2.209.183 4.34.977 6.354 2.365 13.21 3.918 14.726 3.337.78-.3 2.342.101 3.469.89 1.242.871 2.285 1.053 2.65.463.386-.625 1.572-.599 3.315.072 1.493.574 5.19 1.48 8.215 2.014 3.025.533 6.625 1.193 8 1.467 1.375.273 4.941.687 7.924.919 2.983.233 5.696.864 6.029 1.403.333.539 2.659 1.156 5.17 1.372 2.51.216 4.972.643 5.47.949 2.061 1.266 7.278 1.109 8.974-.269 1.076-.874 1.511-.966 1.066-.226-.413.687-.274 1.25.308 1.25.582 0 1.059.662 1.059 1.471 0 1.899 5.616 3.377 9.532 2.509 2.141-.474 3.462-.212 4.493.892 1.321 1.414 1.492 1.398 1.793-.167.2-1.037.803-1.436 1.508-.996.646.403 2.064.872 3.153 1.041 1.088.169 2.415.744 2.95 1.279 1.447 1.447 3.843 1.217 2.905-.279-.431-.687-.644-2.15-.473-3.25.246-1.574.048-1.744-.928-.797-.868.843-1.799.904-3.107.204-1.027-.55-2.277-.746-2.778-.437-.5.309-1.18.125-1.511-.41-.331-.535-1.216-.737-1.968-.448-.752.288-1.633.094-1.958-.432-.792-1.282 14.486-.273 16.149 1.067 1.288 1.037 13.544 2.163 20.74 1.905 4.48-.16 15.5 2.698 15.5 4.021 0 .47 1.318.623 2.93.339 1.611-.284 4.07-.082 5.464.448 1.493.567 2.764.593 3.093.062 1.001-1.62 6.615 1.116 7.598 3.702.611 1.608 1.465 2.279 2.429 1.909.899-.345 1.486.01 1.486.898 0 2.043 2.268 1.833 5.212-.483 2.657-2.09 10.19-5.009 12.987-5.033 2.709-.024 6.486-6.002 6.551-10.369.032-2.12.574-4.37 1.205-5 .863-.862.976-.031.457 3.354-.401 2.613-.318 4.155.199 3.676.891-.825 5.665-14.192 7.348-20.572.493-1.868 1.491-3.767 2.219-4.22 1.019-.634 1.061-1.245.182-2.663-.871-1.407-.812-2.619.25-5.146.765-1.817 1.39-4.356 1.39-5.64 0-1.285.624-2.695 1.388-3.135 1.265-.73 4.199-11.132 3.951-14.011-.057-.666.378-1.116.967-1 .588.116 1.363-1.468 1.722-3.52.598-3.429 2.902-9.793 5.06-13.981.829-1.61 4.59-14.594 5.659-19.538.267-1.237.824-2.25 1.238-2.25.68 0 1.649-4.312 2.473-11.003.17-1.376.986-4.124 1.814-6.106.828-1.982 1.288-4.74 1.023-6.13-.266-1.39.009-2.831.611-3.203.602-.372 1.094-2.044 1.094-3.716 0-1.672.634-4.458 1.409-6.191 2.282-5.105 2.869-8.678 2.817-17.151-.027-4.4.174-7.437.446-6.75 1.041 2.63 2.4 1.086 2.199-2.5-.115-2.062.487-5.1 1.339-6.75 2.113-4.093 3.348-9.963 1.908-9.073-.686.424-.873.097-.5-.875.328-.854.998-1.552 1.489-1.552.491 0 .893-.864.893-1.919 0-1.056.709-4.687 1.576-8.07.866-3.382 1.699-7.131 1.849-8.331.151-1.199.83-4.169 1.509-6.599.679-2.431 1.034-5.469.789-6.75-.245-1.282-.171-2.331.166-2.331 1.022-.001 1.099-9.9.098-12.534-.722-1.9-.613-2.466.476-2.466.777 0 1.401-.788 1.387-1.75-.014-.962.247-2.987.582-4.5.353-1.599.18-2.75-.412-2.75-1.459 0-1.264-2.751.23-3.253.989-.332.996-.923.033-2.833-.669-1.328-1.16-4.555-1.091-7.172.069-2.617-.176-5.059-.544-5.427-.994-.994-3.671 2.962-3.097 4.576.386 1.087.189 1.138-.9.234-1.118-.928-1.638-.572-2.619 1.798-.674 1.626-.93 3.433-.569 4.017.36.583-.014 1.06-.831 1.06s-1.729.787-2.027 1.75c-.298.962-.299-.05-.002-2.25.785-5.806 1.116-7.68 1.89-10.684.528-2.052.237-2.968-1.236-3.888-1.942-1.212-2.031-5.332-.141-6.499 2.38-1.471 4.827-1.182 5.405.637.575 1.811 3.522 2.824 3.443 1.184-.067-1.404-4.954-6.756-4.959-5.432-.003.9-.993.615-3.117-.898-2.733-1.946-2.905-2.331-1.416-3.165 1.575-.881 1.563-1.042-.162-2.251-1.023-.716-3.198-1.443-4.835-1.615-1.636-.172-3.465-.663-4.064-1.09-1.055-.752-7.295-1.899-12.411-2.28-1.375-.103-3.85-.754-5.5-1.449-1.65-.694-6.375-1.427-10.5-1.629-9.202-.452-13.981-1.103-17.275-2.355-1.386-.527-2.742-.736-3.014-.464-.272.273-2.231-.269-4.353-1.203-2.122-.933-5.131-1.597-6.687-1.475-1.556.123-3.612-.485-4.569-1.352-1.708-1.545-4.579-2.025-18.602-3.11-3.85-.298-8.35-.764-10-1.036-1.65-.272-5.025-.678-7.5-.902-6.239-.565-18.849-2.512-22.714-3.507-2.289-.59-3.53-.447-4.312.494-1.275 1.536-6.228.265-9.285-2.383-1.463-1.267-1.967-1.316-2.623-.255-.669 1.083-1.229 1.079-3.189-.021-1.307-.734-3.052-1.4-3.877-1.48-.825-.08-4.2-.698-7.5-1.374-3.3-.675-7.917-1.56-10.26-1.966-2.342-.406-4.591-1.07-4.998-1.476-.406-.406.611-.402 2.26.009 2.716.676 2.869.59 1.626-.919-.755-.916-2.443-1.666-3.75-1.666-1.453 0-2.378-.587-2.378-1.508 0-1.252-.336-1.299-1.975-.276-1.576.985-2.233.974-3.25-.05-1.036-1.044-.9-1.164.725-.644l2 .641-2-1.625c-1.1-.894-3.125-1.877-4.5-2.185-3.492-.782-8-2.723-8-3.445 0-.332-1.418-.644-3.152-.693-1.733-.05-3.832-.77-4.663-1.602-1.35-1.349-1.253-1.893.901-5.056 1.328-1.949 2.713-3.546 3.078-3.55.888-.009 7.915-12.467 9.913-17.576.876-2.238 3.356-6.513 5.512-9.5 2.156-2.987 4.931-7.295 6.168-9.573 1.237-2.278 2.829-5.203 3.538-6.5.708-1.297 2.732-4.584 4.497-7.304 1.764-2.72 3.208-5.262 3.208-5.649 0-.387 1.79-3.562 3.978-7.055 2.189-3.492 5.625-9.275 7.638-12.85 2.012-3.575 4.653-8.075 5.869-10 8.686-13.75 13.157-21.848 19.878-36 1.175-2.475 2.373-4.725 2.662-5 1.799-1.715 8.975-11.414 8.975-12.131 0-1.744-.966-.759-4.545 4.633-3.71 5.589-5.19 7.096-6.087 6.199-.644-.643 5.282-11.165 7.171-12.733.791-.657 1.192-1.594.891-2.081-.301-.488-.089-.887.472-.887.561 0 2.492-2.25 4.293-5 1.8-2.75 3.618-5 4.039-5 .421 0 .766-.845.766-1.878 0-1.032.675-2.437 1.5-3.122s1.536-1.977 1.579-2.872c.051-1.046.26-1.179.585-.372.279.691.899 1.014 1.378.718.479-.296.589-1.272.244-2.17-.418-1.091-.238-1.392.544-.909.644.398 1.219.359 1.28-.086.06-.445.234-2.306.386-4.136.154-1.839 1.381-4.523 2.744-6 2.452-2.657 4.219-5.998 3.922-7.413-.086-.407 1.128-2.882 2.696-5.5 1.569-2.618 5.47-9.26 8.671-14.76 3.2-5.5 7.213-11.8 8.916-14 1.704-2.2 4.438-6.019 6.076-8.487 2.569-3.87 13.304-18.56 15.721-21.513.45-.55 3.572-5.275 6.937-10.5s8.677-12.875 11.805-17c6.527-8.608 27.334-40.084 31.12-47.078 1.799-3.324 13.073-20.266 13.921-20.922.865-.668 7.975-11.89 7.975-12.586 0-.784 5.354-7.849 6.25-8.247.412-.184.75-.939.75-1.679 0-.74.568-1.94 1.262-2.667.694-.726 3.594-4.921 6.444-9.321 2.85-4.4 6.554-9.841 8.232-12.091 1.678-2.25 4.125-6.075 5.438-8.5 1.313-2.425 4.906-8.574 7.986-13.665 3.079-5.091 7.07-11.887 8.868-15.102 1.96-3.504 5.941-8.208 9.938-11.744 3.667-3.244 7.637-7.136 8.822-8.648 1.186-1.512 2.628-2.75 3.205-2.75.622 0 .503.714-.292 1.75-.738.962-.107.649 1.402-.698 1.51-1.346 4.196-5.335 5.97-8.864 2.099-4.177 4.796-7.668 7.725-10.001 6.841-5.449 7.156-5.985 5.457-9.27-3.014-5.828-1.929-8.331 8.07-18.617l6.027-6.2-.648-6.3c-.356-3.465-1.126-7.771-1.712-9.569-.601-1.843-.657-3.017-.13-2.691 1.113.687 1.262-.881.186-1.956-.993-.993-1.07-2.096-1.598-23.084-.254-10.056-.047-18.761.468-19.723.626-1.17.297-3.576-1.024-7.488-1.322-3.915-1.627-6.149-.952-6.963.661-.796.653-1.837-.023-3.1-.56-1.047-.773-2.842-.472-3.991.359-1.372-.173-2.703-1.552-3.884-1.153-.987-2.09-2.258-2.082-2.823.009-.566.358-.489.777.169.479.754 1.287.872 2.182.319 1.114-.688.824-1.151-1.337-2.136-2.228-1.015-2.643-1.718-2.158-3.652.346-1.379.204-2.15-.334-1.818-1.392.861-2.346-2.463-1.128-3.931 1.27-1.53-1.241-4.471-3.838-4.494-1.45-.014-1.474-.148-.179-.985.825-.533 1.05-.991.5-1.016-.55-.026-.102-.726.995-1.555 1.541-1.165 1.699-1.691.692-2.313-1.322-.817-.783-5.496.879-7.632.747-.96-.461-9.229-1.824-12.484-.991-2.367-.949-4.391.12-5.813.543-.722 1.089-4.322 1.215-8 .125-3.678.552-9.977.95-13.998.683-6.913.607-7.341-1.402-7.867-2.205-.576-2.966-2.322-1.012-2.322.676 0 .936-1.216.66-3.093-.294-2.002.017-3.273.881-3.604.734-.282 1.109-.878.833-1.324-.275-.446-.745-5.877-1.043-12.069-.298-6.192-.806-11.687-1.13-12.21-.323-.524-.698-2.783-.833-5.022-.341-5.635-2.604-7.103-14.186-9.196-8.169-1.476-12.949-1.663-28.795-1.125-10.45.355-25.722 1.306-33.937 2.113-10.892 1.071-16.715 1.204-21.5.49-3.61-.539-11.288-1.689-17.063-2.556-8.588-1.29-24.522-1.673-87.5-2.103-42.35-.289-90.569-.67-107.153-.847-16.585-.177-34.36.073-39.5.556-5.141.482-25.547 1.123-45.347 1.424-19.8.3-46.8.792-60 1.092-13.2.3-34.35.742-47 .981-12.65.24-31.325.718-41.5 1.063s-32 .106-48.5-.532-39.675-1.312-51.5-1.499c-13.196-.208-24.783-.921-30-1.846-4.962-.879-18.488-1.768-32.5-2.135-13.2-.346-29.625-1.055-36.5-1.576-16.989-1.287-50.928-1.814-59.5-.924M101.848 69.25c-.084 1.787-.257 3.7-.385 4.25-.128.55-.284 2.068-.348 3.372-.096 1.992-.356 2.173-1.615 1.128-1.282-1.064-1.5-.763-1.5 2.069 0 3.128.082 3.205 1.468 1.372 1.449-1.916 1.47-1.915 1.6.059.11 1.677.261 1.597.932-.5.762-2.379.805-2.344.9.719.068 2.181-.303 3.071-1.15 2.76-2.291-.839-5.476 3.018-5.316 6.438.105 2.259 2.566 2.497 2.566.248 0-3.059 1.063-5.165 2.607-5.165.766 0 1.444.563 1.507 1.25.299 3.275.903 6.514 1.725 9.25l.902 3 .721-2.683c.509-1.895 1.183-2.507 2.29-2.082 1.246.478 1.443.103.958-1.816-.549-2.175-.478-2.242.7-.669 1.415 1.89 8.59 2.517 8.59.75 0-.55-.536-1-1.191-1s-.318-.666.75-1.481c1.671-1.275 1.734-1.617.45-2.458-.82-.538-1.539-1.559-1.598-2.269-.058-.711-.21-3.317-.338-5.792-.127-2.475-.458-3.937-.735-3.25-.868 2.151-2.338 1.365-2.338-1.25 0-1.556-.567-2.5-1.5-2.5-.825 0-1.5-.45-1.5-1s-.675-1-1.5-1-1.5-.659-1.5-1.465c0-1.457-2.901-3.535-4.934-3.535-.586 0-1.135 1.463-1.218 3.25m-12.485 35.725c.139 6.586.564 12.286.945 12.666.381.381.692-5.008.692-11.974C91 98.384 90.598 93 90.055 93c-.554 0-.84 4.948-.692 11.975m1076.146-5.96c.335.542 2.007.985 3.717.985 3.777 0 3.396-.499-1.026-1.341-2.061-.393-3.071-.259-2.691.356M82.83 165.683c-.203.45-.315 1.717-.248 2.817s.202 4.025.3 6.5c.14 3.511.397 4.125 1.174 2.794.547-.939.829-3.981.626-6.76-.357-4.9-1.093-7.025-1.852-5.351M94.439 183c.32 6.875.82 14.3 1.112 16.5.526 3.956.773 6.309 1.895 18 .749 7.808 2.765 18.5 3.487 18.5.659 0 .59-4.48-.229-15-.321-4.125-.36-6.6-.085-5.5.274 1.1.756 2.675 1.072 3.5.315.825.715 2.575.888 3.89.484 3.679 1.239 5.117 2.64 5.031 1.011-.062 1.016-.186.025-.585-.691-.279-.947-1.007-.569-1.618.864-1.399.481-10.094-.648-14.718-.47-1.925-1.109-6.875-1.42-11-.684-9.089-1.437-12-3.107-12-1.578 0-2.459-3.15-2.518-9-.025-2.475-.738-5.4-1.585-6.5-1.401-1.821-1.487-.884-.958 10.5M107 198.059c0 1.132.45 1.781 1 1.441.55-.34 1-1.266 1-2.059 0-.793-.45-1.441-1-1.441s-1 .927-1 2.059m1062.287.614c-3.537 5.104-3.73 5.635-1.646 4.519 3.343-1.789 5.818-5.133 4.658-6.293-.738-.738-1.64-.206-3.012 1.774M99 209.941c0 1.83 1.669 3.723 2.527 2.865.687-.686-.722-4.806-1.644-4.806-.485 0-.883.873-.883 1.941m1056.028 11.485c-1.486 3.909-1.192 4.524.59 1.236.846-1.562 1.291-3.086.988-3.389-.302-.303-1.013.666-1.578 2.153m2 3c-1.486 3.909-1.192 4.524.59 1.236.846-1.562 1.291-3.086.988-3.389-.302-.303-1.013.666-1.578 2.153M100.73 240.603c-.794.795.238 6.572 1.402 7.847.506.554.862-.488.853-2.5-.016-3.637-1.187-6.414-2.255-5.347m170.941 49.981c.437 1.141.813 1.251 1.343.393.537-.868.924-.887 1.43-.067.82 1.326 2.563.49 2.541-1.219-.01-.716-.403-.592-.985.309-.646 1-.974 1.083-.985.25-.008-.687-.901-1.25-1.984-1.25-1.385 0-1.788.469-1.36 1.584m776.864 20.003c-.932 1.422-1.467 2.814-1.189 3.093.279.278 1.226-.886 2.106-2.587 1.944-3.76 1.409-4.056-.917-.506m81.272 8.163c-1.908 2.222-3.07 4.25-2.434 4.25.27 0 1.452-1.35 2.627-3 2.33-3.272 2.21-4.048-.193-1.25m-547.045 28.957c1.244.239 3.044.23 4-.02s-.062-.446-2.262-.435c-2.2.011-2.982.216-1.738.455M356.5 361c.34.55 1.518 1 2.618 1 1.1 0 1.722-.45 1.382-1-.34-.55-1.518-1-2.618-1-1.1 0-1.722.45-1.382 1m623.611 239.111c-.731 1.652-1.116 3.217-.855 3.478.261.262 1.046-.904 1.744-2.589 1.656-3.997.845-4.807-.889-.889M873.616 750.75c-.34.962-.875 2.425-1.191 3.25-.315.825.35.375 1.479-1 2.216-2.7 2.61-4 1.213-4-.486 0-1.162.788-1.501 1.75m-8.001 13.715c-2.45 3.739-1.929 4.403.886 1.129 2.743-3.189 2.925-3.594 1.614-3.594-.487 0-1.612 1.109-2.5 2.465m-8.121 13.541c-.998 1.104-1.513 2.308-1.144 2.677.663.663 3.557-2.482 3.618-3.933.051-1.188-.527-.895-2.474 1.256m-588.408 35.122c-.047 1.445.675 3.245 1.606 4 1.337 1.084 1.524 1.094.893.044-.44-.731-1.163-2.531-1.606-4l-.807-2.672-.086 2.628M1072.2 845.2c-.66.66-1.2 1.801-1.2 2.535 0 1.02-.466 1.086-1.977.277-1.614-.863-1.87-.778-1.394.465.365.951.016 1.523-.928 1.523-1.021 0-1.344.651-.991 2 .351 1.342.031 2-.972 2-1.525 0-4.412 5.575-3.955 7.636.139.625-.441 1.402-1.288 1.728-1.298.497-1.34.949-.268 2.863 1.864 3.328 3.006 3.837 4.384 1.953.674-.922 1.551-1.351 1.95-.953.398.399.097 1.495-.668 2.436-1.217 1.495-1.186 1.634.244 1.099 1.273-.476 1.531-.129 1.163 1.563-.383 1.761-.269 1.889.598.675.589-.825 1.078-2.314 1.087-3.309.008-.995.46-1.534 1.004-1.198.566.35.734-.051.393-.941-.328-.854-.194-1.552.297-1.552.861 0 1.035-.836 1.401-6.731.094-1.502.797-3.19 1.564-3.751.822-.6 1.49-3.173 1.627-6.268.244-5.462-.062-6.059-2.071-4.05m-.45 18.462c.688.278 1.25 1.341 1.25 2.362 0 1.022.369 2.086.819 2.364.451.279.624-.82.387-2.441-.284-1.932-.996-2.92-2.069-2.868-1.038.05-1.179.264-.387.583m9.397 19.839c-2.671 8.138-2.748 11.26-.161 6.499 1.883-3.464 3.695-11.652 2.782-12.566-.261-.26-1.44 2.47-2.621 6.067m-23.119 67.925c-.565 1.487-1.028 3.56-1.028 4.605 0 2.664-3.144 8.969-4.472 8.969-.606 0-1.17.9-1.253 2-.083 1.1.271 2 .787 2s.948.788.961 1.75c.038 2.971 2.654-3.806 3.956-10.25.666-3.3 1.636-7.071 2.154-8.379.518-1.309.713-2.609.432-2.889-.28-.28-.972.707-1.537 2.194M1049.239 972c-.831 2.099-.689 2.551.886 2.82 1.031.175 1.875 1.015 1.875 1.866 0 1.069-.636 1.381-2.055 1.01-1.533-.401-2.295.094-3 1.948-1.231 3.238-1.212 3.356.555 3.356.869 0 1.528.947 1.568 2.25.064 2.132.109 2.145.862.25 3.153-7.941 3.924-11.484 2.662-12.231-.714-.423-1.538-1.444-1.831-2.269-.392-1.104-.794-.84-1.522 1m-5.083 16.75c-1.831 4.633-2.437 8.25-1.381 8.25 1.127 0 2.184-2.984 2.746-7.75.469-3.973.066-4.12-1.365-.5m2.83 1.5c-.007 1.237-.299 3.375-.647 4.75-.349 1.375-.368 2.262-.041 1.971 1.092-.973 2.515-8.971 1.596-8.971-.492 0-.9 1.013-.908 2.25M827 1094.5c0 .833.889 1.5 2 1.5s2-.667 2-1.5-.889-1.5-2-1.5-2 .667-2 1.5m6-.5c-1.181.73-1.23 1.17-.242 2.158.966.966 1.509.975 2.442.042 1.622-1.622-.195-3.439-2.2-2.2m-141.25 328.504c-2.714 2.369-4.01 4.786-1.408 2.627.738-.612 1.638-.818 2-.456.362.362.658-.042.658-.897 0-.856.563-1.535 1.25-1.509 2.845.105 4.75-.316 4.75-1.051 0-1.778-4.694-.945-7.25 1.286m-7.687 8.077c-3.1 3.286-4.398 5.897-1.482 2.981.869-.869 2.07-1.277 2.67-.907.712.44.849.048.396-1.132-.612-1.594-.485-1.647 1.08-.447.975.747 1.435.959 1.021.472-.414-.487-.075-1.635.754-2.55 3.013-3.329-1.235-1.815-4.439 1.583M939 1514c1.272.822 1.225.972-.309.985-1.005.008-1.521.481-1.161 1.064.449.726 1.033.729 1.901.008.689-.572 1.549-.744 1.911-.382.362.362.658.181.658-.401 0-.583-.712-1.333-1.582-1.667-2.371-.91-3.115-.704-1.418.393m-11 1c0 .55-.75 1-1.667 1-2.644 0-.628 1.305 2.415 1.564 1.514.128 2.215.025 1.558-.23-.656-.255-.946-1.109-.643-1.899.303-.789.053-1.435-.556-1.435-.609 0-1.107.45-1.107 1m-30.517 1.75c.427.84-.205 1.25-1.924 1.25-3.029 0-3.251 1.064-.702 3.37 1.664 1.507 1.988 1.521 3.132.143 1.04-1.253 1.558-1.304 2.797-.275 1.898 1.574 1.606 1.622 4.152-.682 1.827-1.653 2.05-1.689 1.494-.239-.492 1.281-.254 1.552.951 1.09.883-.339 1.357-1.019 1.052-1.512-.304-.492-.076-.895.506-.895s1.059-.45 1.059-1c0-1.311-4.698-1.297-5.51.016-.346.559-1.016.777-1.49.484-.474-.293-1.15-.066-1.503.505-.386.625-1.439.134-2.645-1.234-1.103-1.249-1.719-1.708-1.369-1.021m13.919 2.087c-.002 2.102.122 2.167 1.236.643.811-1.109 2.786-1.74 5.723-1.831 6.159-.189 4.702-1.149-1.745-1.149-4.796 0-5.213.187-5.214 2.337m-21.708.802c-1.066 1.067.297 2.361 2.487 2.361 1.721 0 1.857-.249.819-1.5-1.344-1.62-2.299-1.868-3.306-.861" fill-rule="evenodd"/></svg>