<svg xmlns="http://www.w3.org/2000/svg" width="1240" height="1753"><path d="M602.5 31.97c-43.502.816-46.418 1.017-66.65 4.608C528.343 37.91 520.896 39 519.3 39c-1.595 0-3.327.378-3.85.839-.522.461-3.65 1.413-6.95 2.114-3.3.701-8.025 1.849-10.5 2.55-2.475.701-9 2.254-14.5 3.451s-11.125 2.675-12.5 3.285c-1.375.611-2.807 1.042-3.182.958-1.142-.254-15.057 4.483-19.318 6.576-2.2 1.081-6.475 2.535-9.5 3.231-5.93 1.366-21.864 6.811-23.5 8.032-.55.41-5.725 2.321-11.5 4.247-5.775 1.926-15.225 5.755-21 8.509-20.478 9.767-32.541 15.448-35.694 16.809-1.757.758-7.979 4.309-13.827 7.889-5.849 3.581-10.81 6.51-11.025 6.51-.215 0-.132-.675.184-1.5.317-.825.052-1.5-.587-1.5-1.386 0-6.108 4.94-10.037 10.5-1.555 2.2-6.824 7.838-11.709 12.529-4.886 4.692-9.641 9.613-10.568 10.936-.927 1.324-8.126 8.96-15.998 16.971-7.873 8.01-15.872 16.382-17.776 18.603-7.407 8.64-15.643 18.08-19.562 22.421-2.254 2.497-4.556 5.388-5.115 6.425-.559 1.037-3.587 4.637-6.729 8-4.759 5.094-22.573 27.967-26.057 33.457-.55.867-3.762 5.87-7.139 11.117-3.376 5.248-6.855 11.263-7.731 13.368-.876 2.105-2.854 5.705-4.396 8-1.542 2.295-3.443 5.748-4.224 7.673-.78 1.925-2.339 5.075-3.464 7-3.682 6.304-15.725 33.364-17.579 39.5-.997 3.3-4.039 11.201-6.761 17.558-8.843 20.655-15.563 41.419-15.355 47.442.038 1.1-.586 6.05-1.387 11-1.808 11.178-1.859 24.415-.119 31 .95 3.595 1.37 14.41 1.494 38.5.095 18.425.571 35.75 1.058 38.5 2.002 11.289 4.395 22.534 6.704 31.5 4.151 16.114 11.641 40 12.543 40 .471 0 .856.479.856 1.064 0 .585 1.172 3.623 2.605 6.75 1.432 3.127 3.313 7.486 4.179 9.686 1.273 3.232 13.157 24.247 17.247 30.5.54.825 1.292 2.175 1.671 3 .38.825 3.913 5.775 7.852 11 3.94 5.225 10.003 13.756 13.475 18.957 3.471 5.202 7.942 11.277 9.934 13.5 1.993 2.224 4.388 5.168 5.322 6.543 7.306 10.748 9.008 12.937 9.722 12.496.447-.276 2.901 2.424 5.453 6.001 2.553 3.577 4.996 6.503 5.43 6.503.434 0 1.326 1.179 1.983 2.62 1.022 2.243.973 2.535-.34 2.031-2.039-.782-1.928.189.471 4.123 1.098 1.801 1.996 3.877 1.996 4.614 0 .737 1.064 2.413 2.365 3.726 1.301 1.312 2.681 3.398 3.067 4.636.387 1.24 1.511 2.25 2.503 2.25.991 0 2.987 1.796 4.446 4 1.456 2.2 3.066 4 3.578 4 1.182 0 16.052 15.136 26.524 27 2.184 2.475 4.319 4.387 4.744 4.25.425-.138.661.312.523 1-.137.687.313 1.137 1 1 .688-.138 1.138.312 1 1-.137.687.249 1.159.858 1.047.61-.111 2.41 1.237 4 2.997 2.869 3.173 2.87 3.179.142.778-1.513-1.331-2.75-1.971-2.75-1.421 0 1.371 4.516 5.51 5.613 5.145.488-.163 1.032.154 1.208.704.61 1.897 3.449 4.451 4.337 3.902.491-.303.768.025.617.728-.151.704.4 1.3 1.225 1.325.825.025 1.507.495 1.515 1.045.027 1.765 1.593 3.551 2.579 2.942.525-.325.832-.005.681.71-.151.715.716 1.452 1.928 1.638 1.211.185 2.479 1.208 2.817 2.273.338 1.066 1.148 1.937 1.8 1.937.651 0 3.261 1.912 5.799 4.25 2.538 2.337 7.677 6.725 11.419 9.75 3.743 3.025 7.597 6.257 8.566 7.183.969.926 2.917 2.44 4.329 3.365 1.412.925 2.567 2.305 2.567 3.067s.498 1.385 1.107 1.385.829.725.489 1.611c-.433 1.127-.186 1.446.82 1.06.791-.304 1.931.042 2.534.769.855 1.029-.068 2.061-4.177 4.668-2.9 1.84-5.723 3.859-6.273 4.485-.55.626-3.025 2.211-5.5 3.523-2.475 1.311-4.725 2.633-5 2.937-.275.304-2.3 1.64-4.5 2.969-2.2 1.328-5.532 3.892-7.403 5.697-1.872 1.804-4.024 3.281-4.783 3.281-.758 0-1.785 1.012-2.283 2.25-.524 1.305-.937 1.62-.983.75-.049-.932-.357-1.103-.813-.452-.404.577-2.31 2.111-4.235 3.41-1.925 1.299-4.4 3.203-5.5 4.232-4.294 4.015-6.963 5.888-9.184 6.446-1.274.319-2.316 1.014-2.316 1.544 0 1.19-2.552 3.82-3.706 3.82-.991 0-4.294 3.673-4.294 4.774 0 .414-1.012 1.196-2.25 1.739-1.238.543-2.25 1.662-2.25 2.487 0 1.849-1.733 3.952-2.75 3.336-.412-.25-.75.248-.75 1.105s-.675 1.559-1.5 1.559-1.515.337-1.534.75c-.019.413-2.268 3.225-4.998 6.25-2.731 3.025-4.965 5.885-4.966 6.356-.001.471-1.127 1.741-2.502 2.823-1.375 1.081-2.5 2.539-2.5 3.239 0 .699-.88 2.068-1.955 3.041-1.075.973-3.146 4.08-4.603 6.905-1.456 2.825-3.952 6.507-5.545 8.184-1.593 1.676-2.897 3.533-2.897 4.127 0 .594-.744 1.697-1.652 2.451-1.597 1.325-8.804 10.647-10.848 14.029-.967 1.601-8.886 13.525-12.654 19.055-1.015 1.49-1.846 2.909-1.846 3.153 0 .455-5.079 6.487-8.286 9.841-.983 1.028-1.527 2.29-1.208 2.805.318.515-.504 3.311-1.827 6.214-5.981 13.122-6.679 14.873-6.679 16.766 0 1.106-.345 2.011-.767 2.011-.422 0-1.855 2.813-3.183 6.25-1.329 3.438-2.709 6.7-3.069 7.25-.686 1.051-3.138 9.062-4.973 16.25-.597 2.337-1.473 4.25-1.947 4.25s-1.384 2.362-2.023 5.25c-.638 2.888-2.01 8.85-3.049 13.25a999.777 999.777 0 0 0-3.505 15.488c-.889 4.119-2.222 8.844-2.962 10.5-.741 1.657-1.895 5.487-2.566 8.512-.671 3.025-1.645 6.322-2.165 7.327-1.424 2.755-3.686 12.034-3.146 12.907.26.421.018.766-.539.766-1.046 0-2.884 5.248-3.678 10.5-1.333 8.821-3.65 21.476-4.558 24.89-.806 3.031-.74 4.08.298 4.75.955.617 1.014 1.072.208 1.61-1.306.871-2.232 4.7-2.842 11.75-.238 2.75-.959 8.15-1.603 12-1.685 10.073-1.349 30.724.595 36.578 1.89 5.692 1.454 17.435-.871 23.422-4.622 11.903-5.987 31.088-4.198 59 1.651 25.758 2.831 39 3.474 39 .103 0 .339 1.575.526 3.5.461 4.768 2.192 14.5 2.579 14.5.105 0 .302 1.35.439 3 .666 8.018 1.757 15.08 2.471 15.99.815 1.038 2.229 7.262 2.559 11.261.103 1.238.96 3.105 1.906 4.15 1.078 1.192 1.336 2.137.691 2.536-.653.403-.33 1.784.883 3.779 1.051 1.728 1.689 3.503 1.417 3.943-.272.44.013 1.748.634 2.908.62 1.16 1.343 3.292 1.605 4.74.263 1.447.965 3.218 1.561 3.936s.834 1.554.53 1.859c-.305.304.527 2.995 1.847 5.98 1.32 2.985 2.352 5.538 2.293 5.673-.133.304 2.605 6.12 4.976 10.568 1.883 3.532 4.04 5.364 5.357 4.55.44-.272.348-1.34-.205-2.373-.614-1.147-.642-2.103-.073-2.455.513-.317 1.504 1.006 2.204 2.939.699 1.934 1.63 3.516 2.07 3.516.439 0 .799.675.799 1.5 0 .839.892 1.5 2.025 1.5 1.245 0 2.394.973 2.985 2.526.528 1.389 1.607 2.774 2.398 3.077 1.48.568 4.752 6.623 5.057 9.357.094.847.703 2.807 1.353 4.355 1.43 3.405 1.493 4.685.233 4.685-.897 0-.169 2.15 3.895 11.5.956 2.2 2.333 5.575 3.061 7.5.727 1.925 1.855 4.175 2.506 5 1.103 1.398 2.703 4.754 2.901 6.081.285 1.918 5.079 10.919 5.816 10.919.488 0 .647.39.353.866-.295.477.354 1.672 1.441 2.655 1.087.984 1.976 2.207 1.976 2.718 0 1.283 12.065 15.761 13.135 15.761.476 0 .752.387.615.86-.138.473 2.225 3.403 5.25 6.51 8.407 8.636 9.282 9.678 13.972 16.645 2.402 3.567 8.003 10.091 12.448 14.498 4.444 4.407 10.355 10.482 13.136 13.5 2.78 3.018 7.452 7.512 10.381 9.987 2.93 2.475 6.573 5.737 8.096 7.25 1.523 1.513 3.219 2.75 3.769 2.75.55 0 3.694 2.025 6.986 4.5 3.293 2.475 6.6 4.503 7.349 4.507 2.133.01 6.603 3.367 6.166 4.629-.217.625.864 1.631 2.402 2.236 1.537.604 3.47 1.529 4.295 2.054.825.525 2.738 1.215 4.25 1.533 1.513.319 2.75 1.17 2.75 1.891 0 1.314 10.726 6.65 13.367 6.65.771 0 2.092 1.052 2.934 2.337.981 1.496 3.988 3.154 8.365 4.611 3.759 1.251 7.261 2.674 7.784 3.163.522.489 1.985.889 3.25.889s2.3.45 2.3 1 .66 1 1.466 1c.806 0 2.944.63 4.75 1.399 1.806.77 5.309 2.22 7.784 3.222 2.475 1.003 4.729 2.137 5.009 2.52.923 1.264 24.269 8.805 25.295 8.171.594-.367.691-.114.238.62-.565.914.139 1.163 2.671.944 2.365-.203 4.315.394 6.247 1.914 1.545 1.216 3.397 2.21 4.115 2.21.718 0 3.861 1.326 6.985 2.947s7.089 3.247 8.81 3.613c1.722.367 5.414 1.736 8.206 3.044 2.791 1.307 6.616 2.669 8.5 3.027 1.883.358 4.009 1.111 4.724 1.673 2.144 1.688 7.57 1.566 8.915-.2.81-1.063 1.232-1.18 1.253-.345.076 3.003 5.529 6.963 10.532 7.649 2.75.377 7.025 1.328 9.5 2.112 14.564 4.617 21.615 5.73 50.5 7.969 10.45.81 24.625 1.913 31.5 2.452 8.495.666 18.267.632 30.5-.106 26.158-1.578 31.061-2.099 37.103-3.945 3.653-1.116 7.893-5.279 6.943-6.816-.431-.697.748-1.074 3.364-1.074 3.342 0 3.919.283 3.39 1.66-.567 1.478.069 1.593 5.781 1.047 3.531-.338 9.981-1.511 14.334-2.608 5.252-1.322 8.49-1.685 9.625-1.078 1.167.625 4.052.167 9.085-1.442 4.056-1.297 9.85-2.925 12.875-3.619 3.025-.694 8.369-2.779 11.875-4.633 3.506-1.854 7.781-3.574 9.5-3.821 1.719-.248 5.6-1.174 8.625-2.059 3.025-.885 9.063-2.486 13.419-3.558 4.355-1.071 10.719-3.284 14.142-4.918 3.424-1.634 6.668-2.971 7.21-2.971.541 0 1.602-.748 2.357-1.662.754-.914 3.622-2.753 6.372-4.087 10.032-4.867 15.385-7.786 17.172-9.366 1.006-.889 4.078-2.751 6.828-4.139 13.082-6.601 15.947-8.461 22.082-14.331 2.993-2.864 9.926-6.764 15.918-8.954 2.75-1.006 7.7-3.786 11-6.179 3.3-2.393 9.356-6.662 13.459-9.487 4.102-2.826 8.543-6.427 9.869-8.002 1.326-1.576 3.819-3.59 5.541-4.476 1.722-.886 4.481-3.206 6.131-5.155 1.65-1.95 6.825-7.264 11.5-11.81s8.851-8.622 9.281-9.058c11.279-11.468 20.832-20.291 21.969-20.293.413-.001.75-.69.75-1.532 0-.843.683-1.794 1.517-2.114.835-.32 3.66-4.924 6.277-10.231 5.04-10.216 7.595-14.402 8.338-13.658.249.249 1.978-1.892 3.842-4.757 1.863-2.865 4.207-5.797 5.207-6.516 1-.718 1.819-1.94 1.819-2.715 0-.774.828-1.851 1.839-2.392 1.012-.541 3.824-3.595 6.25-6.785 2.426-3.191 4.974-6.396 5.661-7.122.688-.727 1.25-1.708 1.25-2.179 0-.471.625-1.482 1.388-2.245.763-.763 2.872-4.058 4.686-7.321 1.814-3.264 4.227-7.088 5.362-8.498 3.946-4.903 15.642-22.492 18.65-28.047.778-1.436 2.585-4.361 4.016-6.5 2.631-3.932 9.506-17.09 14.441-27.636 2.308-4.934 2.946-7.415 3.408-13.253.044-.55.516-.325 1.049.5.809 1.253.997 1.17 1.137-.5.092-1.1.217-2.547.277-3.215.06-.669 1.004-1.907 2.097-2.753 1.785-1.38 1.799-1.47.133-.887-1.648.578-1.594.25.488-2.926 2.571-3.921 3.69-4.249 1.896-.555-.914 1.884-.652 1.767 1.36-.606 1.371-1.618 2.286-3.276 2.033-3.685-.252-.409.566-1.785 1.819-3.058 1.253-1.273 4.038-5.802 6.189-10.065s4.509-7.75 5.241-7.75c.731 0 1.33-.614 1.33-1.364 0-.75 1.062-2.437 2.361-3.75 3.442-3.478 5.639-8.285 5.639-12.336 0-2.366.464-3.55 1.391-3.55 1.523 0 4.717-6.8 5.353-11.395.22-1.593 1.01-3.843 1.755-5 .745-1.158 2.246-5.705 3.335-10.105s3.077-12.275 4.418-17.5c4.334-16.892 5.916-24.895 5.304-26.824-.33-1.039.121-4.766 1.002-8.283 2.336-9.321 2.846-48.468.833-63.893-2.363-18.112-2.495-22.094-.889-27 2.012-6.146 2.383-20.918.753-30-.741-4.125-1.5-8.894-1.687-10.597-.819-7.448-1.826-11.404-2.906-11.418-.712-.01-.622-.358.234-.899.798-.506 1.121-1.599.755-2.554-.569-1.482-3.801-16.731-5.008-23.625-.249-1.425-1.656-5.7-3.125-9.5-4.312-11.146-6.338-16.741-7.029-19.407-.357-1.375-1.25-3.85-1.985-5.5-1.268-2.844-4.42-14.078-8.514-30.343-1.016-4.038-2.513-8.088-3.326-9-.813-.911-2.005-3.682-2.649-6.157-.644-2.475-2.199-6.75-3.456-9.5a547.042 547.042 0 0 1-4.115-9.25c-1.006-2.337-2.192-4.25-2.636-4.25-.445 0-.808-.683-.808-1.518 0-1.41-2.322-6.505-7.199-15.798-1.102-2.098-1.759-4.06-1.46-4.358.298-.299-2.864-4.432-7.028-9.184-4.163-4.753-8.289-9.767-9.168-11.142-.879-1.375-1.88-2.725-2.224-3-.344-.275-2.805-3.2-5.47-6.5-2.664-3.3-8.018-9.669-11.898-14.154-3.879-4.485-9.078-10.931-11.553-14.324-2.475-3.394-7.757-9.625-11.738-13.846-3.98-4.222-7.243-8.013-7.25-8.426-.006-.413-.687-.75-1.512-.75s-1.5-.42-1.5-.933c0-.513-.848-1.201-1.884-1.53-1.036-.329-1.823-1.355-1.75-2.279.074-.925-.669-1.847-1.65-2.05-.981-.202-3.89-2.357-6.463-4.788-2.574-2.432-5.479-4.674-6.454-4.984-.976-.31-5.67-3.221-10.431-6.47-4.76-3.248-9.041-5.668-9.512-5.377-.471.291-.856.115-.856-.391 0-1.212-26.642-18.198-28.544-18.198-.268 0-2.956-1.64-5.975-3.644-4.35-2.888-5.254-3.925-4.362-5 .619-.746 1.746-1.356 2.503-1.356.758 0 1.378-.847 1.378-1.881 0-1.035 1.463-2.999 3.25-4.365 4.823-3.686 21.75-20.38 21.75-21.452 0-1.244 6.021-5.635 7.728-5.635.747 0 1.149-.545.893-1.212-.608-1.586 1.312-3.455 3.549-3.455 1.857 0 6.529-5.551 6.055-7.195-.151-.524.15-.691.67-.37 1.131.699 7.231-6.422 6.506-7.595-.278-.449.139-.57.927-.268.826.317 2.328-.59 3.552-2.146 2.683-3.411 2.761-5.316.12-2.926-1.1.995-2 1.599-2 1.342 0-.257 1.445-1.79 3.212-3.405 1.766-1.615 2.586-2.037 1.822-.937-1.662 2.394 2.787-2.112 4.949-5.012 1.477-1.981 1.474-1.981-1-.019-1.366 1.083-.345-.282 2.267-3.034s4.75-5.305 4.75-5.674c0-.369 1.012-1.728 2.25-3.022 4.349-4.545 10.911-12.512 13.472-16.355 2.566-3.851 6.278-7.95 6.278-6.933 0 1.543 4.386-3.534 6.229-7.211 1.642-3.275 2.558-4.125 3.964-3.679 1.425.453 1.961-.081 2.429-2.42.33-1.651 1.675-4.011 2.989-5.245 1.314-1.235 2.389-3.068 2.389-4.074 0-1.006.9-3.508 2-5.561 1.1-2.052 1.964-4.413 1.921-5.246-.053-1.027-.241-1.112-.583-.265-.278.687-.96 1.25-1.516 1.25-1.211 0 3.678-8.864 6.067-11 .923-.825 2.28-2.962 3.016-4.75.736-1.788 1.733-3.306 2.216-3.375a69.401 69.401 0 0 1 2.129-.253c.688-.07 1.258-.809 1.268-1.643.011-.834 1.023-2.52 2.25-3.747 1.228-1.228 2.232-2.73 2.232-3.338 0-.608 1.125-2.442 2.5-4.076 1.375-1.634 2.5-3.542 2.5-4.24 0-.697.958-2.125 2.13-3.173 2.722-2.435 6.488-8.291 10.229-15.905 1.621-3.3 3.892-7.35 5.047-9 1.154-1.65 2.663-3.9 3.353-5 5.409-8.628 8.93-13.931 9.991-15.045.688-.721 1.25-1.794 1.25-2.384 0-.589.414-1.071.921-1.071.506 0 1.208-1.312 1.561-2.916.352-1.605 1.288-3.165 2.079-3.469.791-.304 1.439-1.25 1.439-2.103 0-.852 1.399-4.129 3.11-7.281 6.184-11.397 11.627-22.88 14.33-30.231 1.516-4.125 3.387-8.918 4.158-10.651.771-1.733 1.402-3.781 1.402-4.55 0-.77.39-1.827.867-2.349 1.343-1.472 4.133-10.507 4.133-13.385 0-1.418 1.5-6.401 3.334-11.072 1.834-4.671 3.391-8.943 3.46-9.493.154-1.226 2.929-8.921 4.689-13 .712-1.65 1.62-4.125 2.017-5.5.397-1.375 1.312-3.85 2.033-5.5 1.252-2.867 3.724-11.014 5.614-18.5 1.226-4.859 2.777-17.009 3.356-26.291.267-4.285 1.242-13.51 2.165-20.5 1.953-14.775 2.18-46.579.454-63.709-.609-6.05-1.304-13.25-1.544-16-.987-11.308-1.913-16.917-3.203-19.389-.75-1.436-1.365-4.1-1.369-5.92-.004-2.035-.406-3.062-1.046-2.666-.675.417-.812-.266-.392-1.941.397-1.581.231-2.584-.428-2.584-.593 0-.836-.629-.54-1.399.295-.769.056-1.696-.532-2.059-.587-.363-1.068-2.208-1.068-4.101 0-1.893-.436-3.441-.969-3.441-.532 0-.693-.718-.356-1.595.568-1.48-.908-8.982-4.405-22.405-.789-3.025-1.83-7.703-2.315-10.396-.484-2.693-1.797-5.872-2.918-7.064-1.12-1.193-2.037-3.092-2.037-4.221s-.85-4.25-1.89-6.936c-1.039-2.685-2.457-6.784-3.151-9.107-.694-2.323-2.094-5.117-3.11-6.208-1.017-1.092-1.849-2.678-1.849-3.526 0-.848-.36-1.542-.799-1.542-.44 0-1.369-1.575-2.065-3.5s-1.686-3.5-2.201-3.5c-.514 0-.935-.761-.935-1.69 0-1.653-5.883-14.321-7.11-15.31-.341-.275-.941-1.527-1.333-2.782-.392-1.255-1.751-3.444-3.021-4.864-4.364-4.88-5.536-6.355-5.536-6.972 0-.34-1.237-2.128-2.75-3.973a1319.103 1319.103 0 0 1-7.25-8.969c-5.075-6.331-10.929-13.021-19-21.711-5.206-5.605-20.407-16.729-22.861-16.729-.627 0-1.139-.645-1.139-1.433s-.922-1.725-2.048-2.082c-1.127-.358-5.514-3.255-9.75-6.437-8.279-6.221-15.308-10.101-22.922-12.654-2.629-.881-5.455-2.183-6.28-2.892-1.658-1.425-26.184-13.502-27.42-13.502-1.517 0-17.58-8.224-17.58-9.001 0-.435-2.256-2.238-5.013-4.008-2.758-1.769-5.345-3.786-5.75-4.481-.781-1.34-13.018-7.73-17.237-9.001-1.375-.414-7-2.904-12.5-5.533-16.804-8.032-45.879-19.01-51.879-19.588-2.198-.212-6.31-1.25-9.137-2.308-2.827-1.058-9.155-2.868-14.062-4.023-4.907-1.155-11.622-2.981-14.922-4.058-7.548-2.462-19.622-5.05-25.5-5.465-2.475-.175-10.8-1.232-18.5-2.349-22.208-3.222-36.073-4.206-65.5-4.65-15.125-.228-31.1-.617-35.5-.865-4.4-.247-26-.112-48 .3m414.426 132.78c.629 1.238 1.579 2.25 2.109 2.25.531 0 .884.338.785.75-.44 1.83 3.871 8.088 8.08 11.731 2.53 2.189 3.655 2.864 2.5 1.5-1.155-1.365-3.528-4.602-5.273-7.194-3.859-5.733-9.916-12.407-8.201-9.037m25.2 26.75c.756 1.1 1.609 2.225 1.897 2.5 1.437 1.373 4.072 6.238 3.623 6.687-.282.283-2.644-1.669-5.249-4.337-5.122-5.247-4.354-3.97 2.799 4.65 4.669 5.626 17.881 25.921 19.187 29.472.577 1.57.899 1.69 1.58.588 1.152-1.863 3.319.286 5.463 5.416 1.955 4.68 1.966 5.524.074 5.524-.825 0-1.5-.75-1.5-1.667 0-.916-.286-1.381-.635-1.032-.569.57.223 3.304 2.666 9.199.455 1.1 2.271 5.724 4.035 10.276 1.764 4.551 3.596 8.515 4.071 8.809.475.293.863 1.602.863 2.909 0 1.307.525 3.643 1.166 5.191.642 1.548 1.228 3.04 1.304 3.315 2.439 8.895 6.344 19.248 8.199 21.737 2.609 3.5 6.204 17.671 6.409 25.263.067 2.475.473 5.625.903 7 1.199 3.84-.016-11.654-1.452-18.5-3.837-18.296-4.772-22.459-6.085-27.088-.794-2.798-1.449-6.173-1.455-7.5-.006-1.327-2.031-6.459-4.5-11.405s-4.489-9.736-4.489-10.645c0-1.983-4.014-11.871-11.325-27.894-1.388-3.043-4.583-8.873-7.099-12.954-2.517-4.082-4.579-7.893-4.583-8.468-.004-.575-3.885-5.096-8.624-10.046-4.739-4.95-7.998-8.1-7.243-7m21.581 60.821c-.354.923-.208 1.679.324 1.679.533 0 .969 1.125.969 2.5s.401 2.5.892 2.5c.49 0 1.2 1.238 1.577 2.75 1.017 4.077 6.531 12.146 6.531 9.556 0-1.12-.816-3.109-1.814-4.421-.998-1.312-2.489-3.96-3.314-5.885-4.353-10.157-4.502-10.407-5.165-8.679m12.308 1.429c.028 1.369 1.867 3.702 2.454 3.114.788-.788-.467-3.864-1.576-3.864-.491 0-.886.338-.878.75m-9.348 18.917c-1.277 1.276-.672 3.272.819 2.7 1.559-.598 4.011 4.02 3.002 5.652-.289.469.607 1.985 1.993 3.371 3.252 3.252 3.178 2.666-.702-5.561-3.174-6.73-3.795-7.479-5.112-6.162m-379.057 8.059c-.125.124-13.252.476-29.169.782-55.637 1.07-58.915 1.213-68.441 2.98-5.225.969-9.95 2.087-10.5 2.484-.55.396-4.825 1.747-9.5 3.002a1468.788 1468.788 0 0 0-15 4.115c-3.575 1.008-7.85 2.135-9.5 2.504-6.495 1.452-28.791 9.478-31.32 11.274-1.474 1.047-4.255 2.57-6.18 3.385-1.925.814-7.325 3.877-12 6.806-4.675 2.929-10.525 6.395-13 7.702-6.532 3.451-8.229 4.507-10.825 6.74-3.891 3.347-18.877 18.806-21.327 22-1.266 1.65-2.797 3.45-3.403 4-.606.55-2.554 3.328-4.329 6.173-1.774 2.845-3.871 5.709-4.66 6.363-.789.655-1.186 1.592-.883 2.082.302.49-.316 2.576-1.375 4.636-2.662 5.18-3.922 9.504-5.317 18.246-1.445 9.056-6.576 20.361-14.002 30.848-7.754 10.952-10.404 39.343-5.847 62.652 1.528 7.818 6.941 24.827 9.069 28.5.478.825 1.523 2.952 2.323 4.727.8 1.774 2.269 4.107 3.265 5.183.996 1.077 2.936 4.109 4.311 6.738 7.231 13.827 20.601 34.337 25.002 38.352.904.825 4.086 4.401 7.071 7.946 2.985 3.545 7.79 8.674 10.677 11.397 2.887 2.723 5.25 5.56 5.25 6.304a1.36 1.36 0 0 0 1.358 1.353c.746 0 4.684 3.429 8.75 7.62 10.222 10.537 26.682 25.17 30.892 27.463 1.925 1.049 6.742 4.271 10.704 7.162 3.963 2.89 10.938 7.905 15.5 11.145 4.563 3.239 9.677 7.289 11.364 9 1.688 1.71 4.965 4.235 7.282 5.61 2.318 1.375 6.468 4.14 9.223 6.145 2.754 2.005 6.227 4.1 7.717 4.656 11.985 4.466 16.895 6.593 18.951 8.21 2.414 1.899 4.93 1.712 6.76-.502.551-.666 3.589-2.671 6.75-4.456 3.162-1.784 5.749-3.568 5.749-3.965 0-.396 2.7-2.011 6-3.588s6-3.167 6-3.532c0-.365 1.861-1.504 4.137-2.53 2.275-1.025 5.312-3.041 6.75-4.478 1.542-1.542 5.569-3.511 9.823-4.803 3.965-1.205 7.565-2.797 8-3.538.434-.741 2.14-2.049 3.79-2.906 1.65-.856 4.689-3.167 6.752-5.135 2.064-1.968 4.194-3.578 4.733-3.578.968 0 2.982-1.668 11.47-9.5 2.385-2.2 6.716-6.025 9.626-8.5 2.91-2.475 6.692-5.85 8.404-7.5 1.712-1.65 4.775-4.125 6.807-5.5s3.697-2.837 3.701-3.25c.004-.413.585-.75 1.292-.75.706 0 3.947-2.363 7.202-5.25 7.019-6.227 23.503-22.977 23.509-23.887.002-.351 3.042-3.141 6.754-6.2 11.493-9.472 32.025-30.233 36.257-36.663 3.663-5.564 10.168-11.997 14.283-14.123 2.121-1.096 4.255-3.151 4.847-4.668 4.173-10.698 8.856-17.813 18.57-28.209 1.799-1.925 5.63-6.988 8.513-11.25 3.159-4.669 5.932-7.75 6.976-7.75.954 0 2.199-.87 2.769-1.934 1.38-2.579 1.309-3.066-.446-3.066-1.179 0-1.366-.968-.917-4.75.31-2.613.944-5.875 1.41-7.25 1.869-5.522 4.37-44.633 2.892-45.251-1.095-.458-1.917-9.749-.862-9.749.552 0 .258-1.139-.654-2.531-.913-1.392-1.377-2.813-1.032-3.158.345-.345.16-1.189-.41-1.876-.571-.688-1.422-3.429-1.892-6.092-1.187-6.724-4.99-19.646-6.119-20.793-.514-.522-.935-1.751-.935-2.731 0-.979-1.575-4.242-3.5-7.252-1.925-3.009-3.5-5.704-3.5-5.988 0-.284-1.998-3.605-4.439-7.379-4.252-6.572-15.357-17.239-20.286-19.485-1.251-.57-2.275-1.414-2.275-1.876 0-.461-.578-.839-1.284-.839-1.296 0-14.906-9.047-17.474-11.615-.762-.762-1.771-1.385-2.242-1.385-.471 0-1.452-.582-2.179-1.293-1.301-1.273-28.522-14.917-36.321-18.205-6.227-2.625-12.46-4.295-19-5.09-5.413-.658-36.337-1.233-36.89-.686m390.079 6.642c-.965 2.515.303 7.398 1.408 5.422.45-.803.472-2.755.049-4.337-.637-2.383-.888-2.569-1.457-1.085m2.906 13.882c.704 3.114-.91 3.756-2.515 1-1.974-3.39-1.189.77 4.765 25.25.401 1.65 1.238 3 1.859 3 1.995 0 2.617 1.408 1.316 2.976-1.049 1.263-.975 1.524.431 1.524 1.094 0 1.56.621 1.313 1.75-.211.962-.919 1.638-1.573 1.5-.707-.148-1.159.868-1.112 2.5.043 1.513.306 2.188.583 1.5.278-.687 1.184-1.25 2.014-1.25 1.215 0 1.415-1.022 1.024-5.25-.677-7.335-2.836-15.042-4.586-16.368-1.051-.798-1.528-3.411-1.661-9.101-.103-4.39-.703-8.837-1.333-9.882-.997-1.649-1.066-1.537-.525.851m-2.256 24.75c.348 1.375.64 3.063.647 3.75.008.688.433 1.25.944 1.25.567 0 .579-1.224.031-3.136-1.08-3.767-2.526-5.428-1.622-1.864m9.074 17.765c-1.104.747-.135 27.846 1.038 29.019.302.302.549-.201.549-1.117 0-2.444 1.669-2.033 2.37.583.887 3.311.758 7.75-.225 7.75-.471 0-1.358-1.462-1.973-3.25-.984-2.862-1.049-2.533-.549 2.75.381 4.02 1.188 6.582 2.445 7.763 1.832 1.721 1.868 1.419 1.51-12.5-.202-7.844-.662-16.738-1.023-19.763-1.488-12.501-1.644-12.923-4.142-11.235m15.587 6.568c0 3-.364 3.667-2 3.667-2.623 0-2.647.756-.972 30.984.678 12.224.533 22.603-.557 40.162-.946 15.214-1.137 24.514-.535 26.016l.937 2.338.17-2.5c.093-1.375.27-3.175.392-4 .123-.825.3-3.637.394-6.25.168-4.654 2.156-6.928 2.186-2.5.013 1.819.201 1.963.985.75 1.615-2.498 1.23-8-.559-8-.857 0-1.276-.457-.931-1.016.346-.559.991-.792 1.434-.518.443.273 1.11-1.399 1.48-3.718.422-2.64.282-4.346-.375-4.565-.577-.192-1.049-1.239-1.049-2.325 0-1.087.45-1.698 1-1.358.62.383 1.064-1.777 1.167-5.691.093-3.47.264-8.777.382-11.793.117-3.017-.155-6.392-.605-7.5-.449-1.109-.846-1.427-.881-.707-.084 1.748-2.063.466-2.063-1.337 0-.881.6-1.179 1.599-.796 1.434.551 1.544-.824 1.064-13.281-.633-16.458-1.545-28.611-2.195-29.261-.258-.257-.468 1.183-.468 3.199M1089 367c0 1.1.45 2 1 2s1-.9 1-2-.45-2-1-2-1 .9-1 2m11.574 91.667c-.352.917-.175 2.132.393 2.7.711.711 1.033.19 1.033-1.667 0-3.085-.499-3.447-1.426-1.033M641 1014.397c0 .882-.418 1.603-.929 1.603-.51 0-1.531.603-2.268 1.34-.737.737-4.257 2.625-7.822 4.196-3.564 1.57-7.554 3.667-8.866 4.66-1.312.992-2.999 1.804-3.75 1.804-.751 0-1.365.45-1.365 1s-.788 1.001-1.75 1.001c-.962.001-3.057 1.126-4.656 2.5-1.598 1.375-3.573 2.499-4.39 2.499-1.78 0-10.563 4.182-11.039 5.256-.185.416-.747.502-1.25.191s-.915-.088-.915.494-.468 1.059-1.04 1.059c-2.231 0-6.713 4.229-6.272 5.917.336 1.283-.583 2.058-3.634 3.065-4.087 1.349-10.85 6.785-18.374 14.768-2.203 2.338-4.832 4.25-5.843 4.25-1.01 0-1.837.446-1.837.991 0 1.531-5.933 6.924-11.75 10.68-2.888 1.865-5.25 3.717-5.25 4.116 0 .398-1.307 1.303-2.904 2.01-1.597.707-4.536 2.825-6.53 4.706-1.994 1.881-4.963 4.209-6.596 5.174-1.634.965-2.97 2.302-2.97 2.971 0 .67-.788 1.474-1.75 1.788-1.422.464-9.06 6.953-13.75 11.681-.55.554-3.468 3.343-6.485 6.196-10.865 10.275-21.873 22.224-22.847 24.8-.182.482-2.663 3.304-5.513 6.27-2.85 2.966-7.151 9.156-9.557 13.755-7.919 15.133-9.118 17.308-12.49 22.653-1.835 2.91-4.186 5.911-5.223 6.669s-1.886 1.753-1.887 2.209c0 .457-.959 2.181-2.129 3.831-2.811 3.963-10.369 19.809-10.369 21.739 0 .834-.723 3.247-1.607 5.362-.913 2.185-1.844 8.16-2.157 13.839-.513 9.318-.777 10.308-3.89 14.641-6.942 9.664-6.945 9.686-6.186 54.919.387 23.111.796 29.445 2.158 33.5.925 2.75 1.86 5.9 2.079 7 .846 4.241 1.856 6.383 3.265 6.924.806.309 1.193 1.002.86 1.541-.696 1.126 1.372 4.614 6.543 11.035 1.993 2.475 4.184 6.075 4.868 8 .685 1.925 1.906 4.738 2.714 6.252.807 1.514 1.226 3.145.929 3.624-.296.48.578 2.077 1.943 3.55 1.364 1.472 2.486 2.991 2.492 3.376.011.755 7.178 8.384 11.085 11.8 1.322 1.156 4.204 2.703 6.404 3.436 2.2.734 5.661 2.601 7.691 4.148 2.031 1.548 4.136 2.814 4.679 2.814.543 0 1.582.586 2.309 1.302 1.413 1.393 9.918 5.698 11.256 5.698.442 0 3.562 1.683 6.934 3.739 3.372 2.057 6.356 3.765 6.631 3.797 1.535.178 10.868 5.567 11.16 6.443.191.573 1.47 1.251 2.843 1.508 2.339.437 5.944 1.775 13.781 5.114 1.806.769 4.073 1.399 5.038 1.399.966 0 3.409.843 5.431 1.874 6.075 3.097 7.572 3.346 25.247 4.201 34.877 1.688 56.036 1.314 60.486-1.068 1.036-.554 2.742-1.007 3.793-1.007 2.439 0 10.438-2.785 21.113-7.352 4.616-1.974 8.779-3.351 9.25-3.06.472.292.858.127.858-.366 0-1.022 19.246-10.018 22.924-10.715 1.333-.252 6.283-2.656 11-5.341a1038.187 1038.187 0 0 1 16.576-9.204c4.4-2.377 10.025-5.848 12.5-7.715 5.696-4.295 26.367-23.262 26.9-24.682.22-.586.693-1.29 1.052-1.565.358-.275 3.267-3.763 6.462-7.75 3.196-3.987 6.098-7.259 6.449-7.269 1.025-.032 12.158-13.511 15.538-18.814 1.705-2.674 5.598-8.643 8.653-13.264 3.054-4.622 6.286-10.653 7.182-13.403.896-2.75 3.459-9.832 5.696-15.737 2.238-5.905 4.068-11.861 4.068-13.235 0-1.374 1.539-7.117 3.421-12.763 4.385-13.16 6.653-22.001 7.234-28.206.255-2.717.689-5.307.966-5.755.277-.447 1.409-6.324 2.515-13.059 2.249-13.681 3.401-43.83 1.945-50.873-2.117-10.243-6.297-18.918-13.829-28.699-10.989-14.271-13.181-17.357-17.762-25.009-2.744-4.584-8.155-11.795-12.024-16.023-3.869-4.228-7.694-8.577-8.5-9.664-1.801-2.429-18.91-17.351-31.505-27.477-10.449-8.401-13.634-10.654-31.461-22.25-6.875-4.472-13.491-9.17-14.702-10.44-1.211-1.271-2.829-2.31-3.595-2.31s-2.25-.958-3.298-2.13c-1.048-1.171-3.48-3.148-5.405-4.392-1.925-1.245-4.4-3.102-5.5-4.128-3.043-2.839-7.251-5.35-8.965-5.35-.844 0-1.535-.45-1.535-1s-.723-1-1.607-1c-.91 0-1.39-.565-1.107-1.304.826-2.151-5.924-6-11.351-6.472-4.039-.351-4.935-.138-4.935 1.173m393.48 3.103c.411 1.1.991 2.9 1.289 4 .298 1.1 1.147 2.888 1.886 3.973 1.292 1.894 1.345 1.873 1.345-.556 0-1.391-1.185-4.078-2.634-5.973-1.449-1.894-2.298-2.544-1.886-1.444m-34.03 9.533c-.035 2.883.316 3.887 1.235 3.534 1.95-.748 3.462 3.007 2.897 7.197-.278 2.055-.264 2.949.03 1.986.652-2.136 3.388-2.337 3.388-.25 0 .825-.45 1.5-1 1.5s-1 .408-1 .906c0 .499.788.702 1.75.452 1.314-.341 2.046.492 2.936 3.344.688 2.203.799 3.936.265 4.126-.506.181-.045 1.981 1.025 4 1.07 2.02 3.349 8.325 5.063 14.011 3.34 11.081 4.876 13.453 2.343 3.619-.844-3.277-1.977-8.208-2.518-10.958-1.371-6.981-3.67-14.116-6.474-20.096-1.315-2.804-2.39-5.536-2.39-6.072 0-.537-1.337-2.743-2.972-4.904-1.635-2.16-2.985-4.49-3-5.178-.015-.687-.365-1.249-.778-1.247-.413.002-.772 1.815-.8 4.03m41.211 8.217c.335 1.787 1.278 4.825 2.094 6.75.816 1.925 1.867 4.85 2.335 6.5.602 2.12.692 1.305.305-2.782-.301-3.18-1.185-7.005-1.965-8.5s-1.42-3.28-1.424-3.968c-.003-.687-.445-1.25-.981-1.25-.559 0-.714 1.388-.364 3.25m-23.661 4.977c0 .91.45 1.933 1 2.273.55.34 1 1.915 1 3.5s.518 3.202 1.152 3.594c1.773 1.096.334-7.537-1.575-9.446-1.436-1.435-1.577-1.428-1.577.079m-812.682 7.023c-2.045 2.757-3.106 6.474-2.24 7.842.729 1.152.894 1.104.907-.259.008-.916.394-1.816.856-2 .808-.319 2.481-6.833 1.756-6.833-.193 0-.769.563-1.279 1.25m34.406 6.5a589.62 589.62 0 0 1-3.024 5.75c-5.01 9.382-10.482 25.254-11.119 32.251-.238 2.612-.658 5.649-.932 6.749-2.475 9.916-3.672 15.81-3.289 16.193.251.252.698-.364.992-1.368 1.336-4.554 5.808-21.56 6.184-23.51.229-1.192.765-2.426 1.191-2.742 1.229-.911 3.53-5.35 2.416-4.661-1.792 1.107-2.065-.955-.659-4.978.914-2.617 1.936-3.882 3.052-3.777 1.226.114 1.38-.141.571-.95-1.583-1.583-1.368-4.707.323-4.707.787 0 1.62.787 1.852 1.75.232.963.239.155.016-1.795-.416-3.646 1.575-10.44 2.405-8.205 1.044 2.813 1.993.942 1.898-3.744-.055-2.746-.181-4.996-.278-5-.097-.003-.817 1.231-1.599 2.744M199 1062.991c0 1.159-.657 3.378-1.459 4.93-.802 1.551-1.678 5.916-1.945 9.7-.268 3.783-.254 5.754.03 4.379.285-1.375 1.353-4.975 2.375-8 2.446-7.241 3.159-11.783 1.966-12.52-.532-.329-.967.351-.967 1.511m23.552 6.946c-.496.791-1.457 3.829-2.137 6.75-1.043 4.489-1.016 5.313.175 5.313.966 0 1.41-1.197 1.41-3.8 0-2.09.492-4.292 1.094-4.894.601-.601.928-1.929.726-2.95-.302-1.526-.527-1.6-1.268-.419M694.638 1662.5c-.316.825-1.789 1.5-3.273 1.5-1.484 0-2.427.271-2.096.603 1.203 1.203 10.731-.748 10.731-2.197 0-1.901-4.627-1.82-5.362.094" fill-rule="evenodd"/></svg>