<svg xmlns="http://www.w3.org/2000/svg" width="1240" height="1753"><path d="M574.5 48.106c-6.598 1.151-17.949 2.984-18.73 3.024-.402.021-3.552.711-7 1.534-3.449.822-8.745 1.872-11.77 2.332-3.025.461-10.445 1.584-16.49 2.497-6.044.913-11.478 2.065-12.074 2.56-.655.544-1.517.466-2.181-.198-1.32-1.32-13.552.537-14.086 2.139-.185.553-1.648 1.006-3.252 1.006-1.604 0-2.917.498-2.917 1.107s-.725.829-1.612.489c-1.501-.577-17.542 1.758-20.879 3.039-.824.316-1.249.977-.944 1.47.304.492-.789.895-2.43.895C455.294 70 447 72.245 447 73.555c0 1.526-1.487 2.029-14 4.738-3.575.774-8.901 2.346-11.835 3.493-2.934 1.147-5.926 1.859-6.649 1.582-.722-.277-1.599-.043-1.947.52-.348.564-1.294.771-2.101.461-.807-.309-1.468-.095-1.468.477 0 1.256-2.517 2.111-9.354 3.177-7.979 1.245-9.452 1.723-12.917 4.19-1.776 1.264-3.229 2.113-3.229 1.885 0-.227-1.913-.108-4.25.266-2.337.374-4.25 1.151-4.25 1.727 0 .576-.441.775-.979.442-.539-.333-1.827-.152-2.862.402-1.035.554-3.407 1.211-5.271 1.46-4.437.593-16.757 4.282-18.233 5.459-.635.507-2.28 1.25-3.655 1.651-1.375.402-4.975 1.961-8 3.465-3.025 1.504-6.726 3.036-8.224 3.405-1.498.368-4.364 1.783-6.369 3.143-2.004 1.361-4.036 2.231-4.514 1.936-.941-.581-4.223.768-15.893 6.532-8.913 4.403-16.921 8.828-19 10.499-.825.663-2.963 1.784-4.75 2.492-1.788.707-3.25 1.657-3.25 2.112 0 .454-2.32 1.991-5.155 3.415-2.835 1.424-7.222 4.274-9.75 6.334-2.527 2.06-7.197 5.709-10.377 8.11-3.181 2.401-6.106 4.862-6.5 5.469-.395.606-3.282 3.255-6.416 5.886-8.281 6.951-11.863 10.222-21.592 19.717-4.791 4.675-9.921 9.374-11.4 10.442-1.48 1.069-2.466 2.306-2.191 2.75.274.445.092.808-.404.808-1.182 0-10.266 9.017-17.215 17.088-3.025 3.514-7.1 7.969-9.055 9.9-1.955 1.932-5.17 5.537-7.144 8.012-1.975 2.475-5.663 6.645-8.196 9.268-2.533 2.622-4.605 4.969-4.605 5.215 0 .392-1.601 2.222-7.528 8.601-.81.871-1.472 1.903-1.472 2.294 0 .39-1.149 1.927-2.552 3.416-1.404 1.488-6.645 8.106-11.646 14.706-5.001 6.6-9.365 12.225-9.697 12.5-1.363 1.127-4.871 6.689-5.532 8.769-.389 1.227-1.041 2.231-1.449 2.231-.408 0-1.84 2.47-3.183 5.49-1.343 3.019-2.801 5.494-3.242 5.5-.441.005-1.466 1.472-2.278 3.26-.812 1.788-2.586 5.05-3.943 7.25-1.357 2.2-3.425 6.137-4.595 8.75-1.171 2.613-2.55 4.75-3.065 4.75-.515 0-.687.403-.383.895.305.493-.076 1.137-.846 1.433-.77.295-1.704 1.917-2.074 3.604-.371 1.688-.982 3.068-1.358 3.068-1.125 0-7.823 15.007-11.675 26.156-2.51 7.267-4.555 12.186-7.626 18.344-1.098 2.2-2.095 4.675-2.216 5.5-.121.825-1.479 4.2-3.017 7.5-3.674 7.885-8.776 23.443-8.065 24.594.308.498.136.906-.382.906-.519 0-1.272 1.013-1.675 2.25-.403 1.238-.831 2.475-.953 2.75-1.043 2.362-1.941 5.461-5.505 19-2.244 8.525-4.592 17.525-5.217 20-.625 2.475-1.556 5.044-2.069 5.709-.514.665-1.751 6.965-2.751 14-1.95 13.728-2.115 14.684-5.109 29.63-1.805 9.011-1.975 14.194-2.016 61.5-.044 51.839.551 63.879 3.697 74.756.811 2.802 1.698 6.843 1.971 8.98.692 5.403 1.867 9.526 8.086 28.374 2.986 9.046 5.605 17.821 5.821 19.5.216 1.678 2.731 8.901 5.588 16.051 2.856 7.15 5.966 15.025 6.908 17.5a337.769 337.769 0 0 0 3.611 9c1.043 2.475 1.783 4.867 1.645 5.315-.138.448.658 2.093 1.77 3.655 1.112 1.561 2.022 3.337 2.022 3.945 0 1.426 14.207 31.074 17.747 37.036 1.485 2.502 2.712 4.903 2.727 5.335.014.433.627 1.158 1.361 1.612.735.454 1.297 1.113 1.25 1.464-.293 2.191.073 3.657 1.201 4.817 3.201 3.29 7.756 10.592 7.416 11.889-.206.787-.207 1.16-.003.828.204-.332 5.192 4.312 11.086 10.322 25.964 26.474 30.243 30.643 37.753 36.782 4.374 3.575 10.429 8.896 13.457 11.824 3.028 2.928 8.43 7.384 12.005 9.904 3.575 2.519 7.517 5.494 8.761 6.61 2.278 2.047 4.308 3.347 14.928 9.564 3.196 1.872 8.363 5.584 11.482 8.25 3.119 2.667 6.01 4.848 6.424 4.848.413 0 7.311 4.329 15.328 9.62 21.857 14.424 24.285 16.106 27.919 19.334 1.838 1.633 4.286 3.269 5.442 3.636 1.155.367 5.051 2.492 8.658 4.722 3.607 2.231 12.183 6.914 19.058 10.407 6.875 3.493 18.109 9.26 24.963 12.816 6.855 3.556 12.986 6.465 13.623 6.465 2.376 0 17.211 6.873 24.914 11.542 2.307 1.399 5.574 2.432 7.72 2.442 3.678.016 10.335 2.972 12.29 5.457.555.706 5.732 2.898 11.504 4.87 5.772 1.972 12.292 4.347 14.49 5.278 2.198.931 5.263 1.849 6.812 2.04 1.55.191 8.75 1.978 16 3.971 7.251 1.993 14.864 4.024 16.917 4.513 2.052.489 5.427 1.544 7.5 2.345 5.376 2.077 30.747 8.185 37.267 8.973 3.025.366 6.85 1.1 8.5 1.632 5.007 1.615 44.687 5.121 67 5.92 18.535.664 43.029 2.611 44.537 3.541.295.182 13.57.627 29.5.988 29.002.659 44.294 1.57 56.463 3.364 10.314 1.52 32.458 2.557 59.5 2.785 13.75.116 30.175.436 36.5.71 6.325.275 20.449.75 31.387 1.055 12.486.349 20.392.976 21.245 1.684 1.353 1.123 25.621.774 50.238-.722l10.369-.63-.571 7.371c-.314 4.054-1.04 14.796-1.613 23.871-.574 9.075-1.52 21.45-2.104 27.5-.584 6.05-1.388 18.2-1.788 27-.401 8.8-1.075 16.559-1.5 17.242-.424.684-1.216 4.001-1.759 7.371-.542 3.371-1.804 7.762-2.804 9.758-.999 1.996-2.614 6.329-3.589 9.629-2.326 7.871-3.824 12.325-7.398 22-6.181 16.729-8.018 21.289-12.483 31-2.529 5.5-4.605 10.499-4.614 11.109-.009.61-1.541 4.435-3.404 8.5-1.864 4.065-3.723 8.957-4.131 10.872-.647 3.038-3.807 9.684-8.56 18.007-.782 1.368-2.218 3.088-3.192 3.821-.974.734-3.449 3.968-5.5 7.187-2.051 3.219-5.754 7.382-8.229 9.251-4.452 3.362-6.333 4.429-19 10.779-3.575 1.792-7.175 3.814-8 4.493-.825.679-4.995 2.901-9.268 4.936-7.027 3.349-14.927 8.386-40.671 25.933-4.641 3.163-13.068 7.996-18.726 10.738-5.658 2.743-10.513 5.352-10.789 5.799-.276.447-2.199 1.088-4.274 1.424-2.075.337-5.347 1.456-7.272 2.487-4.916 2.632-17.803 6.662-29 9.067-5.225 1.122-15.125 3.396-22 5.054-10.627 2.561-14.598 3.029-26.5 3.119-8.549.064-15.168-.349-17-1.062-1.65-.642-7.372-1.405-12.716-1.696-8.197-.446-9.976-.269-11.379 1.134-.915.915-2.242 1.441-2.95 1.169-.708-.272-4.335-.062-8.06.465-4.705.667-9.112.601-14.434-.213-7.366-1.128-7.746-1.088-9.878 1.044-1.501 1.501-2.599 1.909-3.4 1.263-.651-.525-3.208-1.27-5.683-1.656-2.475-.387-6.075-1.719-8-2.96-1.925-1.241-5.3-2.88-7.5-3.641-2.2-.761-5.35-2.166-7-3.121-1.65-.956-4.839-2.63-7.086-3.72-2.248-1.091-4.693-2.713-5.434-3.606-.74-.892-2.963-2.447-4.938-3.455-3.821-1.949-9.408-6.735-19.389-16.608-3.384-3.348-8.355-7.736-11.047-9.75-2.691-2.015-4.568-3.663-4.171-3.663.398 0-1-1.742-3.106-3.872-5.087-5.143-7.329-7.939-7.329-9.139a.997.997 0 0 0-1-.989c-.55 0-1-.466-1-1.036 0-.569-.916-2.032-2.036-3.25-2.72-2.958-6.388-8.682-8.576-13.382-.981-2.108-2.168-4.098-2.639-4.424-.47-.325-1.036-2.022-1.257-3.771-.221-1.748-3.572-9.613-7.447-17.477-3.875-7.864-7.045-15.103-7.045-16.086 0-1.133-.52-1.589-1.419-1.243-1.555.596-4.039-3.994-7.52-13.898-1.122-3.191-2.534-6.107-3.139-6.481-.606-.374-.994-1.754-.863-3.066.131-1.312.015-3.061-.258-3.886-.272-.825-1.557-4.875-2.855-9s-2.659-7.725-3.024-8c-.365-.275-.912-2.075-1.216-4-1.503-9.53-6.291-26.397-8.025-28.272-.65-.701-1.336-1.94-1.526-2.752-.189-.812-.563-2.376-.83-3.476s-.524-2.562-.572-3.25c-.047-.687-.461-1.25-.92-1.25-.458 0-.833-.689-.833-1.531 0-.843-.6-1.762-1.333-2.043-.734-.282-1.334-1.159-1.334-1.951 0-1.248-2.377-6.782-5.501-12.806-1.609-3.101-8.832-21.993-8.832-23.098 0-1.704-5.256-11.571-6.164-11.571-.46 0-.836-.48-.836-1.067 0-1.105-3.746-6.397-7.867-11.115-2.207-2.527-5.011-3.646-11.133-4.444-5.144-.67-10.465 3.36-12.049 9.126-.409 1.489-1.241 1.918-3.25 1.678-1.486-.176-2.701.119-2.701.657s-.91.74-2.022.449c-2.478-.648-6.941 3.789-7.057 7.018-.043 1.209-.306 1.636-.583.948-.755-1.871-7.989-1.603-8.728.324-.538 1.401-.77 1.409-2.107.072-.827-.827-1.503-2.21-1.503-3.075 0-.864-.675-1.571-1.5-1.571s-1.5-.4-1.5-.889c0-2.879-13.556-2.105-16.848.962-1.668 1.554-2.06 1.609-2.54.358-.4-1.043-1.388-1.297-3.34-.862-4.647 1.037-9.272 3.451-9.272 4.839 0 1.043-.926 1.103-4.485.288-3.366-.77-5.487-.695-8.5.299-2.208.729-4.015 1.625-4.015 1.992s-1.277.479-2.839.25c-1.63-.239-3.443.188-4.258 1.003-1.602 1.602-7.155 2.891-14.047 3.262-2.554.137-5.142.557-5.75.933-.608.375-1.106.206-1.106-.376s-.9-1.059-2-1.059-2 .466-2 1.035c0 .661-.633.711-1.75.139-.963-.493-3.926-1.181-6.585-1.528-4.101-.535-5.542-.226-9.5 2.041-5.476 3.136-7.776 5.29-8.446 7.911-.421 1.644-.503 1.664-.603.152-.095-1.437-1.085-1.75-5.543-1.75-4.673 0-5.716.367-7.5 2.635-1.14 1.449-2.073 2.122-2.073 1.494 0-1.553-15.949 9.049-15.977 10.621-.013.688-.366 1.25-.786 1.25-.419 0-1.207 1.01-1.75 2.244-.543 1.234-1.887 2.356-2.987 2.492l-2 .247 2-.921c1.164-.536 1.419-.951.61-.992-.764-.038-1.913-.786-2.553-1.661-1.033-1.412-2.141-1.105-9.911 2.749-7.419 3.679-8.664 4.643-8.187 6.34.889 3.161.88 25.145-.01 26.585-.471.762-.316 1.461.374 1.691.647.216 1.177.993 1.177 1.726s.413 1.483.918 1.667c.504.183.692 1.493.416 2.91-.37 1.901-1.069 2.53-2.667 2.398-1.192-.098-2.685.011-3.317.242-1.289.471-1.587 7.234-.386 8.783.426.55.999 3.104 1.274 5.675.28 2.62 1.442 5.874 2.643 7.401 1.179 1.499 2.42 4.457 2.759 6.574.457 2.855 1.093 3.85 2.463 3.85 1.57 0 1.701-.385.872-2.565-1.255-3.301-1.239-3.435.408-3.435 1.503 0 2.352 2.617 3.489 10.75.811 5.803-.268 7.285-1.299 1.785-.804-4.282-2.198-5.305-3.136-2.3-.389 1.246-1.118 2.53-1.622 2.855-1.153.744-1.208 2.678-.323 11.41.391 3.85 1.304 8.35 2.03 10 .725 1.65 1.61 4.013 1.966 5.25.356 1.237 1.066 2.25 1.579 2.25.513 0 .933 1.07.933 2.378 0 1.307.631 2.901 1.402 3.541.771.639 1.686 2.382 2.034 3.872 1.024 4.386 2.741 8.209 3.685 8.209 1.12 0 1.158-5.709.043-6.399-.46-.284-.895-2.673-.967-5.309l-.13-4.792 2.356 7c3.504 10.406 4.928 17.849 4.304 22.499-.445 3.315-.272 4.04.858 3.607 1.028-.395 1.415.285 1.415 2.484 0 2.02.381 2.792 1.145 2.32.79-.488.988.113.639 1.941-.279 1.457-.093 2.649.414 2.649.506 0 .676.394.378.877-.298.482.204 3.294 1.116 6.25.912 2.955 1.564 6.081 1.45 6.945-.114.865.479 2.89 1.319 4.5.84 1.611 1.549 3.603 1.575 4.428.027.825 1.126 4.638 2.443 8.474 1.464 4.264 2.047 7.393 1.5 8.052-1.324 1.595.014 5.691 1.652 5.062.753-.289 1.369-.089 1.369.443 0 .533-.45.969-1 .969-1.237 0-1.33 6.246-.113 7.55.488.522 1.633 4.1 2.544 7.95 1.813 7.656 6.257 21.981 7.675 24.736.492.955.894 2.358.894 3.117 0 1.229 1.712 5.964 5.477 15.147.676 1.65 2.269 5.7 3.54 9 1.27 3.3 2.644 6.45 3.052 7 .408.55 2.765 5.571 5.238 11.157 2.473 5.587 6.341 13.315 8.595 17.175 2.254 3.859 4.098 7.45 4.098 7.98 0 1.628 26.924 40.802 33.722 49.064 1.528 1.856 8.516 9.231 15.528 16.387 7.013 7.157 12.75 13.312 12.75 13.679 0 .366 3.038 2.982 6.75 5.812 3.712 2.831 9.453 7.756 12.756 10.946 3.303 3.19 8.426 7.825 11.384 10.3 2.958 2.475 6.136 5.175 7.063 6 .927.825 3.229 2.605 5.116 3.955 1.887 1.351 3.881 2.829 4.431 3.285.55.456 4.551 3.106 8.891 5.887 4.341 2.782 8.391 5.48 9 5.997.61.516 2.645 2.267 4.521 3.891 1.877 1.624 4.24 3.216 5.25 3.537 1.011.32 1.838 1.04 1.838 1.599 0 .558.561.829 1.246.6.686-.228 2.632.972 4.326 2.667 8.027 8.036 14.959 13.057 19.178 13.89 4.07.804 4.07.441 0-2.303-1.787-1.206-2.35-1.864-1.25-1.463s2.9.78 4 .843c1.1.063 2.583.666 3.295 1.339.712.673 3.088 1.706 5.28 2.296 2.192.59 3.768 1.425 3.502 1.855-.636 1.03 13.634 9.125 16.087 9.125 1.047 0 4.348 1.575 7.336 3.5 2.988 1.925 6.135 3.5 6.994 3.5.858 0 2.59.721 3.848 1.602 1.258.881 2.546 1.343 2.863 1.026.701-.701 6.295 2.487 6.295 3.588 0 .431.62.784 1.378.784.757 0 1.976.722 2.708 1.604.733.882 2.371 2 3.641 2.482 4.113 1.564 11.188 7.34 12.497 10.203.702 1.534 2.309 3.051 3.573 3.37 2.816.713 3.866-.155 2.369-1.959-.828-.997-.813-1.653.058-2.524 1.687-1.687 2.353-1.503 5.687 1.574 1.638 1.513 3.723 3.371 4.632 4.131 1.348 1.126 1.404 1.538.305 2.234-1.06.672-.994.858.307.87.911.008 3.453 1.517 5.65 3.352 2.197 1.836 5.277 3.807 6.845 4.381 3.793 1.39 18.203 4.669 21.35 4.859 1.375.083 3.682.629 5.126 1.215 1.444.585 4.594 1.573 7 2.195 2.406.621 5.848 1.806 7.65 2.631 7.983 3.657 17.156 4.718 40.724 4.714 18.244-.004 41.053-.668 49-1.428.55-.052 7.975.169 16.5.492 8.525.324 17.75.167 20.5-.348s7.595-1.445 10.766-2.067c3.171-.622 10.399-1.264 16.063-1.427 8.178-.235 11.315-.765 15.235-2.575 2.715-1.254 5.724-2.184 6.686-2.067.962.118 1.75-.172 1.75-.643 0-.84 4.516-1.894 18.5-4.317 3.85-.667 7.45-1.544 8-1.949.55-.405 4.15-1.756 8-3.001 3.85-1.246 8.125-2.864 9.5-3.597 4.545-2.421 21.382-9.173 28.5-11.429 3.85-1.22 10.375-3.551 14.5-5.18 4.125-1.63 8.063-3 8.75-3.046.688-.046 1.25-.485 1.25-.976 0-.49.45-.614 1-.274.55.34 1 .115 1-.5s.45-.84 1-.5c.55.34 1 .141 1-.441s.365-.946.81-.809c1.263.39 14.19-5.437 14.19-6.396 0-.47.404-.854.897-.854.494 0 6.98-2.925 14.415-6.5 7.435-3.575 14.006-6.5 14.603-6.5.597 0 1.085-.401 1.085-.892 0-.49 1.096-1.166 2.435-1.502 2.968-.745 4.666-1.788 29.136-17.895 10.686-7.035 19.429-13.222 19.429-13.75 0-.529.493-.961 1.095-.961 1.073 0 7.626-5.732 12.949-11.327 2.718-2.857 14.743-11.814 27.285-20.324 5.627-3.819 7.259-5.575 9.279-9.991 1.348-2.947 2.819-5.358 3.268-5.358.827 0 4.248-2.605 7.272-5.537.906-.878 3.789-2.242 6.406-3.029 2.618-.788 7.236-3.343 10.262-5.678 10.498-8.099 43.184-41.628 43.184-44.298 0-.285 1.575-1.902 3.5-3.592 1.925-1.69 3.5-3.452 3.5-3.914 0-.462 1.559-2.542 3.464-4.622 1.905-2.079 4.257-5.254 5.227-7.055.97-1.801 2.111-3.275 2.536-3.275.425 0 .773-.675.773-1.5s.374-1.5.831-1.5c.457 0 1.447-1.237 2.199-2.75.753-1.513 2.336-4.1 3.519-5.75 3.067-4.279 10.142-16.942 10.996-19.683.397-1.274 2.012-3.957 3.589-5.961 1.576-2.004 2.866-3.936 2.866-4.293 0-.357 1.748-2.992 3.885-5.856 2.137-2.864 4.218-6.332 4.623-7.707.405-1.375 1.089-2.95 1.52-3.5 2.787-3.559 19.972-38.216 19.972-40.278 0-.488 1.357-5.112 3.017-10.274 1.659-5.162 2.92-10.821 2.801-12.575-.118-1.755.244-3.794.804-4.532.56-.737 1.616-3.239 2.347-5.558.731-2.319 1.637-4.027 2.012-3.795.715.442 5.059-11.966 5.033-14.378-.014-1.364 2.83-10.721 7.479-24.61 1.288-3.85 3.096-9.7 4.016-13 .92-3.3 2.099-6.9 2.621-8 2.117-4.461 3.586-6.451 4.264-5.773 1.238 1.239 2.575-2.063 2.591-6.401.018-5.052 1.765-13.677 3.641-17.977.755-1.733 1.374-3.855 1.374-4.715 0-.86 1.145-3.614 2.545-6.121 1.4-2.507 2.273-4.998 1.941-5.536-.332-.537-.196-.977.303-.977 1.771 0 4.369-8.066 8.212-25.5 1.886-8.555 6.9-33.191 7.479-36.75.515-3.164.999-3.75 3.097-3.75 1.367 0 2.738.658 3.047 1.462.946 2.466 4.249 2.788 8.908.869 5.16-2.125 6.875-5.337 7.929-14.849.365-3.29 1.337-10.819 2.161-16.731.823-5.913 1.238-11.169.921-11.682-.317-.512-.594-3.325-.617-6.25-.022-2.926-.503-9.819-1.068-15.319-1.649-16.039-1.75-17.325-2.474-31.5-1.046-20.469-.536-43.711 1.188-54.146 2.61-15.795 3.069-20.101 2.89-27.104-.096-3.712.152-6.75.551-6.75.398 0 .746-2.475.773-5.5.036-3.964-.326-5.5-1.295-5.5-.739 0-1.518.788-1.729 1.75-.212.962-.233-.95-.047-4.25.375-6.625 1.986-15.351 2.17-11.75.063 1.237.505 2.25.982 2.25 1.241 0 5.133-9.774 5.133-12.89 0-1.443.421-4.092.936-5.887 1.743-6.078 1.573-13.826-.992-45.223-.697-8.531-.899-19.234-.49-26 .585-9.665 2.324-48.707 2.785-62.5.14-4.2-.881-17.883-1.716-23-.61-3.736-1.901-27.109-1.684-30.5.088-1.375.355-11.275.593-22 .239-10.725.788-25.125 1.22-32 1.01-16.074 1.031-51.045.036-62-.424-4.675-.921-12.389-1.104-17.142-.182-4.753-.61-9.09-.949-9.639-.339-.549-.868-3.86-1.176-7.359-.801-9.111-2.31-18.583-3.881-24.36-1.518-5.581-2.742-13.709-3.086-20.5-.277-5.467-3.274-24.915-4.16-27-.351-.825-.527-4.328-.392-7.784.183-4.689-.211-6.973-1.555-9-.991-1.494-1.675-3.729-1.522-4.966.154-1.237-.09-2.251-.541-2.251-.452-.001-.947-3.714-1.1-8.25-.273-8.096-1.671-14.749-3.099-14.749-.753 0-3.11-10.18-3.14-13.56-.01-1.067-1.091-2.958-2.404-4.202-1.537-1.458-2.201-2.968-1.866-4.25.29-1.107.026-1.988-.596-1.988-.615 0-1.12-1.462-1.123-3.25-.007-4.371-1.847-10.75-3.1-10.75-.557 0-.728-.459-.382-1.02.347-.56.059-2.698-.639-4.75-.698-2.051-1.159-4.478-1.023-5.391.135-.914-.206-1.941-.758-2.282-.553-.342-.773-1.224-.491-1.96.283-.736-.114-1.58-.882-1.874-.915-.352-1.46-2.365-1.583-5.851-.179-5.044-1.903-12.793-3.087-13.872-1.316-1.199-3.049-5.133-3.049-6.921 0-1.072-.522-3.216-1.161-4.764-1.372-3.328-4.648-14.749-5.256-18.324-.235-1.381-1.177-4.531-2.093-7-.916-2.47-1.654-5.279-1.64-6.241.014-.963-.396-1.75-.912-1.75s-.938-1.125-.938-2.5-.436-2.5-.969-2.5c-.532 0-.709-.675-.393-1.5.317-.825.146-1.5-.379-1.5s-1.693-2.286-2.596-5.08c-.902-2.794-2.482-6.281-3.511-7.75-1.029-1.468-2.657-5.145-3.619-8.17-.961-3.025-3.05-8.314-4.64-11.753-1.591-3.439-2.903-6.589-2.915-7-.012-.411-.902-1.872-1.978-3.247-1.076-1.375-1.966-3.071-1.978-3.77-.012-.698-1.078-2.948-2.368-5-1.291-2.051-2.901-5.417-3.578-7.48-.677-2.062-1.799-3.75-2.493-3.75s-1.764-1.102-2.378-2.449c-.997-2.189-3.794-6.638-8.205-13.051-.825-1.2-2.69-3.94-4.144-6.09-1.454-2.151-4.546-5.71-6.869-7.91-2.324-2.2-4.979-5.205-5.901-6.677-1.462-2.335-6.983-8.63-20.086-22.899-1.925-2.097-4.85-5.487-6.5-7.535-4.595-5.703-21.952-22.902-32-31.707-13.24-11.605-24.563-21.924-26.392-24.055-.885-1.03-2.192-2.38-2.906-3-.714-.62-2.064-1.858-3-2.751-1.65-1.575-8.999-7.815-12.821-10.888-5.59-4.494-14.486-10.962-18.885-13.731-2.752-1.732-5.926-3.961-7.054-4.953-2.48-2.182-5.102-3.905-8.442-5.55-1.375-.677-3.095-1.798-3.821-2.492-.727-.694-1.965-1.262-2.75-1.262-.786 0-1.429-.374-1.429-.831 0-.457-1.237-1.449-2.75-2.204-1.513-.756-3.668-2.172-4.791-3.147-1.122-.975-7.197-4.538-13.5-7.918-6.302-3.38-11.684-6.43-11.959-6.778-1.398-1.77-20.946-10.375-28-12.326-1.925-.532-7.55-2.92-12.5-5.305-10.623-5.121-17.027-7.961-22.793-10.109-5.467-2.037-8.793-3.405-10.943-4.499-.955-.486-3.093-.883-4.75-.883-1.658 0-3.014-.4-3.014-.889 0-.488-1.575-1.184-3.5-1.545s-3.5-1.086-3.5-1.611c0-.525-.914-.955-2.032-.955-1.948 0-12.295-3.111-16.468-4.951-1.1-.485-3.125-1.164-4.5-1.509s-9.475-2.403-18-4.573c-8.525-2.17-16.725-3.951-18.222-3.956-3.598-.014-18.14-3.182-18.778-4.091-.275-.391-3.65-1.037-7.5-1.434-3.85-.398-8.8-1.523-11-2.501-6.011-2.673-11.47-3.973-16.701-3.979-2.586-.003-7.293-.681-10.46-1.506-3.168-.825-8.11-1.5-10.984-1.5-2.874 0-6.492-.5-8.04-1.112-1.548-.611-6.64-1.454-11.315-1.872-8.127-.728-11.69-1.332-27.532-4.667-3.867-.814-11.067-1.4-16-1.302-4.932.099-17.743-.005-28.468-.23-10.725-.225-21.3-.095-23.5.289m398.715 171.867c.696 1.115 1.627 2.027 2.068 2.027 1.035 0 3.29 1.806 6.555 5.25 3.206 3.382 4.763 3.597 2.646.365-2.009-3.065-13.114-10.596-11.269-7.642M188.88 275.75c-3.387 3.734-8.384 11.674-6.72 10.676.737-.442 2.006-1.731 2.82-2.865.814-1.133 2.952-3.691 4.75-5.682 1.799-1.992 3.27-3.904 3.27-4.25 0-1.388-1.758-.483-4.12 2.121m466.535 63.458c-6.553.39-21.365 1.189-32.915 1.776s-24.6 1.504-29 2.038c-16.324 1.98-29.192 3.333-55.5 5.833-5.225.497-11.3 1.366-13.5 1.932-2.2.566-7.825 1.315-12.5 1.665-11.808.883-24.237 3.794-45 10.541a9447.488 9447.488 0 0 1-18.5 5.986c-15.066 4.852-24.529 8.568-35 13.744-10.134 5.009-22.075 12.776-24.611 16.007-1.291 1.645-1.249 1.664.598.27a73.827 73.827 0 0 0 3.939-3.25c1.871-1.678 4.574-2.374 4.574-1.179 0 1.365-12.046 10.429-13.86 10.429-.362 0-1.221.9-1.908 2-.687 1.1-1.903 2-2.702 2-.799 0-3.537 2.025-6.083 4.5-2.547 2.475-5.039 4.5-5.539 4.5-.499 0-.908.599-.908 1.331s-1.075 1.907-2.39 2.61c-1.314.703-2.868 2.33-3.454 3.616-.586 1.285-2.21 3.088-3.61 4.005-1.401.917-2.546 2.028-2.546 2.467 0 1.42-7.411 8.471-8.908 8.475-.798.002-1.761 1.166-2.141 2.586-1.088 4.067-4.047 7.965-5.826 7.675-.94-.153-1.502.315-1.333 1.111.161.757-.627 2.02-1.75 2.807-1.123.787-2.042 2.08-2.042 2.874s-.562 1.45-1.25 1.458c-.973.012-.966.196.034.83 1.655 1.05.596 3.822-1.689 4.42-1.062.278-3.85 4.75-6.992 11.215-7.479 15.389-12.851 31.549-16.295 49.02-.542 2.75-1.391 5.491-1.887 6.091-1.27 1.536-.997 12.142.615 23.909 1.862 13.592 2.305 22.5 1.121 22.5-.621 0-.695 6.764-.205 18.75.421 10.313.919 22.8 1.107 27.75.495 13.03 1.401 20.467 2.941 24.154 1.72 4.117 8.452 13.898 12.377 17.984 1.658 1.725 2.825 3.327 2.593 3.559-.232.231 4.63 6.07 10.804 12.975 15.137 16.93 20.78 23.45 22.59 26.101.836 1.225 1.78 2.452 2.098 2.727.318.275 1.122 1.737 1.787 3.25.664 1.513 1.668 2.75 2.23 2.75.561 0 1.021.533 1.021 1.186 0 .652.963 2.21 2.139 3.462 1.177 1.252 2.639 3.13 3.25 4.172 4.766 8.127 7.94 11.791 17.916 20.68 7.935 7.071 8.488 7.5 9.653 7.5.573 0 1.042.389 1.042.864s2.138 1.642 4.75 2.593c2.613.95 7.125 2.812 10.027 4.136 2.903 1.324 5.767 2.407 6.364 2.407.598 0 2.723.841 4.723 1.869 4.687 2.409 11.573 4.301 16.64 4.572 2.202.118 5.352.943 7 1.834 4.206 2.275 7.74 3.848 9.496 4.225 3.031.651 7.188 2.545 8.526 3.883.757.757 3.085 1.668 5.175 2.026 6.1 1.043 12.299 2.963 12.299 3.809 0 .43 1.298.782 2.883.782 2.02 0 3.037.585 3.395 1.954.426 1.632 1.105 1.858 4.108 1.371 1.978-.321 4.163-.123 4.856.441 1.286 1.047 9.867 2.84 26.758 5.591 5.225.851 12.425 2.044 16 2.651 9.329 1.582 69.044 4.515 86 4.223 2.475-.043 7.2.343 10.5.858 3.3.515 8.475 1.119 11.5 1.343 9.677.717 16 1.8 16 2.74 0 .513 5.38.832 12.25.727 6.737-.102 28.225-.009 47.75.207 19.525.217 42.25.053 50.5-.363s26.475-.986 40.5-1.267c26.106-.523 32.649-1.017 34.63-2.612.621-.5 13.637-.904 28.924-.898 15.287.006 30.139-.265 33.005-.602l5.211-.612.724-6.126c.684-5.794 1.295-17.702 1.96-38.199.373-11.523 1.391-29.74 2.202-39.427 1.032-12.324.968-15.306-.415-19.488-.726-2.193-1.548-9.168-1.826-15.5-.278-6.331-1.219-16.237-2.092-22.012-.873-5.775-1.733-12.806-1.912-15.624-.349-5.482-.35-5.49-3.29-18.376-1.067-4.675-2.261-11.425-2.654-15-.393-3.575-1.125-7.586-1.628-8.913-.502-1.327-1.139-5.127-1.416-8.445-.276-3.318-.909-7.858-1.407-10.088-.498-2.23-.883-5.854-.857-8.054.027-2.2-.632-6.7-1.463-10-1.532-6.086-3.408-17.35-3.496-21-.027-1.1-1.453-7.735-3.171-14.744-1.717-7.01-3.282-14.005-3.477-15.546-.195-1.541-1.003-4.356-1.796-6.256-.792-1.9-2.021-5.929-2.73-8.954-1.442-6.15-6.052-20.385-9.553-29.5-1.268-3.3-4.176-10.95-6.463-17-4.666-12.344-10.335-21.696-12.619-20.82-1.67.641-3.988-1.799-8.602-9.056-1.792-2.818-4.052-5.996-5.023-7.063-.971-1.066-1.766-2.753-1.766-3.75 0-.996-.645-1.811-1.433-1.811s-1.711-.877-2.051-1.949c-.34-1.072-1.472-2.22-2.516-2.551-1.133-.36-1.675-1.183-1.345-2.043.31-.808-.182-1.722-1.119-2.082-.92-.353-4.505-3.394-7.966-6.758-3.462-3.364-8.196-7.827-10.52-9.917-2.586-2.325-4.01-4.362-3.669-5.25.381-.993-.144-1.463-1.662-1.491-2.753-.05-9.185-5.397-8.271-6.875.399-.645-.164-1.084-1.389-1.084-1.132 0-2.062-.562-2.065-1.25-.004-.687-1.375-2.029-3.047-2.98-1.673-.952-2.768-1.29-2.435-.75.333.539.017.973-.703.965-2.101-.025-3.94-1.557-3.612-3.009.179-.794-2.553-2.818-6.697-4.961-3.85-1.991-7.9-4.14-9-4.778-2.722-1.576-24.161-8.936-28.5-9.784-1.925-.376-3.956-1.049-4.513-1.494-.558-.446-3.258-1.359-6-2.029-2.743-.67-5.551-1.66-6.241-2.2-2.365-1.851-18.302-2.034-28.948-.334-10.418 1.665-23.298 1.974-23.298.56 0-1.194-11.29-1.538-24.585-.748m-387.031 51.399c-.43 1.712-.189 2.896.702 3.446 1.845 1.141 2.461.311 1.039-1.402-.638-.769-.879-2.13-.535-3.024.343-.895.359-1.627.036-1.627s-.882 1.173-1.242 2.607m71.208 55.893c-.907 1.384-1.167 2.5-.584 2.5.58 0 1.345-.788 1.7-1.75.356-.962 1.129-2.081 1.719-2.485.748-.512.729-.739-.062-.75-.624-.008-1.872 1.11-2.773 2.485M310 768.491c0 .55 2.643 3.253 5.127 5.243 1.23.986 1.54.972 1.54-.074 0-.72-1.5-2.292-3.334-3.493-1.833-1.202-3.333-1.956-3.333-1.676m12 9.348c0 1.206 1.444 2.331 7.697 5.998 2.858 1.677 4.978 2.511 4.712 1.856-.267-.656-2.175-1.973-4.241-2.927s-4.749-2.659-5.962-3.789c-1.213-1.13-2.206-1.642-2.206-1.138m135.539 31.098c1.131 1.129 12.609 4.249 13.255 3.603.243-.244-.849-.727-2.426-1.075-1.577-.347-4.876-1.274-7.329-2.06-2.454-.785-4.029-.996-3.5-.468m-83.456 2.458c1.182 1.119 9.747 5.434 11.917 6.003 1.856.486 1.598.151-1-1.3-6.113-3.415-12.43-6.136-10.917-4.703M1194.252 960.5c.011 2.2.216 2.982.455 1.738.239-1.244.23-3.044-.02-4s-.446.062-.435 2.262m-1.259 13.691c-.004 1.27-.208 5.459-.452 9.309l-.446 7 .833-5.867c.458-3.227 1.449-6.257 2.202-6.735 1.156-.732 1.157-.87.003-.883-.871-.009-1.177-.739-.844-2.014.288-1.099.115-2.251-.383-2.559-.498-.308-.909.479-.913 1.749m2.007 16.75c0 1.682.173 3.059.383 3.059.849 0 1.288-5.085.483-5.583-.476-.294-.866.842-.866 2.524m-1.84 9.919c-.638 2.129-1.129 4.495-1.09 5.256.038.761.74-.801 1.561-3.472.82-2.67 1.311-5.036 1.09-5.256-.22-.221-.923 1.342-1.561 3.472M413 1017c.825.533 2.4.945 3.5.914l2-.055-2-.859c-1.1-.473-2.675-.884-3.5-.914-1.333-.049-1.333.052 0 .914m-226.287 328.99c-.351 1.341-.314 2.68.083 2.974.396.295 1.58 3.011 2.63 6.036 1.05 3.025 2.195 5.725 2.543 6 1.051.829 4.474 10.408 4.199 11.75-.141.688.241 1.25.847 1.25.607 0 .794.5.416 1.112-.378.611-.152 1.442.501 1.846.654.404 1.274 2.377 1.378 4.384.112 2.149.704 3.651 1.44 3.654.688.002 1.25-.174 1.25-.391 0-1.542-4.615-15.066-6.584-19.293-1.329-2.854-2.416-5.864-2.416-6.691s-.481-1.8-1.068-2.163c-.588-.363-.838-1.261-.556-1.995.281-.733.154-1.475-.282-1.648-.437-.173-1.458-2.328-2.269-4.789-1.334-4.047-1.535-4.242-2.112-2.036m14.718 41.122c-.378.611-.164 1.435.475 1.83s.896 1.411.57 2.259c-.344.896.061 1.791.967 2.139.936.359 1.557 1.807 1.557 3.629 0 1.667.356 3.031.792 3.031.435 0 2.054 2.813 3.597 6.25a889.664 889.664 0 0 0 4.708 10.316c1.047 2.236 1.903 4.748 1.903 5.583s.334 1.851.742 2.259c.407.408.823 3.014.924 5.791.18 5.006 1.323 7.301 3.634 7.301.66 0 1.35 1.062 1.534 2.361.213 1.503-.06 2.118-.75 1.691-.596-.369-1.084-.193-1.084.389 0 .582.406 1.059.902 1.059s1.385 1.384 1.974 3.075c.59 1.691 1.503 2.809 2.029 2.484.526-.326 1.282-.065 1.68.579.452.731.291.903-.43.457-.635-.392-1.155-.236-1.155.346s.603 1.059 1.341 1.059 2.606 2.324 4.153 5.166c2.098 3.856 2.405 5.009 1.209 4.55-1.072-.411-1.433-.176-1.092.714.281.73 1.27 1.27 2.199 1.199 1.224-.093 1.713.699 1.772 2.871.152 5.512.41 6.5 1.696 6.5 1.351 0 2.413 1.111 7.187 7.52 1.63 2.189 4.224 5.33 5.764 6.98 3.992 4.279 7.056 10.973 6.282 13.723-.456 1.618-.365 1.876.316.891.766-1.107 1.605-.704 4.169 2 2.868 3.026 2.978 3.069 1.035.41-1.526-2.089-1.806-3.099-.94-3.388.679-.226 1.833.438 2.565 1.476.731 1.039 2.908 3.688 4.836 5.888 1.928 2.2 4.392 5.125 5.474 6.5 1.6 2.033 1.974 2.173 2.001.75.018-.963-.417-1.75-.967-1.75s-1-.627-1-1.393-.675-1.652-1.5-1.969c-.825-.316-1.5-1.264-1.5-2.107 0-.842-.353-1.531-.784-1.531-.432 0-1.535-1.237-2.452-2.75-2.965-4.89-7.278-9.25-9.151-9.25-1.156 0-1.629-.515-1.289-1.401.304-.793-.192-1.593-1.143-1.843-.925-.242-2.335-1.666-3.135-3.164-1.272-2.381-1.272-2.851 0-3.751 1.195-.846 1.148-.931-.264-.479-2.094.671-3.541-1.275-1.764-2.373.816-.504.984-1.452.469-2.638-.443-1.018-.733-2.189-.646-2.601.088-.412-.291-.75-.841-.75s-1-.474-1-1.054c0-.58-2.869-5.642-6.375-11.25-7.009-11.211-10.853-18.307-11.296-20.855-.159-.913-1.416-3.779-2.794-6.37-1.377-2.591-2.3-5.042-2.05-5.447.25-.404-.544-.564-1.765-.356-2.62.448-5.969-1.516-3.97-2.327 2.057-.835 1.472-3.212-.654-2.656-1.368.358-2.09-.16-2.568-1.844-.832-2.93-4.284-12.058-6.559-17.341-.947-2.2-3.005-7.487-4.572-11.75-2.827-7.689-3.643-8.779-4.966-6.638m23.987 52.02c-.714 1.157 1.236 2.827 3.332 2.853 1.863.023 1.511-1.341-.704-2.724-1.389-.868-2.148-.905-2.628-.129m3.77 7.607c.184.956 1.082 1.882 1.995 2.058 1.238.238 1.523-.204 1.122-1.739-.655-2.506-3.596-2.807-3.117-.319m1.812 5.711c0 .798.563 1.81 1.25 2.25 1.471.941 3.75 4.805 3.75 6.358 0 1.593 2.621 3.942 4.397 3.942 2.023 0 1.168-2.428-2.53-7.191-1.577-2.031-2.867-4.393-2.867-5.25 0-.892-.855-1.559-2-1.559-1.1 0-2 .653-2 1.45m11 29.273c0 1.258 2.858 3.752 3.53 3.08.265-.265-.42-1.299-1.524-2.297-1.103-.999-2.006-1.351-2.006-.783m46.585 21.042c.597.404 1.596 1.635 2.22 2.735.841 1.483 1.142 1.599 1.165.45.034-1.772-1.865-3.957-3.42-3.935-.702.011-.691.259.035.75m-11.527 14.735c.003.55 2.497 3.7 5.543 7 3.046 3.3 7.343 8.25 9.549 11 2.206 2.75 7.186 8.285 11.066 12.3l7.054 7.3-2.177 2.028c-1.521 1.417-1.977 2.662-1.512 4.127.828 2.609 5.419 7.679 5.419 5.985 0-.682-.477-1.24-1.059-1.24s-.805-.412-.494-.915c.311-.503.172-1.065-.309-1.25-.48-.184-1.209-1.413-1.62-2.731-.659-2.118-.489-2.33 1.467-1.818 2.018.528 2.161.299 1.63-2.604-.646-3.532.557-6.312 2.273-5.251.612.378 1.112.21 1.112-.372s-.788-1.111-1.75-1.174c-.962-.064-2.2-.22-2.75-.348-.55-.128-1.784-.301-2.742-.385-.959-.083-2.984-1.574-4.5-3.312a210.354 210.354 0 0 0-5.758-6.272c-1.65-1.712-4.632-5.128-6.627-7.59-5.807-7.169-13.82-15.566-13.815-14.478m38.977 18.559c-.019.857.626 2.432 1.433 3.5 1.88 2.486 1.902.713.032-2.559-.916-1.602-1.442-1.94-1.465-.941m665.927 33.9c-2.243 1.918-2.912 2.974-1.899 3 .86.023 2.856-1.309 4.437-2.959 3.7-3.862 1.966-3.89-2.538-.041" fill-rule="evenodd"/></svg>