<svg xmlns="http://www.w3.org/2000/svg" width="1240" height="1753"><path d="M164.775 504.134c-.948.998-2.973 2.114-4.5 2.478-1.526.365-3.375 1.138-4.108 1.718-.734.579-2.238 1.12-3.342 1.201-1.105.082-2.46.783-3.011 1.559-.781 1.098-.871 1.005-.408-.424.391-1.204.167-1.692-.655-1.421-.688.226-1.395 1.389-1.571 2.583-.175 1.195-.758 2.172-1.295 2.172-.537 0-2.193 1.225-3.68 2.723-1.488 1.498-3.81 2.876-5.161 3.062-3.587.494-19.233 7.112-21.395 9.05-1.549 1.388-1.747 2.556-1.214 7.162.768 6.626 1.034 7.975 2.026 10.266.445 1.029.249 2.381-.472 3.25-.907 1.094-.925 1.487-.068 1.487.642 0 1.034.788.873 1.75-.179 1.064.25 1.634 1.094 1.454 1.084-.231 1.238.538.705 3.5-.376 2.088-.956 7.328-1.288 11.644-.472 6.137-.299 8.042.795 8.735 1.126.713 1.061.889-.334.902-1.571.014-1.692 1.121-1.288 11.85.245 6.509.953 13.146 1.573 14.75.62 1.603 1.327 4.49 1.57 6.415.243 1.925.835 4.939 1.316 6.698.524 1.92.502 3.322-.055 3.508-.511.17-1.081 1.881-1.267 3.802-.187 1.92-.675 4.28-1.084 5.242-.543 1.276-.28 1.75.97 1.75 1.319 0 1.574.564 1.104 2.439-.337 1.341-.161 2.718.391 3.059 1.336.825 1.286 9.107-.071 11.642-3.104 5.801-2.925 41.113.241 47.509.612 1.236.779 3.995.394 6.5-.923 6.003-.973 15.289-.118 21.851.762 5.846 2.578 12 3.54 12 .319 0 .712 3.248.874 7.218.163 3.969.473 7.505.691 7.857.217.352.021 1.946-.437 3.542-.458 1.596-.449 3.938.02 5.205.475 1.285.46 4.046-.034 6.247-.519 2.31-.516 4.172.009 4.496 1.452.897 1.025 4.162-.781 5.968-1.349 1.349-1.446 2.042-.5 3.558 1.377 2.204 1.557 4.263.306 3.489-.478-.295-.839.987-.801 2.85.037 1.863-.506 4.078-1.207 4.923-.702.845-1.128 2.574-.949 3.842.291 2.048.79 2.269 4.476 1.979l4.149-.326.76 4.326c.417 2.379.66 6.136.539 8.349-.535 9.783 3.178 12.124 20.735 13.076 30.49 1.652 59.839.789 79.168-2.327 3.096-.499 11.62-.528 19.5-.066 18.983 1.112 67.181.974 79.22-.228 22.341-2.231 25.156-2.326 26.871-.902 1.683 1.397 15.446 1.637 17.598.307.982-.607 17.549-.551 22.811.078 2.604.311 32.699 1.731 44 2.077 11.764.359 38.315 2.41 48.593 3.752 6.15.804 18.261 1.241 31 1.12 11.499-.11 30.582-.297 42.407-.416 11.825-.118 27.125.062 34 .402s24.686.827 39.58 1.082c14.894.255 32.894 1.125 40 1.934 19.756 2.25 40.404 2.856 56.42 1.656 7.975-.598 22.15-1.531 31.5-2.073 9.35-.543 21.05-1.433 26-1.978 14.627-1.61 17.412-1.844 30-2.517 6.6-.354 14.475-1.359 17.5-2.235 5.741-1.663 18.855-1.984 54.5-1.335 9.35.17 28.489.252 42.53.182 31.759-.16 47.27 1.002 64.97 4.865 2.475.54 7.875 1.231 12 1.536 4.125.305 12 1.413 17.5 2.463 18.512 3.532 41.971 3.539 65 .016 3.3-.504 8.925-1.134 12.5-1.399 10.023-.744 12.836-1.61 15.495-4.769 2.729-3.244 5.505-11.488 5.505-16.352 0-1.741.729-4.626 1.62-6.412 1.279-2.565 1.472-4.752.915-10.404-.388-3.936-1.175-7.722-1.749-8.414-.574-.692-.814-3.301-.532-5.799.508-4.512.498-4.529-1.543-2.742-2.251 1.971-1.592.18 1.079-2.932 1.058-1.233 1.185-2.097.441-3-.63-.767-.942-5.971-.785-13.141.142-6.529-.289-14.629-.959-18-.669-3.37-1.303-8.349-1.408-11.064-.105-2.714-.417-5.302-.694-5.75-.277-.448-.139-.814.306-.814.445.001.656-5.637.469-12.527-.187-6.89.226-16.453.919-21.25 1.567-10.847 2.038-26.658.922-30.973-.532-2.058-.473-3.25.159-3.25.583 0 .732-1.213.358-2.916-.477-2.176-.204-3.16 1.078-3.878 1.283-.718 1.763-2.449 1.895-6.834.097-3.229.945-8.347 1.884-11.372 2.67-8.598 2.754-9.093 2.786-16.307.025-5.683-.399-7.454-2.566-10.729-3.617-5.466-3.211-9.408.584-5.658.726.718 2.087 1.596 3.023 1.95 2.357.892 4.795-4.261 4.807-10.16.008-3.948-.436-4.962-3.146-7.19-2.621-2.154-3.293-3.593-3.966-8.5-.446-3.248-.56-9.056-.253-12.906.412-5.165.166-7.74-.938-9.824-.875-1.653-1.772-2.379-2.16-1.75-1.122 1.815-2.154 1.218-4.083-2.365-1.019-1.891-2.214-3.215-2.657-2.941-.444.274-.806-.919-.806-2.651 0-1.952-.771-3.779-2.029-4.809-1.117-.913-2.241-2.845-2.499-4.292-.257-1.448-1.141-3.923-1.964-5.5-.823-1.578-1.498-3.629-1.502-4.559-.007-2.034-1.678-3.293-2.218-1.672-.272.814-1.389.681-3.836-.458-1.898-.884-6.152-2.01-9.452-2.501-6.375-.95-19.466-.465-20.793.77-1.068.994-53.759.213-65.707-.974-5.225-.518-13.1-1.583-17.5-2.367-4.841-.861-19.016-1.669-35.896-2.046-15.342-.343-28.167-.786-28.5-.986-.332-.2-4.992-.662-10.354-1.027-9.391-.64-9.75-.589-9.75 1.394 0 1.765.625 2.058 4.393 2.058 4.029 0 5.607 1.048 5.607 3.724 0 .309-2.736.275-6.079-.074-3.44-.36-6.882-.206-7.929.354-1.29.691-3.696.518-7.945-.571-3.352-.858-6.872-1.52-7.821-1.47-.949.051-4.552.051-8.005.001-4.726-.068-7.111.423-9.641 1.986-4.761 2.943-28.84 4.061-35.456 1.647-2.406-.878-6.006-1.604-8-1.612-2.454-.011-3.179-.297-2.246-.889.758-.48 1.054-1.397.657-2.039-.495-.802-4.365-1.099-12.378-.95-6.411.12-14.741-.322-18.511-.981-4.912-.858-7.223-.892-8.153-.12-.826.685-1.425.717-1.646.089-.191-.544-4.172-1.25-8.847-1.569-4.675-.319-15.925-1.176-25-1.906-22.146-1.78-44.509-.86-69 2.84-1.375.208-5.65.861-9.5 1.451-21.213 3.253-48.228 4.77-79.732 4.476-10.853-.102-21.428.2-23.5.67-2.307.523-3.897.484-4.101-.101-.443-1.27-7.493-1.23-8.773.05-.627.627-2.679.698-5.45.187-2.444-.451-6.469-.687-8.944-.524-2.475.162-6.525.295-9 .296-4.601.003-52.084-4.154-71-6.215-6.268-.682-23.6-1.045-43-.899-31.638.237-77.499-.899-115-2.85-10.175-.529-23.45-1.202-29.5-1.495-14.006-.677-22.284-1.268-35.936-2.562-6.015-.57-25.59-.944-43.5-.831-29.999.19-32.7.35-34.289 2.021M893 508.853c0 1.004 6.583 2.366 12.249 2.535 5.576.166 4.537-1.018-1.499-1.709-2.888-.33-6.487-.852-8-1.159-1.513-.308-2.75-.158-2.75.333m33.541 44.213c.721 1.167 4.16 1.227 4.866.085.288-.467-.818-.887-2.459-.933-1.641-.047-2.724.335-2.407.848m-757.765 25.667c2.352.212 5.952.209 8-.006s.124-.388-4.276-.384c-4.4.003-6.076.179-3.724.39m53.909.015c9.453.164 25.203.165 35 .001 9.798-.164 2.065-.298-17.185-.299-19.25 0-27.267.134-17.815.298m269.077 82.959c1.244.239 3.044.23 4-.02s-.062-.446-2.262-.435c-2.2.011-2.982.216-1.738.455M164.775 917.134c-.948.998-2.973 2.114-4.5 2.478-1.526.365-3.375 1.138-4.108 1.718-.734.579-2.238 1.12-3.342 1.201-1.105.082-2.46.783-3.011 1.559-.781 1.098-.871 1.005-.408-.424.391-1.204.167-1.692-.655-1.421-.688.226-1.395 1.389-1.571 2.583-.175 1.195-.758 2.172-1.295 2.172-.537 0-2.193 1.225-3.68 2.723-1.488 1.498-3.81 2.876-5.161 3.062-3.587.494-19.233 7.112-21.395 9.05-1.549 1.388-1.747 2.556-1.214 7.162.768 6.626 1.034 7.975 2.026 10.266.445 1.029.249 2.381-.472 3.25-.907 1.094-.925 1.487-.068 1.487.642 0 1.034.788.873 1.75-.179 1.064.25 1.634 1.094 1.454 1.084-.231 1.238.538.705 3.5-.376 2.088-.956 7.328-1.288 11.644-.472 6.137-.299 8.042.795 8.735 1.126.713 1.061.889-.334.902-1.571.014-1.692 1.121-1.288 11.85.245 6.509.953 13.146 1.573 14.75.62 1.603 1.327 4.49 1.57 6.415.243 1.925.835 4.939 1.316 6.698.524 1.92.502 3.322-.055 3.508-.511.17-1.081 1.881-1.267 3.802-.187 1.92-.675 4.279-1.084 5.242-.543 1.276-.28 1.75.97 1.75 1.319 0 1.574.564 1.104 2.439-.337 1.341-.161 2.718.391 3.059 1.336.825 1.286 9.107-.071 11.642-3.104 5.801-2.925 41.113.241 47.509.612 1.236.779 3.995.394 6.5-.923 6.003-.973 15.289-.118 21.851.762 5.846 2.578 12 3.54 12 .319 0 .712 3.248.874 7.218.163 3.969.473 7.505.691 7.857.217.352.021 1.946-.437 3.542-.458 1.596-.449 3.938.02 5.205.475 1.285.46 4.046-.034 6.247-.519 2.31-.516 4.172.009 4.496 1.452.897 1.025 4.162-.781 5.968-1.349 1.349-1.446 2.042-.5 3.558 1.377 2.204 1.557 4.263.306 3.489-.478-.295-.839.987-.801 2.85.037 1.863-.506 4.078-1.207 4.923-.702.845-1.128 2.574-.949 3.842.291 2.048.79 2.269 4.476 1.979l4.149-.326.76 4.326c.417 2.379.66 6.136.539 8.349-.535 9.783 3.178 12.124 20.735 13.076 30.49 1.652 59.839.789 79.168-2.327 3.096-.499 11.62-.528 19.5-.066 18.983 1.112 67.181.974 79.22-.228 22.341-2.231 25.156-2.326 26.871-.902 1.683 1.397 15.446 1.637 17.598.307.982-.607 17.549-.551 22.811.078 2.604.311 32.699 1.731 44 2.077 11.764.359 38.315 2.41 48.593 3.752 6.15.804 18.261 1.241 31 1.12 11.499-.11 30.582-.297 42.407-.416 11.825-.118 27.125.062 34 .402s24.686.827 39.58 1.082c14.894.255 32.894 1.125 40 1.934 19.756 2.25 40.404 2.856 56.42 1.656 7.975-.598 22.15-1.531 31.5-2.073 9.35-.543 21.05-1.433 26-1.978 14.627-1.61 17.412-1.844 30-2.517 6.6-.354 14.475-1.359 17.5-2.235 5.741-1.663 18.855-1.984 54.5-1.335 9.35.17 28.489.252 42.53.182 31.759-.16 47.27 1.002 64.97 4.865 2.475.54 7.875 1.231 12 1.536 4.125.305 12 1.413 17.5 2.463 18.512 3.532 41.971 3.539 65 .016 3.3-.504 8.925-1.134 12.5-1.399 10.023-.744 12.836-1.61 15.495-4.769 2.729-3.244 5.505-11.488 5.505-16.352 0-1.741.729-4.626 1.62-6.412 1.279-2.565 1.472-4.752.915-10.404-.388-3.936-1.175-7.722-1.749-8.414-.574-.692-.814-3.301-.532-5.799.508-4.512.498-4.529-1.543-2.742-2.251 1.971-1.592.18 1.079-2.932 1.058-1.233 1.185-2.097.441-3-.63-.767-.942-5.971-.785-13.141.142-6.529-.289-14.629-.959-18-.669-3.37-1.303-8.349-1.408-11.064-.105-2.714-.417-5.302-.694-5.75-.277-.448-.139-.814.306-.814.445.001.656-5.637.469-12.527-.187-6.89.226-16.453.919-21.25 1.567-10.847 2.038-26.658.922-30.973-.532-2.058-.473-3.25.159-3.25.583 0 .732-1.213.358-2.916-.477-2.176-.204-3.16 1.078-3.878 1.283-.718 1.763-2.449 1.895-6.834.097-3.229.945-8.347 1.884-11.372 2.67-8.598 2.754-9.093 2.786-16.307.025-5.683-.399-7.454-2.566-10.729-3.617-5.466-3.211-9.408.584-5.658.726.718 2.087 1.596 3.023 1.95 2.357.892 4.795-4.261 4.807-10.16.008-3.948-.436-4.962-3.146-7.19-2.621-2.154-3.293-3.593-3.966-8.5-.446-3.248-.56-9.056-.253-12.906.412-5.165.166-7.74-.938-9.824-.875-1.653-1.772-2.379-2.16-1.75-1.122 1.815-2.154 1.218-4.083-2.365-1.019-1.891-2.214-3.215-2.657-2.941-.444.274-.806-.919-.806-2.651 0-1.952-.771-3.779-2.029-4.809-1.117-.913-2.241-2.845-2.499-4.292-.257-1.448-1.141-3.923-1.964-5.5-.823-1.578-1.498-3.629-1.502-4.559-.007-2.034-1.678-3.293-2.218-1.672-.272.814-1.389.681-3.836-.458-1.898-.884-6.152-2.01-9.452-2.501-6.375-.95-19.466-.465-20.793.77-1.068.994-53.759.213-65.707-.974-5.225-.518-13.1-1.583-17.5-2.367-4.841-.861-19.016-1.669-35.896-2.046-15.342-.343-28.167-.786-28.5-.986-.332-.2-4.992-.662-10.354-1.027-9.391-.64-9.75-.589-9.75 1.394 0 1.765.625 2.058 4.393 2.058 4.029 0 5.607 1.048 5.607 3.724 0 .309-2.736.275-6.079-.074-3.44-.36-6.882-.206-7.929.354-1.29.691-3.696.518-7.945-.571-3.352-.858-6.872-1.52-7.821-1.47-.949.051-4.552.051-8.005.001-4.726-.068-7.111.423-9.641 1.986-4.761 2.943-28.84 4.061-35.456 1.647-2.406-.878-6.006-1.604-8-1.612-2.454-.011-3.179-.297-2.246-.889.758-.48 1.054-1.397.657-2.039-.495-.802-4.365-1.099-12.378-.95-6.411.12-14.741-.322-18.511-.981-4.912-.858-7.223-.892-8.153-.12-.826.685-1.425.717-1.646.089-.191-.544-4.172-1.25-8.847-1.569-4.675-.319-15.925-1.176-25-1.906-22.146-1.78-44.509-.86-69 2.84-1.375.208-5.65.861-9.5 1.451-21.213 3.253-48.228 4.77-79.732 4.476-10.853-.102-21.428.2-23.5.67-2.307.523-3.897.484-4.101-.101-.443-1.27-7.493-1.23-8.773.05-.627.627-2.679.698-5.45.187-2.444-.451-6.469-.687-8.944-.524-2.475.162-6.525.295-9 .296-4.601.003-52.084-4.154-71-6.215-6.268-.682-23.6-1.045-43-.899-31.638.237-77.499-.899-115-2.85-10.175-.529-23.45-1.202-29.5-1.495-14.006-.677-22.284-1.268-35.936-2.562-6.015-.57-25.59-.944-43.5-.831-29.999.19-32.7.35-34.289 2.021M893 921.853c0 1.004 6.583 2.366 12.249 2.535 5.576.166 4.537-1.018-1.499-1.709-2.888-.33-6.487-.852-8-1.159-1.513-.308-2.75-.158-2.75.333m33.541 44.213c.721 1.167 4.16 1.227 4.866.085.288-.467-.818-.887-2.459-.933-1.641-.047-2.724.335-2.407.848m-757.765 25.667c2.352.212 5.952.209 8-.006s.124-.388-4.276-.384c-4.4.003-6.076.179-3.724.39m53.909.015c9.453.164 25.203.165 35 .001 9.798-.164 2.065-.298-17.185-.299-19.25 0-27.267.134-17.815.298m269.077 82.959c1.244.239 3.044.23 4-.02s-.062-.446-2.262-.435c-2.2.011-2.982.216-1.738.455" fill-rule="evenodd"/></svg>