<svg xmlns="http://www.w3.org/2000/svg" width="1240" height="1753"><path d="M597.916 204.417c-.302.302-12.578.754-27.28 1.004-16.464.28-28.09.904-30.272 1.624-1.949.643-4.785.921-6.303.617-1.518-.303-5.415.114-8.66.928-6.03 1.512-11.286 2.448-24.224 4.316-4.028.582-8.978 1.514-11 2.072-2.022.558-7.71 1.952-12.64 3.097-4.93 1.146-9.845 2.555-10.922 3.131-1.078.577-5.144 1.826-9.037 2.776-9.189 2.242-19.681 5.706-26.578 8.776-3.025 1.346-8.2 3.033-11.5 3.749-5.522 1.198-37.264 13.502-43.831 16.989-1.557.827-3.288 1.504-3.846 1.504-.558 0-4.334 1.575-8.391 3.5-4.056 1.925-7.654 3.5-7.996 3.5-.341 0-1.757.894-3.146 1.986-1.389 1.093-2.992 1.698-3.562 1.346-.588-.363-.738-.158-.347.475.416.673-1.011 1.974-3.596 3.277-4.111 2.073-17.494 12.181-19.02 14.364-.404.579-.741.704-.75.279-.019-.988-4.829 2.096-7.774 4.985-1.243 1.219-4.01 2.687-6.148 3.263-2.139.576-6.072 2.04-8.741 3.253-2.669 1.213-5.907 2.31-7.197 2.436-1.29.127-3.412.929-4.715 1.783-1.303.854-3.105 1.553-4.004 1.553-2.611 0-13.614 6.96-17.436 11.029-1.925 2.049-5.75 5.406-8.5 7.46-2.75 2.054-7.925 6.499-11.5 9.878-3.575 3.378-9.875 9.003-14 12.498-4.125 3.496-10.004 8.894-13.065 11.995a799.292 799.292 0 0 1-11 10.895c-2.989 2.89-6.457 6.265-7.706 7.5L190.334 385C180.825 394.398 159 419.099 159 420.464c0 .295-.787 1.379-1.75 2.409-2.948 3.157-6.712 8.322-7.449 10.222-.384.991-1.416 2.613-2.293 3.604-3.915 4.422-10.339 13.064-11.763 15.822-.858 1.661-2.633 4.136-3.946 5.5-3.178 3.302-8.822 10.568-11.299 14.549-1.1 1.767-4.029 6.299-6.509 10.071-2.481 3.773-5.057 7.759-5.725 8.859-10.814 17.803-15.588 25.441-20.428 32.685-3.191 4.777-6.567 10.627-7.502 13-.935 2.373-3.122 6.2-4.862 8.504-1.739 2.305-4.156 6.917-5.372 10.25-1.215 3.334-2.635 6.061-3.156 6.061-.52 0-.946.497-.946 1.105s-1.337 3.086-2.971 5.507c-1.634 2.422-4.142 7.437-5.572 11.145-1.431 3.709-3.003 7.643-3.494 8.743-1.138 2.55-4.077 11.057-8.638 25-1.979 6.05-3.95 11.9-4.38 13-.43 1.1-1.519 5.15-2.421 9-.901 3.85-2.062 8.382-2.581 10.071-.519 1.689-.943 3.962-.943 5.05 0 1.088-.377 2.406-.839 2.929-2.239 2.537-3.396 16.817-3.763 46.45-.214 17.325-.854 36.625-1.421 42.89-.567 6.264-.838 11.583-.601 11.819 1.317 1.317 4.466-2.491 4.931-5.964.981-7.307 2.81-6.376 3.486 1.775.252 3.034.851 5.76 1.332 6.057.481.298.875 1.414.875 2.482 0 1.068.45 1.941 1 1.941s1 .93 1 2.066c0 2.688 1.861 6.138 2.949 5.465.467-.288 1.17 2.679 1.563 6.593.466 4.639.35 7.343-.333 7.765-.576.356-2.171 5.59-3.543 11.629-1.373 6.04-3.814 13.907-5.424 17.482-2.122 4.712-3.271 9.477-4.177 17.323-1.249 10.813-1.248 10.827 1.203 14.272l2.453 3.448-1.857 10.728c-1.021 5.901-1.923 12.15-2.004 13.887-.092 1.983-.589 2.988-1.334 2.702-.681-.261-1.89 1.383-2.834 3.854-1.399 3.663-1.475 5.285-.507 10.798.626 3.569 1.698 7.388 2.381 8.488.871 1.401 1.02 3.797.496 8-.41 3.3-.441 8.362-.068 11.25.372 2.888.361 5.25-.027 5.25-.387 0-.933.877-1.213 1.949-.615 2.351 1.741 31.558 3.205 39.73 1.877 10.483 1.875 36.926-.004 44.821-1.42 5.968-1.467 7.391-.321 9.65.807 1.592 1.525 7.474 1.798 14.729.249 6.642.729 12.525 1.067 13.071.338.546-.081 2.055-.931 3.351-1.314 2.007-1.405 4.077-.605 13.889.517 6.342 1.624 14.181 2.46 17.421.835 3.239 1.765 8.451 2.066 11.582.301 3.13.996 6.872 1.544 8.315.548 1.442.997 3.916.997 5.498 0 1.582.365 3.102.811 3.377.447.276.709 1.989.583 3.806-.126 1.818.113 3.756.531 4.308.418.552.692 2.353.607 4.003-.084 1.65.097 3.45.401 4 .861 1.555 1.604 15.914 2.562 49.5.65 22.798 1.101 26.152 6.193 46 .776 3.025 1.523 5.95 1.661 6.5 1.032 4.135 4.154 13.094 4.704 13.5.372.275 1.02 1.625 1.44 3 .419 1.375 2.73 6.675 5.135 11.778 2.404 5.103 4.372 9.533 4.372 9.846 0 .312.843 1.762 1.874 3.222 1.031 1.46 4.231 7.154 7.111 12.654 2.881 5.5 5.794 10.675 6.475 11.5.681.825 3.132 4.977 5.446 9.226 2.314 4.25 4.583 7.958 5.042 8.242.458.283 2.069 2.881 3.58 5.773 1.511 2.893 4.446 7.82 6.523 10.95 3.548 5.346 4.812 7.948 5.008 10.309.046.55.799 1.791 1.673 2.757 1.574 1.738 3.533 4.84 4.892 7.743.386.825 1.516 2.678 2.513 4.118.996 1.439 3.471 5.714 5.501 9.5 5.075 9.467 6.098 11.286 8.931 15.882 2.672 4.335 4.431 8.112 4.431 9.515 0 .487.569 1.245 1.264 1.685.695.44 2.608 3.441 4.25 6.669 4.558 8.958 5.855 11.2 7.486 12.945.825.882 3.075 3.723 5 6.313 1.925 2.591 4.512 5.779 5.75 7.087 1.237 1.307 2.25 2.581 2.25 2.831 0 .448 1.106 1.67 12.997 14.361 3.302 3.524 6.003 6.685 6.003 7.025 0 .339 2.728 3.082 6.063 6.093 3.334 3.012 7.769 7.051 9.854 8.976 2.086 1.925 5.524 4.85 7.641 6.5 2.117 1.65 4.532 3.787 5.368 4.75.835.962 1.946 1.75 2.469 1.75.893 0 8.249 6.105 15.201 12.615 1.702 1.595 5.077 4.246 7.5 5.892 2.422 1.646 4.554 3.33 4.737 3.743.184.412.761.75 1.284.75.522 0 2.446 1.463 4.275 3.25 3.861 3.773 5.551 4.957 11.358 7.954 2.337 1.207 4.25 2.581 4.25 3.054 0 .473.39.619.866.325.477-.295 1.672.354 2.655 1.441.984 1.087 2.394 1.976 3.134 1.976.74 0 1.35.338 1.356.75.007.412 1.807 1.61 4 2.661 2.194 1.051 3.989 2.179 3.989 2.506 0 .327 1.463 1.193 3.25 1.925 6.2 2.537 11.784 5.494 12.886 6.822.61.735 1.509 1.336 1.997 1.336 1.566 0 10.266 4.245 13.377 6.528 1.655 1.214 4.58 2.526 6.5 2.916 1.919.389 5.29 1.507 7.49 2.484 2.2.977 7.15 2.602 11 3.611 3.85 1.009 7.36 2.425 7.8 3.148.44.722 1.565 1.316 2.5 1.319.935.004 2.907.636 4.383 1.406 1.475.77 4.175 1.718 6 2.107 4.44.947 11.265 4.072 13.268 6.075.892.892 2.843 1.683 4.336 1.758 1.492.075 3.163.633 3.713 1.241.55.607 5.05 2.041 10 3.186s13.275 3.076 18.5 4.291c5.225 1.215 9.95 2.554 10.5 2.975.55.422 3.813 1.318 7.25 1.991 3.438.673 6.25 1.616 6.25 2.094 0 .479.681.87 1.514.87.832 0 2.295.442 3.25.982 1.71.968 7.963 2.779 19.736 5.716 3.3.823 7.382 1.903 9.071 2.399 1.689.497 4.475.903 6.191.903 1.716 0 3.398.45 3.738 1 .34.55 2.07 1 3.844 1s5.786.9 8.916 2c3.129 1.1 6.805 2 8.168 2 1.363 0 3.512.402 4.775.893 2.089.813 12.529 2.606 21.68 3.724 1.989.243 7.791.59 12.894.772 5.102.182 9.56.615 9.908.962.347.347 1.201.159 1.897-.419.88-.73 2.44-.734 5.12-.012 3.976 1.071 14.942 1.867 35.798 2.599 6.6.232 14.845.67 18.323.973 4.704.411 6.136.251 5.595-.624-.505-.818-.299-.904.677-.283.773.492 4.105.984 7.405 1.094 12.442.413 18.142 1.059 20.509 2.326 1.343.719 4.928 1.438 7.966 1.599 3.039.161 8.225.657 11.525 1.104 8.66 1.171 32.177.582 45-1.128 4.382-.584 10.27-1.187 21-2.151 3.85-.346 8.8-1.056 11-1.578 2.2-.522 6.7-1.112 10-1.31 3.3-.199 8.25-.668 11-1.042 2.75-.375 7.925-.706 11.5-.735 3.575-.03 6.889-.272 7.364-.539.476-.266 2.726-.641 5-.833 8.645-.728 12.2-1.2 14.136-1.879 1.609-.564 1.706-.49.5.377-.927.667-1.045 1.085-.309 1.095.655.008 1.469-.435 1.809-.985.34-.55 1.604-1.002 2.809-1.004 2.787-.004 8.974-3.728 8.221-4.947-.559-.905 8.012-2.742 9.97-2.137 1.144.353 6.748.397 7.5.058.275-.124 1.4-.365 2.5-.536 3.375-.525 13.85-3.236 16.723-4.329 2.121-.806 2.894-.718 3.52.4.697 1.245 1.459 1.245 5.78-.002 11.537-3.329 15.517-4.956 15.057-6.155-.309-.806 1.378-1.613 4.897-2.343 2.953-.613 5.909-1.765 6.569-2.56.659-.795 1.954-1.445 2.876-1.445.923 0 2.121-.443 2.663-.985.542-.542 2.502-1.151 4.357-1.354 1.854-.203 3.933-1.137 4.619-2.076.687-.938 2.711-1.892 4.5-2.118 1.788-.226 4.193-1.251 5.345-2.277 2.288-2.039 11.639-6.683 12.844-6.379.413.104.75-.174.75-.619 0-.444 1.913-1.611 4.25-2.594 12.444-5.233 16.912-7.326 21.75-10.187 2.474-1.464 4.949-2.73 5.5-2.813.55-.084 3.619-1.715 6.821-3.625 3.202-1.91 7.555-4.402 9.674-5.538 2.119-1.135 4.552-2.644 5.407-3.353.854-.709 4.15-2.655 7.325-4.323 3.175-1.669 9.823-5.156 14.773-7.748 18.586-9.733 20.047-10.899 22.194-17.709l1.672-5.305-2.891-6.049c-1.59-3.326-3.541-6.587-4.335-7.247-2.078-1.724-8.53-10.618-10.579-14.581-1.256-2.431-1.723-5.583-1.662-11.232.08-7.526-.03-7.923-2.658-9.53-3.396-2.078-5.869-4.802-13.035-14.358-8.828-11.774-20.157-24.908-22.536-26.128-1.194-.612-3.54-2.406-5.213-3.988-1.674-1.582-7.492-5.169-12.929-7.971-5.437-2.802-12.182-6.966-14.988-9.254-10.705-8.727-17.253-14.397-24.52-21.232-4.136-3.89-10.988-9.866-15.227-13.279-4.238-3.413-9.39-8.261-11.449-10.773-4.025-4.912-3.22-4.728-13.039-2.986-.657.117-5.476 2.994-10.709 6.394s-13.47 8.272-18.305 10.826c-4.835 2.555-12.166 6.981-16.291 9.837-8.658 5.994-33.929 19.452-42 22.368a1496.525 1496.525 0 0 0-14 5.18c-8.405 3.157-15.433 5.235-23.817 7.041-2.374.511-4.814 1.237-5.423 1.613-.608.376-2.716 1.011-4.683 1.411-1.967.401-10.777 2.616-19.577 4.923-19.541 5.125-43.316 9.595-62 11.659-18.65 2.06-113.617 3.143-124 1.415-7.247-1.207-14.456-3.74-15.735-5.528-.404-.566-.741-.732-.75-.371-.016.689-15.692-5.672-17.483-7.093-.568-.451-2.157-1.15-3.532-1.554-1.375-.404-7.483-3.113-13.572-6.02-6.09-2.906-14.19-6.487-18-7.957-15.779-6.088-34.022-13.917-52.428-22.5-8.525-3.975-20.9-9.208-27.5-11.629-29.087-10.668-42.17-18.366-58-34.124-18.59-18.506-31.551-35.513-40.532-53.186-1.684-3.314-4.701-7.377-6.706-9.029-8.709-7.179-16.212-18.131-25.734-37.565-5.12-10.45-10.25-21.925-11.399-25.5a3871.853 3871.853 0 0 0-5.115-15.752c-1.665-5.089-3.168-10.039-3.341-11-.501-2.796-3.678-13.049-6.894-22.248-1.634-4.675-3.397-10.3-3.918-12.5-.521-2.2-1.785-6.475-2.809-9.5-1.875-5.538-3.544-14.258-4.499-23.5-.284-2.75-.966-7.475-1.517-10.5-2.633-14.468-5.655-48.145-7.043-78.5-.604-13.2-1.524-28.725-2.045-34.5-1.447-16.057-1.127-77.519.543-104 1.414-22.436 2.244-32.02 4.42-51 1.562-13.637 8.826-54.107 11.152-62.135 1.174-4.051 2.719-9.615 3.435-12.365 2.85-10.954 4.584-16.669 9.863-32.5 8.962-26.875 20.078-49.602 39.915-81.609a6104.25 6104.25 0 0 0 19.224-31.258c4.95-8.119 10.238-16.078 11.75-17.687 1.513-1.609 2.75-3.301 2.75-3.76 0-.458 2.363-3.632 5.25-7.052 2.887-3.421 6.6-7.955 8.25-10.076 1.65-2.121 3.739-4.577 4.642-5.457.903-.881 3.315-3.626 5.358-6.101 9.156-11.088 28.499-31.431 65-68.359 11-11.129 25.4-25.911 32-32.849 13.636-14.334 19.973-18.719 35.133-24.311a2405.029 2405.029 0 0 0 19.867-7.448c13.255-5.05 21.701-7.789 67.5-21.897a615.048 615.048 0 0 0 11-3.504c6.869-2.292 19.756-6.156 27-8.095a781.384 781.384 0 0 0 11-3.033c23.097-6.639 25.658-6.953 56.5-6.931 25.426.019 30.417.287 40.5 2.179a4572.52 4572.52 0 0 0 15 2.794c1.925.351 5.525 1.256 8 2.012 2.475.757 11.25 2.51 19.5 3.897 32.254 5.422 34.873 6.109 63 16.538 2.75 1.019 6.8 2.151 9 2.515 4.751.786 38.693 12.041 43 14.259 1.65.849 5.025 2.111 7.5 2.803 15.553 4.348 38.703 15.937 50.055 25.057 4.705 3.78 10.073 7.998 11.929 9.373 11.464 8.493 29.953 28.201 37.496 39.969 2.486 3.878 4.52 7.349 4.52 7.712 0 .364.64 1.372 1.421 2.24 3.531 3.923 22.677 43.653 26.301 54.579 4.889 14.74 5.18 16.122 8.309 39.5.943 7.047 1.998 10.124 6.168 18 2.767 5.225 5.388 9.95 5.824 10.5 1.462 1.844 5.161 12.923 7.01 21 1.912 8.348 2.31 9.886 5.957 23 8.245 29.648 11.863 54.05 13.046 88 .46 13.2 1.283 28.95 1.83 35 3.171 35.099 3.634 47.459 3.634 97 0 36.657-.375 54.656-1.27 61-4.161 29.472-4.545 31.368-9.431 46.5-5.783 17.908-19.71 50.325-26.176 60.926-2.449 4.015-5.207 10.246-9.107 20.574-2.95 7.811-7.298 14.874-13.719 22.289-2.363 2.729-6.547 7.819-9.297 11.31-9.278 11.78-19.754 20.424-30.5 25.167-3.33 1.469-7.299 2.078-15.263 2.341-7.049.232-11.776.879-13.7 1.874-4.215 2.179-12.854 1.956-16.468-.426-2.042-1.347-3.443-1.658-4.621-1.027-1.189.636-3.212.147-6.814-1.648-2.818-1.405-5.377-2.964-5.688-3.467-.31-.502-1.397-.913-2.416-.913s-2.933-1.284-4.254-2.854c-1.321-1.57-2.872-3.033-3.447-3.25-1.498-.567-13.361-14.531-12.811-15.08.252-.253 1.195-5.509 2.094-11.68 1.566-10.737 1.358-14.284-.651-11.107-.661 1.045-.935 1.1-.946.19-.008-.705.679-1.548 1.527-1.873.848-.326 1.454-1.324 1.346-2.219-.107-.895.17-2.474.616-3.509.446-1.035.3-6.66-.324-12.5s-.95-12.868-.725-15.618c.737-9.014 2.468-17.834 3.642-18.56 1.257-.777 1.935-4.211 2.061-10.44.045-2.2.424-4.675.841-5.5.418-.825 1.063-4.425 1.434-8s1.151-8.525 1.734-11c.584-2.475 1.233-6.075 1.444-8 .211-1.925.823-5.3 1.361-7.5 1.934-7.919 3.023-22.334 3.061-40.5.06-29.008 3.362-67.079 5.985-69 1.728-1.266 2.96-5.321 3.905-12.855.564-4.499 1.573-9.184 2.243-10.412.793-1.453 1.273-7.824 1.374-18.233.211-21.628 1.379-35.5 2.99-35.5 1.27 0 2.486-2.049 3.114-5.25.189-.962-.093-1.75-.626-1.75-.609 0-.63-.89-.057-2.397.501-1.319.603-2.706.225-3.083-.377-.377-.741-1.886-.807-3.353-.154-3.38 2.151-26.419 4.019-40.167a2402.19 2402.19 0 0 0 3.032-23.5c1.959-15.857 5.282-39.868 6.642-48l2.425-14.5c4.453-26.62 6.7-58.142 4.253-59.655-.477-.294-.58-1.843-.229-3.44.397-1.807.23-2.905-.442-2.905-.593 0-1.079-.675-1.079-1.5s-.45-1.5-1-1.5-1-.476-1-1.059c0-.582-1.319-2.719-2.932-4.75-1.613-2.03-3.668-5.557-4.567-7.837-1.31-3.323-2.218-4.232-4.568-4.577-1.613-.237-2.933-.099-2.933.306s-2.587.118-5.75-.638c-7.049-1.684-15.319-1.826-18.625-.32-1.814.827-3.312.831-5.646.018-2.195-.766-3.767-.792-5.089-.084-1.384.74-2.81.621-5.152-.431-6.396-2.875-10.377-3.637-15.777-3.023-6.183.704-6.397.701-14.068-.183-3.564-.411-6.398-.222-7.782.518-3.638 1.948-17.723 1.307-19.066-.867-.488-.789-1.617-1.026-2.92-.613-1.261.4-2.125.241-2.125-.393 0-.587-1.125-1.067-2.5-1.067-2.127 0-2.5.461-2.5 3.088 0 3.008-.097 3.072-3.75 2.489-4.171-.665-5.352-.117-6.778 3.151-.954 2.188-1.053 2.153-5.472-1.956-18.957-17.628-22.413-20.361-35.454-28.034-9.343-5.498-25.103-11.669-30.298-11.864-1.512-.056-6.348-.705-10.748-1.441-4.4-.737-12.725-1.58-18.5-1.875-5.775-.294-14.759-1.026-19.965-1.626-5.814-.67-22.397-.931-43-.676-33.901.419-33.913.42-53.535 4.803-18.774 4.194-54.026 15.452-59 18.842-.55.375-2.73 1.27-4.844 1.989-2.114.719-6.519 2.951-9.788 4.959-3.269 2.008-7.052 4.238-8.406 4.956-1.354.717-2.462 1.756-2.462 2.309 0 .552-.45.726-1 .386-.55-.34-1-.238-1 .225 0 1.139-5.99 4.619-6.71 3.899-.314-.314-1.745.056-3.18.822-1.436.766-4.625 2.141-7.088 3.056-6.428 2.389-17.519 11.136-47.989 37.849-7.961 6.979-21.272 20.995-27.858 29.334-4.984 6.31-21.058 26.078-23.431 28.815-.476.55-1.627 2.175-2.555 3.612-.929 1.436-4.405 6.611-7.724 11.5-3.32 4.888-7.595 11.523-9.5 14.744-1.906 3.22-4.717 7.945-6.247 10.5-1.53 2.554-3.046 5.319-3.369 6.144-.323.825-2.783 6.709-5.468 13.076-2.685 6.366-4.881 12.302-4.881 13.191 0 .888-.414 1.871-.919 2.183-1.391.86-3.148 10.037-3.732 19.495-.287 4.644-1.356 13.408-2.376 19.475-1.02 6.067-1.667 11.219-1.438 11.448.801.801 3.349-2.032 3.769-4.191.233-1.197.485-.072.56 2.502.077 2.66.783 5.325 1.636 6.178.893.893 1.5 3.338 1.5 6.04 0 3.678-.292 4.428-1.541 3.949-.847-.325-1.437-.199-1.309.281.431 1.627-1.335 7.857-3.096 10.925-2.471 4.303-4.684 16.441-3.168 17.377 1.546.956-1.826 14.071-3.618 14.071-.761 0-1.273 1.3-1.282 3.25-.007 1.788-.304 4.338-.66 5.669-.529 1.974-.343 2.301 1.013 1.781 1.201-.461 1.661-.092 1.661 1.331 0 1.083-.45 1.969-1 1.969s-1 2.223-1 4.941-.386 5.179-.857 5.471c-1.229.759-.558 35.04.815 41.588.634 3.025 1.143 6.774 1.131 8.331-.03 4.022 3.062 15.108 6.542 23.453.753 1.806 1.369 4.079 1.369 5.05 0 .971.396 2.194.879 2.716.851.918 2.656 9.863 5.136 25.45 3.639 22.867 8.422 31.173 38.985 67.691 6.875 8.215 14.003 16.798 15.841 19.074 8.783 10.879 13.15 15.279 22.776 22.942 8.248 6.566 28.049 18.075 40.883 23.763 13.852 6.138 32.299 11.454 43.924 12.658 15.876 1.644 17.79 1.917 19.45 2.768.894.459 7.701.912 15.126 1.008 13.567.174 19.646.756 21.5 2.06 1.616 1.136 28.464 1.217 33.44.1 2.508-.562 11.31-1.964 19.56-3.115 12.785-1.783 19.004-2.8 27.5-4.496.825-.165 1.5-.371 1.5-.458 0-.086 1.319-.252 2.93-.367 1.612-.115 3.074-.641 3.249-1.169.176-.527 3.685-.883 7.8-.789 10.822.246 21.754-2.388 52.621-12.677 19.001-6.334 27.892-9.767 29.006-11.198 1.51-1.941 1.647-1.384 2.308 9.338.386 6.271.403 12.181.037 13.134-.366.953-.231 1.733.298 1.733.53 0 1.255 3.262 1.61 7.25 1.163 13.051 7.28 38.005 11.582 47.25 1.535 3.3 3.128 7.125 3.54 8.5 1.152 3.851 7.808 16.282 9.769 18.247.962.964 1.75 2.142 1.75 2.617 0 .476 1.343 2.388 2.984 4.25 1.641 1.863 2.991 3.949 3 4.636.009.688.404 1.25.879 1.25.474 0 3.285 3.263 6.246 7.25 6.185 8.328 19.012 21.75 20.786 21.75.66 0 3.254 2.025 5.764 4.5 2.511 2.475 4.894 4.5 5.297 4.5.403 0 2.012 1.099 3.576 2.443s3.233 2.202 3.709 1.908c.476-.294 1.682.407 2.679 1.557.998 1.151 2.549 2.092 3.447 2.092.898 0 1.633.378 1.633.839 0 .462 1.07 1.327 2.377 1.923 1.307.596 4.007 2.514 6 4.264 1.993 1.75 3.623 2.892 3.623 2.539 0-.354.985.275 2.189 1.396 1.203 1.121 2.805 2.039 3.559 2.039.753 0 1.116.41.806.912-.31.502.226.795 1.191.651.965-.144 3.434.796 5.485 2.088 2.052 1.292 4.12 2.349 4.596 2.349.477 0 2.319.725 4.095 1.61 1.775.886 4.319 1.674 5.653 1.75 1.333.077 2.425.421 2.425.765.001.527 3.782 1.73 7.501 2.387.55.097 2.223.68 3.719 1.295 7.125 2.934 40.911 5.409 42.337 3.102.32-.518.97-.702 1.444-.409s1.149.068 1.5-.5c.351-.568.977-.823 1.391-.567.415.256 3.646.015 7.181-.536 3.536-.551 13.178-1.176 21.428-1.389 14.512-.374 29.938-1.069 45.5-2.05 7.41-.467 29.53-4.049 31.137-5.043.456-.282 4.099-1.111 8.096-1.842 7.738-1.416 19.498-5.349 21.436-7.17.642-.603 3.342-1.659 6-2.345 7.052-1.821 17.579-6.532 27.831-12.455 4.95-2.86 11.925-6.686 15.5-8.502 3.575-1.816 7.932-4.382 9.683-5.701 1.751-1.32 3.433-2.4 3.739-2.4.305 0 1.348-.647 2.317-1.437 24.336-19.851 30.266-25.505 32.845-31.313.793-1.787 1.887-3.25 2.429-3.25.543 0 .987-.707.987-1.571 0-1.498 5.843-13.368 7.1-14.425 1.308-1.098 14.769-29.1 16.412-34.138.962-2.951 2.339-6.491 3.059-7.866 1.06-2.023 4.93-13.142 6.091-17.5.146-.55 2.109-6.336 4.36-12.859 2.252-6.522 3.875-12.078 3.607-12.345-.268-.268.33-1.943 1.329-3.722.999-1.778 2.065-5.009 2.368-7.179.304-2.17 1.503-6.164 2.666-8.876 1.162-2.712 2.316-6.932 2.563-9.378.562-5.556 2.237-11.894 3.319-12.563.451-.279.862-1.76.914-3.292.052-1.532 2.146-9.498 4.653-17.701 2.507-8.203 4.559-15.939 4.559-17.191 0-1.252.393-2.519.873-2.815.742-.459 2.745-7.299 7.196-24.579.496-1.925 1.111-4.85 1.366-6.5.255-1.65.684-3.9.953-5 .269-1.1 1.452-6.275 2.63-11.5 1.177-5.225 2.54-10.4 3.027-11.5 1.475-3.325 3.061-14.228 2.435-16.725-.323-1.287-.048-5.476.611-9.308.66-3.832 1.247-8.092 1.304-9.467.058-1.375.852-2.808 1.765-3.184 2.647-1.092 4.994-11.228 5.395-23.295.355-10.707 1.194-19.939 2.181-24.021 1.154-4.766 2.238-17.692 2.181-26-.065-9.498-1.675-21.763-2.769-21.098-.356.217-.757-1.456-.891-3.718-.134-2.261-.723-5.567-1.31-7.346-.71-2.151-.757-5.009-.141-8.536.774-4.426.796-13.871.083-34.302-.307-8.772.077-10.527 2.543-11.651 3.147-1.434 4.984-5.921 4.129-10.085-.369-1.795-1.034-6.414-1.478-10.264-.877-7.608-2.464-16.327-4.825-26.5-1.876-8.087-4.085-21.841-5.301-33a6024.337 6024.337 0 0 0-1.327-12.095c-.221-1.977-1.535-6.927-2.919-11-1.384-4.073-2.837-8.98-3.229-10.905-.392-1.925-1.059-3.95-1.482-4.5-.423-.55-1.088-2.493-1.479-4.317-.39-1.825-1.339-4.525-2.109-6-.77-1.476-1.402-3.606-1.406-4.733-.003-1.128-.398-2.478-.877-3-.48-.522-1.677-3.65-2.66-6.95-.983-3.3-3.038-8.732-4.565-12.072-1.527-3.34-3.091-7.39-3.475-9-.384-1.61-1.235-3.603-1.891-4.428-.656-.825-1.763-3.525-2.461-6-1.101-3.911-3.209-9.172-8.61-21.5-4.859-11.09-7.344-17.423-7.933-20.217-.373-1.769-1.732-4.77-3.021-6.668-1.288-1.899-2.127-3.668-1.864-3.931.263-.263-2.026-5.745-5.085-12.183-3.06-6.438-5.564-12.154-5.564-12.702s-1.8-4.732-4-9.299c-2.2-4.567-4-8.593-4-8.948 0-.355-2.25-5.147-5-10.649-2.75-5.502-5-10.618-5-11.37 0-.751-.338-1.516-.75-1.7-1.517-.674-11.545-16.29-15.947-24.833-2.801-5.438-20.037-30.383-24.659-35.69-2.279-2.617-5.446-5.895-7.038-7.284-1.591-1.389-4.291-4.076-6-5.97-9.705-10.76-17.472-17.564-22.606-19.805-7.27-3.174-8-3.623-8-4.92 0-.732-.921-1.331-2.047-1.331-1.188 0-2.715-1.165-3.641-2.779-.878-1.529-3.118-3.892-4.979-5.25-1.862-1.359-4.213-3.146-5.225-3.971-1.013-.825-3.338-2.625-5.167-4-1.83-1.375-5.827-4.56-8.884-7.077-3.056-2.517-6.764-5.217-8.24-6-1.476-.783-5.526-3.064-9-5.069-5.372-3.1-13.878-7.66-45.717-24.506-2.42-1.281-9.112-6.21-14.87-10.953-5.758-4.744-11.767-9.361-13.352-10.26-1.586-.899-3.137-2.423-3.448-3.385-.311-.962-.928-1.75-1.371-1.75-.443 0-3.676-2.643-7.183-5.874-9.625-8.866-24.143-20.696-27.581-22.473-1.679-.869-3.318-2.271-3.642-3.116-.325-.845-1.247-1.537-2.05-1.537-.803 0-2.055-.578-2.782-1.284-.726-.706-3.571-2.613-6.321-4.237-2.75-1.624-5.9-3.504-7-4.177-1.1-.672-3.125-1.739-4.5-2.369-1.375-.631-3.175-1.536-4-2.012-.825-.476-3.075-1.64-5-2.585-1.925-.946-4.85-2.701-6.5-3.9-3.543-2.574-15.169-8.028-25-11.727-10.477-3.943-34.446-9.966-37.406-9.401-1.427.273-4.619.126-7.094-.325-2.475-.452-8.55-1.55-13.5-2.44-4.95-.89-14.4-1.818-21-2.061-6.6-.244-16.838-.789-22.75-1.213-6.663-.476-10.751-.408-10.75.181 0 .522-.54.41-1.2-.25-.66-.66-2.798-1.211-4.75-1.224-1.953-.014-5.465-.467-7.806-1.007-2.34-.54-7.065-1.193-10.5-1.452L671 205.181c-13.064-.983-72.246-1.602-73.084-.764m54.834 5.289c1.237.238 3.263.238 4.5 0 1.237-.239.225-.434-2.25-.434s-3.487.195-2.25.434M884.5 464.458c5.083 4.663 11.381 8.994 12.073 8.302.293-.292-1.179-1.583-3.27-2.869-2.092-1.285-4.478-3.091-5.303-4.012-.825-.922-2.85-2.445-4.5-3.383-2.583-1.469-2.444-1.197 1 1.962M373.033 544.97c-1.83 1.634-4.161 4.833-5.18 7.11-2.373 5.299-2.339 5.463.558 2.71 2.533-2.406 9.589-11.456 9.589-12.299 0-1.208-1.898-.261-4.967 2.479m576.857 45.494c.831 3.597 2.139 6.717 2.946 7.026.798.307 1.571.434 1.719.284.385-.393-4.444-12.063-5.378-12.997-.43-.43-.109 2.129.713 5.687M606 627.707c-4.079.709-17.977 5.447-18.511 6.311-.271.438-3.07 1.608-6.22 2.598-4.869 1.532-7.112 3.173-14.979 10.964-6.037 5.979-10.273 9.367-12.19 9.75-2.131.426-3.911 2.054-6.477 5.919-5.069 7.636-17.827 19.757-20.766 19.728-2.135-.021-1.915-.445 2.335-4.5 5.184-4.947 5.404-6.04.348-1.727-1.773 1.513-4.169 3.393-5.325 4.179-1.875 1.276-4.017 7.95-3.357 10.458.128.488-.76 1.945-1.975 3.237-1.486 1.582-2.165 3.487-2.077 5.824.071 1.91-.245 3.705-.704 3.989-.458.283-.616 1.654-.35 3.045s.061 3.089-.454 3.774c-.516.684-1.508 3.269-2.205 5.744-.698 2.475-1.867 5.85-2.598 7.5-.732 1.65-2.816 7.5-4.632 13-1.815 5.5-4.251 11.8-5.413 14-1.162 2.2-3.591 8.5-5.398 14-1.806 5.5-4.132 11.67-5.168 13.71-1.036 2.041-1.884 4.538-1.884 5.55 0 1.012-.387 2.268-.861 2.79-2.703 2.984-8.304 38.746-7.587 48.45.182 2.475-.07 7.2-.56 10.5-.491 3.3-1.396 11.299-2.012 17.776-1.006 10.585-3 19.473-4.985 22.224-.397.55-.594 2.125-.438 3.5.156 1.375.513 6.362.792 11.082.5 8.445 1.033 10.128 6.788 21.418 5.184 10.17 7.39 14.102 8.62 15.365.732.751 2.72 4.126 4.419 7.5 1.699 3.374 4.154 7.407 5.456 8.962 1.303 1.554 2.368 3.435 2.368 4.179 0 .743 1.575 3.022 3.5 5.063s3.5 4.098 3.5 4.571c0 .473.607.86 1.35.86.742 0 3.148 1.303 5.346 2.895 6.02 4.36 10.08 6.277 10.518 4.964.239-.717 1.952-.305 4.82 1.158 3.39 1.73 4.12 1.873 3.065.602-.761-.917-1.188-1.864-.948-2.104.687-.686 4.849.627 4.849 1.531 0 .447 2.587 1.332 5.75 1.968 7.732 1.555 12.182 3.11 22.25 7.775 4.675 2.166 12.873 5.397 18.218 7.18 5.345 1.783 10.702 4.094 11.903 5.136 1.202 1.042 3.354 1.913 4.782 1.934 1.428.022 5.781.293 9.672.602 5.451.433 8.793.08 14.564-1.54 8.983-2.52 11.384-2.586 18.531-.508 3.013.875 5.645 1.425 5.849 1.221.204-.204.509-2.158.676-4.343.346-4.509 1.447-5.299 7.517-5.401 4.83-.08 13.967-3.243 17.58-6.085 1.973-1.552 2.693-3.465 3.654-9.709 2.823-18.351 3.503-23.839 5.05-40.776.603-6.6 1.564-14.025 2.136-16.5.938-4.06 1.713-8.907 4.799-30 .524-3.575 1.217-9.2 1.541-12.5.323-3.3.794-7.35 1.044-9 .251-1.65.903-7.95 1.449-14 .956-10.578 1.607-15.29 2.558-18.5.65-2.197 3.204-17.625 3.973-24a743.73 743.73 0 0 1 1.002-8c.187-1.375.868-8.125 1.513-15 .644-6.875 1.542-15.2 1.994-18.5.672-4.902.541-6.22-.716-7.202-.964-.752-1.276-1.875-.836-3 .633-1.619 1.413-9.15 3.214-31.048.555-6.748.757-7.25 2.919-7.25 1.917 0 2.423-.656 2.892-3.75.313-2.062 1.008-5.922 1.545-8.576 2.284-11.284.366-25.231-4.158-30.238-1.026-1.136-1.865-2.733-1.865-3.55 0-.818-.562-2.092-1.25-2.833-1.017-1.095-.97-1.186.25-.488 1.183.676 1.133.296-.239-1.801-.956-1.463-1.47-3.358-1.143-4.212.395-1.029.021-1.552-1.11-1.552-.938 0-3.047-1.436-4.687-3.191-9.112-9.755-25.174-18.589-38.664-21.265-3.662-.727-10.063-2.922-14.226-4.879-13.74-6.459-28.253-8.988-39.931-6.958m336 42.734c0 1.407.45 2.559 1 2.559s1-.873 1-1.941-.45-2.219-1-2.559c-.567-.351-1 .49-1 1.941m5.02 33.109c.025 4.86 1.654 16.457 2.419 17.222 1.525 1.525 1.723-1.553.642-9.99-1.254-9.8-3.096-14.15-3.061-7.232m-640.3 1.782c-1.114 2.833-.932 4.28.374 2.974.601-.601.926-1.929.72-2.95-.36-1.79-.399-1.791-1.094-.024m704.382 151.918c-.093 27.097.046 29.75 1.559 29.75 1.522 0 1.603-2.18.974-26.25-.988-37.814-2.408-39.776-2.533-3.5m-713.917 23.86c-.102 1.436-.471 4.699-.821 7.25-.434 3.17-.276 4.64.5 4.64.625 0 1.136-.723 1.136-1.607 0-1.018.55-1.396 1.5-1.031.825.316 1.5.139 1.5-.393 0-.533-.651-.969-1.448-.969-1.033 0-1.553-1.503-1.815-5.25-.202-2.888-.45-4.075-.552-2.64M35 940c0 7.15.337 12.993.75 12.985 2.801-.057 4.559-5.085 2.779-7.948-.501-.804-1.106-5.192-1.345-9.75C36.504 922.327 35 925.572 35 940m815.475 143.448c-.013 2.443.317 3.904.735 3.247.985-1.55 1.017-7.696.04-7.692-.413.002-.761 2.002-.775 4.445M751.632 1214c1.162 1.375 2.283 3.019 2.491 3.654.689 2.108 26.097 28.346 27.449 28.346.731 0 1.787.787 2.348 1.75.561.963 1.033 1.219 1.05.57.016-.649-2.041-2.899-4.572-5-7.839-6.507-23.398-22.526-23.398-24.09 0-.461-1.683-2.388-3.741-4.284-2.057-1.895-2.789-2.321-1.627-.946m33.821 26.764c2.174 2.33 4.312 4.236 4.75 4.236.845 0-1.001-1.91-5.785-5.986-1.752-1.493-1.339-.794 1.035 1.75m30.801 29.82c.965 1.146 3.44 2.588 5.5 3.206 3.365 1.009 3.548.975 1.805-.333-1.068-.802-2.607-1.457-3.421-1.457-.814 0-2.416-.787-3.559-1.75-2.049-1.725-2.054-1.72-.325.334M852 1286c3.419 1.095 6.048 1.095 3.5 0-1.1-.473-2.9-.846-4-.83-1.608.024-1.51.186.5.83m-481.447 9.175c.512 1.236 7.918 7.219 11.4 9.209 1.97 1.127 1.042.264-6.2-5.756-3.162-2.628-5.501-4.182-5.2-3.453" fill-rule="evenodd"/></svg>