<svg xmlns="http://www.w3.org/2000/svg" width="1240" height="1753"><path d="M585 60.659c-11.549.765-90.814 2.641-119 2.816-32.115.199-47.611 1.029-49.628 2.657-1.174.947-9.592 1.923-34.633 4.014-16.472 1.376-29.369.265-37.098-3.195-4.544-2.035-6.427-1.289-4.734 1.876 1.655 3.091 1.491 3.213-4.157 3.088-2.887-.063-10.517.541-16.956 1.342-10.567 1.316-12.04 1.752-15.153 4.485-1.896 1.665-3.945 3.193-4.554 3.396-.609.203-1.307 1.409-1.552 2.682-.432 2.243-.288 2.293 4.812 1.656 4.108-.513 5.538-.319 6.542.89.706.85 1.022 1.969.703 2.485-.798 1.291 1.806 2.149 6.52 2.149h3.948l-2.12 2.868c-1.167 1.577-4.036 3.825-6.378 4.994-7.25 3.621-9.562 6.403-9.562 11.507 0 2.455.478 4.624 1.062 4.818.734.245.751 1.175.055 3.006-.771 2.028-.671 2.932.426 3.843.789.655 1.22 1.539.957 1.964-1.058 1.712 2.225 3.055 4.943 2.021 4.219-1.603 4.407-1.118.389 1.005-3.37 1.78-7.86 7.974-5.78 7.974.494 0 .608 1.463.254 3.25-.584 2.948-.488 3.122 1.025 1.878.918-.755 1.669-.916 1.669-.357 0 .558-.675 1.274-1.5 1.591-1.819.698-1.981 3.276-.25 3.979.941.381.879.769-.25 1.568-1.166.824-1.198 1.064-.143 1.076.902.01 1.112.602.627 1.765-1.039 2.493-1.243 12.281-.268 12.883.449.278.566.911.259 1.407-.306.496.599 1.191 2.011 1.546 1.727.433 2.276 1.016 1.677 1.779-.49.624-.898 1.81-.908 2.635-.009.825-.344 2.287-.743 3.25-.467 1.126-.276 1.75.536 1.75.821 0 .61.72-.603 2.061-1.497 1.653-1.602 2.224-.531 2.886 1.429.883 1.944 10.173.985 17.781-.292 2.325-.137 4.359.347 4.521.49.163.448 1.425-.095 2.855-.536 1.409-1.244 4.325-1.573 6.479-.333 2.187-1.529 4.693-2.706 5.673-1.63 1.357-1.85 2.065-.973 3.123.625.752.855 2.1.511 2.994-.405 1.057-.098 1.627.876 1.627 1.592 0 2.985 2.396 1.978 3.402-.328.329-1.925.598-3.547.598-2.669 0-2.901.258-2.432 2.712.308 1.61-.014 3.133-.793 3.75-1.76 1.392-3.102 11.538-1.527 11.538.634 0 .894.419.578.931-.317.512-.138 1.201.397 1.532.535.331.719 1.262.409 2.069-.382.996.095 1.468 1.485 1.468 1.126 0 2.323.445 2.659.989.35.566-.051.734-.941.393-.854-.328-1.552-.112-1.552.48 0 .591-.675.816-1.5.5-.825-.317-1.5-.078-1.5.531 0 1.044 1.417 1.542 3.373 1.185.48-.088.604.539.276 1.393-.474 1.236-.039 1.448 2.128 1.035 1.497-.285 2.142-.247 1.431.085-.991.463-1.021.929-.127 2.006.902 1.088.856 1.406-.209 1.418-1.113.013-1.099.188.071.929 1.145.724 1.212 1.419.327 3.362-.613 1.347-.758 2.841-.322 3.321.437.48 1.085 2.111 1.442 3.623.506 2.146.288 2.75-.993 2.75-1.303 0-1.399.292-.466 1.416.933 1.125.803 1.513-.628 1.884-1.284.333-1.363.501-.277.584 2.519.191 1.326 8.031-1.388 9.126-1.712.691-1.79.876-.388.927 1.292.046 1.754.914 1.764 3.313.019 4.629 1.04 7.835 2.254 7.084.604-.373.742-.159.327.511-.392.635-1.56 1.155-2.595 1.155-1.035 0-2.16.45-2.5 1-.34.55.335 1 1.5 1 1.217 0 1.843.444 1.473 1.044-.355.574-.106 1.693.553 2.487s.942 2.11.63 2.924c-.313.815-.138 1.747.388 2.072 2.987 1.846-2.33 4.601-7.583 3.928-4.985-.638-7.445.775-4.046 2.324 1.572.717 2.736.785 3.108.183.327-.529 1.045-.962 1.595-.962s.722.45.382 1c-.873 1.412.855 1.245 2.325-.225.967-.967 1.67-.947 3.334.092 1.621 1.013 2.28 1.04 2.85.118.531-.859.935-.885 1.425-.092.376.609 1.782 1.107 3.125 1.107s2.441.414 2.441.921c0 1.216 5.034 2.272 11.977 2.513 3.087.107 6.158.532 6.826.944.763.472 1.559-.109 2.142-1.564.694-1.73.944-1.872.992-.564.045 1.26.973 1.795 3.313 1.91 1.788.087 5.95.333 9.25.545 3.3.212 9.914.446 14.698.52 5.36.083 8.466.509 8.095 1.11-.331.535-.108.668.497.295.604-.374 4.161-.009 7.904.811 3.743.819 7.931 1.53 9.306 1.58 1.375.05 5.65.269 9.5.487 3.85.218 11.725.531 17.5.694 5.775.164 10.831.748 11.235 1.298.472.643.74.604.75-.111.009-.703 2.598-1.126 7.058-1.154 6.068-.038 6.876.158 5.831 1.417-1.015 1.223-.818 1.406 1.206 1.119 1.331-.189 3.24-.813 4.243-1.387 1.121-.643 3.621-.748 6.5-.274 2.572.424 8.393.798 12.936.83 7.543.055 8.617.32 12.404 3.063 5.155 3.734 10.053 5.091 18.649 5.166 10.801.093 29.901-1.207 40.953-2.787 5.753-.823 20.869-1.646 34.391-1.872l24.127-.403-.84 49.696c-.462 27.334-.858 72.197-.88 99.697-.024 30.563-.411 50.264-.995 50.678-.6.427-.566 1.54.092 3 .576 1.277 1.131 7.343 1.233 13.48.103 6.137.419 12.212.702 13.5.284 1.288.704 12.917.934 25.842.697 39.236 1.415 62.277 1.957 62.819.283.283.553-3.273.6-7.902.157-15.377 1.952-3.918 2.441 15.583.248 9.9.704 20.925 1.014 24.5.985 11.368 1.248 104.343.31 109.525-1.11 6.134-1.111 5.333.025 14.999 1.283 10.922 1.531 52.779.484 81.976-1.04 29.033-1.052 44.656-.054 75.5.794 24.528 1.084 28.947 2.664 40.5 2.938 21.487 4.158 49.921 4.341 101.122.155 43.601-.054 53.349-1.167 54.388-.897.838-1.162 2.487-.783 4.878.315 1.987.917 25.662 1.337 52.612.695 44.585.686 71.426-.042 123-.14 9.9.003 23.85.318 31 .399 9.063.199 14.106-.662 16.653-1.316 3.892-2.525 28.358-2.661 53.847l-.083 15.5-13.534-.156c-7.444-.086-18.259-.84-24.034-1.675-11.215-1.622-30.235-2.932-41.188-2.838-8.596.075-13.494 1.432-18.649 5.166-3.787 2.743-4.861 3.008-12.404 3.063-4.543.032-10.364.406-12.936.83-2.879.474-5.379.369-6.5-.274-1.003-.574-2.912-1.198-4.243-1.387-2.024-.287-2.221-.104-1.206 1.119 1.045 1.259.237 1.455-5.831 1.417-4.46-.028-7.049-.451-7.058-1.154-.01-.715-.278-.754-.75-.111-.404.55-5.46 1.134-11.235 1.298-5.775.163-13.65.476-17.5.694-3.85.218-8.125.437-9.5.487-1.375.05-5.563.761-9.306 1.58-3.743.82-7.3 1.185-7.904.811-.605-.373-.828-.24-.497.295.371.601-2.735 1.027-8.095 1.11-4.784.074-11.398.308-14.698.52-3.3.212-7.462.458-9.25.545-2.34.115-3.268.65-3.313 1.91-.048 1.308-.298 1.166-.992-.564-.583-1.455-1.379-2.036-2.142-1.564-.668.412-3.739.837-6.826.944-6.943.241-11.977 1.297-11.977 2.513 0 .507-1.098.921-2.441.921-1.343 0-2.749.498-3.125 1.107-.49.793-.894.767-1.425-.092-.57-.922-1.229-.895-2.85.118-1.664 1.039-2.367 1.059-3.334.092-1.47-1.47-3.198-1.637-2.325-.225.34.55.168 1-.382 1s-1.268-.433-1.595-.962c-.372-.602-1.536-.534-3.108.183-3.399 1.549-.939 2.962 4.046 2.324 5.253-.673 10.57 2.082 7.583 3.928-.526.325-.701 1.257-.388 2.072.312.814.029 2.13-.63 2.924s-.908 1.913-.553 2.487c.37.6-.256 1.044-1.473 1.044-1.165 0-1.84.45-1.5 1 .34.55 1.465 1 2.5 1s2.203.52 2.595 1.155c.415.67.277.884-.327.511-1.214-.751-2.235 2.455-2.254 7.084-.01 2.399-.472 3.267-1.764 3.313-1.402.051-1.324.236.388.927 2.724 1.099 3.848 8.696 1.386 9.364-1.094.297-.995.447.348.53 1.549.096 1.657.376.628 1.616-1.021 1.23-.949 1.5.397 1.5 1.281 0 1.499.604.993 2.75-.357 1.513-1.005 3.143-1.442 3.623-.436.48-.291 1.974.322 3.321.885 1.943.818 2.638-.327 3.362-1.17.741-1.184.916-.071.929 1.065.012 1.111.33.209 1.418-.894 1.077-.864 1.543.127 2.006.711.332.066.37-1.431.085-2.167-.413-2.602-.201-2.128 1.035.328.854.204 1.481-.276 1.393-1.956-.357-3.373.141-3.373 1.185 0 .609.675.848 1.5.531.825-.316 1.5-.091 1.5.5 0 .592.698.808 1.552.48.89-.341 1.291-.173.941.393-.336.544-1.533.989-2.659.989-1.39 0-1.867.472-1.485 1.468.31.807.126 1.738-.409 2.069-.535.331-.714 1.02-.397 1.532.316.512.056.931-.578.931-1.575 0-.233 10.146 1.527 11.538.779.617 1.101 2.14.793 3.75-.469 2.454-.237 2.712 2.432 2.712 1.622 0 3.219.269 3.547.598 1.007 1.006-.386 3.402-1.978 3.402-.974 0-1.281.57-.876 1.627.344.894.114 2.242-.511 2.994-.877 1.058-.657 1.766.973 3.123 1.177.98 2.373 3.486 2.706 5.673.329 2.154 1.037 5.07 1.573 6.479.543 1.43.585 2.692.095 2.855-.484.162-.639 2.196-.347 4.521.959 7.608.444 16.898-.985 17.781-1.071.662-.966 1.233.531 2.886 1.213 1.341 1.424 2.061.603 2.061-.812 0-1.003.624-.536 1.75.399.963.734 2.425.743 3.25.01.825.418 2.011.908 2.635.599.763.05 1.346-1.677 1.779-1.412.355-2.317 1.05-2.011 1.546.307.496.19 1.129-.259 1.407-.975.602-.771 10.39.268 12.883.485 1.163.275 1.755-.627 1.765-1.055.012-1.023.252.143 1.076 1.129.799 1.191 1.187.25 1.568-1.731.703-1.569 3.281.25 3.979.825.317 1.5 1.033 1.5 1.591 0 .559-.751.398-1.669-.357-1.513-1.244-1.609-1.07-1.025 1.878.354 1.787.24 3.25-.254 3.25-2.08 0 2.41 6.194 5.78 7.974 4.018 2.123 3.83 2.608-.389 1.005-2.718-1.034-6.001.309-4.943 2.021.263.425-.168 1.309-.957 1.964-1.097.911-1.197 1.815-.426 3.843.696 1.831.679 2.761-.055 3.006-.584.194-1.062 2.363-1.062 4.818 0 5.104 2.312 7.886 9.562 11.507 2.342 1.169 5.211 3.417 6.378 4.994l2.12 2.868h-3.948c-4.714 0-7.318.858-6.52 2.149.319.516.003 1.635-.703 2.485-1.004 1.209-2.434 1.403-6.542.89-5.1-.637-5.244-.587-4.812 1.656.245 1.273.943 2.479 1.552 2.682.609.203 2.658 1.731 4.554 3.396 3.113 2.733 4.586 3.169 15.153 4.485 6.439.801 14.069 1.405 16.956 1.342 5.648-.125 5.812-.003 4.157 3.088-1.693 3.165.19 3.911 4.734 1.876 7.729-3.46 20.626-4.571 37.098-3.195 25.041 2.091 33.459 3.067 34.633 4.014 2.019 1.629 17.522 2.458 49.628 2.652 28.662.174 75.192 1.317 125.75 3.089l19.25.674v-2.177c0-1.753.341-1.999 1.75-1.266.962.5 3.194.814 4.958.698 1.765-.116 3.015.101 2.778.484-.798 1.292 15.151 2.069 18.16.884 3.092-1.218 16.472-1.985 34.824-1.997 4.127-.003 7.258-.469 7.674-1.142.508-.821 1.073-.837 2.03-.056 1.515 1.238 11.699 2.152 12.077 1.084.137-.387 1.711.006 3.497.874 2.382 1.158 3.598 1.288 4.561.49.784-.651 6.316-1.107 13.752-1.134 16.968-.061 17.062-.077 18.772-3.057 1.28-2.23 2.081-2.563 5.581-2.325 8.654.589 15.133 1.586 16.247 2.501.745.611 1.393.577 1.809-.095.97-1.57 10.077-1.299 11.437.339 1.187 1.431 2.614 1.254 11.593-1.433 2.524-.755 6.745-.967 11.442-.573 6.877.578 7.635.447 10-1.729 3.189-2.934 10.066-5.651 14.328-5.66 1.777-.003 4.58-.9 6.23-1.993 1.65-1.093 3.786-1.99 4.747-1.993.961-.004 3.491-1.582 5.621-3.507 2.131-1.925 4.64-3.5 5.575-3.5 3.511 0 6.985-5.886 7.968-13.5.355-2.75.832-14.212 1.061-25.472.316-15.589.736-20.717 1.76-21.5 1.56-1.192 4.327-10.378 5.73-19.028.536-3.3 1.219-13.2 1.52-22 .3-8.8.76-20.95 1.021-27 .262-6.05.738-20.225 1.059-31.5.321-11.275.894-27.25 1.273-35.5.698-15.171.258-29.489-1.829-59.5-.631-9.075-1.313-33.936-1.516-55.247-.202-21.311-.647-39.198-.988-39.75-.341-.552-.143-1.003.439-1.003 1.373 0 1.243-24.769-.144-27.371-.679-1.274-.667-1.667.038-1.231.689.426 1.053-3.29 1.09-11.129.03-6.473.308-18.294.617-26.269 1.219-31.458 1.418-41.57 1.934-98.5.294-32.45.98-74.75 1.525-94 1.333-47.143 1.518-69.528 1.161-141-.133-26.621-.005-153.326.247-245 .097-35.152-1.432-185.66-1.895-186.5-.464-.843-1.754-96.528-2.036-151-.241-46.515-.792-66.823-2.048-75.5-.239-1.65-.424-19.59-.411-39.866.013-20.276-.439-40.526-1.006-45-.566-4.474-1.726-14.659-2.578-22.634-.852-7.975-1.993-16.3-2.535-18.5-.759-3.078-.502-6.765 1.116-16 4.149-23.686 4.429-30.531 1.877-46-.544-3.3-1.385-8.6-1.869-11.778-1.166-7.653-3.801-14.619-6.749-17.84-1.318-1.44-5.945-4.456-10.282-6.703-8.366-4.335-10.661-4.744-31.493-5.612-4.95-.206-10.287-.875-11.859-1.487-1.7-.662-5.348-.866-9-.504-3.828.38-7.271.162-9.141-.579-7.757-3.073-14.737-4.271-26.105-4.479-13.072-.239-15.668-.861-12.705-3.043 1.719-1.265 1.722-1.366.047-2.016-2.729-1.058-9.422-.89-18.737.47-6.201.905-14.044 1.016-29 .412-11.275-.456-22.75-.783-25.5-.728-2.75.055-12.2.09-21 .076-8.8-.013-25.729.078-37.621.201-18.445.192-21.85-.004-23.179-1.332-1.517-1.518-12.024-1.872-26.7-.899m212.008 2.315c-3.025 1.912.636 2.685 9.992 2.11 9.041-.556 9.336-.644 6.101-1.834-3.983-1.464-13.943-1.635-16.093-.276M335.75 128.723c1.788.222 4.712.222 6.5 0 1.788-.221.325-.403-3.25-.403s-5.038.182-3.25.403m-29.942 23.009c-1.929 2.323-.117 2.47 4.348.351l4.344-2.062-3.8.197c-2.09.109-4.292.79-4.892 1.514m60.661 165.217c.357.578 1.297 1.051 2.09 1.051.793 0 1.441.45 1.441 1s.477 1 1.059 1 .781-.45.441-1c-.352-.569.509-1 2-1 4.487 0 1.869-1.607-3.032-1.861-3.046-.158-4.425.122-3.999.81m11.101-.063c-.718 1.163 2.863 2.082 4.403 1.131.854-.528.72-.921-.471-1.378-2.261-.868-3.282-.803-3.932.247m6.43.953c0 .966 5.681.813 6.673-.179.363-.363-.99-.66-3.006-.66-2.017 0-3.667.378-3.667.839m22.418.912c.907.908 1.78.999 17.582 1.838 6.875.365 12.228.372 11.896.016-.333-.356-3.37-.686-6.75-.733-3.38-.048-6.147-.376-6.148-.729 0-.354-3.9-.755-8.665-.892-4.765-.137-8.327.088-7.915.5m243.597 791.499c-.009 98.213.346 160.75.913 160.75 1.304 0 1.391-318.015.088-320-.649-.988-.991 53.354-1.001 159.25M841.252 962.5c.011 2.2.216 2.982.455 1.738.239-1.244.23-3.044-.02-4s-.446.062-.435 2.262m24.816 39.45c-.052 2.63.21 3.172 1.099 2.283.864-.864.881-1.763.068-3.45-1.033-2.144-1.104-2.073-1.167 1.167m1.073 35.05c0 1.375.386 3.4.859 4.5.783 1.823.859 1.779.859-.5 0-1.375-.386-3.4-.859-4.5-.783-1.823-.859-1.779-.859.5m-253.657 34.493c.011 6.056.37 8.504 1.247 8.505 1.901.003 2.58-4.447 1.631-10.681-1.336-8.77-2.897-7.59-2.878 2.176m9.168 17.495c-.696 3.484 1.055 12.012 2.467 12.012 1.33 0 1.029-6.99-.489-11.349l-1.34-3.849-.638 3.186m11.741 2.594c.334.87.607 2.021.607 2.559 0 .537.408.725.906.417 1.149-.71.195-4.558-1.13-4.558-.544 0-.717.712-.383 1.582M616.867 1310.5c-1.891 3.131-3.411 27.475-1.894 30.338.485.914 1.225 2.562 1.645 3.662.6 1.573.911 1.039 1.456-2.5.642-4.171.691-4.025.663 2-.045 9.824 1.439 24.009 2.447 23.386 1.464-.905.88-34.242-.616-35.134-1.575-.941-2.902-7.252-1.524-7.252.562 0 .72-1.09.365-2.506-.346-1.379-.924-4.866-1.284-7.75-.36-2.884-.926-4.794-1.258-4.244m-172.348 168.495c-2.189.421-4.506.563-5.149.317-.642-.247-1.463.03-1.825.615-.449.726 2.055.986 7.898.818 4.704-.135 8.555-.534 8.555-.888.001-.353 2.768-.681 6.148-.729 3.38-.047 6.38-.32 6.666-.607.792-.792-17.758-.398-22.293.474M401 1480c0 .55-.648 1-1.441 1s-1.733.473-2.09 1.051c-.426.688.953.968 3.999.81 4.901-.254 7.519-1.861 3.032-1.861-1.491 0-2.352-.431-2-1 .34-.55.141-1-.441-1s-1.059.45-1.059 1m8.5 1.031c-1.785.673-1.819.829-.311 1.445.929.38 2.441.271 3.36-.243 2.262-1.266-.251-2.257-3.049-1.202m5.5.13c0 .461 1.65.839 3.667.839 2.016 0 3.369-.297 3.006-.66-.992-.992-6.673-1.145-6.673-.179m-79 164.717c0 1.542 2.398 2.72 6 2.945l3.5.22-4-1.988c-4.491-2.231-5.5-2.447-5.5-1.177m30.75 24.845c1.788.222 4.712.222 6.5 0 1.788-.221.325-.403-3.25-.403s-5.038.182-3.25.403m515.38 23.027c-.038 7.287.172 13.25.467 13.25 1.325 0 4.403-2.172 4.403-3.107 0-.57.675-1.711 1.5-2.536s1.5-2.593 1.5-3.928c0-1.492-.578-2.429-1.5-2.429-.825 0-1.5-.653-1.5-1.451 0-3.305-2.231-11.524-2.999-11.05-.457.283-1.049-.052-1.316-.743-.268-.691-.518 4.707-.555 11.994" fill-rule="evenodd"/></svg>