<svg xmlns="http://www.w3.org/2000/svg" width="1240" height="1753"><path d="M648 50.522c-2.475.796-6.106 1.454-8.068 1.463-1.963.008-5.788.652-8.5 1.431-2.713.779-6.957 1.732-9.432 2.12-2.475.387-6.075 1.311-8 2.053-1.925.743-4.625 1.542-6 1.777-1.375.235-5.298 1.374-8.718 2.53C595.861 63.053 591.5 64 589.591 64c-1.91 0-3.714.391-4.01.868-.295.478-2.801 1.169-5.569 1.536-2.769.367-7.992 1.582-11.608 2.698-3.616 1.117-7.773 2.175-9.239 2.35-1.466.176-2.89.423-3.165.549-.275.126-.95.297-1.5.378-.55.082-2.717.75-4.816 1.484-2.099.735-4.686 1.108-5.75.83-1.064-.278-1.934-.042-1.934.526 0 .634-1.25.773-3.25.36-4.283-.884-18.138-1.793-28.75-1.887-12.367-.109-15.661 1.124-28.898 10.819-1.869 1.369-3.091 2.489-2.716 2.489 1.609 0-21.25 18.561-24.386 19.801-1.457.576-10.583 9.717-16.349 16.376-4.071 4.701-6.36 9.625-7.134 15.346-.931 6.877-3.395 15.477-4.435 15.477-.473 0-1.459 2.025-2.19 4.5-.731 2.475-1.625 4.5-1.986 4.5-.362 0-1.496 2.925-2.52 6.5-1.125 3.93-2.403 6.5-3.231 6.5-.806 0-1.132.617-.793 1.5.316.825.252 1.505-.143 1.511-.703.012-2.702 3.964-5.56 10.989-.783 1.925-2.394 4.513-3.58 5.75-1.186 1.238-1.83 2.25-1.429 2.25.4 0-.258.918-1.461 2.039-1.204 1.121-2.189 2.548-2.189 3.171 0 .623-.595 1.843-1.322 2.711-.728.869-1.932 3.514-2.677 5.878-.744 2.364-2.062 4.713-2.927 5.22-.866.506-1.204.934-.753.951.452.016.147.705-.677 1.529-1.615 1.615-5.644 11.637-5.644 14.039 0 .804-.378 1.462-.839 1.462-.922 0-3.615 5.048-3.336 6.25.096.412-.207.75-.673.75-.467 0-2.563 5.215-4.66 11.588-2.096 6.373-4.383 12.16-5.083 12.86-1.428 1.428-3.922 9.747-4.961 16.552-.816 5.341-3.929 11.864-6.051 12.678-.831.319-1.286 1.168-1.011 1.886.276.719.161 1.448-.256 1.621-.416.173-2.64 4.059-4.942 8.634-2.301 4.576-4.86 8.996-5.686 9.822-2.021 2.021-1.899 3.582.248 3.169.962-.185 2.97-2.806 4.462-5.824 1.491-3.017 3.196-6.048 3.789-6.736.593-.688.75-1.25.35-1.25-.401 0 .257-.918 1.46-2.039 1.204-1.121 2.225-2.809 2.268-3.75.045-.967.292-1.187.568-.506.269.663-.172 2.688-.981 4.5-.809 1.812-2.586 5.77-3.949 8.795-1.363 3.025-2.785 6.625-3.16 8-1.355 4.965-2.702 6.775-4.661 6.262-1.043-.272-1.896.007-1.896.621 0 .615.788 1.153 1.75 1.196 1.045.047 1.247.282.5.583-.687.278-1.25 1.367-1.25 2.421 0 1.054-.45 1.917-1 1.917s-1 .455-1 1.01c0 2.071-8.521 11.81-10 11.429-1.773-.456-6.658 8.687-5.576 10.438.382.617.187 1.123-.432 1.123-.684 0-.869.813-.47 2.07.488 1.536.156 2.201-1.284 2.578-2.099.549-5.638 6.896-4.696 8.421.317.512.099.931-.483.931s-1.059.675-1.059 1.5.337 1.5.75 1.5c1.146 0 .958 5.399-.217 6.235-1.954 1.389-2.482.76-1.508-1.8 1.221-3.213 1.216-3.435-.084-3.435-.582 0-.781.45-.441 1s.214 1-.28 1c-.762 0-1.644 1.372-4.021 6.25-.201.412.304.75 1.124.75 1.23 0 1.288.435.333 2.502-.636 1.375-1.895 2.74-2.798 3.033-1.741.563-4.525 6.131-3.553 7.104.316.315-.298 1.511-1.365 2.656-2.039 2.189-2.647 4.26-.94 3.205 1.241-.767 1.251-.29.057 2.849-.518 1.364-1.778 2.745-2.8 3.07-2.44.774-4.997 7.506-3.26 8.579.869.537.9.947.11 1.436-1.593.984-1.362 4.757.45 7.343 1.357 1.939 1.366 2.223.067 2.223-.819 0-1.775.9-2.124 2-.349 1.1-1.009 2-1.467 2-.458 0-1.628 2.212-2.6 4.915-1.506 4.188-2.134 4.891-4.241 4.75-1.36-.091-2.661.362-2.89 1.006-.259.73.307.982 1.503.67 1.177-.308 2.154.109 2.526 1.078.333.87.223 1.581-.246 1.581s-1.165 2.925-1.548 6.5-1.074 6.5-1.536 6.5c-1.022 0-3.465 7.441-5.007 15.25-.773 3.915-1.611 5.75-2.624 5.75-.818 0-1.234.412-.923.915.311.503.169 1.065-.315 1.25-.484.184-2.778 5.059-5.097 10.833-2.32 5.773-4.565 10.723-4.989 11-.887.577-7.578 17.135-8.588 21.252-.371 1.513-1.124 2.75-1.673 2.75-.55 0-.74.675-.423 1.5.316.825.092 1.5-.498 1.5-.65 0-.923 1.58-.693 4 .21 2.2.032 4-.395 4-.427 0-.776.8-.776 1.777 0 .978-1.35 3.255-3 5.062-1.65 1.806-3 3.707-3 4.223 0 1.52 2.18 1.074 3.487-.713 1.952-2.67 2.434-.171.769 3.984-1.069 2.667-1.781 3.436-2.342 2.528-.607-.982-.966-.817-1.451.667-1.518 4.645-3.118 6.804-5.711 7.708-3.06 1.067-3.384 2.008-4.221 12.264-.741 9.076-2.699 18.5-3.844 18.5-.496 0-.642.675-.325 1.5.316.825.091 1.5-.5 1.5-.592 0-.817.675-.5 1.5.316.825.139 1.5-.393 1.5-.533 0-.969 1.264-.969 2.809 0 1.545-.661 3.682-1.468 4.75-.808 1.067-1.483 2.94-1.5 4.161-.032 2.19-2.326 6.878-5.922 12.102-4.741 6.887-8.11 12.64-8.11 13.849 0 .731-.723 1.329-1.607 1.329-1.018 0-1.396.55-1.031 1.5.316.825.177 1.5-.31 1.5s-1.055-.51-1.263-1.134c-.579-1.736-3.789 1.917-3.789 4.312 0 1.367.476 1.853 1.449 1.48 2.432-.933.686 1.932-2.078 3.411-1.864.998-2.408 1.956-2.081 3.666.243 1.274-.061 2.642-.675 3.04-.615.399-1.793 2.075-2.617 3.725-.824 1.65-2.126 3.492-2.894 4.094-.85.665-1.198 2.134-.889 3.75.279 1.461.094 2.656-.413 2.656-.506 0-.661.419-.345.931.317.512.088 1.232-.509 1.601-.596.369-.843 1.3-.548 2.069.296.77.151 1.399-.321 1.399-.473 0-2.78 4.837-5.128 10.75-2.349 5.913-4.635 11.23-5.08 11.816-.446.587-.92 2.5-1.054 4.25-.133 1.751-.672 3.184-1.196 3.184-.525 0-.672.282-.328.627.345.345-.054 1.945-.887 3.556-.834 1.611-1.677 4.141-1.875 5.623-.198 1.482-.671 3.482-1.052 4.444-.486 1.228-.214 1.75.914 1.75.884 0 1.495-.506 1.357-1.125-.137-.619.313-1.331 1-1.583 3.442-1.262-1.189 8.538-6.241 13.208-2.589 2.393-3.78 4.921-5.891 12.5-1.455 5.225-2.871 11.262-3.147 13.416-.276 2.153-.983 4.496-1.572 5.206-.589.71-.781 1.76-.426 2.334.355.574.117 1.044-.527 1.044-.732 0-1.009 1.118-.736 2.976.24 1.636.088 3.099-.338 3.25-.425.151-.908 2.749-1.073 5.774-.164 3.025-.613 5.737-.997 6.027-.383.289-.833 3.324-1 6.744-.166 3.419-.688 6.22-1.159 6.223-.471.003-.598.681-.281 1.506.316.825.139 1.5-.393 1.5-.553 0-.969 3.861-.969 9 0 4.95.408 9 .906 9 .499 0 .694.814.434 1.809-.313 1.197.311 2.178 1.843 2.899 1.274.6 4.716 3.161 7.649 5.691 2.932 2.531 5.864 4.601 6.514 4.601.651 0 2.834.884 4.85 1.965 4.607 2.469 17.442 5.506 29.804 7.051 11.047 1.381 44.104 7.961 57 11.347 3.025.794 9.797 2.168 15.049 3.053 5.252.885 11.099 2.053 12.994 2.596 1.894.543 5.022.993 6.95 1 1.929.006 5.982.726 9.007 1.6 17.411 5.026 70.389 15.312 83.023 16.118 4.64.296 8.826-.207 14.5-1.743 4.387-1.188 11.699-2.332 16.247-2.542 8.464-.391 12.527-2.03 13.721-5.535.298-.874 1.61-2.161 2.915-2.86 2.561-1.37 4.976-5.622 4.048-7.125-.315-.509-.113-.925.448-.925.974 0 3.063-6.208 3.549-10.548.126-1.127 1.871-4.615 3.877-7.75 2.006-3.136 3.446-5.702 3.2-5.702s1.146-3.135 3.092-6.967c1.947-3.831 3.335-7.319 3.085-7.75-.25-.43-.093-1.683.35-2.783.683-1.698.815-1.736.875-.25.091 2.273 2.686 2.273 3.34 0 .277-.962.827-2.538 1.224-3.5.51-1.24.251-1.75-.887-1.75-.884 0-1.607-.45-1.607-1s.361-1 .802-1c.441 0 .844-1.508.897-3.35.052-1.843.91-4.88 1.906-6.75 1.798-3.376 2.03-3.977 2.27-5.9.069-.55 1.475-1 3.125-1 2.84 0 3-.216 3-4.053 0-2.676.85-5.304 2.5-7.732 1.375-2.024 2.5-4.212 2.5-4.864 0-.651.476-1.343 1.057-1.537.718-.239.758-1.684.123-4.506-.594-2.648-.58-4.508.04-5.128 1.555-1.555 1.361-8.2-.27-9.232-1.159-.733-1.177-.92-.087-.933.945-.01 1.229-.938.924-3.015-.242-1.65-.099-3 .319-3 .417 0 1.055-.933 1.417-2.073.448-1.411.07-2.507-1.182-3.429-1.735-1.277-1.74-1.394-.091-2.034.962-.373 1.75-1.282 1.75-2.021 0-.739.788-1.802 1.75-2.363.962-.561 1.357-1.033.878-1.05-.48-.016-.329-.685.336-1.486 1.602-1.931.53-3.486-1.954-2.836-1.093.285-1.797.827-1.565 1.203.233.377.059 1.274-.386 1.994-1.219 1.971-1.04-4.012.19-6.342 1.769-3.354 3.071-4.225 5.597-3.742 1.67.32 2.226.104 1.744-.676-.39-.63-.24-1.145.332-1.145.572 0 1.314-1.092 1.649-2.428.335-1.335 1.18-2.646 1.877-2.914.697-.267 1.562-1.958 1.922-3.756.359-1.799 1.413-4.109 2.34-5.134 1.788-1.976 2.188-3.308 2.559-8.514.127-1.785.568-3.247.981-3.25.413-.002.75-1.151.75-2.554 0-1.402.655-3.816 1.456-5.365.801-1.549 1.656-3.916 1.899-5.261.244-1.345 1.277-3.794 2.294-5.442 1.538-2.49 2.275-2.878 4.351-2.29 5.051 1.431 6 1.095 6-2.124 0-1.668.675-4.648 1.5-6.622.825-1.975 1.5-4.687 1.5-6.027 0-1.37.438-2.166 1-1.819.55.34 1-.166 1-1.125s.886-3.573 1.968-5.809c2.935-6.063 6.081-15.678 5.459-16.683-.3-.486-.178-.883.271-.883.802 0 3.302-6.889 3.302-9.1 0-.622 1.575-4.494 3.5-8.604 1.925-4.111 3.5-8.048 3.5-8.75s.874-2.387 1.942-3.745C554.003 605.18 562 590.159 562 588.907c0-.408.886-2.809 1.97-5.337 1.083-2.528 1.945-4.877 1.915-5.221-.031-.344.339-.901.822-1.237.483-.337 2.385-4.212 4.226-8.612 1.841-4.4 4.288-10.025 5.438-12.5 1.15-2.475 1.987-4.837 1.86-5.25-.127-.412.17-.75.661-.75.49 0 1.197-1.237 1.57-2.75s4.072-9.698 8.22-18.19c4.147-8.492 8.152-17.174 8.9-19.292 2.467-6.993 3.487-7.212 9.009-1.939 2.69 2.569 4.783 5.008 4.65 5.421-.132.413.179.75.692.75.513 0 1.208.868 1.544 1.928.337 1.061 2.781 4.098 5.432 6.75 6.255 6.257 7.201 8.222 6.495 13.491-.524 3.913-.21 4.814 3.258 9.331 2.111 2.75 4.589 5.562 5.506 6.249.917.687 2.678 2.937 3.912 5 1.235 2.063 3.289 4.696 4.565 5.852 1.276 1.156 2.027 2.393 1.671 2.75-.357.357-.18.649.393.649.574 0 2.748 3.263 4.832 7.25 2.084 3.987 4.167 7.401 4.63 7.585.463.185.587.747.276 1.25-.311.503-.062.915.553.915s.864.412.553.915c-.311.503-.157 1.065.343 1.25.5.184 2.774 4.273 5.054 9.085 2.28 4.813 4.532 8.75 5.004 8.75.472 0 .623.9.336 2-.288 1.1-.075 2 .472 2 1.363 0 3.59 5.621 2.76 6.964-.369.597-.154.962.477.811.632-.151 1.874 1.525 2.76 3.725.886 2.2 1.978 4.15 2.426 4.333.448.184.815 1.421.815 2.75 0 1.482.58 2.417 1.5 2.417.825 0 1.533.563 1.574 1.25.227 3.814 1.184 6.242 2.946 7.476 1.089.763 1.98 2.428 1.98 3.7 0 1.272 1.716 4.509 3.814 7.193 2.097 2.685 5.043 7.772 6.546 11.305 1.504 3.533 3.5 6.998 4.437 7.7 1.506 1.129 1.424 1.206-.705.668-2.152-.543-2.34-.352-1.764 1.8.355 1.324.651 2.697.658 3.051.027 1.26 3.367 1.904 4.06.783.408-.661 1.479.906 2.538 3.716 1.008 2.672 2.654 6.27 3.657 7.996 1.003 1.726 2.74 6.443 3.86 10.483 1.119 4.04 2.567 7.683 3.217 8.097.787.5.597.756-.568.767-.962.008-1.75.69-1.75 1.515s.525 1.5 1.167 1.5c.641 0 .893.273.56.606-.334.334.164 1.434 1.107 2.446.942 1.011 2.553 5.576 3.579 10.143 2.056 9.146 5.468 20.743 6.563 22.305.385.55 2.21 5.275 4.054 10.5 1.844 5.225 3.716 9.65 4.161 9.833.445.184.809.971.809 1.75 0 .78.525 1.417 1.167 1.417.641 0 .878.289.525.641-.353.353 1.983 3.234 5.191 6.403 4.901 4.84 13.188 15.985 9.077 12.206-.748-.687-1.945-1.25-2.66-1.25-2.392 0-1.335 3.571 2.2 7.43 1.925 2.102 3.5 4.665 3.5 5.696 0 1.031.477 1.874 1.059 1.874s.781.45.441 1-.066 1 .608 1c.674 0 .929.296.567.658-.362.362-.156 1.262.456 2 .613.738.802 1.342.42 1.342-.382 0 .013.707.878 1.571.864.865 1.571 2.44 1.571 3.5 0 1.061.408 1.929.906 1.929.989 0 4.365 9.062 3.645 9.782-.602.602-4.45-5.737-5.18-8.532-.323-1.237-1.016-2.25-1.538-2.25-.523 0-.671-.453-.328-1.008.342-.554-.081-1.711-.941-2.571-.86-.86-1.564-2.138-1.564-2.839 0-.702-.844-2.249-1.875-3.438l-1.875-2.162v2.509c0 1.38.354 2.509.786 2.509.432 0 2.004 3.825 3.493 8.5 1.488 4.675 3.13 8.5 3.648 8.5.517 0 .663.45.323 1s-.195 1 .322 1 1.453 2.033 2.078 4.518c.661 2.624 2.646 6.188 4.735 8.5 1.979 2.19 3.208 3.996 2.731 4.012-.476.017-.069.495.905 1.062.974.567 1.542 1.402 1.261 1.856-.28.453.43 1.07 1.578 1.371 1.685.44 1.99.172 1.582-1.388-.278-1.064-.097-1.682.401-1.373.499.308.907 1.124.907 1.814 0 3.055 12.395 11.633 14.2 9.828.677-.677 1.903-.731 3.427-.152 1.518.577 2.373.542 2.373-.098 0-.551 1.328-.315 2.95.524 3.914 2.024 5.05 1.924 5.05-.443 0-1.425.459-1.792 1.664-1.33 1.119.43 1.427.256.941-.531-.438-.709-.086-1.17.895-1.17.89 0 1.34-.45 1-1-.385-.623 1.603-1 5.28-1 5.579 0 6.096.213 9.528 3.923 1.996 2.157 4.656 4.218 5.911 4.579 1.254.361 3.846 1.366 5.759 2.233 3.686 1.67 6.5 1.844 11.762.728 1.878-.398 2.968-1.126 2.594-1.731-.426-.691.593-.843 3.011-.451 2.01.326 3.655.187 3.655-.309 0-1.514 3.878-3.085 8.558-3.466 2.673-.218 4.442.057 4.442.691 0 .65 1.216.81 3.177.418 3.911-.783 4.679-1.468 2.886-2.576-.857-.53.533-.793 3.672-.696 3.754.117 5.603-.342 7.201-1.787 1.829-1.653 2.052-1.689 1.496-.239-.515 1.342-.257 1.563 1.207 1.039 1.023-.367 2.311-.988 2.861-1.381 1.356-.968 8.083-3.101 10.798-3.423 1.211-.143 4.452-1.063 7.202-2.043 2.75-.98 5.879-1.742 6.954-1.692 1.075.049 2.425-.261 3-.688.575-.428 3.971-1.599 7.546-2.602s7.184-2.579 8.02-3.502c.836-.923 2.073-1.494 2.75-1.268.676.225 1.23-.078 1.23-.674 0-.596-.45-1.083-1-1.083s-1-.498-1-1.107.624-.868 1.387-.575c.92.353 1.245-.031.965-1.143-.274-1.088.537-2.113 2.313-2.925 3.263-1.492 7.335-1.641 7.335-.27 0 1.389 6.076.516 7.017-1.008.488-.79 1.864-1.046 3.673-.684 1.863.373 4.479-.156 7.351-1.486 4.98-2.305 13.144-2.723 15.47-.793 1.714 1.423 5.419.882 11.244-1.642 3.149-1.364 3.995-2.265 3.995-4.257 0-1.39.506-2.695 1.125-2.902.619-.206 1.125-.96 1.125-1.676 0-.827 1.998-1.551 5.483-1.987 5.924-.74 7.517-.29 7.517 2.125 0 1.223.72 1.418 3.393.916 2.785-.522 3.368-.337 3.25 1.031-.079.917.42 1.866 1.107 2.109.727.256 1.25-.386 1.25-1.536 0-2.434 2.096-3.383 3.695-1.671.652.697.99 1.462.753 1.7-.238.238.923.233 2.579-.01 2.565-.376 2.972-.833 2.743-3.075-.252-2.456.003-2.634 3.782-2.634 3.403 0 4.044.32 4 2-.035 1.365.704 2.107 2.328 2.337 2.121.3 2.308.049 1.718-2.304l-.663-2.64 6.283.632c3.455.348 6.739.767 7.298.932 1.725.51 12.95-2.106 15.279-3.561 2.317-1.447 2.998-3.896 1.083-3.896-.752 0-.69-.522.186-1.577 2-2.41 1.604-18.47-.484-19.638-1.018-.57-1.58-2.269-1.58-4.776 0-2.14-.399-4.138-.887-4.439-.487-.301-1.204-2.24-1.592-4.309-.685-3.655-5.313-14.252-6.666-15.263-.37-.277-1.398-3.306-2.286-6.731-.888-3.426-2.454-7.7-3.482-9.498-1.027-1.798-2.435-5.057-3.128-7.241-.694-2.185-1.868-4.58-2.61-5.322-.742-.742-1.349-1.992-1.349-2.777 0-.786-.388-1.429-.861-1.429-.722 0-5.139-10.062-5.139-11.706 0-.29.9-.292 2-.004 1.1.287 2 .402 2 .254 0-.148-1.277-3.368-2.837-7.156-2.885-7.006-2.993-9.037-.582-10.974 1.123-.901 1.004-2.004-.698-6.5-1.127-2.978-3.042-6.764-4.255-8.414-1.214-1.65-3.045-4.913-4.069-7.25-1.025-2.337-2.244-4.306-2.711-4.375-.466-.069-1.261-.181-1.765-.25s-1.254-.462-1.666-.875c-.413-.413-1.748-.75-2.967-.75-2.377 0-4.206-3.915-2.361-5.055 1.681-1.039-1.041-5.881-2.963-5.272-1.334.423-1.371.335-.205-.493 1.215-.863 1.179-1.379-.25-3.559-.919-1.403-1.663-3.129-1.654-3.836.009-.707.953.177 2.098 1.965 1.145 1.787 2.487 3.25 2.983 3.25 1.26 0 1.184-.282-1.331-4.995-2.193-4.108-5.06-6.56-6.575-5.623-1.044.645-6.451-9.131-5.897-10.661.248-.682 1.001-.032 1.709 1.474.697 1.482 1.891 2.935 2.655 3.227 1.036.398 1.162.095.497-1.195-.49-.95-1.67-3.401-2.623-5.448-1.237-2.655-2.301-3.657-3.718-3.5-1.472.164-2.399-.814-3.585-3.779-.88-2.2-1.97-4.151-2.421-4.335-.452-.185-.567-.747-.256-1.25.311-.503.088-.915-.494-.915s-1.059-.52-1.059-1.155c0-.69.736-.489 1.831.502 2.143 1.939 3.722 1.063 1.711-.948-.75-.75-1.629-1.934-1.953-2.631-.459-.988-.729-.959-1.222.13-.397.877-1.551-.799-3.1-4.5-1.358-3.244-3.034-6.573-3.726-7.398-.692-.825-1.753-2.976-2.358-4.78-.605-1.804-1.798-3.977-2.651-4.83-.853-.853-1.292-1.969-.977-2.48.99-1.601-.536-4.672-2.588-5.208-1.138-.298-1.967-1.367-1.967-2.537 0-1.112-.654-2.676-1.452-3.475-.799-.798-1.174-1.73-.834-2.071.341-.34.019-.619-.714-.619s-1.048-.285-.7-.634c.349-.348-1.744-3.386-4.651-6.75-5.388-6.235-10.377-16.311-10.084-20.366.123-1.712-.374-2.25-2.079-2.25-2.813 0-3.827-1.231-6.227-7.554-3.613-9.519-4.762-11.525-6.915-12.07-1.36-.344-3.359-2.82-5.417-6.711-1.793-3.391-3.748-6.496-4.344-6.9-.595-.404-.728-.741-.294-.75.434-.008-.119-.989-1.228-2.18-1.282-1.376-1.818-2.954-1.473-4.331.575-2.29-3.638-12.463-7.74-18.691a642.244 642.244 0 0 1-3.546-5.439c-.925-1.447-1.398-1.583-2.076-.597-.628.915-1.424.137-2.802-2.738-1.058-2.209-2.374-4.026-2.924-4.039-.55-.013-1.86-1.818-2.911-4.011-1.051-2.194-2.288-3.989-2.75-3.989-.461 0-.839-.627-.839-1.393s-.704-1.663-1.563-1.993c-.86-.33-1.287-1.048-.948-1.595.367-.596-.075-.731-1.101-.338-1.164.447-1.484.283-.993-.511.398-.644.246-1.17-.336-1.17-.582 0-1.059-.845-1.059-1.878 0-1.032-.602-2.377-1.338-2.988-.736-.61-1.903-2.996-2.594-5.3-.69-2.304-1.935-5.347-2.766-6.762-1.322-2.25-1.18-2.197 1.134.428 1.455 1.65 3.583 5.137 4.728 7.75 1.145 2.613 2.552 4.75 3.126 4.75.574 0 .781.263.46.583-.321.321.317 1.484 1.417 2.584s2.263 1.736 2.586 1.413c.78-.78-3.884-10.86-5.499-11.884-1.886-1.195-5.051-7.984-4.479-9.605.332-.94-.007-1.216-1.017-.828-.833.319-2.085.053-2.783-.591-.997-.921-1.137-.797-.654.578.402 1.141.116 1.75-.821 1.75-.867 0-1.209-.595-.862-1.5.317-.825.132-1.5-.41-1.5s-1.531-1.462-2.197-3.25c-2.119-5.683-8.419-20.231-8.986-20.75-1.308-1.2-5.229-9.232-4.194-8.592.69.426 1.149.044 1.149-.956 0-.978-.551-1.455-1.334-1.154-.839.322-1.788-.747-2.56-2.883-.676-1.867-1.908-4.074-2.738-4.905-1.348-1.347-1.341-1.51.061-1.51.864 0 1.571-.48 1.571-1.067s-.81-.811-1.799-.497c-1.385.44-2.352-.522-4.204-4.182-3.933-7.774-4.99-10.368-3.965-9.734.532.329.968.121.968-.461 0-.582-.436-1.059-.969-1.059-.532 0-.725-.634-.427-1.41.326-.849-.289-1.673-1.546-2.072-1.148-.364-1.829-1.08-1.514-1.59.316-.51.146-.928-.377-.928-.522 0-1.253-1.205-1.622-2.678-.37-1.473-1.938-5.41-3.485-8.75-1.548-3.34-3.124-7.084-3.504-8.322-.38-1.238-1.11-2.25-1.623-2.25-.513 0-.837-.337-.721-.75.117-.412-.279-1.65-.879-2.75-.601-1.1-2.775-5.937-4.831-10.75-2.057-4.812-4.162-8.75-4.68-8.75-.517 0-.662-.45-.322-1s.15-1-.422-1-1.338-1.238-1.702-2.75c-.364-1.512-1.722-4.772-3.019-7.242-1.297-2.471-2.632-5.959-2.968-7.75-.337-1.792-1.174-3.258-1.862-3.258-.807 0-1.073-.922-.751-2.606.274-1.434.072-2.896-.449-3.25-.522-.354-2.697-5.369-4.834-11.144-2.138-5.775-4.251-10.651-4.696-10.835-.445-.185-.555-.747-.244-1.25.311-.503.088-.915-.494-.915s-.985-.337-.895-.75c.09-.413-.746-2.775-1.857-5.25-1.11-2.475-3.044-7.312-4.297-10.75-1.253-3.437-2.694-6.25-3.203-6.25-.509 0-.647-.45-.307-1s.093-1-.548-1-.907-.675-.59-1.5c.316-.825.221-1.5-.211-1.5-1.56 0-7.387-15.97-7.33-20.09.031-2.256-.312-5.072-.763-6.256-.45-1.185-.904-2.604-1.009-3.154-.106-.55-.882-1.763-1.725-2.695-2.247-2.482-8.324-14.892-8.324-16.998 0-.994-.382-1.807-.848-1.807-.691 0-4.138-6.889-4.544-9.081-.299-1.614-5.209-11.464-5.858-11.752-.413-.184-.75-1.196-.75-2.25s-.355-1.917-.789-1.917c-.434 0-1.879-2.475-3.211-5.5-1.332-3.025-2.719-5.5-3.083-5.5-.364 0-.933-1.687-1.264-3.75-.355-2.207-1.436-4.268-2.628-5.008-1.114-.693-2.025-2.161-2.025-3.264 0-1.103-.393-2.787-.874-3.742-3.545-7.04-4.962-10.279-6.119-13.986-.73-2.338-1.732-4.25-2.226-4.25-.495 0-.621-.45-.281-1 .34-.55.141-1-.441-1s-1.059-.503-1.059-1.118c0-1.791-8.108-19.348-9.106-19.717-.499-.185-.652-.747-.341-1.25s.179-.915-.294-.915c-.472 0-2.614-3.6-4.759-8-2.145-4.4-4.287-8-4.759-8-.473 0-.581-.45-.241-1 .34-.55.153-1-.415-1-.569 0-1.679-1.237-2.469-2.75-.789-1.513-3.243-4.758-5.453-7.213-2.21-2.455-3.829-4.768-3.599-5.14.44-.712-4.321-3.163-8.564-4.408-1.375-.404-3.131-1.241-3.902-1.861-2.294-1.846-53.406-1.938-59.098-.106m-128.393 43.06c-.834 2.174-.762 4.418.143 4.416.413-.002.798-1.352.856-3 .12-3.378-.117-3.714-.999-1.416m-92.348 93.146c-.948.33-.905.768.179 1.852 1.584 1.585 2.989 1.921 2.115.505-.311-.503-.023-1.095.64-1.316.835-.278.76-.567-.244-.938-.797-.295-2.007-.342-2.69-.103M347.19 322.47c.379.409.243 1.258-.303 1.887-2.043 2.354-7.563 14.725-6.785 15.206.988.611 3.227-2.697 5.459-8.063.915-2.2 2.018-4.225 2.451-4.5 1.494-.948 1.486-4.293-.012-4.783-.825-.27-1.19-.156-.81.253m-7.785 19.375c.414.671.104 1.155-.739 1.155-1.662 0-3.004 2.673-1.736 3.457.805.497 1.967-.567 3.431-3.138.369-.649.145-1.506-.499-1.904-.731-.452-.903-.291-.457.43M883 402.778c0 .806 3.65 4.222 4.511 4.222 1.029 0 .422-1.924-1.082-3.429-1.674-1.673-3.429-2.079-3.429-.793m8.567 13.472c1.137 3.643 4.65 5.294 3.723 1.75-.288-1.1-1.172-2-1.966-2-.793 0-1.164-.45-.824-1 .34-.55.111-1-.508-1-.71 0-.867.833-.425 2.25m-593.065 13.744c-.348 1.097-1.307 2.668-2.131 3.492-.824.824-1.23 1.932-.903 2.463.933 1.51 3.532.041 3.532-1.997 0-1.009.45-2.112 1-2.452 1.262-.78 1.315-3.5.067-3.5-.513 0-1.217.897-1.565 1.994m-4.919 9.649c-.346.904-.459 1.814-.25 2.024.814.813 3.667-.956 3.667-2.274 0-1.942-2.65-1.748-3.417.25m-4.976 10.939c-.851 2.218-.786 2.418.786 2.418 1.162 0 2.607-1.985 2.607-3.582 0-1.181-2.871-.197-3.393 1.164M282 465.071c0 .59-.675 1.747-1.5 2.572-2.16 2.159-1.855 3.107 1 3.107 2.62 0 3.393-1.26 1.25-2.036-.721-.26-.086-.999 1.5-1.743 3.427-1.61 3.542-2.971.25-2.971-1.375 0-2.5.482-2.5 1.071m-5.646 12.907c-.327 1.637-1.216 3.492-1.975 4.122-1.822 1.513-1.753 2.9.146 2.9 1.475 0 2.795-2.444 4.075-7.544.383-1.526.188-2.456-.517-2.456-.623 0-1.401 1.34-1.729 2.978m654.008-1.478c.363.946-.012 1.5-1.016 1.5-1.295 0-1.361.276-.355 1.489.68.819 1.658 1.228 2.175.909.516-.32 1.459.798 2.096 2.484.636 1.685 1.802 3.312 2.59 3.615 1.777.682 2.982-.351 1.519-1.301-1.709-1.11-3.601-5.196-2.406-5.196.569 0 1.035-.498 1.035-1.107s-.652-.857-1.449-.551c-.876.336-1.693-.214-2.067-1.393-.34-1.072-1.087-1.949-1.658-1.949-.572 0-.781.675-.464 1.5M271 490.5c0 .825.675 1.5 1.5 1.5s1.5-.675 1.5-1.5-.675-1.5-1.5-1.5-1.5.675-1.5 1.5m-3.541 6.567c-.363.586-.419 1.306-.126 1.6.717.716 2.667-.546 2.667-1.726 0-1.278-1.726-1.193-2.541.126m-3 9c-.363.586-.419 1.306-.126 1.6.717.716 2.667-.546 2.667-1.726 0-1.278-1.726-1.193-2.541.126m-2.31 4.537c-.743.84-1.145 1.734-.893 1.985.873.874 3.744-.81 3.744-2.196 0-1.8-1.148-1.715-2.851.211M258 522.071c0 .59-.675 1.747-1.5 2.572s-1.5 2.423-1.5 3.551c0 1.71.25 1.844 1.5.806.825-.685 1.5-2.09 1.5-3.122 0-1.033.675-1.878 1.5-1.878s1.5-.675 1.5-1.5-.675-1.5-1.5-1.5-1.5.482-1.5 1.071m-5.75 11.425c-1.809 2.055-1.561 2.507 1.25 2.275 1.375-.114 2.5-.297 2.5-.407 0-.11-.273-.912-.607-1.782-.739-1.927-1.504-1.947-3.143-.086m711.75.1c0 .327.772 1.902 1.716 3.5C967.337 539.84 971 541.16 971 539c0-.55-.374-1-.831-1-.457 0-1.433-1.125-2.169-2.5-1.173-2.191-4-3.537-4-1.904M250 540.5c0 .825.675 1.5 1.5 1.5s1.5-.675 1.5-1.5-.675-1.5-1.5-1.5-1.5.675-1.5 1.5m0 19.5c0 1.111.667 2 1.5 2s1.5-.889 1.5-2-.667-2-1.5-2-1.5.889-1.5 2m743 32.5c0 .825.675 1.5 1.5 1.5s1.5-.675 1.5-1.5-.675-1.5-1.5-1.5-1.5.675-1.5 1.5m-760.496 9.488c-.911 2.744-2.073 5.245-2.58 5.559-1.395.862-1.108 2.453.443 2.453 1.328 0 5.633-8.89 5.633-11.633 0-3.066-1.943-1.053-3.496 3.621M1011 618.878c0 .482.635 1.404 1.411 2.048 1.069.887 1.585.89 2.128.011.395-.638.097-1.553-.661-2.033-1.774-1.124-2.878-1.134-2.878-.026m-788.75 8.842c-1.409.504-1.733 4.28-.367 4.28.486 0 1.143-.993 1.461-2.206.665-2.544.595-2.677-1.094-2.074M217 638.5c0 .825.675 1.5 1.5 1.5s1.5-.675 1.5-1.5-.675-1.5-1.5-1.5-1.5.675-1.5 1.5m809 9.417c0 1.054.338 2.066.75 2.25.412.183 2.325 3.367 4.25 7.075 1.925 3.707 3.725 6.738 4 6.734.275-.004 1.175-.45 2-.991 1.333-.876 1.333-1.094 0-1.97-.825-.541-1.05-1.005-.5-1.03.55-.025.246-.486-.675-1.023-.921-.538-2.214-2.661-2.873-4.72-1.192-3.723-4.551-8.242-6.126-8.242-.454 0-.826.862-.826 1.917m11 18.906c0 1.869 6.069 13.177 7.072 13.177 2.149 0-1.696-11.405-4.462-13.235-1.479-.979-2.61-.954-2.61.058M707.015 692.75c.009.413.434 1.412.946 2.221 1.152 1.822 2.504.682 1.694-1.428-.598-1.558-2.668-2.18-2.64-.793M1069 769.5c0 .825.675 1.5 1.5 1.5s1.5-.675 1.5-1.5-.675-1.5-1.5-1.5-1.5.675-1.5 1.5m-328 10c0 .825.675 1.5 1.5 1.5s1.5-.675 1.5-1.5-.675-1.5-1.5-1.5-1.5.675-1.5 1.5m23.283 27.304c-.915.581-.714 1.602.803 4.098 1.112 1.828 2.205 3.141 2.428 2.917.683-.682-.69-4.819-1.599-4.819-.469 0-.593-.675-.277-1.5.647-1.686.402-1.812-1.355-.696M854.5 852c-.34.55-1.566 1-2.726 1-1.159 0-1.853.254-1.543.564.909.909 7.806-.694 7.201-1.674-.731-1.183-2.166-1.13-2.932.11M52 1121.5c0 .825.675 1.5 1.5 1.5s1.5-.675 1.5-1.5-.675-1.5-1.5-1.5-1.5.675-1.5 1.5m4.385.939c-.304.791-1.847 1.723-3.429 2.071-2.265.497-3.43 1.8-5.471 6.113-1.426 3.015-3.244 5.731-4.039 6.036-.795.305-1.446 1.182-1.446 1.948 0 2.424 2.931 1.511 5.766-1.797 1.504-1.755 5.138-5.64 8.077-8.634 4.033-4.107 5.014-5.652 4-6.294-1.931-1.224-2.83-1.079-3.458.557" fill-rule="evenodd"/></svg>