<svg xmlns="http://www.w3.org/2000/svg" width="1240" height="1753"><path d="M646.5 41.899c-3.85.398-8.037 1.288-9.305 1.977-1.268.69-2.843 1.067-3.5.839-.657-.229-2.995.216-5.195.988-2.2.771-6.925 2.229-10.5 3.238-6.909 1.951-14.479 4.899-22.261 8.669-2.619 1.268-7.558 2.813-10.974 3.433-3.417.619-7.06 1.58-8.096 2.134-1.036.555-5.773 2.334-10.526 3.954-4.754 1.621-9.318 3.225-10.143 3.566-.825.341-1.837.549-2.25.462-.413-.088-.75.216-.75.674 0 .459-.562.866-1.25.905-.687.039-3.695.568-6.684 1.176-2.989.607-6.139.899-7 .649-.861-.251-7.596-.951-14.966-1.555-18.096-1.485-21.923-.371-31.1 9.051-3.575 3.67-7.4 7.966-8.5 9.546-2.345 3.368-8.214 9.869-18.115 20.063-7.379 7.598-10.386 11.656-16.174 21.832-5.233 9.201-7.066 14.64-8.271 24.557-.686 5.639-2.976 14.802-6.023 24.098-2.705 8.25-4.917 15.865-4.917 16.922 0 1.058-.398 1.923-.883 1.923-.486 0-1.107 1.012-1.38 2.25-1.037 4.708-5.151 15.562-8.87 23.402-2.127 4.484-3.867 8.69-3.867 9.346 0 .656-.618 2.388-1.373 3.848-.754 1.46-1.914 4.454-2.577 6.654-.662 2.2-2.495 7.15-4.074 11-3.447 8.407-12.976 37.895-12.976 40.155 0 .88-1.767 7.339-3.928 14.353-2.16 7.014-4.449 16.519-5.086 21.122-.637 4.604-1.842 10.248-2.679 12.543-.836 2.295-1.237 4.632-.89 5.193.611.989-2.436 15.575-4.521 21.634-.567 1.65-1.95 6.15-3.073 10-1.123 3.85-3.07 9.475-4.329 12.5-1.258 3.025-2.612 6.625-3.009 8-.397 1.375-1.323 3.188-2.057 4.028-.735.841-3.43 5.566-5.99 10.5-2.687 5.181-4.413 7.704-4.086 5.972.503-2.66.348-2.547-1.366 1-2.138 4.422-2.472 6.5-1.047 6.5.517 0 .25 2.025-.594 4.501-.843 2.475-1.883 4.284-2.311 4.02-.952-.588-4.489 8.357-3.64 9.206.333.334.606-.144.606-1.06 0-.917.406-1.667.902-1.667s.271 2.097-.5 4.659-1.402 6.13-1.402 7.929c0 1.798-.788 4.042-1.75 4.987-.962.945-2.739 4.24-3.948 7.322-1.21 3.081-2.234 4.928-2.277 4.103-.042-.825-.903.3-1.912 2.5-1.316 2.87-1.539 4.375-.788 5.326.721.914.724 1.536.01 2-1.447.942-3.847 5.609-2.435 4.736 1.4-.865 1.405 1.265.012 5.26-.598 1.716-1.572 3.02-2.165 2.899-.593-.122-1.42 1.129-1.837 2.779a962.603 962.603 0 0 0-1.371 5.5c-.337 1.375.279.475 1.369-2 2.64-5.999 2.62-3.535-.033 4.134-1.76 5.084-1.94 6.748-1.045 9.662.923 3.008.788 3.932-.927 6.34-3.172 4.454-6.802 16.395-7.993 26.285-.601 4.993-1.752 10.551-2.558 12.349-1.662 3.709-4.309 15.46-4.335 19.245-.009 1.383-.993 4.308-2.185 6.5-1.192 2.192-2.932 6.685-3.865 9.985-.934 3.3-3.829 12.525-6.435 20.5-7.501 22.956-9.582 30.673-10.542 39.091-.882 7.731-2.129 11.427-4.526 13.409-1.446 1.197-2.61 5.5-1.487 5.5.434 0 1.037-.945 1.339-2.101.302-1.155.991-1.827 1.531-1.493.54.333 1.21.041 1.489-.65.278-.691.539-.356.579.744.113 3.075-1.717 8.872-3.487 11.046-1.412 1.734-1.527 1.751-1.021.152.333-1.053.159-1.548-.418-1.191-.544.336-.989 1.469-.989 2.518 0 3.118-3.022 8.509-5.341 9.527-1.981.87-2.258 2.143-3.365 15.448-.663 7.975-1.686 16.525-2.272 19-.587 2.475-1.554 7.425-2.15 11-.595 3.575-1.5 7.306-2.011 8.29-.51.985-1.371 4.135-1.914 7-.542 2.866-2.327 7.994-3.966 11.397-1.64 3.403-2.981 6.535-2.981 6.96 0 .426-1.426 3.717-3.168 7.313-4.954 10.225-5.395 11.254-6.875 16.04-.765 2.475-1.914 4.95-2.553 5.5-.639.55-1.429 3.111-1.756 5.69-.566 4.471-8.081 28.209-9.596 30.31-.666.925-3.633 10.486-6.206 20-.595 2.2-1.883 6.025-2.862 8.5-1.116 2.823-1.717 6.736-1.612 10.5.093 3.305-.623 8.695-1.594 12-.97 3.3-1.789 7.35-1.822 9-.033 1.65-1.168 7.05-2.522 12-1.354 4.95-3.092 12.15-3.863 16-.77 3.85-2.82 12.625-4.557 19.5-1.736 6.875-3.552 14.975-4.036 18-2.483 15.518-5.067 29.765-5.888 32.467-1.689 5.559-2.178 10.361-1.121 11.014.567.35 1.045.048 1.061-.672.018-.765.476-.543 1.104.537 1.34 2.305.243 12.313-1.678 15.313-.944 1.474-1.198 3.725-.799 7.095.425 3.584.11 5.935-1.15 8.59-2.275 4.794-3.11 4.619-2.837-.594.168-3.208.052-3.595-.474-1.578-.383 1.47-1.933 3.64-3.446 4.823-2.252 1.761-2.75 2.941-2.75 6.519 0 2.402.451 4.647 1.003 4.988.67.414.67 1.241 0 2.493-.552 1.03-1.003 2.845-1.003 4.032 0 1.186-.9 3.302-2 4.7-1.1 1.399-1.993 3.045-1.985 3.658.009.613.491.44 1.072-.385.762-1.082.841-.108.287 3.5-.423 2.75-.793 6.649-.822 8.665-.028 2.015-.39 4.003-.802 4.416-.412.414-.727 2.14-.698 3.836.044 2.673.368 2.285 2.429-2.917 2.043-5.155 2.388-5.574 2.449-2.973.038 1.666-.646 4.05-1.52 5.299-.875 1.248-1.686 3.936-1.801 5.972-.229 4.02-2.434 12.003-3.827 13.856-.478.635-.591 2.258-.253 3.607.397 1.581.057 3.01-.957 4.024-.864.865-1.604 2.842-1.642 4.394-.061 2.451-.178 2.559-.893.821-.945-2.297-1.039-2.123-3.484 6.432-2.167 7.58-1.843 8.419.993 2.568l2.424-5-.589 6.5c-.324 3.575-1.383 7.85-2.352 9.5-.969 1.65-2.965 7.65-4.435 13.333-3.078 11.903-5.568 18.167-7.223 18.167-.636 0-1.454.775-1.818 1.722-.52 1.357-.835 1.44-1.482.393-1.194-1.932-1.795-.377-2.469 6.385l-.597 6 1.747-3.504c.962-1.927 2.587-4.627 3.612-6 1.52-2.035 1.759-2.127 1.294-.496-.314 1.1-1.102 4.025-1.75 6.5-.649 2.475-1.986 7.2-2.971 10.5-2.166 7.253-4.806 21.291-5.924 31.5-.452 4.125-1.81 10.2-3.019 13.5-3.643 9.952-18.192 65.529-18.978 72.5-.636 5.634-4.098 16.325-8.582 26.5-.727 1.65-2.073 5.358-2.99 8.24-.981 3.083-2.097 4.975-2.71 4.595-.593-.366-.746-.163-.355.47.694 1.122-1.876 13.229-3.482 16.405-.475.941-.638 2.302-.361 3.024.278.723-.175 3.553-1.005 6.29-.83 2.737-1.514 5.773-1.52 6.747-.022 3.516-6.353 14.854-9.083 16.266-1.474.763-2.915 2.416-3.203 3.675-.868 3.802-3.148 9.206-4.475 10.609-.688.727-1.25 2.831-1.25 4.676 0 2.881-5.026 21.05-9.407 34.003-.744 2.2-1.915 6.7-2.603 10-.688 3.3-2.283 9.375-3.544 13.5-1.261 4.125-2.253 8.288-2.203 9.25.127 2.463 1.257 1.033 1.257-1.59 0-1.264.549-2.046 1.324-1.885.729.151 1.085-.113.793-.586-.293-.473-.165-2.172.285-3.775.687-2.454.832-2.036.917 2.645.143 7.891-2.087 15.279-6.594 21.847-2.143 3.122-4.181 7.233-4.53 9.135-.349 1.903-1.555 7.509-2.68 12.459-2.087 9.183-4.462 24.26-8.035 51-1.102 8.25-2.402 17.25-2.888 20-.891 5.035.14 20.449 1.516 22.675.403.652 2.231 2.501 4.062 4.109 1.832 1.608 3.33 3.495 3.33 4.194 0 .698 3.487 3.527 7.75 6.285 6.211 4.019 9.835 5.533 18.25 7.625 5.775 1.436 12.75 2.873 15.5 3.193 5.481.639 31.048 7.449 39 10.389 2.75 1.016 6.125 2.066 7.5 2.331 1.375.266 5.65 1.391 9.5 2.501 7.294 2.101 18.839 4.774 24 5.556 1.65.25 7.05 1.92 12 3.711 8.717 3.155 23.309 7.301 44 12.501 15.989 4.019 18.592 4.525 26.199 5.1 6.259.472 8.153.179 14.5-2.248 4.976-1.902 9.53-2.87 14.301-3.038 5.876-.208 7.241-.594 8.5-2.403.825-1.185 2.962-3.857 4.748-5.937 3.474-4.045 5.164-8.078 7.816-18.654.918-3.66 2.92-9.183 4.449-12.273 5.368-10.849 13.997-35.098 17.432-48.988 1.328-5.368 8.492-20.314 8.54-17.813.008.448-.427 1.641-.967 2.65-.729 1.362-.6 1.98.5 2.403 1.175.45 1.482-.372 1.482-3.972 0-2.955.835-6 2.389-8.719 4.179-7.308 4.59-9.385 6.073-30.678.172-2.475.476-8.394.676-13.153.199-4.759.652-8.474 1.007-8.256.806.496 2.095-2.685 1.379-3.401-.288-.288-.531.114-.539.893-.013 1.166-.186 1.152-.977-.083-.53-.825-.764-2.175-.521-3 .243-.825.697-3.075 1.01-5 1.323-8.145 4.865-14.131 7.425-12.548.615.38 2.729-2.984 5.12-8.152 2.24-4.84 4.706-10.046 5.48-11.57.774-1.523 1.947-5.573 2.607-9 1.365-7.093 7.331-27.774 8.784-30.452 2.469-4.55 6.494-14.467 8.636-21.278 1.297-4.125 4.859-14.7 7.915-23.5 6.075-17.489 8.387-25.639 15.176-53.5 2.48-10.175 6.769-27.5 9.532-38.5 4.475-17.818 7.852-32.694 10.895-48 1.314-6.609 3.624-24.124 4.417-33.5.35-4.125 1.542-14.7 2.65-23.5 1.312-10.414 1.787-18.182 1.361-22.25-.776-7.414.041-11.975 2.336-13.042 1.981-.92 17.373-.35 16.778.621-.226.369 2.611.703 6.304.743 3.694.039 7.587.442 8.651.896 1.065.453 4.476.889 7.581.968 3.104.079 6.254.63 7 1.224.745.594 4.8 1.133 9.01 1.199 4.211.065 8.936.628 10.5 1.252 1.565.623 6.22 1.129 10.345 1.124 4.125-.005 7.95.332 8.5.748 1.439 1.088 6.771 1.896 16.5 2.5 17.49 1.085 23 1.713 23 2.622 0 .514-1.055.743-2.344.509-1.289-.234-2.977-.024-3.75.465-1.185.751-1.171.901.094.959 7.072.323 14.492 1.125 26 2.812 7.425 1.088 19.35 2.512 26.5 3.164 7.15.652 13.675 1.435 14.5 1.74.825.304 2.255.462 3.177.349 3.894-.474 50.311 4.068 50.873 4.979.339.548 6.654 1.191 14.033 1.43 7.379.238 16.342.887 19.917 1.441 3.575.554 6.95 1.023 7.5 1.042.55.02.325.489-.5 1.044-.928.623-7.603.829-17.5.54-12.016-.35-14.271-.248-9.054.413 3.82.485 8.545 1.554 10.5 2.378 8.852 3.728 30.967 6.15 47.393 5.191 6.511-.381 12.424-.917 13.14-1.191.716-.275 1.238-1.595 1.161-2.934-.113-1.972-.677-2.435-2.967-2.435l-2.826-.001 2.977-2.505c1.637-1.378 4.484-2.793 6.326-3.144 1.843-.352 5.15-1.653 7.35-2.891 7.432-4.184 8.252-4.12 9.5.739 1.745 6.794 6.258 17.076 8.643 19.696 1.2 1.317 3.909 6.436 6.019 11.374 2.111 4.939 4.377 9.187 5.035 9.442.658.254 2.386 4.136 3.84 8.626 1.454 4.489 3.607 10.188 4.786 12.663 1.179 2.475 2.301 4.837 2.493 5.25.193.412-.419.75-1.36.75-2.625 0-1.149 6.776 3.585 16.466 2.177 4.457 3.959 8.451 3.959 8.874 0 .423.888 2.719 1.974 5.102 1.085 2.383 2.481 6.521 3.101 9.196 2.102 9.061 3.274 12.458 4.545 13.169.697.39 2.681 4.081 4.408 8.201 8.882 21.194 13.129 31.867 14.072 35.366.574 2.131 1.519 5.056 2.099 6.5 2.159 5.373 14.199 40.406 21.867 63.626 7.241 21.927 17.948 61.806 19.49 72.591 2.354 16.469 8.487 44.059 13.65 61.409 2.554 8.582 7.013 17.677 11.277 23 3.55 4.433 10.52 18.133 13.354 26.249 1.008 2.886 2.101 4.98 2.428 4.653.328-.328 1.466 1.135 2.529 3.251 2.146 4.268 4.726 14.16 3.907 14.979-.986.986-5.523-8.121-7.644-15.342-1.165-3.965-2.509-7.451-2.987-7.747-.478-.295-1.403-2.762-2.055-5.481-.786-3.275-2.002-5.478-3.601-6.526-2.257-1.48-2.414-1.46-2.414.301 0 1.036 1.181 3.624 2.624 5.75s3.715 7.477 5.049 11.89a6923.548 6923.548 0 0 0 5.486 18.023c1.684 5.5 3.715 12.475 4.513 15.5.799 3.025 2.717 7.975 4.263 11 1.545 3.025 3.096 6.625 3.446 8 1.204 4.74 9.379 11.84 11.355 9.864.732-.732 1.666-.719 3.091.043 2.542 1.361 3.477 1.393 2.673.093-.899-1.455.696-1.167 2.941.532 2.795 2.114 3.858 1.813 3.332-.941-.36-1.879-.111-2.281 1.133-1.83 1.226.445 1.133.044-.406-1.737l-2-2.315 2.377 1.249c1.535.806 2.598.895 3 .25.343-.549 3.081-.933 6.085-.853 5.266.14 5.565.3 8.361 4.462 1.594 2.374 3.952 4.717 5.239 5.207 1.288.489 4.237 2.087 6.556 3.55 4.17 2.633 4.247 2.642 7.298.856 1.696-.992 3.632-2.508 4.302-3.367.67-.86 1.233-1.096 1.25-.526.038 1.24 4.032 1.718 4.032.483 0-.471.301-1.642.67-2.602.457-1.191.298-1.516-.5-1.023-1.373.848-1.509-.312-.266-2.273 1.231-1.944 3.015-.526 2.382 1.894-.405 1.548-.152 1.87 1.093 1.392.892-.342 1.621-1.079 1.621-1.637 0-.586.635-.489 1.5.229 1.156.96 1.826.974 2.922.065 1.094-.908 1.87-.9 3.367.035 2.725 1.702 5.523.458 4.713-2.095-.726-2.286-.229-2.476 2.317-.886 1.411.881 2.709.653 6.091-1.073 2.365-1.206 4.004-1.715 3.643-1.131-.691 1.118 2.513.28 3.447-.902.275-.348 3.65-1.673 7.5-2.945 3.85-1.272 8.772-3.158 10.938-4.19 2.166-1.033 4.534-1.878 5.263-1.878.73 0 2.108-.414 3.063-.92.955-.506 4.239-1.874 7.298-3.04 7.128-2.717 9.26-5.062 7.886-8.677-.929-2.444-.871-2.547.712-1.262 1.034.839 1.432.913.995.185-.771-1.285 2.757-5.541 3.762-4.536.321.321.583.043.583-.618 0-1.643 4.907-.891 6.059.928.531.841.917.958.926.284.008-.662.87-.933 2.015-.634 1.35.353 2 .031 2-.991 0-1.107.982-1.467 3.654-1.342 2.01.095 4.147-.289 4.75-.852 1.734-1.621 8.767-3.825 11.921-3.735 1.582.045 3.654.786 4.604 1.646 2.209 1.999 2.065 2.015 8.294-.937 4.53-2.148 5.292-2.916 5.38-5.425.056-1.607.731-3.616 1.5-4.463.768-.848 1.986-2.242 2.707-3.098.72-.856 1.724-1.301 2.229-.989.506.313 1.819.087 2.917-.501 1.596-.854 2.405-.662 4.021.954 1.113 1.113 2.023 2.489 2.023 3.058 0 .702.644.691 2-.035 1.434-.767 2-.76 2 .024 0 .602.45.816 1 .476.55-.34 1.053.421 1.118 1.691.099 1.935.242 1.824.882-.691.42-1.65.824-2.325.897-1.5.119 1.333.245 1.333 1.137 0 .89-1.33 1.144-1.326 2.235.036 1.806 2.254 4.731 1.281 4.731-1.574 0-2.489 2.583-4.521 4.756-3.741.691.247.951.974.578 1.614-.373.641.3.308 1.494-.74l2.172-1.905v3.155c0 3.876 1.747 4.2 2.184.405.344-2.998.54-3.029 9.076-1.446 7.726 1.432 19.726-2.793 18.322-6.451-.316-.824-.105-2.376.469-3.449 1.278-2.387 2.262-24.024 1-21.985-.898 1.451-1.203-.111-2.611-13.355-.347-3.266-1.886-10.016-3.419-15-1.534-4.985-3.546-12.889-4.472-17.564-.925-4.675-4.553-17.725-8.061-29-3.508-11.275-7.32-24.55-8.47-29.5-1.151-4.95-2.963-12.375-4.028-16.5a2539.93 2539.93 0 0 1-5.025-20c-1.699-6.875-5.515-20.825-8.48-31-2.965-10.175-5.825-20.3-6.355-22.5-2.055-8.525-16.944-55.235-18.965-59.5-1.174-2.475-3.044-8.073-4.157-12.441-1.247-4.894-3.569-10.405-6.052-14.364-2.779-4.434-4.961-9.875-7.04-17.56-1.658-6.124-3.933-13.05-5.057-15.391-2.088-4.348-2.998-7.235-7.807-24.744-1.51-5.5-3.71-11.575-4.889-13.5-5.386-8.792-9.074-20.248-9.043-28.086.026-6.321-4.679-20.021-6.619-19.276-1.408.54-3.143-3.114-5.525-11.638-.999-3.575-3.652-11.426-5.896-17.447-2.244-6.021-4.07-11.196-4.058-11.5.012-.304.902.572 1.978 1.947s1.966 1.916 1.978 1.202c.026-1.548-4.93-6.35-5.922-5.737-1.097.679-5.798-9.532-6.553-14.235-.377-2.348-1.319-4.904-2.094-5.678-.775-.775-1.409-1.898-1.409-2.496 0-.597-1.35-3.478-3-6.402-3.278-5.808-3.911-9.218-1.543-8.309 1.49.572 1.081-1.404-1.416-6.845-.505-1.1-1.886-5.15-3.069-9-1.182-3.85-2.972-9.025-3.976-11.5-4.386-10.807-7.877-23.455-6.684-24.214.895-.569.876-.759-.077-.771-1.721-.021-5.102-5.771-4.611-7.842.218-.92-.253-3.698-1.047-6.173-.977-3.048-1.465-3.738-1.51-2.139l-.067 2.361-1.967-2.361c-2.341-2.811-2.711-1.274-.465 1.933.863 1.232 2.058 1.937 2.655 1.568.616-.381.801-.21.428.394-1.125 1.82-4.071.681-4.778-1.848-.37-1.324-.688-5.783-.706-9.908-.033-7.723.396-7.611 2.889.755.697 2.34 1.48 4.042 1.74 3.782.26-.26.013-1.725-.549-3.255-.562-1.53-1.85-5.697-2.862-9.259-1.011-3.562-2.637-7.275-3.612-8.25-1.954-1.954-2.327-3.773-.773-3.773 1.794 0 1.054-2.649-1.513-5.42-3.887-4.193-6.826-10.627-7.119-15.58-.316-5.342-3.24-14.197-4.443-13.453-.906.559-3.95-9.214-5.933-19.047-.665-3.3-1.471-6.675-1.789-7.5-.319-.825-.616-2.175-.66-3-.137-2.576-2.781-9.381-4.194-10.794-.742-.742-1.349-1.906-1.349-2.588 0-.681-1.092-4.024-2.426-7.428-1.591-4.061-2.021-6.201-1.25-6.222.647-.017.364-.647-.629-1.4-.992-.753-1.876-2.426-1.964-3.718-.087-1.293-.738-2.945-1.445-3.671-.707-.727-1.286-2.833-1.286-4.679s-.706-4.063-1.568-4.925c-.862-.862-1.696-2.582-1.853-3.821-.157-1.24-.763-3.379-1.347-4.754-1.032-2.433-3.876-11.286-8.808-27.42-2.38-7.787-2.389-7.974-.581-11.038 1.819-3.084 1.809-3.205-.911-11.08-5.281-15.285-8.513-22.962-9.668-22.962-.64 0-1.726-.563-2.414-1.25-2.62-2.62-2.554-.974.299 7.357 3.799 11.099 3.238 12.836-.877 2.715-3.716-9.139-5.519-16.475-4.338-17.656.459-.459.575-1.809.257-3-.563-2.108-.599-2.1-1.36.334-.693 2.214-.748 2.134-.488-.697.163-1.759-.042-2.989-.455-2.734-.412.255-1.032.007-1.377-.552-1.061-1.716-1.458-11.376-.515-12.512.527-.635.467-1.67-.148-2.539-.844-1.193-.928-1.131-.454.336.342 1.057.174 1.549-.405 1.191-.544-.336-.989-1.286-.989-2.111 0-.825-.433-1.233-.962-.906-.611.378-.588 1.585.063 3.309.71 1.88.705 2.399-.016 1.687-.572-.565-1.25-2.669-1.507-4.675-.257-2.006-.942-4.581-1.523-5.722-.58-1.141-1.449-2.88-1.931-3.863-.482-.984-1.202-3.715-1.6-6.069-.521-3.085-1.114-4.13-2.124-3.743-1.304.5-1.796-.722-1.669-4.15.026-.687-.315-1.25-.758-1.25-1.26 0-9.355-17.282-14.285-30.5-5.002-13.409-7.05-21.105-6.049-22.725.369-.596.248-.823-.267-.505-2.498 1.544-11.439-18.556-11.23-25.248.061-1.937-.859-6.357-2.044-9.823-1.184-3.465-1.909-6.696-1.609-7.181.299-.484.017-1.205-.627-1.603-.731-.452-.903-.291-.457.43.392.635.506 1.155.253 1.155-1.166 0-4.765-7.626-6.184-13.1-2.026-7.819-6.178-17.201-7.305-16.504-1.015.627-1.941-1.251-7.353-14.896-2.181-5.5-4.233-10.636-4.561-11.414-.383-.911-.178-1.157.575-.691.644.398 1.17.254 1.17-.319 0-1.585-10.114-28.44-11.12-29.526-1.914-2.066-.715 2.524 3.12 11.951 2.201 5.407 3.788 10.044 3.528 10.304-.259.26-.95-.828-1.534-2.416C888.573 582.642 875.567 555 874.049 555c-.543 0-.699-.749-.348-1.664.416-1.084.249-1.423-.481-.972-.716.443-1.364-.668-1.8-3.086-.374-2.078-1.185-4.408-1.8-5.177-.616-.77-1.856-3.92-2.756-7-.9-3.081-2.968-9.426-4.596-14.101a1303.341 1303.341 0 0 1-5.76-17c-5.033-15.271-14.465-40.763-19.056-51.5-.706-1.65-2.449-6.825-3.873-11.5-1.424-4.675-6.384-19.75-11.021-33.5-4.638-13.75-9.396-27.925-10.575-31.5-1.179-3.575-3.226-9.306-4.549-12.735-1.323-3.43-2.695-8.042-3.048-10.25-.353-2.208-1.034-4.015-1.514-4.015s-.872-1.378-.872-3.063c0-1.685-1.98-9.897-4.399-18.25-4.376-15.106-5.858-19.862-16.214-52.037-3.819-11.867-5.712-19.636-6.399-26.268-.886-8.547-5.381-23.488-8.114-26.974-.471-.601-.571-1.377-.223-1.726.349-.348.18-1.207-.374-1.908-.554-.701-2.237-5.324-3.738-10.274-1.502-4.95-4.202-13.05-6-18-1.798-4.95-4.542-12.6-6.098-17s-3.127-8.225-3.491-8.5c-.364-.275-.98-2.233-1.37-4.351-.39-2.118-1.311-5.268-2.048-7-.737-1.732-1.914-5.174-2.616-7.649-.702-2.475-1.575-4.95-1.94-5.5-.365-.55-1.437-3.925-2.383-7.5-2.142-8.1-6.371-20.646-12.64-37.5-8.832-23.746-10.918-28.545-16.259-37.403-2.123-3.522-4.264-7.465-4.757-8.763-.493-1.297-2.143-2.901-3.667-3.564-1.523-.664-4.504-2.324-6.624-3.69-3.693-2.38-4.589-2.492-21.5-2.694-9.705-.116-20.796.115-24.646.513M521.425 98.443c-.606 2.415.044 4.557 1.384 4.557.38 0 .691-1.575.691-3.5 0-4.036-1.177-4.636-2.075-1.057M432.07 212.25c-.038 1.512.38 2.75.93 2.75 1.174 0 1.174-.769 0-3.5-.762-1.772-.867-1.687-.93.75m7.93.683c0 .513-.898 1.217-1.997 1.566-1.919.609-1.929.724-.25 2.969.961 1.285 1.872 2.218 2.025 2.073.537-.509 1.204-7.541.716-7.541-.272 0-.494.42-.494.933m-4 7.567c0 1.375.45 2.5 1 2.5s1-1.125 1-2.5-.45-2.5-1-2.5-1 1.125-1 2.5m-57.487 133.814c-.832 1.992-1.513 4.076-1.513 4.632 0 .555-1.113 3.382-2.473 6.282-3.573 7.616-7.794 18.839-7.279 19.354.431.431 3.062-5.689 8.315-19.339 1.428-3.709 3.254-8.261 4.059-10.117.805-1.855 1.225-3.612.934-3.903-.291-.292-1.211 1.1-2.043 3.091m-16.398 43.822c-1.707 5.089-2.729 8.828-2.271 8.308 1.278-1.449 6.462-16.471 5.884-17.05-.281-.28-1.907 3.654-3.613 8.742m-5.903 17.298c-1.748 3.836-1.483 5.608.322 2.149.836-1.605 1.379-3.343 1.206-3.864-.174-.52-.861.251-1.528 1.715m-16.051 46.113c-1.385 3.039-1.551 5.279-.29 3.903.906-.988 2.437-6.45 1.809-6.45-.198 0-.881 1.146-1.519 2.547m525.298 64.337c.709 2.009 2.246 5.438 3.415 7.62 1.169 2.181 2.126 4.284 2.126 4.671 0 1.24 5.939 13.371 5.97 12.194.039-1.488-4.254-12.688-7.02-18.315-1.202-2.445-2.245-5.459-2.318-6.698-.073-1.239-.881-2.449-1.797-2.688-1.497-.392-1.535-.068-.376 3.216m-559.764 43.629c-1.474 3.091-1.487 3.487-.12 3.487.849 0 1.271-.441.938-.979-.333-.539-.098-1.928.522-3.086s.946-2.287.725-2.508c-.221-.221-1.15 1.167-2.065 3.086m574.391 1.987c-.031 1.1.381 2.675.914 3.5.862 1.333.963 1.333.914 0-.03-.825-.441-2.4-.914-3.5l-.859-2-.055 2m2.247 8.323c0 2.164.333 2.911 1.001 2.243.668-.668.668-1.747 0-3.243-.923-2.069-1.001-1.991-1.001 1m-580.649 1.559c-.376.98-.655 2.532-.621 3.45.042 1.105.39.853 1.029-.746.531-1.328.81-2.88.62-3.45-.19-.569-.653-.233-1.028.746M896.573 584c.368 1.375 1.086 3.175 1.596 4 .644 1.042.723.737.258-1-.368-1.375-1.086-3.175-1.596-4-.644-1.042-.723-.737-.258 1m-302.369 32.712c-.588 1.534-1.361 3.913-1.717 5.288-.356 1.375-4.198 12.85-8.538 25.5s-12.889 38.975-18.997 58.5c-6.109 19.525-11.713 36.445-12.455 37.6-1.644 2.563-6.065 15.571-8.1 23.832-.822 3.338-1.634 6.518-1.806 7.068-.171.55-.656 2.913-1.079 5.25-.422 2.337-1.187 4.25-1.699 4.25s-.661.438-.33.972c.645 1.045-4.872 23.237-9.827 39.528-.836 2.75-1.813 9.5-2.171 15-.357 5.5-1.068 11.927-1.579 14.283-.511 2.356-1.18 7.981-1.487 12.5-.307 4.519-.813 8.892-1.125 9.717-.906 2.399-2.862 17.338-2.508 19.153.262 1.339 1.969 1.742 9.019 2.127 12.865.702 37.29 2.769 48.756 4.126 8.002.947 10.695.932 13.156-.072 3.138-1.28 12.374-.529 33.01 2.687 3.974.619 7.646.866 8.16.549.513-.317 5.486.321 11.05 1.418 5.565 1.096 10.443 1.905 10.84 1.796.398-.109 2.748.144 5.223.563 2.475.419 11.025 1.401 19 2.183 7.975.782 16.525 1.668 19 1.968 19.373 2.352 23.203 2.152 20.07-1.048-.511-.523-3.464-8.825-6.561-18.45-7.913-24.59-11.39-34.511-14.721-42-4.254-9.565-6.26-14.632-9.106-23-1.403-4.125-4.406-12.225-6.673-18-2.267-5.775-5.247-13.65-6.622-17.5-1.375-3.85-2.908-7.9-3.407-9-.498-1.1-2.458-6.05-4.354-11C659.449 753.764 656 744.036 656 742.53c0-.856-.417-2.339-.926-3.294-.509-.955-3.965-9.611-7.678-19.236-6.156-15.955-11.894-29.142-14.36-33-.527-.825-2.922-4.875-5.321-9-10.244-17.61-9.725-16.344-9.123-22.253.639-6.272-.867-10.782-5.594-16.749-1.666-2.105-4.14-6.227-5.496-9.162-2.616-5.659-9.251-14.94-11.115-15.548-.612-.2-1.595.891-2.183 2.424m-311.454 25.86c-.413.419-.75 1.901-.75 3.295 0 1.82.305 2.228 1.085 1.448.596-.596.934-2.079.75-3.295-.184-1.215-.672-1.867-1.085-1.448m644.907 13.835c.942 1.976 2.058 3.593 2.48 3.593 1.126 0-1.741-6.368-3.066-6.81-.664-.221-.423 1.102.586 3.217m-279.152 46.586c-.349.564-.416 1.808-.149 2.766 1.756 6.3 1.708 6.734-.356 3.241-1.596-2.701-1.918-2.929-1.407-1 .363 1.375 1.518 4.075 2.566 6 1.047 1.925 1.647 2.525 1.332 1.334-.921-3.484.977-3.503 3.048-.03 1.525 2.558 1.978 2.837 2.266 1.397.198-.99-.283-2.79-1.071-4-.787-1.211-1.982-3.882-2.655-5.937-1.332-4.061-2.581-5.379-3.574-3.771m5.9 4.507c1.136 5.136 2.783 8.5 4.16 8.5.993 0 .809-1.184-.738-4.75-2.598-5.987-4.338-7.894-3.422-3.75m289.135 4.625c.454 1.43.312 1.902-.433 1.441-1.359-.84-1.414.412-.107 2.434.838 1.297.971 1.275.985-.167.008-.916.546-1.843 1.195-2.06 1.419-.473.355-3.773-1.216-3.773-.665 0-.833.838-.424 2.125m-680.926 22.982c-1.071 3.448-2.48 10.361-2.174 10.667.186.186 1.128-2.172 2.093-5.241.965-3.068 1.476-5.858 1.135-6.199-.342-.341-.816.007-1.054.773m688.646 1.792c.854 2.277 1.348 2.771 1.586 1.586.19-.947-.368-2.435-1.24-3.308-1.449-1.449-1.479-1.299-.346 1.722M661 748.343c0 .734 3.931 11.722 5.314 14.854.802 1.817 2.684 6.453 4.182 10.303 5.322 13.677 5.881 15.011 6.688 15.95 1.745 2.031.701-3.657-1.592-8.678-2.541-5.564-3.143-7.148-9.225-24.272-1.96-5.516-3.552-8.5-4.536-8.5-.457 0-.831.155-.831.343m-415.965 45.591c-1.27 2.374-1.397 5.861-.164 4.516 1.007-1.099 2.404-6.45 1.683-6.45-.266 0-.949.87-1.519 1.934M983 797.319c0 2.399 7.664 20.045 8.261 19.019.267-.461-1.008-4.842-2.835-9.735-3.378-9.05-5.426-12.555-5.426-9.284m10.044 24.374c-.047 2.361 4.958 16.638 5.606 15.99.749-.749-1.906-11.207-3.728-14.683-1.512-2.887-1.841-3.116-1.878-1.307m-455.282 74.014c1.244.239 3.044.23 4-.02s-.062-.446-2.262-.435c-2.2.011-2.982.216-1.738.455m26.738 2.353c14.087 2.16 15.823 2.271 15.009.955-.334-.541-1.598-.989-2.809-.995-1.21-.006-5.575-.435-9.7-.954-13.127-1.65-14.969-.917-2.5.994m457.071 6.94c.359 1.375 1.053 2.928 1.541 3.45 1.428 1.527.99-.664-.689-3.45l-1.506-2.5.654 2.5M677 915l-3.5.737 3.75.131c2.063.073 3.75-.318 3.75-.868s-.112-.941-.25-.868c-.138.072-1.825.463-3.75.868m343.015 1.191c.009.72.452 1.984.985 2.809.788 1.219.972 1.09.985-.691.008-1.205-.435-2.469-.985-2.809-.55-.34-.993-.029-.985.691m-321.265.498c-3.23.844-1.791 2.183 3 2.792 2.612.331 5.875.811 7.25 1.066s3.996.644 5.824.865c4.249.515 5.234 1.499 2.274 2.273-2.215.579-2.177.663.909 1.96 3.82 1.606 5.993 1.735 5.993.355 0-.55-.627-1-1.393-1s-1.652-.675-1.969-1.5c-.316-.825-.106-1.5.467-1.5.573 0 .893-.772.711-1.716-.268-1.391-1.247-1.66-5.165-1.419-6.283.386-14.81-.799-14.093-1.959.578-.936-.765-1.012-3.808-.217m-501.306 55.755c-.376 2.007-.459 3.874-.184 4.149.275.275.808-1.142 1.184-3.149.377-2.006.46-3.873.185-4.148-.275-.275-.808 1.142-1.185 3.148m841.671 7.056c.046 1.1.445 3.125.885 4.5.785 2.45.802 2.44.885-.5.046-1.65-.352-3.675-.885-4.5-.799-1.236-.955-1.148-.885.5m-842.716 32.275c-1.033.68-1.751 2.896-3.075 9.488-.439 2.187-.239 2.642.962 2.181.835-.321 1.801-2.094 2.147-3.94.347-1.847 1.17-3.538 1.829-3.758.853-.284.916-1.019.218-2.547-.562-1.232-1.449-1.839-2.081-1.424m-6.875 15.582c-.288.904-.735 2.318-.993 3.143-.257.825-.246 1.5.025 1.5.765 0 2.564-5.213 1.996-5.782-.278-.277-.741.235-1.028 1.139m10.014 6.181c-.386 3.097-.478 5.855-.203 6.13.275.275.817-2.033 1.203-5.13.387-3.096.479-5.854.204-6.129-.275-.275-.817 2.033-1.204 5.129m857.538-.538c.008.825.65 2.85 1.428 4.5l1.414 3-.594-3c-.743-3.756-2.271-6.813-2.248-4.5m-860.409 11.667c-1.038 1.037-.784 4.333.333 4.333.55 0 1-1.125 1-2.5 0-2.618-.231-2.936-1.333-1.833m-17.657 36.295c-.616 2.29-1.387 4.922-1.713 5.851-.396 1.131-.259 1.357.418.687 1.092-1.083 3.428-9.691 2.8-10.319-.211-.21-.888 1.491-1.505 3.781m-8.93 23.742c-1.544 5.733-2.448 10.869-1.813 10.296.873-.787 3.901-13.165 3.355-13.712-.27-.269-.964 1.268-1.542 3.416m4.037 9.077c-.669 1.251-1.593 2.043-2.051 1.76-1.144-.707-3.344 4.873-2.812 7.13.371 1.575.591 1.482 1.58-.671.631-1.375 2.105-3.691 3.275-5.146 1.17-1.456 1.924-3.255 1.676-3.998-.308-.926-.832-.636-1.668.925M163.238 1130c-2.627 8.449-4.322 15.25-3.904 15.667.683.683 5.87-16.557 5.401-17.953-.225-.668-.898.361-1.497 2.286m925.762 2.274c0 1.435.411 2.862.912 3.172.502.31.788-.578.634-1.974-.383-3.496-1.546-4.397-1.546-1.198m-921.889 6.519c-.662 1.237-.951 2.656-.643 3.155.308.498-.572 4.371-1.954 8.606-3.015 9.237-3.08 10.057-.614 7.735 1.046-.984 2.652-4.939 3.571-8.789.919-3.85 1.801-7.45 1.961-8 .16-.55-.026-1.89-.413-2.978-.682-1.912-.745-1.903-1.908.271m-14.974 27.876c-4.452 14.003-7.088 23.717-5.651 20.831 1.177-2.366 11.419-35.928 11.07-36.277-.212-.212-2.65 6.739-5.419 15.446m6.423-13.051c-.922 3.674-.191 3.893 1.148.344.615-1.629.756-2.962.314-2.962-.443 0-1.101 1.178-1.462 2.618m-1.48 10.797c-1.244 1.323-2.102 3.234-1.907 4.246.278 1.443.861 1.019 2.705-1.964 2.784-4.505 2.379-5.664-.798-2.282m483.682 19.292c1.244.239 3.044.23 4-.02s-.062-.446-2.262-.435c-2.2.011-2.982.216-1.738.455m16.988 1.999c1.237.238 3.263.238 4.5 0 1.237-.239.225-.434-2.25-.434s-3.487.195-2.25.434m-505.716 4.211c-.679 1.64-1.028 3.567-.775 4.282.252.716.96-.474 1.573-2.643 1.353-4.791.897-5.729-.798-1.639m-8.94 34.083c-.09 2.119 1.646 4.593 2.573 3.667.426-.427.293-1.089-.296-1.471-.589-.383-1.328-1.371-1.642-2.196-.508-1.333-.578-1.333-.635 0m-8.966 6.405c-.62 2.464-1.091 5.294-1.045 6.288.046.994.727-.85 1.512-4.098.786-3.247 1.256-6.077 1.045-6.288-.211-.211-.891 1.633-1.512 4.098m4.201-.63c-.644.41-1.507 2.086-1.918 3.725-.673 2.681-.594 2.826.788 1.443 1.381-1.38 3.406-5.966 2.618-5.928-.174.009-.844.351-1.488.76m2.875 8.163c-.662 2.868-1.167 5.968-1.121 6.888.046.921.73-.999 1.52-4.266s1.295-6.367 1.121-6.889c-.174-.522-.858 1.398-1.52 4.267M822 1235.441c0 1.343.45 2.719 1 3.059.583.361 1-.656 1-2.441 0-1.682-.45-3.059-1-3.059s-1 1.098-1 2.441m-700.391 53.691c-.907 4.399-1.743 13.336-1.197 12.789.706-.706 2.622-14.22 2.091-14.751-.223-.223-.625.66-.894 1.962M849 1333.211c0 1.196 4.299 11.823 4.644 11.479.493-.494-2.726-9.989-3.777-11.14-.477-.523-.867-.675-.867-.339m-742.799 34.111c-.661 1.826-1.216 4.188-1.234 5.249-.018 1.061-.882 4.392-1.921 7.401-1.039 3.01-1.634 5.886-1.321 6.392.646 1.046 4.077-9.125 4.816-14.28.269-1.878 1.003-4.035 1.632-4.792.727-.877.795-1.724.185-2.334-.609-.609-1.393.25-2.157 2.364M885.126 1440c-.02.825.582 2.85 1.338 4.5.755 1.65 1.39 2.325 1.41 1.5.02-.825-.582-2.85-1.338-4.5-.755-1.65-1.39-2.325-1.41-1.5m-526.677 64.468c-1.824 4.366-1.824 5.05.002 3.224 1.571-1.571 3.183-6.692 2.106-6.692-.362 0-1.311 1.561-2.108 3.468M332.63 1605.25c-.331 1.237-.595 2.925-.586 3.75.015 1.333.111 1.333.865 0 1.546-2.732 2.24-6 1.275-6-.523 0-1.222 1.013-1.554 2.25m603.98 9.75c.309 1.925 1.834 7.775 3.39 13s3.109 10.875 3.451 12.555c.342 1.68 2.181 5.246 4.086 7.926 1.904 2.679 3.463 5.412 3.463 6.073 0 .66.668 1.755 1.484 2.432 1.176.977 1.09.123-.418-4.127-2.173-6.124-8.518-21.808-10.739-26.545-.822-1.752-2.345-5.802-3.386-9-1.154-3.55-1.673-4.451-1.331-2.314" fill-rule="evenodd"/></svg>