<svg xmlns="http://www.w3.org/2000/svg" width="1240" height="1753"><path d="M251 133.126c0 .546-.407.74-.905.433-.945-.585-9.348 3.386-9.928 4.691-.184.412-.971.75-1.75.75-.78 0-1.417.627-1.417 1.393s-.712 1.666-1.583 2.001c-.871.334-1.378 1.169-1.127 1.857.25.687-.443 2.238-1.542 3.446-1.843 2.028-1.872 2.322-.372 3.821.893.894 1.624 1.908 1.624 2.253 0 .346-.54.089-1.2-.571-1.639-1.639-3.134-1.513-2.474.208.346.9-.337 1.629-1.893 2.019-1.338.336-2.433 1.263-2.433 2.061 0 .877-.592 1.222-1.5.874-.859-.33-1.5-.021-1.5.722 0 .795-.522.584-1.347-.544-.971-1.327-1.554-1.508-2.086-.648-.407.658-.195 1.851.469 2.652.982 1.182.873 1.456-.58 1.456-.984 0-1.493.296-1.131.658.904.904-1.337 3.453-2.438 2.772-1.338-.827-1.064 2.993.313 4.37.66.66.917 1.2.571 1.2-.345 0-1.357-.729-2.247-1.619-2.159-2.159-3.008-1.074-2.884 3.684.059 2.242-.379 3.985-1.018 4.05-.617.064-1.572.22-2.122.348-.55.128-1.557.301-2.238.385-.681.083-1.131 1.163-1 2.399.293 2.767-3.899 3.863-4.891 1.278-.542-1.412-.797-1.362-2.029.397-1.25 1.785-1.173 2.247.678 4.098l2.087 2.087-5.664 4.197c-3.116 2.308-5.851 4.073-6.079 3.922-.229-.15-1.519.917-2.868 2.373-1.648 1.778-3.115 2.472-4.474 2.117-1.938-.507-2.393.262-2.312 3.906.014.617-.815.902-1.842.633-1.211-.316-1.868.04-1.868 1.012 0 2.509-3.722 2.768-5.418.376-1.472-2.074-1.513-2.031-1.301 1.357.12 1.925.669 3.872 1.219 4.326.595.492.393.652-.5.396-.825-.236-1.357-1.218-1.182-2.182.2-1.101-.172-1.579-1-1.286-.725.257-1.211 1.431-1.079 2.609.188 1.687-.864 2.675-4.937 4.64-6.23 3.005-9.015 3.262-8.107.747.36-.997-.716-.369-2.499 1.457-1.722 1.764-3.394 2.781-3.716 2.26-.322-.521-1.51-.086-2.639.967-1.13 1.052-1.754 2.397-1.388 2.989.366.593.188 1.077-.394 1.077-.582 0-1.059.675-1.059 1.5 0 .833-.889 1.5-2 1.5s-2 .667-2 1.5c0 .922-.937 1.5-2.433 1.5-1.56 0-2.662.722-3.072 2.015-.351 1.108-1.057 1.756-1.567 1.441-.51-.316-.928-.17-.928.324 0 1.011-4.481 3.363-7.448 3.909-2.058.379-5.662 3.709-5.444 5.03.355 2.153-.258 3.161-1.608 2.643-.826-.317-1.5-.03-1.5.638s-.639.969-1.419.669c-1.733-.664-5.581 2.493-5.581 4.58 0 1.761-6.171 6.751-8.35 6.751-.816 0-1.71-.562-1.988-1.25-.277-.687-.54-.301-.583.86-.043 1.16-1.239 2.96-2.656 4-4.789 3.513-7.538 6.394-6.973 7.309.309.501-.003 1.117-.694 1.371-1.005.368-1.006.725-.006 1.785.688.729 1.25 2.178 1.25 3.221 0 1.042.622 3.09 1.383 4.55.76 1.46 3.098 6.142 5.195 10.404 2.097 4.262 4.149 7.75 4.559 7.75 1.737 0 1.825-2.135.194-4.722l-1.753-2.778 2.211 1.905c1.216 1.048 2.211 2.51 2.211 3.25 0 .74.397 1.345.883 1.345.953 0 8.117 11.538 8.117 13.072 0 .51.338.942.75.96 1.685.071 4.349 2.886 4.762 5.031.243 1.259.85 2.548 1.349 2.864.499.315 2.357 3.273 4.128 6.573 5.129 9.556 8.415 14.424 9.761 14.463.688.021 1.25.712 1.25 1.537s.395 1.5.879 1.5c.483 0 1.416 1.297 2.073 2.883.656 1.586 2.286 3.833 3.621 4.993 1.335 1.161 2.427 3.028 2.427 4.149s.675 2.297 1.5 2.613c.825.317 1.513 1.09 1.528 1.719.042 1.728 5.583 8.699 6.325 7.957.356-.356.647-.203.647.339 0 .543 1.4 2.53 3.111 4.417 1.711 1.886 3.945 5.343 4.964 7.68 1.02 2.337 2.432 4.255 3.139 4.261.708.007 2.137 1.788 3.176 3.958 1.04 2.171 3.351 5.541 5.135 7.489 3.3 3.602 3.549 4.823.403 1.977-1.105-1-1.96-1.192-2.368-.533-.35.568.28 1.606 1.401 2.306 1.122.7 2.039 1.84 2.039 2.533 0 .692.45 1.259 1 1.259s1-.661 1-1.469c0-2.116 2.536-.845 3.786 1.898.581 1.275 3.574 5.863 6.651 10.195s6.15 8.719 6.829 9.749c.679 1.029 1.797 2.46 2.484 3.178.688.718 1.25 1.688 1.25 2.155 0 .466 1.238 2.209 2.75 3.872 1.512 1.664 3.64 4.689 4.727 6.723 1.088 2.035 2.325 3.699 2.75 3.699.425 0 .773.575.773 1.277 0 .703 1.35 2.755 3 4.562 1.65 1.806 3 3.721 3 4.254 0 .533.675 1.229 1.5 1.545.825.317 1.5 1.09 1.501 1.719 0 .629 1.616 2.943 3.591 5.143 1.975 2.2 4.976 5.912 6.669 8.25 1.693 2.337 3.452 4.25 3.909 4.25.456 0 .83.675.83 1.5s.338 1.513.75 1.53c.412.016 3 3.213 5.75 7.105 2.75 3.891 6.303 8.265 7.894 9.72 5.598 5.115 15.033 15.309 20.044 21.657 2.166 2.743 5.316 6.362 7 8.042 3.472 3.463 8.274 9.292 14.783 17.946.414.55 3.018 3.7 5.786 7 3 3.575 5.478 7.718 6.133 10.25.802 3.105 1.604 4.25 2.979 4.25 1.034 0 1.881.45 1.881 1s.445 1 .989 1c1.478 0 5.011 3.27 5.011 4.639 0 .657.563 1.395 1.25 1.641.688.245.985.736.66 1.089-.324.354-1.674-.299-3-1.451-1.325-1.152-3.76-2.669-5.41-3.371-1.65-.702-5.196-3.336-7.88-5.853-4.132-3.874-5.091-4.366-6.25-3.207-1.708 1.708-1.758 2.682-.12 2.338 1.841-.388 6.623 2.903 11.92 8.205 4.69 4.694 12.173 8.97 15.699 8.97 1.122 0 3.579 2.237 6.043 5.5 2.284 3.025 4.512 5.5 4.951 5.5.439 0 2.206 1.961 3.928 4.358 1.721 2.397 5.285 6.564 7.919 9.261 2.635 2.696 5.839 6.247 7.122 7.892 6.813 8.734 12.432 15.108 24.918 28.264 1.788 1.884 3.25 3.797 3.25 4.252 0 .456 1.125 1.713 2.5 2.794 1.375 1.082 2.5 2.26 2.5 2.618 0 1.021 16.033 16.102 16.713 15.721.334-.186 1.008.376 1.497 1.25.489.875 1.443 1.59 2.119 1.59.676 0 1.875.896 2.664 1.99.789 1.095 4.151 3.333 7.471 4.973 8.115 4.011 12.46 3.389 18.286-2.617 1.787-1.843 3.25-3.826 3.25-4.407 0-.582.451-.778 1.002-.438.551.341 1.41-.42 1.909-1.691.819-2.086 4.846-6.249 6.089-6.295.275-.01 1.962-1.061 3.75-2.335s3.25-2.023 3.25-1.664c0 .359 1.737-.724 3.86-2.405 2.123-1.682 4.166-2.752 4.54-2.378.374.374.939-.313 1.256-1.527.318-1.213 1.152-2.206 1.854-2.206.702 0 1.535-.675 1.852-1.5.316-.825 1.264-1.5 2.107-1.5.842 0 1.531-.482 1.531-1.071 0-1.225 2.483-3.929 3.608-3.929.412 0 2.132-1.481 3.821-3.29 1.689-1.81 5.771-4.62 9.071-6.245s6.591-3.748 7.314-4.72c.722-.971 3.72-3.304 6.66-5.185 2.941-1.882 5.645-4.359 6.008-5.505.364-1.146 1.049-1.845 1.522-1.553.472.292 1.493-.373 2.267-1.479.775-1.106 1.669-1.75 1.988-1.431.318.319 1.088-.372 1.71-1.534.622-1.163 1.464-1.908 1.871-1.657.406.251 1.621-.864 2.7-2.478 1.078-1.614 2.635-3.154 3.46-3.422 1.961-.638 12-10.291 12-11.538 0-.53.421-.963.936-.963 2.069 0 24.77-22.146 26.983-26.322.78-1.473 1.808-2.678 2.284-2.678.475 0 2.229-1.396 3.896-3.101 1.667-1.706 3.284-2.849 3.593-2.54.638.638 4.997-4.958 5.927-7.609.338-.962 1.161-1.75 1.83-1.75.668 0 1.686-1.534 2.262-3.41 1.077-3.508.653-8.59-.716-8.59-1.137 0-8.57-12.171-9.364-15.333-.375-1.495-1.458-3.574-2.406-4.621-3.27-3.607-4.225-4.965-4.225-6.004 0-.573-.337-1.042-.75-1.043-.413-.001-2.023-2.268-3.579-5.038-1.556-2.771-4.55-6.176-6.654-7.568-2.103-1.392-6.634-6.325-10.068-10.962-3.434-4.637-6.628-8.431-7.097-8.431-.468 0-.852-.498-.852-1.106 0-1.168-5.949-9.158-7.243-9.727-.416-.184-.757-.971-.757-1.75 0-.78-.38-1.417-.844-1.417-.464 0-3.581-3.712-6.927-8.25-3.346-4.537-6.917-9.15-7.936-10.25-1.019-1.1-5.966-7.4-10.994-14s-9.964-12.917-10.97-14.038c-1.006-1.12-2.934-3.595-4.284-5.5-1.351-1.904-2.817-3.912-3.258-4.462-.441-.55-3.255-4.053-6.254-7.784-2.999-3.73-7.336-9.468-9.638-12.75-2.301-3.281-4.57-5.966-5.04-5.966-.47 0-.855-.675-.855-1.5s-.354-1.5-.786-1.5c-.432 0-4.359-4.837-8.726-10.75-4.367-5.912-8.264-10.987-8.661-11.276-.781-.57-11.688-14.679-25.49-32.974-4.772-6.325-8.995-11.725-9.385-12-.39-.275-4.188-5.225-8.442-11-4.253-5.775-8.27-10.95-8.926-11.5-.656-.55-5.322-6.4-10.367-13-5.046-6.6-11.67-15.15-14.721-19-6.252-7.891-18.634-23.881-30.587-39.5-4.419-5.775-8.457-10.65-8.972-10.833-.515-.184-.937-.746-.937-1.25 0-.505-.788-1.734-1.75-2.733-.962-.999-4.225-5.039-7.25-8.977-5.148-6.701-8-8.835-8-5.984 0 .672-2.205-1.916-4.899-5.75-2.695-3.835-6.07-8.385-7.5-10.11-1.431-1.726-2.601-3.638-2.601-4.25 0-.612-.45-1.113-1-1.113s-1-.704-1-1.565-2.363-3.932-5.25-6.824c-4.219-4.227-10.121-10.87-13.75-15.476-2.984-3.788-15-7.8-15-5.009M105 295.917c0 .595.378 1.083.839 1.083.841 0 3.276 4.398 3.738 6.749.135.687 2.101 3.967 4.369 7.289 2.268 3.323 3.856 6.473 3.53 7.001-.522.845 1.577 1.435 3.802 1.07.428-.07 1.065.62 1.415 1.534.351.914 2.133 3.201 3.96 5.082 1.828 1.882 4.047 4.949 4.933 6.815.885 1.866 3.668 5.545 6.183 8.176 3.833 4.01 4.642 4.48 5 2.904.235-1.034-.105-2.21-.756-2.612-.651-.402-1.141-1.131-1.088-1.62.212-1.956-1.933-6.501-2.811-5.958-.976.602-7.114-6.474-7.114-8.201 0-.541-.675-1.544-1.5-2.229s-1.486-1.752-1.468-2.372c.017-.621 1.165.161 2.551 1.737 1.386 1.576 2.732 2.653 2.992 2.393.261-.26-.213-1.042-1.051-1.738S131 320.982 131 320.037c0-1.883-7.5-10.037-9.232-10.037-.593 0-.261.903.738 2.006.998 1.104 1.524 2.298 1.167 2.654-.997.997-11.992-10.667-14.213-15.079-1.906-3.787-4.46-5.885-4.46-3.664m-2 12.972c0 1.056 3.918 5.922 3.967 4.926.081-1.673-2.014-5.815-2.942-5.815-.564 0-1.025.4-1.025.889m6.797 11.336c.936 1.774 2.203 3.686 2.813 4.25 1.217 1.124 7.687 10.608 10.956 16.059 1.136 1.895 2.944 4.462 4.018 5.705 2.648 3.067 6.416 8.536 6.416 9.313 0 .348.9 1.777 2 3.175 1.1 1.399 2 2.007 2 1.353 0-1.763-6.3-13.452-7.75-14.38-.687-.44-1.25-1.266-1.25-1.836 0-1.16-5.944-9.955-7.5-11.099-.55-.404-.645-.741-.211-.75.434-.008-.129-1-1.25-2.204-1.121-1.203-2.039-2.778-2.039-3.5 0-.721-.39-1.311-.867-1.311s-2.058-1.8-3.514-4c-3.343-5.052-6.41-5.674-3.822-.775m20.465 40.465c.93.93 2.026 1.356 2.435.946.41-.41.083-1.163-.726-1.675-2.435-1.54-3.516-1.078-1.709.729m10.154 4.56c.321.688.86 2.038 1.2 3 .339.962 1.24 1.75 2.001 1.75 1.795 0 1.748-1.034-.174-3.777-1.641-2.344-4.023-3.109-3.027-.973M151 380.56c0 1.445 6.535 10.335 6.866 9.341.208-.623-.038-1.418-.546-1.767s-1.709-2.321-2.669-4.384c-1.478-3.177-3.651-5.075-3.651-3.19m85.999 121.766c1.053 2.95 6.156 10.773 8.905 13.655.878.92 2.271 2.832 3.096 4.248 1.979 3.397 10.816 12.771 12.04 12.771.528 0 .967.563.976 1.25.014 1.128 3.461 5.671 7.462 9.834.837.871 1.522 2.06 1.522 2.643 0 .582.675 1.318 1.5 1.635.825.316 1.5 1.264 1.5 2.107 0 .842.675 1.531 1.5 1.531s1.5-.388 1.5-.862c0-.776-3.952-6.291-7.238-10.101-.694-.805-1.712-2.23-2.262-3.167-3.077-5.242-20.999-27.87-22.074-27.87-.701 0-2.227-1.238-3.393-2.75a910.588 910.588 0 0 0-4.081-5.25l-1.963-2.5 1.01 2.826m82.039 28.174c.035 1.235 3.866 5.932 4.397 5.392.212-.216-.697-1.742-2.02-3.392s-2.392-2.55-2.377-2m4.962 7c0 .275.9 1.4 2 2.5s2 1.582 2 1.071c0-.51-.707-1.635-1.571-2.5-1.603-1.602-2.429-1.966-2.429-1.071m5.655 7.042c.319.833 1.417 1.961 2.44 2.509 2.55 1.364 1.587-1.144-1.077-2.808-1.629-1.017-1.85-.968-1.363.299" fill-rule="evenodd"/></svg>