<svg xmlns="http://www.w3.org/2000/svg" width="1240" height="1753"><path d="M563 89.989c0 .521-.753.659-1.674.306-1.268-.487-1.518-.237-1.031 1.031.466 1.216.103 1.674-1.326 1.674-1.083 0-1.969.436-1.969.969 0 .532-.675.709-1.5.393-.825-.317-1.5-.078-1.5.531S553.325 96 552.5 96s-1.5-.675-1.5-1.5-.45-1.5-1-1.5-1.007.563-1.015 1.25c-.011.868-.293.811-.924-.186-.769-1.216-1.16-1.227-2.55-.073-1.393 1.156-2.049 1.125-4.327-.204-3.462-2.02-7.89-1.994-8.675.051-.335.873-.304 5.091.07 9.375.431 4.945.317 7.787-.314 7.787-1.562 0-4.015 7.569-6.156 19-2.901 15.489-4.609 59.118-4.609 117.75 0 44.231-.286 52.72-1.667 49.464-.385-.91-17.194-15.175-23.833-20.226-2.475-1.883-7.705-6.139-11.623-9.456-12.592-10.664-16.764-14.017-22.377-17.983-3.025-2.137-5.95-4.393-6.5-5.013-.55-.62-2.125-1.903-3.499-2.851-2.618-1.804-17.501-15.835-38.471-36.267-18.817-18.334-22.784-20.865-34.03-21.715-6.087-.459-7.685-.198-12.25 2.002-2.887 1.391-5.25 3.062-5.25 3.713 0 .651-1.922 2.398-4.272 3.883-2.35 1.486-5.245 3.713-6.435 4.95-7.754 8.064-15.838 14.749-17.835 14.749-.781 0-1.702 1.125-2.047 2.5-.345 1.375-1.006 2.5-1.468 2.5-.462 0-2.054 1.125-3.538 2.5-1.483 1.375-3.531 2.5-4.551 2.5s-1.854.398-1.854.885c0 1.124-5.021 4.448-6.719 4.448-.705 0-1.295.488-1.313 1.084-.032 1.101-4.482 6.583-5.343 6.583-.873 0-6.625 6.145-6.625 7.077 0 .508-.845.923-1.878.923-1.032 0-2.454.695-3.16 1.546-.705.85-1.819 1.339-2.475 1.087-1.328-.509-4.659 2.861-3.738 3.782.321.322-.113.585-.966.585-1.895 0-3.094 5.181-1.442 6.232.822.523.761.742-.208.753-.872.009-1.177.739-.843 2.016.288 1.101.115 1.75-.383 1.441-.499-.308-.907.311-.907 1.377 0 1.065-.7 2.517-1.556 3.228-.856.71-1.419.878-1.25.372.168-.505-.144-.919-.694-.919-.55 0-.939.551-.866 1.223.101.912-.369.954-1.844.165-1.687-.903-1.895-.789-1.407.776.801 2.574-.458 4.144-3.67 4.574-3.566.477-6.172 4.036-4.813 6.574.543 1.016 3.263 3.779 6.044 6.14 2.781 2.362 5.056 5.05 5.056 5.974 0 1.593 4.727 12.009 5.934 13.074.311.275 2.366 3.195 4.566 6.488 2.2 3.294 8.96 11.169 15.022 17.5 6.063 6.332 12.768 13.537 14.9 16.012 8.826 10.244 27.196 29.714 45.861 48.604l19.863 20.105-6.323.695c-3.478.382-9.698 1.089-13.823 1.572-4.125.483-14.475 1.583-23 2.446-17.431 1.763-22.822 2.428-25 3.082-1.377.414-21.362 1.046-61 1.931-22.457.501-23.632.798-32.888 8.337-6.798 5.538-8.284 8.154-8.651 15.228-.156 3.025-.762 8.393-1.346 11.93-.763 4.621-.754 6.8.033 7.749.795.957.784 2.074-.04 4.07-.624 1.513-1.111 3.876-1.083 5.251.137 6.595-1.217 23.531-1.955 24.456-2.002 2.509-2.812 16.202-1.063 17.951.564.564.394 1.345-.438 2.008-1.016.81-1.179 2.418-.644 6.335.394 2.888.377 5.25-.037 5.25-.978 0-1.7 2.423-2.383 8-.69 5.63.216 10 2.074 10 .782 0 1.421.675 1.421 1.5s.787 1.536 1.75 1.579c1.045.047 1.247.282.5.583-1.726.697-1.573 2.338.219 2.338.894 0 1.243.586.893 1.5-.317.825-1.203 1.5-1.969 1.5-1.995 0-1.722 1.767.357 2.311 1.667.435 1.667.463 0 .573-1.808.12-2.529 3.116-.75 3.116 1.507 0 1.2 2.943-.483 4.626-.843.843-1.369 2.864-1.217 4.679l.266 3.195 8.467.102c6.417.077 9.601.626 13.152 2.268 8.202 3.792 19.655 5.768 37.815 6.522 26.046 1.082 38.549 1.709 44 2.204 3.025.275 25.192.76 49.259 1.078l43.76.579-6.298 7.124c-12.934 14.629-44.765 53.702-52.457 64.39-2.903 4.033-32.234 35.336-44.259 47.233-3.057 3.025-6.873 7.3-8.479 9.5-1.606 2.2-3.253 4.234-3.661 4.52-1.459 1.026-2.615 5.607-3.309 13.122-.617 6.671-.437 8.171 1.411 11.794 1.165 2.283 3.267 5.144 4.671 6.358 1.404 1.213 3.155 3.363 3.89 4.777 1.77 3.401 6.651 8.917 7.945 8.977.565.026 2.827 2.614 5.027 5.75s5.8 7.549 8 9.807c5.69 5.84 8.5 9.264 8.5 10.358 0 2.724 9.781 14.037 12.136 14.037.475 0 .864.454.864 1.009 0 1.449 5.49 6.991 6.926 6.991.717 0 .972.746.627 1.832-.356 1.124.172 2.514 1.365 3.594 1.071.969 1.704 2.395 1.408 3.168-.326.849.097 1.406 1.067 1.406.884 0 1.607.702 1.607 1.559s.45 1.281 1 .941c.55-.34 1-.19 1 .333 0 1.608 5.213 2.436 6.14.975.633-.999.833-1.013.845-.058.008.688.69 1.25 1.515 1.25s1.5.498 1.5 1.107.708.835 1.574.503c.866-.332 2.329.157 3.25 1.087 1.569 1.583 1.559 1.647-.158.996-1.249-.473-1.687-.296-1.375.556.253.688.919 1.154 1.481 1.035.572-.12.78.711.474 1.884-.396 1.513-.158 1.96.852 1.601 1.954-.695 4.924 1.004 4.364 2.496-.255.679.611 2.575 1.925 4.214 2.262 2.819 2.533 2.902 5.065 1.547 1.472-.788 4.261-3.591 6.197-6.229 2.479-3.377 4.219-4.797 5.879-4.797 7.178 0 25.493-14.282 59.495-46.395a6299.906 6299.906 0 0 1 19.5-18.293c12.113-11.314 48.353-47.58 61.198-61.241 6.79-7.221 6.971-7.336 6.498-4.108-.284 1.934-.096 3.079.451 2.741.55-.34 1.037 3.01 1.176 8.108.131 4.778.734 10.241 1.341 12.14.817 2.562.806 3.55-.043 3.833-.629.21-1.144 1.046-1.144 1.857 0 .812.45 1.198 1 .858.55-.34 1 .084 1 .941s-.45 1.559-1 1.559c-1.268 0-1.325 7.718-.06 8.167.528.187 1.177 10.568 1.483 23.723.298 12.864.997 28.164 1.553 34 1.67 17.54 1.706 22.113.173 22.111-1.077-.001-1.208 1.477-.646 7.249 1.182 12.134 4.325 32.482 5.317 34.421 1.607 3.144 3.18 8.86 3.18 11.555 0 1.422.875 4.315 1.946 6.429 1.555 3.074 6.054 19.975 6.054 22.744 0 .358-1.125 1.078-2.5 1.601-3.973 1.511-3.191 4 1.257 4 2.066 0 5.328.487 7.25 1.083 7.812 2.422 11.169 2.992 26.493 4.497 8.8.864 17.35 1.706 19 1.871 1.65.166 5.925.694 9.5 1.175 12.834 1.726 53.987.772 53.995-1.251.003-.619 1.13-1.125 2.505-1.125s2.5.414 2.5.92 1.462.647 3.25.314c2.766-.517 6.59-.171 21.25 1.923 2.226.317 7.46-1.187 8.992-2.585.645-.589.51-1.203-.386-1.756-1.082-.669-1.147-1.511-.301-3.937.592-1.696.75-3.286.352-3.532-1.001-.619-.15-8.597.917-8.597.475 0 .602.68.283 1.511-.415 1.082-.121 1.336 1.032.893 1.749-.671 2.24-3.404.611-3.404-.55 0-1-1.111-1-2.469 0-1.783.416-2.308 1.5-1.893 1.135.436 1.5-.18 1.5-2.531 0-4.115-.042-3.928 2.037-9.202 2.845-7.216 3.257-16.805 1.544-35.905-.863-9.625-1.573-21.55-1.577-26.5-.004-4.95-.943-16.65-2.086-26-2.092-17.096-2.901-24.725-4.773-45-.927-10.04-3.5-33.176-4.597-41.329l-.448-3.33 5.222 5.076c5.166 5.021 8.237 7.5 10.178 8.215.55.202.897.678.77 1.057-.126.379.661.972 1.75 1.317 1.089.346 1.995 1.386 2.013 2.311.045 2.276 3.642 6.458 5.128 5.963.658-.22 3.277 1.653 5.821 4.161 2.544 2.507 6.573 6.247 8.952 8.309 2.38 2.062 3.978 3.75 3.552 3.75-.425 0 1.297 1.581 3.828 3.514 2.531 1.932 4.958 4.082 5.394 4.777.436.695 3.717 3.721 7.292 6.725C780.277 771.651 785.02 776 784.159 776c-.437 0-2.565-1.574-4.727-3.498-2.163-1.924-4.081-3.052-4.263-2.506-.498 1.49 4.152 6.957 5.53 6.502.659-.218 1.446.369 1.748 1.303.303.934 2.113 2.761 4.024 4.059s4.724 3.471 6.252 4.829c1.527 1.358 4.352 3.514 6.277 4.792 1.925 1.278 5.507 4.167 7.96 6.421 2.453 2.254 4.731 4.098 5.061 4.098.331 0 1.474.788 2.54 1.75 2.953 2.665 9.28 6.717 15.939 10.205 3.3 1.729 7.016 4.021 8.258 5.094 1.241 1.073 2.865 1.951 3.609 1.951 1.789 0 12.048 5.488 17.369 9.291 4.014 2.869 4.204 3.23 3.622 6.869-.337 2.112-.269 3.84.152 3.84.422 0 2.719-1.8 5.106-4s4.98-4 5.763-4c1.658 0 11.088-6.861 21.252-15.465 3.922-3.319 9.953-8.285 13.403-11.035 11.21-8.936 24.384-20.101 28.034-23.76 4.01-4.019 11.688-13.94 12.573-16.246.319-.831 1.655-1.781 2.969-2.111 1.498-.376 2.39-1.328 2.39-2.55 0-1.239-.457-1.715-1.25-1.305-.687.355-.153-.247 1.188-1.338 1.341-1.09 3.029-1.756 3.75-1.479.722.276 1.312-.153 1.312-.955 0-1.812 8.135-9.393 14.19-13.223 5.535-3.502 9.218-11.533 5.289-11.533-.837 0-2.034-1.125-2.661-2.5-.626-1.375-1.581-2.5-2.12-2.5-.54 0-2.272-1.35-3.848-3-2.587-2.706-2.749-4.499-.175-1.925.767.767 1.075.346 1.075-1.466 0-2.18-.389-2.496-2.739-2.222-2.014.235-2.709-.106-2.625-1.284.063-.882.556-1.919 1.096-2.306.579-.413-.071-1.853-1.58-3.5-1.41-1.538-3.877-5.47-5.483-8.737-3.269-6.653-9.758-13.636-22.611-24.33-7.818-6.505-12.807-10.956-29.308-26.145-2.75-2.532-6.8-5.933-9-7.558s-4.526-3.421-5.17-3.991c-.643-.57-2.218-1.824-3.5-2.788-1.281-.964-5.853-4.564-10.159-8a1879.419 1879.419 0 0 0-13.5-10.666c-3.119-2.429-6.346-5.142-7.171-6.028-.825-.886-3.525-3.151-6-5.033-2.475-1.882-6.128-4.794-8.117-6.471-3.695-3.116-8.645-7.178-14.89-12.219-6.253-5.048-8.216-6.746-14.021-12.126-3.143-2.913-6.559-5.923-7.593-6.691-1.654-1.228-.893-1.372 6.372-1.205 4.539.105 8.366-.153 8.506-.574.139-.421 4.44-.982 9.557-1.247 5.118-.265 10.178-.948 11.245-1.52 1.339-.716 2.541-.717 3.875-.003 2.496 1.336 3.356 1.313 2.504-.065-.494-.799-.119-.799 1.376 0 2.357 1.262 9.186 1.492 9.186.31 0-.434 7.313-.882 16.25-.995 19.286-.243 30.696-.796 44.25-2.147 13.021-1.298 22.49-1.347 20.529-.107-2.426 1.534-.83 1.885 4.614 1.015 2.829-.452 7.799-1.058 11.044-1.347 8.83-.785 18.87-2.509 23.604-4.053 2.315-.754 6.684-1.924 9.709-2.6 3.025-.675 7.609-2.071 10.186-3.102 2.577-1.031 7.977-2.561 12-3.4s8.068-1.758 8.989-2.043c1.124-.348 2.11.375 3 2.202 2.326 4.774 3.511 3.871 4.071-3.106.289-3.601.963-7.105 1.499-7.787 1.655-2.108 2.535-8.696 5.713-42.74.179-1.925.712-6.2 1.184-9.5.86-6.014.991-30.35.252-46.75-.367-8.147-1.061-10.512-2.2-7.5-.26.688-.454-.212-.431-2 .023-1.788.428-3.25.901-3.25.473 0 .603-1.688.288-3.75-.314-2.062-.028-6.9.636-10.75.664-3.85 1.234-8.625 1.266-10.611.06-3.709-3.068-9.848-4.213-8.271-.898 1.236-16.141 1.631-16.141.418 0-.535.753-.684 1.674-.331 1.29.495 1.519.24 1-1.113-.371-.966-.674-1.944-.674-2.174 0-.974-2.258-.303-3.643 1.082-2.246 2.246-4.631 1.937-3.857-.5.54-1.702.18-2-2.421-2-1.681 0-6.472-.937-10.646-2.082-6.304-1.73-9.564-2.006-19.261-1.632-27.532 1.061-58.254 2.826-65.672 3.773-4.4.562-9.8 1.22-12 1.462-2.2.243-7.15.882-11 1.421-3.85.538-10.6 1.244-15 1.569-9.432.696-15.139 1.256-26 2.555-4.4.526-13.175 1.401-19.5 1.945-6.325.543-12.585 1.24-13.912 1.548-2.356.547-2.373.508-.718-1.749.932-1.271 2.595-3.724 3.697-5.453 1.102-1.728 2.888-3.373 3.968-3.656 1.081-.283 1.965-1.257 1.965-2.166s.381-1.417.847-1.13c1.014.627 6.757-5.134 5.937-5.955-.314-.313 3.994-5.24 9.573-10.947 10.629-10.874 11.35-11.662 26.017-28.443 5.02-5.743 11.781-13.168 15.026-16.5 3.591-3.689 4.4-4.299 2.069-1.56-2.107 2.475-4.086 4.725-4.4 5-.313.275-2.361 2.75-4.552 5.5-2.19 2.75-4.328 5.15-4.75 5.333-.422.184-.767.746-.767 1.25 0 1.927 2.059.765 5.71-3.222 2.084-2.277 4.256-4.639 4.826-5.25.57-.611 2.368-2.911 3.995-5.111 1.626-2.2 3.277-4.239 3.667-4.53.39-.292 1.967-2.386 3.505-4.653 2.598-3.829 5.685-7.679 12.537-15.635 1.508-1.75 3-3.97 3.318-4.932.317-.962.996-1.75 1.509-1.75.513 0 .933-.62.933-1.378 0-.757.675-1.937 1.5-2.622.825-.685 1.535-1.977 1.579-2.872.043-.896 1.394-3.653 3.002-6.128 1.608-2.475 4.11-6.975 5.561-10 1.451-3.025 4.618-8.717 7.039-12.649l4.401-7.15 3.959.531c4.934.662 5.196-.965.843-5.232-1.683-1.65-3.694-4.513-4.468-6.362-1.673-3.995-10.303-15.469-17.365-23.086-2.778-2.996-5.051-5.996-5.051-6.667 0-.67-.337-1.368-.75-1.552-.413-.183-2.769-2.808-5.236-5.833-2.468-3.025-4.718-5.725-5-6-.283-.275-2.507-2.975-4.943-6-6.936-8.614-16.812-19-18.066-19-.385 0-1.78-.953-3.102-2.118-1.322-1.165-4.09-3.196-6.153-4.513-2.062-1.317-3.75-2.871-3.75-3.453 0-.582-.756-1.814-1.681-2.737-1.574-1.572-1.64-1.524-1.047.75l.634 2.429-2.308-2.429c-1.269-1.336-2.1-2.991-1.846-3.679.254-.687-.071-1.25-.723-1.25-1.691 0-8.155-6.962-11.939-12.859-2.869-4.472-8.563-9.141-11.147-9.141-.519 0-.943.9-.943 2s-.522 2-1.161 2c-1.133 0-6.839 5.79-6.839 6.94 0 .318-1.013 1.209-2.25 1.98-2.09 1.302-2.148 1.278-.814-.336 1.247-1.509 1.247-1.855 0-2.645-2.257-1.428-2.732-1.144-3.433 2.05-.639 2.907-2.503 5.194-2.503 3.07 0-1.588-2.703-1.275-3.341.387-.305.795-3.166 2.671-6.357 4.168-6.453 3.027-16.107 12.3-39.302 37.748l-14.562 15.975c-.584.639-3.628 4.538-6.763 8.663-6.581 8.657-9.244 12.007-16.231 20.415-2.781 3.347-5.73 7.071-6.553 8.276-.823 1.205-3.665 4.703-6.317 7.774-4.858 5.628-6.967 8.191-16.037 19.489-5.585 6.956-6.34 6.659-6.467-2.541-.038-2.798-.973-13.249-2.076-23.223-1.103-9.975-2.217-20.96-2.475-24.413-.478-6.409-.613-7.459-2.416-18.777-.57-3.575-1.294-21.575-1.609-40-.315-18.425-.858-35.525-1.205-38-.347-2.475-.55-4.851-.45-5.28.59-2.539-10.17-16.183-14.708-18.65-1.447-.787-5.331-1.539-8.631-1.672s-8.475-.68-11.5-1.215c-3.579-.633-6.143-.631-7.341.006-1.216.646-2.743.624-4.5-.065-1.462-.574-3.784-1.043-5.159-1.043-8.229 0-22.619-1.3-23.436-2.117-.53-.53-2.561-.971-4.514-.979-1.952-.009-4.131-.385-4.842-.835-.711-.451-3.411-.493-6-.092-2.589.4-5.303.402-6.031.004-.727-.397-3.315-.421-5.75-.051s-4.427.329-4.427-.09c0-.951-4.586-1.985-11.056-2.493-2.724-.214-4.944.038-4.944.561m261.676 50.413c-.625 1.629.215 2.784 1.463 2.012 1.136-.702 1.111-3.414-.032-3.414-.491 0-1.135.631-1.431 1.402m104.111 423.132c-.158.151-2.716.534-5.684.851-7.78.831-7.545 1.616.48 1.606 9.007-.011 17.417-1.042 17.417-2.135 0-.753-11.448-1.054-12.213-.322M973 723.031c0 2.276 1.529 2.638 2.33.552a1.534 1.534 0 0 0-.893-1.969c-.949-.364-1.437.117-1.437 1.417M786.516 777.93c.992 1.72 7.105 7.225 9.367 8.435 1.531.819-.747-1.456-7.288-7.279-1.597-1.422-2.533-1.942-2.079-1.156M543 805.349c0 8.232 1.295 19.651 2.229 19.651.542 0 .718-3.049.418-7.25-.284-3.987-.523-9.388-.532-12-.009-2.639-.483-4.75-1.066-4.75-.577 0-1.049 1.957-1.049 4.349m173.694 102.29c-.799.799.104 2.361 1.365 2.361.518 0 .941-.675.941-1.5 0-1.546-1.18-1.987-2.306-.861" fill-rule="evenodd"/></svg>