<svg xmlns="http://www.w3.org/2000/svg" width="1240" height="1753"><path d="M441.75 36.689c-3.075.804-1.876 2.255 1.75 2.119 3.682-.139 4.587-1.177 1.918-2.201-.87-.334-1.657-.555-1.75-.491-.092.064-.956.322-1.918.573m-9.291 1.378c-.363.586-.502 1.221-.309 1.411.688.679 5.85-.728 5.85-1.595 0-1.255-4.749-1.098-5.541.184M464 38c0 .55 1.125 1 2.5 1s2.5-.45 2.5-1-1.125-1-2.5-1-2.5.45-2.5 1m-358.282 4.265c-3.255 1.533-3.665 2.099-3.112 4.301.422 1.682.13 2.94-.868 3.735-.827.659-1.747 3.176-2.045 5.593-.298 2.417-.956 4.667-1.463 5-.507.333-1.225 1.843-1.595 3.356-.523 2.138-1.262 2.75-3.321 2.75-1.456 0-2.351.296-1.989.658 1.179 1.179-1.347 3.149-3.362 2.622-1.481-.387-1.963-.008-1.963 1.544 0 1.132-.403 2.307-.895 2.611-1.024.633-2.105-1.688-2.105-4.517 0-2.447-3.719-2.613-4.187-.187-.183.952-1.228 1.775-2.323 1.829-8.02.396-7.49.015-7.49 5.381 0 2.718-.419 5.2-.931 5.516-1.619 1.001-2.14-1.207-.917-3.891.921-2.022.894-3.111-.125-5.015-.774-1.447-1.045-3.713-.668-5.597.511-2.553.344-3.054-.863-2.591-.823.316-1.496.235-1.496-.18s-.849-.754-1.886-.754c-2.01 0-1.772 2.548.243 2.601.629.017.443.441-.414.942-1.29.755-1.582 3.525-1.704 16.189-.105 10.918.196 15.522 1.057 16.134.932.664.922.972-.046 1.364-1.959.795-1.464 2.341.75 2.341 1.1 0 2-.45 2-1s.436-1 .969-1c.532 0 .709.675.393 1.5-.317.825-.148 1.5.375 1.5.522 0 .972-3.15.999-7 .042-5.84-.222-7.003-1.593-7.015-1.19-.011-1.3-.233-.398-.806.685-.435 1.346-2.008 1.469-3.495.375-4.532 2.3-2.31 2.086 2.408-.323 7.099-.225 12.164.306 15.908.274 1.925 1.007 7.325 1.63 12s1.612 8.838 2.198 9.25c.72.506.613 1.042-.33 1.649-.794.512-1.12 1.616-.757 2.563.719 1.874 2.653 1.165 2.653-.971 0-.766.787-1.85 1.75-2.411 1.667-.971 1.667-1.021 0-1.05-.963-.016-1.773-.368-1.8-.78-.028-.412-.14-3.9-.25-7.75-.11-3.85-.65-7.372-1.2-7.826-.658-.544-.622-.983.105-1.285.607-.252.879-1.635.605-3.073-.344-1.8-.144-2.393.645-1.906.63.39 1.145 1.976 1.145 3.527 0 1.55.664 3.369 1.475 4.043 1.281 1.062 1.446.284 1.25-5.879-.124-3.907.113-7.103.525-7.102.412 0 .761 1.913.774 4.251.013 2.338.416 5.938.895 8 .538 2.321.507 3.75-.083 3.75-.525 0-.68.443-.345.985.545.882.819 17.871.359 22.265-.101.963-.96 1.75-1.91 1.75-.949 0-1.999.712-2.333 1.582-.858 2.235-.79 2.418.893 2.418.825 0 1.5-.702 1.5-1.559s.408-1.307.906-.999c.498.308.684 1.409.413 2.446-.271 1.038-.064 2.151.46 2.475.524.324.737 1.72.473 3.101-.265 1.382-.881 2.265-1.37 1.963-.489-.302-.614-1.647-.277-2.988.626-2.496-1.011-3.498-1.943-1.189-.292.725-.537.49-.583-.559-.043-.995-.529-1.531-1.079-1.191-.583.361-1-.656-1-2.441 0-3.801-1.959-4.088-2.111-.309-.188 4.684.255 7.624 1.658 11 .743 1.787.924 3.25.402 3.25S73 158.052 73 160.559s.338 4.35.75 4.095c.412-.255.75 3.544.75 8.441 0 4.985-.406 8.769-.921 8.598-.507-.169-.997-1.335-1.09-2.592-.093-1.257-.757-2.648-1.476-3.093-.873-.54-1.117-1.983-.733-4.349.322-1.983.139-3.686-.415-3.871-.652-.217-.648-1.228.01-2.959.866-2.279.714-2.703-1.144-3.189-1.179-.308-2.334-.37-2.566-.138-.233.233-.749 3.751-1.147 7.819-.399 4.067-1.081 7.972-1.516 8.676-1.241 2.008-.897 67.835.38 72.568.602 2.236 1.147 7.861 1.209 12.5.063 4.681.736 9.936 1.511 11.807.769 1.855 1.423 4.78 1.454 6.5.07 3.832 2.084 9.86 3.444 10.305.631.207.88-2.813.677-8.174-.213-5.591.044-8.503.75-8.503 1.2 0 1.47-7.803.369-10.668-.621-1.617-.794-1.539-1.47.668-.532 1.735-.619 1.275-.284-1.5.265-2.2.497-4.886.516-5.969.018-1.083.575-2.355 1.238-2.826.933-.664.922-.972-.046-1.364-1.475-.599-1.719-8.933-.288-9.818.602-.371.529-1.546-.193-3.13-.825-1.812-.845-2.73-.07-3.215.917-.572 1.319-7.241 1.415-23.428.006-.963.398-1.75.873-1.75.474 0 .806 3.713.737 8.25-.221 14.511.491 26.735 1.52 26.099.562-.347.726.19.389 1.276-.319 1.031-.686 5.391-.815 9.688-.178 5.947.115 8.032 1.224 8.734 1.244.787 1.224.925-.137.938-1.333.012-1.556 1.203-1.36 7.265.348 10.75 1.464 27.948 1.858 28.643.189.334.007 2.632-.404 5.107-.644 3.873-.766 4.047-.874 1.25-.149-3.88-2.125-4.422-2.125-.583 0 1.466-.293 2.373-.651 2.015-.359-.358-.58-4.483-.493-9.167.097-5.158-.238-8.515-.848-8.515-.555 0-1.008 2.385-1.008 5.3s-.435 5.735-.967 6.267C69.696 305.904 68.727 329 70.008 329c.546 0 .992.477.992 1.059s-.337.85-.75.596c-.412-.255-.832.731-.933 2.19-.101 1.46-.614 5.13-1.141 8.155-1.577 9.05-1.961 53.37-.634 73 .428 6.325.717 17.032.643 23.794-.086 7.766.224 12.071.84 11.691.536-.332.975-.126.975.456 0 .582-.349 1.059-.776 1.059-.427 0-.605 1.797-.396 3.994.21 2.197.671 3.815 1.027 3.594.637-.395.64 1.164.033 17.558-.171 4.595.018 12.629.42 17.854.401 5.225.997 18.275 1.324 29 .327 10.725.76 21.3.96 23.5.201 2.2.335 6.7.298 10-.037 3.3-.04 6.45-.007 7 .872 14.35 1.369 20.278 1.802 21.5.292.825.646 7.575.785 15s.545 17.775.901 23c.356 5.225.852 16.475 1.102 25 .25 8.525.893 22.025 1.428 30 1.977 29.428 1.477 87.1-.906 104.5-1.355 9.897-1.943 45.275-.932 56.063.993 10.584 1.056 16.258.648 58.437-.167 17.325.085 34.284.561 37.688.606 4.333.514 6.844-.307 8.377-.907 1.696-.893 2.361.064 2.953.807.499 1.016 1.931.601 4.139-.348 1.857-.178 21.967.378 44.689s.682 41.84.279 42.484c-.402.643-.744 4.449-.76 8.457-.016 4.008-.478 7.608-1.028 8-.606.433-1.112 10.522-1.287 25.656-.163 14.139-.707 25.448-1.255 26.109-.588.708-.653 3.478-.167 7.057.441 3.24.45 7.466.021 9.391-.429 1.925-.589 4.4-.355 5.5.234 1.1.7 12.8 1.036 26 .336 13.2 1.061 29.175 1.612 35.5.94 10.802 1.292 30.526 2.321 130.016.231 22.284.655 41.634.943 43 .289 1.366.786 10.601 1.105 20.522.319 9.921.854 21.621 1.19 26 .336 4.379.557 12.574.493 18.212-.073 6.351.269 10.25.898 10.25.683 0 .688.614.016 1.869-.55 1.027-.678 2.192-.285 2.588.393.395.793 9.567.888 20.381.352 40.022 1.054 68.734 1.739 71.163.387 1.374 1.437 4.221 2.332 6.325 1.406 3.304 1.432 3.962.192 4.826-1.095.763-1.139 1.121-.186 1.507 1.538.624 1.708 9.341.183 9.341-.613 0-.797.853-.433 2 .349 1.1.267 2.004-.183 2.008-.449.004-1.337 1.129-1.973 2.5-.744 1.604-.792 2.492-.136 2.492.563 0 .822 1.341.579 3-.301 2.047-.019 3 .886 3 .9 0 1.364-1.528 1.443-4.75.064-2.612.312-3.85.552-2.75.239 1.1.954 3.042 1.587 4.315.901 1.809.866 2.492-.158 3.125-.92.569-.981 1.014-.204 1.494.609.376 1.107.181 1.107-.434s.45-.84 1-.5c.55.34 1 1.491 1 2.559 0 1.342-.695 1.946-2.25 1.956-1.237.009-2.925.459-3.75 1-1.317.865-1.321 1.1-.028 1.931 1.262.812 1.227 1.041-.25 1.607-2.023.777-2.326 3.447-.391 3.447 1.354 0 3.049 2.731 4.157 6.699.338 1.21 1.881 3.555 3.43 5.213 2.175 2.329 2.97 4.383 3.497 9.038.588 5.198.469 5.943-.867 5.43-.851-.327-1.548-.096-1.548.513s.514 1.107 1.142 1.107c.801 0 .954 1.812.51 6.053-.357 3.417-.248 5.816.249 5.508.485-.3 1.073 1.09 1.306 3.089.337 2.885.051 3.731-1.391 4.108-2.114.553-2.079.419-.91 3.495.723 1.901.505 2.634-1.078 3.622-1.829 1.143-1.865 1.42-.451 3.577 1.406 2.147 1.383 2.377-.281 2.813-2.063.539-3.867 5.978-2.171 6.543 2.311.771.919 2.112-1.675 1.614-2.259-.434-3.033-.02-4.333 2.316-1.59 2.854-1.012 5.59 1.583 7.497.667.489.667.745 0 .766-.55.017-2.514 1.365-4.364 2.996-2.311 2.038-3.161 3.494-2.716 4.654.356.929.221 1.953-.301 2.275-2.005 1.24 1.963 4.408 6.604 5.273a506.44 506.44 0 0 1 7.527 1.459c3.158.653 3.472-.202 1.056-2.872-1.637-1.809-1.545-1.849 2.75-1.192 2.444.374 5.569 1.295 6.944 2.046l2.5 1.366-2.51-.551c-1.696-.373-3.201.093-4.643 1.437-1.174 1.093-2.407 1.715-2.741 1.381-.333-.333-.604.256-.603 1.31.003 1.291 1.765 2.867 5.398 4.826 5.031 2.714 6.458 2.966 21.246 3.747 30.763 1.624 76.461 2.79 80.061 2.042 2.005-.416 3.844-1.355 4.088-2.086.344-1.032-.532-1.183-3.927-.678-2.877.428-3.857.33-2.869-.287 2.232-1.394 18.692-2.524 34-2.335 8.819.11 16.53-.391 22.238-1.444 6.957-1.283 9.646-1.383 13.193-.49 2.45.617 6.505 1.122 9.012 1.122 2.752 0 4.557.453 4.557 1.143 0 .832 2.525.933 9.25.371 15.26-1.276 36.387-.941 91.25 1.449 13.2.574 31.315.804 40.256.509 9.99-.33 16.975-.151 18.122.463 1.17.626 3.038.663 5.006.098 1.914-.549 9.67-.475 19.878.189 24.48 1.594 40.119 1.161 49.238-1.363 4.878-1.35 11.171-2.166 18-2.334 14.578-.36 37.307-3.448 36.105-4.907-.654-.794.575-1.203 4.237-1.41 2.837-.161 7.377-.949 10.09-1.75 2.712-.802 6.312-1.406 8-1.342 1.687.064 2.28.322 1.318.573-.962.252-1.75.875-1.75 1.384 0 1.306 2.374 1.153 3.77-.243 1.558-1.558 9.23.883 9.23 2.937 0 .875.593 1.22 1.5.871.825-.316 1.5-.19 1.5.28 0 1.011 4.415 2.035 11.896 2.761 3.512.34 4.918.818 4.029 1.368-.752.464-1.155 1.051-.896 1.304 1.02.996 21.762 1.385 26.471.497 2.75-.519 7.025-1.094 9.5-1.278 2.475-.184 9.45-1.275 15.5-2.424 6.05-1.149 16.625-2.598 23.5-3.219s14.928-1.354 17.896-1.629c3.616-.335 4.935-.787 4-1.372-.965-.602-.469-.832 1.604-.744 1.65.07 4.981-.235 7.403-.679 3.238-.594 4.215-.503 3.691.345-.425.688-.061 1.152.906 1.152.89 0 1.34-.45 1-1-.34-.55-.141-1 .441-1s1.059.45 1.059 1 1.548 1 3.441 1c1.893 0 3.701.421 4.02.936.318.515 1.357.932 2.309.926.951-.006 3.693.486 6.091 1.093 2.82.715 4.773.764 5.525.139.64-.531 3.515-1.277 6.389-1.659 3.423-.454 5.225-1.166 5.225-2.064 0-.754-.436-1.371-.969-1.371-.532 0-.72-.647-.417-1.437s1.131-1.214 1.84-.942c.708.272 1.909-.094 2.667-.813.758-.72 2.279-1.463 3.379-1.653 2.552-.44 3.356-1.302 1.75-1.875-.688-.246-1.25-1.084-1.25-1.863 0-.86-1.081-1.448-2.75-1.496l-2.75-.079 2.75-1.004c3.624-1.324 3.767-4.266.174-3.579-1.525.292-2.209.126-1.676-.407.494-.494 1.991-1.106 3.325-1.359 1.335-.252 3.552-.692 4.927-.977 1.375-.285 4.3-.743 6.5-1.019 2.2-.275 6.475-1.212 9.5-2.082 3.025-.87 7.75-2.181 10.5-2.913 2.75-.732 7.418-2.079 10.374-2.992 3.835-1.186 5.683-1.353 6.45-.586.768.768.446 1.112-1.124 1.201-3.845.218-4.257.349-5.027 1.596-1.058 1.712-8.97 4.389-9.375 3.172-.186-.556-1.749-.265-3.636.676-1.82.908-5.414 1.714-7.986 1.791-3.408.102-4.596.515-4.381 1.524.22 1.036-.462 1.233-2.712.783-1.653-.331-3.286-.148-3.628.406-.343.555-1.485.735-2.539.4-2.592-.822-5.916.34-5.916 2.069 0 1.046.836 1.252 3.25.802 1.788-.333 3.644-.659 4.125-.725.481-.065 1.094.483 1.362 1.218.344.943-.357 1.28-2.375 1.144-5.074-.342-6.362-.013-6.362 1.626 0 1.165.481 1.389 1.75.816.962-.435 4.113-.975 7-1.199 3.842-.3 5.25-.815 5.25-1.924 0-.957-.57-1.295-1.552-.918-.854.327-1.317.215-1.029-.251.287-.465 2.898-1.097 5.802-1.406 2.903-.308 6.067-.87 7.029-1.25 1.028-.405 1.75-.232 1.75.418 0 .609-1.088 1.107-2.418 1.107-3.062 0-5.582.951-5.582 2.107 0 .491.862.893 1.917.893 1.054 0 2.069.457 2.255 1.016.228.683 1.97.669 5.333-.043 2.747-.582 6.12-1.233 7.495-1.447l7-1.094c2.475-.388 6.975-.827 10-.976 7.274-.358 11.954-1.175 13.357-2.33.628-.518 3.801-1.634 7.051-2.48 3.249-.846 6.174-1.9 6.5-2.342.714-.97 8.227-3.782 17.092-6.397 3.575-1.055 7.918-2.59 9.651-3.412 1.733-.822 3.672-1.495 4.309-1.495s.91-.401.608-.89c-.303-.49 1.021-1.185 2.941-1.546 1.92-.36 3.491-1.07 3.491-1.578s.603-.692 1.34-.409c.737.283 1.917-.181 2.622-1.031.706-.851 2.128-1.546 3.16-1.546 1.033 0 1.878-.695 1.878-1.544 0-.849.563-1.471 1.25-1.381 3.376.438 3.951-.311 1.25-1.626-2.918-1.421-2.927-1.447-.333-.956 1.633.308 2.829.019 3.085-.745.23-.686 1.954-1.33 3.833-1.43 1.878-.101 4.54-.381 5.915-.623s2.837-.497 3.25-.567c.413-.071.757-.915.765-1.878.013-1.501.158-1.537 1.019-.25.874 1.308 1.134 1.276 2.034-.25.567-.963 2.134-1.75 3.482-1.75 1.347 0 2.45-.45 2.45-1s.338-.951.75-.892c1.438.208 5.25-1.347 5.25-2.141 0-.44-.562-1.067-1.25-1.393-.687-.327.157-.387 1.877-.133 1.727.254 3.93-.128 4.921-.852.987-.722 2.62-1.096 3.628-.833 1.009.264 2.518-.087 3.353-.78.836-.694 1.789-.991 2.119-.661.33.329-1.144 1.406-3.274 2.392-4.261 1.972-6.9 4.1-6.09 4.91.287.288 2.348-.409 4.579-1.547 2.232-1.139 4.638-2.073 5.347-2.076.71-.004 2.52-.648 4.023-1.432 1.648-.86 2.968-1.045 3.325-.468.326.527 1.943-.179 3.594-1.568 1.651-1.389 3.642-2.526 4.425-2.526.783 0 1.423-.401 1.423-.892 0-.49 1.021-1.148 2.27-1.461 1.248-.313 3.195-1.432 4.327-2.486 1.131-1.054 3.041-2.229 4.244-2.611 1.204-.382 1.93-1.112 1.615-1.622-.316-.51.142-.928 1.016-.928.875 0 1.85-.675 2.166-1.5.317-.825 1.203-1.5 1.969-1.5s1.393-.46 1.393-1.021c0-.562 1.021-1.487 2.268-2.055 1.248-.569 3.385-2.697 4.749-4.729 1.364-2.032 3.043-4.29 3.732-5.016.688-.727 1.251-1.687 1.251-2.134 0-.446.9-1.047 2-1.335 2.05-.536 2.825-2.71.967-2.71-.569 0 .598-1.534 2.591-3.408 4.757-4.473 4.483-4.19 10.622-10.949 2.926-3.221 5.883-6.452 6.57-7.179.687-.726 1.25-1.824 1.25-2.438 0-1.375 4.544-6.026 5.887-6.026.538 0 1.293-.992 1.678-2.203.696-2.195 2.88-4.901 3.899-4.833 1.98.132 2.379-.314 2.935-3.277.835-4.453 14.241-19.687 17.324-19.687.702 0 1.277-.496 1.277-1.103s2.694-3.87 5.987-7.25c6.866-7.05 14.359-16.479 19.984-25.147 2.141-3.3 4.547-6.735 5.345-7.634 3.415-3.844 9.817-14.193 15.69-25.366 7.095-13.498 10.775-19.654 12.393-20.735.641-.427.683-.747.101-.765-.553-.017-.492-.359.135-.765 1.492-.965 6.532-9.86 10.9-19.235 5.763-12.37 8.848-18.336 11.114-21.5 2.318-3.235 5.755-10.463 6.896-14.5.638-2.26 6.909-17.787 9.692-24 .616-1.375 1.152-2.854 1.192-3.286.039-.433.597-1.112 1.241-1.51.643-.398 2.129-3.157 3.302-6.133 1.173-2.975 2.951-7.246 3.951-9.49 1.001-2.245 3.452-7.738 5.448-12.207 1.996-4.469 3.629-8.451 3.629-8.849 0-.397.64-2.141 1.422-3.874 3.097-6.86 8.798-25.389 11.585-37.651.688-3.025 1.656-6.012 2.151-6.637.964-1.219 3.079-22.17 2.356-23.34-.238-.385-.671-3.276-.962-6.423-.414-4.474-.099-6.567 1.442-9.588 1.084-2.125 1.921-5.585 1.86-7.688-.194-6.678 2.186-36.739 3.08-38.893.472-1.138.948-7.438 1.057-14 .109-6.562.285-16.206.391-21.431.106-5.225-.66-16.25-1.701-24.5s-2.052-17.925-2.247-21.5c-.584-10.703-2.042-17.629-8.103-38.5-.799-2.75-1.688-6.99-1.976-9.423-.289-2.432-3.214-12.453-6.501-22.268-3.286-9.814-6.154-18.773-6.373-19.907-.75-3.893-1.617-5.902-2.548-5.902-.513 0-.933-.757-.933-1.682 0-.926-2.761-7.563-6.135-14.75-8.724-18.581-10.214-21.971-10.029-22.818.09-.413-.286-.75-.836-.75s-1-.62-1-1.378c0-.758-2.067-5.115-4.593-9.682s-5.66-10.585-6.964-13.372c-1.304-2.787-4.184-7.958-6.401-11.49-2.217-3.532-3.83-6.623-3.584-6.869.246-.246-.094-1.053-.756-1.793-2.702-3.026-3.564-4.248-5.125-7.267-1.696-3.279-14.538-21.674-19.974-28.609-1.706-2.177-3.103-4.247-3.103-4.598 0-.779-7.365-9.439-13.5-15.873-11.192-11.738-17.045-18.305-20.072-22.519-1.797-2.503-3.641-4.55-4.098-4.55-.456 0-.718-.418-.58-.929.137-.512-.489-1.524-1.392-2.25-.903-.727-4.685-5.146-8.404-9.821-8.738-10.982-20.915-22.791-38.704-37.532-3.712-3.076-6.75-5.962-6.75-6.413 0-.451-2.925-2.726-6.5-5.055-3.575-2.329-6.522-4.52-6.549-4.867-.028-.348-3.635-2.883-8.017-5.633s-10.379-6.8-13.327-9c-2.947-2.2-8.11-5.575-11.472-7.5-3.362-1.925-6.118-4.064-6.124-4.754-.013-1.506 12.523-20.113 14.987-22.246C972.9 715.354 983 700.18 983 698.968c0-.415.704-1.024 1.563-1.354.86-.33 1.284-1.053.941-1.607-.342-.554-.186-1.007.347-1.007.977 0 19.912-37.165 19.304-37.888-.179-.214.177-.699.792-1.079s2.946-5.156 5.18-10.612c2.234-5.457 4.428-10.371 4.876-10.921.448-.55 2.016-4.15 3.485-8 1.469-3.85 3.253-8.125 3.964-9.5 1.89-3.654 7.142-18.419 9.425-26.5 2.526-8.937 5.294-16.858 6.116-17.5.966-.754 6.007-20.286 6.007-23.274 0-1.434.384-2.845.853-3.135.469-.29 1.433-3.917 2.142-8.059.708-4.143 1.616-7.532 2.017-7.532.792 0 3.358-18.946 4.943-36.5 1.114-12.339.594-50.922-.907-67.277-1.145-12.476-1.276-22.52-.44-33.723.396-5.314.013-12.029-1.142-20-.956-6.6-1.887-13.575-2.068-15.5-.182-1.925-.572-4.485-.868-5.689-.295-1.204-.086-2.468.466-2.809.552-.341 1.004-1.692 1.004-3.002 0-1.31.5-2.691 1.112-3.069.716-.443.886-2.389.477-5.468-.385-2.907-.237-4.915.378-5.122.672-.226.688-1.518.047-3.841-1.207-4.375-2.251-10.793-2.237-13.75.006-1.238-.316-2.25-.716-2.25-.4 0-.742-.562-.759-1.25-.07-2.741-3.502-12.75-4.373-12.75-.511 0-.929-1.025-.929-2.277 0-1.253-.611-3.166-1.357-4.25-.747-1.085-1.917-4.334-2.6-7.221-.683-2.886-1.647-4.997-2.142-4.691-.496.307-.901-.343-.901-1.443s-.415-2.257-.923-2.57c-.508-.314-1.229-1.963-1.602-3.664-.952-4.334-4.398-11.884-5.424-11.884-.47 0-1.364-1.238-1.985-2.75-2.008-4.89-7.185-13.523-9.09-15.158-1.816-1.56-5.058-6.585-6.859-10.633-.5-1.123-1.631-2.64-2.513-3.373-.882-.732-1.604-2.15-1.604-3.152 0-1.001-.835-2.409-1.857-3.127-1.021-.719-2.176-2.32-2.567-3.557-.391-1.238-1.086-2.25-1.545-2.25-.458 0-1.824-1.687-3.036-3.75-1.211-2.062-2.83-4.11-3.598-4.55-.769-.44-1.397-1.253-1.397-1.808 0-1.498-5.646-8.506-13-16.136-3.575-3.709-6.5-7.309-6.5-7.999 0-.69-.72-1.255-1.601-1.256-.88 0-2.89-1.576-4.465-3.501-1.576-1.925-4.118-4.741-5.65-6.259-1.531-1.517-2.784-3.258-2.784-3.868 0-.61-1.237-2.566-2.75-4.347-1.512-1.78-3.601-4.427-4.64-5.882-1.04-1.454-2.529-2.644-3.309-2.644-.781 0-1.176-.393-.879-.874.297-.481-.576-2.079-1.941-3.552-1.364-1.472-2.481-3.152-2.481-3.733 0-.58-.661-.801-1.468-.492-.807.31-1.777.064-2.154-.547-.458-.74-.218-.826.717-.258.773.469-.357-1.017-2.51-3.303-2.154-2.285-4.287-3.925-4.742-3.644-.454.281-1.975-.639-3.38-2.043-1.405-1.405-2.983-2.554-3.508-2.554-.525 0-.955-.498-.955-1.107s-.716-.832-1.591-.497c-1.785.686-7.406-2.888-7.415-4.714-.009-1.712-8.199-6.799-13.494-8.381-2.024-.605-2.904-1.45-2.706-2.599.161-.936-.203-1.702-.809-1.702-.607 0-.825.45-.485 1 1.109 1.795-2.069 1.051-4.27-1-1.18-1.1-2.422-2-2.76-2-.337 0-1.288-.675-2.113-1.5s-2.593-1.5-3.928-1.5c-1.663 0-2.429-.562-2.429-1.781 0-1.057-1.321-2.346-3.25-3.172-1.788-.766-3.659-1.601-4.159-1.856-.505-.258-.59.375-.191 1.423.559 1.468.451 1.621-.487.69-.662-.658-2.602-.991-4.309-.74-1.707.251-2.429.159-1.604-.204 1.708-.751 2.969-2.391 2.969-3.86 0-.55-.409-.354-.909.437-.735 1.162-1.353 1.209-3.234.244-2.303-1.18-2.304-1.186-.076-.619 1.237.315 2.25.145 2.25-.378s-1.012-1.222-2.25-1.554c-3.201-.858-3.956-.772-3.25.37.971 1.571-.655 1.17-2.677-.661-1.01-.913-2.157-1.338-2.55-.945-.393.393-.053 1.183.756 1.755 1.194.844 1.126.928-.361.445-1.007-.327-2.245-.594-2.75-.594-1.821 0-.865-1.703 1.582-2.818 1.521-.693 2.5-.756 2.5-.161 0 .539.45.979 1 .979 2.373 0 .681-1.822-3.054-3.289-3.951-1.552-4.077-1.537-4.937.598-.835 2.074-.892 2.084-1.064.191-.1-1.1-.108-2.398-.019-2.884.09-.486-1.319-.599-3.131-.251-2.024.388-2.772.295-1.938-.241 1.598-1.029-.231-2.629-1.857-1.624-.899.556-1.433-.757-1.118-2.75.065-.412-.745-.75-1.8-.75-3.241 0-5.082-1.125-5.082-3.107 0-2.033-2.584-2.641-3.212-.757-.473 1.418-4.788-1.052-4.788-2.739 0-1.038-12.58-7.871-13.249-7.197-.164.165-1.385-.713-2.713-1.95-1.328-1.238-3.68-2.25-5.227-2.25-1.546 0-2.811-.398-2.811-.883 0-.486-1.012-1.116-2.25-1.399-2.782-.637-8.669-2.697-10.96-3.836-.941-.467-2.351-.604-3.134-.304-.782.301-2.981-.105-4.887-.901-1.905-.796-5.877-1.779-8.826-2.185-2.95-.406-6.056-1.093-6.903-1.526-.847-.434-4.089-1.342-7.205-2.017-3.681-.798-5.502-1.653-5.199-2.442.447-1.164-8.176-3.399-14.791-3.833-1.459-.096-2.468-.475-2.241-.843.227-.367-1.053-.958-2.845-1.312-1.793-.354-4.538-1.138-6.101-1.741-2.088-.806-3.028-.797-3.541.033-.931 1.506-8.117.332-8.117-1.325 0-1.496-9.197-2.463-19.5-2.051-8.555.342-8.5.332-8.5 1.565 0 .55 2.587 1.083 5.75 1.185l5.75.185-5.331.37c-2.932.204-5.873-.079-6.534-.628-.662-.549-2.088-.833-3.169-.632-1.081.202-3.178.401-4.659.443-2.127.061-2.612.493-2.311 2.056.514 2.669-.813 3.289-3.967 1.852l-2.62-1.194 2.795-1.277c2.36-1.078-.437-1.246-17.954-1.076-11.413.111-20.75.542-20.75.959 0 .416.675.757 1.5.757s1.5.48 1.5 1.067-.788.826-1.75.531c-.962-.295-3.409-.64-5.436-.767-2.584-.162-3.826-.769-4.156-2.031-.325-1.244-1.426-1.8-3.564-1.8-1.775 0-3.121-.533-3.157-1.25-.035-.687-.563-.125-1.174 1.25-1.107 2.494-1.111 2.495-1.506.25-.305-1.731-1.072-2.25-3.327-2.25-1.611 0-3.267-.062-3.68-.138-.413-.076-1.2.712-1.75 1.75-.83 1.566-2.108 1.877-7.5 1.823-3.575-.036-7.119-.261-7.875-.5-.756-.239-1.578.24-1.826 1.065-.401 1.333-.333 1.333.61 0 .719-1.017 1.065-1.097 1.076-.25.008.688.69 1.25 1.515 1.25s1.5.398 1.5.883c0 1.591-4.255 2.041-8.516.902-2.296-.615-5.005-.799-6.018-.41-1.014.389-13.634.856-28.045 1.039-14.412.183-26.702.642-27.312 1.019-.61.377-1.109.197-1.109-.4 0-.686-1.055-.539-2.873.401-1.58.818-3.14 1.22-3.465.894-1.186-1.185-9.662-1.372-9.662-.213 0 1.41-5.654.417-7.808-1.371-.824-.684-2.442-1.361-3.595-1.505-3.258-.405-27.096-1.188-37.014-1.215-4.904-.013-8.653-.287-8.331-.609.322-.322 6.531-.538 13.797-.479 13.634.109 19.951-.528 19.951-2.013 0-.892-32.217-.412-56.759.846-12.848.659-14.481.554-16.5-1.052-1.962-1.561-3.674-1.713-13.741-1.217-6.325.312-12.4.806-13.5 1.099-1.582.421-1.693.321-.529-.479 1.773-1.219.709-2.658-1.127-1.524-.708.438-3.011.672-5.117.52-2.106-.152-4.426.219-5.156.825-.929.771-2.132.796-4.007.084-1.75-.666-2.465-.673-2.062-.022.89 1.44-2.87 1.229-4.344-.245-.792-.792-1.497-.883-1.95-.25-.668.937-3.806 1.342-12.458 1.612-2.062.064-3.75.54-3.75 1.057 0 .518-.445.666-.99.329-.544-.336-3.476-.151-6.516.41-3.482.644-6.432.678-7.975.091-1.574-.598-2.669-.573-3.068.072-.341.551-1.538.711-2.66.355-1.16-.369-2.355-.14-2.769.53-.401.648-2.257 1.351-4.125 1.561-7.127.803-7.384.938-8.57 4.475l-1.173 3.5-.122-3.5-.122-3.5-1.374 3c-.959 2.095-1.398 2.448-1.455 1.171-.064-1.451-.651-1.717-2.831-1.285-7.811 1.549-10.818 1.616-23.25.515-7.425-.658-16.141-1.337-19.369-1.51-3.618-.193-7.454-1.159-10-2.517-4.729-2.524-15.278-3.128-31.631-1.812-7.029.566-10.02.438-11.5-.492-1.1-.692-4.648-1.564-7.885-1.938-3.237-.375-6.387-1.005-7-1.4-.613-.395-2.015-.775-3.115-.845-1.1-.069-5.107-.479-8.904-.91-5.129-.583-6.721-.488-6.191.369.392.635 2.149 1.206 3.904 1.27 1.755.064 2.398.323 1.429.576-.969.253-1.477.922-1.127 1.487.349.566-.523.269-1.939-.658-1.603-1.051-3.441-1.442-4.873-1.038-1.789.504-1.966.415-.799-.402 2.231-1.562.743-1.299-2.885.511-1.755.876-3.962 1.295-4.903.93-.942-.364-4.358-.865-7.591-1.113-3.234-.248-6.346-.739-6.917-1.092-.57-.352-9.857-.681-20.638-.729-16.771-.075-20.141.167-23.348 1.677M612.5 44c-.357.577.57.994 2.191.985 2.181-.012 2.474-.232 1.309-.985-1.921-1.242-2.733-1.242-3.5 0m70.75 1.662c-1.96.791-1.463 2.338.75 2.338 1.111 0 2-.667 2-1.5 0-1.541-.574-1.716-2.75-.838M651.5 47l-7 .647 8.25.176c4.951.106 8.25-.223 8.25-.823 0-.55-.562-.921-1.25-.823-.687.097-4.4.467-8.25.823m11.829.662c.762.762 7.692.65 8.479-.137.289-.289-1.65-.525-4.308-.525s-4.535.298-4.171.662m-21.579 3.061c1.788.222 4.712.222 6.5 0 1.788-.221.325-.403-3.25-.403s-5.038.182-3.25.403M773 54.889c0 .611.81 1.111 1.8 1.111s2.228.39 2.75.868c1.482 1.353 7.45 2.22 7.45 1.082 0-1.167-3.296-2.54-8.393-3.496-2.385-.447-3.607-.3-3.607.435M79.614 72.563c-.33.86-1.053 1.284-1.607.941-.554-.342-1.007-.145-1.007.437S77.9 75 79 75c1.333 0 2-.667 2-2 0-2.398-.565-2.576-1.386-.437m818.806 49.488c2.646 1.678 5.026 2.836 5.29 2.572.619-.619-7.288-5.623-8.886-5.623-.669 0 .949 1.373 3.596 3.051M394 125c0 1.65.413 3 .917 3 1.223 0 1.864-2.089 1.304-4.25-.736-2.837-2.221-2.001-2.221 1.25m512 1.188c0 1.609 3.929 4.238 4.847 3.244.359-.388.082-.909-.615-1.158-.697-.249-1.935-1.12-2.75-1.935-1.158-1.158-1.482-1.191-1.482-.151m12.182 10.144c2.925 2.932 5.659 5.153 6.075 4.936.416-.217 1.027.309 1.357 1.169.33.859 1.472 1.563 2.538 1.563 1.802 0 1.774-.165-.408-2.347-1.291-1.29-3.561-3.142-5.045-4.115-1.485-.972-2.699-2.418-2.699-3.212s-.399-1.197-.887-.896c-.487.301-1.442-.122-2.122-.941-.68-.819-1.887-1.489-2.682-1.489-.795 0 .948 2.399 3.873 5.332M72.07 134.869c-1.122 2.096-.504 3.138 1.847 3.116 1.392-.014 1.402-.144.083-1.076-1.129-.799-1.191-1.187-.25-1.568 1.47-.597 1.683-2.341.285-2.341-.53 0-1.415.841-1.965 1.869m869.275 16.96c.91 1.006 1.655 2.096 1.655 2.423 0 1.021 5.883 6.531 6.41 6.004.275-.275-.83-1.829-2.455-3.455-1.625-1.625-2.955-3.547-2.955-4.271 0-.724-.712-1.589-1.582-1.923-2.579-.99-2.823-.712-1.073 1.222M80 155c0 .55-.675 1-1.5 1-1.147 0-1.459 1.117-1.325 4.75l.174 4.75.388-4.35c.315-3.528.713-4.265 2.111-3.9 1.173.307 1.723-.141 1.723-1.4 0-1.017-.353-1.85-.785-1.85-.432 0-.786.45-.786 1m281 3c0 .55 1.238.968 2.75.93 2.437-.063 2.522-.168.75-.93-2.731-1.174-3.5-1.174-3.5 0m-281 3.333c0 1.872.96 2.619 2.572 2.001 1.163-.446 1.159-.746-.026-1.931-1.759-1.759-2.546-1.781-2.546-.07m195.829 6.817c-1.852.517-1.612.647 1.171.632 1.925-.01 4.85-.372 6.5-.803 2.719-.711 2.609-.77-1.171-.632-2.294.084-5.219.446-6.5.803M265 169.731c-1.925.227-3.911.813-4.414 1.304-.969.947 4.715.345 9.914-1.05 2.63-.705 2.691-.796.5-.735-1.375.039-4.075.255-6 .481m-41.655 3.519c-.255.412 1.026.784 2.846.827 1.82.042 4.095.227 5.055.41.96.184 1.973-.032 2.249-.48.277-.448-1.789-.97-4.591-1.161-2.803-.19-5.304-.008-5.559.404M248.5 173c-.738 1.194 1.222 1.194 4 0 1.786-.767 1.712-.867-.691-.93-1.48-.038-2.969.38-3.309.93M78 179c0 1.1.354 2 .787 2 .433 0 .855-.9.938-2 .083-1.1-.271-2-.787-2s-.938.9-.938 2m77.286 92.5c.008 2.75.202 3.756.432 2.236.229-1.52.223-3.77-.014-5-.237-1.23-.425.014-.418 2.764M83.351 274c.347 3.025.636 6.738.64 8.25.005 1.512.373 2.75.819 2.75.903 0-.477-15.033-1.463-15.93-.345-.313-.343 1.905.004 4.93m-3.099 8.5c.011 2.2.216 2.982.455 1.738.239-1.244.23-3.044-.02-4s-.446.062-.435 2.262M566.5 312.061c-7.15.994-16.375 2.061-20.5 2.373-8.88.669-13.071 1.452-14.673 2.74-1.623 1.305-24.763 2.962-30.602 2.192-3.575-.472-5.209-.243-6.5.912-1.796 1.606-9.225 2.153-9.225.679 0-.463 1.913-1.016 4.25-1.229 2.337-.214-6.1-.42-18.75-.46-12.65-.039-25.025.278-27.5.705-2.592.447-3.44.836-2 .915 9.527.529 8.916 3.101-.75 3.156-4.262.024-11.125.497-15.25 1.05s-8.972.969-10.771.923c-1.8-.045-4.95.363-7 .908-4.906 1.303-29.014 4.072-35.574 4.086-2.835.006-6.832.288-8.881.627l-3.727.616.495 6.439c.272 3.541.17 6.964-.226 7.605-.397.642-.843 1.85-.992 2.684-.148.835-.758 4.218-1.355 7.518s-1.103 6.45-1.124 7c-.228 5.94 1.684 49.113 2.636 59.5 2.222 24.247.94 110.004-2.459 164.5-.515 8.25-1.407 25.575-1.983 38.5-.577 12.925-1.47 25.3-1.986 27.5-.732 3.121-1.441 47.298-.953 59.376.093 2.298.282 2.353 5.748 1.669 6.71-.839 33.145-1.995 45.152-1.973 4.675.008 23.575.15 42 .316 44.287.397 56.27-.89 83-8.92 5.225-1.569 11.975-2.882 15-2.917 3.025-.035 7.975-.731 11-1.546 3.025-.815 6.632-1.487 8.015-1.493 1.383-.007 4.122-.873 6.086-1.926 3.232-1.733 6.34-2.44 15.399-3.505 4.381-.515 18.841-4.634 19.95-5.683 1.288-1.218 2.819-1.142 2.05.102-.982 1.589 1.089 1.174 5.973-1.199 2.49-1.21 4.527-2.803 4.527-3.542 0-1.559 9.16-7.508 12.3-7.987 2.133-.326 12.756-5.932 13.7-7.23.889-1.223 4-2.009 4-1.011 0 1.135 2.678 1.319 3.167.219.183-.413 4.158-2.604 8.833-4.871 4.675-2.266 11.65-6.283 15.5-8.926 3.85-2.644 10.996-7.539 15.881-10.88 12.273-8.393 13.076-8.977 13.439-9.783.176-.39 3.973-2.865 8.437-5.5 7.276-4.294 13.083-9.106 17.894-14.827.907-1.08 3.042-3.088 4.743-4.463 6.56-5.302 12.502-11.763 16.718-18.175 2.413-3.671 4.388-6.914 4.388-7.206 0-.713 4.927-7.939 5.862-8.597.7-.493 5.284-7.163 7.918-11.522 2.245-3.715 4.951-9.975 6.269-14.5.721-2.475 1.675-4.99 2.12-5.589.445-.599 1.057-3.074 1.359-5.5.303-2.426.986-4.562 1.517-4.746.532-.185.768-.659.523-1.054-.244-.395-.051-2.494.428-4.665.985-4.458 1.298-21.383.65-35.153-.401-8.536-2.827-19.517-4.803-21.743-.464-.523-.843-1.682-.843-2.578 0-1.666-3.683-11.318-7.048-18.472-1.035-2.2-2.57-5.575-3.413-7.5-2.014-4.602-5.302-10.106-14.2-23.768-4.037-6.197-7.339-11.709-7.339-12.25 0-.54-.477-.982-1.059-.982s-.781-.45-.441-1 .115-1-.5-1-.897-.358-.627-.795c.27-.437-1.059-3.024-2.954-5.75a1847.263 1847.263 0 0 1-6.918-10.036c-3.167-4.636-13.715-14.192-22.501-20.387-9.221-6.5-16.372-11.032-17.411-11.032-1.491 0-15.908-6.908-16.576-7.943-.282-.437-2.988-2.038-6.013-3.557-3.025-1.519-5.725-3.066-6-3.437-.763-1.03-18.845-9.602-24.5-11.614-2.75-.979-5.428-2.155-5.95-2.614-.522-.459-2.138-.835-3.59-.835s-6.65-1.385-11.55-3.078c-4.901-1.692-10.929-3.551-13.396-4.131-2.467-.579-4.98-1.729-5.584-2.556-1.164-1.592-8.592-3.161-14.43-3.048-1.925.037-9.35.881-16.5 1.874m-488.912 6.821c.496 5.851.39 6.329-1.273 5.747-1.716-.599-1.719-.559-.065.729 1.104.859 1.776 2.799 1.82 5.252.039 2.14.484 4.79.989 5.89 1.13 2.461.112-15.851-1.15-20.693-.624-2.393-.713-1.542-.321 3.075m373.441 3.079c-.809.512-1.181 1.221-.825 1.576.874.874 4.796-.438 4.796-1.604 0-1.19-2.068-1.176-3.971.028m-372.112 18.73a71.423 71.423 0 0 1-.321 3.895c-.131 1.147.1 2.947.513 4 .61 1.555.779 1.351.904-1.086.085-1.65.267-4.032.406-5.292.139-1.261-.123-2.525-.583-2.809-.46-.285-.873.297-.919 1.292M110.272 407c0 2.475.195 3.488.434 2.25.238-1.238.238-3.262 0-4.5-.239-1.238-.434-.225-.434 2.25m-33.182 8.95c-.064 3.145.222 4.138.974 3.386.724-.724.753-2.145.09-4.45l-.974-3.386-.09 4.45m3.085 22.178c-.127 3.367.302 5.001 1.575 6 1.529 1.198 1.601 1.18.569-.148-.65-.835-1.359-3.535-1.576-6l-.394-4.48-.174 4.628m-2.923 1.372c.011 2.2.216 2.982.455 1.738.239-1.244.23-3.044-.02-4s-.446.062-.435 2.262m4.387 10.75c-.324 1.788-.761 6.002-.971 9.365-.211 3.364-.616 6.514-.901 7-.284.487-.177 1.785.239 2.885.488 1.292.211 2.62-.78 3.75-1.055 1.201-1.154 1.75-.318 1.75.67 0 1.138.788 1.04 1.75-.098.962-.078 2.2.044 2.75.122.55.132 4.315.022 8.367-.11 4.051.179 7.132.643 6.846.464-.287.877 3.598.918 8.633.041 5.035.557 10.054 1.145 11.154.666 1.245.935 7.21.712 15.795-.303 11.649-.122 13.887 1.162 14.379.837.321 1.298 1.164 1.027 1.872-.272.709.17 1.543.982 1.855 1.23.472 1.376-.307.875-4.667-.331-2.879-.704-7.486-.828-10.238-.125-2.751-.592-5.594-1.039-6.316-.446-.722-.545-1.579-.22-1.905.325-.325.09-1.195-.522-1.933-.747-.9-.767-1.342-.062-1.342 1.003 0 .934-6.835-.238-23.5-1.111-15.804-1.226-19.5-.605-19.5.709 0 .55-3.925-.528-13-.359-3.025-.595-8.538-.525-12.25.139-7.317-.342-8.64-1.272-3.5m5.199 110.122c.527 5.93 2.162 7.015 2.162 1.435 0-2.781-.499-4.785-1.265-5.078-.927-.356-1.167.616-.897 3.643m75.719 110.536c-.308.499-.139 1.961.378 3.25.878 2.191.942 2.132 1.002-.908.064-3.286-.356-3.999-1.38-2.342m88.695 52.592c.011 2.2.216 2.982.455 1.738.239-1.244.23-3.044-.02-4s-.446.062-.435 2.262m-6.118 27.5c-.057 1.925.333 4.175.866 5 .798 1.234.951 1.146.866-.5-.056-1.1-.446-3.35-.866-5l-.763-3-.103 3.5M931.5 765.917c1.65 1.139 3.663 2.073 4.473 2.076 1.99.009-1.613-2.479-4.973-3.434-2.315-.658-2.278-.558.5 1.358m-.5 1.925c0 1.121 1.869 2.621 4.391 3.526 1.631.584 1.711.46.583-.9-1.729-2.083-4.974-3.796-4.974-2.626m8.77 2.158c1.18 1.1 2.46 2 2.843 2s-.118-.9-1.113-2-2.275-2-2.844-2c-.568 0-.067.9 1.114 2m-699.983 3c-.242 1.65-.069 3 .386 3s.827-1.35.827-3-.174-3-.387-3c-.212 0-.584 1.35-.826 3m717.772 8.468c2.539 1.921 4.025 1.94 2.441.032-.685-.825-1.951-1.5-2.814-1.5-1.255 0-1.181.293.373 1.468m-776.813 22.678c.63.63.951 2.543.713 4.25-.394 2.828-.353 2.882.455.604 1.431-4.035 1.23-6-.614-6-1.278 0-1.415.285-.554 1.146m25.83 4.354c-.408 1.65-.916 3.563-1.128 4.25-.212.688.042 1.25.564 1.25 1.198 0 2.304-4.25 1.737-6.671-.319-1.359-.62-1.058-1.173 1.171m31.631 31.5c-.062 3.512.142 4.108.928 2.712.642-1.14.671-2.769.079-4.5-.844-2.465-.936-2.302-1.007 1.788m-56.847 21.504c-.344.897-.176 2.08.373 2.629.665.665 1.18.309 1.539-1.066.653-2.496-1.027-3.869-1.912-1.563m57.391 3.02c-.266 1.388-.093 2.765.383 3.059.476.294.866-.842.866-2.524 0-3.712-.593-3.967-1.249-.535m.238 13.726c-.006 1.788-.29 4.938-.631 7-.621 3.758.823 5.327 2.024 2.198.327-.854.236-1.33-.203-1.059-.439.272-.605-2.18-.368-5.448.236-3.267.15-5.941-.191-5.941-.341 0-.625 1.462-.631 3.25M181.272 887c0 2.475.195 3.487.434 2.25.238-1.237.238-3.263 0-4.5-.239-1.237-.434-.225-.434 2.25m58.048 65c0 3.575.182 5.038.403 3.25.222-1.788.222-4.712 0-6.5-.221-1.788-.403-.325-.403 3.25m367.579 3.943c-4.599.457-5.555.87-5.339 2.307.149.992-.374 1.75-1.208 1.75-.808 0-1.259-.341-1.001-.758.574-.929-10.485-.895-11.992.036-.594.367-1.378.37-1.741.006-.941-.94-20.653-.336-22.574.692-7.05 3.774-59.044 4.66-59.044 1.006 0-.456-2.587-.873-5.75-.926-3.163-.053-8-.186-10.75-.296-9.706-.386-49.053 1.374-53 2.372-6.534 1.651-63.916 2.381-68.492.871-4.05-1.337-11.495-.6-10.483 1.037.319.517-1.468 1.487-3.971 2.157-2.503.669-4.75 1.911-4.994 2.76-.244.849-.754 14.593-1.133 30.543s-1.193 33.05-1.808 38c-1.984 15.962-.654 158.535 1.543 165.391.597 1.866.864 6.499.593 10.296-.272 3.797-.096 10.596.391 15.108 1.257 11.654 1.888 40.844.869 40.214-1.815-1.121-3.178 6.497-2.461 13.751 1.99 20.125 2.931 91.435 1.234 93.49-.753.912-.589 1.25.609 1.25 1.283 0 1.498.6.984 2.75-.361 1.513-1.077 3.285-1.591 3.94-.514.654-.79 5.268-.613 10.252.178 4.984.076 9.062-.226 9.06-.302-.001-.366 1.573-.141 3.498.264 2.257-.011 3.5-.774 3.5-.65 0-1.035.765-.855 1.701.272 1.411 1.775 1.755 8.823 2.017 15.209.566 81.995.796 81.996.282 0-.275 18-.5 39.999-.5 22 0 40-.225 40.001-.5 0-.275 3.713-.444 8.25-.376 18.733.281 29.447.206 32.75-.229 1.925-.253 13.175-.596 25-.762 11.825-.165 24.814-.868 28.864-1.562 4.051-.693 8.551-1.022 10-.731 1.45.292 10.961-.065 21.136-.793 10.175-.727 21.875-1.36 26-1.406 4.125-.047 13.575-.768 21-1.603 7.425-.835 17.227-1.523 21.782-1.528 5.18-.006 9.665-.588 11.973-1.552 2.031-.849 4.604-1.455 5.718-1.349 1.115.106 3.301-.327 4.858-.964 1.556-.636 4.931-1.644 7.5-2.24 2.568-.596 5.344-1.339 6.169-1.652.825-.312 2.107-.467 2.85-.344.742.123 2.953-.537 4.914-1.467 1.961-.931 4.608-1.692 5.882-1.692 1.275 0 2.074-.394 1.777-.875-.298-.481-.036-.875.582-.875s3.583-1.125 6.589-2.5c3.006-1.375 6.014-2.51 6.686-2.522.671-.012 2.345-.902 3.72-1.978s2.881-1.966 3.346-1.978c.465-.012 2.188-.978 3.83-2.147 1.641-1.169 4.073-2.125 5.404-2.125 1.331 0 2.42-.382 2.42-.849 0-.467 1.462-1.599 3.25-2.515 1.788-.916 3.475-1.94 3.75-2.276.275-.335 2.3-1.554 4.5-2.707 11.245-5.896 18.532-10.054 23.5-13.411 3.025-2.043 7.75-4.857 10.5-6.253 5.742-2.914 16.256-12.712 22.255-20.739 2.261-3.025 5.491-7.044 7.178-8.93 1.687-1.887 3.067-3.796 3.067-4.243 0-.446 3.284-4.078 7.299-8.069 4.014-3.992 8.852-9.273 10.75-11.735 1.898-2.463 5.701-7.025 8.451-10.14 2.75-3.114 6.575-8.716 8.5-12.447 1.925-3.732 4.043-7.331 4.708-7.997 1.59-1.595 10.974-21.434 13.452-28.439 1.07-3.025 2.372-6.281 2.893-7.236.521-.955.947-2.418.947-3.25 0-.833.477-1.514 1.059-1.514s.75-.5.372-1.112c-.378-.611-.249-1.399.286-1.75 1.025-.672 7.659-21.079 11.26-34.638 1.168-4.4 2.519-8.9 3.002-10 .482-1.1 1.125-3.575 1.428-5.5.968-6.144.7-38.273-.372-44.611-1.077-6.368-4.871-16.359-9.435-24.852-1.467-2.729-3.377-7.403-4.244-10.386-.868-2.982-4.907-11.887-8.977-19.787-4.069-7.9-7.101-14.364-6.736-14.364.365 0-.335-.866-1.556-1.924-1.22-1.059-2.189-2.184-2.153-2.5.285-2.492-.15-3.576-1.434-3.576-.825 0-1.447-.338-1.382-.75.386-2.444-.261-5.279-1.089-4.768-.534.33-1.257-.544-1.608-1.941-.351-1.398-1.009-2.541-1.462-2.541-.453 0-1.077-.787-1.386-1.75-1.117-3.484-11.94-14.964-19.273-20.445-7.802-5.831-8.777-6.622-14.535-11.805-6.164-5.548-7.745-6.517-7.828-4.8-.035.715-.508.186-1.052-1.176-.737-1.848-1.197-2.138-1.812-1.143-1.068 1.729-4.007.824-11.073-3.411-8.326-4.989-24.235-12.459-26.55-12.465-1.128-.003-2.478-.429-3-.947-.523-.518-3.875-1.421-7.45-2.006-5.226-.855-6.674-.801-7.39.277-.708 1.065-2.45.559-8.5-2.469-7.389-3.698-12.845-5.279-22.075-6.397-2.456-.297-4.722-.957-5.036-1.465-.314-.508-3.03-1.173-6.035-1.477-3.005-.304-8.839-.919-12.964-1.368-4.125-.449-12.787-.637-19.249-.419-7.869.267-14.309-.097-19.5-1.101-4.263-.825-10.451-1.797-13.751-2.161-7.301-.804-23.182-4.028-30-6.089-3.758-1.136-11.083-1.572-29.5-1.754-13.475-.133-27.021.008-30.101.314m153.748 8.818c-.575.931 13.424 3.501 14.3 2.625 1.042-1.042-2.624-2.356-6.615-2.371-2.293-.008-4.835-.271-5.649-.583-.814-.313-1.73-.164-2.036.329M238.787 971c-.242 1.65-.069 3 .386 3s.827-1.35.827-3-.174-3-.387-3c-.212 0-.584 1.35-.826 3m537.296-2.642c.23.198 2.217.635 4.417.972 2.724.418 3.521.308 2.5-.343-1.366-.871-7.887-1.464-6.917-.629m-521.74 9.142c.003 4.4.179 6.076.39 3.724.212-2.352.209-5.952-.006-8s-.388-.124-.384 4.276m8.264-3.918c-.952 2.48-.711 6.418.393 6.418.55 0 1-1.8 1-4 0-4.263-.411-4.977-1.393-2.418m529.391-.128c1.375.76 2.712 1.17 2.972.91.672-.673-2.184-2.337-3.97-2.313-.87.011-.45.601.998 1.403m6.359 3.046c.825.825 2.32 1.484 3.322 1.465 1.461-.029 1.327-.318-.679-1.465-3.283-1.876-4.519-1.876-2.643 0m5.643 5c0 .825.788 1.506 1.75 1.514.962.007 2.763.285 4 .616 3.462.928 2.675-1.286-.899-2.532-4.149-1.446-4.851-1.388-4.851.402m-564.844 5c-.06 3.742.223 5.436.751 4.5.465-.825.508-3.525.095-6l-.752-4.5-.094 6m-6.904 17c.011 2.2.216 2.982.455 1.738.239-1.244.23-3.044-.02-4s-.446.062-.435 2.262m-.252 9.774c0 1.435.468 2.897 1.04 3.251.682.421.806-.333.359-2.191-.92-3.832-1.399-4.194-1.399-1.06m879.141 23.357c.575 2.128 1.423 4.267 1.886 4.753.463.486.301-.946-.36-3.184-1.554-5.264-2.898-6.645-1.526-1.569m22.235 5.906c.324.845 1.303 4.108 2.175 7.25 2.197 7.916 2.434 8.561 2.95 8.046.581-.581-4.387-16.833-5.146-16.833-.313 0-.304.692.021 1.537m-951.859 10.409c-.782 2.463-.245 13.046.661 13.051.373.001.644-3.372.601-7.497-.043-4.125-.205-7.5-.361-7.5s-.561.876-.901 1.946m105.793 6.554c.005 3.3.192 4.529.415 2.732.222-1.797.218-4.497-.01-6-.229-1.503-.411-.032-.405 3.268m851.789.619c-.054.891 1.006 4.941 2.356 9 1.351 4.06 2.473 6.706 2.495 5.881.055-2.145-4.732-16.83-4.851-14.881m20.916 4.072c.009.72.452 1.984.985 2.809.788 1.219.972 1.09.985-.691.008-1.205-.435-2.469-.985-2.809-.55-.34-.993-.029-.985.691m-920.834 7.803c-.03 2.181.367 4.226.882 4.545.523.323.937-1.188.937-3.421 0-2.2-.397-4.245-.882-4.545-.486-.3-.907 1.239-.937 3.421m-109.851.256c.108 2.797 1.052 3.558 2.17 1.75.34-.55.174-1-.368-1s-1.193-.787-1.447-1.75-.414-.513-.355 1m1033.28.75c.341 1.925 1.024 4.175 1.519 5 1.064 1.776.041-3.408-1.283-6.5-.577-1.349-.654-.861-.236 1.5m-875.324 4.5c.008 2.75.202 3.756.432 2.236.229-1.52.223-3.77-.014-5-.237-1.23-.425.014-.418 2.764m857.321 3c.293 2.2.638 4.774.767 5.721.129.947.568 2.055.976 2.463.884.883-.293-7.321-1.46-10.184-.523-1.281-.625-.562-.283 2m-905.93 1.101c.338.88.041 1.955-.659 2.388-.701.433-.935 1.336-.521 2.006.579.937.951.905 1.613-.138 1.17-1.847 1.116-5.857-.079-5.857-.532 0-.692.72-.354 1.601m887.85 1.443c.355.574.101 1.699-.563 2.5-.974 1.173-.894 1.456.414 1.456 1.063 0 1.622-.861 1.622-2.5 0-1.375-.477-2.5-1.059-2.5s-.769.47-.414 1.044m-998.412 11.506.115 4.95.791-4c.444-2.246.394-4.417-.115-4.95-.547-.573-.86 1.014-.791 4m6.096-2.012c-.71.804-.855 1.462-.324 1.462.532 0 1.172.787 1.424 1.75.251.963.509.287.573-1.5.131-3.679.095-3.717-1.673-1.712M237 1097.441c0 1.407.45 2.559 1 2.559s1-.873 1-1.941-.45-2.219-1-2.559c-.567-.351-1 .49-1 1.941m930.118-.691c.065.963.468 3.1.896 4.75.657 2.538.754 2.269.631-1.745-.08-2.61-.483-4.747-.895-4.75-.412-.003-.697.782-.632 1.745m-74.103 9.941c-.008 1.755.435 3.469.985 3.809 1.282.792 1.282-3.517 0-5.5-.738-1.141-.973-.737-.985 1.691m-855.695 5.829c-.1 1.953.233 3.256.75 2.937 1.104-.683 1.265-6.459.18-6.453-.412.003-.831 1.585-.93 3.516m927.795 2.48c-.046 1.375.352 3.175.885 4 .862 1.333.96 1.333.885 0-.046-.825-.445-2.625-.885-4l-.801-2.5-.084 2.5m-990.843 5c0 2.475.195 3.487.434 2.25.238-1.237.238-3.263 0-4.5-.239-1.237-.434-.225-.434 2.25m992.98 8.5c.011 2.2.216 2.982.455 1.738.239-1.244.23-3.044-.02-4s-.446.062-.435 2.262m5.175 5.061c-.041 3.649.28 5.928.735 5.212.963-1.518.974-7.576.018-9.985-.374-.941-.713 1.207-.753 4.773m-75.404-4.561c-.519 1.468-.433 7.247.113 7.584 1.052.65 1.55-2.909.782-5.584-.395-1.375-.798-2.275-.895-2m56.332 10.5c-.003 4.95.166 7.101.376 4.78.209-2.321.212-6.371.005-9-.206-2.629-.378-.73-.381 4.22m-3.714-4.29c-.338 1.26-.55 5.215-.473 8.79.142 6.5.142 6.5.827-2 .724-8.991.644-10.518-.354-6.79m17.359 3.123c0 2.567.349 4.667.775 4.667.93 0 .826-7.732-.116-8.674-.362-.363-.659 1.441-.659 4.007m-69.849 4.667c-.044.825.563 2.625 1.349 4 1.411 2.468 1.43 2.472 1.465.25.019-1.237-.382-2.25-.892-2.25-.509 0-1.132-.787-1.384-1.75-.319-1.222-.481-1.297-.538-.25m74.864 12.417c-.008 7.104.203 12.699.468 12.433.902-.902 1.269-22.633.406-23.996-.504-.794-.865 3.983-.874 11.563M1167 1152c0 1.65.372 3 .827 3 .455 0 .628-1.35.386-3s-.614-3-.826-3c-.213 0-.387 1.35-.387 3m-929.469.293c-.428.986-.497 2.074-.155 2.417 1.016 1.015 1.835-.411 1.367-2.382-.414-1.747-.468-1.748-1.212-.035m31.721 11.207c.011 2.2.216 2.982.455 1.738.239-1.244.23-3.044-.02-4s-.446.062-.435 2.262m-31.622 3.75c-.881 3.288-.762 13.55.163 14.122.437.27.774-3.304.751-7.941-.024-4.637-.103-8.431-.177-8.431s-.405 1.013-.737 2.25m23.141 10.516c-.254.971-.113 2.659.314 3.75.59 1.511.791 1.09.845-1.766.075-4.018-.41-4.848-1.159-1.984M269 1183.5c0 4.308.296 7.537.658 7.175.708-.708.512-13.839-.218-14.569-.242-.241-.44 3.086-.44 7.394m-89.728 2.5c0 2.475.195 3.487.434 2.25.238-1.237.238-3.263 0-4.5-.239-1.237-.434-.225-.434 2.25m58.74 2c-.149 2.475-.396 6.391-.551 8.703-.183 2.747.224 4.621 1.177 5.411 1.033.858 1.128 1.413.325 1.909-.781.482-.672.875.352 1.268 1.14.437 1.461-.211 1.388-2.799-.054-1.875-.521-3.104-1.056-2.774-.569.352-.748-.589-.441-2.313.285-1.598.194-5.38-.203-8.405l-.721-5.5-.27 4.5m22.752-2.25c-.194.412-.06 2.55.299 4.75l.653 4 .142-4.75c.132-4.419-.245-5.799-1.094-4m.944 18.25c.302 4.675.716 8.688.92 8.917.677.758.239-8.338-.622-12.917-.614-3.27-.696-2.176-.298 4m-8.456-.5c.011 2.2.216 2.982.455 1.738.239-1.244.23-3.044-.02-4s-.446.062-.435 2.262m-15.403 6.25c-.211.963-.106 3.775.233 6.25.595 4.334.623 4.27.768-1.75.148-6.155-.247-7.932-1.001-4.5m-58.098 1.774c-.266 1.388-.093 2.765.383 3.059.476.294.866-.842.866-2.524 0-3.712-.593-3.967-1.249-.535M270.272 1223c0 2.475.195 3.487.434 2.25.238-1.237.238-3.263 0-4.5-.239-1.237-.434-.225-.434 2.25m-17.555-2.25c-.221.412-.068 1.875.341 3.25.694 2.337.749 2.288.842-.75.096-3.135-.345-4.067-1.183-2.5m-13.906 1.922c-.552 2.762.299 7.378 1.252 6.789.784-.484.373-7.358-.492-8.223-.217-.217-.559.428-.76 1.434m-6.099 10.334c.558 11.592 1.047 13.142 1.102 3.494.025-4.4-.305-8.897-.733-9.994-.428-1.097-.594 1.828-.369 6.5m20.476 2.554c.218 3.937.861 6.956 1.53 7.179.857.286.889-.577.126-3.341-.566-2.049-.777-4.984-.469-6.523.308-1.539.082-3.092-.501-3.453-.721-.446-.941 1.52-.686 6.138m-13.934 4.44c-.053 4.125.132 6.935.41 6.244.279-.691.918-1.002 1.421-.691 1.204.743 1.185-1.879-.022-3.103-.515-.522-1.112-2.975-1.325-5.45-.248-2.874-.423-1.791-.484 3m32.046-1c0 3.025.187 4.263.416 2.75.229-1.513.229-3.987 0-5.5s-.416-.275-.416 2.75m-37.964 16c0 4.125.177 5.813.392 3.75.216-2.062.216-5.437 0-7.5-.215-2.062-.392-.375-.392 3.75m7.664-5.108c0 .674-.399.98-.886.679-.978-.605-1.99 3.301-1.351 5.217.222.666.796 1.212 1.275 1.212 1.055 0 2.457-6.838 1.582-7.713-.341-.341-.62-.069-.62.605m12.822 9.608c-.645 2.996-.333 4.344.753 3.258.317-.316.422-1.854.234-3.417l-.342-2.841-.645 3m-14.822 9c0 5.408.215 9.619.477 9.357.767-.768.956-17.757.206-18.507-.376-.376-.683 3.742-.683 9.15m-59.123-2.25c-.215 2.612-.102 4.75.252 4.75.986 0 1.573-5.504.813-7.622-.449-1.252-.804-.294-1.065 2.872m52.958 14.333c-.091 9.855-.142 20.083-.112 22.731.041 3.71-.265 4.692-1.335 4.281-1.792-.687-1.795.823-.004 2.309 1.02.846 1.416 4.216 1.506 12.795.068 6.406.345 11.869.616 12.141.272.271.549-10.494.617-23.923.147-29.17-.117-47.244-.698-47.826-.234-.233-.499 7.638-.59 17.492M253 1269.5c0 1.925.421 3.5.937 3.5.515 0 1.118 1.463 1.34 3.25.354 2.859.422 2.746.563-.941.088-2.305-.329-4.493-.927-4.863-.598-.369-.865-1.521-.594-2.559.272-1.038.086-1.887-.413-1.887-.498 0-.906 1.575-.906 3.5m29.286 4c.008 2.75.202 3.756.432 2.236.229-1.52.223-3.77-.014-5-.237-1.23-.425.014-.418 2.764m-19.57 5.5c.31 4.675.725 8.688.923 8.917.766.884.175-13.525-.632-15.417-.507-1.188-.625 1.45-.291 6.5M192 1275.5c0 1.925.36 3.5.799 3.5.44 0 .616-1.575.391-3.5-.225-1.925-.585-3.5-.799-3.5-.215 0-.391 1.575-.391 3.5m79.272.5c0 2.475.195 3.487.434 2.25.238-1.237.238-3.263 0-4.5-.239-1.237-.434-.225-.434 2.25m11 14c0 2.475.195 3.487.434 2.25.238-1.237.238-3.263 0-4.5-.239-1.237-.434-.225-.434 2.25m-27.834.3c-.344.899-.202 2.886.318 4.417l.944 2.783.751-3.349c.82-3.654-.857-6.863-2.013-3.851m6.374 2.416c-.361 1.319-.179 2.128.452 2 .582-.119 1.391.909 1.798 2.284l.739 2.5.099-2.75c.055-1.513-.317-2.75-.827-2.75-.509 0-1.09-.787-1.29-1.75-.299-1.436-.473-1.353-.971.466m-22.026 10.535c-.401 5.16-.236 6.533.673 5.623.805-.804 1.204-9.964.454-10.427-.396-.245-.903 1.916-1.127 4.804m14.877-2.816c-.303.79-.013 1.656.643 1.924.853.349.766.792-.306 1.55-1.304.922-1.28 1.062.183 1.076 1.226.011 1.66-.801 1.598-2.985-.09-3.166-1.191-3.979-2.118-1.565m-73.411 5.065c.011 2.2.216 2.982.455 1.738.239-1.244.23-3.044-.02-4s-.446.062-.435 2.262m101.908 1.168c-.088 1.743-.419 3.993-.736 5-.542 1.729-.511 1.732.562.06.626-.974.957-3.224.736-5l-.402-3.228-.16 3.168m-29.16 3.363c0 .533.45.969 1 .969s1 .702 1 1.559-.387 1.32-.861 1.027c-.475-.294-.511 1.358-.08 3.691.429 2.323.392 4.365-.083 4.538-1.078.392-.086 3.185 1.131 3.185.491 0 .893-3.327.893-7.393 0-5.649-.354-7.529-1.5-7.969-.825-.316-1.5-.139-1.5.393M180.3 1316c0 3.025.187 4.263.416 2.75.229-1.513.229-3.987 0-5.5s-.416-.275-.416 2.75m11.972-1c0 2.475.195 3.487.434 2.25.238-1.237.238-3.263 0-4.5-.239-1.237-.434-.225-.434 2.25m46.846 4.583c.065 4.904.473 10.267.906 11.917.437 1.664.558-2.123.271-8.5-.621-13.793-1.342-15.887-1.177-3.417m32.237 7.917c-.003 4.95.166 7.101.376 4.78.209-2.321.212-6.371.005-9-.206-2.629-.378-.73-.381 4.22m-79.436-3.25c-.515 1.583-.31 6.008.295 6.382.432.267.786-1.116.786-3.073 0-1.957-.225-3.559-.5-3.559s-.537.112-.581.25m-5.667 8.25c.011 2.2.216 2.982.455 1.738.239-1.244.23-3.044-.02-4s-.446.062-.435 2.262m67.994 4.159c-.156 2.12.135 3.223.75 2.844 1.166-.721 1.36-5.166.254-5.847-.412-.253-.864 1.098-1.004 3.003m9.006-.159c.011 2.2.216 2.982.455 1.738.239-1.244.23-3.044-.02-4s-.446.062-.435 2.262m-24.116 14.473c-.127 9.747-.028 10.318 1.422 8.248.857-1.224 1.258-2.71.89-3.304-.367-.594-1.007-4.306-1.422-8.249l-.754-7.168-.136 10.473m15.006-7.473c-1.002 8.477-1.024 11.782-.071 10.829.574-.574.874-3.673.672-6.933-.201-3.243-.471-4.996-.601-3.896m7.609 4.024c-.266 1.388-.093 2.765.383 3.059.476.294.866-.842.866-2.524 0-3.712-.593-3.967-1.249-.535M175 1353c0 1.65.174 3 .387 3 .212 0 .584-1.35.826-3s.069-3-.386-3-.827 1.35-.827 3m177.393 4.582c.334.87.607 1.995.607 2.5 0 .505.45.918 1 .918s1-1.125 1-2.5c0-1.63-.56-2.5-1.607-2.5-1.055 0-1.398.544-1 1.582m-.785 7.997c-1.058 2.757.454 9.335 2.008 8.738 1.757-.674 1.741-2.109-.063-5.567-.789-1.513-1.011-2.75-.494-2.75.518 0 .941-.45.941-1 0-1.581-1.723-1.163-2.392.579m-119.593 3.004c.009 2.154.456 4.592.994 5.417.667 1.024.776-.087.343-3.5-.791-6.237-1.357-7.049-1.337-1.917m7.121 1.667c.075 2.888.331 4.237.57 3 .238-1.237.907-2.25 1.486-2.25.695 0 .666-.467-.087-1.373-.627-.756-.859-2.106-.515-3 .345-.899.128-1.627-.483-1.627-.686 0-1.055 1.996-.971 5.25M186.32 1372c0 3.575.182 5.037.403 3.25.222-1.787.222-4.713 0-6.5-.221-1.787-.403-.325-.403 3.25m156.435-1.5c.263 1.375.876 2.5 1.362 2.5.485 0 .883-1.125.883-2.5 0-1.442-.576-2.5-1.361-2.5-.913 0-1.204.824-.884 2.5m-196.74 6.25c-.008 2.338.159 4.25.372 4.25.835 0 1.212-6.028.452-7.227-.485-.763-.815.428-.824 2.977m116.453-.649c-.367 1.155-.172 2.595.433 3.2.799.799 1.099.225 1.099-2.101 0-3.694-.577-4.108-1.532-1.099m-22.596 9.649c-.533 3.136-.488 5.25.112 5.25.392 0 .75-1.35.797-3 .075-2.65-.569-4.246-.909-2.25M97.272 1405c0 2.475.195 3.487.434 2.25.238-1.237.238-3.263 0-4.5-.239-1.237-.434-.225-.434 2.25m158.088 8c0 5.225.169 7.362.375 4.75s.206-6.888 0-9.5-.375-.475-.375 4.75m8.022 3.5c.002 6.6.164 9.17.359 5.711.196-3.459.195-8.859-.003-12s-.358-.311-.356 6.289m-80.312-.309c-.038 1.48.38 2.969.93 3.309 1.194.738 1.194-1.222 0-4-.767-1.786-.867-1.712-.93.691m-56.35 7.141c-.396 1.007-.706 2.582-.69 3.5.028 1.488.143 1.476 1.068-.113.57-.98.88-2.555.69-3.5-.317-1.57-.41-1.56-1.068.113m88.986 2.543c-.388 1.856-.657 4.556-.596 6 .072 1.73.415 1.091 1.007-1.875.494-2.475.763-5.175.596-6-.166-.825-.619.019-1.007 1.875m-9.706 4.958c0 3.942.381 7.167.846 7.167.801 0 .377-13.035-.454-13.917-.215-.229-.392 2.809-.392 6.75m-62.884 1.917c-.064 3.438.225 6.25.641 6.25.417 0 .62-2.138.451-4.75-.489-7.599-.967-8.255-1.092-1.5m-17.016 1.333c.055 2.43.48 5.542.946 6.917.568 1.679.706.4.421-3.896-.489-7.35-1.516-9.621-1.367-3.021M228 1437.5c0 2.658.324 4.509.72 4.113.718-.718.46-7.738-.313-8.53-.224-.229-.407 1.759-.407 4.417m787.278 120.75c-1.926 2.49-2.375 3.75-1.337 3.75.582 0 1.059-.653 1.059-1.45 0-.798.788-1.909 1.75-2.47.962-.561 1.243-1.033.622-1.05-.62-.016-1.562.533-2.094 1.22m-14.956 7.608c-1.748.903-4.224 2.542-5.502 3.642-4.926 4.239-16.618 12.5-17.692 12.5-.621 0-1.13.338-1.132.75-.002.412-2.027 1.582-4.5 2.599-2.473 1.017-4.496 2.255-4.496 2.75 0 1.528-4.015 5.01-5.044 4.374-.534-.33-1.675.103-2.535.963-.86.86-1.982 1.564-2.492 1.564-1.553 0-1.037-1.744.714-2.417.904-.346 1.427-.846 1.162-1.111-.264-.264-1.903.229-3.643 1.097-3.175 1.584-4.38 2.836-1.763 1.831 2.435-.934 2.829 1.557.411 2.599-1.27.548-3.076 1.544-4.012 2.213-2.733 1.954-3.314.043-.69-2.268 1.646-1.449.52-1.096-3.608 1.13-3.3 1.78-6.675 3.733-7.5 4.34-.825.607-3.3 1.988-5.5 3.068-2.2 1.081-5.392 2.99-7.094 4.242-1.702 1.252-3.813 2.276-4.691 2.276-.878 0-1.894.481-2.257 1.068-.363.588-1.295.825-2.071.527-1.551-.595-6.387 1.28-6.387 2.478 0 .413-1.913 1.073-4.25 1.466-4.218.709-14.75 4.889-14.75 5.854 0 .277 1.398.016 3.107-.58 2.454-.855 3.292-.792 3.985.302 1.281 2.022 1.104 2.885-.592 2.885-.825 0-1.5-.408-1.5-.906 0-.499-.804-.697-1.786-.44-.982.257-1.785 1.34-1.785 2.407 0 1.195.685 1.939 1.785 1.939.982 0 1.786-.45 1.786-1s1.125-1 2.5-1 2.5-.406 2.5-.902 1.35-1.373 3-1.948c3.566-1.243 4.04-2.628.604-1.766-1.686.424-2.581.117-3.023-1.034-.764-1.991-1.176-1.753 5.169-2.985 4.869-.945 7.287-.084 3.666 1.306-1.194.458-1.277.797-.339 1.376 1.222.756 4.796-.682 6.072-2.443.357-.492 1.37-.619 2.25-.281 1.88.721 2.106-.418.418-2.106-.651-.651-.839-1.528-.419-1.949.421-.421 1.421.132 2.223 1.229 1.199 1.639 1.613 1.742 2.331.581.479-.776 2.242-1.411 3.916-1.411s2.812-.375 2.529-.834c-.283-.458.438-.833 1.603-.833s1.848-.437 1.518-.971c-.33-.534.656-1.279 2.191-1.655 1.535-.377 3.916-1.533 5.291-2.569 5.182-3.904 13.545-9.085 14.707-9.111.664-.015 1.437-.627 1.719-1.361.281-.733 1.538-1.343 2.793-1.355 1.254-.012 3.406-.902 4.781-1.978 1.375-1.076 2.856-1.966 3.292-1.978.972-.027 2.854-1.535 7.204-5.772 3.282-3.196 5.261-4.285 3.958-2.176-.366.593.251.503 1.377-.2 1.122-.701 1.847-1.586 1.611-1.967-.235-.382.709-.979 2.099-1.328 1.39-.349 3.024-1.724 3.631-3.057.607-1.332 2.332-2.851 3.834-3.374 1.501-.524 3.802-1.921 5.112-3.106 1.31-1.184 3.732-3.239 5.382-4.566 3.461-2.783 3.239-2.9-1.178-.618m-8.763 11.674c-1.897 1.435-1.891 1.468.25 1.468 1.281 0 2.191-.623 2.191-1.5 0-1.81-.007-1.809-2.441.032m-10.309 7.828c-1.237.613-2.25 1.458-2.25 1.877 0 .42-.43.763-.955.763-.525 0-2.079 1.125-3.454 2.5s-2.097 2.5-1.605 2.5c.493 0 1.162-.43 1.487-.956.325-.526 1.257-.701 2.07-.389 1.049.402 1.3.098.861-1.044-.391-1.019-.092-1.611.815-1.611.788 0 2.489-1.125 3.781-2.5 2.567-2.733 2.542-2.771-.75-1.14m-37.791 15.707c-.944 1.527-.197 1.939 2.323 1.28 1.208-.316 1.949-.973 1.648-1.461-.756-1.222-3.172-1.113-3.971.181m-58.018 24.401c-1.902 1.439-1.897 1.469.202 1.5 1.179.018 2.402-.643 2.719-1.468.73-1.903-.43-1.916-2.921-.032m-6.941 3.067c-2.501 1.205-2.584 1.343-.5.834 2.834-.692 6.018-2.316 4.5-2.293-.55.008-2.35.664-4 1.459m6 1.465c-.34.55-1.443 1-2.452 1s-2.093.675-2.41 1.5c-.709 1.85.127 1.85 3.362 0 1.375-.786 3.85-1.452 5.5-1.48 2.311-.039 2.656-.273 1.5-1.02-1.956-1.264-4.719-1.264-5.5 0m-22.499 9.25c-.001.412-.907.75-2.015.75-1.107 0-2.795.385-3.75.855-.955.47-3.905 1.55-6.555 2.401-3.719 1.193-4.706 1.252-4.325.258.337-.877-.146-1.12-1.515-.762-1.572.411-1.719.73-.676 1.463 1.049.737 1.066 1.046.079 1.447-.691.28-1.002.92-.691 1.423.821 1.33 3.492 1.123 3.197-.247-.147-.681 1.273-1.276 3.431-1.439 2.025-.152 5.175-1.08 7-2.062 2.976-1.601 4.427-2.031 8.526-2.525 2.436-.293 2.174-2.593-.28-2.452-1.334.077-2.426.478-2.426.89m1.489 4.766c-.346.559-.94.824-1.32.589-.381-.235-1.587.254-2.681 1.087-1.948 1.484-1.943 1.502.261.911 5.522-1.48 6.25-1.792 6.25-2.67 0-1.248-1.723-1.191-2.51.083m25.76 2.69c-1.237.238-2.25.9-2.25 1.471 0 .57-.59.81-1.312.534-1.895-.728-6.318 2.782-4.737 3.759.673.416 1.724.255 2.336-.357.612-.612 1.923-1.113 2.913-1.113.99 0 1.8-.401 1.8-.892 0-.49 1.125-1.174 2.5-1.519 2.162-.542 3.789-2.823 1.75-2.453-.413.075-1.763.331-3 .57m-55.843 1.48c-1.417.378-3.168.459-3.89.182-.723-.277-1.612-.024-1.975.564-.994 1.608 9.59 1.283 11.759-.361 1.666-1.264 1.609-1.355-.758-1.218-1.407.081-3.718.456-5.136.833m14.782 1.025c-3.472 1.1-6.164 2.147-5.984 2.328.658.658 14.795-2.87 14.795-3.693 0-1.177-1.546-.937-8.811 1.365M590 1659c0 .799 9.042 1.625 12.25 1.118.413-.065.75.27.75.743 0 .814 2.369.668 7.948-.49 1.935-.402 2.145-.7 1-1.424-2-1.266-21.948-1.217-21.948.053m150 .072c-2.695.44-1.825.67 3.787 1 4.293.252 8.606-.064 10.5-.769 2.96-1.102 2.662-1.181-3.787-1-3.85.109-8.575.454-10.5.769m-145.435 3.823c-.81 1.311 1.621 1.988 9.198 2.564 6.6.501 6.652.486 2.557-.724-2.3-.679-4.512-1.573-4.917-1.985-1.029-1.048-6.168-.939-6.838.145m175.925 3.121c-.346.559-1.047.758-1.559.441-.512-.316-.931-.126-.931.424 0 .549-1.462 1.19-3.25 1.425-1.897.249-1.497.328.959.188 2.426-.138 4.368.237 4.585.883.206.618.612-.114.902-1.627.554-2.893.338-3.424-.706-1.734M755 1669l-2.5.801 2.691.099c1.48.055 2.969-.35 3.309-.9.703-1.137.049-1.137-3.5 0m-166.446 1.902c-1.803.706-1.766.81.5 1.416 3.284.879 14.963.731 17.392-.22 1.803-.706 1.766-.81-.5-1.416-3.284-.879-14.963-.731-17.392.22m121.946 4.566c-.55.171-5.725 1.107-11.5 2.081-5.775.973-11.175 2.157-12 2.631-.944.542-.203.656 2 .309 1.925-.304 7.1-.727 11.5-.939 10.394-.501 18.5-1.633 18.5-2.582 0-1.531-5.358-2.475-8.5-1.5m-189 6.459c-1.337.526-.293.752 3.146.68 2.831-.059 4.942-.445 4.691-.857-.579-.955-5.226-.85-7.837.177m-95.295 1.612c.297.296 3.184.742 6.417.99 4.056.312 5.258.167 3.878-.468-2.121-.976-11.209-1.437-10.295-.522m152.339 3.25c-1.881 1.882.897 2.101 16.206 1.278.688-.037 1.25-.47 1.25-.962 0-.947-16.526-1.246-17.456-.316M609 1687c0 .55.927 1 2.059 1 1.132 0 1.781-.45 1.441-1-.34-.55-1.266-1-2.059-1-.793 0-1.441.45-1.441 1m-354.75 1.662c-.687.278-1.25.82-1.25 1.204 0 .583 2.165.658 6.25.215.413-.044.75-.531.75-1.081 0-1.028-3.526-1.235-5.75-.338" fill-rule="evenodd"/></svg>