<svg xmlns="http://www.w3.org/2000/svg" width="1240" height="1753"><path d="M257.426 209.119c-.247.4-1.906 1.039-3.687 1.42-1.782.38-3.756 1.107-4.388 1.615-1.006.808-5.662 1.61-10.378 1.788-3.487.132-12.962 11.649-11.512 13.995.285.46-.265.775-1.222.7-.956-.075-1.627.426-1.489 1.113.213 1.063-2.402 1.779-5 1.368-1.822-.287-.502 1.962 2 3.408 2.674 1.545 2.681 1.571.25.951-6.96-1.777-6.899-1.781-6.733.417.087 1.158.539 2.106 1.005 2.106.465 0 .563.457.218 1.016a1.188 1.188 0 0 1-1.626.4c-.549-.34-1.244.323-1.545 1.472-.301 1.149-.9 1.871-1.331 1.604-.432-.266-1.843.631-3.137 1.994-1.293 1.364-2.801 2.494-3.351 2.513-.55.018-2.523 1.376-4.386 3.017-1.862 1.641-3.718 2.984-4.125 2.984-.406 0-1.46 1.463-2.341 3.25-.881 1.788-1.613 2.865-1.625 2.394-.013-.47-1.466.655-3.23 2.5-1.764 1.846-3.114 3.693-3 4.106.114.413-.36.75-1.052.75-.693 0-1.833.917-2.533 2.039-.7 1.121-1.708 1.77-2.239 1.442-.531-.328-1.966.104-3.19.961-1.223.857-1.939 1.558-1.592 1.558.348 0-.552 1.35-2 3s-3.347 3-4.221 3c-1.73 0-5.966 3.53-5.966 4.972 0 .491-.907 1.181-2.015 1.533-1.108.351-1.756 1.057-1.441 1.567.316.51-.382.928-1.551.928-2.375 0-6.137 1.752-7.169 3.339-.372.572-1.914 1.206-3.427 1.408-3.881.52-8.376 3.99-8.513 6.571-.09 1.692-.219 1.789-.573.432-.561-2.145-2.17-2.281-2.949-.25-.317.825-1.229 1.5-2.028 1.5-.825 0-1.15.488-.754 1.13.427.69.158.937-.691.635-2.025-.721-4.884 1.034-4.921 3.02-.035 1.922-2.968 6.275-2.968 4.406 0-1.997-2.732-1.326-3.29.809-.532 2.034-3.918 2.914-3.46.9.137-.606-1.213-1.277-3-1.492-2.389-.288-3.25.004-3.25 1.1 0 .821-.417 1.492-.927 1.492-.509 0-1.072.733-1.25 1.63-.193.974-1.531 1.761-3.323 1.957-3.614.394-5.214.796-8.5 2.133-1.375.559-3.062.803-3.75.542-.688-.262-1.25.07-1.25.738 0 .668-.602.983-1.338.701-1.729-.664-7.651 2.182-9.947 4.779-2.428 2.749-3.981 6.423-4.234 10.02-.117 1.65-.566 3.84-.998 4.867-.733 1.74-.877 1.706-2.1-.5-.721-1.302-1.328-3.504-1.348-4.894-.053-3.844-2.641-6.947-5.3-6.354-3.181.709-5.157 1.198-5.735 1.42-.275.105-1.023.252-1.662.326-.639.074-2.106 1.221-3.259 2.548-2.072 2.385-2.165 4.193-.703 13.566.34 2.183-.882 3.756-3.769 4.85-1.041.395-1.619.992-1.284 1.327.89.89-3.823 4.339-5.981 4.376-1.013.017-2.716.692-3.783 1.5-1.068.807-1.57 1.468-1.115 1.468.454 0-.36.933-1.809 2.073-1.449 1.139-2.635 2.714-2.635 3.5 0 .785-.45 1.427-1 1.427-1.885 0-1 1.679 1.48 2.809 1.619.738 2.277 1.662 1.893 2.661-.323.841-.16 1.53.361 1.53 1.505 0-.186 8.595-2.06 10.469-1.822 1.822-2.199 3.531-.78 3.531.492 0 .83 1.125.75 2.499-.079 1.375-.508 2.5-.953 2.5-.445.001-.529.454-.187 1.008.343.554-.081 1.277-.941 1.607-.859.33-1.563 1.65-1.563 2.934 0 1.284-.457 2.617-1.016 2.962-.559.346-.756 1.05-.437 1.566s-.15 1.218-1.041 1.56c-.892.342-1.375 1.262-1.075 2.045.303.788.105 1.15-.442.812-.544-.336-.989.042-.989.841 0 .799.675 1.711 1.5 2.028.825.316 1.5.113 1.5-.452 0-.566.45-.75 1-.41s1 1.491 1 2.559.354 1.941.787 1.941c.433 0 .861.972.95 2.16.09 1.188.548 2.426 1.02 2.75.471.325 1.487 2.165 2.258 4.09.77 1.925 1.993 4.105 2.716 4.845.724.739 1.937 2.539 2.697 4 .76 1.46 2.55 3.746 3.977 5.079 1.427 1.334 2.595 2.914 2.595 3.511 0 .598 1.35 2.202 3 3.565s3 3.045 3 3.739.45 1.261 1 1.261 1 .603 1 1.339c0 .737 1.125 1.853 2.5 2.479 1.375.627 2.5 1.824 2.5 2.661 0 .836.675 1.521 1.5 1.521s1.501.337 1.502.75c.002.413 1.367 2.325 3.035 4.25 3.612 4.169 9.956 13.496 9.979 14.669.009.457 1.407 2.406 3.106 4.331 1.7 1.925 4.908 6.087 7.129 9.25 2.221 3.162 4.435 5.75 4.919 5.75s1.296 1.096 1.806 2.436c1.016 2.672 3.609 5.936 9.139 11.502 1.989 2.001 3.962 4.746 4.385 6.1.423 1.354 1.067 2.687 1.431 2.962 1.428 1.079 10.069 12.903 10.069 13.778 0 .511 1.125 2.144 2.5 3.627 1.375 1.484 2.5 2.891 2.5 3.127 0 .236 1.575 2.891 3.5 5.901 1.925 3.009 3.5 6.182 3.5 7.05 0 .869.654 1.831 1.454 2.138.8.307 2.397 2.506 3.55 4.887 1.153 2.382 2.749 4.872 3.546 5.534.798.661 1.457 1.935 1.466 2.83.009.896 1.354 3.203 2.989 5.128 4.025 4.738 3.803 4.451 10.451 13.5 3.232 4.4 6.252 8.15 6.71 8.333.459.184.834.934.834 1.667s.396 1.483.88 1.667c1.066.403 12.12 15.028 12.12 16.035 0 .391 1.795 2.643 3.989 5.005 2.193 2.361 4.735 5.868 5.647 7.793.913 1.925 1.961 3.725 2.329 4 1.57 1.173 9.035 11.783 9.035 12.841 0 .637.353 1.159.784 1.159.432 0 1.631 1.462 2.666 3.25 1.034 1.788 3.648 5.388 5.808 8 2.161 2.612 3.561 4.75 3.112 4.75-.449 0 .662 1.35 2.469 3 4.132 3.774 5.592 3.855 4.69.26-.378-1.507-1-2.969-1.381-3.25-1.43-1.051-4.635-6.572-4.749-8.181-.098-1.383.201-1.471 1.741-.509 1.023.638 1.86 1.533 1.86 1.987 0 .455 1.123 2.299 2.495 4.098 1.373 1.799 2.271 3.495 1.997 3.77-.596.596 6.727 7.417 7.639 7.114.348-.116 2.072 2.584 3.831 6 4.176 8.111 5.366 10.196 6.818 11.946.662.797.94 1.712.618 2.033-.321.322.808 1.304 2.509 2.184 1.873.968 3.093 2.378 3.093 3.574 0 1.086.477 1.974 1.059 1.974s.833.365.557.812c-.61.987 10.203 12.702 10.994 11.911.621-.621 3.81 1.753 6.283 4.677a108.916 108.916 0 0 0 3.357 3.75c.962 1.018 1.75 2.127 1.75 2.466 0 .339 1.8 2.312 4 4.384 2.2 2.072 4 4.17 4 4.661 0 .492.787 1.654 1.75 2.582 3.905 3.765 5.75 5.946 5.75 6.796 0 .493.675 1.704 1.5 2.691 3.313 3.966 7.417 10.843 7.173 12.02-.144.687.157 1.25.667 1.25.802 0 1.931 2.514 1.797 4-.047.513 2.691 3.987 5.363 6.806 1.341 1.414 1.315 1.512-.25.919-1.899-.719-2.544 1.666-.75 2.775.55.34 1 1.273 1 2.073 0 1.586 6.528 10.287 13.073 17.427 3.695 4.031 7.983 10.666 16.067 24.863 1.669 2.93 3.228 4.53 4.234 4.347.992-.181 1.398.22 1.076 1.061-.57 1.483 6.027 10.729 7.655 10.729.557 0 .757.414.445.919-.313.506.03 1.519.762 2.25.732.732 1.316 1.556 1.299 1.831-.018.275 1.075 1.774 2.428 3.33 1.354 1.557 2.461 3.226 2.461 3.71 0 1.001 1.931 3.931 5.339 8.099 1.286 1.574 2.056 2.861 1.71 2.861-.345 0-.048.691.662 1.535 5.6 6.666 8.789 11.258 8.789 12.658 0 .729.9 1.888 2 2.575 1.1.687 2 1.682 2 2.211 0 .529 2.7 4.552 6 8.941 3.3 4.388 6 8.395 6 8.906 0 .51 1.8 2.838 4 5.174 2.2 2.336 4 4.836 4 5.556 0 .72.9 1.595 2 1.944s2 1.022 2 1.496.579 1.456 1.286 2.183c.708.726 2.62 3.116 4.25 5.31 1.63 2.195 4.142 5.12 5.583 6.5 1.44 1.381 3.995 4.447 5.678 6.813 1.683 2.366 3.299 4.166 3.591 4 .291-.166 1.653 1.22 3.025 3.081 2.604 3.528 14.234 16.294 25.894 28.421 3.744 3.894 7.553 8.344 8.466 9.888.912 1.544 2.124 2.818 2.693 2.83.569.011 2.725 2.374 4.791 5.25 2.066 2.875 5.758 7.253 8.205 9.728 2.446 2.475 4.468 4.803 4.493 5.173.025.37 1.772 2.395 3.883 4.5 2.112 2.105 6.499 7.427 9.75 11.827 3.252 4.4 6.916 8.813 8.143 9.808 1.227.994 2.127 2.174 2 2.622-.127.449 1.344 2.35 3.269 4.225 3.128 3.046 14.861 18.35 17.539 22.876a31.488 31.488 0 0 0 2.372 3.362c.734.884.941 1.621.461 1.639-.479.017-.197.58.628 1.25s3.525 3.918 6 7.218 5.428 6.753 6.562 7.674c1.133.921 3.379 3.621 4.989 6 3.092 4.567 6.789 9.016 9.699 11.673.962.879 1.75 2.371 1.75 3.316 0 .946.457 2.002 1.016 2.347.559.346.758 1.047.441 1.559-.316.512.05.931.815.931.765 0 1.966 1.075 2.669 2.39.703 1.314 2.363 2.883 3.689 3.487 1.326.604 2.805 2.116 3.288 3.361 2.33 6 14.45 21.582 16.332 20.996.413-.129.75.666.75 1.766s.631 2 1.402 2c.771 0 1.87 1.341 2.441 2.98.572 1.639 2.191 4.222 3.598 5.74 1.407 1.518 2.559 3.359 2.559 4.091 0 .733.563 1.959 1.25 2.726a64.932 64.932 0 0 1 2.259 2.678c.555.707 2.467 3.15 4.25 5.429 1.782 2.279 3.241 4.867 3.241 5.75s.45 1.606 1 1.606 1 .45 1 1 .702 1.787 1.56 2.75c4.294 4.817 9.44 12.208 9.44 13.56 0 .838.356 1.673.79 1.857.748.315 3.485 4.153 9.569 13.417 1.476 2.246 3.573 5.04 4.662 6.208 1.088 1.168 1.979 2.514 1.979 2.99 0 .476 1.575 3.081 3.5 5.789 1.925 2.707 3.5 5.288 3.5 5.734 0 .883 4.974 7.553 8.9 11.935 1.35 1.506 2.172 3.021 1.827 3.366-.344.345 1.758 3.615 4.672 7.267 2.914 3.652 6.025 8.046 6.913 9.763.888 1.717 2.31 3.389 3.16 3.715.851.326 1.489.943 1.419 1.371-.324 1.97.215 3.28 1.359 3.306.688.015 2.375 1.623 3.75 3.573s3.204 4.3 4.064 5.223c2.834 3.038 11.936 16.125 11.936 17.161 0 .558.439 1.015.976 1.015.537 0 3.572 3.487 6.745 7.75s6.025 7.975 6.34 8.25c.314.275 2.929 3.65 5.811 7.5 6.409 8.561 10.075 13.193 12.378 15.64.962 1.023 1.75 2.117 1.75 2.431 0 .315.563 1.199 1.25 1.966 4.893 5.456 11.75 15.33 11.75 16.92 0 .849.599 1.543 1.331 1.543s1.947 1.238 2.7 2.75c.754 1.513 2.718 4.213 4.366 6 1.647 1.788 2.682 3.25 2.299 3.25s0 .787.852 1.75c3.434 3.884 12.254 15.938 13.719 18.75.86 1.65 2.501 3.994 3.648 5.208 1.147 1.215 2.085 2.569 2.085 3.01 0 .442 1.237 2.131 2.75 3.756 1.513 1.624 3.2 3.725 3.75 4.669.55.944 3.514 5.01 6.586 9.036 3.073 4.027 8.001 10.921 10.952 15.321 2.952 4.4 6.837 9.753 8.634 11.895 1.797 2.142 3.029 4.279 2.739 4.75-.291.47-.052.855.53.855.582 0 1.059.638 1.059 1.417s.375 1.566.834 1.75c.458.183 3.467 3.933 6.685 8.333 3.219 4.4 6.132 8.225 6.473 8.5 1.643 1.324 8.008 10.428 8.008 11.455 0 .642.787 2.041 1.75 3.107 3.803 4.215 7.25 9.384 7.25 10.871 0 .862.702 1.567 1.559 1.567s1.279.453.937 1.007c-.343.554.081 1.277.941 1.607.859.33 1.563.998 1.563 1.485 0 .487 2.137 3.857 4.75 7.489 2.612 3.631 4.75 6.908 4.75 7.282 0 .694.207.969 5.465 7.262 1.669 1.998 3.035 4.135 3.035 4.75 0 .615.401 1.118.892 1.118.49 0 1.174 1.125 1.519 2.5s1.069 2.5 1.608 2.5c.54 0 .981.605.981 1.345s.949 2.202 2.11 3.25c1.16 1.048 4.366 5.168 7.125 9.155 2.758 3.987 5.409 7.25 5.89 7.25.481 0 .875.445.875.989 0 1.046 2.097 3.879 5.644 7.625 1.179 1.246 1.923 2.486 1.653 2.756-.271.27.452 1.081 1.606 1.801 1.153.721 2.097 1.769 2.097 2.33 0 .561 1.017 2.14 2.26 3.509 1.243 1.37 4.725 5.865 7.736 9.99s6.075 8.126 6.809 8.89c.733.765 2.078 2.565 2.99 4 .911 1.436 2.23 2.97 2.931 3.41.701.44 1.274 1.147 1.274 1.571 0 .424 2.016 2.875 4.48 5.447 2.464 2.572 4.762 5.798 5.106 7.169.463 1.844 1.64 2.766 4.52 3.542 2.142.576 3.894 1.481 3.894 2.01 0 .528.442.961.982.961s2.605 1.577 4.589 3.504c1.985 1.927 3.977 3.275 4.427 2.997.451-.279 1.981.874 3.401 2.561 1.622 1.929 3.049 2.787 3.841 2.311.806-.484.743-.12-.176 1.011-1.247 1.537-1.247 1.887 0 2.677 2.227 1.409 6.192 1.178 5.334-.311-.396-.687.365-.28 1.691.905s4.324 2.719 6.661 3.408c2.337.69 4.25 1.82 4.25 2.512s.437 1.408.97 1.592c.534.183 2.897 2.005 5.25 4.048 8.773 7.615 14.282 11.785 15.571 11.785.73 0 1.049.45.709 1-.34.55.084 1 .941 1s1.559.395 1.559.878 1.824 1.342 4.053 1.908c3.941 1 4.163.917 8.006-2.964 2.175-2.196 3.699-4.404 3.388-4.907-.311-.503.084-.915.877-.915.794 0 1.678-.9 1.966-2 .333-1.276 1.372-2.006 2.866-2.015 1.88-.013 2.047-.207.844-.985-1.2-.776-1.026-.972.872-.985 1.871-.012 2.137-.299 1.259-1.357-.612-.738-.818-1.638-.456-2 .362-.362.021-.672-.758-.689-.78-.017 2.569-2.017 7.441-4.443 4.873-2.427 9.633-5.113 10.579-5.969.946-.856 2.199-1.557 2.785-1.557.585 0 1.348-.739 1.695-1.643.346-.904.917-1.356 1.268-1.005 1.176 1.175 11.192-7.385 13.342-11.402.59-1.103 1.501-1.742 2.023-1.419.523.323.95-.115.95-.972s.45-1.559 1-1.559 1-.627 1-1.393.675-1.652 1.5-1.969c.825-.316 1.5-1.469 1.5-2.562 0-2.503 4.641-9.466 5.444-8.167.935 1.514 4.625.831 5.627-1.042.649-1.212 1.768-1.56 3.918-1.221 3.349.527 3.74-.06 1.519-2.281-.836-.835-2.046-1.16-2.75-.737-.869.522-.834.233.114-.936.755-.931 2.246-1.692 3.313-1.692 1.411 0 1.855-.581 1.628-2.13-.195-1.324.444-2.545 1.687-3.228 1.1-.603 3.125-1.77 4.5-2.591 1.375-.822 3.65-1.552 5.055-1.622 1.406-.07 3.692-.872 5.08-1.782 1.389-.91 2.728-1.45 2.977-1.202.249.249 3.129-1.549 6.401-3.996 3.271-2.447 6.471-4.449 7.11-4.449 1.129 0 2.836-2.797 2.556-4.189-.076-.379.77-.977 1.88-1.33 1.11-.352 3.163-2.371 4.563-4.486 1.399-2.114 3.182-4.09 3.961-4.389.779-.299 1.417-1.421 1.417-2.493 0-2.835 1.074-5.185 2.084-4.561.481.297 1.896-.041 3.145-.751 2.196-1.249 2.819-1.439 5.542-1.686.7-.063 1.784-1.24 2.411-2.615.626-1.375 1.655-2.5 2.286-2.5 1.966 0 7.532-5.201 7.532-7.038 0-.961.606-1.981 1.348-2.265.741-.285 2.368-2.695 3.616-5.357 1.247-2.662 3.94-6.415 5.983-8.34 2.043-1.925 4.006-4.297 4.361-5.27.354-.974 2.016-2.045 3.693-2.38 1.719-.344 3.918-1.832 5.044-3.413 1.098-1.542 2.999-2.946 4.225-3.12 1.406-.2 2.345-1.128 2.542-2.512.22-1.547.785-2.013 1.914-1.58 1.158.445 1.373.244.774-.725-.605-.979-.38-1.168.836-.701.963.369 1.664.149 1.664-.522 0-.637.586-.358 1.303.622 1.184 1.62 1.422 1.637 2.622.191.976-1.175 1.031-1.938.213-2.923-.834-1.006-.755-1.334.322-1.334.786 0 1.341.488 1.234 1.084-.107.596.481 1.083 1.306 1.083.825 0 1.35-.675 1.167-1.5-.184-.825-.014-1.18.377-.79.39.391 2.191.092 4.001-.665 1.811-.756 3.515-1.152 3.788-.879.273.273 1.429-.004 2.571-.614 2.328-1.247 2.331-5.147.004-5.906-4.002-1.305-6.801-7.396-4.47-9.727.866-.866 2.045-2.452 2.619-3.525.574-1.073 1.412-1.722 1.862-1.444 1.491.921 8.081-6.417 8.081-8.998 0-1.349-.45-2.452-1-2.452s-1-1.302-1-2.893c0-1.657-.645-3.14-1.509-3.472-.83-.319-1.452-.929-1.382-1.357.286-1.743-.218-2.904-2.36-5.435-3.356-3.964-5.249-6.808-5.249-7.884 0-.527-.297-.847-.659-.709-.982.372-4.841-4.838-4.841-6.535 0-.809-.614-1.979-1.364-2.602-.75-.622-4.012-4.754-7.25-9.182-3.237-4.428-6.831-9.1-7.987-10.381-1.155-1.282-3.141-4.068-4.412-6.19-1.272-2.123-3.279-4.76-4.46-5.86-2.978-2.772-13.713-17.493-12.784-17.53.416-.017-.04-.495-1.014-1.062-.974-.567-1.491-1.484-1.149-2.037.341-.553-.228-1.228-1.265-1.499-1.038-.271-3.446-2.778-5.351-5.57-1.905-2.792-5.039-6.754-6.964-8.805-1.925-2.05-5.75-6.332-8.5-9.515-2.75-3.183-8.487-9.407-12.75-13.83-4.262-4.424-7.75-8.568-7.75-9.21 0-1.07-4.026-6.817-7.315-10.442-2.695-2.971-9.72-12.982-10.851-15.464-.635-1.395-1.758-2.536-2.495-2.536-.736 0-1.339-.706-1.339-1.57 0-.863-2.925-5.315-6.5-9.893-3.575-4.579-6.5-9.047-6.5-9.931 0-.883-.675-1.606-1.5-1.606s-1.5-.365-1.5-.811c0-.447-1.013-1.892-2.25-3.213-1.237-1.321-4.95-6.059-8.25-10.53-13.505-18.298-23.407-31.121-26.667-34.534-.916-.96-1.386-2.026-1.043-2.368.342-.343-.258-.86-1.334-1.149-1.076-.289-3.474-2.746-5.329-5.459-1.856-2.713-5.568-7.198-8.25-9.966-2.682-2.769-4.877-5.469-4.877-6.002 0-.532-.42-.968-.933-.968-.513 0-1.211-.877-1.551-1.949-.34-1.072-1.383-2.198-2.317-2.502-1.638-.534-10.313-11.603-10.38-13.245-.019-.442-.976-2.604-2.128-4.804-1.153-2.2-2.013-4.31-1.913-4.689.1-.379-.709-.972-1.798-1.317-1.089-.346-1.98-1.273-1.98-2.061s-.38-1.433-.843-1.433c-.464 0-2.363-2.226-4.219-4.947-1.888-2.766-4.421-5.208-5.748-5.541-1.505-.378-2.175-1.11-1.832-2.003.322-.838-.278-1.666-1.484-2.049-1.114-.353-1.779-.888-1.479-1.188.539-.54-2.607-5.514-5.132-8.113-1.363-1.404-13.109-17.952-17.319-24.402-1.344-2.059-2.781-3.746-3.194-3.75-.413-.004-.75-.644-.75-1.424 0-.779-.341-1.566-.757-1.75-1.34-.589-8.411-10.443-9.926-13.833-.369-.825-.957-1.725-1.307-2-1.485-1.167-13.01-17.145-13.01-18.036 0-.537-1.19-1.987-2.644-3.221-2.824-2.395-13.606-18.303-13.992-20.643-.127-.77-.629-1.67-1.114-2-.486-.33-2.879-3.275-5.317-6.544-2.438-3.27-5.687-7.32-7.22-9-1.532-1.681-3.067-4.181-3.41-5.556-.342-1.375-2.576-4.742-4.963-7.483-2.387-2.74-4.34-5.74-4.34-6.666 0-.927-.354-1.834-.786-2.018-1.135-.481-5.627-7.04-5.847-8.536-.102-.697-1.813-3.169-3.803-5.493-1.989-2.324-3.385-4.829-3.102-5.567.283-.737.085-1.075-.44-.751-.525.325-2.312-1.339-3.97-3.698-4.051-5.758-3.957-5.636-8.802-11.501-2.338-2.83-4.25-5.695-4.25-6.365 0-.671-1.575-2.75-3.5-4.619-1.925-1.87-3.5-3.842-3.5-4.383 0-.54-.675-1.242-1.5-1.558-.825-.317-1.5-1.428-1.5-2.469s-.562-1.903-1.25-1.914c-.687-.012-2.587-1.925-4.222-4.25-3.585-5.101-4.506-6.298-6.778-8.801-.963-1.06-1.75-2.341-1.75-2.845s-.366-1.066-.813-1.25c-.447-.183-2.674-2.808-4.949-5.833-2.275-3.025-6.41-7.964-9.187-10.977-2.778-3.012-5.051-5.98-5.051-6.597 0-.616-.787-2.076-1.75-3.244-.962-1.169-3.55-4.594-5.75-7.611-2.2-3.018-4.562-5.506-5.25-5.529-.687-.023-1.25-.916-1.25-1.985s-.949-2.608-2.108-3.42c-1.16-.813-1.808-1.963-1.441-2.557.371-.6-.04-1.08-.924-1.08-.875 0-1.914-.802-2.309-1.782-.395-.98-3.089-5.143-5.987-9.25a1657.216 1657.216 0 0 1-8.5-12.159c-3.324-4.825-17.514-23.747-20.48-27.309-.916-1.1-4.368-5.6-7.67-10-3.302-4.4-6.82-8.884-7.817-9.965-.997-1.081-1.582-2.566-1.3-3.302.282-.735.099-1.081-.408-.768-.971.601-9.056-10.009-9.056-11.883 0-.601-1.575-2.406-3.5-4.011-1.925-1.606-3.5-3.448-3.5-4.096 0-.647-2.265-4.169-5.034-7.826-2.768-3.657-4.68-6.656-4.25-6.664.431-.009.331-.346-.222-.75-1.957-1.43-6.598-8.258-6.129-9.017.262-.423-1.513-3.165-3.944-6.093-2.432-2.928-4.421-5.869-4.421-6.536 0-.666-.805-2.084-1.789-3.15-2.876-3.116-13.268-17.423-13.954-19.213-.642-1.672-1.663-3.045-6.507-8.751-1.513-1.781-2.75-3.479-2.75-3.772 0-.626-2.382-3.509-10.25-12.404-3.163-3.575-5.75-6.905-5.75-7.4 0-.494-.675-.899-1.5-.899s-1.447-.337-1.382-.75c.326-2.063-.265-3.25-1.618-3.25-.825 0-1.5-.819-1.5-1.819 0-1.001-2.475-4.489-5.499-7.75l-8.75-9.44c-1.788-1.929-6.964-8.305-11.502-14.167-4.539-5.862-8.605-10.808-9.037-10.991-.433-.183-2.344-2.358-4.249-4.833-1.905-2.475-4.035-4.865-4.734-5.311-.699-.447-1.01-1.234-.691-1.75.319-.517-.108-.939-.95-.939-.841 0-2.359-1.809-3.373-4.02-1.013-2.21-2.089-3.773-2.39-3.471-.302.301-2.073-1.476-3.937-3.95-1.863-2.473-3.838-4.521-4.388-4.55-.55-.029-2.35-2.067-4-4.529-1.65-2.462-3.45-4.48-4-4.485-.55-.005-2.064-1.571-3.365-3.481-1.3-1.91-3.1-4.383-4-5.496a516.605 516.605 0 0 1-4.135-5.223c-1.375-1.759-3.839-4.571-5.475-6.247-1.636-1.676-4.972-5.748-7.412-9.048-4.444-6.01-16.113-18.221-16.113-16.862 0 .398-1.751-1.623-3.891-4.491-2.139-2.868-4.952-6.239-6.25-7.49-3.66-3.53-6.859-7.571-6.859-8.665 0-.545-.385-.992-.855-.992-1.032 0-9.145-11.391-9.145-12.841 0-.562-1.35-1.984-3-3.159-1.65-1.175-3-2.898-3-3.828 0-.931-1.125-2.906-2.5-4.389-1.375-1.482-2.5-3.128-2.5-3.656s-.368-1.11-.817-1.294c-.449-.183-3.486-3.933-6.75-8.333-3.263-4.4-6.428-8.45-7.034-9-2.049-1.862-6.399-8.182-6.399-9.298 0-.609-1.984-3.267-4.409-5.905-2.426-2.638-7.126-8.397-10.446-12.797-3.32-4.4-7.636-9.729-9.591-11.843-1.955-2.113-3.554-4.139-3.554-4.503 0-.776-6.688-10.306-7.794-11.107-.416-.301-3.203-3.922-6.193-8.047-2.99-4.125-6.691-8.823-8.225-10.44-1.533-1.617-2.788-3.492-2.788-4.167 0-.674-.364-1.376-.809-1.56-1.041-.429-9.191-11.283-9.191-12.241 0-.896-4.786-7.453-7.212-9.881-1.642-1.643-2.172-3.066-1.538-4.13.137-.231-.687-1.469-1.832-2.75-3.312-3.706-10.418-14.924-10.418-16.445 0-.762-.441-1.386-.981-1.386-.539 0-1.255-1.092-1.59-2.426-.335-1.335-1.468-3.205-2.519-4.155-1.05-.951-1.91-2.237-1.91-2.858 0-1.664-6.741-11.837-8.494-12.818-.828-.463-1.506-1.494-1.506-2.29 0-.797-1.462-3.587-3.25-6.201-4.263-6.233-5.512-8.24-7-11.252-.68-1.375-2.026-3.372-2.993-4.439-.966-1.066-1.757-2.458-1.757-3.094 0-.636-1.127-2.463-2.505-4.061-1.378-1.599-2.291-3.473-2.028-4.165.262-.692-.41-1.813-1.495-2.491-1.085-.677-1.972-1.76-1.972-2.407s-.379-1.326-.842-1.51c-1.241-.491-10.241-12.962-11.246-15.583-.474-1.238-1.324-2.25-1.887-2.25-.564 0-1.025-.689-1.025-1.531 0-.843-.675-1.791-1.5-2.107-.825-.317-1.5-1.123-1.5-1.792s-2.226-3.6-4.946-6.512c-2.721-2.913-7.108-8.05-9.75-11.416-2.642-3.365-7.399-8.824-10.571-12.13-3.173-3.307-6.773-7.471-8-9.255-1.228-1.784-2.698-3.246-3.267-3.25-.569-.004-1.784-1.245-2.701-2.757-.916-1.512-2.813-4.057-4.215-5.656-1.403-1.598-2.55-3.255-2.55-3.682 0-.428-.933-1.073-2.072-1.435-1.246-.395-1.857-1.22-1.532-2.067.298-.776.053-1.41-.544-1.41-1.347 0-8.852-7.632-8.852-9.001 0-.55-.705-.999-1.566-.999-.861 0-2.548-.558-3.75-1.241-2.377-1.35-10.532-1.814-11.258-.64M220 669.583c0 .871.534 1.406 1.188 1.188 1.854-.618 2.161-2.771.395-2.771-.87 0-1.583.712-1.583 1.583m2 2.867c0 .798.596 1.81 1.325 2.25 1.304.787 3.107 4.195 2.873 5.431-.065.347.764 1.429 1.842 2.405 1.078.976 1.96 2.379 1.96 3.119 0 .74.45 1.345 1 1.345s1 .675 1 1.5c0 .849.896 1.5 2.064 1.5 2.046 0 2.044-.037-.25-4.25-1.273-2.337-2.652-4.4-3.064-4.583-.412-.184-.751-.859-.751-1.5-.001-.642-1.126-2.474-2.5-4.073-1.375-1.598-2.499-3.285-2.499-3.75 0-.464-.675-.844-1.5-.844s-1.5.653-1.5 1.45m15.543 21.481c-.74 1.197 1.141 2.382 2.473 1.559 1.119-.691.384-2.49-1.016-2.49-.485 0-1.141.419-1.457.931" fill-rule="evenodd"/></svg>