<svg xmlns="http://www.w3.org/2000/svg" width="1240" height="1753"><path d="M639 92.098c-26.439 1.504-57.373 5.232-59.831 7.21-1.476 1.188-7.647 2.339-19.575 3.651-4.348.478-8.848 1.329-10 1.89-1.152.561-5.019 2.012-8.594 3.225-3.575 1.213-6.737 2.57-7.027 3.015-.291.445-4.791 1.982-10 3.416-5.21 1.435-10.163 2.975-11.006 3.424-.843.449-3.093 1.155-5 1.569-1.907.415-3.692 1.058-3.967 1.431-.275.373-2.525 1.183-5 1.8-2.475.618-7.65 2.262-11.5 3.654-3.85 1.393-8.148 2.551-9.55 2.575-1.403.023-3.019.511-3.592 1.084-.573.573-3.676 1.245-6.894 1.492-5.926.454-13.721 2.819-16.464 4.995-.825.654-3.639 1.709-6.254 2.345-2.615.636-7.115 2.205-10 3.486-2.885 1.282-8.396 3.362-12.246 4.623-6.158 2.017-17.098 7.945-18.5 10.024-.275.408-1.926 1.051-3.668 1.429-1.742.378-4.217 1.551-5.5 2.607a573.22 573.22 0 0 1-3.332 2.725c-.55.443-2.575 1.439-4.5 2.212-1.925.774-3.725 1.657-4 1.963-.809.901-5.939 3.736-14.589 8.062-4.449 2.225-8.998 4.893-10.109 5.928-1.111 1.036-3.853 2.818-6.094 3.961-2.24 1.142-4.341 2.513-4.67 3.045-.329.532-2.047 1.954-3.818 3.159-1.996 1.357-1.319.432 1.78-2.435 2.75-2.543 6.009-4.906 7.243-5.25 1.234-.345 2.027-.976 1.763-1.404-.264-.427.864-1.334 2.507-2.014 1.643-.681 2.987-1.577 2.987-1.991 0-.415 1.238-1.373 2.75-2.129 7.727-3.863 17.534-11.853 11.5-9.369-.962.397-2.538.947-3.5 1.224-.962.277-1.75.901-1.75 1.387 0 .485-.675.883-1.5.883s-1.5.45-1.5 1-.52 1-1.156 1c-.635 0-2.605 1.106-4.376 2.457-1.772 1.351-3.502 2.176-3.845 1.833-.342-.343-.623-.164-.623.397 0 .562-3.488 3.393-7.75 6.291-7.588 5.16-12.25 9.216-12.25 10.657 0 .398-1.563 2.155-3.473 3.904-1.91 1.75-3.185 3.469-2.833 3.821.351.352-.32.64-1.492.64-2.241 0-4.718 3.356-3.696 5.009.336.544-.082.707-.954.373-.854-.328-1.552-.098-1.552.511s-.723 1.107-1.607 1.107c-.958 0-1.392.559-1.076 1.385.322.838-1.115 2.59-3.643 4.441-2.296 1.681-5.617 4.545-7.38 6.365l-13.25 13.679C289.52 241.573 285 246.451 285 246.71c0 .259-2.025 2.841-4.5 5.738-2.475 2.897-4.5 5.742-4.5 6.321 0 .579-1.35 2.189-3 3.578-1.65 1.388-3.012 2.89-3.027 3.338-.015.448-2.036 3.065-4.491 5.815-2.455 2.75-4.468 5.31-4.473 5.689-.008.639-6.106 8.256-9.522 11.895-.818.871-1.487 2.076-1.487 2.677 0 .602-1.072 1.937-2.383 2.968-1.31 1.031-3.611 4.326-5.114 7.323-1.502 2.996-3.316 6.123-4.031 6.948-1.076 1.242-7.539 13.753-11.736 22.716-.571 1.219-1.389 1.999-1.818 1.734-.429-.266-1.062-.025-1.408.534-.345.559-.171 1.016.389 1.016.906 0-2.902 9.128-5.422 13-.538.825-2.123 3.975-3.524 7-4.616 9.971-6.78 12.731-11.503 14.673-3.828 1.574-4.758 2.335-4.372 3.577.042.137-1.533 2.924-3.5 6.191-1.968 3.268-3.61 6.418-3.65 7-.04.583-2.223 2.859-4.851 5.059-2.629 2.2-4.595 4.337-4.369 4.75.225.413-.093.75-.708.75s-.859.419-.542.932c.316.512-.22 1.524-1.191 2.25-.972.725-1.866 1.841-1.988 2.481-.121.639-1.359 2.84-2.75 4.889-1.391 2.05-2.529 4.339-2.529 5.088 0 .748-.422 1.36-.938 1.36s-.916.787-.89 1.75c.027.962-1.342 5.575-3.042 10.25-1.7 4.675-3.099 9.154-3.11 9.954-.036 2.648-4.388 16.046-5.211 16.046-.445 0-.809.943-.809 2.096 0 1.152-.648 3.29-1.441 4.75-2.172 4.002-6.559 15.775-6.559 17.603 0 .884-1.427 4.408-3.172 7.83-1.745 3.421-3.279 8.044-3.411 10.272-.131 2.227-1.417 6.949-2.856 10.492-1.44 3.543-2.847 7.745-3.128 9.337-.281 1.593-.921 3.664-1.424 4.603-.503.939-1.125 2.79-1.382 4.112-.258 1.323-1.209 4.43-2.115 6.905-.905 2.475-1.831 6.378-2.057 8.673-.226 2.295-1.09 6.12-1.919 8.5s-1.513 5.334-1.521 6.566c-.008 1.231-.909 5.506-2.001 9.5-1.093 3.993-2.146 8.611-2.34 10.261-.546 4.644-4.574 22.241-6.818 29.784-1.11 3.731-2.426 9.356-2.925 12.5-.499 3.144-1.357 7.741-1.908 10.216-1.151 5.176-3.941 20.073-4.588 24.5-.549 3.756-2.48 11.737-6.412 26.5-1.684 6.325-3.723 15.325-4.53 20-1.69 9.791-3.459 17.429-6.463 27.907-1.168 4.073-1.902 7.984-1.631 8.691.271.707-.396 4.349-1.484 8.093-1.087 3.745-2.164 8.384-2.393 10.309-.229 1.925-.904 6.037-1.499 9.138-.596 3.101-1.238 10.076-1.429 15.5-.19 5.424-.855 13.491-1.478 17.927-.622 4.436-1.323 15.236-1.556 24-.237 8.907-1.108 19.126-1.975 23.17-2.299 10.725-2.434 11.761-3.152 24.265-1.034 17.986-1.177 43.091-.339 59.5 1.605 31.454 2.246 49.668 2.429 69 .165 17.523 1.09 30.982 4.5 65.5 1.128 11.421 2.776 23.79 3.452 25.922.304.957 1.426 6.878 2.494 13.159 1.068 6.28 2.637 14.569 3.486 18.419.85 3.849 1.545 8.21 1.545 9.691 0 1.48.419 2.95.93 3.266.512.316 1.238 3.042 1.615 6.059.377 3.016 1.084 5.484 1.57 5.484.487 0 .811.338.721.75-.197.899 1.014 5.959 2.093 8.75 2.098 5.425 8.75 33.475 10.554 44.5.765 4.675 1.828 10.525 2.364 13 .535 2.475 1.282 7.313 1.661 10.75.379 3.437 1.094 6.25 1.59 6.25s.902 1.826.902 4.057c0 4.201 1.523 11.954 3.033 15.443 1.218 2.813 3.967 14.283 3.967 16.55 0 1.039.826 3.365 1.836 5.17 1.01 1.804 2.657 6.655 3.66 10.78 1.003 4.125 2.163 8.175 2.578 9 .414.825 1.72 4.425 2.9 8 1.181 3.575 2.554 7.4 3.052 8.5.498 1.1 1.856 5.15 3.019 9 1.162 3.85 2.978 9.108 4.034 11.685 1.057 2.577 1.921 5.364 1.921 6.192 0 .828 2.46 6.683 5.467 13.009 3.007 6.327 5.756 12.653 6.108 14.059.353 1.405 1.07 2.555 1.592 2.555.523 0 .673.45.333 1s-.115 1 .5 1 .864.412.553.915c-.311.503-.212 1.065.22 1.25.433.184 2.716 4.273 5.074 9.085 2.358 4.813 4.707 8.75 5.22 8.75.513 0 .933.689.933 1.531 0 .843.675 1.791 1.5 2.107.825.317 1.5.932 1.5 1.367 0 .952 7.522 13.479 10.205 16.995 3.371 4.418 6.659 9.398 8.871 13.437 1.186 2.166 2.779 4.56 3.54 5.322.761.761 1.384 1.811 1.384 2.334 0 .918 4.88 8.89 6.064 9.907.954.819 2.272 4.424 2.011 5.5-.133.55.092.666.5.259 1.077-1.077 3.425 1.18 3.425 3.292 0 .994 1.568 3.469 3.483 5.5 1.916 2.032 3.262 4.052 2.991 4.491-.271.438.187 1.476 1.017 2.306.83.83 1.509 1.805 1.509 2.166s3.15 5.367 7 11.125c3.85 5.757 7 10.878 7 11.379 0 .502.883 1.384 1.963 1.962 1.153.618 1.728 1.663 1.393 2.535-.314.817-.04 1.485.608 1.485 1.119 0 3.555 1.93 3.787 3 .06.275.59 1.767 1.179 3.315.588 1.548 1.07 3.236 1.07 3.75 0 .514.659.935 1.465.935 1.415 0 3.927 3.454 4 5.5.019.55.485 1.007 1.035 1.015 1.926.03 3.632 1.7 3.114 3.049-.288.749.642 2.279 2.066 3.399 1.425 1.12 2.148 2.037 1.608 2.037s-2.02-.9-3.288-2c-2.727-2.365-3-2.425-3-.653 0 1.257 2.541 4.863 5.041 7.153 2.731 2.502 7.017 6.814 13.783 13.866 4.028 4.199 7.598 7.634 7.933 7.634.923 0 10.243 9.867 10.243 10.844 0 .467.891 1.877 1.979 3.132 1.089 1.255 1.701 2.732 1.361 3.283-.34.55-.034.806.681.567.715-.238 3.027 1.261 5.139 3.331 2.112 2.07 3.84 3.573 3.84 3.341 0-.233 2.066 1.585 4.592 4.039 2.525 2.455 4.802 4.463 5.058 4.463 1.419 0 8.191 6.448 7.666 7.298-.344.556-.21.754.297.441.508-.314 2.682.742 4.833 2.345 2.151 1.604 3.441 2.916 2.867 2.916-.574 0-2.187-.9-3.586-2-3.043-2.393-3.727-2.485-3.727-.5 0 .825.46 1.5 1.021 1.5.562 0 3.599 2.498 6.75 5.55 5.499 5.328 11.023 8.99 12.034 7.979.75-.751-1.779-3.386-3.895-4.058-1.891-.6-2.696-2.471-1.063-2.471.743 0 2.143 1.015 6.817 4.941.641.538 2.328 1.27 3.75 1.627 1.422.357 2.586 1.275 2.586 2.04 0 .766.9 1.392 2 1.392 1.136 0 2 .667 2 1.544 0 .849.563 1.454 1.25 1.345 1.898-.302 9.595 3.638 15.75 8.061 3.025 2.174 7.3 5.211 9.5 6.749 2.2 1.539 5.35 4.034 7 5.545 1.65 1.511 3.507 2.749 4.128 2.751.62.003 1.687.68 2.372 1.505 2.022 2.436-.205 1.668-4.428-1.528-2.161-1.635-4.489-2.972-5.173-2.972-.685 0-2.657-1.188-4.383-2.64-2.32-1.952-3.429-2.347-4.26-1.516-1.35 1.35-1.735.973 6.149 6.04 3.523 2.264 6.004 4.116 5.513 4.116-.49 0 1.465 1.587 4.345 3.527 2.881 1.939 5.237 3.766 5.237 4.059 0 .292-.399.285-.887-.016-.487-.301-1.485.235-2.217 1.191-.731.956-.992 1.461-.578 1.121.414-.341 2.134.672 3.823 2.25 1.689 1.577 3.492 2.868 4.007 2.868.515 0 1.48.456 2.144 1.014 2.416 2.028 8.819 5.986 9.685 5.986.489 0 1.178.912 1.531 2.027.757 2.382 4.982 5.406 6.363 4.553.527-.326 1.109-.208 1.294.262.545 1.39 9.737 6.158 11.87 6.158 1.081 0 1.965.415 1.965.922 0 1.138 5.152 2.798 10.5 3.384 2.2.24 5.8 1.14 8 1.998 5.933 2.315 18.943 4.82 14 2.696-1.328-.57-1.496-.881-.5-.924.825-.035 2.806.617 4.402 1.449 1.595.833 3.733 1.25 4.75.927 1.087-.345 1.848-.099 1.848.597 0 .743.992.995 2.661.675 1.464-.279 5.333.17 8.599.999 5.515 1.399 6.056 1.382 7.589-.249.908-.966 1.098-1.447.422-1.069-1.295.724-5.817-1.193-4.923-2.086.285-.286 1.028-.205 1.651.18.622.385 3.67.879 6.772 1.098 3.102.219 6.448.655 7.435.968 3.145.999 1.924-1.502-1.456-2.981-1.788-.781-2.739-1.458-2.115-1.502 1.968-.142 7.885 2.709 7.436 3.583-.236.459.38.991 1.369 1.181.988.191 1.554-.047 1.256-.528-.698-1.13 10.203-.675 17.304.722 3.025.595 7.646 1.268 10.268 1.495 2.623.228 5.703.914 6.845 1.526 1.142.611 4.396 1.315 7.232 1.564 5.072.446 10.707 1.311 13.655 2.096.825.219 2.85.498 4.5.618 1.65.121 3.522.545 4.16.943.638.399 1.798.48 2.577.18.78-.299 2.733-.027 4.341.604 1.607.631 5.172 1.317 7.922 1.524 2.75.208 7.925.684 11.5 1.058 3.575.375 9.943.637 14.15.582 6.558-.085 7.718.156 8.119 1.69.422 1.613 1.473 1.74 10.745 1.293 8.075-.388 10.112-.226 9.504.758-1.194 1.931 1.356 2.913 6.35 2.445 2.739-.257 4.787.026 5.216.72.513.83 3.037.548 9.231-1.032 4.689-1.196 12.949-2.578 18.355-3.072 14.358-1.312 30.541-4.894 32.33-7.156.275-.348 3.2-1.4 6.5-2.339 3.3-.939 7.575-2.496 9.5-3.461 1.925-.964 5.75-2.365 8.5-3.114 2.75-.749 8.32-3.099 12.378-5.224 4.501-2.357 9.375-4.083 12.5-4.429 2.991-.331 8.357-2.177 12.898-4.438 4.277-2.129 8.602-3.871 9.611-3.871 1.008 0 3.41-1.07 5.337-2.378 1.927-1.307 5.253-2.948 7.39-3.646 2.137-.697 8.138-3.453 13.335-6.122 5.197-2.67 10.198-4.854 11.115-4.854.916 0 2.81-.9 4.209-2 1.398-1.1 3.034-2 3.635-2 .6 0 1.092-.45 1.092-1s.672-1 1.493-1c2.002 0 9.507-3.29 9.507-4.168 0-.383 3.263-2.339 7.25-4.347 3.987-2.007 7.813-4.374 8.5-5.259.688-.884 1.25-1.256 1.25-.825 0 .43 1.984-1.171 4.41-3.559 6.285-6.188 7.471-7.033 8.757-6.239.655.405.87.266.503-.327-.361-.585 2.29-2.5 6.096-4.405 3.704-1.854 6.879-3.693 7.056-4.087.177-.393 2.414-1.743 4.97-3 2.557-1.256 5.449-3.071 6.428-4.034.979-.962 2.21-1.75 2.735-1.75.525 0 2.079-1.125 3.454-2.5s2.971-2.5 3.546-2.5c.575 0 1.837-.787 2.806-1.75.968-.962 3.951-2.326 6.628-3.031 5.304-1.395 5.943-1.825 20.74-13.969 5.53-4.537 10.35-8.254 10.712-8.259.363-.004 2.316-1.579 4.342-3.5 2.026-1.92 3.987-3.491 4.358-3.491.372 0 2.913-2.25 5.649-5s5.387-5 5.892-5c.505 0 .918-.485.918-1.077 0-1.399 5.524-6.923 6.923-6.923.592 0 1.077-.465 1.077-1.033 0-.569 1.462-2.525 3.25-4.347 5.182-5.283 8.238-9.06 7.985-9.87-.129-.412.44-.75 1.265-.75s1.5-.653 1.5-1.45c0-.798.788-1.909 1.75-2.47.962-.561 1.45-1.033 1.083-1.05-1.071-.048 6.028-7.03 7.149-7.03.56 0 1.018-.649 1.018-1.443s.949-2.108 2.108-2.92c1.16-.813 1.834-1.921 1.499-2.464-.364-.589.259-.759 1.548-.422 1.37.358 1.92.18 1.507-.489-.358-.579.022-1.31.844-1.626.822-.315 1.494-1.337 1.494-2.271 0-.934.304-1.395.675-1.024.776.776 3.777-3.377 5.777-7.995.843-1.947 2.029-3.095 3.099-3 .954.085 1.953-.471 2.221-1.235.335-.954.055-1.139-.892-.59-.815.472-1.039.427-.547-.111.459-.5 1.134-.949 1.5-.996 1.96-.254 4.084-1.739 3.602-2.519-.304-.492-.048-.895.569-.895s.981-1.008.809-2.239c-.174-1.245.242-2.299.937-2.375.688-.075 1.7-.192 2.25-.261s1-.8 1-1.625.45-1.5 1-1.5 1.052-1.463 1.116-3.25c.067-1.883.316-2.472.592-1.401.41 1.59.676 1.464 1.902-.899.784-1.511 1.218-2.955.965-3.209-.254-.253.638-2.202 1.982-4.331 1.344-2.129 2.443-4.315 2.443-4.859 0-.543.753-.699 1.674-.346 1.268.487 1.518.237 1.031-1.031-.428-1.115-.132-1.674.885-1.674.841 0 1.25-.45.91-1-.34-.55-.141-1 .441-1s1.059-.9 1.059-2 .46-2 1.021-2c.562 0 1.528-1.111 2.147-2.469.618-1.357 1.461-2.261 1.872-2.007.41.254 1.051-.749 1.422-2.229.488-1.943.904-2.32 1.499-1.358.626 1.013 1.128.76 2.092-1.052.697-1.312 3.446-4.895 6.107-7.963 5.332-6.144 5.663-6.892 3.09-6.985-1.363-.05-1.262-.26.457-.952 1.214-.489 3.4-2.823 4.859-5.187 1.458-2.364 3.165-4.748 3.793-5.298 1.695-1.486 5.641-9.041 5.641-10.803 0-.842.495-1.695 1.099-1.897.605-.201 1.207-1.74 1.34-3.419.132-1.678.564-3.576.959-4.217.396-.64.445-1.609.109-2.153-.359-.581.076-.725 1.056-.348 1.343.515 1.535.22.985-1.512-.376-1.183-.298-2.151.172-2.151s.957-1.463 1.081-3.25c.125-1.787.451-5.192.724-7.566.325-2.817.14-4.095-.532-3.68-.662.409-.869-.659-.579-2.991.344-2.781.057-3.753-1.232-4.161-.925-.293-2.664-1.002-3.865-1.576-1.2-.573-2.881-.774-3.734-.446-.986.378-1.968-.212-2.69-1.617-.938-1.825-.906-1.994.185-.963 1.843 1.742 2.919 1.559 2.937-.5.013-1.469.165-1.513.947-.278.788 1.247 1.039 1.19 1.639-.374.471-1.228.154-2.156-.947-2.771-.909-.51-1.654-1.547-1.654-2.305 0-.759-.704-2.083-1.564-2.943-.86-.86-1.302-1.986-.983-2.502.319-.516.122-1.221-.437-1.567-.559-.345-1.016-.189-1.016.348 0 .536-1.624-.602-3.609-2.53-2.378-2.309-4.254-3.336-5.5-3.01-1.219.319-1.891-.026-1.891-.971 0-.806-.368-1.238-.818-.96-.45.279-1.912-.509-3.25-1.749-1.338-1.24-2.765-2.354-3.172-2.474-.406-.12-1.438-.487-2.293-.815-.854-.328-1.807-.343-2.117-.033-.309.31-1.5-.309-2.645-1.376s-3.136-1.94-4.425-1.94c-1.288 0-2.601-.672-2.916-1.494-.316-.822-1.013-1.223-1.55-.891-.537.332-2.177-.539-3.645-1.934-1.468-1.396-3.943-2.853-5.5-3.238-1.557-.385-3.031-1.223-3.276-1.861-.245-.638-1.439-1.235-2.654-1.327-1.215-.091-2.366-.636-2.558-1.211-.191-.574-1.21-1.044-2.264-1.044-1.054 0-2.817-.9-3.917-2-1.1-1.1-2.562-1.999-3.25-1.999-2.938.004-12.724-5.567-12.737-7.251-.009-1.231-.829-1.761-2.763-1.785-1.513-.02-3.783-.609-5.045-1.31-2.668-1.481-5.484-6.315-4.093-7.026.516-.263.373-.366-.317-.227-2.127.426-9.179-2.024-9.418-3.272-.125-.649.002-.719.281-.155.584 1.176 3.342 1.403 3.342.275 0-1.503-7.149-6.407-8.554-5.867-.796.305-1.446.118-1.446-.414 0-1.417-2.746-1.185-3.338.281-.309.767-.535.593-.583-.448-.043-.935-1.179-2.886-2.523-4.336-1.833-1.978-2.994-2.462-4.651-1.936-1.813.576-2.089.392-1.545-1.026.495-1.289.266-1.574-.903-1.126-1.819.698-7.457-3.132-7.457-5.066 0-.722-.45-1.312-1-1.312s-1-.695-1-1.545c0-1.214-.725-1.41-3.379-.912-2.7.507-3.789.193-5.426-1.564-1.126-1.209-1.809-2.822-1.516-3.585.408-1.062-.16-1.248-2.432-.793-2.445.489-3.06.221-3.519-1.533-.306-1.169-.932-2.059-1.392-1.978-2.239.394-3.226-.337-4.191-3.103-.577-1.657-1.746-3.281-2.598-3.607-.851-.327-1.547-1.221-1.547-1.987s-.498-1.393-1.107-1.393c-.62 0-.839.77-.498 1.75.529 1.518.444 1.551-.643.25-.688-.825-2.085-1.5-3.103-1.5-1.147 0-2.693-1.573-4.063-4.134-3.579-6.691-6.331-8.702-10.086-7.369-5.303 1.883-7.391 1.969-8.988.372-.898-.898-3.526-1.759-5.84-1.914-3.686-.246-4.359.042-5.439 2.331-.678 1.437-1.233 3.171-1.233 3.854 0 .683-.408 1.494-.907 1.802-.498.309-.671-.34-.383-1.441.293-1.119.031-2.001-.593-2.001-.615 0-1.117.608-1.117 1.35 0 1.543-5.843 6.291-7.231 5.875-.505-.151-.664.136-.354.637.309.501-.117 1.476-.949 2.166-1.274 1.058-1.402.97-.815-.56.556-1.449.336-1.677-1.089-1.13-1.368.525-1.639.306-1.162-.938.509-1.327.149-1.504-1.972-.971-1.685.423-2.37.286-1.953-.389.364-.588-.228-1.04-1.359-1.04-1.16 0-2.74 1.248-3.754 2.964-.963 1.63-2.364 3.093-3.113 3.25-.749.157-2.399 2.843-3.666 5.968-1.268 3.126-3.042 6.42-3.944 7.322-.901.901-1.639 2.234-1.639 2.96 0 .727-.612 1.557-1.36 1.844-.748.287-1.86 2.508-2.471 4.935-.611 2.428-2.024 5.575-3.14 6.993-1.116 1.419-2.029 2.983-2.029 3.476 0 .493-1.44 3.122-3.201 5.842-1.76 2.72-4.051 6.521-5.09 8.446-1.039 1.925-2.901 5.075-4.138 7a9461.134 9461.134 0 0 0-6.411 10c-2.29 3.575-6.669 9.163-9.732 12.417-3.062 3.255-7.224 7.958-9.248 10.453-4.559 5.619-9.815 11.13-10.613 11.13-.331 0-2.506 1.933-4.834 4.296-2.328 2.364-6.703 6.301-9.722 8.75-3.019 2.45-6.556 5.704-7.861 7.231-5.056 5.916-17.007 14.622-25.172 18.334-4.663 2.121-11.396 5.551-14.962 7.622-3.566 2.072-7.054 3.767-7.75 3.767-.696 0-1.266.45-1.266 1s-1.125 1-2.5 1-2.5.45-2.5 1-.659 1-1.465 1c-.805 0-3.539 1.159-6.075 2.574-2.537 1.416-7.151 3.236-10.254 4.045-3.103.808-5.987 2.012-6.409 2.675-.421.663-.773.813-.782.334-.008-.48-.632-.361-1.386.265-1.782 1.479-22.444 5.848-30.292 6.405-3.35.238-6.547.713-7.103 1.057s-5.448.864-10.872 1.156c-5.424.292-17.431 1.06-26.681 1.706-14.022.981-16.959.951-17.658-.18-.687-1.112-1.383-1.131-3.858-.105-5.62 2.328-12.063.59-28.105-7.578-11.225-5.715-18.091-10.019-12.56-7.872 1.1.427 2.683.852 3.518.944.834.093 2.009.473 2.61.844 1.151.711 2.372-.029 2.372-1.437 0-.458-.639-.833-1.419-.833s-2.693-.636-4.25-1.413a689.69 689.69 0 0 0-6.52-3.195c-2.029-.979-3.498-2.089-3.266-2.465.232-.376-.808-.93-2.311-1.232-1.504-.302-6.334-2.538-10.734-4.97-4.4-2.431-12.275-6.585-17.5-9.23-5.225-2.645-11.355-6.296-13.622-8.114-2.266-1.817-4.363-3.063-4.658-2.767-.296.295-.836-.404-1.201-1.553-.365-1.15-.976-1.897-1.358-1.661-.382.236-2.262-.909-4.178-2.545-2.799-2.391-3.042-2.852-1.233-2.347 1.238.345 2.25.225 2.25-.266 0-.974-4.258-5.242-5.23-5.242-1.925 0-15.77-13.619-15.77-15.513 0-.818-.45-1.487-1-1.487s-1-.896-1-1.99c0-2.322-7.342-13.358-13.584-20.418-2.387-2.699-4.103-5.29-3.814-5.757.289-.468-.178-1.554-1.038-2.414-.86-.86-1.564-2.193-1.564-2.961 0-.894-.631-1.18-1.75-.794-1.421.49-1.374.302.25-1 1.31-1.05 1.532-1.613.643-1.634-.79-.019-1.117-.658-.781-1.532.316-.825.161-1.5-.344-1.5-.506 0-2.607-3.038-4.669-6.75-2.061-3.713-4.108-6.9-4.549-7.083-.44-.184-.8-.971-.8-1.75s-.358-1.417-.795-1.417c-.437 0-1.63-2.025-2.651-4.5-1.02-2.475-2.185-4.5-2.588-4.5-.743 0-2.273-3.873-2.074-5.25.059-.412-.369-.75-.951-.75s-.8-.419-.484-.931c.317-.512.168-1.183-.33-1.49-.498-.308-1.215-1.802-1.594-3.32-.379-1.517-1.245-3.434-1.925-4.259-.681-.825-2.3-4.987-3.599-9.25-1.298-4.262-2.695-7.75-3.103-7.75-.408 0-1.964-3.713-3.457-8.25-1.494-4.537-3.054-8.7-3.467-9.25-.413-.55-1.22-3.025-1.793-5.5s-1.795-7.2-2.716-10.5c-1.873-6.713-3.563-14.251-6.502-29-1.096-5.5-2.65-12.25-3.454-15-.804-2.75-1.698-7.118-1.987-9.707-.289-2.589-1.384-7.089-2.432-10-2.226-6.185-5.508-25.647-5.222-30.973.14-2.614-.312-3.965-1.56-4.663-1.408-.788-1.892-2.937-2.436-10.82-.374-5.41-1.155-11.862-1.736-14.337-.581-2.475-1.085-6.975-1.12-10-.073-6.455-2.132-15.172-3.541-14.997-.541.068-.87 1.03-.731 2.138.139 1.108-.36 2.888-1.107 3.956-1.275 1.819-1.46 1.675-2.982-2.329-.984-2.59-1.853-8.985-2.21-16.268-.323-6.6-1.442-15.616-2.486-20.036-2.169-9.184-2.864-19.967-1.382-21.449.673-.673.889.808.654 4.49-.239 3.728.025 5.495.818 5.495.731 0 1.005-1.125.73-3-.279-1.897-.004-3 .748-3 1.452 0 .679-5.158-.934-6.235-.633-.422-.145-.741 1.149-.75 2.562-.017 2.301 2.437 2.817-26.515.176-9.9.583-19.418.903-21.152.395-2.131.089-3.646-.943-4.678-1.969-1.969-1.987-5.67-.027-5.67 1.77 0 1.998-3.102.349-4.751-.633-.633-1.265-2.861-1.405-4.95-.213-3.199-.584-3.761-2.349-3.561-1.844.21-2.116-.328-2.273-4.5-.098-2.606-.121-5.638-.051-6.738.423-6.635.315-9.502-.516-13.721-.511-2.597-.557-4.847-.103-5 .744-.251 1.243-14.091.641-17.779-.231-1.413.799-20.249 1.83-33.5.257-3.3.652-9.825.877-14.5.671-13.942 2.348-33.181 2.944-33.777.306-.306.556.644.556 2.11 0 1.467.395 2.667.879 2.667 1.314 0 3.436-5.738 2.766-7.482-.785-2.047-2.393-1.921-2.956.232-.251.962-.442-.5-.423-3.25.018-2.75.221-3.763.45-2.25.229 1.512 1.045 2.75 1.813 2.75 1.048 0 1.363-1.433 1.263-5.75-.073-3.163-.324-4.85-.559-3.75-.235 1.1-.864 2.45-1.399 3-1.62 1.667.208-26.228 2.204-33.64.552-2.053.918-4.098.811-4.546-.496-2.086 2.575-13.42 3.941-14.547 1.347-1.11 1.394-.997.374.917-1.424 2.672-1.511 5.316-.175 5.316.544 0 1.006-1.013 1.027-2.25.085-4.999.523-7.75 1.234-7.75.413 0 .749-1.462.747-3.25-.001-1.788.636-6.175 1.415-9.75 1.19-5.454 2.39-11.76 5.042-26.5.198-1.1 1.043-4.925 1.877-8.5 1.835-7.863 2.968-15.531 2.842-19.25-.051-1.513.366-2.75.926-2.75.561 0 .765-.412.454-.915-.311-.503-.005-1.101.679-1.329.985-.328.99-.972.028-3.085-.67-1.469-.832-2.671-.361-2.671.47 0 .642-1.912.381-4.25-.454-4.068 2.117-16.69 3.615-17.748.712-.502 5.242-15.172 5.56-18.002.202-1.801 2.527-6.29 3.638-7.024.437-.288 1.322-2.763 1.969-5.5.646-2.737 1.571-5.757 2.056-6.712 1.255-2.471 1.099-4.897-.628-9.791-1.199-3.4-1.279-5.017-.388-7.876 1.377-4.414 4.044-10.08 5.426-11.523 2.672-2.792 10.266-23.261 12.827-34.574 1.538-6.795 7.675-25.335 10.097-30.502.773-1.651 2.322-5.139 3.442-7.75 1.119-2.611 2.234-4.748 2.477-4.748.612 0-.491 4.277-1.418 5.5-.417.55-.914 2.125-1.105 3.5-.192 1.375-.798 2.838-1.348 3.25-.637.478-.516 1.063.334 1.611 1.052.679.952 1.007-.472 1.554-1.535.589-1.585.832-.334 1.623.81.512.982.938.383.947-1.395.019-3.2 3.984-2.854 6.265.146.962-.171 1.75-.705 1.75-.533 0-.692.45-.352 1 .34.55.21 1-.289 1s-.945 1.35-.992 3c-.047 1.65.244 3 .647 3 .821 0 3.322-6.42 3.701-9.5.39-3.166 5.586-16.936 6.646-17.612.528-.337.819-1.462.648-2.5-.171-1.039-.065-2.338.237-2.888.301-.55 1.164-3.025 1.918-5.5 2.152-7.07 8.964-16.716 18.715-26.5 10.299-10.333 18.05-17.5 18.928-17.5.784 0 4.084-3.804 6.073-7 2.051-3.297 23.304-22.735 28.728-26.274 2.338-1.526 5.104-4.368 6.146-6.314 1.042-1.947 5.157-6.242 9.144-9.545s7.25-6.382 7.25-6.841c0-1.737 8.924-5.888 20.5-9.534 6.6-2.08 12.496-4.166 13.102-4.636.607-.471 3.869-1.145 7.25-1.498 3.382-.354 6.148-1.029 6.148-1.5 0-.472 1.688-.861 3.75-.864 3.827-.005 10.159-1.378 13.75-2.981 1.1-.491 5.825-1.664 10.5-2.608 4.675-.943 8.95-2.056 9.5-2.472.55-.416 4.722-1.08 9.272-1.476 4.55-.395 8.514-1.11 8.809-1.588.744-1.204 27.69-1.097 30.9.124 1.436.546 7.653 1.243 13.815 1.549 11.913.593 13.936 1.041 25.704 5.704a3878.105 3878.105 0 0 0 15 5.902c4.125 1.612 8.967 3.611 10.761 4.443 1.794.833 3.706 1.238 4.25.902.544-.336.989-.104.989.515 0 .672.808.87 2.003.491 1.35-.428 4.524.772 9.735 3.683 4.253 2.375 8.527 4.641 9.497 5.036.971.395 1.765 1.182 1.765 1.75 0 .567.563 1.035 1.25 1.038.688.004 3.725 2.296 6.75 5.095s7.297 6.509 9.492 8.244c2.196 1.735 8.912 8.231 14.925 14.434 6.012 6.204 14.015 13.802 17.784 16.885 4.927 4.032 7.887 7.465 10.533 12.221 2.024 3.638 4.28 7.227 5.012 7.976.733.748 2.426 3.518 3.762 6.155 1.336 2.636 4.845 7.199 7.798 10.139 5.577 5.553 6.958 7.636 11.168 16.845 3.857 8.437 11.223 21.399 12.38 21.785.568.189.786.99.483 1.78-.303.789.022 1.435.723 1.435.7 0 .995.279.654.619-.34.341-.078 1.225.584 1.965 2.986 3.344 3.542 4.243 2.975 4.809-.333.334-.081.607.56.607.642 0 1.167.9 1.167 2s.395 2 .879 2c.483 0 1.421 1.311 2.085 2.913.664 1.603 3.913 5.472 7.22 8.599 5.939 5.615 6.07 5.677 10.573 5.002 6.603-.99 9.541-2.295 8.904-3.955-.851-2.217 1.827-3.928 3.512-2.244 1.138 1.139 1.601 1.153 2.605.077.672-.719 1.222-1.777 1.222-2.35 0-.573 1.849-1.042 4.109-1.042 4.108 0 4.11-.002 3.701-3.5-.29-2.483-.014-3.5.95-3.5.747 0 1.083-.445.747-.989-.355-.574.063-.73.997-.371.967.371 2.399-.232 3.591-1.512 1.091-1.17 2.385-2.128 2.877-2.128.491 0 1.179-.9 1.528-2s1.201-2 1.893-2 2.299-1.108 3.571-2.461c1.625-1.73 2.791-2.216 3.924-1.636 2.534 1.299 11.308.663 14.612-1.059 1.65-.86 4.35-1.879 6-2.265 1.65-.385 4.581-1.734 6.513-2.997 1.932-1.263 4.632-2.638 6-3.055 2.157-.659 4.174-1.959 10.853-6.997.751-.566 2.538-2.268 3.972-3.78 1.434-1.512 3.03-2.75 3.547-2.75.517 0 3.205-1.454 5.974-3.23 2.769-1.777 6.014-3.102 7.211-2.945 1.197.157 2.806-.344 3.574-1.112 2.069-2.069 5.464-3.713 7.668-3.713 1.069 0 2.485-.652 3.146-1.45 1.425-1.717 7.933-4.867 13.542-6.555 2.2-.662 5.678-2.282 7.729-3.6 2.05-1.317 4.188-2.395 4.75-2.395.561 0 1.021-.34 1.021-.756s1.322-1.341 2.937-2.056c1.616-.715 3.085-2.063 3.264-2.994.181-.938 1.324-1.75 2.563-1.819 3.811-.213 4.236-.346 4.236-1.323 0-1.347 4.516-6.052 5.808-6.052.593 0 1.667-.788 2.385-1.75.846-1.132 2.865-1.823 5.721-1.956 2.427-.113 4.677-.623 5-1.134.322-.511 1.486-1.1 2.586-1.309 1.908-.364 1.996-1.14 1.914-16.922-.085-16.398-.113-16.598-3.238-23.213-3.128-6.62-3.616-7.024-9.586-7.927-1.393-.211-2.377-1.912-3.638-6.289-.95-3.3-2.599-8.025-3.665-10.5-1.065-2.475-3.612-9.9-5.66-16.5-5.043-16.258-11.561-31.67-13.621-32.209-.91-.238-2.212-1.971-2.892-3.851-.68-1.881-1.899-4.082-2.709-4.892-2.31-2.31-9.251-16.703-7.783-16.14 2.749 1.055 2.381-1.558-.645-4.585-2.32-2.32-3.362-2.818-3.941-1.882-.555.899-.987.948-1.47.166-.376-.609-.363-1.627.029-2.262.426-.687.277-.884-.368-.485-.596.368-1.358-.196-1.693-1.253-.336-1.057-1.268-2.175-2.072-2.483-.804-.309-1.472-1.138-1.484-1.843-.012-.704-.902-2.406-1.978-3.781s-1.966-3.255-1.978-4.179c-.012-.923-.585-2.273-1.274-3-2.032-2.145-6.748-9.692-6.748-10.8 0-.561-.441-1.021-.981-1.021-.539 0-1.257-1.101-1.595-2.447-.338-1.346-1.697-3.157-3.019-4.023-1.323-.867-2.405-2.171-2.405-2.898 0-.727-.9-2.137-2-3.132-1.1-.995-2-2.378-2-3.072s-.337-1.411-.75-1.595c-.413-.183-1.425-1.523-2.25-2.977-3.058-5.39-18.64-25.081-25.75-32.54-2.337-2.452-4.25-4.669-4.25-4.927 0-.755-21.28-21.041-25.572-24.377-5.613-4.363-11.556-9.26-13.415-11.055-.879-.848-2.953-2.104-4.609-2.79-1.656-.685-4.134-2.241-5.506-3.457-2.479-2.194-3.839-3.063-10.785-6.887-1.987-1.095-5.188-3.203-7.113-4.686-6.09-4.691-8.85-6.137-11.715-6.138-3.523-.001-19.991-8.158-25.738-12.749-1.549-1.238-3.849-2.25-5.11-2.25-1.262 0-2.889-.586-3.616-1.302-1.633-1.609-7.944-4.608-20.031-9.518-1.49-.605-5.09-1.403-8-1.773-2.909-.37-5.74-1.009-6.29-1.419-2.621-1.956-13.335-4.009-26.018-4.986-13.483-1.039-26.462-4.013-37.482-8.589-1.925-.799-5.525-1.601-8-1.783-5.012-.366-12.202-2.006-19-4.333-11.862-4.061-18.206-5.374-28-5.797-18.644-.805-51.214-1.016-62-.402M381.25 162.72c-1.42.507-1.722 3.28-.357 3.28.842 0 2.469-3.033 1.881-3.506-.151-.121-.836-.019-1.524.226M334.5 199c-1.581 1.65-2.6 3-2.264 3 .336 0 1.96-1.35 3.61-3s2.669-3 2.264-3c-.405 0-2.029 1.35-3.61 3m-122 153c.34.55-.015 1-.789 1s-2.115 1.8-2.979 4c-2.212 5.632.118 5.234 3.018-.516 2.564-5.083 2.651-5.484 1.191-5.484-.582 0-.781.45-.441 1m223.593 172.943c-.766.473-1.018 1.37-.583 2.074.574.928 1.007.811 1.72-.464 1.157-2.067.684-2.736-1.137-1.61m-22.454 71.751c-1.195 1.195-.645 3.306.861 3.306.825 0 1.5-.648 1.5-1.441 0-1.671-1.427-2.798-2.361-1.865M404.5 628c.34.55.19 1-.334 1-1.275 0-2.335 2.918-1.532 4.217.352.57 1.254-.423 2.003-2.205 1.639-3.897 1.647-4.012.304-4.012-.582 0-.781.45-.441 1m-279.839 38.107c-.213.766-1.294 4.206-2.403 7.643-1.108 3.438-1.708 6.25-1.333 6.25.927 0 5.387-14.022 4.683-14.726-.309-.308-.735.067-.947.833m-20.964 61.757c-2.684 9.657-3.237 14.484-1.596 13.931.769-.26 1.426-1.332 1.458-2.383.033-1.052.529-3.037 1.104-4.412 1.785-4.273 2.516-8.229 1.392-7.534-.66.408-.808-.451-.415-2.416 1.038-5.192-.226-3.36-1.943 2.814M366.181 898c.03 2.2.452 4 .937 4 .485 0 .882-1.8.882-4s-.422-4-.937-4c-.516 0-.913 1.8-.882 4m-5.881 11c0 3.025.187 4.263.416 2.75.229-1.513.229-3.987 0-5.5s-.416-.275-.416 2.75m729.229 444.355c-1.135.83-1.609 1.993-1.223 3 .995 2.593 2.426 1.925 2.907-1.355.242-1.65.38-3 .305-3-.075 0-.97.61-1.989 1.355m-601.933 15.489c-.758 1.227 4.11 5.459 9.904 8.609l5 2.719-5.5-5.131c-6.263-5.841-8.651-7.415-9.404-6.197m25.98 6.913c-1.463 1.463-.275 3.187 2.924 4.243 1.925.635 3.5 1.57 3.5 2.078 0 .507.675.922 1.5.922s1.5.422 1.5.939c0 .516 2.047 1.245 4.55 1.621 2.502.375 5.148 1.281 5.88 2.013.733.733 1.61 1.053 1.951.713.34-.341.619-.094.619.547 0 .642.45 1.167 1 1.167s1-.612 1-1.361c0-1.241-14.525-8.639-16.961-8.639-.572 0-1.042-.338-1.045-.75-.009-1.072-5.727-4.184-6.418-3.493m-251.698 144.089c4.755 6.003 7.049 7.281 2.596 1.447-2.186-2.864-4.349-5.227-4.808-5.25-.459-.024.537 1.688 2.212 3.803M558 1683.933c0 1.166 3.922 2.478 4.796 1.604.75-.75-1.711-2.499-3.546-2.522-.687-.008-1.25.405-1.25.918" fill-rule="evenodd"/></svg>