<svg xmlns="http://www.w3.org/2000/svg" width="1240" height="1753"><path d="M557.8 60.028c-2.585.435-5.222 1.115-5.862 1.51-.639.395-1.554.098-2.034-.66-.633-.998-.878-1.033-.889-.128-.008.688-.945 1.25-2.082 1.25-3.029 0-22.902 16.308-22.923 18.809-.005.72-.422 1.055-.925.744-.503-.311-1.065-.213-1.25.218-.184.43-3.563 2.895-7.508 5.476-3.945 2.582-7.459 5.157-7.809 5.723-.35.567-1.622 1.037-2.827 1.045-1.392.01-1.753.294-.991.778.8.509.216 1.199-1.75 2.069-1.623.718-2.95 1.943-2.95 2.722 0 .779-.608 1.416-1.352 1.416-.743 0-2.69 1.238-4.326 2.75-1.636 1.513-5.069 4.494-7.63 6.625-2.56 2.131-4.369 4.338-4.019 4.905.37.599.145.726-.539.303-1.383-.855-7.352 3.829-6.329 4.966.382.424.129.446-.563.048-.691-.399-1.913-.133-2.715.589-.802.723-2.167 1.912-3.035 2.643-.946.798-1.364 2.197-1.044 3.5.294 1.194.284 1.634-.022.977-.753-1.62-3.426-.475-3.426 1.468 0 .857-.298 1.261-.662.897-1.128-1.128-12.509 11.442-11.869 13.109.498 1.297.346 1.313-1.11.111-1.55-1.278-1.582-1.188-.4 1.109 1.065 2.071 1.059 2.286-.037 1.25-1.577-1.491-3.299-1.669-2.422-.25.34.55.193 1-.326 1-1.121 0-4.507 4.944-4.507 6.58 0 .628-.701 1.092-1.558 1.031-.857-.061-1.57.564-1.584 1.389-.04 2.389-6.885 12.126-11.656 16.579-2.403 2.244-10.669 9.189-18.369 15.434-17.448 14.153-23.4 19.263-34.925 29.987a3863.337 3863.337 0 0 1-16.605 15.353c-14.737 13.519-36.015 34.806-33.22 33.232 1.752-.985 1.613 2.345-.18 4.331-3.22 3.566-6.642 6.844-12.094 11.584-9.017 7.84-13.172 12.357-12.701 13.804.151.465-.152.581-.674.259-.521-.323-1.894.742-3.051 2.366-1.156 1.624-2.99 3.235-4.076 3.579-1.086.345-1.974 1.298-1.974 2.118 0 .821-.45 1.214-1 .874-.55-.34-1-.214-1 .28 0 .495-1.138 1.417-2.528 2.051-1.391.633-2.828 1.943-3.194 2.91-.781 2.06-16.019 17.259-17.304 17.259-.481 0-1.907 2.25-3.169 5-1.261 2.75-2.633 5-3.049 5-.416 0-.756.675-.756 1.5s-.45 1.5-1 1.5-1 .612-1 1.36c0 .748-1.131 2.209-2.512 3.247-1.399 1.05-2.275 2.505-1.977 3.281.457 1.192.285 1.192-1.18.003-1.136-.922-1.462-.969-.964-.141.458.763.204 1.25-.653 1.25-2.026 0-5.109 3.638-3.779 4.46 1.647 1.018 3.05-.33 2.334-2.242-.549-1.466-.409-1.528.953-.421 1.437 1.167 1.344 1.566-.934 4-1.391 1.487-2.98 2.572-3.531 2.412-.559-.162-.726.502-.377 1.5.559 1.603.47 1.592-.846-.106-.808-1.044-1.19-2.351-.847-2.905.362-.587.119-.696-.585-.261-.664.411-1.029 1.268-.811 1.905.217.637-.692 2.101-2.022 3.254-1.513 1.311-2.618 3.586-2.952 6.077-.32 2.39-1.29 4.454-2.425 5.163-2.243 1.4-2.551-.045-.392-1.836.825-.685 1.468-1.977 1.43-2.872-.058-1.347-.195-1.313-.789.196-.396 1.003-.998 1.678-1.339 1.5-.61-.318-4.802 4.493-4.802 5.51 0 .286.669.665 1.487.843 1.227.267 1.052 1.257-1 5.672-2.867 6.168-3.307 10.403-.987 9.513.825-.317 1.5-1.122 1.5-1.789 0-.667 1.012-2.106 2.25-3.199 1.238-1.092 3.144-3.198 4.237-4.68 1.093-1.482 2.668-2.658 3.5-2.615 1.027.054 1.111.241.263.583-.687.278-1.25 1.11-1.25 1.85s-.568 1.94-1.262 2.667c-2.528 2.647-3.728 6.693-2.688 9.058.867 1.971.919 1.875.4-.737l-.596-3 2.211 2.356c1.248 1.331 1.792 2.636 1.25 3-1.718 1.152-2.227 3.972-.914 5.062.706.586 1.569.779 1.917.43.349-.349.908.077 1.241.946.334.869 1.244 1.335 2.024 1.036.779-.299 1.417-.046 1.417.563s.675 1.107 1.5 1.107c1.876 0 1.87.383-.063 4.121-1.212 2.345-1.299 3.341-.387 4.44.647.779 1.583 1.166 2.08.859.497-.307 1.979-.753 3.294-.992 1.986-.36 2.302-.095 1.866 1.569-.288 1.102-.891 2.003-1.34 2.003-.449 0-.778 1.329-.732 2.954.072 2.555.334 2.821 1.933 1.965 1.578-.844 1.849-.609 1.849 1.605 0 1.649.405 2.344 1.112 1.907.611-.378 1.445-.148 1.852.511.509.823 1.57.212 3.388-1.949 3.03-3.601 3.616-1.787.648 2.007-2.354 3.01-2.725 7.492-.551 6.658.966-.371 1.265-.076.896.884-.305.796.166 1.717 1.051 2.057.882.338 1.604 1.215 1.604 1.949 0 2.016 1.904 2.777 3.543 1.416 1.241-1.03 1.359-.725.8 2.07-.501 2.506-.357 3.093.613 2.493.74-.457 1.621-.211 2.116.59.684 1.106 1.133.985 2.307-.62 1.825-2.496 3.483-1.107 1.833 1.535-1.799 2.88-1.55 4.493.439 2.843 1.508-1.252 1.596-.939 1.015 3.628-.513 4.036-.422 4.576.476 2.805 1.515-2.986 3.858-3.781 3.858-1.308 0 1.311.485 1.751 1.5 1.362 1.765-.678 1.822-.34.525 3.073-.691 1.816-.645 2.565.155 2.565.621 0 .313.903-.686 2.006-.998 1.104-1.63 2.192-1.403 2.418.631.631 3.511-1.735 4.168-3.424.321-.825.619-.064.662 1.691.043 1.755-.371 3.469-.921 3.809-.55.34-1 1.068-1 1.618s.401.752.89.45c.49-.303 1.188 1.033 1.551 2.969.389 2.071 1.089 3.253 1.704 2.874.574-.355.853-1.639.621-2.853-.373-1.955-.173-2.09 1.755-1.18 1.841.869 2.064 1.528 1.445 4.275-.746 3.306-.419 4.347 1.367 4.347.55 0 .704-.296.342-.658-.72-.72 1.108-3.342 2.331-3.342.418 0 1.003.928 1.3 2.062.343 1.311 1.204 1.948 2.366 1.75 1.385-.236 1.804.294 1.731 2.188-.054 1.375-.425 3.4-.826 4.5l-.728 2 1.261-2c2.926-4.643 5.373-5.901 3.89-2-.523 1.375-.682 2.5-.353 2.5.329 0-.02.759-.775 1.687-1.201 1.478-1.154 1.606.378 1.032 1.336-.501 1.754-.131 1.765 1.562.011 1.616.248 1.852.87.871 1.367-2.158 4.653-.927 4.377 1.639-.131 1.215.206 2.209.75 2.209a.982.982 0 0 0 .988-.969c0-.532.688-.704 1.53-.381.845.324 1.311 1.317 1.04 2.218-.726 2.424 1.818 5.283 4.053 4.555 1.266-.412 1.471-.318.629.291-1.44 1.041.824 4.428 6.934 10.372 3.544 3.447 3.81 3.535 6.865 2.25 4.086-1.717 3.949-1.757 3.949 1.153 0 3.177 2.608 6.276 6.764 8.037 1.795.761 3.535 2.192 3.867 3.179 1.651 4.919 2.975 7.307 4.113 7.42.691.069 1.722.181 2.292.25.571.069 1.464.8 1.985 1.625.522.825.956 1.05.965.5.009-.55 1.15.318 2.536 1.929 1.935 2.251 2.793 2.656 3.699 1.75 1.707-1.707 4.109-1.482 3.417.321-.369.962.02 1.5 1.085 1.5 1.545 0 1.545.086-.001 1.25-1.545 1.163-1.541 1.407.06 3.496l1.72 2.245 2.905-2.495c4.058-3.488 5.569-3.124 2.093.504l-2.874 3h2.809c2.384 0 2.621.227 1.565 1.5-.773.931-.845 1.5-.191 1.5.58 0 2.016-1.35 3.191-3 1.175-1.65 2.785-3 3.578-3 .793 0 2.212-.9 3.154-2 2.021-2.36 4.268-2.623 4.268-.5 0 .825-.337 1.447-.75 1.382-2.353-.372-3.107.442-3.027 3.267.057 1.987-.592 3.648-1.758 4.5-1.016.743-1.343 1.351-.728 1.351.616 0 1.795-.675 2.62-1.5 2.354-2.354 4.643-1.861 4.643 1 0 1.375.482 2.5 1.071 2.5.59 0 1.767.695 2.616 1.544 1.392 1.392 1.365 1.741-.266 3.543-1.613 1.782-1.625 1.929-.115 1.349 1.99-.763 2.224.578.444 2.547-.743.823-.124.684 1.528-.341 1.528-.949 3.264-1.425 3.857-1.059.73.451.64.945-.278 1.527-.999.632-1.027.863-.107.875.688.008 1.25.465 1.25 1.015 0 .55-.646 1-1.435 1s-2.702.525-4.25 1.166c-1.548.642-3.228 1.204-3.732 1.25-1.029.094-2.106 2.584-1.117 2.584.348 0 1.926-.668 3.505-1.485 1.902-.984 2.993-1.122 3.23-.411.421 1.262 8.455-2.774 11.887-5.971 1.259-1.173 2.638-2.133 3.065-2.133.426 0 1.9-1.655 3.274-3.678 2.06-3.032 2.615-3.377 3.157-1.963.654 1.703-1.986 5.641-3.781 5.641-1.078 0-3.209 1.7-6.122 4.883a248.995 248.995 0 0 1-3.431 3.679c-1.813 1.878-1.559 2.22 1.25 1.683 2.7-.516 3.246.609 1.258 2.597-.988.988-.967 1.411.107 2.075.846.522 1.097 1.626.675 2.958-.78 2.456.641 2.817 2.46.625 1.572-1.894 4.117-1.969 3.4-.101-.834 2.175 1.307 2.843 2.782.868.725-.972 2.446-2.347 3.826-3.056 1.379-.709 3.625-2.959 4.991-5 1.366-2.041 2.863-3.986 3.327-4.323.465-.336.851-1.011.859-1.5.008-.488.42-.776.915-.638.495.137.903-.313.907-1 .004-.688 3.266-4.643 7.25-8.789 3.984-4.147 9.043-9.729 11.243-12.405 2.2-2.675 5.913-6.697 8.25-8.936 2.338-2.238 4.25-4.655 4.25-5.37 0-.715 1.125-1.727 2.5-2.25 1.375-.523 2.5-1.663 2.5-2.534 0-.871.389-1.344.864-1.05 1.446.894 14.569-12.649 13.395-13.824-.326-.326.172-.592 1.106-.592.934 0 1.986-.788 2.339-1.75.352-.962 2.588-3.722 4.968-6.132 2.38-2.409 4.328-4.675 4.328-5.034 0-.36 3.543-4.333 7.873-8.829 4.331-4.496 7.645-8.404 7.365-8.684-.28-.279.464-.321 1.653-.092 1.19.229 1.912.011 1.606-.484-.306-.495.695-1.578 2.223-2.407 1.529-.83 2.347-1.526 1.818-1.548-1.394-.058 8.653-10.04 10.105-10.04 1.52 0 26.29-24.415 28.914-28.5 2.668-4.153 2.914-4.485 6.671-9 1.83-2.2 5.116-6.244 7.3-8.987 2.185-2.743 8.086-9.043 13.113-14 5.028-4.957 15.861-15.65 24.073-23.763 8.212-8.113 15.265-14.75 15.673-14.75.408 0 1.879-1.351 3.269-3.003 1.389-1.651 2.935-2.75 3.435-2.441.5.309.909-.14.909-.997s.563-1.576 1.25-1.598c.688-.021 2.15-1.453 3.25-3.182 1.74-2.736 4.799-5.174 9.25-7.375.688-.34 1.261-1.132 1.274-1.761.013-.629 1.813-2.467 4-4.085 2.187-1.618 3.976-3.281 3.976-3.696 0-.414 3.533-4.335 7.852-8.712 4.319-4.377 8.819-9.187 10-10.689 1.181-1.502 2.148-2.442 2.148-2.09 0 .72 5.346-4.66 15-15.097 8.128-8.786 10-11.066 10-12.178 0-.485.704-1.152 1.563-1.482.86-.33 1.284-1.053.941-1.607-.342-.554 0-1.007.76-1.007 1.438 0 16.413-15.593 18.224-18.977.57-1.065 4.052-5.218 7.739-9.229 3.686-4.012 7.956-8.789 9.488-10.617 1.532-1.828 3.629-4.164 4.66-5.191 1.031-1.027 1.875-3.07 1.875-4.541 0-3.176-2.325-5.063-3.547-2.879-.454.812-1.226 1.229-1.714.927-.489-.302-1.377.364-1.974 1.479-.597 1.115-1.52 2.028-2.05 2.028-1.251 0-1.258-3.701-.009-4.473.526-.325.675-1.325.33-2.223-.467-1.217-.265-1.415.794-.776 1.219.735 1.222.612.027-.861-1.308-1.611-1.509-1.613-3.257-.032-2.634 2.384-3.563.842-1.547-2.57 3.853-6.523 1.367-13.477-7.647-21.391-3.555-3.121-6.751-5.674-7.102-5.674-1.531 0-12.701-9.052-20.002-16.209-4.372-4.285-8.358-7.791-8.859-7.791-.5 0-2.774-1.953-5.051-4.34-4.553-4.771-19.767-18.996-23.701-22.16-7.838-6.304-14.941-12.833-14.941-13.734 0-.57-1.097-2.054-2.438-3.296-1.341-1.243-2.21-2.489-1.93-2.768.279-.28-2.476-3.568-6.124-7.306-3.648-3.739-7.326-7.973-8.175-9.409-.848-1.436-2.786-3.448-4.307-4.469-1.52-1.022-3.829-3.582-5.131-5.688-1.302-2.107-2.752-3.83-3.221-3.83-.47 0-3.139-2.362-5.931-5.25-2.792-2.888-5.458-5.135-5.925-4.995-.949.285-9.956-8.626-13.818-13.671-4.821-6.297-7.574-8.691-13-11.301-1.375-.662-3.573-2.009-4.885-2.993-2.583-1.938-2.419-1.925-9.315-.762m-48.646 32.125c-1.695 1.735-2.824 3.572-2.508 4.083.316.512 1.418-.457 2.45-2.153 1.031-1.696 2.358-3.083 2.948-3.083.591 0 .799.445.463.989-.345.557.038.739.878.417 1.46-.561 1.148-3.406-.373-3.406-.426 0-2.162 1.419-3.858 3.153m-5.904 5.509c-2.047.826-1.417 2.194.75 1.628 1.1-.288 2-.921 2-1.407 0-.953-.78-1.016-2.75-.221M419 198.833c0 .642-.605 1.167-1.345 1.167-1.597 0-5.224 3.764-4.411 4.577.311.311 2.07-.779 3.91-2.423 1.839-1.644 3.007-3.326 2.595-3.738-.412-.412-.749-.224-.749.417m416.468 129.219c-.369.596-1.3.843-2.069.548-.77-.296-1.399-.101-1.399.431 0 .533-.914.969-2.031.969-1.118 0-2.29.672-2.605 1.494-.316.822-1.053 1.198-1.639.836-.668-.413-.827-.038-.426 1.006.351.915.202 1.664-.33 1.664-.533 0-.969-.702-.969-1.559s-.43-1.293-.956-.968c-.526.325-.765 1.139-.53 1.809.611 1.745-2.168 4.642-8.764 9.134-3.163 2.154-5.75 4.229-5.75 4.611 0 .382-2.587 2.139-5.75 3.904-9.183 5.125-13.097 7.575-15.655 9.799-1.315 1.144-3.899 2.797-5.743 3.673-5.638 2.681-24.481 20.492-41.478 39.207-9.802 10.793-15.704 16.73-23.444 23.584-10.365 9.178-16.93 15.686-16.93 16.784 0 .562-.515 1.022-1.144 1.022-1.9 0-47.454 47.018-53.562 55.284-1.213 1.642-3.013 3.792-4 4.777-.987.986-3.04 3.288-4.562 5.116a940.004 940.004 0 0 1-6.619 7.823c-2.119 2.475-4.131 5.4-4.472 6.5-.34 1.1-1.749 3.218-3.13 4.706-1.381 1.489-2.511 3.03-2.511 3.425s-3.038 3.92-6.75 7.834c-8.926 9.41-10.442 11.415-9.626 12.736.38.614.234.829-.326.483-1.286-.795-6.653 5.837-8.712 10.765-1.635 3.912-1.304 6.106.733 4.863 1.961-1.196-7.465 9.804-12.819 14.96-3.227 3.108-5.627 4.654-6.768 4.361-2.142-.551-5.046 2.105-4.333 3.964.282.736.014 1.648-.597 2.025-.72.445-.826.226-.302-.622s.418-1.067-.302-.622c-.611.377-.88 1.287-.598 2.021.613 1.599-4.95 7.403-8.324 8.686-1.318.501-2.118 1.362-1.777 1.913.34.551-.027 1.002-.818 1.002-.79 0-1.996.675-2.681 1.5-.752.906-.833 1.5-.206 1.5.572 0 1.266-.562 1.544-1.25.395-.979.521-.972.583.032.043.705-.934 1.689-2.171 2.187-1.237.497-1.905.933-1.482.968.422.034-1.378 2.132-4 4.66-2.623 2.529-4.661 4.988-4.53 5.464.131.477-.51.58-1.424.229-1.24-.476-1.503-.226-1.039.985.46 1.198.2 1.461-.99 1.004-1.079-.414-1.372-.229-.886.558.427.69-.022 1.463-1.086 1.87-.997.38-2.669 1.487-3.714 2.458-1.046.971-2.196 1.584-2.555 1.362-.36-.222-3.929 3.177-7.933 7.555-7.087 7.747-7.262 8.064-6.607 11.942.37 2.192.992 3.787 1.382 3.546 1.699-1.05 3.508 1.527 3.413 4.863-.105 3.708.522 4.346 2.414 2.454 1.83-1.83 3.545.073 2.913 3.234-.32 1.597-.142 2.879.399 2.879.536 0 .982-.788.99-1.75.013-1.452.172-1.502.934-.298.506.799.716 1.78.469 2.181-.248.401.007 1.011.566 1.357.559.345 1.016-.074 1.016-.931 0-.857.675-1.559 1.5-1.559s1.5.45 1.5 1 .574 1 1.275 1 3.114 1.913 5.362 4.25c2.248 2.337 5.387 5.411 6.975 6.83 1.588 1.418 3.936 3.987 5.217 5.707 1.281 1.721 3.17 3.395 4.199 3.722 1.028.326 2.144 1.458 2.48 2.516.336 1.057 1.821 2.516 3.301 3.241 1.493.732 2.629 2.079 2.552 3.027-.156 1.922 1.165 2.282 2.205.601.419-.68 2.514.864 5.427 4 2.609 2.808 5.205 5.106 5.769 5.106.563 0 1.28.667 1.593 1.483.313.816 1.169 1.253 1.902.972.739-.284 3.965 2.059 7.251 5.267 3.255 3.178 6.498 5.646 7.205 5.484.725-.165 1.287.599 1.287 1.75 0 1.185.656 2.044 1.559 2.044.857 0 1.281-.45.941-1-.34-.55-.196-1 .32-1 .908 0 2.352 3.049 3.703 7.822.451 1.592 1.155 2.132 2.237 1.716 1.809-.693 3.202 1.031 3.225 3.99.021 2.799 3.431 5.656 4.945 4.142.847-.847 1.284-.569 1.719 1.097.619 2.367 1.827 2.889 2.851 1.233 1.408-2.278 2.728-.89 2.107 2.216-.603 3.012-.549 3.091.843 1.25.987-1.305 1.497-1.504 1.518-.594.025 1.088.334 1.122 1.488.164 2.081-1.727 3.808-.399 2.547 1.959-1.563 2.919-1.189 3.483.997 1.505 1.946-1.761 2-1.747 2 .536 0 2.278.043 2.29 1.468.405.898-1.187 1.529-1.456 1.625-.691.086.688.269 1.7.407 2.25.138.55.306 1.422.375 1.938s.913.96 1.875.987c3.74.104 5.25.438 5.25 1.158 0 .413-.515.922-1.143 1.131-.849.283-.835.958.054 2.619 1.195 2.234 3.615 2.355 10.327.516 1.462-.4 1.64.01 1.125 2.588-.567 2.832-.396 3.072 2.262 3.181l2.875.119-2.605.631c-1.74.422-2.517 1.213-2.339 2.382.147.962-.091 1.75-.528 1.75-.437 0-1.03.9-1.318 2-.287 1.1-.115 2 .384 2 .498 0 .906-.482.906-1.071 0-1.186 2.469-3.929 3.536-3.929.373 0 .398.729.056 1.621-.473 1.234-.157 1.498 1.329 1.11 1.168-.306 2.176.079 2.514.961.858 2.236.699 2.573-.92 1.952-.864-.331-1.909.224-2.5 1.327-1.486 2.777-1.243 3.459.677 1.901 1.15-.932 1.451-.971.941-.122-.473.787-.173 1.25.808 1.25.857 0 1.559-.644 1.559-1.432 0-.787 1.307-2.362 2.904-3.5C668.15 772.757 669 772.535 669 774c0 .55-.567 1-1.259 1-.693 0-1.82.898-2.506 1.995-1.06 1.698-.921 2.319.933 4.173 1.586 1.586 2.004 1.723 1.537.506-.741-1.933-.3-2.063 2.291-.676 1.359.727 2.259.604 3.316-.452.797-.798 1.672-1.228 1.945-.956.272.272 1.72-.962 3.218-2.742l2.723-3.237 1.879 2.445c2.114 2.751 2.394 3.944.923 3.944-.55 0-1-.675-1-1.5 0-2.383-1.315-1.785-5.5 2.5-3.461 3.544-3.661 4-1.76 4 1.181 0 2.756-.87 3.5-1.932 2.639-3.768 4.26-2.958 4.26 2.128 0 2.964-.351 4.348-.95 3.75-1.709-1.702-2.596-.992-1.318 1.054 1.491 2.387 2.365 2.459 6.122.499 1.57-.819 3.257-1.239 3.75-.935.493.305.896-.196.896-1.112 0-1.108.529-1.463 1.582-1.059.87.334 2.021.607 2.559.607.537 0 .733.395.434.878-.298.483.8 1.147 2.441 1.475 1.686.337 2.984 1.236 2.984 2.065 0 .808.949 2.133 2.108 2.945 1.234.865 1.803 1.972 1.372 2.669-.405.655-.12 1.573.634 2.038 1.09.674 1.116 1.1.128 2.088-.683.683-1.232 1.715-1.22 2.292.012.578.87-.053 1.906-1.401 1.528-1.988 2.158-2.222 3.341-1.24 1.866 1.548 1.994 9.191.154 9.191-2.469 0-2.602 2.11-.265 4.191l2.342 2.086-2.657-.634c-1.462-.349-3.448-.938-4.414-1.309-1.2-.46-1.528-.303-1.034.496.398.644 1.596 1.17 2.664 1.17s1.941.675 1.941 1.5c0 1.786.088 1.797 3.651.443 2.283-.868 2.518-1.244 1.315-2.095-1.188-.84-1.121-.925.356-.446 2.195.712 5.801-1.033 5.591-2.704-.321-2.562.162-3.484 2.086-3.987 2.494-.653 3.57.899 1.965 2.833-1.007 1.213-.762 1.456 1.468 1.456 2.859 0 11.661-3.619 12.68-5.213.336-.527.904-.91 1.26-.852 1.527.249 6.628-3.104 6.628-4.357 0-2.266 6.929-7.735 8.976-7.085 1.304.413 1.772.085 1.669-1.171-.089-1.073 1.152-2.369 3.22-3.363 1.85-.89 3.785-2.37 4.299-3.288.515-.919 1.826-1.671 2.916-1.671 1.911 0 1.901.112-.3 3.223-1.254 1.773-2.842 3.83-3.53 4.571-1.629 1.758-1.582 2.271.149 1.606.769-.295 1.739.014 2.154.686.484.782.34.966-.398.509-.635-.392-1.155-.21-1.155.405s-.45.84-1 .5c-.55-.34-1-.086-1 .563 0 .86-.426.828-1.563-.115-1.376-1.143-1.476-.948-.834 1.627.663 2.661.577 2.8-.96 1.534-1.491-1.229-1.607-1.18-.992.423.543 1.416.328 1.674-.977 1.173-.921-.353-1.674-.206-1.674.326 0 .533.563.983 1.25.999.688.017.35.541-.75 1.165s-2.319 1.619-2.708 2.211c-.494.751-1.084.702-1.95-.164-1.486-1.486-4.842-1.654-4.842-.242 0 .55.675 1 1.5 1 2.415 0 1.722 1.985-.75 2.148-1.237.081-2.925.24-3.75.352-.825.112-2.062.271-2.75.352-.687.081-1.25.607-1.25 1.167 0 .603 1.082.748 2.649.354 3.822-.959 2.291.724-3.3 3.627-8.097 4.205-9.142 5.948-2.409 4.017 4.088-1.172 5.146-.55 2.487 1.462-1.836 1.389-1.795 1.459.882 1.489 1.624.019 2.548-.39 2.191-.968-.34-.55-.081-1 .576-1 1.142 0 5.924-4.539 5.924-5.623 0-.94 2.835-3.377 3.929-3.377.589 0 1.071-.51 1.071-1.134 0-1.281 5.013-5.863 6.417-5.865.504 0 .643-.274.309-.608-.334-.334 6.229-7.444 14.584-15.801 8.354-8.356 16.869-17.645 18.922-20.643 2.053-2.997 6.665-8.733 10.25-12.746s6.518-7.762 6.518-8.331c0-1.198 17.395-21.486 20.746-24.195 1.24-1.002 2.254-2.449 2.254-3.216 0-.766 3.712-5.171 8.25-9.788s9.19-9.47 10.338-10.784c1.148-1.314 3.173-3.342 4.5-4.506 3.129-2.746 8.473-9.677 8.171-10.597-.129-.393.406-.468 1.19-.167.918.352 3.138-1.689 6.238-5.734 2.647-3.454 6.311-7.878 8.142-9.832 4.914-5.246 7.204-8.676 6.391-9.575-.396-.438.045-.523.979-.188 1.169.418 1.536.184 1.178-.751-.297-.772.316-1.624 1.421-1.975 2.227-.707 10.764-9.647 10.397-10.888-.135-.454.157-.577.648-.273.49.303 3.089-1.718 5.774-4.491 2.686-2.772 6.559-6.748 8.608-8.834 2.05-2.087 3.4-4.154 3-4.595-.399-.441-.005-.545.875-.231.897.32 2.747-.416 4.214-1.677 2.054-1.765 2.354-2.509 1.4-3.47-.954-.961-.892-1.109.286-.689 1.635.582 8-4.644 8-6.569 0-.649.292-.889.648-.532.357.357 1.425-.246 2.373-1.339 1.517-1.749 1.874-1.807 2.974-.482.861 1.038.901 1.506.127 1.506-.617 0-1.122.49-1.122 1.088 0 1.16 15.092-14.059 17.68-17.829.846-1.233 1.855-2.046 2.243-1.807.387.239 1.912-1.43 3.39-3.709 1.478-2.279 2.687-3.787 2.687-3.351 0 .839 4.089-3.388 15.5-16.023 3.85-4.262 8.688-9.517 10.75-11.677 2.063-2.16 3.75-4.119 3.75-4.353 0-.235 1.125-1.64 2.5-3.122 1.375-1.483 2.5-3.388 2.5-4.234 0-.845 1.237-2.918 2.75-4.606 6.491-7.245 15.228-18.716 15.283-20.067.057-1.375 3.721-5.31 4.945-5.31.702 0 .907.787.522 2-.356 1.121-.18 2 .4 2 1.255 0 9.1-10.209 9.1-11.841 0-.637.45-1.159 1-1.159 1.611 0 1.15-2.43-.764-4.028-.97-.809-3.442-2.597-5.493-3.972s-3.736-2.95-3.744-3.5c-.008-.55-2.036-2.785-4.506-4.967-2.721-2.404-4.307-4.57-4.025-5.5.641-2.112-5.938-10.846-9.698-12.872-4.44-2.394-12.77-10.664-12.77-12.678 0-1.291-.619-1.598-2.5-1.238-2.943.562-3.453-1.59-.75-3.165 1.667-.971 1.667-1.021 0-1.05-.962-.016-1.75.358-1.75.831 0 1.18-5.329.105-6.208-1.252-.39-.601-.437-2.176-.105-3.5.473-1.883.301-2.224-.791-1.566-1.187.715-1.191.588-.024-.851 1.183-1.458 1.149-1.692-.25-1.692-.892 0-1.622.48-1.622 1.066 0 .587-1.237.924-2.75.75-2.469-.284-2.726-.674-2.52-3.816.184-2.8.048-3.1-.68-1.5-.5 1.1-.941 1.452-.98.781-.041-.717-.754-.956-1.734-.58-1.119.43-1.427.256-.941-.531.434-.702.1-1.17-.836-1.17-.857 0-1.566-.562-1.574-1.25-.009-.687-.398-1.854-.866-2.592-.712-1.123-1.221-1.123-3.116 0-1.786 1.058-2.36 1.078-2.717.092-.249-.687-1.26-1.25-2.247-1.25-.987 0-2.354-.675-3.039-1.5s-1.752-1.496-2.372-1.491c-.621.005-2.312-1.432-3.759-3.193-2.156-2.622-3.389-3.22-6.816-3.306-2.302-.058-4.493-.584-4.869-1.168-.376-.585-2.107-1.792-3.846-2.682-3.82-1.957-3.565-5.094.506-6.235 2.138-.6 2.297-.829.817-1.176-1.012-.236-2.891.558-4.176 1.765-3.121 2.932-5.184 1.702-2.927-1.743 1.656-2.527 1.649-2.54-.945-1.889-3.524.885-3.3-.637.637-4.327 1.788-1.675 2.72-3.048 2.071-3.05-.648-.003-1.773.564-2.5 1.259-1.674 1.601-7.821 2.249-7.821.824 0-.585-1.844-2.227-4.097-3.649-3.055-1.929-3.969-3.077-3.594-4.513.54-2.066-.315-2.517-1.859-.981-.598.595-2.271-.512-4.515-2.985-2.19-2.416-3.207-4.288-2.637-4.858 1.259-1.259-.171-3.365-1.848-2.721-.741.284-1.601-.281-1.911-1.257-.42-1.326-1.321-1.663-3.564-1.334-2.38.35-2.88.125-2.416-1.084.365-.951-.116-1.748-1.275-2.116-2.01-.638-9.284-8.836-9.284-10.463 0-.546-.9-1.278-2-1.627s-2-1.024-2-1.5-.938-1.163-2.085-1.527c-1.147-.364-2.541-1.969-3.098-3.567-.557-1.598-1.382-2.906-1.833-2.906-.452 0-1.794-1.575-2.984-3.5s-2.746-3.5-3.459-3.5c-.713 0-1.856-.675-2.541-1.5-.685-.825-1.883-1.5-2.663-1.5-.78 0-2.79-1.012-4.466-2.25-2.135-1.576-4.446-2.25-7.71-2.25-4.095 0-4.7-.278-4.986-2.288-.178-1.259-1.191-2.829-2.25-3.491-2.02-1.261-2.564-2.721-1.015-2.721 1.482 0 9.09-5.273 9.09-6.3 0-.52-.686-.376-1.524.32s-1.81.98-2.158.631c-.349-.348-1.238-.132-1.976.48-2.709 2.249-1.406-2.99 1.408-5.658l2.75-2.607-3.514.272c-1.933.149-4.04-.053-4.681-.45-.642-.396-1.468-.233-1.837.364m-563.766 32.524c-2.482 2.301-3.252 3.424-2.348 3.424.765 0 5.844-5.136 5.459-5.52-.225-.225-1.625.718-3.111 2.096m-36.124 4.969c-.371 1.48-.428 2.938-.127 3.24.302.301.549-.164.549-1.035 0-.871.563-1.79 1.25-2.042.928-.34.961-.766.127-1.656-.855-.912-1.285-.554-1.799 1.493m5.068 5.907c-1.455 1.349-2.646 3.219-2.646 4.155 0 1.575.149 1.568 1.976-.086 1.087-.983 1.736-2.178 1.441-2.655-.294-.476-.107-.866.417-.866s1.211-.675 1.528-1.5c.786-2.048.361-1.899-2.716.952m11.354-.393c0 .582-.562.735-1.25.34-.687-.396-.911-.346-.496.111.414.457.066 1.879-.774 3.16-.839 1.282-1.259 2.33-.932 2.33 1 0 3.452-2.791 3.452-3.929 0-.589.45-1.071 1-1.071s1-.45 1-1-.45-1-1-1-1 .477-1 1.059m10.235-.351c-1.245.239-2.033.811-1.749 1.27.645 1.043 4.514.105 4.514-1.095 0-.485-.113-.822-.25-.747-.137.075-1.269.332-2.515.572m-20.088 13.96c-.744.807-1.981 1.226-2.75.931-1.649-.633-1.892.977-.296 1.963 1.08.668 5.715-3.096 4.843-3.933-.244-.235-1.053.233-1.797 1.039M260.2 395.2c-1.792 1.792-1.452 2.679.8 2.09 1.1-.288 2-1.146 2-1.907 0-1.702-1.203-1.78-2.8-.183m8.771 12.893a69.483 69.483 0 0 1-3.221 4.153c-.962 1.133-1.75 2.499-1.75 3.036 0 1.099 7.895-7.364 7.959-8.532.079-1.452-1.534-.727-2.988 1.343M445.75 530.484c-1.512 1.331-2.75 2.632-2.75 2.891 0 .259-1.238 1.756-2.75 3.326-2.875 2.986-9.766 10.724-12.122 13.615-.755.926-.97 1.684-.477 1.684 2.284 0 19.242-18.262 20.663-22.25.782-2.197.757-2.189-2.564.734m-15.257 9.627c-2.746 3.361-6.735 7.808-8.865 9.883-2.13 2.075-3.677 4.36-3.438 5.077.319.955.908.786 2.203-.633.972-1.066 4.91-5.313 8.751-9.438 7.837-8.415 9.631-11 7.634-11-.711 0-3.539 2.75-6.285 6.111m-33.621 10.576c-1.208 1.485-1.153 1.605.46 1 1.007-.378 2.271-.687 2.809-.687.537 0 .699-.45.359-1-.898-1.453-2.067-1.231-3.628.687m-.181 26.004c-.307.497-.146 1.558.36 2.357.505.798.932 1.002.949.452.017-.55.455-.329.974.492.713 1.127 1.225 1.209 2.097.337 1.35-1.35.282-3.665-1.252-2.717-.573.354-1.386.089-1.806-.591-.42-.679-1.015-.827-1.322-.33m5.768 7.376c-.363.586-.419 1.306-.126 1.6.717.716 2.667-.546 2.667-1.726 0-1.278-1.726-1.193-2.541.126m255.968 159.698c-.59.404-1.387 1.584-1.771 2.621-.645 1.743-.53 1.774 1.519.414 2.305-1.53 3.606-3.811 2.158-3.785-.458.009-1.316.346-1.906.75m-.121 13.743-2.806 2.508 2.825-1.012c1.554-.556 3.499-1.685 4.322-2.508 2.711-2.711-1.195-1.8-4.341 1.012m37.39 3.188c-3.117 3.116-5.447 5.886-5.178 6.155.268.269 3.049-2.051 6.178-5.155 3.129-3.105 5.459-5.875 5.178-6.156-.282-.281-3.062 2.039-6.178 5.156M685 782.5c0 1.689.458 2.514 1.25 2.25.688-.229 1.25-1.242 1.25-2.25s-.562-2.021-1.25-2.25c-.792-.264-1.25.561-1.25 2.25m69.149-.896c-2.137 2.417-.523 2.823 1.973.497 1.533-1.428 1.794-2.089.817-2.063-.792.021-2.047.726-2.79 1.566M716 810.417c0 .871.712 1.583 1.583 1.583 1.766 0 1.459-2.153-.395-2.771-.654-.218-1.188.317-1.188 1.188M710 813c0 .55 1.237.968 2.75.93 2.437-.063 2.522-.168.75-.93-2.731-1.174-3.5-1.174-3.5 0m25.427 1.479c-1.692 1.28-1.721 1.461-.236 1.489.93.018 1.988-.448 2.35-1.035 1.089-1.762-.059-2.009-2.114-.454m-33.998 4.647c0 1.044.438 1.752.973 1.573 1.57-.523 1.796-2.409.355-2.962-.817-.314-1.328.221-1.328 1.389M718 822.5c0 .825.45 1.5 1 1.5s1 .863 1 1.918c0 3.987 1.024 5.025 4.34 4.398 3.39-.641 5.66-2.02 5.66-3.438 0-1.692-3.573-.857-5.385 1.258-1.439 1.681-2.005 1.851-2.656.798-1.061-1.718-.177-3.182 1.36-2.252.65.393-.168-.725-1.816-2.484-3.445-3.677-3.503-3.705-3.503-1.698" fill-rule="evenodd"/></svg>