<svg xmlns="http://www.w3.org/2000/svg" width="595" height="842"><path d="M248 258.907c0 .441-6.159 1.122-13.686 1.512-14.042.728-18.151 1.751-22.052 5.491-2.765 2.65-2.427.81-6.432 35.09-3.049 26.096-3.318 30.755-3.182 55.238l.148 26.738 2.661 4.541c5.175 8.831 18.292 14.845 39.543 18.13 14.318 2.213 56.364 2.517 71 .513 33.421-4.576 53.538-14.904 60.981-31.308 1.086-2.394 1.985-5.309 1.997-6.48.012-1.17.697-2.687 1.522-3.372.825-.685 1.5-2.075 1.5-3.089 0-1.014.788-3.506 1.75-5.538 1.275-2.692 1.425-3.806.554-4.1-.841-.284-.581-1.499.871-4.085 1.956-3.482 2.007-4.279.946-14.743-.616-6.084-1.122-13.511-1.124-16.504-.002-2.992-.704-9.448-1.561-14.345-1.021-5.839-1.211-9.117-.552-9.524 1.308-.808.781-4.35-.721-4.851-1.742-.581-1.401-2.983.587-4.141 1.573-.916 1.528-1.022-.441-1.05-1.205-.016-2.469.42-2.809.97-.34.55-2.054.993-3.809.985-2.395-.012-2.818-.251-1.696-.961 1.283-.811 1.212-1.159-.5-2.453-1.968-1.487-1.965-1.508.269-1.539 1.245-.018 3.12.503 4.168 1.157 1.416.885 2.502.906 4.236.083 2.298-1.091 2.284-1.117-.934-1.818-2.995-.651-3.119-.824-1.5-2.083 1.676-1.302 1.662-1.461-.268-3.122-1.118-.962-2.635-3.211-3.371-4.999-.736-1.788-1.733-3.25-2.216-3.25-1.919 0-2.493-.216-5.497-2.073-1.715-1.06-4.49-1.927-6.167-1.927-1.676 0-3.277-.562-3.556-1.25-.381-.941-.769-.879-1.568.25-.933 1.32-1.498.795-1.242-1.152.338-2.575-50.303-1.882-55.392.759-1.737.901-5.999 1.393-12.071 1.393-7.856 0-9.386-.256-9.386-1.567 0-1.036-.594-1.381-1.75-1.017-7.417 2.333-23.25 3.478-23.25 1.682 0-.496-1.35-1.373-3-1.948s-3-.685-3-.243m101.264 4.811c1.52.229 3.77.223 5-.014 1.23-.237-.014-.425-2.764-.418-2.75.008-3.756.202-2.236.432M247.727 508.606c-.213.214-5.077.622-10.808.908-13.218.659-16.447 1.204-21.056 3.556-4.763 2.43-6.863 5.459-6.865 9.903-.001 1.94-1.447 15.002-3.214 29.027-2.968 23.55-3.205 27.619-3.112 53.219l.102 27.719 2.636 4.499c6.775 11.56 25.238 17.72 58.536 19.532 19.349 1.052 47.303-.083 61.137-2.483 19.26-3.342 33.777-9.403 42.674-17.818 6.278-5.937 9.788-11.497 10.822-17.143.4-2.186 1.334-4.581 2.074-5.321.741-.741 1.347-2.034 1.347-2.874 0-.84.728-3.061 1.617-4.935 1.299-2.738 1.373-3.702.378-4.902-.682-.821-.845-1.493-.362-1.493.484 0 1.505-1.415 2.27-3.144 1.149-2.595 1.191-4.994.243-13.75-.632-5.833-1.148-13.135-1.147-16.225 0-3.09-.689-9.578-1.533-14.416-1.056-6.058-1.212-9.119-.5-9.831 1.548-1.548 1.25-3.746-.716-5.274-1.657-1.288-1.647-1.44.191-2.86 1.904-1.471 1.9-1.5-.191-1.5-1.173 0-2.41.45-2.75 1-.34.55-2.031 1-3.759 1-2.391 0-2.863-.278-1.976-1.165s.756-1.477-.55-2.468c-1.552-1.18-1.473-1.306.835-1.335 1.402-.018 3.057.475 3.677 1.095.657.657 2.249.845 3.818.451 3.412-.856 2.686-1.556-3.279-3.161l-4.766-1.282 3.75-.068c4.124-.074 5.287-2.445 1.75-3.567-1.1-.349-2-1.404-2-2.345 0-2.433-2.982-6.376-4.408-5.829-.66.254-2.959-.601-5.109-1.898-2.489-1.502-4.74-2.151-6.196-1.785-1.751.439-2.287.15-2.287-1.235 0-1.406-.267-1.541-1.2-.608-1.435 1.435-3.169 1.607-2.318.229 1.206-1.951-5.325-2.315-29.299-1.631-18.901.539-24.955 1.03-26.555 2.15-2.969 2.08-19.196 2.047-20.364-.041-.739-1.321-1.635-1.323-7.8-.017-8.714 1.846-14.444 1.902-16.991.165-2.147-1.463-6.124-2.671-6.746-2.049M349.5 513c-2.506.638-2.095.78 2.5.866 3.887.073 5.06-.181 4-.866-1.679-1.085-2.235-1.085-6.5 0" fill-rule="evenodd"/></svg>