<svg xmlns="http://www.w3.org/2000/svg" width="1240" height="1753"><path d="M212.75 35.664c-.963.265-1.75.9-1.75 1.409 0 .51-.675.927-1.5.927s-1.5.436-1.5.969c0 .532-.567.751-1.26.485-.692-.266-3.392-.085-6 .402-2.68.501-4.74.507-4.74.015 0-.479-.675-.871-1.5-.871s-1.5.39-1.5.866-1.912.515-4.25.087c-2.338-.428-4.7-.429-5.25-.002-.55.427-1.675.802-2.5.834-10.847.42-21.409 1.766-22.514 2.871-1.764 1.765-3.135 1.701-3.857-.18-.382-.996-1.451-1.366-3.09-1.069-3.592.652-4.413 1.36-3.89 3.36.429 1.639-1.027 1.786-20.27 2.049-11.403.157-20.998.448-21.322.648-.323.201-4.115.855-8.426 1.454-8.461 1.177-12.698 3.079-14.187 6.369-1.272 2.809-3.444 3.378-3.444.902 0-1.853-.265-1.9-4.198-.738-2.309.681-4.372 1.759-4.584 2.394-.211.635-.982 1.155-1.713 1.155-.73 0-1.177.788-.993 1.75.184.962.369 2.087.411 2.5.109 1.064 4.845.934 5.516-.152.307-.495 1.958-1.389 3.671-1.986 2.712-.946 2.954-.894 1.879.401C79.009 63.694 79.012 64 80 64c.941 0 .967.334.106 1.372-1.146 1.381-8.213 2.829-13.401 2.746-1.56-.025-3.043.6-3.355 1.413-.308.802-.884 1.257-1.28 1.012-.981-.606-9.568 7.497-10.42 9.834-.377 1.032-.163 2.505.475 3.274.638.768.867 1.691.508 2.049-.358.358.196 1.585 1.231 2.726 3.378 3.723 4.032 7.636 1.885 11.275-1.049 1.778-1.62 3.698-1.269 4.266.351.568.204 1.033-.326 1.033-1.282 0-6.244 8.549-7.211 12.425a93.463 93.463 0 0 1-1.783 6.075c-2.938 8.677-5.443 20.944-7.759 38-2.923 21.524-2.804 30.832.597 46.5 5.04 23.224 5.236 25.011 5.433 49.5.106 13.2.732 29.85 1.39 37 .659 7.15 1.447 18.625 1.751 25.5.304 6.875.93 16.034 1.391 20.353.485 4.545.455 9.18-.071 11-.585 2.023-.51 4.945.21 8.18.801 3.602.823 7.015.079 12-1.296 8.676-.639 135.772.806 155.967 2.154 30.107 2.91 61.693 2.407 100.5-.288 22.275-.514 41.625-.502 43 .067 7.562 2.229 33.549 3.328 40 3.5 20.561.164 161.432-5.199 219.5-1.198 12.971-1.215 43.552-.033 59.705 1.039 14.203 3.034 29.447 6.176 47.209 2.293 12.955 2.434 12.163-2.755 15.404-.6.375-2.328 3.947-3.84 7.937-3.229 8.526-3.185 13.187.34 35.745 1.961 12.545 2.127 16.443 1.602 37.5-.322 12.925-1.018 27.682-1.545 32.794-.908 8.784-2.967 15.206-4.876 15.206-.971 0-1.72 5.346-3.082 22-.979 11.969-2.93 29.57-5.125 46.222-1.033 7.84-1.041 13.649-.043 30 .68 11.153 1.65 23.203 2.154 26.778.505 3.575 1.614 18.875 2.465 34 .852 15.125 2.009 34.191 2.572 42.368.562 8.177 1.157 48.452 1.322 89.5.22 54.957.61 75.211 1.479 76.828.927 1.725.877 3.121-.235 6.5-1.169 3.553-2.392 22.148-2.568 39.054-.03 2.828-2.404 3.886-3.367 1.5-.277-.687-.525.325-.551 2.25-.026 1.925.613 4.374 1.421 5.441.807 1.068 1.473 2.868 1.479 4 .006 1.133 1.54 3.545 3.41 5.362 2.921 2.838 3.448 4.081 3.74 8.832.248 4.052-.089 5.988-1.265 7.248-1.375 1.475-2.606 7.218-3.131 14.617-.078 1.1-.51 2.253-.96 2.563-.449.309.756 2.4 2.679 4.647 2.807 3.279 3.193 4.2 1.959 4.674-.845.324-1.444 1.158-1.33 1.853.114.694-.364 2.613-1.063 4.263-2.703 6.384-.479 12.737 5.608 16.015 2.375 1.279 3.233 2.322 2.811 3.413-.335.865-.852 2.777-1.15 4.25-.5 2.48-.179 2.786 4.32 4.118 2.674.792 8.236 1.989 12.361 2.661 14.56 2.369 19.943 3.744 37.5 9.579 15.497 5.15 18.076 5.721 29.486 6.53 6.333.449 18.264 1.298 26.514 1.885 8.25.588 26.25 1.065 40 1.06 13.75-.005 29.725.425 35.5.957 16.716 1.537 41.912 3.158 63 4.053 10.725.455 23.325 1.357 28 2.004 12.05 1.668 71.992 1.775 83.5.149 18.68-2.639 37.883-3.711 73.5-4.102 7.425-.082 17.775-.766 23-1.52 5.225-.754 15.125-1.66 22-2.013s14.975-1.072 18-1.598c6.054-1.052 25.271-2.819 37.01-3.404 17.266-.859 39.972-4.435 56.99-8.974 3.025-.806 11.35-2.865 18.5-4.575 23.344-5.582 83.738-26.784 120.5-42.303 14.152-5.975 49.504-24.319 60.223-31.251a3506.838 3506.838 0 0 1 21.5-13.768c5.928-3.759 12.091-7.809 13.698-9 1.606-1.191 7.681-5.658 13.5-9.925 5.818-4.268 11.88-8.768 13.471-10 1.591-1.233 5.416-3.994 8.5-6.136 3.084-2.142 5.758-4.279 5.941-4.75.184-.47.939-.855 1.678-.855s2.164-1.015 3.166-2.255c1.003-1.24 3.045-3.04 4.538-4 1.494-.96 6.672-5.683 11.506-10.495a3913.757 3913.757 0 0 1 18.785-18.538c21.371-20.931 39.905-40.786 47.88-51.289 2.473-3.258 6.101-7.723 8.063-9.923 1.961-2.2 5.006-6.25 6.767-9 4.253-6.644 14.136-19.861 19.206-25.684 4.472-5.138 8.779-10.643 14.328-18.316a529.029 529.029 0 0 1 6.327-8.56c1.492-1.958 4.598-6.641 6.903-10.407 2.304-3.765 4.827-7.482 5.605-8.261.778-.778 1.415-1.88 1.415-2.449s1.013-2.274 2.25-3.79c1.237-1.515 2.812-3.605 3.498-4.644.686-1.039 3.274-4.937 5.75-8.663 2.476-3.725 4.502-7.006 4.502-7.29 0-.284.846-1.736 1.879-3.226 3.258-4.697 16.121-26.769 16.121-27.662 0-.47 1.41-3.823 3.133-7.451 1.724-3.628 4.164-9.522 5.424-13.097 1.26-3.575 3.255-8.745 4.434-11.489 2.353-5.478 6.855-17.926 13.821-38.213 2.561-7.459 4.96-12.939 5.515-12.596.54.334.696.145.347-.42-.674-1.091 3.607-16.662 4.374-15.909.249.244.535-1.12.636-3.032.101-1.912.628-4.012 1.171-4.666 1.433-1.727 4.068-9.746 2.982-9.074-1.482.916.249-4.978 1.836-6.25 1.149-.921 1.175-1.268.13-1.75-1.032-.476-1.041-.723-.047-1.186.691-.322 1.002-.997.691-1.5-.311-.503-.142-.915.375-.915 1.348 0 3.06-7.872 2.609-12-.329-3.015-.261-3.154.494-1 .87 2.484 1.059 2.128 1.593-3 .143-1.375.991-4.975 1.884-8 4.036-13.674 6.83-27.815 9.783-49.5 2.137-15.691 2.299-20.08 2.112-57-.351-69.317-1.051-99.444-2.74-118-1.796-19.723-7.513-56.62-10.6-68.405-1.076-4.109-1.957-8.852-1.957-10.54 0-1.687-.457-4.64-1.016-6.562-1.057-3.631-1.32-4.887-3.46-16.493-2.604-14.127-4.717-25.181-6.212-32.5-2.321-11.359-3.222-16.731-4.281-25.5-1.552-12.855-1.835-14.745-2.954-19.698-.584-2.583-1.527-12.708-2.095-22.5-.568-9.791-1.46-19.827-1.982-22.302-.522-2.475-1.405-12.344-1.962-21.931-1.397-24.028-4.366-47.055-8.648-67.069-1.353-6.325-3.176-14.875-4.051-19-2.683-12.651-5.137-22.137-7.89-30.5-1.448-4.4-2.811-8.9-3.028-10-.216-1.1-1.348-5.15-2.514-9-1.166-3.85-2.717-9.025-3.446-11.5-1.611-5.473-5.196-15.764-6.444-18.5-.501-1.1-2.098-5.15-3.548-9-6.433-17.085-19.407-45.729-28.083-62-.879-1.65-4.091-7.725-7.137-13.5-3.045-5.775-7.4-13.425-9.676-17-3.654-5.739-16.86-27.471-37.706-62.052-7.658-12.703-10.665-17.256-16.592-25.122-2.351-3.121-4.275-5.97-4.275-6.331 0-.361-1.633-3.207-3.63-6.326-8.007-12.506-12.453-18.91-16.562-23.854-2.369-2.851-5.433-6.842-6.808-8.869-1.375-2.026-3.717-5.093-5.205-6.815-5.002-5.791-7.795-9.415-7.795-10.115 0-.934-3.532-4.818-15.847-17.424-5.691-5.826-11.485-12.059-12.877-13.852-1.391-1.793-7.76-7.83-14.153-13.416-6.392-5.585-12.073-10.683-12.623-11.328-.55-.645-5.29-4.958-10.533-9.585-5.244-4.626-10.644-9.46-12-10.741-5.309-5.015-20.523-17.155-21.509-17.162-.573-.004-3.048-2.059-5.5-4.566-4.381-4.479-9.554-8.455-21.458-16.493-5.056-3.414-11.472-8.139-16.078-11.841-.594-.476-3.033-2.1-5.422-3.608s-4.828-3.157-5.422-3.665c-1.327-1.137-26.289-16.374-32.078-19.582-1.1-.609-4.903-2.378-8.451-3.93-3.548-1.553-7.823-3.613-9.5-4.578-3.459-1.992-6.122-3.24-16.049-7.523-17.182-7.414-28.483-12.901-34.565-16.782-14.139-9.023-31.714-17.469-47.007-22.59-8.486-2.841-18.448-6.182-22.14-7.425-8.545-2.876-18.476-4.416-27.887-4.324-4.071.04-7.851-.019-8.401-.132-.55-.113-1.675-.138-2.5-.056-1.174.118-1.078.47.441 1.619 1.915 1.448 1.914 1.468-.061 1.468-2.505 0-25.952-5.422-29.513-6.825-1.449-.57-8.086-1.599-14.75-2.286C538.452 64.203 533 63.272 533 62.82c0-.451-.9-.82-2-.82s-2-.45-2-1-.693-1-1.54-1c-.848 0-2.76-.863-4.25-1.918-2.812-1.99-19.205-4.821-21.108-3.645-.558.345-.741 1.34-.407 2.21.459 1.196.142 1.446-1.294 1.021-4.63-1.37-14.279-3.555-18.401-4.166-2.475-.367-7.425-1.5-11-2.518-3.575-1.018-9.425-2.344-13-2.947-3.575-.602-8.525-1.541-11-2.085-2.475-.544-5.625-1.231-7-1.527-7.631-1.64-43.95-6.445-52.5-6.946-5.5-.322-37-.775-70-1.007-33-.232-69.675-.618-81.5-.857-11.825-.239-22.287-.217-23.25.049M84.695 60.724c-.993.244-1.634.969-1.423 1.61.591 1.801 5.246 1.952 6.686.217.708-.853 1.119-1.584.914-1.625-2.474-.494-4.697-.567-6.177-.202m427.388-.347c.23.207 3.567.65 7.417.985 4.56.396 6.303.29 5-.306-1.885-.863-13.31-1.487-12.417-.679M89.432 75.11c-.231.374.327.967 1.241 1.318 1.984.761.597 2.565-2.292 2.982-1.081.156-2.023 1.237-2.215 2.542-.229 1.557.085 2.118 1 1.784.734-.267 1.232-.96 1.108-1.539-.134-.626 1.454-.981 3.914-.875 2.559.11 4.3-.299 4.559-1.072.24-.715-.412-1.25-1.525-1.25-1.486 0-1.842-.539-1.508-2.286.346-1.807-.012-2.285-1.712-2.285-1.182 0-2.338.306-2.57.681M74 96c0 .55-.765 1-1.7 1-1.229 0-1.398.302-.607 1.093.79.79 1.676.78 3.2-.036C77.335 96.75 77.683 95 75.5 95c-.825 0-1.5.45-1.5 1m49.693 1.688c-.654 1.059 2.076 4.877 2.899 4.054.336-.337-.062-1.575-.886-2.751-.823-1.176-1.729-1.762-2.013-1.303M144 101.412c0 1.267.607 1.48 2.75.966 3.313-.794 4.159-1.378 1.998-1.378-.871 0-2.296-.273-3.166-.607-1.043-.4-1.582-.053-1.582 1.019m-41.989 2.609c1.158 2.163.459 4.387-1.08 3.436-.512-.316-.931.127-.931.984 0 1.066.95 1.559 3 1.559 3.536 0 3.632-.452 1.011-4.75-2.153-3.53-3.76-4.519-2-1.229m5.989.044c0 .424-.273 1.483-.607 2.353-.458 1.193.034 1.582 2 1.582 1.651 0 2.607.55 2.607 1.5 0 .825-.45 1.5-1 1.5s-1 .45-1 1 .675 1 1.5 1 1.5-.45 1.5-1 .787-1.032 1.75-1.07c1.496-.06 1.46-.195-.25-.93-1.71-.735-1.746-.87-.25-.93 1.965-.079 2.331-1.593.638-2.639a1.32 1.32 0 0 0-1.809.441c-.499.807-1.249.71-2.638-.34-1.804-1.365-1.634-1.471 2.403-1.5 3.517-.026 4.443.348 4.866 1.968.532 2.032 1.788 2.621 2.642 1.239 1.164-1.883-2.169-3.967-7.102-4.441-2.888-.277-5.25-.157-5.25.267M124 106c0 .55 1.35 1 3 1s3-.45 3-1-1.35-1-3-1-3 .45-3 1m14.71 8c.582 2.223-.776 2.57-3.776.965-1.364-.73-1.934-.713-1.934.059 0 .602-.521.772-1.157.379-2.259-1.396-9.578-1.422-12.237-.042-2.082 1.08-2.34 1.527-1.147 1.985.848.325 1.541.268 1.542-.127 0-.396 1.194-.788 2.653-.873 1.827-.106 2.225.111 1.278.696-1.881 1.163-1.143 1.592 3.827 2.226 3.473.444 4.511.184 5.626-1.407 1.163-1.66 1.455-1.721 1.959-.406.326.85.157 1.545-.375 1.545-.533 0-.969.702-.969 1.559s.45 1.281 1 .941c.55-.34 1-.007 1 .74 0 .955-1.006 1.241-3.382.964-1.86-.218-3.686.098-4.059.7-.372.603-1.127 1.096-1.677 1.096s-.746-.411-.435-.914c.638-1.032-13.617-2.619-15.846-1.763-2.344.899-1.2 4.163 1.502 4.285 3.998.181 4.346.343 3.197 1.492-1.12 1.12-.624 1.82 4.385 6.184 1.997 1.74 2.041 1.721 1.769-.75-.214-1.949.177-2.534 1.693-2.534 1.084 0 1.693.45 1.353 1-.34.55-.111 1 .508 1 .672 0 .87-.808.492-2-.746-2.352 1.003-2.738 1.893-.418 1.009 2.629.701 3.418-1.334 3.418-1.068 0-2.262.52-2.654 1.155-.473.764-.271.88.598.343.963-.595 1.173-.279.789 1.189-.339 1.295.154 2.423 1.398 3.2 1.165.727 1.801 2.068 1.616 3.406-.24 1.729.236 2.251 2.194 2.409l2.5.201-2.5-.852c-2.175-.741-1.165-1.587 1.355-1.134.471.084 1.483-.368 2.25-1.004 1.106-.918 1.395-.781 1.395.665 0 1.35.292 1.53 1.125.697.619-.619 1.125-2.265 1.125-3.658 0-1.394.506-2.44 1.125-2.325.619.114 1.013-.354.875-1.042-.137-.687.2-1.25.75-1.25s1 .45 1 1c0 1.147 2.96 1.388 3.077.25.65-6.372 1.845-8.915 4.15-8.832 1.314.047 2.168-.444 2.024-1.166-.176-.88.929-1.133 3.75-.858 2.199.214 3.999.033 3.999-.402 0-1.176-8.925-1.667-10.04-.552-.613.613-.96.511-.96-.284 0-.684-.562-1.171-1.25-1.081-.687.089-1.925.102-2.75.028-1.333-.119-1.333-.241 0-1.103 1.116-.721.539-.973-2.25-.985-2.062-.008-3.75-.24-3.75-.515 0-1.034 3.858-4.309 4.417-3.75.321.321.583-.842.583-2.583 0-2.448-.433-3.167-1.906-3.167-1.414 0-1.772.517-1.384 2m377.04 9.706c1.237.238 3.263.238 4.5 0 1.237-.239.225-.434-2.25-.434s-3.487.195-2.25.434M60.835 134.877c.735.466 1.264 1.235 1.175 1.71-.088.475.367 1.039 1.012 1.254.886.295.896-.126.04-1.725-.623-1.164-1.679-2.109-2.347-2.101-.861.011-.826.262.12.862m97.582 2.989c.498.805 5.583.366 5.583-.483 0-.21-1.377-.383-3.059-.383-1.682 0-2.818.39-2.524.866M532.5 138c2.731 1.174 3.5 1.174 3.5 0 0-.55-1.237-.968-2.75-.93-2.437.063-2.522.168-.75.93m-471.256 2.25c.225.688 1.95 1.329 3.833 1.425 1.883.097 2.523-.059 1.423-.347-1.1-.287-2.427-.928-2.95-1.425-1.384-1.315-2.783-1.105-2.306.347M124 143.941c0 1.132.45 2.059 1 2.059s1-.648 1-1.441-.45-1.719-1-2.059c-.55-.34-1 .309-1 1.441m11.694 2.698c-1.066 1.067.297 2.361 2.487 2.361 1.721 0 1.857-.249.819-1.5-1.344-1.62-2.299-1.868-3.306-.861m-6.679 1.938c-.013 1.781-.477 2.002-3.265 1.555l-3.25-.522 3-.687 3-.686-3.143-.119c-2.01-.075-3.359.446-3.743 1.445-.33.86-1.022 1.303-1.538.984-.516-.319-1.22-.122-1.566.437-.345.559-.039 1.086.681 1.173.72.086 2.546.311 4.059.5l5.5.686c1.512.189 3.564.414 4.559.5.995.087 1.531.607 1.191 1.157-.34.55-.141 1 .441 1s1.073-.562 1.091-1.25c.018-.708.664-.415 1.489.677.802 1.06 1.8 1.561 2.219 1.113.418-.448.198-1.015-.49-1.26-.687-.246-1.25-1.114-1.25-1.931 0-1.037-.677-1.316-2.25-.926-1.238.307-1.687.3-1-.016 2.022-.928 1.43-2.687-.716-2.126-1.081.283-1.869.223-1.75-.134.119-.356-.184-.721-.672-.812-.489-.09-1.269-.765-1.735-1.5-.62-.978-.85-.779-.862.742m-10.015 8.3c0 1.011 2.4 2.123 4.582 2.123 2.809 0 1.354-2.579-1.582-2.803-1.65-.126-3 .18-3 .68m8 1.006c0 1.539 3.406 1.791 6 .444 2.414-1.253 2.354-1.298-1.75-1.312-2.338-.008-4.25.383-4.25.868M123 163c0 1.174.769 1.174 3.5 0 1.772-.762 1.687-.867-.75-.93-1.513-.038-2.75.38-2.75.93m85.642 117.75c-.864 5.226-.795 14.25.108 14.25.412 0 .792-1.687.844-3.75.287-11.506.409-12.366 1.656-11.617.849.51.81.209-.122-.941-.755-.931-1.484-1.692-1.62-1.692-.135 0-.525 1.688-.866 3.75M419.5 319.923l-6 .587 5 .85c4.883.83 12.793 1.585 17.2 1.642 1.211.016 2.463.452 2.782.97.32.517 1.13.746 1.8.507 1.46-.519 14.969 2.936 14.258 3.647-.273.273-3.768.124-7.768-.332-12.488-1.422-65.469-1.483-66.883-.077-.964.959-.87 1.353.444 1.857.917.352 1.667 1.218 1.667 1.925 0 .706 1.012 1.563 2.25 1.903 1.238.341 3.466 1.627 4.953 2.859l2.703 2.239h-25.203c-24.336 0-44.012 1.573-45.276 3.619-2.944 4.763-5.472 100.074-4.864 183.381 1.202 164.633 1.383 284.457.467 309.012a9079.21 9079.21 0 0 1-1.75 43.988c-.732 16.885-.78 34.396-.25 91.5.297 32.024-.887 84.313-2.184 96.5-.586 5.5-1.045 27.594-1.02 49.097.038 32.693-.198 39.567-1.44 41.961-1.867 3.599-2.842 13.805-3.336 34.942-.137 5.857-.172 5.928-1.456 3-1.299-2.961-1.325-2.915-1.978 3.5-.364 3.575-.591 7.4-.503 8.5.087 1.1-.161 12.35-.552 25-.502 16.284-.401 22.562.349 21.5.835-1.183 1.063-.8 1.075 1.809.008 1.888-.402 3.051-.956 2.709-1.667-1.03-2.289 4.221-1.219 10.296.564 3.202.869 9.616.678 14.254-.226 5.489-.11 6.862.332 3.932 1.221-8.081 2.471-1.599 2.7 14 .117 7.975.52 16.75.896 19.5.375 2.75.827 21.084 1.004 40.742.328 36.454.653 39.435 4.153 38.092 1.019-.391 1.431-2.304 1.442-6.691.009-3.379.402-6.754.875-7.5 1.751-2.763 2.597 1.356 3.103 15.117.558 15.145 2.201 18.828 3.007 6.74.389-5.838.659-6.835 1.215-4.5.394 1.65.394 8.691 0 15.646-.494 8.731-.295 15.907.643 23.181l1.357 10.537 6.643.792c12.92 1.54 59.423.593 80.142-1.632 4.675-.502 14.125-1.394 21-1.981 54.166-4.63 53.79-4.588 93.5-10.538 5.5-.824 15.85-2.182 23-3.016 20.6-2.405 36.339-6.129 67-15.852 15.208-4.823 26.174-8.797 38.568-13.977 5.812-2.429 14.812-5.855 20-7.613 16.099-5.455 35.147-13.237 40.915-16.715 3.034-1.83 5.873-3.328 6.307-3.329.435-.002 2.01-.838 3.5-1.86a446.22 446.22 0 0 1 5.588-3.75l8.201-5.393c11.033-7.253 26.265-19.713 35.982-29.434 10.47-10.475 26.122-23.179 28.056-22.774.614.129 1.681-.447 2.372-1.279.691-.832 1.736-1.513 2.323-1.513s-.394 1.43-2.182 3.177c-3.557 3.478-5.689 6.823-4.347 6.823 1.111 0 13.75-14.018 16.95-18.799 1.362-2.036 3.276-4.601 4.252-5.701.977-1.1 2.287-3.575 2.911-5.5 6.839-21.076 6.753-20.788 7.768-26 .268-1.375.883-3.4 1.367-4.5s2.072-4.912 3.53-8.471c2.763-6.746 9.779-19.653 14.421-26.529 1.486-2.2 4.891-7.375 7.568-11.5 5.513-8.494 7.726-11.152 7.41-8.9-.108.77-.144 2.482-.078 3.805.115 2.341.171 2.357 2.118.595 1.1-.995 2-2.208 2-2.695 0-1.496 4.306-6.805 5.52-6.805.629 0 2.657-2.362 4.506-5.25 1.85-2.888 3.644-5.475 3.988-5.75 1.383-1.108 5.289-10.412 5.404-12.871.149-3.213 4.093-11.615 7.255-15.456 1.28-1.554 2.329-3.354 2.331-4 .002-.645 1.336-4.548 2.965-8.673 1.629-4.125 2.978-8.873 2.997-10.55.019-1.678.54-3.556 1.159-4.175.619-.619 1.181-3.146 1.25-5.617.069-2.47.463-4.829.875-5.242 1.109-1.109.911-2.633-.25-1.916-1.732 1.07-1.651-14.203.128-24.278.723-4.091 1.711-6.601 2.836-7.203 1.914-1.024 4.638-12.382 5.401-22.519.567-7.531-.335-16.154-1.497-14.32-.558.879-.884.236-.978-1.93-.16-3.72-.195-3.878-1.597-7.25-2.205-5.302-11.467-56.556-12.424-68.748-.55-7.013-.746-19.277-.434-27.252 1.285-32.884.861-47.973-2.05-73a4773.939 4773.939 0 0 1-2.394-21c-.517-4.675-1.357-10.525-1.866-13-3.493-16.974-5.241-25.99-7.079-36.5-4.282-24.489-13.195-59.278-32.153-125.5-9.346-32.649-20.726-64.705-24.523-69.079-.753-.868-1.37-2.057-1.37-2.642 0-.877-6.618-13.123-10.492-19.416-.555-.9-2.997-4.95-5.428-9-2.431-4.049-7.269-11.899-10.75-17.443-3.482-5.544-6.33-10.569-6.33-11.166 0-.598-.387-1.237-.861-1.421-.903-.349-16.139-23.106-16.139-24.106 0-2.352-31.852-44.535-39.916-52.862-.871-.9-3.159-3.748-5.084-6.329-5.198-6.969-21.055-25.533-21.829-25.554-.647-.018-3.377-2.549-26.171-24.269-5.775-5.502-12.259-11.292-14.409-12.865-2.15-1.574-6.2-4.867-9-7.318-2.8-2.451-8.241-7.035-12.091-10.185-3.85-3.151-7.225-6.019-7.5-6.373-1.006-1.298-9.647-5.891-15-7.974-5.637-2.194-28.727-12.744-35-15.993-1.925-.996-5.844-2.501-8.709-3.343-2.866-.841-7.141-2.602-9.5-3.912-4.682-2.598-15.155-6.073-32.385-10.743-7.743-2.099-14.388-3.17-22-3.547-5.998-.297-12.359-.717-14.134-.933-1.775-.217-3.125-.086-3 .289.125.376-.222.797-.772.934s-1-.312-1-1c0-1.867-5.237-4.367-12-5.73-3.3-.665-9.15-2.1-13-3.189-3.85-1.089-10.15-2.153-14-2.366-3.85-.213-13.075-.853-20.5-1.423-7.425-.571-13.95-.963-14.5-.871-.55.091-3.7.429-7 .752m44.5 7.91c0 .459.563.873 1.25.921.688.049 3.163.318 5.5.599 4.454.536 5.872-.685 2-1.723-3.305-.886-8.75-.759-8.75.203m38.199 11.718c-.716.811-1.053 1.877-.749 2.368.304.492-.297.672-1.336.401-1.038-.272-2.165-.047-2.502.499-.338.546-1.626.771-2.863.5-1.807-.396-1.954-.282-.749.579 2.033 1.452 4.722 1.377 5.338-.148.296-.734.537-.513.583.535.064 1.448.443 1.59 2.007.754 1.06-.568 2.747-.766 3.75-.441 1.301.422 1.451.324.525-.342-1.852-1.331 1.129-3.664 3.791-2.968 2.996.784 3.318-.825.428-2.142-3.39-1.544-6.645-1.384-8.223.405M1075.328 568.5c.317 1.1.872 3.237 1.233 4.75.361 1.513 1.004 2.75 1.43 2.75.426 0 .117-1.911-.688-4.247-1.501-4.356-3.01-6.841-1.975-3.253M162.272 595c0 2.475.195 3.487.434 2.25.238-1.237.238-3.263 0-4.5-.239-1.237-.434-.225-.434 2.25m150.722 32c-.073 4.675-.343 12.223-.6 16.774-.257 4.55-.072 8.978.409 9.839 1.208 2.159 2.412-29.916 1.233-32.85-.663-1.65-.945.04-1.042 6.237m-.964 39.45c-.022 2.151.269 2.651 1.074 1.846.791-.791.799-1.626.03-2.95-.941-1.618-1.077-1.482-1.104 1.104M1106.145 695c-.033 1.375.557 4.975 1.312 8 1.783 7.142 1.869 3.33.102-4.5-.745-3.3-1.381-4.875-1.414-3.5M1070.3 962c0 3.025.187 4.263.416 2.75.229-1.513.229-3.987 0-5.5s-.416-.275-.416 2.75m-150.724 97.671c-.329 3.756-1.287 12.229-2.127 18.829-.84 6.6-1.769 13.961-2.065 16.357-.693 5.609 1.085 4.697 2.113-1.085 1-5.622 1.065-6.096 1.94-14.272.412-3.85.938-8.35 1.169-10 .565-4.04.578-15.65.018-16.209-.246-.247-.718 2.625-1.048 6.38m4.424-.488c0 2.932-.412 6.765-.914 8.519-.612 2.133-.564 3.305.144 3.541.728.243.68 1.498-.153 4.023-1.319 3.996-2.094 16.734-1.018 16.734.366 0 .968-2.955 1.338-6.566.37-3.612 1.429-8.449 2.354-10.75 1.07-2.662 1.694-7.085 1.715-12.159.029-6.813-.221-8.027-1.716-8.324-1.491-.296-1.75.44-1.75 4.982m-608.765 69.941c-.21 7.535-.031 8.814 1.082 7.702 1.94-1.94 2.685-6.882 1.698-11.26-1.55-6.873-2.522-5.628-2.78 3.558m-183.983-2.624c.011 2.2.216 2.982.455 1.738.239-1.244.23-3.044-.02-4s-.446.062-.435 2.262M891 1163.966c0 .715-.788 2.032-1.75 2.927-.962.896-2.312 2.63-3 3.854-1.398 2.49-1.686 5.64-.444 4.873 1.389-.859 6.496-11.651 5.829-12.318-.349-.35-.635-.051-.635.664m-578.315 13.24c-.868 7.955.228 26.536 1.452 24.607 1.004-1.584 1.002-20.512-.003-26.813l-.718-4.5-.731 6.706M304.3 1222c0 3.025.187 4.263.416 2.75.229-1.513.229-3.987 0-5.5s-.416-.275-.416 2.75m10.715-2.25c.012 2.143.23 2.419.985 1.25 1.264-1.957 1.264-4 0-4-.55 0-.993 1.237-.985 2.75m-3.695 6.25c0 3.575.182 5.037.403 3.25.222-1.787.222-4.713 0-6.5-.221-1.787-.403-.325-.403 3.25m3.715 15.934c-.569 1.064-1.035 3.539-1.035 5.5 0 1.961-.45 3.566-1 3.566s-1.029-.562-1.063-1.25c-.146-2.87-1.783 3.323-1.946 7.36-.294 7.307-.036 10.036.895 9.46.488-.301 1.239.46 1.671 1.691.53 1.514.972-.839 1.363-7.261.319-5.225.986-10.13 1.482-10.9.946-1.468 1.904-10.1 1.122-10.1-.25 0-.919.87-1.489 1.934M313.003 1276c-.331 7.486.168 17.538.908 18.294.427.437.589-3.838.36-9.5-.437-10.789-1.005-14.732-1.268-8.794m-4.003 2c0 1.65.372 3 .827 3 .455 0 .628-1.35.386-3s-.614-3-.826-3c-.213 0-.387 1.35-.387 3m.989 11.295.488 7.205.313-6.398c.172-3.52-.048-6.762-.488-7.205-.441-.444-.582 2.436-.313 6.398m502.401 27.21c-3.646 4.097-2.669 4.787 1.07.755 2.161-2.331 3.207-4.274 2.29-4.255-.138.003-1.65 1.578-3.36 3.5m21.427 6.245c-.821.963-2.991 4.112-4.823 7-1.832 2.888-3.705 5.25-4.162 5.25-.458 0-.818.787-.8 1.75.03 1.667.095 1.667 1.36 0 .731-.963 1.89-1.75 2.575-1.75.693 0 .993-.661.676-1.488-.314-.818-.237-1.381.171-1.25 1.403.45 8.186-7.197 8.186-9.229 0-2.496-1.204-2.603-3.183-.283m-38.809 2.238c-2.558 3.593-1.29 4.006 1.893.617 1.308-1.392 1.832-2.652 1.251-3.011-.55-.34-1.964.738-3.144 2.394m9.657.003c-3.17 3.558-3.536 5.107-.572 2.425 1.987-1.799 4.397-5.416 3.607-5.416-.203 0-1.569 1.346-3.035 2.991m34.121 1.783c-1.866 2.173-2.833 4.845-2.041 5.637.816.817 5.255-3.429 5.255-5.026 0-2.123-1.648-2.436-3.214-.611m-525.45 16.877c.074 8.167.29 13.276.481 11.353.19-1.923.836-4.086 1.434-4.806 1.708-2.058.767-18.58-1.169-20.516-.508-.508-.824 5.404-.746 13.969m484.865-11.709c-2.563 3.466-2.121 3.993.949 1.133 1.137-1.059 1.897-2.435 1.689-3.058-.208-.623-1.395.243-2.638 1.925m-7.824 8.308c-2.979 3.399-4.677 5.75-4.152 5.75.978 0 4.51-3.591 5.653-5.75.656-1.237 1.03-2.25.831-2.25-.198 0-1.248 1.013-2.332 2.25m30.357.723c-2.487 3.545-2.256 5.591.357 3.157 1.15-1.071 1.93-2.776 1.734-3.789-.316-1.635-.551-1.564-2.091.632M831 1347c-.893 1.668-.76 2 .798 2 2.393 0 3.203-.833 2.526-2.598-.759-1.977-2.072-1.741-3.324.598m-510.728 4c0 2.475.195 3.487.434 2.25.238-1.237.238-3.263 0-4.5-.239-1.237-.434-.225-.434 2.25m436.334 12.485c-2.499 2.499-3.123 3.515-2.158 3.515.999 0 5.826-5.059 5.315-5.571-.303-.302-1.724.623-3.157 2.056m5.394 4.003c-3.025 2.468-8.087 6.382-11.25 8.697-3.163 2.315-5.75 4.563-5.75 4.995 0 .432-2.218 1.91-4.929 3.284-4.864 2.465-6.764 4.177-5.754 5.186.502.502 18.647-12.392 25.158-17.877 1.781-1.5 3.414-2.583 3.631-2.406.217.177 1.676-1.183 3.242-3.023 3.957-4.644 2.17-4.175-4.348 1.144m16.867 2.474c-3.526 3.302-5.69 5.979-4.851 6 .834.021 4.164-2.662 7.401-5.962 7.614-7.762 5.728-7.79-2.55-.038m23.791-2.411c.306.797.11 1.449-.434 1.449-.545 0-1.226.9-1.514 2-.598 2.287-.324 2.399 2.356.965 2.269-1.215 2.57-4.507.485-5.307-.969-.372-1.265-.076-.893.893m-5.425 3.142c-1.75 2.03-2.937 3.936-2.639 4.235.543.542 3.572-2.879 5.47-6.178 1.565-2.721.639-2.085-2.831 1.943m-9.927 5.867c-2.043 1.865-2.24 2.287-.724 1.555 2.075-1.002 5.174-4.115 4.096-4.115-.311 0-1.829 1.152-3.372 2.56m-27.124 7.94c-1.634 1.375-3.31 2.5-3.725 2.5-.415 0-2.305 1.596-4.199 3.546-1.894 1.95-5.313 4.726-7.597 6.168-2.284 1.442-3.599 2.807-2.922 3.032 1.064.355 6.804-2.96 8.261-4.771.275-.342 3.987-3.231 8.25-6.419 4.263-3.189 7.75-5.969 7.75-6.177 0-1.216-3.269-.024-5.818 2.121m-35.188 10.641c-1.922 1.643-2.594 2.541-1.494 1.996 3.143-1.557 6.046-3.924 5.492-4.478-.278-.278-2.077.839-3.998 2.482m29.916 5.167c-4.279 2.044-6.624 4.053-12.895 11.049l-2.485 2.772 2.866-1.089c1.576-.6 4.113-1.979 5.639-3.065 1.526-1.086 3.154-1.978 3.619-1.981.465-.004 1.613-1.354 2.549-3 .937-1.647 2.384-2.994 3.215-2.994.832 0 1.993-.9 2.582-2 1.33-2.484.672-2.445-5.09.308m-60.203 11.39c-.986.256-3.011 1.143-4.5 1.97l-2.707 1.506 2.706-.595c3.7-.814 7.794-2.418 7.794-3.054 0-.569-.546-.541-3.293.173m-12.874 5.147c-.337.856-1.95 1.771-11.833 6.717-3.025 1.514-4.964 2.936-4.309 3.159 1.732.591 17.286-6.998 17.298-8.44.006-.67.64-.977 1.41-.681.769.295 1.696.056 2.059-.532.4-.648-.315-1.068-1.816-1.068-1.361 0-2.625.38-2.809.845m240.974 6.905c-1.908 2.222-3.07 4.25-2.434 4.25.27 0 1.452-1.35 2.627-3 2.33-3.272 2.21-4.048-.193-1.25m-262.366 4.832c-1.776 1.447-1.785 1.532-.109 1 1.007-.32 2.245-.582 2.75-.582.505 0 .918-.45.918-1 0-1.448-1.336-1.23-3.559.582m-10.959 4.91c-3.84 1.85-6.661 3.395-6.27 3.435 1.146.117 12.198-4.091 13.221-5.034 2.33-2.146-.549-1.484-6.951 1.599M675 1436.5c-1.596 1.923.032 1.943 2.559.032 1.631-1.234 1.681-1.473.313-1.5-.895-.018-2.187.643-2.872 1.468m-36.5 1.384c-1.1.377-3.125 1.184-4.5 1.794-7.523 3.337-23.684 9.274-26.5 9.736-1.992.326-4.968 2.452-4.328 3.091.36.36 1.706-.015 2.991-.834 1.285-.82 5.147-2.196 8.582-3.058 8.09-2.032 22.09-7.493 25.14-9.805 2.458-1.864 2.086-2.112-1.385-.924m-45.769 16.522c-7.62 2.255-10.461 3.591-7.648 3.597 2.64.006 15.917-4.289 15.917-5.149 0-.47-.112-.83-.25-.8-.138.029-3.746 1.088-8.019 2.352m-92.33 16.205c-1.776 1.45-1.781 1.514-.069.971 1.007-.32 2.995-.582 4.416-.582 1.422 0 2.274-.312 1.893-.692-1.367-1.367-4.374-1.221-6.24.303" fill-rule="evenodd"/></svg>