<svg xmlns="http://www.w3.org/2000/svg" width="1240" height="1753"><path d="M1076.5 31.757c-1.65.178-4.337.852-5.972 1.497-1.635.645-4.56 1.189-6.5 1.209-2.884.03-3.586.448-3.848 2.287-.205 1.446-1.009 2.25-2.25 2.25-1.061 0-1.93.637-1.93 1.417 0 .779-.38 1.566-.845 1.75-.465.183-1.149 1.57-1.519 3.083-.543 2.215-.33 2.753 1.095 2.765 1.374.012 1.466.208.412.875-1.039.659-1.073 1.035-.143 1.61.93.575.896.951-.143 1.61-.999.632-1.027.863-.107.875.688.008 1.25.717 1.25 1.574 0 .857-.446 1.283-.992.946-.546-.337-1.783-.153-2.75.41-1.575.918-1.524 1.027.492 1.055 1.32.017 2.25.65 2.25 1.53 0 .825.675 1.5 1.5 1.5s1.5-.644 1.5-1.43c0-.787 1.013-1.626 2.25-1.864l2.25-.434-2.25-.136c-1.879-.114-2.25-.713-2.25-3.636 0-1.925-.112-3.831-.25-4.236-.138-.405.537-.888 1.5-1.074 1.022-.197 1.75.271 1.75 1.126 0 .804.787 1.399 1.75 1.323 1.338-.106 1.682.509 1.462 2.611-.202 1.933.169 2.75 1.25 2.75.846 0 1.485-.337 1.42-.75-.605-3.829.083-4.25 6.945-4.25h6.827l-.441 3c-.351 2.392-.073 3 1.374 3 1.318 0 1.513-.3.713-1.1-.8-.8-.582-1.618.8-3 2.339-2.339 2.807-2.354 4.614-.15.789.962 1.149 1.188.801.5-.422-.834.191-1.25 1.844-1.25 4.196 0 5.372.898 4.979 3.8-.316 2.334-.238 2.429.578.7.837-1.775.96-1.662 1.093 1l.149 3 1.004-2.75c.553-1.513 1.465-2.75 2.028-2.75s.765.675.448 1.5c-.927 2.416.395 4.624 2.388 3.992 1.303-.414 2.222.3 3.382 2.624 2.084 4.177 2.011 5.487-.501 9.015-1.648 2.315-1.843 3.242-.914 4.36 1.472 1.774.374 3.734-1.836 3.278-.911-.188-2.151.305-2.754 1.096-.793 1.039-1.295 1.118-1.809.286-.392-.633-.209-1.151.406-1.151s.84-.45.5-1c-.942-1.524-2.5-1.192-2.5.531 0 .843-.688 1.796-1.53 2.119-.965.37-1.309 1.281-.932 2.468.33 1.04.119 1.882-.471 1.882-.587 0-1.067.477-1.067 1.059s.403.81.895.506c.493-.305 1.153.119 1.469.941.462 1.203-.405 1.494-4.454 1.494-2.766 0-4.8-.369-4.522-.819.279-.451-.756-.634-2.298-.407-1.98.29-2.997-.09-3.459-1.293-.537-1.4-.221-1.595 1.778-1.093 2.683.673 5.591-.104 5.591-1.495 0-.491-.914-.893-2.031-.893-1.118 0-2.29-.672-2.605-1.494-.316-.822-.945-1.265-1.4-.984-.454.281-1.108.053-1.454-.506-.572-.925 4.974-1.545 9.669-1.08 1.984.196 5.943-2.93 5.211-4.114-.28-.452-1.741-.822-3.249-.822s-3.3-.559-3.983-1.242c-.988-.988-1.418-.956-2.107.16-.476.77-.634 2.004-.351 2.741.361.942-.336 1.307-2.343 1.225-1.689-.069-2.142-.303-1.107-.573 3.365-.88 1.002-6.311-2.746-6.311-1.198 0-1.489.605-1.081 2.25.307 1.237.3 1.688-.016 1-.853-1.858-2.407-1.512-2.407.536 0 1.119-.747 1.785-2 1.785-1.1 0-2-.578-2-1.285s.45-1.286 1-1.286 1-.45 1-1-.9-1-2-1-2-.45-2-1 .45-1 1-1 1-.408 1-.906c0-.498-1.121-.386-2.492.25s-2.496 1.774-2.5 2.528c-.006 1.102-.302 1.129-1.495.139-.818-.679-2.508-.978-3.756-.665-1.773.445-2.64-.077-3.966-2.388-1.441-2.51-2.31-2.958-5.744-2.958-3.38 0-4.047-.33-4.047-2 0-1.467-.667-2-2.5-2-1.556 0-2.5.567-2.5 1.5 0 .825-.338 1.482-.75 1.459-1.332-.072-7.716-5.959-6.462-5.959.666 0 1.212-.477 1.212-1.059s-.453-.779-1.007-.437c-.554.343-1.265-.05-1.581-.873-.316-.823-3.007-2.261-5.98-3.196-4.373-1.376-5.696-1.461-6.919-.445-.968.803-1.513.868-1.513.179 0-.591-2.138-2.04-4.75-3.218-4.298-1.939-7.256-2.37-21.846-3.184-3.417-.19-4.017-.53-3.62-2.051.425-1.621-.007-1.552-3.919.632-3.829 2.138-4.715 2.291-6.88 1.192-3.385-1.719-9.818-2.62-10.526-1.474-.317.514-2.463.941-4.768.949-3.157.012-3.821.266-2.691 1.031 2.338 1.582-4.045 0-6.715-1.665-2.875-1.793-5.925-1.762-6.626.066-.411 1.071-1.863 1.351-5.578 1.077-2.762-.203-5.445-.631-5.961-.95-1.678-1.037-4.118.586-4.188 2.783-.067 2.131-.073 2.13-1.152-.107-.597-1.238-1.89-2.25-2.874-2.25-.983 0-2.066-.45-2.406-1-.836-1.352-5.5-1.278-5.5.088 0 .705-1.333.863-3.786.448-4.34-.733-9.135 1.201-8.405 3.39.314.944-.054 1.194-1.144.776-.884-.339-2.317.093-3.185.961-1.803 1.803-15.047 2.846-16.026 1.263-.326-.527-1.011-.7-1.523-.383-.512.316-.963-.239-1.001-1.234-.057-1.455-.203-1.516-.75-.309-.89 1.965-3.18 2.396-3.18.599 0-.953-1.118-1.369-3.5-1.302-1.925.055-3.5.46-3.5.901s-1.237.757-2.75.702l-2.75-.099 2.5-.815c1.936-.631 1.43-.777-2.245-.65-2.61.09-4.747.501-4.75.914-.003.413-.471.75-1.04.75-.702 0-.691-.644.035-2 .988-1.846.76-2-2.965-2-2.78 0-4.035.433-4.035 1.392 0 1.874-4.077 2.779-8.982 1.995-2.695-.431-4.018-.271-4.018.485 0 .62-.9 1.128-2 1.128-1.111 0-2-.667-2-1.5 0-1-1-1.5-3-1.5-2.027 0-3 .497-3 1.531 0 .843-.672 1.79-1.494 2.105-.822.316-1.282.917-1.023 1.336.694 1.124-7.326 2.002-12.233 1.339-2.337-.316-4.25-.981-4.25-1.478s-.87-.438-1.934.132C809.29 54.451 807 54.24 807 52.5c0-1.921-1.889-1.954-2.621-.046-.441 1.149-1.953 1.341-7.218.913-6.646-.541-6.654-.538-3.661 1.131 1.909 1.065 4.317 1.501 6.623 1.2 1.992-.26 4.242-.081 5 .399 1.021.647.796.876-.873.888-1.237.008-2.25.465-2.25 1.015 0 1.451-4.74 1.229-5.341-.25-.389-.959-.736-.921-1.492.162-.794 1.139-4.737 1.398-20.326 1.337-10.638-.042-21.795-.319-24.794-.616-3-.297-5.944-.133-6.543.364-.633.525-4.637.563-9.547.09-4.651-.448-7.669-.876-6.707-.951 2.971-.231 1.925-1.63-1.305-1.745-2.392-.086-2.931.238-2.495 1.5.452 1.312.304 1.286-.808-.141-.767-.986-2.843-1.809-4.752-1.886-2.729-.11-2.903-.224-.89-.585 1.375-.247 2.813-.748 3.196-1.114.918-.876-14.386-.851-15.744.026-.576.372-1.665.296-2.419-.17-.925-.572.229-1.102 3.548-1.63 4.647-.739 4.753-.821 1.919-1.496-2.633-.627-2.48-.701 1.25-.609 2.337.058 4.25.553 4.25 1.101 0 .547.643.122 1.429-.946 1.331-1.809 1.474-1.822 2.107-.191.485 1.252 1.715 1.722 4.321 1.65 3.153-.086 3.308-.193 1.153-.792-2.812-.783-1.395-2.267 1.596-1.672 4.529.9 6.808 1.242 5.699.856-.657-.23-.952-1.177-.655-2.105.416-1.303.318-1.378-.431-.33-.734 1.027-1.148 1.066-1.709.16-.469-.76-1.945-.97-4.047-.576-1.885.354-3.581.177-3.944-.41-.408-.66 1.342-1.031 4.863-1.031 3.025 0 5.758-.417 6.072-.926.339-.547 1.796-.576 3.559-.07 1.789.513 2.987.483 2.987-.074 0-.511-.702-.93-1.559-.93-.936 0-1.27-.468-.836-1.17.493-.798.167-.956-1.028-.498-3.86 1.481-9.577 1.929-9.577.75 0-.791-1.101-.966-3.385-.538-2.04.383-3.654.202-4.059-.454-.42-.678.293-1.09 1.885-1.09 1.407 0 2.559-.436 2.559-.969 0-.532-.681-.707-1.513-.388-.832.32-2.182.025-3-.654-1.033-.857-1.487-.891-1.487-.111 0 .68-1.97 1.122-5 1.122-4.677 0-6.589 1.192-3.75 2.338.773.311.607.534-.434.583-1.252.059-1.564.74-1.216 2.659.375 2.066.112 2.51-1.316 2.231-1.123-.22-1.74-1.175-1.664-2.58.075-1.406-.458-2.231-1.441-2.231-1.237 0-1.158-.295.379-1.419 1.878-1.373 1.86-1.436-.559-1.984-1.375-.312-7.08-.717-12.679-.901-6.105-.201-10.772-.826-11.661-1.564-1.094-.908-1.665-.932-2.184-.091-.438.708-1.986.898-4.09.503-2.428-.455-3.389-.268-3.4.661-.012.976-.236.947-.91-.117-.755-1.194-1.151-1.155-2.556.25-2.151 2.151-1.703 2.216-8.31-1.216-2.28-1.184-4.209-.789-4.209.864 0 .477.788 1.061 1.75 1.297s-1.076.417-4.53.403c-3.745-.015-6.773.48-7.5 1.226-.972.998-.506 1.194 2.294.965 1.933-.157 4.044.041 4.691.441 1.224.756 4.826 1.131 22.081 2.296 5.658.382 10.522 1.075 10.809 1.54.288.465-.205.846-1.095.846-.893 0-1.322.479-.958 1.068.363.588 1.238.847 1.944.576.707-.271 2.228.168 3.382.976 1.432 1.003 2.658 1.177 3.865.55 2.199-1.143 6.302.072 4.339 1.286-.754.465-1.615.284-2.059-.435-.508-.821-.979-.885-1.409-.189-.355.575.111 1.469 1.036 1.986 4.137 2.315-40.244-1.384-46.39-3.866-1.42-.574-2.25-.548-2.25.069 0 1.486-13.599 1.173-17.36-.398-1.813-.758-5.198-1.27-7.522-1.139-3.218.182-4.101-.086-3.703-1.123.627-1.634-.587-1.789-2.108-.268-.769.769-1.671.783-3.045.047-1.466-.784-2.507-.657-4.172.51-2.038 1.427-2.338 1.402-3.655-.298-1.391-1.796-1.482-1.791-2.974.143-1.319 1.709-1.672 1.781-2.464.5-.747-1.208-3.527-1.495-14.461-1.495-7.445 0-13.536-.295-13.536-.656 0-.361.9-.421 2-.134 1.118.293 2 .031 2-.593 0-.991-9.556-1.776-13.948-1.146-.797.114-2.02-.574-2.719-1.53-.978-1.338-1.587-1.475-2.644-.598-.755.627-1.594.919-1.863.65-.975-.975-9.803-1.339-10.366-.428-.318.514-1.028.935-1.578.935s-.729-.439-.397-.976c.789-1.276-42.535-.499-47.93.86-2.169.546-4.247.807-4.616.578-.649-.401-15.189-1.484-25.439-1.894-2.75-.111-8.968-.78-13.818-1.487-9.059-1.322-26.532-1.068-55.06.8-13.598.89-13.925.966-16.156 3.764L369.19 46.5l-24.845.124c-13.665.068-36.995.19-51.845.272-26.979.148-33.167.003-60.612-1.416-14.182-.734-14.676-.692-16.79 1.422-1.198 1.198-3.397 2.68-4.888 3.293-3.141 1.293-41.906 2.004-44.21.811-1.808-.936-28.446-2.199-50.5-2.395-8.8-.078-16.658-.558-17.462-1.066-.804-.509-3.054-.841-5-.738-3.181.169-3.359.049-1.765-1.187 1.666-1.291 1.636-1.411-.5-1.969-2.855-.747-3.335-.675-3.023.449.138.495-.785.9-2.05.9-1.265 0-2.728.412-3.25.916-.523.503-5.45 1.127-10.95 1.385-17.866.839-26.083 2.589-30.283 6.449-.748.688-2.418 1.25-3.712 1.25-2.49 0-8.878 5.587-8.004 7.001.283.458.031 3.908-.559 7.666-1.367 8.7-3.05 21.807-3.382 26.333-.141 1.925-.775 4.767-1.408 6.315-.634 1.548-1.152 3.701-1.152 4.783 0 1.083-1.145 4.227-2.544 6.988-3.023 5.966-5.152 24.526-3.528 30.756C20.151 157.203 23 175.435 23 183.692c0 2.714.684 10.082 1.52 16.372 1.273 9.571 1.435 21.222.992 71.436-.497 56.459-1.153 74.088-3.567 95.902-.553 5.004-1.216 12.248-1.472 16.098-.82 12.336-1.102 102.515-.365 116.5.391 7.425 1.031 23.4 1.421 35.5.391 12.1 1.071 27.85 1.512 35 .763 12.371.292 137.929-.56 149.5-.478 6.487-.588 78.687-.139 91 .406 11.128-.512 20.234-2.092 20.755-.911.3-1.25-1.285-1.25-5.838 0-3.438-.239-6.011-.531-5.719-.293.292-1.222 5.655-2.065 11.917-1.12 8.31-1.323 14.221-.752 21.885.43 5.775.938 9.033 1.129 7.241.191-1.793.99-4.493 1.777-6 1.222-2.343 1.447-2.45 1.551-.741.275 4.527.451 4.987 1.799 4.697 2.323-.499 3.061 1.898 3.077 9.994.015 7.522-1.201 10.854-2.485 6.809-.354-1.116-1.043-1.782-1.531-1.481-.488.302-1.738-1.111-2.779-3.139l-1.891-3.688-.775 5.404-.775 5.404-1.125-3.5c-1.007-3.135-1.154-2.405-1.412 7-.225 8.181.085 11.328 1.401 14.25.93 2.062 1.866 3.75 2.081 3.75.214 0 1.372-.915 2.572-2.033l2.183-2.034 1.364 3.784c1.002 2.78 1.202 6.699.754 14.783-.335 6.05-1.046 22.25-1.579 36-.533 13.75-1.173 28.6-1.423 33-1.2 21.111-1.898 67.372-1.997 132.299-.095 61.748-.308 71.429-1.589 72.269-.813.533-3.729.717-6.479.408l-5-.561 3 2.537c1.65 1.396 3.53 2.54 4.179 2.543 1.403.006 4.321 2.759 4.321 4.076 0 .511-1.012.965-2.25 1.008-1.238.043-1.687.306-1 .583 2.581 1.042 1.123 2.264-2 1.676l-3.25-.611 3.94 3.47 3.939 3.47-4.641 1.169-4.642 1.169 1.702 2.991c.936 1.645 2.232 2.994 2.879 2.998.648.003 2.064 1.132 3.147 2.509 1.846 2.347 1.969 4.168 1.98 29.25.007 15.925-.405 27.86-1.018 29.498-.674 1.8-.691 3.182-.051 4 .626.799.695 9.362.193 23.749-.433 12.375-1.3 45-1.927 72.5-.969 42.549-.91 54.396.397 79.5.845 16.225 1.771 42.1 2.057 57.5.566 30.37 1.442 41.805 4.464 58.296 1.079 5.887 2.248 13.854 2.597 17.704.874 9.642 4.249 22.584 6.526 25.028 4.171 4.477 5.18 10.013 4.482 24.597-.606 12.672-.5 13.949 1.527 18.261 2.839 6.038 10.648 12.984 17.469 15.535 9.284 3.474 42.059 8.178 70.98 10.188 17.835 1.24 60.731.756 91.5-1.031 9.075-.528 23.925-1.221 33-1.54 16.232-.572 21.08-.886 64-4.151 24.769-1.883 75.906-1.363 108 1.1 14.034 1.077 27.552 1.256 56 .74 20.625-.374 45.375-.691 55-.703 30.029-.041 108.252 1.585 112.475 2.337 2.214.395 6.95.544 10.525.331 3.575-.212 7.4-.344 8.5-.293 22.915 1.072 33.828 1.074 35.116.005 2.168-1.799 25.547-.393 29.724 1.788 4.233 2.21 50.13 3.341 109.16 2.689 73.158-.809 107.456-.329 118.704 1.662 6.421 1.137 36.812 4.214 73.296 7.422 14.85 1.306 37.501 3.404 50.335 4.662 20.728 2.033 23.632 2.125 26 .827 3.505-1.921 7.275-9.683 7.879-16.223.265-2.877.89-5.729 1.388-6.338 1.975-2.415 2.867-21.047 1.351-28.222-.387-1.832-1.333-3.572-2.104-3.867-1.066-.409-1.129-.865-.263-1.908.626-.753.89-2.388.587-3.633-1.317-5.416-1.82-13.763-.828-13.763.62 0 .873-1.895.633-4.75-.339-4.035-1.558-37.734-1.529-42.25.005-.825-.048-3.75-.119-6.5-.262-10.241-.154-11.297 1.511-14.807 1.295-2.727 1.557-5.04 1.096-9.639-.458-4.562-.279-6.179.728-6.569 1.346-.522 2.149-5.031 2.043-11.485-.203-12.459-1.032-21.821-2.111-23.828-.688-1.281-.922-3.081-.52-4 .402-.92.646-2.38.544-3.246-.103-.865.219-2.665.714-4 1.192-3.208-.701-9.459-5.914-19.527-4.313-8.333-5.049-10.311-5.382-14.476-.114-1.417-.444-2.992-.735-3.5-.671-1.174-1.966-6.246-2.339-9.16-.525-4.102-2.837-8.052-5.707-9.747-1.74-1.028-3.073-2.839-3.44-4.675-.4-2-1.462-3.326-3.194-3.984-1.427-.542-3.951-1.607-5.609-2.366-1.658-.758-5.265-1.687-8.015-2.063-2.75-.376-5.733-1.063-6.628-1.526-.896-.463-7.871-1.052-15.5-1.308-24.132-.81-40.893-3.508-41.921-6.749-.397-1.252-1.548-1.845-3.577-1.845-1.646 0-2.748-.395-2.45-.878.559-.903-3.235-1.437-21.505-3.031-5.82-.508-12.345-1.367-14.5-1.91-2.156-.543-8.644-1.301-14.419-1.684s-12.75-.872-15.5-1.088c-2.75-.215-11.975-.426-20.5-.468-8.525-.042-17.975-.473-21-.957-3.025-.485-9.775-1.136-15-1.448-10.484-.625-29.814-2.354-34.5-3.086-1.65-.258-7.05-.704-12-.991-4.95-.288-10.8-.715-13-.95-14.223-1.518-258.273-2.517-390.212-1.596-19.916.138-36.648-.018-37.181-.347-.534-.33-6.738-.131-13.789.44-7.05.572-23.393 1.483-36.318 2.024-12.925.541-28.225 1.455-34 2.032-5.775.577-13.947 1.31-18.161 1.63l-7.661.582-.672-5.387c-.669-5.362-.053-42.783 1.002-60.887.983-16.865 2.545-62.502 3.508-102.5.516-21.45 1.144-41.925 1.394-45.5 1.086-15.501 1.684-32.265 2.672-75 .579-25.025 1.223-48.875 1.431-53 .208-4.125.409-19.425.448-34 .038-14.575.474-27.139.969-27.921.769-1.215 3.052-1.242 15.735-.189 8.159.678 20.46 1.87 27.335 2.65 6.875.78 17.45 1.897 23.5 2.483 6.05.586 19.55 2.359 30 3.94 23.904 3.617 33.567 4.34 78.5 5.872 13.459.459 22.133.284 28-.563 4.675-.676 20.2-1.701 34.5-2.279 14.3-.577 30.95-1.467 37-1.976 17.157-1.445 38.184-1.524 39.839-.15.779.646 4.058 1.56 7.288 2.032 3.23.471 4.748.928 3.373 1.016-2.184.138-1.963.41 1.748 2.15 4.448 2.085 18.693 2.913 24.502 1.423 1.77-.454 2.75-.31 2.75.404 0 .613 1.675 1.11 3.75 1.113 2.063.003 9.008 1.121 15.434 2.485 13.549 2.876 26.644 4.065 28.787 2.615 2.13-1.443.571-2.465-1.813-1.19-1.107.593-2.608.867-3.336.609-.727-.258-5.785-.91-11.239-1.449-6.772-.67-10.42-1.493-11.5-2.594-1.715-1.747-1.09-1.699 7.917.61 6.96 1.785 14.192.646 12.569-1.979-.378-.612-1.785-1.112-3.128-1.112-1.544 0-2.441-.573-2.441-1.559 0-.857-.45-1.281-1-.941-.55.34-1 .216-1-.274 0-1.613 1.235-2.17 2.881-1.302.891.469 4.418 1.039 7.838 1.266l6.219.412-.552-2.551c-1.02-4.706-1.312-5.051-4.273-5.051-3.935 0-6.113-.918-6.113-2.576 0-.864.639-1.136 1.75-.745 1.429.502 1.52.368.5-.732-1.904-2.052-1.449-4.256 1.29-6.25 2.919-2.125 4.46-1.502 4.46 1.803 0 1.31.403 2.631.895 2.935 1.477.913 2.12-2.264 1.036-5.116-.557-1.465-.734-3.374-.392-4.241.977-2.485 1.261-15.352.392-17.703-1.173-3.169-.996-21.351.542-55.875 1.228-27.554 1.229-27.562 3.175-28.984 1.018-.745 1.894-2.628 1.945-4.185.051-1.557.64-5.39 1.308-8.518 1.812-8.484 2.282-15.044 1.023-14.266-.582.36-.947.046-.811-.697.136-.742-.255-3.066-.869-5.163-.938-3.199-.851-4.124.542-5.75.912-1.065 2.458-1.937 3.436-1.937 2.147 0 2.278-.891.35-2.39-2.045-1.59-2.511-7.213-.561-6.777.819.184 1.939.409 2.489.5.979.164 1.107-1.337.369-4.333-.265-1.079.327-1.422 2.11-1.221 1.96.22 2.221.021 1.25-.95-1.279-1.279-1.732-6.829-.558-6.829.369 0 1.497.747 2.506 1.661 2.398 2.169 3.21 1.215 2.444-2.87-.463-2.467-1.442-3.674-3.87-4.77-1.788-.807-3.588-1.367-4.001-1.244-.413.123-.75-.227-.75-.777s-.562-.888-1.25-.75c-.687.137-1.153-.265-1.036-.893.118-.629-1.119-1.696-2.75-2.372-3.261-1.351-3.771-3.321-1.458-5.634.947-.947 1.2-2.054.681-2.981-.454-.811-.629-2.813-.389-4.448.333-2.265.738-2.722 1.705-1.919.987.819 1.212.334 1.014-2.181-.139-1.779-.763-3.404-1.385-3.611-.623-.208-1.132-1.226-1.132-2.263 0-1.193.507-1.691 1.381-1.355 1.033.396 1.396-.513 1.439-3.605.031-2.274.531-4.705 1.11-5.403.579-.698.798-1.524.486-1.836-.903-.903 3.441-1.955 4.745-1.15.829.513.958.161.435-1.185-1.269-3.264-1.156-3.919.654-3.775 1.761.14 2.131-.66 1.801-3.896-.098-.966.525-2.027 1.385-2.357 2.458-.943 1.88-2.145-2.586-5.38-4.805-3.48-4.097-4.1.864-.756 1.835 1.237 3.591 3.23 3.902 4.428.31 1.197 1.222 2.43 2.026 2.738.819.314 1.193.126.851-.427-.336-.544-.134-.989.448-.989 1.733 0 1.201-5.565-.691-7.227-.962-.845-2.875-1.86-4.25-2.255-1.375-.396-4.975-2.098-8-3.783-3.025-1.685-6.625-3.159-8-3.276-1.375-.116-3.4-.54-4.5-.942-1.1-.401-.538.211 1.25 1.362 5.144 3.311 3.761 5.168-2.585 3.469-1.743-.467-1.996-.84-1-1.471 1.023-.649.926-.85-.415-.862-.962-.008-1.75.5-1.75 1.13 0 1.723-13.309.354-16.429-1.69-2.163-1.418-4.074-1.563-12.561-.956-9.935.711-11.53.333-8.363-1.983 1.393-1.018.899-1.306-3.203-1.869-5.697-.78-11.444-2.713-11.444-3.848 0-.439-.606-.799-1.346-.799-.741 0-2.826-.738-4.633-1.639-2.738-1.366-4.807-1.504-12.404-.823-5.014.449-12.717.886-17.117.972-4.4.086-8.975.474-10.166.864-1.191.389-2.411.311-2.711-.174-.299-.485-2.553-.912-5.008-.95-2.455-.037-5.51-.363-6.789-.724-1.804-.51-1.989-.421-.826.393 1.178.825.79 1.054-1.809 1.066-1.82.008-3.068-.375-2.773-.852.58-.938-6.394-2.133-12.451-2.133-2.413 0-3.958.535-4.329 1.5-.329.859-1.822 1.5-3.492 1.5-1.605 0-4.155.642-5.667 1.427l-2.75 1.426 3.386.356c1.862.196-2.015.291-8.615.21-17.93-.219-17.5-.162-17.5-2.336 0-1.054-.562-2.143-1.25-2.421-.687-.277.962-.54 3.667-.583 2.704-.043 4.665-.33 4.359-.637-.504-.503-9.808-1.253-23.276-1.876-10.74-.497-10.741-.497-10.138-2.066.405-1.058-.079-1.495-1.643-1.485-1.593.011-1.843.254-.888.859 2.242 1.422-3.761 2.002-9.831.949-3.025-.524-8.312-.894-11.75-.823-4.889.102-6.25-.19-6.25-1.339 0-1.152-2.246-1.622-10.427-2.179-12.055-.822-33.248-1.011-39.073-.349-2.2.25-5.574-.086-7.499-.746-1.924-.66-3.724-.86-4-.445-.275.415-5.593 1.039-11.816 1.387-9.264.517-11.741.353-13.66-.905-1.788-1.171-5.989-1.612-17.685-1.856-8.437-.176-16.015-.589-16.84-.918-.825-.33-7.575-.811-15-1.07-16.099-.561-32.626-1.864-33.388-2.631-.302-.304-.063-17.629.531-38.5.638-22.456.781-53.463.351-75.949-.865-45.177-.946-47.546-1.857-54-1.169-8.282-2.276-23.269-3.065-41.505-.083-1.928-.498-4.066-.921-4.751-.423-.685-.838-16.287-.921-34.673-.084-18.513-.538-33.19-1.017-32.894-.476.295-.785-5.7-.687-13.321.098-7.621.157-14.756.131-15.856-.419-17.377.015-45.696.734-48 .833-2.665.958-2.331 1.123 3 .102 3.3.546 7.125.986 8.5l.801 2.5.099-2.75c.055-1.512.57-2.75 1.144-2.75s.971-.562.881-1.25c-.089-.687-.045-3.95.097-7.25.209-4.819.43-3.769 1.124 5.338.548 7.195 1.41 12.118 2.359 13.473 1.358 1.938 1.495.876 1.495-11.569 0-13.418.047-13.713 2.25-14.13 1.237-.235 4.554-.897 7.371-1.472s8.285-.78 12.151-.456c11.293.947 50.281-3.562 67.228-7.775 4.125-1.025 12.788-2.167 19.25-2.536 6.463-.37 11.75-.943 11.75-1.273-.001-.5 27.455-.536 29-.039.275.089 2.075.29 4 .447 1.925.158 6.65.991 10.5 1.852 8.11 1.815 23.057 2.166 24.047.565.436-.707 3.285-.861 8.309-.45 9.728.796 12.365 1.359 11.666 2.49-.309.499 1.586 1.189 4.209 1.535 2.623.346 6.119.826 7.769 1.067 2.442.356 2.628.264 1-.493-1.1-.512-3.35-1.26-5-1.663-4.724-1.151-.334-1.733 7.085-.939 4.554.488 6.159 1.033 5.799 1.97-.583 1.519 2.591 2.552 7.616 2.481 3.195-.045 3.296-.132 1.158-.988-1.289-.517-2.7-.718-3.137-.448-.437.27-1.35-.179-2.03-.998-1.06-1.277-.684-1.477 2.637-1.401 2.129.048 6.122.401 8.872.785l5 .699-4 .879-4 .88 4.797.758c5.031.796 14.483 4.283 18.656 6.882 1.984 1.236 6.2 1.529 22 1.529 17.506 0 19.519-.17 19.281-1.629-.298-1.827 2.36-2.817 7.766-2.893 1.925-.027 4.625-.692 6-1.478 3.279-1.874 6.803-1.851 10.486.069 2.32 1.21 4.603 1.406 10.237.878 3.988-.374 7.006-1.077 6.705-1.563-.3-.486 1.757-.884 4.572-.884 2.815 0 4.875.392 4.579.872-.739 1.196 8.686 2.196 9.871 1.048.583-.565-.768-.926-3.5-.935-3.239-.011-4.042-.279-2.95-.984 1.425-.919 6.761-.524 10 .741 2.176.849 4.71.999 22.663 1.34 12.958.246 16.51.02 17.907-1.138 1.053-.873 4.151-1.49 7.836-1.56 3.352-.064 7.982-.713 10.29-1.442 4.315-1.364 12.18-.668 21.804 1.93 4.835 1.306 27.671 1.322 36 .026 3.3-.514 8.576-1.204 11.725-1.534 6.714-.704 17.734.425 15.802 1.619-2.702 1.67 11.128 2.808 17.713 1.457 4.474-.917 3.076-2.44-2.24-2.44-2.41 0-4.617-.381-4.905-.846-.692-1.12 28.775-2.25 33.905-1.3 2.2.407 5.489.298 7.308-.242 5.232-1.555 43.291.803 44.73 2.771.685.937 1.947 1.303 3.287.952 3.493-.913 2.501.514-1.075 1.546-2.907.84-2.583.948 3.067 1.029 5.881.084 6.274-.048 5.683-1.91-.578-1.822-.18-2 4.492-2 3.163 0 4.889.383 4.508 1-.34.55-1.379 1.007-2.309 1.015-.93.009-2.366.477-3.191 1.041-1.036.707 3.529.827 14.75.387 11.513-.452 16.25-.318 16.25.46 0 1.372 3.663 1.451 4.5.097.825-1.335 4.5-1.284 4.5.063 0 .584.788.983 1.75.885 3.231-.329 4.25.043 4.25 1.552 0 2.157 6.606 2.027 7.826-.154.751-1.341 2.407-1.627 8.744-1.506 4.3.082 8.538.377 9.416.656.879.279 8.104 1.616 16.056 2.971 7.952 1.356 22.108 4.052 31.458 5.991 9.405 1.951 19.904 3.523 23.5 3.517 9.528-.014 23.536-3.199 26.81-6.095 3.637-3.218 7.19-5.143 7.19-3.896 0 .551 1.8.931 4 .845 4.462-.175 4.788-.523 2.25-2.408-2.87-2.13.248-4.24 5.437-3.677 3.622.393 4.337.879 5.301 3.605.974 2.753 1.241 2.93 2.113 1.401.549-.963 1.711-1.75 2.583-1.75 4.8 0 9.523-2.486 11.285-5.939 2.774-5.438 4.454-21.477 3.502-33.432-.444-5.571-.884-21.154-.977-34.629-.167-24.111-1.977-70.192-3.103-79-.317-2.475.126-8.775.984-14 1.76-10.722 2.242-25.066 1.091-32.453-.72-4.623-.844-4.789-1.855-2.5-.897 2.029-1.182.637-1.652-8.047-.312-5.775-.662-9.15-.777-7.5-.301 4.319-1.292 7.55-2.151 7.019-.408-.252-.529.655-.269 2.017.26 1.362.017 3.035-.54 3.72-1.008 1.238-1.531 4.353-2.808 16.744-1.267 12.284-2.427 9.708-1.803-4 .339-7.425.695-18.29.792-24.144.115-6.991.619-11.178 1.467-12.2.71-.855 1.159-2.815.998-4.356-.475-4.523 1.564-3.873 2.353.75.76 4.447 1.779 6.486 1.779 3.558 0-.949.418-1.468.928-1.152 1.945 1.202 2.415-9.901.478-11.299-.5-.362-1.542-1.885-2.316-3.386-1.11-2.155-1.899-2.606-3.748-2.142-1.401.352-2.342.142-2.342-.521 0-.609.54-.995 1.201-.858 1.303.271 1.199-7.335-.113-8.25-1.19-.829-1.321-9.262-.134-8.528 1.861 1.15 1.107-2.107-.909-3.932-1.336-1.209-3.064-1.64-5.454-1.361-3.129.365-3.53.14-3.803-2.135-.168-1.399-.02-4.258.33-6.354.481-2.885.323-3.689-.653-3.315-.994.381-1.082-.223-.386-2.65.569-1.983.536-3.51-.089-4.135-.544-.544-.99-1.97-.99-3.168 0-1.197-.648-2.715-1.441-3.373-.792-.657-1.209-1.797-.927-2.532.298-.777-.41-1.629-1.692-2.036-1.555-.494-1.836-.927-.955-1.472.94-.581.678-1.546-1.061-3.897-1.476-1.997-2.657-2.779-3.27-2.166-1.517 1.517-9.145-3.343-8.044-5.124.28-.452-.146-.822-.946-.822-.8 0-2.514-1.117-3.809-2.483-1.295-1.365-2.862-2.49-3.483-2.5-.62-.009-1.687-.692-2.372-1.517-.685-.825-2.45-1.5-3.922-1.5-1.473 0-3.105-.352-3.628-.783-.522-.431-2.3-.638-3.95-.46m-276.966 8.187c-.256.415 2.771.849 6.726.965 3.956.115 6.978.019 6.716-.214-.923-.822-12.981-1.495-13.442-.751M631 41c-1.135.734-.695.973 1.809.985 1.955.009 3.056-.394 2.691-.985-.776-1.256-2.556-1.256-4.5 0m-524.345 1.208c-.626.39-2.158.453-3.403.14-1.246-.312-3.883-.265-5.861.107-3.308.62-3.449.782-1.755 2.021 1.013.741 2.297 1.062 2.853.713 1.676-1.049 3.565-1.233 14.261-1.386 5.638-.081 10.25-.484 10.25-.896 0-.982-14.868-1.618-16.345-.699m25.916.678c-.301.487.583 1.101 1.965 1.366 2.842.543 4.285-.723 1.876-1.647-2.171-.834-3.199-.758-3.841.281m614.572-.024c-2.319 1.518.204 2.064 8.696 1.883 9.197-.196 11.31-1.738 2.411-1.759-3.163-.007-6.65-.238-7.75-.513-1.1-.274-2.611-.099-3.357.389M791 43.943c0 1.404.554 1.835 2 1.557 1.1-.212 2 .074 2 .634 0 .64-2.698.853-7.25.571-5.666-.351-7.321-.805-7.573-2.077-.255-1.284-1.574-1.628-6.25-1.628-7.629 0-7.786 1.94-.177 2.185l5.75.185-5.25.367c-2.888.202-5.25.794-5.25 1.315 0 .844 11.4 1.515 16.445.967 2.73-.296 9.598 2.102 8.963 3.13-.289.468.427.851 1.592.851 1.336 0 1.857-.423 1.41-1.145-.526-.852 3.747-.99 16.691-.539 12.675.442 16.584.323 14.399-.438-1.65-.575-7.05-1.389-12-1.811l-9-.766 7-.261 7-.261-5.5-1.495c-3.025-.822-7.023-1.443-8.885-1.379-1.862.063-4.034-.423-4.827-1.081-1.132-.939-1.655-.888-2.44.24-.763 1.095-1.121 1.14-1.507.186-.279-.687-1.258-1.243-2.174-1.235-1.442.014-1.464.147-.167.985 1.151.744.802.969-1.5.969s-2.651-.225-1.5-.969c1.282-.828 1.246-.972-.25-.985-1.071-.009-1.75.738-1.75 1.928m-644.5.114c5.826 1.205 15.391 1.165 13.5-.057-.825-.533-5.1-.925-9.5-.87-6.922.087-7.461.211-4 .927m56.5 1.007c-2.071.61-1.78.754 1.691.836 2.305.055 4.434-.294 4.732-.775.649-1.05-2.948-1.084-6.423-.061m443.863.83c1.151.729 1.151.935 0 1.319-.75.251-.155.688 1.322.97 1.477.283 3.277.14 4-.319.923-.585.626-.838-.994-.849-1.282-.008-2.034-.46-1.691-1.015.345-.558-.403-.993-1.691-.985-1.685.011-1.94.249-.946.879m34.637.161c-1.363.548-.115.827 3.917.875 3.254.038 5.729-.091 5.5-.288-1.047-.9-7.62-1.31-9.417-.587m-208.731 1.721c-.673 2.573 1.653 3.172 2.613.672.327-.854.189-1.301-.308-.994-.497.307-1.088.005-1.313-.672-.226-.677-.672-.23-.992.994m4.261-.098c-.026 1.897.712 2.282 5.72 2.982 3.163.443 6.313.75 7 .684.688-.067 1.311 1.066 1.386 2.517.122 2.356.183 2.398.57.389.238-1.237.964-2.327 1.614-2.421 1.511-.219 4.586-.507 7.342-.687 1.452-.096 2.075-.716 1.897-1.892-.215-1.427-1.076-1.684-4.661-1.393-2.419.197-4.673.797-5.009 1.334-.336.537-.892.245-1.235-.65-.489-1.274-1.048-1.401-2.573-.584-2.826 1.512-6.053 1.279-6.731-.486-.513-1.337-.743-1.316-1.826.165-1.153 1.578-1.316 1.562-2.351-.22-1.063-1.831-1.114-1.82-1.143.262m261.629-.443c-1.538.975 15.002.748 18.841-.258 1.921-.504-.718-.731-7.341-.632-5.687.085-10.862.486-11.5.89m23.694-.098c1.293.752 2.5.763 4 .038 1.873-.907 1.637-1.044-1.853-1.077-3.328-.031-3.689.144-2.147 1.039M731.5 48c.34.55 1.266 1 2.059 1 .793 0 1.441-.45 1.441-1s-.927-1-2.059-1c-1.132 0-1.781.45-1.441 1m357.976.619c.891.891 1.868 1.37 2.172 1.067.89-.891-.633-2.686-2.278-2.686-1.306 0-1.292.221.106 1.619m-629.714.088c1.244.239 3.044.23 4-.02s-.062-.446-2.262-.435c-2.2.011-2.982.216-1.738.455m236.738 2.35c5.488 1.136 7.5 1.12 7.5-.057 0-.564-2.507-.95-5.75-.885-5.689.114-5.707.124-1.75.942m-234.838 1.561c-1.562.846-2.636 1.741-2.389 1.988.754.755 5.727-1.487 5.727-2.581 0-1.258.116-1.279-3.338.593M1073.5 52c-.362.585.676 1 2.5 1 1.824 0 2.862-.415 2.5-1-.34-.55-1.465-1-2.5-1s-2.16.45-2.5 1m-327.498 1.25c-.001.413 4.525.75 10.057.75 6.637 0 9.843-.35 9.423-1.028-.727-1.178-19.478-.909-19.48.278m22.582-.332c.872.872 11.416.772 11.416-.108 0-.431-2.695-.708-5.988-.618-3.293.091-5.736.418-5.428.726M1070 53.969c0 1.441.455 1.794 1.699 1.316 1.073-.411 1.255-.8.494-1.054-.663-.221-.951-.813-.64-1.316.311-.503.088-.915-.494-.915s-1.059.886-1.059 1.969M453 54l-3.5.737 3.191.131c1.755.073 3.469-.318 3.809-.868.34-.55.479-.941.309-.868-.17.072-1.884.463-3.809.868m269 0c0 1.174.769 1.174 3.5 0 1.772-.762 1.687-.867-.75-.93-1.513-.038-2.75.38-2.75.93M34.5 60c-.738 1.194 1.222 1.194 4 0 1.786-.767 1.712-.867-.691-.93-1.48-.038-2.969.38-3.309.93m709 3.068c-1.629.645-1.397.804 1.25.862 3.38.073 4.145-.38 2-1.185-.687-.257-2.15-.112-3.25.323m253.5-.309c0 .418.795 1.256 1.767 1.863 1.319.824 2.064.784 2.944-.157.919-.985.697-1.39-1.017-1.849-2.94-.789-3.694-.759-3.694.143m-259.457 1.172c-1.002 1.621 1.175 2.114 2.466.558 1.005-1.211.944-1.489-.328-1.489-.859 0-1.822.419-2.138.931m230.573 1.319c.087 1.693.229 1.817.573.5.485-1.853 2.311-2.446 2.311-.75 0 .55.436 1 .969 1 .532 0 .709-.675.393-1.5-.949-2.471-4.381-1.865-4.246.75m85.145 16.933c-.073.977.288 2.038.803 2.356.515.319.936-.091.936-.91 0-.82 1.013-1.651 2.25-1.847 1.881-.298 1.749-.441-.802-.867-2.421-.405-3.081-.143-3.187 1.268m6.739 3.666c0 1.097 3.529 2.143 7 2.074l2.5-.05-2.5-1.088c-3.562-1.55-7-2.01-7-.936m74.75 2.928c-.963.203-1.75.54-1.75.749 0 1.058 2.41 5.474 2.987 5.474.367 0 .468 1.35.226 3-.242 1.65-.051 3 .424 3 1.067-.001 1.568-9.862.58-11.444-.394-.632-1.504-.983-2.467-.779M1046 101.191c-1.375.527-4.221.689-6.324.36-2.745-.429-3.623-.274-3.113.551.704 1.139 10.985.684 12.209-.541 1.116-1.115-.325-1.308-2.772-.37m-32.333.476c-.315.314.103 1.246.928 2.071.825.825 1.757 1.243 2.072.929.314-.315-.104-1.247-.929-2.072-.825-.825-1.757-1.243-2.071-.928m38.475 1.188c1.541 2.468 3.858 2.856 3.858.645 0-.825-.413-1.5-.918-1.5-.505 0-1.675-.29-2.599-.645-1.489-.571-1.528-.399-.341 1.5m-43.725 1.279c-.294.476.842.866 2.524.866s3.059-.173 3.059-.383c0-.849-5.085-1.288-5.583-.483m128.443-.66c-.348.347.018 2.745.814 5.329.795 2.583 1.25 6.047 1.011 7.697-.239 1.65-.072 3.9.37 5 .515 1.279.814-.702.83-5.5.023-7.069-1.631-13.921-3.025-12.526m-109.199 3.609c-.981 1.146-2.431 1.835-3.223 1.532-.791-.304-1.438-.156-1.438.328s-.788.729-1.75.545a642.87 642.87 0 0 0-2.25-.427c-.275-.05.162-.51.971-1.022.809-.512 1.139-1.262.733-1.668-1.095-1.096-2.486.734-3.139 4.129-.317 1.65-.312 2.438.012 1.75 1.346-2.854 7.884.386 6.749 3.344-.379.986.238 1.406 2.067 1.406 1.434 0 2.614.563 2.622 1.25.011.847.316.775.946-.221 1.303-2.06 1.957-1.024 1.35 2.138-.336 1.751-1.336 2.873-2.912 3.269-1.319.331-2.399 1.004-2.399 1.495 0 .491-1.143.767-2.539.614-1.523-.167-2.39.168-2.167.838.589 1.77 3.319 1.861 5.013.167 1.698-1.698 3.151-2.1 2.236-.619-.317.512-.118 1.213.441 1.559.559.345 1.03-.186 1.048-1.181.029-1.668.155-1.653 1.615.191 1.096 1.386 1.726 1.616 2.051.75.258-.687 1.092-1.25 1.854-1.25.818 0 1.15.612.812 1.494-.316.822-.896 1.295-1.29 1.051-.395-.243-1.512.485-2.483 1.619-1.271 1.485-1.461 2.366-.678 3.149.783.783 1.087.63 1.087-.543 0-.919.964-1.77 2.209-1.95 1.356-.197 2.476-1.285 2.9-2.82.381-1.375.736-1.938.791-1.25.055.687.438 1.197.85 1.132 2.95-.466 4.34.258 3.795 1.977-.353 1.111.08 2.415 1.077 3.242 1.49 1.237 1.591 1.146.955-.859-.434-1.367-.295-2.242.356-2.242.587 0 1.067-.895 1.067-1.988 0-1.283-.621-1.936-1.75-1.842-3.873.325-5.456-.19-4.916-1.597.301-.785-.135-1.993-.97-2.686-1.23-1.02-1.688-.987-2.425.177-.507.802-.915.935-.924.301-.008-.624 1.11-1.872 2.485-2.773 1.375-.901 2.5-1.178 2.5-.615s-.482 1.023-1.071 1.023c-1.934 0 1.459 2.596 5.005 3.829 2.363.823 3.635.868 4.081.147.356-.576 1.95-1.284 3.543-1.572 3.685-.668 4.126-1.143 2.479-2.671-1.056-.979-1.185-.975-.625.017.972 1.722-.235 1.57-2.064-.259-1.678-1.678-3.784-1.025-2.672.828.403.673-.02.59-.984-.191-1.983-1.609-2.233-2.52-.442-1.613.688.348.536.037-.338-.691-.873-.728-1.888-1.999-2.254-2.824-.367-.825-.51-.304-.319 1.159.371 2.828-1.678 3.007-2.74.239-.393-1.025-1.364-1.253-3.327-.782-1.525.366-2.45.318-2.057-.107.393-.424.055-1.713-.75-2.863-1.794-2.56-1.917-4.241-.215-2.924 1.939 1.501 4.941 2.397 4.243 1.267-.336-.544-.006-.989.734-.989.739 0 1.344-.9 1.344-2 0-2.327-1.108-2.649-1.912-.554-.402 1.048-1.531 1.287-4.107.869-2.486-.404-3.552-.201-3.552.677 0 .935-.341.97-1.342.139-.738-.612-1.694-.78-2.124-.372-.43.407-.471-.272-.091-1.509.858-2.791.494-2.825-1.782-.167m-19.545-.398c-.064.652-1.675 1.749-3.581 2.439-4.794 1.733-5.305 3.676-.968 3.676 2.152 0 3.184-.393 2.775-1.056-.437-.706.475-.845 2.753-.418 2.864.537 3.146.439 1.772-.619-.899-.691-1.859-2.146-2.134-3.232-.276-1.086-.553-1.442-.617-.79m6.634 1.102c-1.861.382-2.556 5.213-.75 5.213.55 0 1-.638 1-1.417s.518-1.589 1.15-1.8c1.809-.603.551-2.396-1.4-1.996m33.5 1.919c-1.237.238-2.25.904-2.25 1.48s.878.818 1.952.537c1.074-.281 2.163.004 2.421.633s.505.131.548-1.106c.043-1.237-.033-2.189-.171-2.114-.138.075-1.263.331-2.5.57m-27.012 6.284c-1.644 2.632-1.562 3.072.426 2.309 1.119-.43 1.427-.256.941.531-.398.644-.246 1.17.336 1.17 1.182 0 1.268-1.616.227-4.246-.639-1.615-.785-1.597-1.93.236M1008 117c0 1.1.525 2 1.167 2 .641 0 .87-.296.508-.658-.362-.362-.156-1.262.456-2 .854-1.029.735-1.342-.509-1.342-.955 0-1.622.822-1.622 2m49.667-.333c-1.378 1.377-.636 4.333 1.083 4.318 1.287-.012 1.41-.231.466-.83-.708-.449-.996-1.564-.643-2.485.662-1.724.26-2.169-.906-1.003m-4.805 18c-.609.733-.688 1.333-.176 1.333.513 0 1.752-.6 2.755-1.333 1.597-1.168 1.619-1.334.175-1.334-.906 0-2.146.6-2.754 1.334M1121.31 312.5c.005 3.3.192 4.529.415 2.732.222-1.797.218-4.497-.01-6-.229-1.503-.411-.032-.405 3.268m-386.739 27.224c-2.367.603-4.699 2.815-3.857 3.657 1.097 1.096 16.46.709 15.776-.397-.346-.559-1.047-.758-1.559-.441-1.347.832-1.145-.929.269-2.343.933-.933.1-1.174-3.75-1.084-2.723.064-5.818.337-6.879.608m-253.006 8.171c-.695 1.124 2.261 2.331 3.632 1.483.638-.394.511-.948-.34-1.488-1.748-1.107-2.606-1.106-3.292.005m416.84 1.26c-.468.756-.272.881.57.36.856-.528 1.132-.329.827.596-.28.85-2.559 1.617-5.88 1.976-4.324.468-3.358.62 4.769.75 10.091.161 14.674-1.214 8.295-2.49-2.22-.444-2.755-.878-1.817-1.473.863-.547.034-.849-2.36-.859-2.03-.008-4.012.505-4.404 1.14M745 352.693c0 1.271 2.176 3.307 3.533 3.307.624 0 1.134-.675 1.134-1.5s-.339-1.5-.752-1.5-1.463-.273-2.333-.607c-.87-.334-1.582-.199-1.582.3m13 .421c0 .708 7.777 1.886 12.448 1.886 1.744 0 3.964-.581 4.934-1.29 1.486-1.086.249-1.284-7.808-1.25-5.265.022-9.573.316-9.574.654m43 1.053c0 1.134 6.706 2.142 9.943 1.494 1.58-.316 4.369-.145 6.198.379 1.828.525 6.106 1.155 9.506 1.401 5.001.361 6.298.144 6.791-1.14.335-.873.486-1.698.336-1.832-.727-.652-32.774-.947-32.774-.302m62-.106c0 .696 1.634.824 4.75.372 6.458-.937 6.602-1.433.417-1.433-2.977 0-5.167.45-5.167 1.061m83-.155-2.5.707 2.346.625c2.605.694 5.154.029 5.154-1.345 0-1.013-1.383-1.01-5 .013M902 355l-7.5.64 7 .165c3.85.09 7.675-.272 8.5-.805.825-.533 1.05-.895.5-.805-.55.091-4.375.453-8.5.805m-31.341 2.095c1.877.544 5.326.554 8.5.027 5.235-.871 5.173-.889-3.159-.915-6.743-.021-7.847.162-5.341.888m25.091 3.694c-4.812.159-8.75.708-8.75 1.22 0 1.111 25.798.182 27.945-1.006 1.423-.788-.989-.815-19.195-.214m-598.239 97.329c-.779 14.701-.53 19.512.989 19.131 1.131-.285 1.507-29.62.403-31.407-.376-.608-1.003 4.916-1.392 12.276m7.257 283.607c1.797.222 4.497.218 6-.01 1.503-.229.032-.411-3.268-.405-3.3.005-4.529.192-2.732.415m12.232.144c0 .81 8 .382 8.917-.478.229-.215-1.684-.391-4.25-.391-2.567 0-4.667.391-4.667.869m132.75 1.837c1.238.238 3.262.238 4.5 0 1.238-.239.225-.434-2.25-.434s-3.488.195-2.25.434M11.742 842c-.776 4.275-.788 6.732-.049 10l.566 2.5.694-2.5c.382-1.375.408-4.975.059-8-.604-5.236-.665-5.332-1.27-2m643.363 151.085c-1.318.527-2.167 1.186-1.889 1.464.584.584 5.784-1.236 5.784-2.024 0-.722-1.078-.567-3.895.56M675 1008c0 1.333.667 2 2 2s2-.667 2-2-.667-2-2-2-2 .667-2 2m-11.75 5.716c1.513.229 2.75.837 2.75 1.35 0 .514.436.934.969.934.532 0 .709-.675.393-1.5-.363-.944-1.741-1.444-3.719-1.35-3.023.144-3.038.166-.393.566M894 1676.966c2.478.827 9.718 1.37 8.917.669-.229-.2-2.892-.62-5.917-.933-3.551-.368-4.614-.274-3 .264" fill-rule="evenodd"/></svg>