<svg xmlns="http://www.w3.org/2000/svg" width="595" height="842"><path d="M248.362 42.5c-.323.841-1.811 1.5-3.386 1.5-1.545 0-3.013.563-3.262 1.25-.347.959-.906.984-2.399.107-1.229-.722-2.542-.81-3.564-.238-1.007.564-1.854.524-2.243-.107-.344-.556-1.949-1.012-3.567-1.012H227l-.079 29.25c-.044 16.088.068 77.4.25 136.25.181 58.85.329 128 .329 153.666 0 34.654.292 46.423 1.133 45.724 1.771-1.471 2.367 1.345 2.367 11.192 0 4.905.416 8.918.923 8.918.508 0 .362 1.237-.324 2.75-1.278 2.818-.571 27.648 1.246 43.75.682 6.048.928 6.67 1.81 4.571.87-2.067 1.024-1.621 1.04 3 .01 2.986.195 11.167.412 18.179.216 7.013.02 12.751-.436 12.75-.457 0-.497 1.462-.09 3.25.781 3.432 1.273 16.689 1.811 48.75.364 21.673.41 22.01 5.184 37.5 1.865 6.05 4.034 13.817 4.821 17.261 1.362 5.958 1.337 6.311-.511 7.3-1.068.572-1.712 1.412-1.43 1.868.638 1.031 17.304 3.527 37.044 5.547 8.25.844 16.812 1.735 19.028 1.98 2.215.244 9.415-.049 16-.652 6.584-.604 17.708-1.009 24.72-.9 7.247.113 13.504-.242 14.5-.823.971-.565 1.195-1.034.502-1.051-1.526-.037-1.775-11.03-.25-11.03.55 0 1-.878 1-1.95 0-1.073.708-2.347 1.573-2.831 3.358-1.879 3.595-53.487.401-87.219-.598-6.325-2.626-25.021-4.505-41.546-4.433-38.979-9.182-87.023-9.979-100.954-.347-6.05-1.273-16.85-2.059-24-2.409-21.924-1.77-66.655 2.073-145 .809-16.5 1.746-35.85 2.081-43 1.188-25.295-2.458-61.385-8.229-81.475-5.284-18.393-16.578-36.533-27.64-44.397-4.91-3.491-6.154-3.905-12.635-4.208-3.954-.185-10.993-1.307-15.644-2.493-5.022-1.281-9.568-1.891-11.196-1.502-3.269.782-3.679.799-8.435.361-2.031-.187-4.019-.665-4.416-1.063-1.434-1.434-10.423-.8-11.028.777M299.5 664.057c-9.367.921-40.553 4.654-46.303 5.543-1.816.281-3.541 1.133-3.833 1.894-.292.761-1.806 1.664-3.364 2.006-3.268.718-4.425 2.838-3 5.5 1.047 1.956.388 5-1.082 5-.48 0-.461 1.071.041 2.393 1.076 2.83.267 6.782-1.618 7.907-2.047 1.22-1.597 2.58.659 1.99 1.391-.364 2-.031 2 1.093 0 .89-.675 1.617-1.5 1.617-1.763 0-1.99 1.579-.372 2.579.784.485.669.955-.377 1.541-1.237.692-1.451 2.928-1.192 12.513.222 8.274.696 11.908 1.627 12.488 1.085.675 1.084 1.189-.004 2.944-1.102 1.777-1.085 2.398.102 3.781 1.159 1.349 1.254 3.479.52 11.557-.495 5.447-.582 10.622-.193 11.5.388.878.619 1.982.513 2.452-.107.471.366 1.53 1.051 2.355 1.032 1.244 3.005 1.38 11.564.797 6.791-.463 10.754-.342 11.592.353.7.58 4.469 1.583 8.376 2.229 13.401 2.213 73.734-1.153 82.512-4.603 2.506-.985 7.595-9.122 9.303-14.872 1.772-5.967 2.163-45.072.462-46.124-.559-.346-.795-.987-.524-1.425.271-.439-.397-1.603-1.484-2.586-1.301-1.178-1.976-3.074-1.976-5.551 0-2.069-.474-3.919-1.053-4.112-1.202-.401-3.012-7.418-2.138-8.292 1.3-1.3 1.084-4.628-.336-5.173-1.253-.48-1.297-.86-.249-2.13 1.015-1.23 1.02-1.632.026-1.967-.687-.231-1.25-1.332-1.25-2.447 0-1.725-.518-1.965-3.484-1.619-1.917.224-3.641-.065-3.833-.641-.448-1.344-38.752-1.711-51.183-.49" fill-rule="evenodd"/></svg>