<svg xmlns="http://www.w3.org/2000/svg" width="1240" height="1753"><path d="M344.5 26.521c-.55.2-12.7.849-27 1.442-25.48 1.056-48.502 3.372-87.5 8.805-19.049 2.653-20.669 2.718-70 2.772l-50.5.055-8.88 2.803c-12.057 3.805-20.862 7.93-22.378 10.483-.693 1.165-1.86 2.119-2.595 2.119-.736 0-2.194 1.005-3.242 2.233-1.342 1.573-1.414 1.854-.244.951 1.29-.995 1.828-1.011 2.409-.071.666 1.078-1.286 3.296-4.997 5.677-.609.39-2.351 2.224-3.871 4.074-2.686 3.268-2.919 6.676-.56 8.199.48.31-.297 1.58-1.725 2.822-2.086 1.814-2.457 2.786-1.882 4.937.394 1.473.661 3.353.594 4.178-.067.825-.108 5.55-.092 10.5s-.461 17.55-1.06 28c-.9 15.702-3.185 114.894-3.006 130.5.028 2.475 1.001 7.725 2.161 11.668 1.839 6.246 2.653 7.557 6.333 10.199l4.223 3.033.586 15.8c.322 8.69.605 38.3.629 65.8.049 55.095.838 102.206 2.086 124.5.447 7.975.867 25.075.934 38 .067 12.925.554 25.975 1.082 29 1.694 9.703 3.043 33.345 2.092 36.662-.968 3.374-1.731 18.66-2.588 51.838-.298 11.55-.981 26.4-1.517 33-1.616 19.899-3.147 56.071-3.504 82.791-.287 21.469-1.505 56.853-4.002 116.209-2.128 50.61-3.246 96.653-2.93 120.765.203 15.529-.061 37.46-.587 48.735-1.544 33.137-2.826 81.282-3.462 130-.326 25.025-.787 47.3-1.024 49.5-.237 2.2-.884 10.525-1.438 18.5a3072.936 3072.936 0 0 1-2.178 29c-.712 8.813-1.118 33.522-1.034 63 .076 26.675-.347 61.1-.941 76.5-1.851 48.053-1.732 70.211.604 113 .422 7.729.095 19.32-.92 32.564-.867 11.31-1.464 26.879-1.326 34.597.265 14.896.782 16.64 5.459 18.418 2.715 1.033 2.761 1.761 1.162 18.423-.641 6.673-.839 15.342-.448 19.525.659 7.024.92 7.67 3.953 9.748 1.786 1.224 3.557 2.225 3.936 2.225.378 0 .768-3.937.866-8.75l.178-8.75.572 9.834c.473 8.131.904 10.076 2.49 11.233 2.387 1.742 4.582.253 4.582-3.109 0-1.864.896-2.579 4.75-3.793 2.612-.822 7.902-1.554 11.755-1.626 7.171-.133 19.345 2.124 20.404 3.784.325.509 2.022 1.236 3.772 1.616 1.749.379 3.678 1.289 4.286 2.021.607.732 2.755 1.64 4.772 2.019 2.017.378 5.369 1.556 7.448 2.616 5.964 3.043 29.107 5.015 61.313 5.223 32 .208 51.549-.306 53-1.394.55-.412 3.925-1.044 7.5-1.404 3.575-.36 6.927-1.074 7.45-1.587 1.307-1.284 4.911-1.172 6.277.194.7.7 2.195.838 3.95.363 1.553-.419 7.548-.814 13.323-.876 13.15-.143 15.725-1.311 26.343-11.958l7.871-7.892 9.143-.232c13.1-.334 18.797-3.383 21.547-11.532 1.73-5.126 2.556-84.187.994-95.2-1.371-9.675-2.014-94.691-.879-116.3.404-7.7 1.059-40.55 1.455-73 .395-32.45.935-59.35 1.198-59.777.263-.427.624-45.877.802-101 .178-55.123.645-109.223 1.038-120.223.434-12.123.273-27.286-.407-38.5-1.083-17.856-4.288-47.147-5.658-51.724-.61-2.034-.337-2.219 3.193-2.175 8.464.106 23.133 4.839 21.781 7.027-.297.48 1.063.872 3.02.872s3.559.479 3.559 1.063c0 1.341 45.911.958 47.758-.398.692-.508 3.392-.641 6-.297 7.56.999 69.649 2.624 135.242 3.541 48.68.68 63.919.574 78-.547 9.625-.766 25.037-1.498 34.25-1.627 11.76-.165 16.75-.576 16.75-1.378 0-1.39 2.31-2.357 5.631-2.357 3.26 0 8.052-2.539 9.342-4.95.568-1.061.84-2.969.604-4.24-.236-1.27-.462-2.872-.503-3.56-.041-.687-1.087-1.257-2.324-1.265-4.199-.029-4.926-1.45-1.712-3.348 2.953-1.745 3.289-4.084.43-2.986-1.7.652-1.955-.764-.416-2.303 1.371-1.371 1.941-11.234.695-12.005-.556-.343-.388-.97.396-1.487 1.115-.734 1.063-1.12-.288-2.158-1.417-1.09-1.455-1.525-.271-3.143.831-1.137 1.118-2.892.728-4.449-.355-1.414-.645-3.16-.645-3.881 0-.721-.563-1.095-1.251-.831-2.088.801-2.582-2.55-.69-4.684 1.736-1.958 1.709-1.989-1.222-1.447l-2.996.554 2.496-2.075c1.551-1.288 1.833-1.834.746-1.439-.962.349-1.75.198-1.75-.334 0-.533.852-.969 1.893-.969s2.171-.725 2.511-1.611c.443-1.153.189-1.447-.893-1.032-.831.319-1.511.144-1.511-.388 0-.533-.675-.969-1.5-.969-2.943 0-1.439-1.879 1.75-2.187 2.858-.275 3.288-.705 3.563-3.563.173-1.788.735-3.25 1.25-3.25.516 0 .937-.675.937-1.5s-.705-1.5-1.567-1.5c-1.167 0-1.388-.575-.866-2.25.387-1.238 1.204-2.622 1.818-3.076.804-.596.766-.968-.135-1.333-.687-.279-1.25-1.37-1.25-2.424 0-1.055-.45-1.917-1-1.917-1.738 0-1.083-2.467 1-3.768 2.848-1.779 2.484-2.869-1.25-3.74l-3.25-.758 2.943-.617c1.619-.339 2.969-1.067 3-1.617.031-.55.428-.876.881-.725.454.151.541-.185.194-.746-.347-.561.595-2.156 2.092-3.544 3.845-3.563 3.512-12.677-.51-13.953-1.29-.41-1.731-1.229-1.381-2.567.283-1.081.964-1.965 1.514-1.965s.763-.908.473-2.018c-.291-1.111.15-2.695.982-3.527 1.089-1.089 1.215-1.867.453-2.786-.757-.911-.637-2.086.418-4.121 1.223-2.357 1.26-3.336.215-5.697-.694-1.568-1.629-2.851-2.077-2.851-.448 0-.592-.361-.32-.801.484-.783 1.796-11.221 1.785-14.199-.003-.825.47-2.625 1.05-4 3.741-8.862 4.203-10.903 2.606-11.516-1.035-.397-1.187-2.83-.702-11.245.34-5.907.933-12.594 1.318-14.862.488-2.882.213-5.285-.914-7.984-.972-2.325-1.217-3.994-.617-4.194.659-.22.663-1.211.01-2.928-.635-1.669-.642-2.942-.022-3.562.991-.991-.418-4.494-2.391-5.944-.55-.404.071-.741 1.381-.75 2.174-.014 2.33-.328 1.796-3.621-.491-3.022-.266-3.689 1.39-4.122 1.563-.409 1.733-.808.816-1.913-.888-1.07-.832-1.801.24-3.128 3.465-4.288 4.637-8.154 5.223-17.231.523-8.116.361-9.809-1.117-11.621-4.499-5.52-21.268-11.477-23.323-8.286-.734 1.139-1.066 1.16-1.746.107-1.095-1.694-15.125-3.764-38.16-5.628-15.863-1.284-112.429-2.684-177-2.566-13.726.025-43.273 1.828-49 2.99-2.475.502-6.975 1.208-10 1.57-3.025.362-6.06 1.111-6.745 1.664-1.593 1.288-9.367 1.207-10.179-.107-1.049-1.697-5.261-2.847-13.076-3.57-4.125-.381-11.325-1.326-16-2.099-9.744-1.611-16.059-2.354-24.296-2.858-3.188-.195-5.98-.539-6.205-.764-.633-.633-1.494-28.84-2.024-66.332-.265-18.7-.942-45.475-1.504-59.5-.914-22.775-1.375-124.692-.593-131 .17-1.375.394-3.4.496-4.5.174-1.86.259-1.876 1.217-.23.567.974.748 2.661.403 3.75-.359 1.129-.17 1.98.439 1.98.704 0 1.095-5.015 1.15-14.75.046-8.113.159-26.372.25-40.576.155-23.908.032-25.925-1.649-27.159-1.514-1.111-1.613-1.656-.592-3.291.734-1.174.903-2.713.422-3.842-.44-1.035-.699-3.155-.574-4.711.141-1.759-.444-3.319-1.55-4.128-1.67-1.221-1.675-1.401-.083-2.992 1.997-1.998 2.199-4.201.443-4.837-.995-.36-.988-.896.034-2.624.706-1.194 1.036-2.572.734-3.062-.833-1.346 1.399-2.337 2.776-1.233 2.302 1.847 15.676 2.96 18.036 1.501.544-.336.177-1.183-.832-1.921-1.611-1.178-1.633-1.386-.2-1.936 2.7-1.036 78.861.219 120.702 1.989 21.725.92 62.675 1.866 91 2.105 81.565.685 126.41 1.707 161.5 3.678 38.338 2.153 251.624 1.342 314.5-1.196 13.418-.542 20.56-1.298 26-2.754 10.45-2.796 38.584-4.041 41.5-1.837 2.28 1.724 6.5 2.085 6.5.557 0-.586-1.168-.772-2.75-.437-2.322.492-2.473.406-.971-.547 2.177-1.382 6.307-.887 5.99.718-.257 1.306 8.397 2.956 9.527 1.817.387-.391.704-1.89.704-3.332 0-1.79.793-3.026 2.5-3.896 1.375-.701 1.964-1.281 1.31-1.289-1.463-.018-1.143-3.583.649-7.235 1.019-2.076 1.06-3.052.176-4.118-.895-1.078-.815-1.683.353-2.652 2.142-1.778 1.878-4.001-.828-6.955-3.351-3.66-4.946-12.019-3.879-20.337.478-3.729.735-7.779.571-9-1.135-8.429-1.126-8.718.248-8.718.77 0 1.4-.45 1.4-1s-.627-1-1.393-1c-1.741 0-2.878-2.714-1.495-3.569.563-.348.776-1.28.473-2.07-.303-.79.107-1.689.912-1.998 2.291-.879 3.577-7.07 2.484-11.95-1.451-6.472-1.434-27.515.022-28.415.49-.303.776-2.789.635-5.525-.141-2.735.335-6.724 1.058-8.864.958-2.836 1.018-4.248.221-5.209-.615-.741-.811-2.606-.447-4.262.51-2.322.194-3.26-1.495-4.443-3.034-2.125-4.371-8.6-2.258-10.935 1.36-1.502 1.411-2.153.329-4.174-.705-1.318-.989-2.868-.632-3.447.357-.578-.602-1.827-2.132-2.775-1.53-.948-3.878-2.838-5.218-4.2l-2.435-2.477 4.18.561c4.111.551 4.17.516 3.545-2.094-.349-1.46-.685-2.671-.745-2.691-.06-.02-2.03-1.325-4.377-2.899-4.101-2.749-4.184-2.905-2.112-3.963 1.185-.605 2.123-1.551 2.084-2.101-.04-.55.859-1.498 1.997-2.107 1.362-.729 1.681-1.348.934-1.81-1.892-1.169-1.288-2.334 1.765-3.398 2.12-.739 2.882-1.639 2.833-3.348-.036-1.285.268-3.516.676-4.956.631-2.226.055-3.347-3.833-7.463-3.552-3.76-4.413-5.3-3.849-6.881.4-1.12.737-3.612.75-5.537.013-1.931.826-4.389 1.814-5.483 1.696-1.877 1.7-2.051.059-3.25-1.552-1.135-1.177-1.713.9-1.385.412.065.811-1.344.885-3.132.074-1.787.186-4.6.25-6.25.115-3.012 3.115-4.536 3.115-1.583 0 .78 1.051 1.495 2.336 1.589 3.121.23 4.217-2.869 4.422-12.498.137-6.397-.188-8.1-2.037-10.697-1.209-1.699-3.39-3.388-4.847-3.753-1.456-.366-4.148-1.809-5.981-3.208-5.176-3.948-19.348-7.991-32.393-9.242-6.325-.607-15.1-1.795-19.5-2.642-4.4-.846-15.2-1.961-24-2.478-8.8-.516-18.549-1.193-21.664-1.504-3.116-.31-27.641-.978-54.5-1.484-26.86-.506-59.411-1.435-72.336-2.065-32.898-1.604-130.856-.637-157.5 1.554-25.531 2.099-94.793 2.526-123 .757-11-.69-31.7-1.71-46-2.266s-28.025-1.208-30.5-1.449c-20.075-1.954-36.957-3.184-62.5-4.553-10.45-.56-25.525-1.473-33.5-2.029-57.377-4.002-74.481-4.867-95.5-4.827-10.45.02-19.45.199-20 .399m45 189.483c-1.702.435.461.54 5 .242 4.4-.289 8.188-.687 8.417-.886.77-.666-10.386-.131-13.417.644m176.228.718c1.775.221 4.925.224 7 .008 2.074-.217.622-.397-3.228-.402-3.85-.004-5.548.173-3.772.394m-192.966.985c1.244.239 3.044.23 4-.02s-.062-.446-2.262-.435c-2.2.011-2.982.216-1.738.455m-23 109c1.244.239 3.044.23 4-.02s-.062-.446-2.262-.435c-2.2.011-2.982.216-1.738.455m43.488 1.011c-2.017.724-1.433 3.282.75 3.282 1.1 0 2-.648 2-1.441 0-1.739-1.058-2.448-2.75-1.841M699.5 757c-1.598.687-1.665.874-.332.93.918.038 2.38.343 3.25.677 1.038.398 1.582.055 1.582-1 0-1.752-1.396-1.941-4.5-.607M66.397 1587c0 7.975.156 11.237.346 7.25.189-3.987.189-10.513 0-14.5-.19-3.987-.346-.725-.346 7.25m-.111 28.5c.008 2.75.202 3.756.432 2.236.229-1.52.223-3.77-.014-5-.237-1.23-.425.014-.418 2.764m0 12c.008 2.75.202 3.756.432 2.236.229-1.52.223-3.77-.014-5-.237-1.23-.425.014-.418 2.764" fill-rule="evenodd"/></svg>