<svg xmlns="http://www.w3.org/2000/svg" width="1240" height="1753"><path d="M691 1313.044c-4.125.413-18.075.765-31 .782-30.811.041-31.986.06-35.5.587-1.65.247-5.538.48-8.639.518-4.705.058-5.616.355-5.5 1.796.11 1.368-1.001 1.871-5.351 2.42-3.781.477-5.723.329-6.235-.477-.67-1.053-1.159-.261-.922 1.493.112.835-23.637 1.089-24.968.266-.614-.38-.52-1.164.252-2.094.99-1.192.95-1.669-.201-2.401-.79-.502-1.908-.741-2.485-.532-.578.21-4.178.05-8-.355-3.823-.405-7.851-.387-8.951.039-1.1.427-3.237 1.04-4.75 1.364-1.513.323-2.75 1.255-2.75 2.069 0 .859-.945 1.496-2.25 1.516-1.237.02-5.484.287-9.437.594-5.77.448-7.773.212-10.157-1.196-1.708-1.009-2.752-2.323-2.456-3.094.386-1.006-.819-1.377-4.843-1.491-6.772-.193-7.096-.237-8.607-1.183-.687-.431-1.25-.381-1.25.109 0 .491-1.238.934-2.75.983-14.202.47-47.317 3.208-48.876 4.043-1.089.582-4.796 1.307-8.239 1.609-7.033.618-8.135 1.055-8.135 3.227 0 .835-1.365 2.883-3.033 4.55-1.968 1.969-2.835 3.656-2.469 4.807.403 1.271-.095 1.94-1.753 2.356-1.274.32-2.401 1.385-2.505 2.366-.104.982-.435 5.61-.736 10.285-.3 4.675-1.243 10.275-2.094 12.444-1.118 2.847-1.63 8.47-1.84 20.229-.178 9.933-.72 16.803-1.39 17.61-.604.728-1.768 7.698-2.587 15.488-.818 7.79-1.927 14.984-2.463 15.985-1.696 3.17-5.188 18.584-5.038 22.237.257 6.213-1.163 32.319-2.093 38.507-3.479 23.129-3.453 21.738-.523 28.267 2.362 5.264 2.556 6.453 1.611 9.859-2.383 8.581-.016 24.116 4.141 27.181 1.976 1.457 2.403 5.816.629 6.407-.851.284-.856.919-.022 2.478.617 1.153 1.772 6.082 2.566 10.952.794 4.871 1.786 9.756 2.204 10.856 1.663 4.375 5.155 7.853 10.395 10.352 5.424 2.587 5.785 2.621 26 2.464 11.275-.087 26.125-.699 33-1.358 18.68-1.793 78.577-1.524 87.5.393 6.11 1.312 21.88 3.082 17.25 1.936-.962-.239-1.75-.851-1.75-1.36 0-.51 4.388-.941 9.75-.958 22.897-.074 34.879-.617 36.766-1.667 1.395-.776 4.322-.855 9.5-.256 4.116.476 12.521.886 18.677.91 9.972.039 11.344.259 12.573 2.013 1.297 1.852 1.517 1.871 3.722.327 1.754-1.228 2.135-1.283 1.517-.219-.455.783.287.41 1.648-.827 1.362-1.237 3.43-2.25 4.596-2.25 1.167 0 3.388-.49 4.936-1.089 3.107-1.202 3.791-1.359 10.315-2.378 8.912-1.391 16.625-3.623 23.5-6.799 3.85-1.779 7.225-3.521 7.5-3.872.275-.35 2.143-1.321 4.151-2.157 2.008-.836 4.258-2.657 5-4.046 4.032-7.549 9.289-16.202 10.022-16.494.462-.185.583-.751.269-1.258-.313-.507.134-1.626.994-2.486.86-.86 1.567-3.219 1.57-5.242.004-2.024.683-4.977 1.511-6.564 1.17-2.245 1.242-3.201.32-4.311-.948-1.143-.639-1.933 1.557-3.969 1.988-1.843 2.695-3.406 2.572-5.688-.26-4.851-.07-5.647 1.351-5.647.816 0 1.992-2.863 3.09-7.518.975-4.135 2.313-8.073 2.973-8.75 1.825-1.871 4.62-6.078 4.62-6.955 0-.427-.845-.777-1.878-.777-2.052 0-4.789-2.667-3.776-3.68.348-.347 2.324-.941 4.393-1.32l3.761-.688-2.614-1.079c-4.528-1.871-4.258-6.233.386-6.233 1.672 0 1.804-.561 1.238-5.25-.348-2.888-.818-15.6-1.044-28.25-.526-29.431-1.805-44.002-4.481-51.039-.542-1.425-.985-4.11-.985-5.967 0-1.857-.4-3.623-.89-3.926-.489-.302-1.095-2.016-1.347-3.809-.252-1.792-.8-4.046-1.218-5.009-.61-1.407-.26-1.75 1.789-1.75 2.998 0 4.042-1.356 4.327-5.619.164-2.459-.317-3.359-2.273-4.25-1.365-.622-3.162-1.131-3.994-1.131-.832 0-1.234-.45-.894-1 .34-.55 1.436-1 2.437-1 2.4 0 4.255-2.335 3.473-4.373-.9-2.348-6.31-2.07-9.005.462-1.98 1.86-2.948 2.012-8.814 1.384-3.625-.388-6.591-1.059-6.591-1.49 0-.431 1.653-1.175 3.673-1.653 3.485-.824 5.89-3.186 3.126-3.07-5.546.234-6.933-.294-6.595-2.51.219-1.437.877-2.088 1.82-1.802.812.246 3.164.369 5.226.273 2.063-.096 3.75.168 3.75.586 0 1.404 5.778 4.193 8.654 4.178 7.02-.038 6.882-3.78-.259-7.033-3.424-1.56-4.329-2.375-3.326-2.995.844-.521 1.673-.388 2.139.346.5.786.767.532.777-.737.02-2.53-3.884-10.566-5.133-10.566-.534 0-.692-.45-.352-1 .34-.55-.032-1-.827-1-.795 0-2.226-1.687-3.181-3.75-2.043-4.417-6.317-9.25-8.179-9.25-.722 0-1.201-.496-1.063-1.102.137-.606-1.985-1.686-4.717-2.4-2.732-.715-5.132-1.794-5.333-2.398-.202-.605-.765-1.1-1.252-1.1s-.626.675-.31 1.5c.365.95-.013 1.5-1.031 1.5-.884 0-1.607-.45-1.607-1s-.675-1-1.5-1-1.5-.461-1.5-1.025c0-1.327-3.793-2.746-9.203-3.443-2.363-.304-6.097-.987-8.297-1.519-4.521-1.091-14.41-1.079-25.5.031m-39.523 9.993c-.429.694 1.119.836 4.679.429 6.973-.797 7.461-1.466 1.07-1.466-2.81 0-5.396.467-5.749 1.037m91.523 9.45c0 .719 7.233 3.614 7.746 3.1.242-.242-.93-1.148-2.603-2.013-3.03-1.567-5.143-2.014-5.143-1.087m1 3.946c0 1.563 4.331 4.654 5.755 4.108 1.383-.531 1.407-.798.173-1.97-1.556-1.477-5.928-3.055-5.928-2.138m1.861 10.6c3.411 2.842 6.652 2.468 5.463-.631-.329-.857-1.953-1.389-4.181-1.369l-3.643.034 2.361 1.966m9.348 3.112c.267.81 2.224 1.459 4.869 1.614 4.918.288 3.782-1.025-1.946-2.25-2.61-.558-3.268-.414-2.923.636" fill-rule="evenodd"/></svg>