<svg xmlns="http://www.w3.org/2000/svg" width="1240" height="1753"><path d="M565.5 47.245c-4.95.409-12.576.954-16.948 1.21-4.371.256-9.096.901-10.5 1.433-1.403.532-4.802 1.254-7.552 1.604-2.75.35-7.25 1.255-10 2.009-15.948 4.378-21.388 5.588-24.75 5.508-2.062-.05-3.75.28-3.75.732 0 .948-5.674 2.706-15 4.648-3.575.745-8.075 2.268-10 3.385-1.925 1.118-5.075 2.344-7 2.724-1.925.381-5.75 1.933-8.5 3.45-2.75 1.516-6.8 3.326-9 4.022-4.872 1.54-18.413 7.93-20.551 9.698-.853.705-5.578 3.348-10.5 5.873-4.922 2.525-10.299 5.875-11.949 7.444-1.65 1.569-5.25 4.035-8 5.48-2.75 1.446-6.111 3.62-7.469 4.832-1.358 1.212-4.173 3.363-6.256 4.781-2.082 1.418-3.559 2.88-3.281 3.25.278.369.224.465-.121.212-1.12-.822-6.292 2.425-9.53 5.982-1.737 1.91-5.406 4.914-8.152 6.676-2.746 1.762-7.287 5.419-10.092 8.125-2.804 2.707-6.899 6.058-9.099 7.447-2.2 1.389-5.125 3.907-6.5 5.594-1.375 1.687-3.4 3.864-4.5 4.837-3.99 3.531-16.091 15.371-18.702 18.299-8.764 9.829-20.35 17.001-17.555 10.866.638-1.4 2.28-2.429 4.558-2.856 2.346-.441 3.121-.94 2.273-1.464-.907-.561-.961-.998-.181-1.48 1.38-.853 1.461-3.566.107-3.566-.55 0-1.036.787-1.079 1.75-.043.963-.296 1.216-.562.563-.342-.84-1.034-.694-2.362.5-1.033.928-3.508 3.037-5.501 4.687-1.992 1.65-5.892 5.138-8.668 7.75-2.775 2.613-5.416 4.75-5.869 4.75-.453 0-1.095.852-1.425 1.892-.33 1.041-1.936 2.446-3.567 3.122-1.632.676-2.967 1.651-2.967 2.166 0 .516-.45.66-1 .32s-1 .029-1 .82c0 .79-1.344 1.994-2.987 2.675-1.643.68-2.771 1.588-2.506 2.016.265.429-.238 1.055-1.116 1.393-.912.349-1.352 1.254-1.026 2.104.403 1.05-.094 1.492-1.674 1.492-1.236 0-3.017.9-3.959 2-.942 1.1-1.507 2-1.256 2 .251 0-.863 1.35-2.476 3s-3.446 3-4.073 3c-.628 0-.891.652-.585 1.449.334.869-.203 1.69-1.342 2.051-1.044.331-2.178 1.486-2.521 2.566-.343 1.08-.955 1.758-1.36 1.508-.98-.606-6.545 5.333-5.746 6.132.342.342-1.01 2.073-3.003 3.847-2.341 2.082-3.348 3.673-2.843 4.49.491.795.378 1.017-.303.595-1.637-1.011-2.69 1.437-1.102 2.561 1.029.727.834.856-.767.509-1.548-.336-2.446.196-3.228 1.913-.596 1.309-1.502 2.379-2.012 2.379-1.179 0-8.448 10.059-8.448 11.69 0 .672-.359 1-.797.73-1.151-.712-10.87 9.53-10.87 11.454 0 1.182-10.007 16.361-11.419 17.322-.563.382-.703 1.016-.311 1.408.392.391.251 1.269-.314 1.949-.564.68-.938 1.621-.83 2.092.317 1.376-1.995 6.355-2.949 6.355-.48 0-1.685 1.8-2.677 4s-2.185 4-2.652 4c-.466 0-.848.822-.848 1.826s-1.125 2.882-2.5 4.174c-1.375 1.292-2.5 2.795-2.5 3.34 0 .546-.696 1.705-1.546 2.576-.85.871-3.828 5.184-6.616 9.584-2.789 4.4-6.105 9.125-7.37 10.5-1.265 1.375-2.45 3.4-2.634 4.5-.184 1.1-1.121 2.588-2.084 3.307-.963.718-1.75 1.934-1.75 2.7 0 .766-.597 1.753-1.327 2.193-1.815 1.093-9.673 16.659-9.673 19.16 0 .627-.382 1.14-.848 1.14-.787 0-4.033 6.787-4.706 9.838-.162.735-.913 2.085-1.669 3-1.529 1.848-5.728 10.824-6.158 13.162-.152.825-1.029 3.188-1.948 5.25-3.779 8.48-4.907 11.365-5.315 13.59-.235 1.287-1.05 3.312-1.81 4.5-1.25 1.952-3.138 7.946-4.137 13.131-.209 1.088-1.335 4.915-2.502 8.504-1.167 3.589-2.762 9-3.544 12.025-.783 3.025-2.133 7.019-3 8.876-1.654 3.543-4.688 13.171-6.813 21.624-2.035 8.098-5.76 18.512-6.865 19.195-.586.362-.793.027-.484-.781.298-.778 1.325-4.114 2.282-7.414.957-3.3 2.817-9.6 4.133-14 1.316-4.4 2.391-8.562 2.388-9.25-.002-.687.418-1.25.934-1.25s.942-.787.946-1.75c.005-.962.292-3.1.639-4.75l.63-3-2.055 2.5c-1.129 1.375-2.064 3.296-2.076 4.27-.012.973-1.159 4.567-2.548 7.986-1.389 3.419-2.784 8.023-3.099 10.23-.315 2.208-1.428 6.393-2.474 9.302-1.045 2.908-1.901 6.144-1.901 7.19 0 1.047-.461 2.189-1.024 2.537-1.339.827-.202-6.954 1.611-11.015.736-1.65 1.537-4.125 1.779-5.5a84.837 84.837 0 0 1 1.146-5.25c.424-1.656.301-2.75-.31-2.75-1.217 0-4.396 8.877-3.625 10.125.298.481.169.875-.285.875-.979 0-5.557 11.158-5.146 12.544.156.526-.439 2.981-1.321 5.456-1.709 4.795-4.021 18.137-3.273 18.886.87.869 1.68-.842 4.06-8.573 1.323-4.297 2.172-6.238 1.887-4.313-1.279 8.633-1.38 11-.471 11 .535 0 .972-.675.972-1.5s.016-1.719.036-1.987c.111-1.49 6.016-16.965 6.757-17.706.484-.484-.218 2.399-1.561 6.406-1.343 4.008-2.584 8.187-2.758 9.287-.174 1.1-1.242 4.84-2.373 8.311-1.131 3.471-2.561 8.196-3.177 10.5-.616 2.304-2.135 6.439-3.376 9.189-3.723 8.25-8.645 21.526-9.028 24.352-.197 1.457-1.06 4.297-1.917 6.312-.857 2.016-1.664 5.053-1.793 6.75-.13 1.697-.56 3.086-.956 3.086-.396 0-.685 1.246-.642 2.768.044 1.523-.607 4.11-1.446 5.75-1.239 2.423-2.333 5.947-3.255 10.482l-.833 4.149c-.402 2.007-1.399 4.989-2.215 6.625-.817 1.637-1.964 5.567-2.549 8.734-.585 3.166-1.512 6.935-2.06 8.375-.547 1.439-1.22 5.054-1.495 8.032-.275 2.979-1.559 8.226-2.852 11.662-1.293 3.435-2.162 6.434-1.932 6.664.23.231-.313 2.858-1.207 5.839-.894 2.981-1.602 7.895-1.574 10.92.028 3.025-.369 6.872-.883 8.55-1.191 3.89-1.444 24.991-.569 47.45.376 9.625.283 20.2-.205 23.5-.488 3.3-.538 6.225-.112 6.5.878.567 1.317 2.776.994 5-.12.825-.545.375-.945-1-.562-1.931-.897-.98-1.473 4.18-.477 4.281-1.43 7.47-2.652 8.879-1.049 1.21-1.675 2.576-1.391 3.036.285.46-.366 4.789-1.446 9.621-2.846 12.73-3.34 18.982-1.555 19.668.794.304 1.407 1.355 1.364 2.335-.046 1.047-.287 1.266-.583.531-1.202-2.978-2.421-.981-1.831 3 .346 2.337.768 5.539.936 7.114.169 1.575.864 3.208 1.545 3.629.937.579.949.861.05 1.161-.766.255-.946 1.364-.507 3.114.375 1.495 1.033 2.501 1.462 2.236 2.18-1.347 2.94 2.904 2.781 15.564-.093 7.387-.333 11.97-.535 10.182-.395-3.506-1.741-4.337-2.431-1.5-.857 3.523-.918 17.25-.077 17.25 1.408 0 .16 7.105-1.349 7.684-.76.291-1.382 1.205-1.382 2.03 0 .922.578 1.278 1.5.924 1.058-.405 1.495.079 1.485 1.643-.011 1.619-.247 1.854-.872.868-.578-.912-1.084.172-1.559 3.342-.387 2.581-.486 4.91-.22 5.176s.084 1.877-.405 3.58c-.566 1.973-.515 3.547.14 4.336.631.76.664 1.464.086 1.821-.537.332-.787 5.624-.583 12.301.259 8.434.019 11.945-.856 12.525-.899.597-.759 1.076.541 1.842 1.379.813 1.533 1.452.714 2.981-.754 1.409-.721 1.947.119 1.947.75 0 .952 1.038.572 2.941-.324 1.617.027 6.23.779 10.25s1.716 11.134 2.142 15.809c.97 10.646.91 10.209 1.659 12 1.725 4.122 3.173 12.268 4.797 27 .637 5.775 1.999 13.248 3.027 16.607 1.027 3.358 2.066 8.229 2.309 10.824.497 5.324 1.301 6.695 2.664 4.54 1.356-2.144 1.139-8.605-.519-15.471-.797-3.3-1.436-6.675-1.421-7.5.042-2.275 1.902 2.861 3.078 8.5.573 2.75 1.423 6.8 1.889 9 2.654 12.534 2.807 14.641 1.544 21.279-.704 3.697-1.241 9.534-1.195 12.971.047 3.438-.171 6.25-.485 6.25-.865 0 .197 22.426 1.09 23 .776.5 2.23 10.001 2.23 14.578 0 1.332.334 2.422.743 2.422s1.041 1.913 1.404 4.25c.363 2.338.85 5.375 1.082 6.75.622 3.678 3.212 14.265 3.914 16 .334.825.798 2.85 1.031 4.5.233 1.65.726 4.125 1.096 5.5.37 1.375 1.077 5.2 1.572 8.5.495 3.3 1.347 6.9 1.894 8 .995 2.003 3.631 15.481 4.498 23 .909 7.888 1.758 12.02 2.712 13.202.533.661.659 2.18.279 3.375-.447 1.41-.32 1.945.362 1.524.686-.424 1.011 1.076.938 4.318-.063 2.733.385 5.569.994 6.303.609.733 1.422 4.805 1.806 9.047.406 4.48 1.266 8.184 2.051 8.836.744.617 1.136 1.471.872 1.897-.263.427-.017 2.964.549 5.637.565 2.674 1.124 5.761 1.243 6.861.119 1.1.991 3.419 1.939 5.153.947 1.735 2.001 5.766 2.341 8.959.347 3.256 1.25 6.267 2.055 6.856.79.578 1.939 4.084 2.554 7.791.614 3.708 1.486 6.741 1.937 6.741.452 0 .556.692.231 1.537-.324.846.083 2.308.905 3.25.822.942 1.797 3.401 2.167 5.463.369 2.062 1.128 3.75 1.685 3.75.558 0 .724.47.369 1.044-.355.574-.018 2.037.75 3.25 1.704 2.694 4.392 10.054 5.28 14.456.361 1.787 1.07 3.25 1.576 3.25.507 0 .921.487.921 1.082 0 1.618 6.066 15.126 7.384 16.445.629.628 2.2 4.367 3.492 8.308 1.292 3.941 2.704 7.165 3.138 7.165 1.058 0 4.986 6.741 4.986 8.557 0 .794.659 1.443 1.465 1.443 1.623 0 3.771 3.411 3.932 6.242.056 1.004 1.228 2.401 2.603 3.104 1.68.858 2.422 1.995 2.262 3.466-.131 1.203.319 2.2 1 2.215.681.015 2.341 1.815 3.689 4 1.348 2.185 2.748 3.973 3.111 3.973.364 0 .463 1.238.221 2.75-.303 1.893-.149 2.337.493 1.426.757-1.074 1.25-1.007 2.612.354 2.687 2.688 5.909 9.721 5.824 12.715-.043 1.515.342 2.755.855 2.755.513 0 .933 1.329.933 2.953 0 3.293 1.867 8.047 3.161 8.047.461 0 .842.563.845 1.25.006 1.264.936 3.192 4.82 10 1.177 2.063 1.81 3.757 1.407 3.765-.403.009-.282.346.27.75 1.677 1.229 6.497 8.756 6.497 10.146 0 .727.64 1.057 1.449.747.969-.372 1.265-.076.893.893-.306.797-.058 1.449.551 1.449.609 0 1.107.689 1.107 1.531 0 .843.653 1.782 1.452 2.089.798.306 1.958 2.092 2.577 3.968.806 2.441 1.745 3.434 3.299 3.491 1.194.043 1.603.308.907.588-.913.368-.634 1.294 1 3.331a341.251 341.251 0 0 1 4.052 5.161c1.513 1.98 1.933 2.109 2.735.84.711-1.125.951-.687.963 1.751.01 2.132.503 3.25 1.434 3.25.78 0 2.904 1.575 4.72 3.5 3.22 3.414 5.73 4.75 4.228 2.25-.51-.849-.209-.81.941.122.931.755 1.692 1.912 1.692 2.57 0 .659 1.012 2.147 2.25 3.308 1.237 1.161 2.761 2.705 3.385 3.431 3.237 3.764 20.575 19.819 21.403 19.819.529 0 .849.562.712 1.25-.138.688.567 1.183 1.567 1.1.999-.082 1.592.075 1.317.349-.275.275.82 1.79 2.433 3.367s2.933 3.38 2.933 4.007c0 .668.713.867 1.72.481.945-.363 1.42-.36 1.054.005-.366.366.658 2.078 2.276 3.803 1.617 1.726 2.943 3.476 2.945 3.888.003.412.568.759 1.255.77.688.011 3.252 2.036 5.699 4.5s4.81 4.48 5.25 4.48c.441 0 .801.501.801 1.113 0 1.56 7.31 12.764 8.372 12.831.48.031.255-.705-.5-1.636-1.183-1.458-1.165-1.575.128-.844 3.473 1.962 4.151 2.824 2.854 3.626-1.629 1.007.108 4.947 4.089 9.279 12.404 13.495 16.783 17.313 19.271 16.802.393-.081.481.46.196 1.203-.627 1.633 9.09 10.053 10.555 9.148.615-.381.752.051.35 1.1-.513 1.337-.274 1.576 1.063 1.063 1.165-.447 1.493-.286 1.01.496-.474.767-.17.949.897.54 1.097-.421 1.446-.184 1.092.74-.303.788.348 1.634 1.551 2.016 1.139.362 2.072 1.085 2.072 1.607 0 .521 1.575 1.699 3.5 2.617 1.925.918 3.5 1.991 3.5 2.384 0 .393 2.25 1.523 5 2.512 2.75.989 5 2.336 5 2.994 0 1.281 2.2 2.409 4.697 2.409.843 0 3.056 1.663 4.918 3.695 1.862 2.033 3.385 3.248 3.385 2.7 0-.547-.54-1.535-1.2-2.195-.849-.849-.87-1.2-.071-1.2 1.324 0 4.271 2.76 4.271 4 0 .471.706 1.563 1.569 2.427 1.159 1.158 2.057 1.308 3.431.573 1.33-.712 2.24-.617 3.189.332.731.731 1.859 1.152 2.507.936.649-.216 2.107.535 3.241 1.67 1.135 1.134 2.963 2.062 4.063 2.062 1.1 0 2.003.338 2.006.75.01 1.137 5.899 4.25 8.041 4.25 1.843 0 6.841 1.906 12.063 4.601 1.435.74 2.84 1.116 3.122.834.282-.282 3.832.468 7.89 1.666s9.178 2.253 11.378 2.344c2.2.091 6.13 1.124 8.733 2.296 2.603 1.172 6.878 2.443 9.5 2.823 2.622.38 5.485 1.063 6.362 1.516 1.499.775 4.804 1.597 9.405 2.338 1.1.178 4.82 1.071 8.267 1.984 3.447.914 8.172 1.927 10.5 2.252 2.328.324 5.257.978 6.508 1.453 1.252.474 5.295 1.345 8.986 1.935 3.691.589 8.742 1.671 11.225 2.403 8.5 2.507 27.215 5.128 43.335 6.068 4.301.251 8.23.709 8.729 1.018.971.6 15.848 2.944 24.95 3.931 3.025.328 6.85.83 8.5 1.115 1.65.284 6.15.708 10 .94 3.85.233 11.5.855 17 1.384 10.587 1.016 24.151 1.326 49.5 1.131 15.548-.12 18.218-.286 21-1.302 3.348-1.224 10.429-2.583 11.146-2.14.421.26 2.473-.254 4.56-1.142 2.087-.889 6.719-2.028 10.294-2.531 7.226-1.017 23.399-4.656 26.5-5.963 1.1-.464 5.375-1.143 9.5-1.509 4.125-.366 9.017-1.291 10.872-2.055 1.855-.765 5.792-1.39 8.75-1.39s5.378-.369 5.378-.82c0-.451 3.607-1.405 8.016-2.121s8.243-1.669 8.52-2.117c.277-.448 3.982-1.575 8.234-2.506 4.251-.93 8.855-2.282 10.23-3.004s5.65-2.306 9.5-3.521c3.85-1.214 7.225-2.479 7.5-2.811.733-.884 3.874-2.221 20.25-8.624 8.112-3.172 14.75-6.121 14.75-6.554 0-.433 1.013-1.089 2.25-1.458 3.498-1.043 14.192-5.806 14.75-6.569.275-.376 3.714-2.247 7.643-4.157 3.929-1.91 8.654-4.596 10.5-5.97 1.846-1.373 6.395-4.171 10.107-6.218 3.712-2.047 6.758-4.021 6.769-4.386.01-.365 2.304-2.014 5.097-3.664 2.792-1.65 7.171-4.679 9.731-6.73 2.559-2.052 6.903-5.285 9.653-7.184 2.75-1.9 6.575-4.845 8.5-6.544 9.064-8.003 12.875-11.298 17.5-15.131 2.75-2.279 7.938-6.969 11.529-10.422 3.591-3.453 8.471-7.901 10.845-9.884 2.373-1.983 4.013-3.605 3.644-3.605-.369 0 .713-1.165 2.405-2.589 3.414-2.872 4.009-4.606 1.327-3.865-.962.266-.396-.155 1.258-.936 1.655-.78 3.905-2.438 5-3.684 1.819-2.068 1.834-2.207.169-1.599-1.547.566-1.472.221.5-2.275 1.277-1.618 2.779-2.966 3.336-2.997.557-.03 1.457-1.016 2-2.192.543-1.175 1.437-2.178 1.987-2.228.55-.051 2.038-1.623 3.307-3.492 1.269-1.87 2.914-4.007 3.656-4.749.743-.742 1.952-2.71 2.687-4.372.736-1.662 1.903-3.022 2.594-3.022.691 0 1.258-.338 1.261-.75.002-.412 1.465-2.347 3.25-4.299 4.89-5.348 9.335-12.392 7.336-11.624-1.35.518-1.458.293-.614-1.284.563-1.051 1.023-2.841 1.023-3.977 0-1.136.45-2.066 1-2.066s1-.675 1-1.5.525-1.5 1.167-1.5c.641 0 .875-.292.518-.648-.357-.357.131-1.37 1.083-2.25 2.674-2.473 5.429-7.975 4.635-9.259-.415-.672-.275-.882.338-.503 1.28.791 2.524-2.068 1.602-3.68-.365-.638-.329-.86.08-.493.811.726 4.577-2.613 4.577-4.059 0-.49 1.125-1.174 2.5-1.519s2.5-1.054 2.5-1.577c0-.522-.787-.651-1.75-.287-1.639.621-1.643.555-.071-1.031.923-.932 2.16-1.694 2.75-1.694.589 0 1.127-.675 1.196-1.5.069-.825.237-1.95.375-2.5s.306-1.436.375-1.969c.069-.532.8-.709 1.625-.393.825.317 1.5.059 1.5-.573 0-1.154.924-2.48 4.338-6.224 1.01-1.109 2.485-3.566 3.277-5.461.791-1.894 3.449-5.567 5.906-8.162 2.457-2.595 4.47-5.075 4.473-5.512.003-.436 1.131-2.007 2.506-3.489 1.375-1.483 2.5-3.11 2.5-3.616 0-.506 1.8-3.303 4-6.217 2.2-2.914 4-5.767 4-6.341 0-.574.338-1.046.75-1.05.412-.004 1.856-1.63 3.208-3.615 1.351-1.984 4.415-5.681 6.808-8.214 2.787-2.95 4.184-5.246 3.886-6.385-.283-1.083.086-1.779.942-1.779.773 0 1.357-.338 1.298-.75-.218-1.511 1.367-5.25 2.225-5.25.485 0 .883-.702.883-1.559s.45-1.281 1-.941c.55.34 1-.061 1-.891 0-.83.585-1.869 1.3-2.309.715-.44 1.852-2.692 2.527-5.005.675-2.313 1.796-4.788 2.492-5.5 1.559-1.595 4.258-7.976 3.878-9.168-.153-.48.465-.587 1.373-.238 1.195.458 1.492.215 1.073-.878-.319-.831-.216-1.511.228-1.511.445 0 1.403-1.8 2.129-4s1.615-4 1.975-4c.36 0 1.421-1.606 2.357-3.57.936-1.963 1.241-3.284.677-2.936-.615.38-.558-.391.144-1.93.642-1.41 1.572-2.564 2.067-2.564.494 0 .637-.423.317-.94-.319-.517.327-2.429 1.437-4.25 1.11-1.82 2.02-4.124 2.022-5.119.002-.995.407-1.56.899-1.256.493.305 1.162-.142 1.489-.993.39-1.016.169-1.331-.645-.92-.682.345-.452-.019.511-.808.962-.789 1.75-2.052 1.75-2.808 0-.755 1.397-4.305 3.105-7.89 4.375-9.182 4.652-9.923 5.817-15.516.573-2.75 1.327-6.012 1.676-7.25.349-1.237.223-2.25-.28-2.25-1.029 0-3.318 5.741-3.318 8.321 0 .923-.664 1.679-1.475 1.679-1.627 0-1.275-1.3 2.304-8.494 1.093-2.197 1.777-4.335 1.52-4.75-.257-.416.01-.756.592-.756s1.066-1.463 1.074-3.25c.012-2.574.237-2.938 1.081-1.75.814 1.145.916.819.434-1.376-.528-2.404-.358-2.772 1.031-2.239 1.204.462 1.502.222 1.082-.874-.319-.831-.144-1.511.388-1.511.533 0 .969-1.05.969-2.333 0-1.284.313-2.647.696-3.029 1.136-1.137 1.628-3.824 1.719-9.388.047-2.888.549-5.25 1.117-5.25.567 0 1.125-1.124 1.239-2.498.113-1.373 1.134-5.251 2.268-8.616 1.133-3.366 1.866-6.314 1.628-6.553-.457-.457-.072-2.216 3.14-14.333 1.52-5.736 1.718-7.839.84-8.942-.884-1.112-.861-1.27.103-.691.86.517 1.25.011 1.25-1.62 0-1.305 1.35-6.366 3-11.247s3.014-10.028 3.032-11.438c.017-1.409.692-3.436 1.5-4.503.807-1.068 1.468-3.81 1.468-6.095 0-2.284.87-6.79 1.933-10.013 1.063-3.222 1.759-6.141 1.546-6.485-.213-.345.27-3.066 1.073-6.046.803-2.981 1.727-8.345 2.053-11.92.326-3.575 1.008-7.276 1.515-8.224.508-.949 1.164-4.549 1.458-8 .295-3.452.948-11.226 1.452-17.276.505-6.05 1.404-15.725 1.999-21.5 1.194-11.597 1.33-25.293.461-46.5-.315-7.7-.766-19.625-1.002-26.5l-1.005-29.306c-.316-9.244-.989-17.895-1.495-19.225-.505-1.33-1-5.368-1.099-8.975-.1-3.606-.536-6.776-.969-7.043-.434-.268-.518-2.167-.188-4.219.549-3.416.457-3.614-1.089-2.341-1.454 1.198-1.61 1.187-1.125-.077.31-.808.118-2.642-.427-4.075-.717-1.885-.659-2.741.209-3.093.863-.351.832-.51-.109-.567-.72-.043-1.031-.529-.691-1.079.34-.55.174-1-.368-1s-1.163-.788-1.381-1.75c-.217-.962-.447.169-.511 2.516-.239 8.862-3.152 11.267-3.879 3.202-.22-2.449-.807-5.924-1.303-7.721-.586-2.123-.557-3.055.083-2.66.611.378.778-.664.439-2.739-1.497-9.163-1.08-20.848.745-20.848 1.062 0 1.292-4.113 1.164-20.75-.13-16.886-.555-22.612-2.28-30.75-2.17-10.236-2.686-20.474-1.789-35.5.278-4.675.093-10.3-.412-12.5-.577-2.511-.564-4.124.036-4.333 1.577-.55 1.077-4.167-.575-4.167-.843 0-1.772-.625-2.065-1.389-.293-.765-1.301-1.189-2.239-.944-.938.245-3.722-.077-6.185-.717-2.464-.639-5.97-1.113-7.792-1.052-2.181.073-3.078-.266-2.629-.994.493-.798.106-.795-1.398.01-1.144.612-2.436 1.054-2.87.981-1.931-.322-3.363.18-2.856 1 .305.493-.119 1.153-.941 1.469-.822.315-1.494.111-1.494-.454 0-.566-.556-.684-1.236-.264-.68.42-2.8.843-4.711.941-1.911.097-3.625.628-3.808 1.179-.213.638-1.686.692-4.04.149-2.038-.469-4.455-.624-5.371-.343-.916.28-1.955.041-2.309-.531-.354-.573-2.165-1.041-4.025-1.041-1.86 0-3.66-.45-4-1-.34-.55-1.068-1-1.618-1s-.694.495-.32 1.1c.991 1.603-2.887-.582-4.517-2.545-1.452-1.75-6.045-2.126-6.045-.496 0 .582-.45.781-1 .441s-1.007-.029-1.015.691c-.011.951-.281.899-.985-.191-.682-1.055-.974-1.118-.985-.215-.011.981-.495 1.028-2.043.2-1.115-.597-1.764-1.513-1.441-2.035.329-.532-.979-.95-2.972-.95-2.172 0-3.565.487-3.574 1.25-.012.952-.197.965-.776.055-.528-.831-1.876-.944-4.418-.371-3.304.745-3.554.659-2.587-.889.689-1.103 1.915-1.554 3.434-1.263 1.449.277 2.362-.025 2.362-.781 0-.906-1.42-1.054-5.369-.561-7.92.99-19.829.816-22.853-.334-1.474-.561-2.785-.615-2.961-.124-.175.485-3.325 1.281-7.001 1.77-4.98.662-7.275.561-9-.396-1.274-.707-3.104-1.301-4.066-1.321-.962-.019-1.75-.433-1.75-.918 0-1.424-3.844-2.022-7.063-1.099-1.636.469-2.756.498-2.487.063.833-1.348-16.834-1.831-26.95-.737-3.3.357-9.15.911-13 1.232-4.574.38-8.201 1.322-10.464 2.717-1.906 1.174-4.156 2.187-5 2.25-.845.063-3.491.192-5.88.286-3.415.134-4.455.597-4.864 2.163-.579 2.215-3.077 3.041-16.292 5.385-14.823 2.63-25.041 3.647-42 4.181-20.211.636-25.301.55-25.977-.441-.288-.421-5.192-.837-10.899-.924-6.132-.093-10.945-.629-11.765-1.31-1.675-1.39-21.601-.405-30.89 1.527-6.304 1.311-15.212 1.249-16.572-.115-.849-.852-16.461.052-44.897 2.602-14.625 1.311-16.02 1.63-24.62 5.631l-7.119 3.312-.507 5.83c-.278 3.206-.123 6.313.346 6.904.493.621.339 1.587-.365 2.291-.958.958-.922 1.401.164 2.073 1.057.653 1.224 2.257.709 6.807-.37 3.274-.241 7.089.286 8.477.648 1.703.607 2.877-.125 3.609-.779.779-.724 1.518.196 2.627.956 1.152.977 1.542.082 1.542-.726 0-1.077 1.147-.892 2.916.189 1.797-.411 3.71-1.562 4.982-1.578 1.743-1.662 2.314-.541 3.665 1.621 1.953 2.478 17.437.966 17.437-.56 0-1.018 1.139-1.018 2.531 0 1.393-.698 2.8-1.552 3.127-1.15.441-1.38 1.374-.891 3.603.967 4.403 1.217 9.165.512 9.739-1.551 1.261-4.069 6.118-4.069 7.848 0 1.109.95 2.224 2.25 2.641 1.802.579 1.92.813.593 1.172-1.207.328-1.757 1.863-2.024 5.644-.556 7.889.1 10.535 3.046 12.272 2.45 1.444 2.611 1.97 2.296 7.488-.186 3.264-.651 5.935-1.032 5.935-1.446 0-1.979 18.685-.713 25 .386 1.925.87 6.425 1.076 10 .427 7.421.42 7.107.528 24.477.063 10.158.413 13.344 1.61 14.667 1.179 1.303 1.281 2.154.444 3.718-1.274 2.38-.752 12.616.734 14.407.686.826.708 2.894.066 6.234-1.183 6.157-.151 16.363 1.857 18.371 1.321 1.321 1.279 1.645-.365 2.848-1.199.876-1.478 1.609-.788 2.067.587.391 1.358 1.498 1.714 2.461.355.963 1.573 1.75 2.708 1.75 1.135 0 2.321.672 2.636 1.494.316.822 1.046 1.203 1.623.846.583-.361.756-.174.389.42-.363.588-.095 1.318.596 1.622.691.304-.431.292-2.494-.026-2.971-.458-3.75-.256-3.75.974 0 .853.558 1.897 1.24 2.318.837.518.43.958-1.25 1.354-2.042.483-2.501 1.209-2.551 4.043-.164 9.33 3.357 11.035 24.061 11.651 8.25.245 16.575.503 18.5.573 6.438.233 18.488-.612 19.509-1.367.556-.411 5.056-.948 10-1.194 4.945-.245 10.116-.7 11.491-1.01 3.71-.839 44.506-6.021 58.223-7.397 5.36-.537 5.78-.423 6.622 1.813.495 1.312.806 18.361.691 37.886-.167 28.598-.501 36.375-1.719 40-.831 2.475-1.447 6.075-1.369 8 .078 1.925-.45 5.75-1.174 8.5s-1.576 6.8-1.894 9c-.318 2.2-.983 4.427-1.479 4.95-.496.522-.901 1.705-.901 2.628 0 .922-.646 2.213-1.436 2.869-.789.655-1.745 2.623-2.124 4.372-.378 1.75-1.989 5.769-3.578 8.931-1.59 3.162-2.547 5.757-2.126 5.765.42.009.089.444-.736.967-.825.523-1.508 1.536-1.519 2.252-.01.715-1.22 3.767-2.69 6.783a1506 1506 0 0 0-5.752 11.983c-3.236 6.828-6.15 12.158-7.108 13-.313.275-1.625 2.75-2.915 5.5s-3.177 6.202-4.193 7.671c-1.016 1.469-3.141 5.131-4.722 8.137-1.582 3.007-3.613 6.305-4.513 7.329-5.295 6.022-6.94 8.235-9.676 13.017-1.669 2.917-3.464 5.569-3.99 5.894-.525.325-.653 1.079-.284 1.676.375.606.211.801-.372.44-.574-.354-2.307 1.039-3.852 3.096-1.544 2.057-3.282 4.071-3.861 4.475-.579.404-.689.741-.245.75.445.008-1.269 2.715-3.808 6.015-2.539 3.3-4.328 6-3.974 6 .354 0-.736 1.463-2.422 3.25-10.33 10.953-13.756 14.805-17.309 19.462-2.187 2.866-4.836 5.484-5.886 5.817-1.05.333-1.909 1.22-1.909 1.971 0 .751-.872 1.642-1.937 1.98-1.066.338-2.528 1.949-3.249 3.579-.722 1.631-2.134 3.225-3.139 3.544-1.004.319-1.586.819-1.293 1.112.293.293-1.042 1.601-2.966 2.907-5.155 3.498-11.438 9.534-10.874 10.446.27.437.033 1.076-.526 1.422-.559.345-1.016.123-1.016-.493 0-1.561-9.712 3.878-12.837 7.188-1.983 2.101-3.834 2.857-8.116 3.315-3.051.326-7.465 1.082-9.809 1.68-2.344.598-6.619 1.081-9.5 1.074-2.881-.008-6.407.583-7.835 1.313-1.429.73-4.804 1.296-7.5 1.259-2.697-.037-6.253.496-7.903 1.185-1.65.689-5.029 1.312-7.51 1.385-2.923.086-6.152 1.095-9.18 2.87-4.428 2.595-5.065 2.695-12.241 1.926-4.163-.446-7.569-.458-7.569-.026 0 .431-1.171.339-2.603-.205-1.432-.544-6.549-.937-11.372-.872-5.408.073-9.681-.37-11.147-1.155-3.023-1.619-16.01-2.919-17.516-1.755-.626.484-2.989.585-5.25.223-2.441-.39-4.112-.264-4.112.312 0 1.546 7.329 3.321 14.19 3.437 4.139.07 5.622.374 4.31.883-1.1.427-3.018.544-4.261.26-1.77-.404-2.128-.168-1.646 1.088.442 1.153 1.331 1.424 3.16.965 1.78-.446 2.332-.294 1.837.507-.978 1.583-3.571 1.435-8.714-.498-2.407-.905-7.526-2.053-11.376-2.553-11.721-1.52-16.551-2.551-17.5-3.735-1.361-1.698-15.369-6.366-16.302-5.432-.574.574-11.398-5.055-13.664-7.105-.968-.876-2.609-1.757-3.647-1.958-3.575-.69-9.387-3.946-9.387-5.258 0-.723-.702-1.315-1.559-1.315s-1.313-.399-1.011-.886c.748-1.211-2.823-2.035-6.385-1.474-2.081.328-5.033-.646-10.235-3.377-4.02-2.111-9.335-4.483-11.81-5.27-4.039-1.286-7-3.097-7-4.283 0-.959 5.017.606 6.092 1.901 1.514 1.824 4.003 1.799 3.299-.033-.3-.783-2.251-2.105-4.336-2.939-2.197-.879-4.016-2.383-4.329-3.578-.316-1.209-1.36-2.061-2.525-2.061-1.093 0-2.246-.675-2.563-1.5-.316-.825-.378-1.5-.137-1.5.865 0 8.062 4.248 11.182 6.6 1.751 1.32 3.889 2.4 4.75 2.4.862 0 1.567.378 1.567.839 0 .949 5.036 3.459 5.669 2.825.661-.661-7.167-8.664-8.474-8.664-1.383 0-13.534-8.739-14.028-10.089-.184-.501-1.179-.911-2.213-.911s-3.584-1.689-5.667-3.754c-2.083-2.065-5.465-4.605-7.516-5.646-2.051-1.041-4.005-2.76-4.341-3.822-.337-1.061-.817-1.724-1.067-1.474s-2.317-1.283-4.594-3.406c-4.62-4.308-5.936-4.38-3.285-.179 1.424 2.257 1.047 2.069-2.002-.993-2.626-2.638-4.317-3.596-5.619-3.182-1.025.325-1.863.11-1.863-.477s-.955-1.067-2.122-1.067c-1.774 0-1.918.247-.878 1.5 2.375 2.861.316 1.484-2.491-1.667-1.749-1.962-2.192-2.925-1.166-2.531 1.986.761 2.077-.165.252-2.569-.746-.984-2.016-1.509-2.863-1.184-2.237.859-8.998-6.431-16.459-17.745-3.522-5.341-7.297-9.994-8.389-10.341-1.092-.347-3.373-1.985-5.067-3.642-2.431-2.376-3.278-2.728-4.015-1.666-.644.928-.737.647-.3-.905.459-1.631.211-2.25-.903-2.25-.955 0-1.318-.568-.961-1.5.317-.825.098-1.5-.486-1.5-1.575 0-6.152-4.867-6.152-6.543 0-.798-1.624-3.249-3.61-5.447-2.464-2.727-3.399-4.544-2.947-5.722.365-.95.355-1.419-.022-1.043-1.31 1.311-3.938-1.107-6.421-5.91-1.375-2.659-2.837-4.985-3.25-5.168-.413-.184-.75-.88-.75-1.547 0-2.258-6.887-14.12-8.198-14.12-.74 0-1.379-1.295-1.481-3-.099-1.65.047-2.213.323-1.25.276.963.968 1.75 1.538 1.75 1.509 0 .046-4.955-2.031-6.882-.96-.89-1.183-1.243-.496-.785.863.575.749-.442-.371-3.293-1.048-2.666-2.096-3.942-2.965-3.609-.978.375-1.184-.121-.757-1.822.412-1.641.087-2.53-1.091-2.982-1.053-.404-1.445-1.252-1.052-2.276.391-1.02-.131-2.162-1.397-3.048-1.112-.779-2.022-1.997-2.022-2.707 0-.709-.9-2.328-2-3.596-1.1-1.268-2-3.137-2-4.153 0-1.016-.477-1.847-1.059-1.847s-.779-.453-.437-1.007c.343-.554-.081-1.277-.941-1.607-.859-.33-1.563-1.033-1.563-1.563 0-.529-1.288-2.844-2.863-5.143s-3.205-5.27-3.622-6.603c-.418-1.333-1.492-3.216-2.387-4.185-2.113-2.288-8.838-14.784-7.072-13.142 1.935 1.8 2.944 1.542 2.944-.75 0-1.1-.45-2-1-2s-.929-.338-.841-.75c.302-1.428-1.372-4.236-2.215-3.715-.466.287-1.39-1.29-2.053-3.506-.664-2.216-1.794-4.029-2.511-4.029-1.772 0-4.325-8.982-4.966-17.473-.589-7.794.325-8.34 1.462-.875.446 2.927 1.212 4.749 1.932 4.598.655-.138 1.192.114 1.192.559 0 .445.668 1.682 1.485 2.75 1.372 1.793 1.46 1.597 1.158-2.559-.18-2.475-.848-5.767-1.485-7.315-.637-1.548-1.158-3.236-1.158-3.75 0-.828-1.342-1.305-3.102-1.103-.331.038-.388-1.049-.127-2.416.278-1.452-.178-3.209-1.097-4.224-1.073-1.186-1.276-2.207-.639-3.215 1.357-2.145 1.172-3.27-.436-2.653-1.879.721-2.799-3.03-1.323-5.394.631-1.011.803-2.184.382-2.606-.422-.421-1.161-.128-1.644.653-1.157 1.873-1.739-.711-2.893-12.847-.49-5.153-1.357-9.658-1.928-10.011-1.301-.804-1.87-12.521-.819-16.869.518-2.145.418-3.25-.295-3.25-.593 0-1.079-.955-1.079-2.122 0-1.774-.247-1.918-1.5-.878-1.251 1.038-1.5.902-1.5-.819 0-1.134-.45-2.341-1-2.681-.55-.34-1-1.068-1-1.618s.45-.722 1-.382c.55.34 1-.364 1-1.563 0-1.826-.245-1.979-1.5-.937-1.286 1.068-1.5.729-1.5-2.378 0-1.992.436-3.622.969-3.622.532 0 .731.617.442 1.371-.694 1.809 2.683 3.084 3.744 1.413 1.185-1.869 1.024-3.013-.31-2.189-.751.465-.881.272-.371-.552.456-.738.207-1.631-.596-2.139-1.09-.691-1.012-.877.372-.889.962-.008 1.75-.465 1.75-1.015 0-1.4-2.351-1.248-3.859.25-1.01 1.002-1.127.903-.593-.5.366-.962 1.323-1.75 2.126-1.75 1.068 0 1.261-.606.72-2.25-.407-1.237-.668-3.263-.578-4.5.172-2.395-2.332-3.2-3.114-1-.244.688-.294.044-.112-1.43.183-1.474-.096-2.824-.62-3-.523-.176-1.639-2.961-2.479-6.19-1.646-6.321-1.165-14.552 1.058-18.13 1.873-3.014 2.883-6.885 1.587-6.084-1.206.745-2.676-3.733-1.728-5.267 1.109-1.795 1.846-16.424.794-15.774-.546.337-1.265-.096-1.597-.963-.864-2.252-.781-2.417.895-1.774.95.365 1.5-.013 1.5-1.031 0-.884-.788-1.639-1.75-1.677-1.481-.06-1.443-.191.25-.852 1.922-.752 1.91-.811-.315-1.518-2.213-.704-2.309-1.14-2.171-9.898.079-5.039-.169-10.175-.552-11.412-.435-1.408-.276-2.25.425-2.25.615 0 1.054-1.238.975-2.75-.079-1.513-.081-3.624-.003-4.691.137-1.882.183-1.884 1.499-.084.87 1.19 1.183 3.416.87 6.192-.29 2.576-.078 4.333.523 4.333 1.237 0 3.249-7.627 3.249-12.317 0-1.887.7-5.401 1.556-7.807 1.742-4.9 2.122-11 .812-13.033-.476-.739-.928-4.493-1.005-8.343-.078-3.85-.303-8.343-.502-9.985-.294-2.436.007-2.988 1.639-3 1.444-.011 2.089-.795 2.322-2.819.207-1.809 1.183-3.197 2.75-3.911 2.494-1.136 2.955-2.933 2.48-9.668-.131-1.861.222-3.668.784-4.016.563-.348 1.119-3.325 1.235-6.617.116-3.291.882-12.959 1.703-21.484.82-8.525 1.45-16.85 1.401-18.5-.079-2.62.046-2.762.986-1.126.608 1.058.816 3.778.477 6.25-.391 2.854-.221 4.376.488 4.376.598 0 .834-.661.525-1.468-.31-.807-.128-1.737.404-2.066.532-.328.916-1.805.853-3.282-.062-1.476.227-5.542.643-9.036 1.004-8.443 2.56-5.791 2.56 4.362 0 4.614.408 7.49 1.061 7.49.611 0 .844-1.135.549-2.678-.281-1.473.032-6.31.697-10.75 1.598-10.671 1.352-16.945-.747-19.044-.986-.985-1.671-3.258-1.671-5.54 0-2.129-.372-4.1-.827-4.381-.455-.281-.411-2.895.097-5.809.992-5.692 1.099-13.901.229-17.548-.378-1.581-.086-2.25.982-2.25.835 0 1.519-.45 1.519-1s-.45-1-1-1-.993-.788-.985-1.75c.012-1.388.197-1.464.891-.368.685 1.082 1.026.909 1.567-.798.381-1.199.283-2.721-.218-3.382s-.77-2.64-.599-4.397c.178-1.828-.305-3.811-1.128-4.634-1.252-1.252-1.071-1.512 1.387-2.004 3.478-.696 4.033-2.582 3-10.197-.531-3.913-.435-6.343.284-7.21.597-.719 1.098-3.772 1.114-6.784.016-3.012.388-5.476.826-5.476.439 0 .539-.675.223-1.5-.317-.825-.219-2.287.217-3.25.436-.962.907-3.325 1.046-5.25.48-6.605 1.592-12.501 2.59-13.731.549-.678 1.113-3.706 1.252-6.73.242-5.237 1.678-8.539 3.714-8.539.516 0 .659.45.319 1s-.179 1 .358 1c.537 0 .851-1.575.698-3.5-.152-1.925.13-3.5.627-3.5.498 0 .772-.788.611-1.75-.208-1.235.261-1.654 1.592-1.425 1.394.24 1.722-.102 1.257-1.313-.346-.901.08-3.01.947-4.686.867-1.676 1.787-5.135 2.044-7.687.258-2.551.928-6.094 1.489-7.873.562-1.779.733-4.143.381-5.253-.392-1.236-.032-2.628.929-3.588.942-.943 1.345-2.46 1.01-3.798-.354-1.407.737-4.971 2.962-9.677 2.008-4.248 3.43-6.376 3.308-4.95-.117 1.375-.65 2.813-1.184 3.196-.534.382-.636 1.03-.227 1.439.763.763 4.156-3.337 4.251-5.135.029-.55.771-2.354 1.65-4.008.879-1.655 1.755-3.905 1.948-5 .192-1.096.691-2.247 1.11-2.558.937-.697 4.739-11.356 4.739-13.287 0-.771.701-1.984 1.558-2.695.857-.711 2.198-2.679 2.98-4.372 1.6-3.466 3.408-6.387 5.112-8.26.633-.695 1.731-3.526 2.439-6.292.709-2.765 1.654-5.028 2.1-5.028.446 0 .811-.675.811-1.5s.498-1.5 1.107-1.5.865-.631.569-1.403c-.296-.771.091-2.234.861-3.25s1.414-3.029 1.431-4.475c.018-1.445.707-3.187 1.532-3.872.825-.685 1.5-1.76 1.5-2.39 0-2.4 5.019-8.54 6.512-7.967.818.314 1.488.046 1.488-.595s-.526-.841-1.17-.443c-.819.506-.946.148-.426-1.191.409-1.053.823-2.327.92-2.831.097-.504 1.005-1.783 2.018-2.842 1.036-1.082 1.624-2.761 1.344-3.832-.274-1.049-.09-2.159.408-2.467.498-.308.906-1.636.906-2.951 0-1.316.563-2.751 1.25-3.191.688-.44 2.065-3.275 3.06-6.3 2.22-6.745 10.03-22.481 10.483-21.122.18.542-.392 2.38-1.273 4.084-.881 1.703-1.332 3.534-1.002 4.067.33.534.075.971-.566.971-.641 0-.912.661-.603 1.468.31.807.133 1.734-.393 2.059-.526.325-.956 1.244-.956 2.043 0 .798-.962 3.499-2.139 6.002-1.357 2.887-1.79 4.899-1.185 5.504 1.207 1.207 5.852-8.712 5.479-11.698-.148-1.189.419-2.384 1.29-2.719.855-.328 1.555-1.542 1.555-2.699 0-1.157.613-2.716 1.361-3.464.749-.749 1.664-3.251 2.033-5.56.37-2.309 1.848-6.685 3.286-9.725 1.438-3.039 2.71-7.143 2.827-9.119.117-1.975.332-3.705.478-3.842.146-.137.321-.638.39-1.113.297-2.053 7.253-11.133 8.53-11.135 1.174-.002 1.16.286-.085 1.748-2.055 2.413-5.997 11.218-5.582 12.465.373 1.119 5.762-6.544 5.762-8.194 0-.561.454-1.021 1.01-1.021.555 0 2.047-2.258 3.316-5.018 1.268-2.759 2.613-4.709 2.99-4.333.376.376.684.111.684-.589 0-.722-.651-1.024-1.5-.698-2.209.847-1.826-1.142.5-2.594 1.1-.687 2-1.941 2-2.786 0-.846.9-2.308 2-3.25 1.923-1.647 2-1.617 2 .778 0 1.369.26 2.49.578 2.49 1.012 0 9.425-9.453 9.343-10.498-.043-.551-.306-.439-.583.248-.278.687-.972 1.25-1.544 1.25-.646 0-.587-.544.157-1.441.657-.792 1.837-1.194 2.622-.893.785.302 1.427.135 1.427-.37 0-.506.923-1.91 2.051-3.12 1.128-1.211 1.777-2.646 1.441-3.189-.336-.543.01-.987.769-.987 1.427 0 5.739-4.387 5.739-5.839 0-.453 1.125-1.425 2.5-2.161s2.5-1.712 2.5-2.169c0-.457.456-.831 1.014-.831 1.493 0 6.887-6.159 7.563-8.636.411-1.507 1.148-1.987 2.503-1.633 1.925.504 2.793-1.271.927-1.898-.546-.183 1.019-1.683 3.478-3.333 2.459-1.65 4.481-3.329 4.493-3.731.054-1.791 6.731-9.631 8.653-10.16 1.171-.323 2.427-1.38 2.791-2.348 1.369-3.647 4.39-8.325 4.727-7.321.203.604 2.886-.218 6.351-1.945 3.3-1.644 7.467-3.266 9.261-3.605 1.794-.339 3.508-1.016 3.809-1.503.301-.488 1.409-.887 2.462-.887 1.73 0 9.167-2.937 12.968-5.12 6.919-3.975 11.934-6.185 14.482-6.381 2.221-.171 3.102-.796 3.338-2.366.175-1.173.995-2.133 1.821-2.133s2.177-.675 3.002-1.5c1.738-1.738 10.357-2.085 10.357-.417 0 .596.563.877 1.25.625.688-.252 1.137-.964 1-1.583-.138-.619.987-1.132 2.5-1.14 1.944-.011 2.348-.27 1.38-.884-.937-.593-.067-.992 2.75-1.261 2.88-.275 4.12-.009 4.12.884 0 .702.477 1.276 1.059 1.276s.796-.426.474-.946c-1.755-2.841 23.485-5.582 32.967-3.58 3.427.724 6.407.894 6.95.396 1.357-1.243 12.822-1.12 12.05.13-.34.55.294 1 1.41 1 1.391 0 1.847.471 1.452 1.5-.785 2.044.2 1.884 3.525-.575 3.521-2.603 9.69-2.391 9.474.325-.076.963.261 1.75.75 1.75h1.389c.275 0 .474-.306.442-.681-.099-1.151 6.466-3 8.058-2.27.825.378 3.2.995 5.278 1.37 2.078.375 3.512 1.111 3.189 1.635-.324.524-1.687.678-3.028.341-1.487-.373-2.439-.179-2.439.497 0 1.061 2.009 1.547 4.824 1.166.728-.099 1.853.238 2.5.749.647.512 2.526.965 4.176 1.008 1.65.042 5.7 1.052 9 2.243 3.3 1.191 7.125 2.285 8.5 2.431 1.375.146 3.85.815 5.5 1.486s4.012 1.289 5.249 1.372c1.237.084 2.257.603 2.266 1.153.008.55.39.409.848-.313 1.244-1.962 6.069-1.666 11.137.683 2.872 1.331 3.776 2.109 2.5 2.15-1.523.049-1.165.521 1.5 1.98 1.925 1.054 4.063 1.935 4.75 1.958 2.231.075 1.322-1.543-1.5-2.669-2.666-1.064-2.643-1.083.75-.601 4.702.668 9.859 2.274 10.469 3.261.273.442-1.184.224-3.237-.483-3.473-1.198-5.27-1.171-4.039.06.29.29 3.177 1.455 6.417 2.59 3.239 1.134 8.989 3.586 12.777 5.447 3.788 1.862 7.346 3.102 7.905 2.757.559-.346.736-.174.391.383-.344.557 1.476 2.089 4.043 3.405 2.568 1.315 5.625 3.292 6.794 4.392 5.037 4.741 12.663 9.964 17.59 12.047 6.561 2.773 12.055 7.747 11.265 10.2-.438 1.363-.344 1.445.423.368.805-1.13 1.191-1.004 2.093.682.609 1.137 1.976 2.343 3.038 2.681 1.085.344 2.217 1.909 2.581 3.568.441 2.008 1.426 3.151 3.07 3.563 1.404.353 2.42 1.341 2.42 2.353 0 .96 1.125 2.96 2.5 4.443 1.375 1.484 2.501 3.237 2.501 3.897.001.659 1.098 2.473 2.437 4.03 1.34 1.558 2.214 3.411 1.942 4.119-.278.725.436 1.529 1.638 1.844 1.836.48 1.973.854.986 2.698-.912 1.703-.814 2.648.478 4.62.916 1.398 1.353 3.33 1.004 4.433-.401 1.261-.154 1.959.697 1.969.892.011.963.253.218.75-1.252.838-1.488 7.235-.266 7.235.441 0 .589.562.328 1.25-.516 1.363 3.668 6.75 5.243 6.75 1.036 0 3.081 3.827 2.938 5.5-.047.55-.661.868-1.364.706-.704-.161-1.28.176-1.28.75 0 .574.4 1.044.889 1.044 1.169 0 .886 3.303-.36 4.196-.534.382-.642 1.024-.24 1.427.835.834 3.759-2.737 3.106-3.793-.235-.38-.021-.943.475-1.25.496-.306 1.137.337 1.423 1.431.286 1.094.112 1.989-.387 1.989-1.365 0-1.088 2.748.344 3.417.982.458.969.712-.061 1.187-1.022.47-.92 1.035.46 2.561 1.523 1.683 1.567 2.087.311 2.881-.885.56-.994.929-.277.939.672.008 1.145 1.352 1.095 3.11-.086 3.031 1.734 5.242 3.722 4.522.563-.204 1.061 1.658 1.14 4.26.077 2.543.227 7.986.335 12.097.107 4.111.622 8.273 1.145 9.25.523.977.58 1.776.128 1.776-.453 0-.893 1.753-.978 3.895-.086 2.143-.833 5.518-1.662 7.5-1.447 3.464-1.425 3.605.565 3.605 1.728 0 1.865.249.827 1.5-.86 1.036-.898 1.5-.122 1.5.617 0 1.069.337 1.004.75-.442 2.799.273 4.022 2.076 3.551 1.131-.296 3.089.377 4.635 1.593 2.943 2.315 5.432 2.681 7.074 1.039.757-.757 1.243-.611 1.669.5.378.984.055 1.567-.867 1.567-1.97 0-1.886 2.767.096 3.177 1.319.272 1.241.669-.5 2.531-2.085 2.23-2.833 6.292-1.159 6.292.499 0 .702.788.452 1.75-.268 1.031.316 2.161 1.421 2.75 3.399 1.812 6.674 3.3 9.971 4.53 1.788.667 3.25 1.763 3.25 2.436s.916 2.053 2.035 3.066c1.12 1.013 1.809 2.433 1.532 3.155-.318.829.314 1.344 1.714 1.397 1.221.047 4.919.425 8.219.84 3.3.416 7.35.412 9-.008 1.65-.421 8.525-1.031 15.279-1.357 6.753-.326 14.502-1.069 17.221-1.652 3.651-.783 6.454-.739 10.722.17 3.178.677 8.058 1.323 10.845 1.437 2.787.114 7.287.697 10 1.296 2.713.598 12.358 2.054 21.433 3.235s16.725 2.27 17 2.421c.275.15 4.775-.351 10-1.114 11.392-1.664 22.784-2.206 54.096-2.575 15.713-.184 24.066-.656 25-1.412.772-.624 2.913-1.457 4.758-1.852 4.906-1.05 11.515-4.158 13.496-6.348.95-1.049 2.423-5.321 3.274-9.494 1.38-6.769 1.388-8.911.078-19.879-.926-7.749-1.185-14.325-.7-17.792.826-5.901.235-60.808-.67-62.272-.299-.483-.938-4.332-1.42-8.553-1.483-12.992-3.373-24.614-4.211-25.909-.74-1.143-2.441-10.406-4.822-26.266-.537-3.575-1.349-7.193-1.805-8.04-.456-.847-1.165-4.447-1.575-8-.411-3.553-1.186-7.585-1.723-8.96-.537-1.375-1.194-3.85-1.461-5.5-.267-1.65-1.15-5.7-1.963-9-.814-3.3-2.193-9.375-3.066-13.5-.872-4.125-1.908-7.725-2.302-8-.393-.275-1.934-4.1-3.425-8.5-1.49-4.4-3.575-9.828-4.632-12.061-1.058-2.234-2.616-6.397-3.464-9.25-.847-2.854-1.973-5.189-2.502-5.189-.528 0-.961-.694-.961-1.542 0-1.464-3.493-8.951-8.475-18.166-1.251-2.315-2.628-3.89-3.06-3.5-.432.389-.483.18-.114-.465.656-1.145-2.262-7.133-5.124-10.518-.787-.93-2.633-3.964-4.102-6.743-1.47-2.78-4.049-6.519-5.731-8.31-1.682-1.791-4.9-5.956-7.15-9.256-2.251-3.3-5.524-7.35-7.273-9-1.749-1.65-5.222-5.637-7.718-8.859-4.599-5.939-10.391-12.141-11.338-12.141-.285 0-2.07-1.754-3.966-3.897-1.897-2.144-4.925-5.294-6.728-7-1.804-1.707-6.98-6.703-11.503-11.103-7.731-7.521-15.189-14.125-20.568-18.214-1.293-.982-4.218-3.47-6.5-5.529-2.283-2.059-4.689-3.544-5.349-3.301-.659.243-1.451-.323-1.759-1.257-.309-.934-3.482-3.436-7.052-5.558-3.569-2.123-6.49-4.309-6.49-4.857 0-.549-.646-.75-1.435-.447-.79.303-1.577.238-1.75-.143-.557-1.228-8.208-5.817-11.707-7.021-2.853-.983-3.575-.916-4.552.419-1.066 1.458-4.368 1.669-5.556.355-.275-.304-2.3-1.879-4.5-3.5s-4.45-3.467-5-4.103C911.261 128.912 891.688 119 890.099 119c-1.541 0-13.414-6.018-12.896-6.537.224-.223 2.313.538 4.643 1.691 4.159 2.058 6 2.023 4.695-.087-.362-.587-1.806-1.067-3.207-1.067-1.854 0-2.391-.409-1.972-1.5.415-1.084-.11-1.5-1.893-1.5-1.358 0-2.469-.45-2.469-1s-1.152-1-2.559-1c-1.407 0-2.316-.394-2.018-.875.297-.481-1.517-1.451-4.032-2.156-2.515-.704-4.795-1.857-5.066-2.563-.406-1.059-4.9-2.712-6.798-2.501-.279.031-3.907-1.735-8.064-3.925-4.157-2.189-8.557-3.98-9.778-3.98-1.222 0-3.876-1.125-5.9-2.5-2.023-1.375-4.115-2.5-4.649-2.5-.533 0-1.121-.454-1.306-1.01-.185-.555-1.404-1.215-2.708-1.466-1.304-.252-3.424-1.147-4.711-1.991-1.287-.843-3.058-1.533-3.935-1.533-.877 0-1.316-.45-.976-1 .347-.561-.439-1-1.788-1-1.323 0-3.444-.9-4.712-2-1.268-1.1-2.8-2.034-3.403-2.077-2.802-.195-4.948-.871-5.497-1.731-.33-.517-2.175-1.266-4.1-1.665-1.925-.398-4.4-1.289-5.5-1.981-1.1-.692-5.6-2.496-10-4.009-4.4-1.513-8.891-3.224-9.981-3.803-1.089-.578-3.71-1.207-5.824-1.397-2.115-.191-4.72-.815-5.79-1.388-1.071-.573-2.387-.769-2.926-.436-.538.333-.979.102-.979-.513s-.412-.864-.915-.553c-.503.311-1.104 0-1.337-.691-.331-.984-.783-.959-2.085.116-.958.791-1.663.927-1.663.322 0-.577-2.587-1.364-5.75-1.747-3.163-.384-6.595-1.138-7.627-1.676-1.351-.703-2.118-.598-2.735.376-.685 1.08-.86 1.089-.873.044-.008-.72-.456-1.037-.994-.704-.539.333-2.001.034-3.25-.664-1.249-.698-3.171-1.354-4.271-1.458-1.1-.104-5.375-.463-9.5-.799-11.411-.929-17.151-1.511-21-2.127-9.569-1.531-20-.693-20 1.608 0 .524-3.213.953-7.14.953-5.621 0-7.425.372-8.483 1.75-1.257 1.637-1.384 1.608-1.963-.444-.711-2.524-2.979-3.055-9.608-2.249-2.581.313-4.53.306-4.331-.016.199-.323-3.737-.717-8.747-.876-5.011-.159-11.386-.777-14.169-1.373-5.935-1.272-39.089-1.62-52.059-.547m347.508 79.537c.004.395 1.916 1.843 4.25 3.218 5.469 3.223 5.742 3.332 5.742 2.299 0-.477-1.459-1.752-3.242-2.833-4.248-2.575-6.76-3.574-6.75-2.684m18.945 13.949c1.899 1.523 4.824 3.349 6.5 4.057l3.047 1.289-2.644-2.481c-1.455-1.364-4.38-3.19-6.5-4.057l-3.856-1.576 3.453 2.768M942 146.978c0 .837 2.193 2.09 8.5 4.855 1.505.66-3.683-3.147-6.257-4.591-1.311-.736-2.243-.846-2.243-.264m-649 46.869c0 1.024-6.005 7.185-8.622 8.844-1.754 1.113-1.76 1.195-.091 1.25.983.033 3.796-2.007 6.25-4.533 4.404-4.53 5.418-6.408 3.463-6.408-.55 0-1 .381-1 .847m-20.839 21.739c-4.037 4.163-7.013 7.871-6.613 8.241.399.37.927.111 1.172-.577.246-.687 1.047-1.25 1.78-1.25.733 0 1.483-.417 1.667-.926.183-.51 2.383-3.098 4.889-5.75 5.041-5.338 6.47-7.329 5.253-7.315-.445.005-4.112 3.415-8.148 7.577m3.062 3.358c-2.812 2.568-4.171 5.056-2.762 5.056.708 0 4.585-4.284 5.656-6.25 1.313-2.41.836-2.213-2.894 1.194m-9.223 9.73c-1.925 2.504-5.413 6.585-7.75 9.071-2.338 2.485-4.25 4.936-4.25 5.446 0 .51-.385.689-.855.399-1.059-.655-5.723 4.165-4.862 5.026.343.343 2.557-1.225 4.92-3.485s4.634-4.114 5.047-4.12c.413-.006.75-.604.75-1.329 0-.724 2.46-3.96 5.466-7.191 5.284-5.677 7.249-8.557 5.753-8.43-.396.033-2.294 2.109-4.219 4.613m-11 5.179c0 .469-3.623 4.631-8.051 9.25-7.461 7.782-10.75 11.897-9.51 11.897.664 0 8.181-7.772 12.25-12.665 6.026-7.246 7.454-9.335 6.384-9.335-.59 0-1.073.384-1.073.853m13.75 6.314c-2.125 2.225-2.193 2.833-.317 2.833.788 0 1.729-.934 2.091-2.075.875-2.757.349-2.982-1.774-.758m-14.178 8.083-3.855 5.25 3.554-3.361c1.955-1.849 3.776-4.212 4.048-5.25.272-1.039.407-1.889.301-1.889-.106 0-1.928 2.363-4.048 5.25m10.456-1.802c-.72 1.345-1.985 2.705-2.81 3.022-1.241.476-1.282.312-.237-.947 2.731-3.291-.789-1.291-4.359 2.477-2.459 2.595-3.255 4-2.265 4 .839 0 1.803-.45 2.143-1 .34-.55 1.44-1 2.445-1 2.473 0 7.504-2.684 5.982-3.191-.95-.317-.948-.901.011-2.692.673-1.259 1.038-2.474.811-2.701-.227-.227-1.002.687-1.721 2.032m-76.457 55.123c-.864.865-1.571 2.35-1.571 3.3 0 .951-.338 2.166-.75 2.7-.412.534.231-.131 1.43-1.479 1.915-2.152 3.725-6.092 2.798-6.092-.184 0-1.042.707-1.907 1.571m502.744 30.13c.354.572 1.89 1.292 3.414 1.6 1.524.307 3.632.892 4.685 1.299 1.229.475 1.684.368 1.271-.301-.354-.572-1.89-1.292-3.414-1.6-1.524-.307-3.632-.892-4.685-1.299-1.229-.475-1.684-.368-1.271.301M703 334.996c0 1.213 2.805 2.533 3.629 1.709.298-.299-.396-1.045-1.543-1.659-1.447-.774-2.086-.789-2.086-.05m20.338 8.622c2.919 1.582 4.367 1.332 3.203-.551-.362-.587-1.87-1.049-3.35-1.027l-2.691.04 2.838 1.538M819 350c0 .55.927 1 2.059 1 1.132 0 1.781-.45 1.441-1-.34-.55-1.266-1-2.059-1-.793 0-1.441.45-1.441 1m57.984 2.481c.639.77 1.824 1.146 2.632.836 1.814-.696 1.334-1.249-1.57-1.808-1.813-.349-2.009-.17-1.062.972m-38.817 4.528c1.732 1.655 3.375 2.782 3.652 2.505.559-.559-4.885-5.511-6.06-5.513-.407 0 .676 1.353 2.408 3.008m-7.917-.32c.962.252 1.75 1.086 1.75 1.853 0 .882.603 1.164 1.64.766 1.482-.569 1.464-.759-.191-1.969-1.007-.736-2.533-1.287-3.39-1.223-1.211.09-1.169.218.191.573m-337.757 15.3c.35.566-.051.734-.941.393-.986-.379-1.552-.038-1.552.933 0 .842-1.462 2.019-3.25 2.617-3.637 1.217-8.953 8.068-6.259 8.068.83 0 1.509-.603 1.509-1.339 0-.737 1.138-1.858 2.528-2.492 1.391-.633 2.789-1.831 3.107-2.66.318-.83 1.206-1.509 1.972-1.509s1.393-.498 1.393-1.107.638-.862 1.417-.563c1.445.554 2.933-1.646 1.847-2.732-.989-.99-2.428-.672-1.771.391M876 438.45c0 .798-.788 1.957-1.75 2.576-1.634 1.051-1.629 1.087.082.55 1.007-.317 2.428-.576 3.156-.576.832 0 1.13-.743.802-2-.603-2.303-2.29-2.708-2.29-.55m-40 .444c0 .492 1.125.83 2.499.75 3.258-.188 3.259-1.644.001-1.644-1.375 0-2.5.402-2.5.894m27.459 3.173c-1.089 1.762.059 2.009 2.114.454 1.692-1.28 1.721-1.461.236-1.489-.93-.018-1.988.448-2.35 1.035M329.5 461.327c-1.501 1.878-1.722 3.914-.377 3.465 1.311-.437 3.24-4.815 2.095-4.754-.395.021-1.168.601-1.718 1.289m-5.24 15.923c-1.71 3.567-2.259 5.75-1.448 5.75.412 0 1.376-1.462 2.141-3.25.766-1.788 1.577-3.587 1.803-4 .226-.413-.001-.75-.504-.75s-1.399 1.012-1.992 2.25m581.905 5.627c-1.014.643-.834.976.75 1.391 1.383.361 2.085.071 2.085-.862 0-1.595-.891-1.761-2.835-.529m-817.08 4.31c-.648 1.859-.741 3.557-.222 4.076.785.785 3.137-4.022 3.137-6.412 0-2.085-1.907-.556-2.915 2.336m220.522-.605c-1.093 2.849-.574 3.959.925 1.977.807-1.068 1.468-2.305 1.468-2.75 0-1.432-1.766-.861-2.393.773m598.155 3.221c-.316 1.207-.198 2.428.263 2.712 1.272.787 1.81-.779 1.018-2.961-.673-1.852-.735-1.84-1.281.249m-576.042 3.529c-1.114 2.833-.932 4.28.374 2.974.601-.601.926-1.929.72-2.95-.36-1.79-.399-1.791-1.094-.024m27.732 8.549c-.248.249-.452.785-.452 1.192 0 .856 3.829.012 4.442-.979.455-.736-3.268-.934-3.99-.213m559.499 1.56c.657.792 1.835 1.195 2.616.895 1.957-.751.771-2.336-1.748-2.336-1.683 0-1.843.266-.868 1.441M854.5 533c-.837 1.354.292 3 2.059 3 .793 0 1.441.45 1.441 1s.675 1 1.5 1 1.5-.45 1.5-1-.627-1-1.393-1c-1.804 0-2.859-2.722-1.301-3.356.657-.268.208-.522-.997-.565-1.205-.043-2.469.371-2.809.921m.757 5.845c-.043.91.367 3.117.911 4.905.774 2.55 1.532 3.25 3.517 3.25 1.875 0 2.375-.401 1.933-1.552-.389-1.014-.193-1.304.563-.836.767.474.949.17.54-.897-.464-1.208-.193-1.453 1.08-.977 1.512.567 1.54.442.255-1.137-1.008-1.238-2.278-1.607-4.206-1.221-2.044.409-2.628.205-2.248-.785.282-.735-.113-1.577-.878-1.871-.83-.318-1.422.134-1.467 1.121M77 542c0 1.1.45 2 1 2s1-.9 1-2-.45-2-1-2-1 .9-1 2m789.25 22.25c.229.688 1.017 1.25 1.75 1.25.733 0 1.521-.562 1.75-1.25.248-.744-.461-1.25-1.75-1.25s-1.998.506-1.75 1.25M285 587.8c0 .99-.412 2.228-.916 2.75-.561.581-.322 1.492.613 2.346 1.344 1.225 1.443 1.119.809-.876-.491-1.549-.369-2.053.387-1.586.699.432 1.107-.259 1.107-1.875 0-1.407-.45-2.559-1-2.559s-1 .81-1 1.8m655.75 189.889c-.962.252-1.75.875-1.75 1.384 0 1.459 2.626 1.082 4-.573 1.259-1.517.919-1.639-2.25-.811m-620.25 6.076c-1.57 1.154-1.645 3.235-.117 3.235.761 0 1.619-.9 1.907-2 .542-2.075-.071-2.498-1.79-1.235m-.52 51.273c-1.159 2.166-.525 8.817.984 10.326 1.349 1.349 3.919-.001 3.924-2.06.003-.992.31-3.063.684-4.602.511-2.105.215-3.149-1.196-4.218-2.523-1.91-3.118-1.835-4.396.554M30.667 851.667C29.613 852.72 29.891 858 31 858c.55 0 1-1.575 1-3.5 0-3.597-.182-3.984-1.333-2.833m180.101 5.768c-.256 1.34-.091 3.027.368 3.75.531.838.839-.045.849-2.435.017-4.287-.535-4.884-1.217-1.315M46.539 871.578c-1.405 1.87-2.08 2.174-2.692 1.209-.61-.961-.82-.863-.832.39-.027 3.014 3.38 2.619 4.75-.552 1.633-3.778 1.141-4.199-1.226-1.047m185.128 39.089c-.367.366-.621 2.054-.565 3.75l.103 3.083.821-3.493c.855-3.64.766-4.466-.359-3.34m64.067 19.933c-.284.284-.278 1.428.013 2.542.405 1.549.73 1.712 1.376.693.649-1.023.85-.926.862.415.008.962.465 1.75 1.015 1.75 1.935 0 .418-5.33-1.625-5.708-.619-.115-1.357.024-1.641.308M292 941c0 .55 1.125 1 2.5 1s2.5-.45 2.5-1-1.125-1-2.5-1-2.5.45-2.5 1m-63.724 9.988c-.09 1.195.462 2.012 1.359 2.012.874 0 1.375-.704 1.188-1.667-.472-2.438-2.37-2.695-2.547-.345M296 952.5c0 1.03.655 1.52 1.75 1.31 2.108-.406 1.975-2.181-.197-2.633-.906-.189-1.553.362-1.553 1.323m-68 45.774c0 1.985.417 3.866.926 4.18.534.33.731-1.001.466-3.142-.614-4.949-1.392-5.529-1.392-1.038m20.591 53.579c-.29.469.093 1.7.85 2.735 1.288 1.761 1.366 1.706 1.218-.852-.158-2.71-1.053-3.526-2.068-1.883m899.58 18.647c-.109 2.75-.43 6.125-.713 7.5l-.514 2.5 1.073-2.459c.59-1.352.911-4.727.713-7.5l-.36-5.041-.199 5m4.456 1.505c-1.001 7.754-1.803 22.504-1.189 21.891.714-.715 2.831-24.588 2.317-26.13-.23-.691-.738 1.217-1.128 4.239m-2.458 25.995c.029 1.925-.356 6.717-.856 10.65-.5 3.932-.632 7.94-.294 8.905.339.966 1.22-2.807 1.958-8.384.994-7.507 1.056-10.728.24-12.406-1.02-2.097-1.098-2.006-1.048 1.235m-5.375 5.25c-.231.688-.108 2.6.274 4.25.638 2.753.705 2.65.814-1.25.118-4.239-.292-5.369-1.088-3m-15.636 48c.228 3.505-.032 5.181-.783 5.042-1.405-.26-2.567 8.846-1.295 10.158.568.587.934.014.955-1.5.02-1.348.679-3.575 1.465-4.95 1.7-2.974 2.021-14 .408-14-.694 0-.967 1.913-.75 5.25m9.395-2c-.63 2.046-.281 4.75.614 4.75.458 0 .833-1.35.833-3 0-3.07-.759-3.987-1.447-1.75M76.07 1156.536c.039 1.63.414 3.843.835 4.917.643 1.645.871 1.417 1.444-1.449.486-2.428.247-3.837-.834-4.918-1.353-1.353-1.507-1.198-1.445 1.45m6.969 8.917c-1.001 1.206-1.011 1.547-.045 1.547.747 0 1.031.795.716 2-.34 1.3-.03 2 .884 2 1.534 0 1.887-3.694.552-5.797-.657-1.037-1.081-.986-2.107.25m1042.254 13.536c-.286 1.094-.838 1.792-1.226 1.553-.388-.24-.507.911-.266 2.557.546 3.717.842 3.443 2.038-1.878.935-4.163.463-6.093-.546-2.232m6.033 13.252c-3.117 11.839-3.569 15.011-2.067 14.484.683-.239 1.117-1.591.965-3.005-.152-1.413.186-2.855.75-3.204.564-.349 1.026-2.115 1.026-3.926 0-1.81.487-4.688 1.082-6.396.595-1.707.933-3.803.75-4.658-.183-.855-1.31 2.162-2.506 6.705m-7.914-4.491c.398.704.171 1.25-.52 1.25-.674 0-.978.248-.675.55.302.303.205 2.08-.217 3.95-1.206 5.346.322 5.186 1.69-.177.894-3.503.927-5.08.121-5.815-.768-.701-.889-.627-.399.242m12.088 10.953c-.406 1.539-.919 4.822-1.138 7.297-.219 2.475-.885 5.993-1.48 7.817-.595 1.824-.841 3.557-.547 3.851.669.669 2.211-5.114 3.726-13.973 1.175-6.871.806-10.157-.561-4.992m-16.18 1.547c-.378 4.725-1.317 11.171-1.919 13.169-.446 1.485-.312 1.785.469 1.049 1.43-1.349 3.636-9.17 3.633-12.876-.004-3.436-1.921-4.614-2.183-1.342m30.433 12.262c-.262 1.368-.141 2.488.269 2.488 1.072 0 1.941-3.905.998-4.487-.435-.269-1.005.63-1.267 1.999m-1.753 7.262c0 1.71.361 3.331.803 3.604.907.561.711-5.197-.208-6.117-.327-.327-.595.804-.595 2.513M366 1229c0 .55.45 1 1 1s1 .675 1 1.5.477 1.5 1.059 1.5.781.45.441 1-.141 1 .441 1c1.405 0 1.341-.554-.467-4.05-1.479-2.861-3.474-3.981-3.474-1.95m6.731 9.75c.681 1.785 4.269 6.064 4.269 5.092 0-.294-.708-1.954-1.573-3.688-1.643-3.294-3.858-4.447-2.696-1.404m752.517 5.92c-.569 2.107-1.799 6.755-2.732 10.33-.934 3.575-2.261 7.4-2.95 8.5-.689 1.1-2.067 5.349-3.064 9.443-.997 4.094-3.092 9.877-4.657 12.852-1.565 2.974-2.845 6.174-2.845 7.111 0 .936-1.303 3.757-2.896 6.269-5.027 7.926-8.878 18.039-6.251 16.416.469-.29 1.636-3.017 2.593-6.059.957-3.043 2.042-5.532 2.411-5.532.721 0 5.105-8.785 5.538-11.1.499-2.665 4.08-9.9 4.9-9.9.453 0 .545-.45.205-1-.34-.55-.093-1 .548-1s.918-.646.615-1.435c-.303-.79-.13-1.577.385-1.75.514-.173 1.028-1.665 1.142-3.315.113-1.65.739-3.9 1.391-5 .651-1.1 2.43-6.95 3.952-13 1.523-6.05 3.125-11.465 3.561-12.034.435-.568.431-1.616-.009-2.329-.539-.872-1.14-.042-1.837 2.533m-8.607 10.54c-.338 1.26-.575 3.19-.527 4.29.048 1.1.499.245 1.002-1.901.975-4.155.558-6.248-.475-2.389M848 1264.965c0 1.08-1.297 3.866-2.881 6.19-2.498 3.662-2.691 4.416-1.453 5.654.786.786 1.704 1.154 2.04.819.335-.336 1.174-.143 1.863.429.868.721 1.452.718 1.901-.008.356-.577-.054-1.049-.911-1.049s-1.559-.498-1.559-1.107-.675-.848-1.5-.531c-2.283.876-1.793-.874.983-3.507 1.365-1.295 2.49-3.277 2.5-4.405.009-1.128.557-2.59 1.217-3.25.933-.933.822-1.2-.5-1.2-1.023 0-1.7.782-1.7 1.965m57.846 3.045c-1.379 4.164-1.421 4.99-.25 4.99.772 0 1.333-.338 1.245-.75-.087-.412.101-1.425.419-2.25.955-2.48 1.506-7.001.851-6.99-.336.005-1.355 2.255-2.265 5m197.152-2.505c-.549 1.444-.998 3.496-.998 4.56 0 1.064-.45 1.935-1 1.935s-1 .675-1 1.5c0 3.872 2.619.135 5.077-7.245 1.067-3.206-.878-3.907-2.079-.75m9.185 3.712c-1.385 1.385-1.575 3.783-.3 3.783.829 0 2.363-4.087 1.761-4.69-.153-.152-.81.256-1.461.907m-245.808 23.533c-3.855 5.919-6.617 11.25-5.829 11.25.963 0 3.01-2.353 3.753-4.313.397-1.049 1.177-1.511 1.848-1.096.718.443.892.282.457-.422-.388-.628.486-3.172 1.941-5.655 3.515-5.998 1.766-5.808-2.17.236m-33.175-1.55c-.66.66-1.186 1.673-1.168 2.25.017.577.58.336 1.25-.538.67-.873 1.893-1.85 2.718-2.171 1.303-.507 1.297-.593-.05-.662-.853-.043-2.09.461-2.75 1.121m298.3.152c-1.787 2.055-5.565 9.916-5.025 10.456.69.69.76.587 3.851-5.735 2.674-5.467 3.015-6.839 1.174-4.721m-303.414 5.842c-.508 1.268-1.172 3.098-1.477 4.065-.304.968-1.118 1.643-1.807 1.5-.69-.142-1.409.754-1.598 1.991-.189 1.237.145 2.25.741 2.25 1.367 0 5.127-6.075 4.444-7.179-.279-.452-.199-1.319.177-1.928.477-.771.944-.696 1.544.25.676 1.067.863.996.875-.334.024-2.719-1.894-3.127-2.899-.615m-11.576 6.796c-1.575 1.644-2.555 3.298-2.177 3.677.673.672 2.689-1.428 4.719-4.917 1.472-2.53.716-2.162-2.542 1.24m2.63 5.158c-1.671 2.675-.807 3.432 1.817 1.595 1.679-1.176 1.83-1.675.774-2.552-.99-.821-1.628-.585-2.591.957m64.86-.159c0 .727-1.169 2.855-2.597 4.728-1.429 1.873-2.677 3.94-2.774 4.594-.222 1.494-9.596 14.128-13.618 18.353-1.656 1.741-3.011 3.551-3.011 4.022 0 .472-1.402 2.559-3.115 4.638-1.714 2.078-2.877 4.017-2.586 4.308.767.768 6.701-5.679 6.701-7.28 0-.744.374-1.352.831-1.352.457 0 1.425-1.11 2.151-2.466.726-1.356 1.654-2.259 2.064-2.006.69.427 1.586-.983 1.784-2.808.134-1.236 8.385-12.72 9.139-12.72 1.026 0 6.359-12.006 5.648-12.716-.339-.34-.617-.022-.617.705m-17.385 4.476c-.888 1.355-1.615 2.893-1.615 3.416 0 .524-.562 1.179-1.25 1.457-.765.309-.817.535-.133.583.615.043 2.308-1.721 3.764-3.921 1.456-2.2 2.243-4 1.748-4-.494 0-1.626 1.109-2.514 2.465m228.002 8.885c-2.833 5.79-3.178 7.115-1.601 6.14.559-.346.781-1.009.494-1.474-.287-.465-.182-.996.234-1.181 1.159-.514 5.2-8.835 4.29-8.835-.439 0-1.977 2.407-3.417 5.35m-233.538-1.789c-.043.584-.997 2.047-2.118 3.25-1.121 1.204-1.641 2.189-1.155 2.189 1.555 0 4.418-3.837 3.876-5.192-.288-.719-.56-.83-.603-.247m24.576 4.268c-1.771 1.957-2.12 3.176-.905 3.163.413-.004 1.27-1.129 1.906-2.5 1.379-2.972 1.197-3.092-1.001-.663M448 1325.886c0 .487 1.648 1.668 3.663 2.624 2.014.956 4.602 2.739 5.75 3.962 1.148 1.223 3.212 2.808 4.587 3.521 2.472 1.284 2.48 1.275.673-.761-1.741-1.963-13.221-10.232-14.204-10.232-.258 0-.469.399-.469.886m401.75 10.194c-.962.561-1.75 1.672-1.75 2.47 0 2.28 1.567 1.697 2.818-1.05.627-1.375 1.036-2.486.911-2.47-.126.017-1.017.489-1.979 1.05m-37.143 4.502c-.806 2.099-.769 2.418.276 2.418.486 0 1.119-.9 1.407-2 .617-2.362-.802-2.714-1.683-.418m28 7c-.939 2.446-.735 2.769.893 1.418 1.662-1.38 1.99-3 .607-3-.491 0-1.166.712-1.5 1.582m-15.018 2.168c-.398 1.237-1.17 2.25-1.715 2.25-.546 0-.693.483-.329 1.073.843 1.364 3.772-2.635 3.186-4.349-.23-.673-.744-.211-1.142 1.026m24.522 7.5c-2.716 3.438-4.817 6.373-4.668 6.524.923.933 3.329-1.385 4.958-4.777 1.046-2.177 2.734-4.222 3.75-4.545 1.578-.501 2.752-3.452 1.374-3.452-.261 0-2.697 2.813-5.414 6.25m-74.456-3.421c-1.823 2.014-2.225 3.641-.66 2.674 1.043-.644 3.352-4.503 2.695-4.503-.209 0-1.125.823-2.035 1.829m297.026.534c-.95 1.451-1.322 2.637-.826 2.637 1.381 0 3.382-2.788 2.944-4.103-.215-.644-1.167.016-2.118 1.466m-569.345 3.068c.567 1.203 2.075 2.25 3.397 2.359 1.359.112 2.114-.229 1.763-.797-.338-.546-1.289-.993-2.114-.993s-1.254-.399-.952-.886c.301-.488-.276-1.102-1.284-1.365-1.564-.409-1.682-.164-.81 1.682m290.414 2.795c-2.167 2.196-2.173 2.441-.067 2.441 1.637 0 5.317-2.543 5.317-3.675 0-1.269-3.621-.417-5.25 1.234m275.388.824c-.746 1.686-1.095 3.326-.775 3.646.674.674 2.843-4.579 2.417-5.855-.157-.471-.896.523-1.642 2.209m-227.643 7.766c-2.742 3.526-4.04 6.144-1.812 3.653 1-1.117 2.85-2.748 4.112-3.625 1.592-1.107 1.897-1.748.995-2.094-.716-.275-2.198.655-3.295 2.066m-39.314 9.691c-1.192 1.371-2.621 2.493-3.174 2.493-.554 0-.895.523-.757 1.161.138.639-.875 1.494-2.25 1.901-1.375.406-1.937.783-1.25.838 1.786.143 1.553 2.1-.25 2.1-.825 0-1.5.45-1.5 1 0 2.701 3.601-.014 8.459-6.379 3.882-5.086 4.408-7.353.722-3.114m32.916-1.124c-.885 1.067-.799 1.517.377 1.969.84.322 1.526.411 1.526.198 0-.212.273-1.098.607-1.968.748-1.949-.946-2.083-2.51-.199m227.949 2.531c-.774 1.447-.789 2.086-.05 2.086 1.213 0 2.533-2.805 1.709-3.629-.299-.298-1.045.396-1.659 1.543m-513.046-.04c0 .598 1.125 1.37 2.5 1.715s2.5.917 2.501 1.269c0 .353 1.236.714 2.747.802l2.747.159-2.358-1.909c-1.297-1.051-2.947-1.91-3.666-1.91-.719 0-2.019-.273-2.889-.607-.87-.334-1.582-.117-1.582.481m280.751 2.876c-2.363 3.867-9.242 11.25-10.482 11.25-.57 0-1.251 1.125-1.514 2.5-.644 3.371.85 3.165 2.678-.37.816-1.579 3.753-5.262 6.526-8.184 2.772-2.923 5.041-5.906 5.041-6.63 0-1.888-.359-1.66-2.249 1.434m-21.479 4.141c-1.976 1.888-2.745 3.344-2.217 4.198.589.953 1.14.578 2.037-1.391.676-1.484 1.559-2.698 1.962-2.698.402 0 .991-.675 1.308-1.5.808-2.106.355-1.902-3.09 1.391m-21.765 2.098c-.35.566.051.734.941.393.854-.328 1.552-.098 1.552.511s.45 1.107 1 1.107 1-.675 1-1.5c0-1.665-3.532-2.067-4.493-.511m15.678 4.753c-.723.257-1.724 1.546-2.225 2.863-.501 1.317-1.597 2.395-2.435 2.395-.839 0-1.525.398-1.525.883 0 .486-.993 1.143-2.206 1.461-1.214.317-1.931.853-1.593 1.19.947.947 5.975-2.014 9.226-5.434 2.942-3.095 3.198-4.227.758-3.358m-16.644 1.191c-.362.587-1.532 1.067-2.6 1.067s-1.941.388-1.941.861c0 .474 1.132.645 2.515.381 2.516-.481 4.126-1.934 3.185-2.875-.275-.275-.796-.02-1.159.566m-82.779 1.774c1.244.239 3.044.23 4-.02s-.062-.446-2.262-.435c-2.2.011-2.982.216-1.738.455m-10.012.999c1.237.238 3.263.238 4.5 0 1.237-.239.225-.434-2.25-.434s-3.487.195-2.25.434M683.5 1399c-1.772.762-1.687.867.75.93 1.513.038 2.75-.38 2.75-.93 0-1.174-.769-1.174-3.5 0m-9.738 1.707c1.244.239 3.044.23 4-.02s-.062-.446-2.262-.435c-2.2.011-2.982.216-1.738.455m150.196 3.85c-2.452 2.506-3.783 4.261-2.958 3.899 1.43-.626 8.675-8.456 7.824-8.456-.224 0-2.414 2.05-4.866 4.557m-13.226-.557c-.942 1.1-1.379 1.986-.972 1.968 1.04-.044 4.24-2.556 4.24-3.328 0-1.264-1.587-.603-3.268 1.36m-125.982 6.706c1.237.238 3.263.238 4.5 0 1.237-.239.225-.434-2.25-.434s-3.487.195-2.25.434m-65.75 2.256c0 1.172 4.805 2.567 5.713 1.658.84-.84.273-1.222-2.963-1.998-1.606-.386-2.75-.244-2.75.34m18.397.538c1.044.79 2.364 1.148 2.934.795.598-.369.218-.96-.897-1.397-3.127-1.225-4.078-.943-2.037.602m381.077 65.212c-2.186 3.079-4.987 6.51-6.224 7.624-1.237 1.113-2.25 2.556-2.25 3.204 0 .649-1.575 2.85-3.5 4.891s-3.5 4.415-3.5 5.275c0 1.092.603.797 2-.979 1.1-1.398 2-2.924 2-3.391 0-.466 1.302-1.424 2.893-2.128 1.591-.705 3.161-2.052 3.488-2.994.328-.943 1.506-3.064 2.619-4.714 1.113-1.65 2.296-3.787 2.628-4.75.333-.963.931-1.75 1.328-1.75.78 0 3.324-5.053 2.805-5.572-.172-.173-2.102 2.205-4.287 5.284m-19.11 24.782c-.316.822-.944 1.266-1.397.986-.453-.28-1.098.356-1.433 1.413-.336 1.057-1.268 2.175-2.072 2.483-.804.309-1.462 1.215-1.462 2.014 0 .833 1.708-.289 4-2.628 2.2-2.244 4-4.459 4-4.921 0-1.367-1.017-.961-1.636.653m-18.87 21.512c-.998 1.104-1.513 2.308-1.144 2.677.663.663 3.557-2.482 3.618-3.933.051-1.188-.527-.895-2.474 1.256M782.5 1612.041c-3.424 1.619-3.568 1.801-1 1.263 4.459-.935 9.504-3.235 7-3.191-1.1.02-3.8.887-6 1.928" fill-rule="evenodd"/></svg>