<svg xmlns="http://www.w3.org/2000/svg" width="1240" height="1753"><path d="M1062.5 63.036c-5.42 1.751-44.691 5.391-57 5.283-3.3-.029-8.475-.054-11.5-.056-3.025-.002-8.2-.008-11.5-.013-12.302-.018-26.31-1.078-28.296-2.141-2.615-1.399-6.597-1.539-17.204-.603-8.894.784-13.287 2.588-16 6.571-.825 1.21-2.425 3.376-3.555 4.812-1.13 1.436-2.639 4.636-3.353 7.111-.713 2.475-1.937 5.713-2.719 7.195-5.34 10.124-8.995 24.619-9.963 39.509-.35 5.388-1.472 13.171-2.493 17.296s-2.812 15.15-3.979 24.5c-1.972 15.791-2.073 19.773-1.424 56 .385 21.45.895 39.9 1.134 41 .24 1.1.631 25.625.87 54.5.5 60.278.992 74.257 2.964 84.25.706 3.573 2.518 5.281 2.518 2.372 0-.757.675-1.937 1.5-2.622 1.787-1.483 2.012-6 .3-6-.887 0-.907-.293-.078-1.122.617-.617.884-1.742.593-2.5-.291-.758-.101-1.378.422-1.378.536 0 1.218 7.126 1.566 16.378.338 9.007.687 16.77.775 17.25.694 3.807-.267 32.372-1.09 32.372-.854 0-1.416-18.479-1.022-33.634.05-1.943-.498-3.356-1.442-3.719-1.399-.536-2.085 1.047-1.607 3.708.084.471-.264 1.371-.774 2-2.131 2.634-3.107 12.915-2.764 29.145.197 9.35.61 18.125.918 19.5.307 1.375.893 4.296 1.301 6.491.803 4.319 3.423 7.945 4.155 5.75.228-.683.866-1.241 1.418-1.241.614 0 .749 1.516.347 3.894-.412 2.436-.087 5.82.868 9.034.839 2.826 1.321 5.798 1.07 6.605-1.557 5.008-1.528 4.968-2.441 3.491-.858-1.388-1.338-.391-2.424 5.035a23.177 23.177 0 0 1-.851 2.941c-1.356 3.618-1.992 7.038-2.788 15-.833 8.32-1.409 13.164-4.463 37.5-4.403 35.088-5.082 49.777-4.552 98.5.448 41.082.472 40.699-2.687 42.532-1.513.877-1.886 1.326-.83.998 1.754-.546 3.526.81 3.565 2.727.008.417-3.565.566-7.94.332-8.441-.451-12.373.071-11.475 1.525.302.487-.855.886-2.57.886-1.824 0-2.862-.415-2.5-1 .593-.959-.894-1.468-3-1.028-1.956.41-29.351 1.003-52 1.128-22.728.124-46.771-1.679-56-4.2-5.68-1.552-27.403-3.754-37.809-3.833-5.602-.043-8.584-.431-8.191-1.067.34-.55 1.566-1 2.726-1 3.912 0 .645-1.499-3.559-1.632-2.292-.073-7.767-.65-12.167-1.282-7.548-1.084-57.743-.853-88 .404-7.404.307-10.265.149-8.75-.484 1.237-.518 2.25-1.089 2.25-1.269 0-.18-3.712-.427-8.25-.547-7.216-.192-8.027-.044-6.473 1.175 1.577 1.238.901 1.477-5.994 2.123-4.273.401-16.998.568-28.277.373-11.278-.195-21.021-.022-21.65.385-.629.408-2.752.069-4.718-.753-3.969-1.658-9.638-1.997-9.638-.576 0 .504 1.237 1.368 2.75 1.921 2.438.89 2.07 1.033-3.25 1.261-9.849.423-14.506-.053-16.5-1.684-.825-.675-4.532-1.546-8.237-1.936-5.614-.591-6.837-.45-7.334.847-.476 1.239-2.104 1.517-8.01 1.365-4.832-.125-7.414-.594-7.416-1.347-.002-.694.897-.94 2.247-.614 1.885.454 2.039.317.951-.844-.96-1.025-5.514-1.52-17.5-1.9-8.91-.282-16.876-.948-17.701-1.479-.825-.531-11.175-1.038-23-1.127-20.5-.154-36.95-.997-37.896-1.942-.241-.242-.511-1.423-.599-2.626-.317-4.296-10.699-6.032-20.005-3.344-12.366 3.571-14.26 4.628-10.75 6.004 1.362.534.878.989-2.184 2.052-2.164.752-4.257 1.167-4.652.923-.395-.244-.727-28.682-.738-63.195-.011-34.514-.29-65.79-.619-69.504a42.14 42.14 0 0 1 .922-13.312c.836-3.608 1.521-8.898 1.521-11.755 0-2.857.379-6.541.843-8.188.464-1.646.545-10.966.182-20.71-.653-17.487-.696-17.749-3.303-20.165-1.453-1.346-2.857-3.498-3.12-4.783-.264-1.284-.701-12.326-.972-24.538-.48-21.677-.44-22.269 1.689-24.975 2.17-2.759 2.181-2.993 2.134-48.297-.045-43.332-1.281-92.144-3.469-137.025-.55-11.275-1.187-41.875-1.416-68-.421-48.06-1.365-62.799-5.028-78.5-.77-3.3-1.675-7.8-2.011-10-.336-2.2-1.26-5.35-2.053-7-.792-1.65-2.101-4.687-2.907-6.75-1.047-2.676-2.068-3.75-3.566-3.75-1.154 0-3.161-1.147-4.46-2.548l-2.362-2.549-1.522 2.174c-1.182 1.687-2.12 2.024-4.187 1.505-1.479-.371-3.243-.187-3.968.414-.938.779-2.603.756-5.929-.081-4.206-1.06-4.782-.982-6.376.855-2.052 2.367-7.077 2.195-10.999-.374-1.9-1.245-2.92-1.358-4.573-.507-2.984 1.536-12.414.8-16.851-1.316-3.133-1.494-5.433-1.685-14.5-1.201-5.927.316-12.801.836-15.276 1.156-2.97.384-6.73-.053-11.058-1.285-3.607-1.028-9.007-1.967-12-2.088-5.617-.227-14.19-2.259-19.442-4.608-1.65-.738-5.475-1.651-8.5-2.028-3.025-.378-8.058-1.329-11.185-2.113-9.031-2.267-38.492-2.462-47.815-.317-4.125.949-9.975 1.87-13 2.047-4.503.264-6.169.905-9.19 3.537-2.03 1.768-5.036 3.909-6.679 4.759-1.644.851-3.261 2.402-3.593 3.449-.332 1.047-1.387 2.108-2.343 2.358-1.115.291-2.164 2.211-2.926 5.358-1.784 7.363-4.064 17.346-5.117 22.403l-.938 4.5-.107-5.264c-.059-2.895.452-6.159 1.136-7.253.92-1.474.957-2.443.141-3.736-.606-.961-1.31-1.522-1.564-1.247-.255.275-1.246-.283-2.203-1.241-1.225-1.224-1.866-3.856-2.164-8.878-.232-3.927-.929-7.75-1.549-8.497-.62-.747-.872-2.025-.559-2.84.313-.815-.084-2.734-.882-4.263-1.435-2.751-1.451-2.723-1.457 2.528-.003 2.973-.411 5.059-.925 4.741-2.009-1.241-4.343 13.119-7.551 46.45-1.384 14.378-1.33 14.081-4.371 24-5.87 19.144-7.786 32.103-8.798 59.5-.538 14.569.667 45.042 2.117 53.554.229 1.345.884 8.418 1.455 15.718.697 8.902 1.602 14.335 2.75 16.5 1.507 2.84 1.712 6.832 1.71 33.228-.002 16.5-.109 34.275-.24 39.5-.558 22.423-.093 45.478.889 44 .871-1.312 1.163-1.283 2.326.234.731.954 1.623 1.442 1.981 1.084.358-.358.651.125.651 1.074 0 .949-.45 1.448-1 1.108-1.386-.856-1.251 1.101.25 3.644 1 1.694 1 2.208 0 2.57-.83.301-1.25 2.7-1.25 7.147 0 4.186-.536 7.459-1.43 8.735-2.82 4.026-4.27 28.573-1.59 26.917.421-.261 1.127 2.33 1.569 5.756.442 3.427.981 5.212 1.199 3.966.217-1.245.813-2.006 1.323-1.691.511.316.929-.09.929-.902 0-.811.338-1.664.75-1.895.413-.23.188-.282-.5-.114-.687.167-1.25-.383-1.25-1.223 0-.841.45-1.25 1-.91.55.34 1-.057 1-.882s.465-1.788 1.034-2.139c.707-.437.819 5.624.353 19.188-.566 16.471-.953 20.034-2.284 21.049-1.453 1.106-1.44 1.223.147 1.252 1.211.022 1.75.835 1.75 2.639 0 1.829-.42 2.446-1.406 2.068-1.179-.453-1.201-.145-.133 1.912 1.49 2.872 1.077 8.438-.714 9.625-.938.622-.752 1.226.753 2.442 1.277 1.031 1.435 1.423.438 1.084-1.233-.419-1.472.077-1.136 2.366.252 1.715-.029 2.896-.689 2.896-.612 0-1.113-1.323-1.113-2.941 0-1.618-.468-3.23-1.04-3.584-.675-.417-.811.269-.388 1.954.358 1.428.237 3.154-.269 3.834-1.441 1.937-.381 19.981 1.14 19.397.681-.261 1.873-.073 2.648.417.926.586.996.898.204.908-1.783.022-2.769 6.92-1.479 10.34.754 1.997.79 3.542.112 4.809-.773 1.445-.652 1.866.537 1.866.844 0 1.535.675 1.535 1.5s-.498 1.5-1.107 1.5-.832.717-.496 1.593c.408 1.062-.056 1.767-1.393 2.116-1.223.32-1.998 1.356-1.989 2.658.009 1.218.331 1.673.75 1.06 1.033-1.508 4.235-2.564 4.235-1.396 0 .533-.398.969-.883.969-.486 0-1.096 1.111-1.356 2.47-.26 1.358-.138 2.263.27 2.011 1.124-.695 1.872 3.216.816 4.272-.562.562-.528 1.957.088 3.575 1.047 2.754.511 5.672-1.042 5.672-.491 0-.893.477-.893 1.059s.468.77 1.04.416c.675-.417.812.266.392 1.941-.406 1.615-.233 2.584.46 2.584.609 0 1.108.46 1.108 1.023s-1.048.336-2.33-.503c-2.517-1.65-3.856-1.168-2.994 1.078.324.844-.101 1.402-1.069 1.402-.884 0-1.607.661-1.607 1.469 0 .871.589 1.242 1.448.912 1.171-.449 1.443.641 1.419 5.688-.024 5.001-.426 6.563-2.018 7.852-1.727 1.398-1.983 2.804-1.945 10.679.028 6.097.541 10.024 1.563 11.984.836 1.604 1.523 3.704 1.527 4.666.003.962.456 1.75 1.006 1.75s1-1.548 1-3.441c0-1.893.46-3.725 1.021-4.072.613-.379.971.499.895 2.191-.069 1.552.203 4.924.604 7.494.431 2.757.291 5.932-.343 7.75-.645 1.851-.695 3.078-.125 3.078.521 0 .948.661.948 1.469 0 2.163-2.687.776-3.463-1.788-.595-1.963-.844-1.781-2.489 1.819-2.22 4.857-1.919 15.069.514 17.47 1.393 1.374 1.652 1.352 2.544-.22 1.858-3.274 2.423-1.761 2.612 7 .103 4.813-.054 8.185-.35 7.494-.297-.691-.989-.978-1.54-.638-.604.373-.926-.714-.813-2.744.33-5.908.022-8.469-.851-7.093-1.34 2.112-.11 11.38 1.877 14.142 1.587 2.206 1.721 3.32.905 7.534-.527 2.719-1.345 5.194-1.817 5.5-.473.305-1.175 1.567-1.562 2.805-.386 1.237-1.112 2.25-1.613 2.25-.993 0-.384 10.746.876 15.458.853 3.187 3.17 4.698 3.17 2.066 0-.903.443-1.368.985-1.033 1.337.826 1.222 45.263-.119 46.092-1.425.88-2.116-.114-2.116-3.041 0-1.398-.394-2.542-.875-2.542-1.67 0-.864 5.011 1.125 7 2.083 2.083 2.736 6 1 6-.55 0-1-.9-1-2s-.422-2-.937-2c-.845 0-1.412 8.195-1.16 16.75.053 1.788-.354 3.25-.904 3.25-.549 0-1.04-1.013-1.089-2.25-.07-1.735-.305-1.505-1.029 1-1.276 4.419-2.114 4.109-1.351-.5.461-2.79.349-3.366-.44-2.25-.583.825-1.035 3.525-1.004 6 .04 3.319.268 3.975.868 2.5.881-2.168 1.811 10.233 1.226 16.345-.292 3.048-.439 3.183-1.647 1.531-1.164-1.592-1.407-.959-1.982 5.155-.36 3.833-1.284 12.819-2.053 19.969-5.123 47.637-6.112 92.208-3.517 158.5 1.312 33.525.903 75.832-.881 91-5.758 48.973-6.68 75.539-7.572 218.261-.325 52.083-1.334 78.634-5.305 139.739-1.863 28.647-2.264 104.123-.748 140.5.678 16.263 1.061 19.344 2.658 21.385 1.027 1.312 1.867 3.885 1.867 5.719 0 1.834 1.122 6.771 2.493 10.972 1.371 4.2 2.247 8.035 1.946 8.522-.301.487.49 1.922 1.757 3.188 2.041 2.04 2.286 3.183 2.148 10.008-.163 8.088.634 9.871 3.244 7.261.865-.866 1.953-1.339 2.417-1.052.464.287 1.05-.272 1.303-1.241.416-1.594.471-1.6.576-.059.073 1.073 1.504 2.088 3.866 2.744 4.921 1.367 5.277 1.339 7.403-.585 1.449-1.312 2.103-1.394 3.284-.414.812.673 1.945.934 2.519.579.574-.355 1.051-.056 1.059.664.011.951.281.899.985-.191.533-.825 1.028-4.2 1.101-7.5.072-3.3.337-5.213.588-4.25.252.962.875 1.75 1.384 1.75.51 0 .934 1.912.942 4.25.011 2.965.293 3.812.932 2.802.715-1.13 1.069-.835 1.617 1.345.861 3.434 2.382 1.637 2.451-2.897.039-2.547.201-2.733 1.077-1.229.567.974 1.448 1.513 1.958 1.198.51-.315.677.08.37.878-.306.798-.123 1.719.407 2.046.53.328 1.221-.077 1.537-.899.927-2.416 2.636-1.712 2.636 1.085 0 2.302.3 2.514 2.784 1.969 1.551-.341 4.698.064 7.106.913 2.378.839 4.719 1.281 5.203.981.484-.299 2.499-.096 4.479.45 2.079.574 4.541.635 5.831.145 1.711-.651 2.511-.404 3.424 1.057 1.352 2.165 3.783 2.523 4.459.656.362-1 .876-1 2.57 0 3.014 1.78 5.444 1.551 7.908-.745 1.914-1.783 2.237-1.825 3.036-.398.768 1.373 1.197 1.212 3.047-1.14 1.184-1.505 2.16-2.339 2.168-1.852.009.487.424 1.531.924 2.321.701 1.107 1.228 1.17 2.308.274.77-.639 3.555-1.341 6.19-1.561 2.635-.219 5.133-.953 5.552-1.631.583-.943.933-.953 1.495-.044.425.688 1.741.935 3.125.588 1.35-.339 2.391-.156 2.391.419 0 1.573 11.13 1.2 14.354-.482 1.57-.819 3.37-1.153 4-.744.63.41 7.221.853 14.646.985 19.346.343 44.884 1.177 56.5 1.845 16.584.954 45.988-.019 51.23-1.695 1.777-.568 3.676-.757 4.221-.42 1.438.888 6.537-2.004 8.957-5.081 1.147-1.457 2.573-4.504 3.17-6.77.597-2.265 1.721-5.112 2.498-6.325.777-1.213 2.775-8.961 4.441-17.217 2.581-12.793 3.103-18.005 3.535-35.294.411-16.423 1.962-41.26 3.954-63.283.149-1.65.784-15.6 1.41-31 .627-15.4 1.582-35.425 2.122-44.5.54-9.075 1.207-23.925 1.482-33a9041.2 9041.2 0 0 1 1.036-32c.295-8.525.972-34.4 1.504-57.5.595-25.848 1.536-46.23 2.446-53 .938-6.972 1.833-27.293 2.444-55.5.53-24.475 1.437-53.725 2.015-65 2.031-39.573 2.777-74.905 2.511-118.813-.148-24.372-.54-44.585-.872-44.917-2.466-2.465 2.533-3.305 12.261-2.059 4.199.538 8.31 1.224 9.135 1.524 2.592.945 16.671 1.285 39 .942 11.832-.182 24.639.629 25.633 1.623.309.309 1.098.357 1.753.105 1.036-.397 11.222.883 17.114 2.151 11.355 2.444 58.814 3.843 68 2.005 6.569-1.314 1.388-2.317-9.492-1.838-6.562.29-9.058.108-8.054-.587 1.42-.982 24.652-1.578 63.046-1.617 10.175-.011 20.525-.384 23-.83 3.19-.574 5.684-.388 8.568.642 2.905 1.037 4.59 1.16 5.895.43 2.32-1.298 18.397-.442 21.348 1.138 1.477.791 2.78.855 4.006.199 1.344-.719 3.103-.34 6.75 1.454 5.834 2.871 13.474 4.448 21.55 4.448 5.347 0 5.897-.206 6.452-2.417.597-2.382.73-2.409 9.269-1.834 17.918 1.207 51.48.828 54.912-.62 2.753-1.162 3.747-1.162 6.5 0 2.623 1.106 12.285 1.33 50.065 1.16 25.748-.116 50.273-.661 54.5-1.211 4.227-.549 13.76-1.474 21.185-2.054 7.425-.581 14.85-1.305 16.5-1.61 4.863-.899 12.459-3.503 12.357-4.236-.285-2.054.262-4.178 1.078-4.178.514 0 2.202.509 3.75 1.13l2.815 1.131-3.497.962-3.497.962 2.497 1.271c1.373.7 5.149 1.532 8.389 1.85 3.241.318 6.278.964 6.749 1.435 1.4 1.4 1.425 96.494.03 116.259-.679 9.625-1.465 37.975-1.747 63-.281 25.025-.738 46.155-1.015 46.955-.932 2.694-1.897 42.326-1.719 70.545.221 34.801 1.943 81.739 3.486 95 .64 5.5 1.2 21.7 1.244 36 .099 32.016-1.247 102.67-2.124 111.5-.355 3.575-.591 6.766-.524 7.092.068.325-.284 10.9-.782 23.5-.907 22.985-2.724 42.071-5.583 58.636-2.289 13.267-.939 35.172 2.572 41.734.617 1.151 1.507 1.856 1.978 1.565.471-.292.634.483.363 1.722-.365 1.665-.239 1.891.485.868.749-1.06 1.139-.648 1.668 1.758.601 2.738 4.501 6.524 4.542 4.41.009-.432.445-.11.97.715.789 1.24 1.306 1.282 2.984.242 1.831-1.135 2.031-1.018 2.031 1.191 0 2.615 2.119 4.711 2.774 2.744.65-1.949 2.226-1.324 2.226.882 0 1.14.454 1.779 1.016 1.431.559-.346.698-1.16.308-1.809-.403-.673.02-.59.984.191 1.486 1.206 1.692 1.122 1.692-.691 0-2.591 1.816-3.825 2.604-1.77.52 1.355.765 1.362 2.065.063 1.861-1.861 2.769-1.856 4.331.026 1.838 2.215 3 1.828 3-1 0-1.375.337-2.534.75-2.577.413-.042 1.518-.224 2.456-.405.939-.18 2.231.304 2.873 1.077 1.446 1.742 4.581 1.834 5.259.155.277-.687.555-.35.616.75.106 1.88.233 1.855 2.119-.41 1.523-1.829 2.287-2.13 3.167-1.25.638.638.829 1.16.425 1.16-.405 0-.247.913.35 2.028s1.549 1.742 2.115 1.392c.566-.35 1.694.312 2.507 1.472.812 1.159 2.1 2.108 2.863 2.108.763 0 1.975.804 2.693 1.786.719.983 3.332 2.433 5.807 3.223 2.475.791 6.3 2.456 8.5 3.702s5.22 2.27 6.711 2.277c2.663.012 3.581-.638 6.141-4.349 1.088-1.577 1.502-1.653 2.716-.5 2.111 2.007 9.528 1.568 12.196-.721 1.787-1.533 3.54-1.87 8.736-1.679 3.575.131 7.062.455 7.75.718.687.264 1.25-.004 1.25-.597 0-.649.992-.828 2.5-.449 1.955.49 2.507.242 2.532-1.142.029-1.617.158-1.602 1.5.172.807 1.068 1.468 1.678 1.468 1.356 0-.321 1.829-.173 4.064.329 2.235.502 4.593.586 5.24.186 2.16-1.335 17.067-.253 18.879 1.369 1.207 1.081 2.621 1.299 5 .769 4.686-1.044 10.848-.67 12.575.764.806.669 2.912 1.092 4.68.94 1.931-.167 3.713.323 4.461 1.225.686.826 1.895 1.254 2.687.95.792-.304 2.093-.01 2.892.653.931.773 2.865.967 5.387.541 2.557-.432 4.661-.211 6.01.631 1.637 1.023 2.333 1.038 3.3.071 1.68-1.68 2.825-1.536 2.825.354 0 1.235.655 1.436 3 .921 1.887-.415 3-.259 3 .421 0 2.068 5.512 1.087 8.272-1.473 1.514-1.403 3.184-2.284 3.712-1.958.933.577 5.213-1.721 7.795-4.185 1.987-1.896 4.221-.414 4.221 2.802 0 3.392.852 3.611 3.705.953 1.145-1.067 2.355-1.667 2.689-1.333.333.333.606-.369.606-1.56 0-1.192.457-2.167 1.015-2.167.558 0 1.904-1.462 2.991-3.25 1.087-1.787 2.205-3.138 2.485-3 1.913.94 3.445-.199 4.041-3 .38-1.787 1.278-3.925 1.996-4.75.717-.825 1.5-2.85 1.739-4.5l.433-3 .15 3.179c.083 1.748-.501 3.829-1.297 4.625-1.024 1.024-1.215 2.287-.656 4.321l.791 2.875.746-3.298c.624-2.76.986-3.098 2.219-2.075 1.254 1.041 1.373.825.801-1.452-.425-1.695-.265-2.675.438-2.675.626 0 1.137 1.847 1.176 4.25.06 3.792.184 4.007 1.152 2 1.316-2.727 5.272-3.165 4.519-.5-1.464 5.176-1.68 4.972 3.68 3.467 1.437-.403 1.768-.147 1.319 1.024-.393 1.025.083 1.741 1.386 2.081 1.452.38 2.239-.147 2.929-1.961.519-1.365 1.395-2.202 1.948-1.86.651.402.668 1.25.049 2.406-.624 1.166-.596 2.147.081 2.824 1.573 1.573 4.491.393 5.726-2.316.605-1.328 1.586-2.415 2.181-2.415.594 0 .759.52.367 1.155-.405.655-.278.885.294.531 1.348-.833 3.739-15.102 2.898-17.294-.371-.968-.124-2.066.56-2.489 1.592-.984 2.07-19.71.764-29.903-2.761-21.544-5.03-42.423-5.42-49.862-.483-9.226-1.12-12.138-2.657-12.138-.653 0-.804-2.43-.417-6.75.777-8.683.78-8.912.616-47.018-.077-17.747.207-32.822.631-33.5 1.138-1.821 1.288-3.827.238-3.178-.502.31-.859-1.374-.794-3.745.107-3.887.184-4.015.789-1.309.6 2.687.731 2.776 1.262.85.839-3.05-.178-7.943-1.288-6.192-.561.885-.85.15-.85-2.158 0-2.625.242-3.125.969-2 .785 1.215.972 1.077.985-.73.014-2.092.608-11.376 3.008-47.02.546-8.112 1.657-18.575 2.469-23.25 5.199-29.957 5.764-63.177 2.049-120.5-1.45-22.382-2.643-59.921-2.668-84-.025-23.941 1.454-56.538 2.741-60.397.804-2.41.511-40.351-.553-71.603-1.57-46.129-1.83-74.063-.899-96.5.807-19.432.932-32.016.559-56a193.267 193.267 0 0 1 1.906-30.281c.471-3.296.144-6.772-1.053-11.193-1.154-4.263-1.562-8.36-1.218-12.22.284-3.193 1.075-15.367 1.757-27.053 1.001-17.17.994-21.99-.038-25.117-1.233-3.737-1.599-22.697-.707-36.636.212-3.3.518-10.725.681-16.5.259-9.183.647-11.19 3.093-16 3.768-7.408 5.234-21.985 4.426-44-.334-9.075-.69-20.928-.792-26.341-.102-5.412-.349-9.35-.549-8.75-.627 1.88-2.197 1.188-2.197-.968 0-1.381.412-1.812 1.25-1.308.94.564.985.393.181-.691-.748-1.01-.768-4.291-.069-10.942 1.387-13.182 1.624-94.097.313-106.665-.88-8.429-.82-10.456.351-11.866 1.001-1.206 1.429-4.652 1.472-11.835.033-5.574-.094-8.671-.283-6.884-.636 6.05-1.954 3.295-2.644-5.532-.435-5.559-.291-9.825.393-11.624.847-2.227.777-3.085-.323-3.968-.98-.785-1.602-4.603-2.06-12.626-.361-6.325-1.019-15.166-1.462-19.647-.442-4.481-.447-12.581-.01-18 1.173-14.557 1.025-68.023-.227-81.853-.597-6.6-1.211-19.65-1.363-29-.153-9.35-.806-30.95-1.453-48-1.465-38.656-1.448-77.559.04-87.776 1.391-9.555.563-62.637-1.103-70.724-1.034-5.019-5.64-20.219-8.317-27.446-1.221-3.296-6.37-9.554-7.861-9.554-.532 0-1.631-.663-2.441-1.474-.811-.81-3.366-1.961-5.679-2.558-4.16-1.074-9.58-3.175-12.941-5.016-.955-.524-3.626-.952-5.935-.952-2.309 0-6.702-.646-9.763-1.435-11.903-3.07-23.035-4.567-34.066-4.583-6.746-.01-14.394-.666-18.5-1.586-9.372-2.102-15.376-2.531-19-1.36M69.677 119.714c-.288.466-.778 8.709-1.088 18.317-.31 9.608-.359 17.019-.109 16.469.569-1.249 2.531-34.823 2.062-35.291-.188-.188-.577.039-.865.505M1004.272 210c0 2.475.195 3.488.434 2.25.238-1.238.238-3.262 0-4.5-.239-1.238-.434-.225-.434 2.25m-.917 47.5c-.003 4.95.166 7.101.376 4.78.209-2.321.212-6.371.005-9-.206-2.629-.378-.73-.381 4.22m-.069 27c.008 2.75.202 3.756.432 2.236.229-1.52.223-3.77-.014-5-.237-1.23-.425.014-.418 2.764M132.272 332c0 2.475.195 3.488.434 2.25.238-1.238.238-3.262 0-4.5-.239-1.238-.434-.225-.434 2.25m976.367 107.499c-.317.824-.168 2.512.329 3.75.786 1.954.914 1.757.969-1.499.067-3.976-.355-4.709-1.298-2.251M54.737 446.75c-.209.413-.064 2.1.323 3.75.692 2.95.705 2.937.822-.75.112-3.561-.305-4.654-1.145-3m1053.278 2c-.008 1.788.158 3.25.368 3.25.91 0 1.296-3.898.51-5.139-.586-.925-.867-.321-.878 1.889M54 460.059c0 1.132.45 1.781 1 1.441.55-.34 1-1.266 1-2.059 0-.793-.45-1.441-1-1.441s-1 .927-1 2.059m850.253 18.437c.136 5.772.584 10.497.997 10.5.413.002.75-4.721.75-10.496 0-6.315-.398-10.5-.997-10.5-.616 0-.903 4.019-.75 10.496M52 482.031c0 3.313.445 5.969 1 5.969.55 0 1.006-1.462 1.014-3.25.007-1.788.268-4.2.58-5.362.373-1.389.026-2.32-1.013-2.719-1.332-.511-1.581.333-1.581 5.362m0 9.91c0 1.132.45 2.059 1 2.059s1-.648 1-1.441-.45-1.719-1-2.059c-.55-.34-1 .309-1 1.441m-2.243 6.309c-.249 2.337-.085 4.925.365 5.75.504.926.829-.701.848-4.25.035-6.767-.572-7.518-1.213-1.5M1182.32 508c0 3.575.182 5.038.403 3.25.222-1.788.222-4.712 0-6.5-.221-1.788-.403-.325-.403 3.25m-.573 10.734c-.214.421-.108 2.116.236 3.766l.627 3 .528-3.294c.482-3.001-.448-5.321-1.391-3.472m-69.677 6.516c.039.688.457 2.15.93 3.25.72 1.676.871 1.474.93-1.25.038-1.788-.38-3.25-.93-3.25s-.968.563-.93 1.25m-109.818 5.25c.011 2.2.216 2.982.455 1.738.239-1.244.23-3.044-.02-4s-.446.062-.435 2.262m180.02.5c0 2.475.195 3.487.434 2.25.238-1.237.238-3.263 0-4.5-.239-1.237-.434-.225-.434 2.25M51.639 537.694c-1.126 1.126-.685 2.306.861 2.306.825 0 1.5-.423 1.5-.941 0-1.261-1.562-2.164-2.361-1.365m950.75 11.806c.001 7.15.161 9.944.353 6.208.193-3.735.192-9.585-.003-13-.194-3.414-.352-.358-.35 6.792m.006 27c.001 7.7.158 10.718.348 6.706.191-4.011.189-10.311-.002-14-.192-3.688-.348-.406-.346 7.294m177.373 17.935c-.256 1.34-.091 3.027.368 3.75.531.838.839-.045.849-2.435.017-4.287-.535-4.884-1.217-1.315m-.668 7.315c.055.962.46 2.875.9 4.25.68 2.124.816 1.86.9-1.75.055-2.337-.35-4.25-.9-4.25s-.955.788-.9 1.75M1003.3 609c0 3.025.187 4.263.416 2.75.229-1.513.229-3.987 0-5.5s-.416-.275-.416 2.75m50.972 3c0 2.475.195 3.487.434 2.25.238-1.237.238-3.263 0-4.5-.239-1.237-.434-.225-.434 2.25M51.25 615.496c-1.398 1.588-1.775 8.477-.38 6.954.725-.793 2.397-8.53 1.817-8.412-.103.021-.749.677-1.437 1.458m952.523 9.254c.576 5.805 1.061 6.228 1.148 1 .043-2.612-.281-4.75-.72-4.75-.44 0-.632 1.688-.428 3.75m1.547 21.25c0 3.575.182 5.038.403 3.25.222-1.788.222-4.712 0-6.5-.221-1.788-.403-.325-.403 3.25m1.075 28.5c.001 7.7.158 10.718.348 6.706.191-4.011.189-10.311-.002-14-.192-3.688-.348-.406-.346 7.294m-954.773-3.675c-.443 1.279-.539 2.592-.213 2.917 1.036 1.037 1.765-.492 1.385-2.906l-.368-2.336-.804 2.325m341.436 25.605c-1.751 2.11 1.651 3.585 9.743 4.224 4.952.392 7.197.153 8.607-.914 1.788-1.353 1.604-1.548-2.928-3.092-6.024-2.053-13.808-2.162-15.422-.218m614.27 7.07c.005 3.85.185 5.302.402 3.228.216-2.075.213-5.225-.008-7-.221-1.776-.398-.078-.394 3.772M440.5 699.034c-1.65.544-5.426.699-8.391.345-3.897-.466-5.197-.331-4.691.488.385.623 2.759 1.133 5.275 1.133 2.516 0 6.268.507 8.337 1.127 4.038 1.21 18.97.34 18.97-1.105 0-2.19-14.427-3.661-19.5-1.988m738.625 8.016.125 5.45.759-4.5c.418-2.475.361-4.928-.125-5.45-.519-.558-.832 1.3-.759 4.5M544 703.925c-2.145.686-2.254.904-.766 1.538 3.354 1.429 16.259 1.055 13.766-.398-2.303-1.343-10.203-2.036-13-1.14m-175.289 1.428c-3.35.95-8.342 1.211-16.61.871-8.782-.362-12.018-.167-12.589.756-1.251 2.025 1.578 2.987 7.771 2.641 5.438-.304 8.275.585 5.473 1.715-.691.278 1.53.542 4.935.585 3.405.043 6.469-.371 6.809-.921.34-.55 1.604-1.014 2.809-1.032 2.176-.031 2.177-.043.191-1.634-1.624-1.302-1.671-1.49-.25-1 .962.332 1.75.167 1.75-.365 0-1.443 11.157-1.162 22.5.566 5.5.838 11.063 1.264 12.362.947 1.299-.317 8.274-.605 15.5-.641 15.606-.078 14.214-1.798-1.862-2.301-5.5-.173-17.65-.591-27-.93-12.86-.466-18.166-.285-21.789.743M446.5 708c.34.55 2.504.947 4.809.882 3.959-.112 4.025-.161 1.191-.882-4.437-1.129-6.698-1.129-6 0m15 1c.34.55 1.743 1 3.118 1 1.412 0 2.231-.435 1.882-1-.34-.55-1.743-1-3.118-1-1.412 0-2.231.435-1.882 1m719.636 2.167c-.075.916-.653 1.839-1.286 2.05-.633.211-.97.909-.75 1.551.742 2.165 3.09-.414 2.624-2.881-.249-1.313-.513-1.637-.588-.72M694.5 711.5c2.466.843 11.5 1.12 11.5.353 0-.469-2.812-.817-6.25-.774-3.437.043-5.8.233-5.25.421m-163.738 1.207c1.244.239 3.044.23 4-.02s-.062-.446-2.262-.435c-2.2.011-2.982.216-1.738.455m-98.262.799c2.336.815 8.5 1.027 8.5.293 0-.439-2.137-.763-4.75-.72-2.613.043-4.3.236-3.75.427m142.262.201c1.244.239 3.044.23 4-.02s-.062-.446-2.262-.435c-2.2.011-2.982.216-1.738.455m432.944 4.043c.686 7.085 1.127 7.448 1.215 1 .043-3.163-.316-5.75-.798-5.75-.483 0-.67 2.138-.417 4.75M465 715.679c0 .529 2.813 1.037 6.25 1.127 3.438.09 7.488.431 9 .758 1.669.361 2.75.171 2.75-.485 0-.593-1.284-1.079-2.853-1.079-1.57 0-5.62-.289-9-.642-3.721-.389-6.147-.263-6.147.321m23.768 2.046c1.797.222 4.497.218 6-.01 1.503-.229.032-.411-3.268-.405-3.3.005-4.529.192-2.732.415m-438.427 1.72c.362.945.659 2.132.659 2.637 0 .505.481.918 1.07.918 1.554 0 .687-4.259-.979-4.808-.99-.326-1.213.047-.75 1.253m828.421 2.262c1.244.239 3.044.23 4-.02s-.062-.446-2.262-.435c-2.2.011-2.982.216-1.738.455m301.688 3.581c-2.021 2.332-2.366 4.653-.908 6.112.802.801 1.451 2.727 1.443 4.279-.012 2.189-.233 2.485-.985 1.321-.677-1.048-.974.594-.985 5.45-.011 4.961.293 6.642 1.061 5.874.984-.984 2.74-24.373 1.823-24.286-.22.021-.872.583-1.449 1.25m-318.002.797c-.577.932 4.294 1.795 6.652 1.179 1.045-.274 1.9-.913 1.9-1.421 0-1.043-7.896-.82-8.552.242m315.558 40.594c.008 5.489 1.848 11.529 3.249 10.664.85-.526.836-.813-.054-1.109-1.523-.508-1.582-3.234-.07-3.234 1.599 0 .388-6.624-1.57-8.582-1.415-1.415-1.56-1.203-1.555 2.261M60.252 781.5c.011 2.2.216 2.982.455 1.738.239-1.244.23-3.044-.02-4s-.446.062-.435 2.262M43 796.167c0 4.912.474 4.772 1.413-.417.429-2.374.294-3.75-.368-3.75-.575 0-1.045 1.875-1.045 4.167m1150.015 42.083c.009 1.788.452 3.925.985 4.75.844 1.306.971 1.289.985-.125.008-.894.296-3.031.64-4.75.495-2.474.287-3.125-1-3.125-1.17 0-1.621.91-1.61 3.25m-786.932 16.109c1.195 1.03 5.917 1.557 5.917.66 0-.56-1.425-1.019-3.167-1.019-1.741 0-2.979.162-2.75.359m788.035 27.391c.065 1.513.462 4.1.882 5.75.628 2.469.784 1.982.882-2.75.066-3.246-.318-5.75-.882-5.75-.55 0-.947 1.237-.882 2.75M49 881.718c0 1.165-.273 2.83-.607 3.7-.334.87-.161 1.582.383 1.582 1.355 0 2.292-5.272 1.147-6.45-.572-.589-.923-.146-.923 1.168m-.469 10.575c-.428.986-.497 2.074-.155 2.417 1.016 1.015 1.835-.411 1.367-2.382-.414-1.747-.468-1.748-1.212-.035M62 946.583c0 .871.534 1.406 1.188 1.188 1.854-.618 2.161-2.771.395-2.771-.871 0-1.583.712-1.583 1.583M64.3 986c0 3.025.187 4.263.416 2.75.229-1.513.229-3.987 0-5.5s-.416-.275-.416 2.75m337.7-3c-1.165.753-.872.973 1.309.985 1.621.009 2.548-.408 2.191-.985-.767-1.242-1.579-1.242-3.5 0m-42.583.866c.498.805 5.583.366 5.583-.483 0-.21-1.377-.383-3.059-.383-1.682 0-2.818.39-2.524.866m-4.661 11.798c.691.279 1.005.913.698 1.41-.307.497.14.635.994.308 2.324-.892 1.869-2.393-.698-2.303-1.238.043-1.685.307-.994.585m113.254 8.286c-1.369.35-2.044.883-1.5 1.185.545.303 2.11.264 3.48-.085 1.369-.35 2.044-.883 1.5-1.185-.545-.303-2.11-.264-3.48.085m8.49.05c-3.427.614-2.998.726 3 .788 4.734.048 6.353-.207 5-.788-2.276-.978-2.538-.978-8 0m-374.19 7.5c.005 3.3.192 4.529.415 2.732.222-1.797.218-4.497-.01-6-.229-1.503-.411-.032-.405 3.268m384.19-1.5c.34.55 1.266 1 2.059 1 .793 0 1.441-.45 1.441-1s-.927-1-2.059-1c-1.132 0-1.781.45-1.441 1m-383.214 40.5c.008 2.75.202 3.756.432 2.236.229-1.52.223-3.77-.014-5-.237-1.23-.425.014-.418 2.764m-40.764 61.022c-.398 5.835-.508 10.825-.245 11.088.263.263.804-4.296 1.201-10.132.398-5.835.508-10.825.245-11.088-.263-.263-.804 4.296-1.201 10.132m-4.27 62.978c.011 2.2.216 2.982.455 1.738.239-1.244.23-3.044-.02-4s-.446.062-.435 2.262m136.103 129c-.003 4.95.166 7.101.376 4.78.209-2.321.212-6.371.005-9-.206-2.629-.378-.73-.381 4.22m-102.045 3c.005 3.3.192 4.529.415 2.732.222-1.797.218-4.497-.01-6-.229-1.503-.411-.032-.405 3.268m1079.69-3.64c0 1.024.334 4.061.743 6.75l.743 4.89.518-5c.579-5.598.197-8.5-1.121-8.5-.485 0-.883.837-.883 1.86M56 1309c0 1.1.45 2 1 2s1-.9 1-2-.45-2-1-2-1 .9-1 2m1117.196 17c-.049 7.397.205 9.816.859 8.185.556-1.385.584-5.602.07-10.5l-.859-8.185-.07 10.5m-978.91 25.5c.008 2.75.202 3.756.432 2.236.229-1.52.223-3.77-.014-5-.237-1.23-.425.014-.418 2.764m977.849 18c-.129 4.675.17 8.5.665 8.5.494 0 .956-3.825 1.025-8.5.069-4.675-.23-8.5-.665-8.5-.435 0-.896 3.825-1.025 8.5m-4.486 39.83c-.345 2.931-.827 12.043-1.073 20.25-.395 13.221-.351 13.781.383 4.92 1.514-18.264 2.223-30.5 1.767-30.5-.248 0-.733 2.398-1.077 5.33m-977.397 39.17c.011 2.2.216 2.982.455 1.738.239-1.244.23-3.044-.02-4s-.446.062-.435 2.262m10 7c.011 2.2.216 2.982.455 1.738.239-1.244.23-3.044-.02-4s-.446.062-.435 2.262m978.748 8.441c0 3.268.467 6.229 1.037 6.582.685.423.955-1.594.795-5.941-.303-8.199-1.832-8.734-1.832-.641m-980.26 5.809c-.263 2.063-.087 4.178.391 4.7.504.551.869-1.026.869-3.75 0-5.652-.602-6.106-1.26-.95M196.5 1493c-.384 2.274-.474 4.36-.199 4.635.275.275.815-1.361 1.199-3.635.384-2.274.474-4.36.199-4.635-.275-.275-.815 1.361-1.199 3.635m970.39 25.166a6965.783 6965.783 0 0 0-.333 47.249c-.043 16.602-.36 22.017-1.307 22.334-.687.23-1.25.816-1.25 1.303s.675.626 1.5.31c.825-.317 1.5-.078 1.5.531s-.562 1.114-1.25 1.122c-.85.011-.903.251-.166.75.598.406 1.135 4.096 1.197 8.235.062 4.125.404 9.638.76 12.25.538 3.95.378 4.75-.947 4.75-1.754 0-2.181 2.519-.594 3.5.55.34 1 .115 1-.5s.338-.909.75-.654c.88.543.892-125.038.012-125.918-.328-.328-.72 10.805-.872 24.738m-971.604-8.666c.008 2.75.202 3.756.432 2.236.229-1.52.223-3.77-.014-5-.237-1.23-.425.014-.418 2.764m-1 12c.008 2.75.202 3.756.432 2.236.229-1.52.223-3.77-.014-5-.237-1.23-.425.014-.418 2.764m-11 4c.008 2.75.202 3.756.432 2.236.229-1.52.223-3.77-.014-5-.237-1.23-.425.014-.418 2.764m0 17c.008 2.75.202 3.756.432 2.236.229-1.52.223-3.77-.014-5-.237-1.23-.425.014-.418 2.764m987.365 30.083c-1.512 12.748-1.8 21.207-.745 21.859.602.372 1.094 2.524 1.094 4.784 0 2.259.324 3.784.719 3.388 1.017-1.017 1.32-31.721.331-33.489-.545-.974-1.01.175-1.399 3.458m-987.957 2.167c-.297 1.513-.125 3.178.383 3.7.569.586.923-.469.923-2.75 0-4.379-.554-4.782-1.306-.95m986.558 52.75c.011 2.2.216 2.982.455 1.738.239-1.244.23-3.044-.02-4s-.446.062-.435 2.262m1.407 13.7c.842 4.422 1.341 4.803 1.341 1.026 0-1.71-.443-3.382-.985-3.717-.615-.38-.749.63-.356 2.691m2.542 22.41c-.11 2.811-.438 7.311-.727 10-.434 4.037-.34 4.464.539 2.448.585-1.342.912-5.842.727-10-.243-5.44-.394-6.126-.539-2.448m3.459 11.131c-.804 1.301-2.007 11.259-1.36 11.259.748 0 3.008-11.025 2.387-11.646-.267-.268-.73-.094-1.027.387" fill-rule="evenodd"/></svg>