<svg xmlns="http://www.w3.org/2000/svg" width="1240" height="1753"><path d="M466.997 339.651c-2.473.753-5.353 1.164-6.4.913-4.568-1.096-11.253 5.309-14.094 13.505a645.83 645.83 0 0 1-2.032 5.794c-.396 1.09-.792 1.115-1.983.127-1.213-1.007-1.488-.936-1.488.388 0 .892.427 1.622.949 1.622s.297 1.561-.5 3.468c-.797 1.907-1.449 4.377-1.449 5.488 0 2.095-2.805 6.044-4.294 6.044-.467 0-1.41.563-2.097 1.25-2.452 2.456-10.609 13.989-10.609 15 0 .567-.872 2.88-1.938 5.14-1.066 2.261-3.146 7.26-4.623 11.11-1.477 3.85-3.137 7.287-3.69 7.638-.553.351-.715 1.108-.361 1.681.355.574.253 1.285-.227 1.581-.479.296-2.128 4.04-3.665 8.319-1.537 4.28-3.19 8.293-3.674 8.918s-2.251 4.896-3.928 9.491c-1.677 4.594-3.413 8.808-3.859 9.363-1.97 2.456-8.605 21.728-10.933 31.759-2.639 11.373-3.467 14.321-4.343 15.456-.512.664-.69 1.596-.396 2.073.295.476-3.154.736-7.664.578-8.012-.281-10.94-.533-23.199-1.991-3.3-.393-8.587-.736-11.75-.764-3.163-.027-5.75-.359-5.75-.738s-1.35-.477-3-.217c-1.909.301-3 .043-3-.709 0-.876-.348-.894-1.342-.069-.738.612-1.537.918-1.776.679-.239-.239-3.454-.654-7.144-.923s-7.053-.701-7.473-.961c-.846-.523-9.288-1.645-16.265-2.163-2.475-.184-4.5-.389-4.5-.457s-4.615-.258-10.256-.423c-5.641-.165-10.55-.593-10.908-.952-.359-.358-1.256-.15-1.994.462-.738.613-1.342.721-1.342.241-.001-.479-6.442-.904-14.315-.944-7.873-.039-15.185-.449-16.249-.911-1.065-.461-3.736-.955-5.936-1.098-2.2-.143-4-.333-4-.423 0-.59-17.694-2.008-24.643-1.975-7.282.035-24.357.719-24.357.976 0 .114-1.875.274-4.167.355-2.292.082-4.48.461-4.863.845-.627.627-5.635-.874-10.97-3.288-1.1-.497-2.969-1.039-4.152-1.203-1.184-.165-2.811-.845-3.615-1.513-.805-.667-4.336-1.466-7.848-1.774-8.116-.712-7.426-.716-13.885.076-3.025.37-7.22.803-9.322.961-2.101.158-4.329.795-4.95 1.416-.62.62-1.693 1.128-2.383 1.128-2.367 0-6.048 4.797-7.786 10.146-.957 2.945-2.319 6.029-3.028 6.854-1.207 1.407-2.823 17.961-2.684 27.5.075 5.132-1.741 14.5-2.811 14.5-1.162 0-2.166 2.98-1.414 4.197.394.638.948.511 1.488-.34.54-.852.859.689.859 4.143 0 3.025-.436 6.175-.969 7-.533.825-.983 1.05-1 .5-.017-.55-.467-.325-1 .5-.755 1.169-.973.893-.985-1.25-.01-1.785.512-2.75 1.485-2.75 1.797 0 2.02-2.66.272-3.243-.676-.225-1.238-1.382-1.25-2.57-.012-1.189-.472-2.2-1.022-2.248-1.746-.153-3.212 7.333-2.721 13.895.417 5.583.695 6.275 2.345 5.844 1.616-.423 1.793-.059 1.296 2.666-.317 1.736-.587 7.63-.601 13.098-.014 5.468-.4 10.868-.859 12-.793 1.959-.836 1.964-.897.108-.047-1.453-.352-1.661-1.196-.817-1.089 1.089-1.223 5.892-.802 28.767.091 4.95-.155 15.075-.548 22.5-.392 7.425-.897 24.075-1.121 37-.638 36.762-1.367 64.799-1.904 73.188-.439 6.847-.301 7.686 1.258 7.674 1.759-.013 7.268.493 17 1.561 2.888.318 7.612.827 10.5 1.132 2.888.306 6.629.725 8.313.931 1.685.206 5.96.641 9.5.967 3.541.325 8.237.868 10.437 1.207 2.2.338 5.575.755 7.5.926 6.898.615 13.587 1.27 18.75 1.837 2.887.318 7.613.827 10.5 1.134 2.887.306 6.825.739 8.75.962 1.925.223 5.975.672 9 .998 3.025.327 7.075.79 9 1.031 5.629.703 16.968 1.914 26.5 2.831 6.272.604 16.044 1.634 20.063 2.115 1.685.202 5.96.677 9.5 1.055 3.541.379 7.337.803 8.437.942 1.1.14 3.643.311 5.65.381l3.65.128-2.816 7.879c-1.548 4.333-3.266 8.721-3.816 9.75-2.564 4.798-4.217 9.483-3.661 10.382.336.544.108.989-.507.989s-.835.458-.489 1.018-.334 2.577-1.511 4.482c-1.177 1.905-1.937 3.809-1.688 4.232.249.422-.011 1.893-.578 3.268-.567 1.375-1.162 3.149-1.322 3.942-.16.793-1.712 5.206-3.449 9.807-1.736 4.601-3.304 9.127-3.483 10.058-.18.931-.419 1.693-.531 1.693-.112 0-.306.918-.43 2.039-.456 4.123-12.884 37.664-14.133 38.143-.709.272-1.858.144-2.551-.284-.694-.429-2.841-.942-4.771-1.14-1.93-.198-3.746-.719-4.036-1.158-.291-.438-1.203-.817-2.028-.841-1.558-.045-11.276-1.163-16.5-1.898-3.724-.524-16.558-1.458-22.25-1.618-2.338-.066-4.251-.373-4.251-.682-.001-.308-2.588-.526-5.75-.483-3.162.042-8.086-.455-10.943-1.106-2.857-.651-5.557-.821-6.001-.377-.444.444-2.381.459-4.306.035-1.924-.425-6.086-.74-9.248-.701-3.162.039-5.749-.213-5.75-.561-.003-1.575-21.182-1.165-23.751.459-.687.435-1.669.532-2.181.216-.512-.317-1.201-.138-1.532.397-.331.535-1.258.721-2.061.413-.802-.308-1.722.126-2.044.964-.444 1.157-1.836 1.448-5.759 1.207-2.845-.175-5.398-.416-5.673-.536-.275-.12-1.288-.138-2.25-.04-.996.101-1.75-.496-1.75-1.385 0-.86-.723-1.563-1.607-1.563-1.041 0-1.397-.546-1.011-1.552.327-.854.263-1.356-.143-1.117-.407.239-1.717.064-2.911-.387-1.626-.615-2.027-1.378-1.595-3.03.513-1.962.287-2.136-2.017-1.558-1.426.358-2.873.2-3.214-.352-.95-1.538-2.502-1.193-2.502.555 0 .857-.45 1.281-1 .941-.55-.34-1-.156-1 .41 0 .565-.753.738-1.674.385-1.252-.481-1.517-.234-1.051.98.404 1.052-.014 1.825-1.188 2.198-1.089.345-1.767 1.463-1.699 2.801.131 2.612-2.344 5.571-4.138 4.947-.775-.27-1.25.483-1.25 1.983 0 2.407-3.234 6.796-5.008 6.796-.511 0-.67.675-.354 1.5.317.825.078 1.5-.531 1.5S57 903.752 57 904.671s-.626 2.382-1.391 3.25c-.765.869-2.844 5.179-4.618 9.579-1.775 4.4-4.299 8.917-5.609 10.038-1.31 1.12-2.382 2.774-2.382 3.674C43 934.603 38.783 951 37.91 951c-.5 0-.91.9-.91 2s-.413 2-.917 2-.758 1.687-.563 3.75c.195 2.063-.299 6.092-1.098 8.955-.798 2.863-1.392 5.563-1.319 6 .074.437.036 1.02-.084 1.295-.12.275-.381 2.525-.581 5-.774 9.587-1.556 13-2.979 13-1.994 0-5.459 7.237-5.459 11.401 0 1.915-.481 3.778-1.068 4.141-.588.363-.843 1.249-.567 1.968.276.719-.166 3.711-.983 6.649-.818 2.937-1.635 6.016-1.817 6.841-.182.825-.867 1.376-1.522 1.225-.655-.151-.899.199-.541.778 1.117 1.807 1.451 6.997.45 6.997-.523 0-.952 1.096-.952 2.435s-.46 3.644-1.021 5.122c-.726 1.908-.691 3.085.122 4.065.892 1.074.787 1.378-.479 1.378-.972 0-1.681.902-1.77 2.25-.285 4.333-.479 5.272-1.679 8.112-.665 1.575-1.117 3.375-1.005 4 .418 2.33-1.381 9.638-2.373 9.638-.565 0-.793.9-.506 1.999.288 1.099.115 2.251-.383 2.559-.498.308-.906 1.799-.906 3.313 0 1.514-.933 4.685-2.073 7.045-1.141 2.36-2.267 6.35-2.503 8.866-.236 2.516-.818 5.984-1.293 7.706-.476 1.722-.765 6.929-.643 11.572.25 9.468 2.226 13.762 8.262 17.945 1.788 1.239 3.25 2.773 3.25 3.408 0 .636 1.381 1.972 3.069 2.969 1.688.997 2.833 2.049 2.544 2.338-.289.29 1.142 2.222 3.181 4.294 4.158 4.227 9.102 5.969 13.986 4.926 1.804-.385 5.854-.582 9-.439 3.146.144 6.282-.19 6.97-.742.858-.689 1.25-.641 1.25.154 0 .769.587.864 1.75.283.962-.481 3.455-.794 5.54-.695 2.084.099 3.964-.103 4.177-.448.867-1.402 10.573-.326 12.46 1.381 1.192 1.079 2.69 1.505 3.917 1.115 1.093-.346 2.245-.214 2.56.295.314.509 2.714 1.226 5.334 1.594 2.619.368 6.112 1.088 7.762 1.6 4.1 1.271 9.568 1.99 18.772 2.468 4.274.221 8.243.695 8.82 1.051s3.83 1.237 7.228 1.957c8.382 1.774 15.923 6.022 14.74 8.303-.48.926-1.383 3.595-2.007 5.933-.623 2.338-1.613 4.25-2.2 4.25-.587 0-.826.629-.531 1.397.295.768-.306 2.969-1.336 4.89-1.03 1.922-1.573 3.792-1.208 4.158.365.365.172.977-.43 1.359-1.176.748-6.406 14.317-6.864 17.81-.153 1.162-1.448 5.595-2.877 9.851-1.429 4.257-2.381 8.092-2.114 8.524.267.431-.155 1.315-.937 1.964s-1.435 1.938-1.452 2.864c-.075 4.239-1.037 9.088-2.498 12.584-.876 2.096-1.385 4.147-1.131 4.558.253.41-.185 1.6-.975 2.644-.79 1.043-1.451 2.872-1.468 4.064-.018 1.191-.411 2.316-.875 2.5-.464.183-1.997 3.708-3.408 7.833a1994.741 1994.741 0 0 1-5.581 16.03c-1.659 4.692-3.271 10.689-3.581 13.327-.31 2.639-.761 5.115-1 5.503-.24.388-.69 2.863-1 5.5-.311 2.637-.762 5.115-1.005 5.507-.242.392-.742 3.844-1.111 7.673-.369 3.828-.998 7.185-1.396 7.46-.399.275-1.576 1.963-2.616 3.75s-2.187 3.25-2.55 3.25c-.362 0-.929 1.35-1.259 3-.335 1.673-1.239 3-2.046 3-.795 0-1.742 1.35-2.104 3-.362 1.65-.971 3-1.352 3-.674 0-2.239 5.18-4.127 13.656-.509 2.286-.795 8.114-.635 12.952l.29 8.795 4.884 4.299c2.687 2.364 5.319 4.298 5.848 4.298.53 0 1.977.952 3.216 2.117 2.284 2.145 9.965 4.982 25.376 9.371 8.651 2.464 17.723 6.387 15 6.487-1.333.049-1.333.163 0 1.025 2.023 1.307 3.273 1.251 2.432-.109-.486-.788.584-.899 3.691-.382 3.937.654 6.115 1.54 10.877 4.425 3.15 1.908 14.751 6.116 20.5 7.435 3.3.757 7.575 2.116 9.5 3.019 1.925.903 2.713 1.424 1.75 1.158-.962-.266-1.75-.036-1.75.51 0 1.001 3.164 2.487 7.276 3.418 9.136 2.067 12.102 2.7 18.724 3.993 7.421 1.449 14.69 3.372 20.5 5.423 4.648 1.641 24.76 7.272 27 7.56 3.637.467 19.84 4.664 30 7.771 5.5 1.681 13.375 3.846 17.5 4.809 11.46 2.678 25.834 6.638 32.5 8.954 3.3 1.146 6.826 1.956 7.836 1.8 1.424-.22 3.628-5.322 9.841-22.784 40.807-114.69 58.047-162.524 58.737-162.971.449-.291 1.152-1.654 1.562-3.029.411-1.375 1.319-3.85 2.018-5.5.699-1.65 2.275-6.15 3.502-10 1.226-3.85 3.019-8.35 3.984-10 .966-1.65 3.446-7.95 5.512-14 2.066-6.05 4.376-11.71 5.133-12.579.756-.868 1.375-2.403 1.375-3.412 0-3.393 3.322-12.428 4.338-11.8.568.351.76-.012.443-.837-.307-.801.051-2.289.795-3.307 1.143-1.563 2.24-1.761 7.032-1.266 3.122.322 6.153 1.062 6.734 1.643.582.582 2.348 1.058 3.924 1.058s3.623.405 4.55.901c.926.495 3.119 1.127 4.873 1.403 1.753.276 3.694.814 4.311 1.196s2.552.919 4.3 1.195c1.747.275 4.397 1.131 5.889 1.903 1.491.771 4.057 1.402 5.702 1.402 1.645 0 3.229.386 3.521.857.522.845 9.217 2.361 13.057 2.277 1.083-.023 2.217.358 2.519.847.303.489 2.566 1.141 5.031 1.449 2.465.307 6.056.846 7.981 1.198 1.925.351 5.3.773 7.5.937 2.2.165 4.225.398 4.5.519.275.122.95.325 1.5.453s1.45.358 2 .511c.55.153 2.8.359 5 .456 5.518.246 15.858 1.52 16.354 2.017.225.225 1.25-.041 2.277-.591 1.028-.55 1.869-.647 1.869-.215 0 .827.616.896 11 1.239 3.575.118 7.935.707 9.689 1.309 2.681.92 3.033 1.389 2.204 2.937-.542 1.013-.731 2.254-.419 2.757.311.504-.326 3.265-1.417 6.135-1.091 2.87-1.789 5.533-1.552 5.916.237.384-.215 1.551-1.005 2.595-.79 1.043-1.451 2.872-1.468 4.064-.018 1.191-.411 2.316-.875 2.5-.464.183-1.997 3.708-3.408 7.833a1994.741 1994.741 0 0 1-5.581 16.03c-1.659 4.692-3.271 10.689-3.581 13.327-.31 2.639-.761 5.115-1 5.503-.24.388-.69 2.863-1 5.5-.311 2.637-.762 5.115-1.005 5.507-.242.392-.742 3.844-1.111 7.673-.369 3.828-.998 7.185-1.396 7.46-.399.275-1.576 1.963-2.616 3.75-1.04 1.788-2.187 3.25-2.55 3.25-.362 0-.929 1.35-1.259 3-.335 1.673-1.239 3-2.046 3-.795 0-1.742 1.35-2.104 3-.362 1.65-.971 3-1.352 3-.674 0-2.239 5.18-4.127 13.656-.509 2.286-.795 8.114-.635 12.952l.29 8.795 4.884 4.299c2.687 2.364 5.319 4.298 5.848 4.298.53 0 1.977.952 3.216 2.117 2.284 2.145 9.965 4.982 25.376 9.371 8.651 2.464 17.723 6.387 15 6.487-1.333.049-1.333.163 0 1.025 2.023 1.307 3.273 1.251 2.432-.109-.486-.788.584-.899 3.691-.382 3.937.654 6.115 1.54 10.877 4.425 3.15 1.908 14.751 6.116 20.5 7.435 3.3.757 7.575 2.116 9.5 3.019 1.925.903 2.712 1.424 1.75 1.158-.962-.266-1.75-.036-1.75.51 0 1.001 3.164 2.487 7.276 3.418 9.136 2.067 12.102 2.7 18.724 3.993 7.421 1.449 14.69 3.372 20.5 5.423 4.648 1.641 24.76 7.272 27 7.56 3.637.467 19.84 4.664 30 7.771 5.5 1.681 13.375 3.846 17.5 4.809 11.46 2.678 25.834 6.638 32.5 8.954 3.3 1.146 6.826 1.956 7.836 1.8 1.424-.22 3.628-5.322 9.841-22.784 43.275-121.629 58.071-162.55 58.876-162.833.521-.184.947-1.01.947-1.836 0-1.25 1.051-1.386 6.25-.812 3.438.38 6.813.643 7.5.586.688-.058 1.813-.159 2.5-.225 1.773-.17 11.959 1.131 12.769 1.631.821.508 11.141 1.534 19.981 1.987 5.778.296 18.58 1.783 26.25 3.048 1.513.25 3.987.656 5.5.903 1.513.246 5.225.718 8.25 1.047 4.724.515 10.017 1.242 22 3.023 1.375.205 5.2.673 8.5 1.042 9.009 1.005 8.963.998 10.018 1.515.54.265 2.669.469 4.732.453 2.062-.016 3.75.196 3.75.471 0 .275 1.013.538 2.25.585 2.013.077 9.946.98 16.75 1.908 3.148.429 7.558 1.018 22 2.94 6.325.841 13.075 1.764 15 2.05 4.708.7 9.401 1.286 16 1.995 3.025.326 6.175.796 7 1.045.825.249 3.525.668 6 .932 2.475.263 6.75.792 9.5 1.175s6.013.67 7.25.639c1.237-.032 2.25.372 2.25.896 0 2.629 1.916-.721 2.528-4.42.387-2.335.972-4.695 1.301-5.244.328-.55.474-2.173.324-3.608-.151-1.434 1.778-11.023 4.287-21.308 2.508-10.285 4.56-19.618 4.56-20.74 0-1.122 2.286-11.506 5.079-23.075 2.794-11.57 5.229-22.669 5.412-24.667.182-1.997 1.029-6.325 1.88-9.617.851-3.292 1.533-6.886 1.515-7.986-.049-3 3.976-19.559 5.606-23.063 1.456-3.131 3.131-11.21 2.662-12.845-.143-.5.168-1.175.691-1.5.922-.574 1.524-4.036 1.234-7.092-.11-1.16-.482-1.05-1.643.485-1.391 1.84-1.451 1.694-.824-2 .372-2.192.745-4.668.829-5.503.085-.834.515-2.102.956-2.816.442-.715.549-1.553.238-1.864-.31-.311-.137-1.364.386-2.341 1.053-1.968 1.861-7.744 2.193-15.671.119-2.865.53-4.704.912-4.086.382.618.451 2.625.154 4.46-.298 1.835-.145 3.329.339 3.321 1.845-.032 3.263-1.614 3.591-4.004.187-1.364.714-3.077 1.171-3.806 1.349-2.153 1.458-12.159.141-12.96-.645-.393-1.473-1.531-1.84-2.528-.387-1.051-1.157-1.512-1.829-1.096-.774.478-.89.278-.347-.601.449-.726.907-3.383 1.019-5.905.112-2.522.893-7.369 1.736-10.772.843-3.402 1.345-6.374 1.116-6.603-.229-.229.303-3.516 1.181-7.305.879-3.789 1.336-8.243 1.017-9.897-.32-1.654-.797-5.033-1.06-7.508-.264-2.475-.685-5.504-.936-6.731-.604-2.951-3.75-7.198-5.36-7.238-.705-.017-1.54-.703-1.855-1.525-.316-.822-.925-1.277-1.355-1.011-.431.266-1.334-.182-2.009-.995-.675-.813-1.579-1.26-2.009-.994-.431.266-2.067-.186-3.637-1.005-1.57-.819-3.551-1.491-4.404-1.495-.852-.003-1.978-.434-2.5-.956-.523-.523-3.425-1.208-6.45-1.522a561.8 561.8 0 0 1-8.5-.946c-1.65-.206-3.444-.104-3.987.227-.542.331-3.017.716-5.5.856-2.482.14-6.651.482-9.263.76-2.733.29-4.75.095-4.75-.46 0-.531-.873-.965-1.941-.965s-2.238-.481-2.601-1.068c-.363-.588-1.29-.827-2.059-.532-.77.296-1.399.179-1.399-.26 0-.753-6.928-2.709-13.5-3.811-1.65-.276-4.35-1.11-6-1.852-3.924-1.765-10.239-3.404-10.832-2.812-.256.257-2.243-.012-4.414-.597-4.951-1.333-11.875-2.214-20.254-2.578-3.575-.155-6.5-.366-6.5-.467 0-.102-1.125-.325-2.5-.496-7.491-.932-20.978-4.223-20.294-4.953.437-.466-.533-.606-2.155-.311-1.623.295-4.098.091-5.5-.452-2.527-.978-5.658-1.566-11.651-2.187-1.705-.176-3.626-.646-4.268-1.042-1.027-.635-8.345-1.687-13.407-1.926-1.183-.057-1.569-.597-1.158-1.62.339-.845.759-2.436.933-3.536.976-6.159 2.711-12.21 6.453-22.5 2.3-6.325 4.364-13.04 4.586-14.923.222-1.883.86-3.706 1.417-4.05.558-.345 1.881-3.147 2.941-6.228 1.06-3.08 2.591-6.658 3.402-7.95.811-1.292 2.245-4.736 3.186-7.653.941-2.917 3.012-7.867 4.601-11s2.894-6.933 2.901-8.446c.007-1.513.463-2.75 1.013-2.75.55 0 .996-1.013.99-2.25-.009-2.218 4.411-16.503 6.219-20.097.511-1.016.699-2.078.418-2.359-.282-.282.379-2.772 1.467-5.533 1.089-2.762 1.772-5.228 1.519-5.481-.253-.254.146-2.179.887-4.28.741-2.101 1.194-3.972 1.007-4.16-.188-.187 7.286-.294 16.608-.238 9.322.057 17.15-.222 17.396-.619.245-.397 2.143-.417 4.217-.044 2.075.372 5.572.493 7.772.267 2.2-.226 5.013-.413 6.25-.414 1.237-.002 2.25-.306 2.25-.676 0-1.161 20.246-.513 25.789.825 2.909.703 6.397 1.066 7.75.807 1.354-.259 2.461-.125 2.461.298 0 .422 4.734.695 10.52.605 5.787-.09 11.299.121 12.25.467.952.347 2.63.155 3.73-.426 2.403-1.271 7.376-1.04 9.14.424.7.581 1.742.766 2.316.411.574-.355 1.044-.168 1.044.414s1.035 1.059 2.3 1.059 2.728.392 3.25.872c1.145 1.05 14.137 5.125 16.368 5.134.87.004 2.812.648 4.316 1.433 4.119 2.149 11.4 2.707 12.83.984.65-.783 1.664-1.423 2.254-1.423.59 0 2.222-1.061 3.627-2.357 1.405-1.297 4.58-3.434 7.055-4.75 2.475-1.316 5.095-2.955 5.821-3.643.727-.687 1.741-1.25 2.253-1.25 1.125 0 8.054-7.205 7.481-7.779-.223-.222.489-2.491 1.583-5.042 1.246-2.908 1.594-4.768.933-4.989-.734-.244-.739-.943-.017-2.291.571-1.067.766-2.381.433-2.92-.333-.538-.226-.979.236-.979 1.495 0 1.706-7.526.715-25.5-.333-6.05-.573-12.575-.533-14.5.04-1.925.033-4.85-.017-6.5-.107-3.556-.087-3.961.412-8.5.211-1.925-.107-3.837-.708-4.25-.717-.493-.749-1.007-.092-1.5.604-.453 1-8.083 1-19.25 0-10.175.304-19.729.675-21.231.729-2.95-.654-9.346-2.544-11.769-1.233-1.581-1.277-5.848-.128-12.5.38-2.2.708-4.675.73-5.5.022-.825.512-2.097 1.089-2.826.734-.928.728-1.529-.02-2-1.207-.761-1.162-7.993.062-9.961.44-.709.455-4.309.032-8-.422-3.692-.796-11.029-.832-16.305-.036-5.469-.545-10.197-1.183-11-1.486-1.869-3.72-11.55-2.953-12.791a1.15 1.15 0 0 0-.368-1.58c-.535-.331-.751-1.179-.48-1.885s-.163-2.547-.965-4.092c-.801-1.545-1.221-3.422-.934-4.172.288-.75-.684-3.424-2.16-5.943-1.476-2.518-2.441-5.212-2.144-5.985.297-.774-.157-1.797-1.008-2.273-.852-.477-1.508-1.164-1.459-1.527.281-2.067-.088-2.662-1.66-2.675-1.373-.012-1.456-.202-.383-.881 1.982-1.257-.388-7.968-3.217-9.11-1.183-.477-1.57-.896-.861-.931 1.053-.051 1.053-.32 0-1.463-.945-1.026-1.643-1.11-2.615-.314-.965.789-1.532.753-2.08-.134-.806-1.304-4.094-.537-4.094.955 0 .491.787.932 1.75.979.963.047.4.495-1.25.995s-3.562.701-4.25.446c-.687-.256-1.25.183-1.25.973 0 .867-.595 1.209-1.5.862-.825-.317-1.5-.078-1.5.531s.675 1.107 1.5 1.107 1.5.466 1.5 1.035c0 .711-.601.714-1.922.007-1.057-.566-4.657-1.09-8-1.166-3.343-.076-6.078-.514-6.078-.975 0-.461-.675-.579-1.5-.263-.962.369-1.5-.019-1.5-1.082 0-.95-1.495-2.283-3.5-3.12-1.925-.805-3.5-1.933-3.5-2.508 0-.576-.402-.797-.894-.494-.491.304-2.629-.19-4.75-1.098-2.121-.908-4.981-1.782-6.356-1.941-1.375-.159-4.075-.628-6-1.042-1.925-.415-3.95-.803-4.5-.864-.55-.061-3.7-.495-7-.965-3.3-.469-7.125-.937-8.5-1.038-5.672-.419-6.106-1.143-3.957-6.594 1.069-2.713 1.875-5.261 1.792-5.662-.084-.402.104-1.405.418-2.23 1.848-4.857 2.646-8.354 2.107-9.227-.339-.548-.141-1.29.439-1.649.992-.613 1.34-2.417 2.787-14.45.319-2.655 1.269-6.476 2.112-8.492.842-2.017 1.67-6.82 1.84-10.674.169-3.854 1.205-9.558 2.302-12.674 1.097-3.116 1.805-5.856 1.573-6.088-.697-.696 1.711-6.746 2.685-6.746.496 0 .829-.337.741-.75-.089-.413.319-1.906.906-3.319s1.223-3.663 1.412-5c.188-1.337.931-3.052 1.651-3.81.719-.758 1.07-1.996.781-2.75-.289-.754-.064-1.371.501-1.371.566 0 .756-.441.423-.979-.333-.539-.132-1.865.448-2.947.579-1.083 1.148-3.117 1.264-4.521.116-1.404.535-2.553.931-2.553s.716-.788.711-1.75c-.035-6.573 1.896-16.25 3.241-16.25.491 0 .892-.675.892-1.5s.42-1.5.933-1.5c.513 0 1.193-.821 1.511-1.824.318-1.003 1.361-2.709 2.317-3.792 2.365-2.678 4.952-6.997 7.418-12.384 1.133-2.475 2.844-5.4 3.802-6.5 3.472-3.986 4.225-8.437 2.406-14.219-.913-2.904-2.049-5.281-2.524-5.281-.475 0-.863-.921-.863-2.046 0-1.125-1.151-5.601-2.558-9.947-1.978-6.111-3.383-8.626-6.199-11.099-3.18-2.792-10.32-6.65-13.634-7.366-.61-.132-1.784-.515-2.609-.851-7.738-3.152-13.142-4.692-16.5-4.701-2.2-.007-6.219-.685-8.931-1.508-2.713-.822-7.092-1.656-9.732-1.851-2.64-.196-5.416-.867-6.168-1.491-1.286-1.067-9.748-3.177-14.169-3.533-1.1-.089-2.9-.651-4-1.249-1.1-.598-2.521-.9-3.158-.67-.637.23-1.452-.056-1.809-.635-.358-.579-1.914-1.053-3.457-1.053-1.544 0-3.879-.837-5.191-1.861-1.551-1.211-3.081-1.613-4.377-1.152-1.106.393-3.489.083-5.358-.698-1.851-.773-3.614-1.159-3.916-.856-.303.302-1.13.069-1.838-.519-3.153-2.617-19.606-5.001-20.832-3.018-.685 1.108-5.475.056-12.064-2.651-8.009-3.29-8.853-3.571-11.752-3.904-1.513-.174-5.437-1.447-8.719-2.829-3.642-1.533-7.885-2.512-10.885-2.512-2.704 0-8.331-1.147-12.505-2.549-6.217-2.088-7.984-2.337-9.777-1.377-1.995 1.068-11.433.854-17.362-.394-1.1-.231-2.675-.099-3.5.293-.825.392-2.625.409-4 .037s-4.683-.045-7.35.726c-2.668.77-5.509 1.148-6.314.84-3.887-1.492-11.065 5.509-13.833 13.493a645.83 645.83 0 0 1-2.032 5.794c-.396 1.09-.792 1.115-1.983.127-1.213-1.007-1.488-.936-1.488.388 0 .892.427 1.622.949 1.622s.297 1.561-.5 3.468c-.797 1.907-1.449 4.377-1.449 5.488 0 2.095-2.805 6.044-4.294 6.044-.467 0-1.41.562-2.097 1.25-2.452 2.456-10.609 13.989-10.609 15 0 .567-.872 2.88-1.938 5.14-1.066 2.261-3.146 7.26-4.623 11.11-1.477 3.85-3.137 7.287-3.69 7.638-.553.351-.715 1.108-.361 1.681.355.574.253 1.285-.227 1.581-.479.296-2.128 4.04-3.665 8.319-1.537 4.28-3.19 8.293-3.674 8.918s-2.251 4.896-3.928 9.491c-1.677 4.594-3.413 8.808-3.859 9.363-1.97 2.456-8.605 21.728-10.933 31.759-2.658 11.457-3.472 14.327-4.4 15.524-.543.701-.735 1.526-.427 1.834.308.308-.349 3.11-1.46 6.226-1.11 3.116-2.156 6.657-2.324 7.868-.492 3.559-2.599 9.569-4.487 12.798-1.411 2.414-7.004 20.071-7.004 22.112 0 .288-.788.277-1.75-.024-.962-.301-4.675-.778-8.25-1.059-8.905-.701-14.028-1.428-15.212-2.16-.548-.339-3.312-.759-6.142-.933-2.83-.175-5.146-.382-5.146-.46 0-.242-4.812-.833-8.75-1.074-2.062-.127-3.75-.568-3.75-.981 0-.414-1.687-.727-3.75-.697-2.062.031-4.425-.195-5.25-.5-.825-.306-2.175-.539-3-.517-1.719.045-8.123-.786-15.75-2.043-2.888-.476-5.25-.504-5.25-.062 0 .844-5.296.451-6.847-.507-.962-.595-7.172-1.44-15.544-2.115-2.81-.227-6.684-.658-8.609-.958-1.925-.301-4.962-.614-6.75-.696-1.788-.083-3.25-.452-3.25-.82 0-.369-1.687-.686-3.75-.705-6.212-.057-12.692-.593-13.678-1.132-.511-.279-4.561-.647-9-.817-4.44-.171-8.972-.51-10.072-.755-1.1-.244-2.692-.478-3.537-.52-2.159-.108-1.864-9.902.512-17.025.999-2.996 1.919-6.371 2.043-7.5.125-1.128.284-2.582.354-3.231.071-.648.723-1.773 1.449-2.5.727-.726 1.456-1.771 1.62-2.321.164-.55.653-1.931 1.085-3.069.433-1.138.942-3.163 1.131-4.5.188-1.337.931-3.052 1.651-3.81.719-.758 1.07-1.996.781-2.75-.289-.754-.064-1.371.501-1.371.566 0 .756-.441.423-.979-.333-.539-.132-1.865.448-2.947.579-1.083 1.148-3.117 1.264-4.521.116-1.404.535-2.553.931-2.553s.716-.788.711-1.75c-.035-6.573 1.896-16.25 3.241-16.25.491 0 .892-.675.892-1.5s.42-1.5.933-1.5c.513 0 1.193-.821 1.511-1.824.318-1.003 1.361-2.709 2.317-3.792 2.365-2.678 4.952-6.997 7.418-12.384 1.133-2.475 2.844-5.4 3.802-6.5 3.472-3.986 4.225-8.437 2.406-14.219-.913-2.904-2.049-5.281-2.524-5.281-.475 0-.863-.921-.863-2.046 0-1.125-1.151-5.601-2.558-9.947-1.978-6.111-3.383-8.626-6.199-11.099-3.18-2.792-10.32-6.65-13.634-7.366-.61-.132-1.784-.515-2.609-.851-7.738-3.152-13.142-4.692-16.5-4.701-2.2-.007-6.219-.685-8.931-1.508-2.713-.822-7.092-1.656-9.732-1.851-2.64-.196-5.416-.867-6.168-1.491-1.286-1.067-9.748-3.177-14.169-3.533-1.1-.089-2.9-.651-4-1.249-1.1-.598-2.521-.9-3.158-.67-.637.23-1.452-.056-1.809-.635-.358-.579-1.914-1.053-3.457-1.053-1.544 0-3.879-.837-5.191-1.861-1.551-1.211-3.081-1.613-4.377-1.152-1.106.393-3.489.083-5.358-.698-1.851-.773-3.614-1.159-3.916-.856-.303.302-1.13.069-1.838-.519-3.153-2.617-19.606-5.001-20.832-3.018-.685 1.108-5.475.056-12.064-2.651-8.009-3.29-8.853-3.571-11.752-3.904-1.513-.174-5.437-1.447-8.719-2.829-3.642-1.533-7.885-2.512-10.885-2.512-2.704 0-8.331-1.147-12.505-2.549-6.217-2.088-7.984-2.337-9.777-1.377-2.041 1.092-11.966.857-17.447-.413-1.147-.265-2.67-.122-3.384.32-.714.441-2.478.465-3.918.051-1.554-.445-4.449-.194-7.116.619m-19.804 2.147c-1.819.185-3.536.932-3.815 1.659-.285.743-1.356 1.1-2.443.816-1.541-.403-1.935.015-1.935 2.051 0 1.407-.45 2.836-1 3.176-1.646 1.017-1.131 2.61.742 2.294 1.355-.229 1.715.373 1.619 2.706-.11 2.673.976 4.44 2.755 4.485.339.008 1.623-2.797 2.854-6.235 1.231-3.437 3.204-7.013 4.384-7.946 2.702-2.135 1.306-3.462-3.161-3.006m462 0c-1.819.185-3.536.932-3.815 1.659-.285.743-1.356 1.1-2.443.816-1.541-.403-1.935.015-1.935 2.051 0 1.407-.45 2.836-1 3.176-1.646 1.017-1.131 2.61.742 2.294 1.355-.229 1.715.373 1.619 2.706-.11 2.673.976 4.44 2.755 4.485.339.008 1.623-2.797 2.854-6.235 1.231-3.437 3.204-7.013 4.384-7.946 2.702-2.135 1.306-3.462-3.161-3.006M90.2 567.2c-1.377 1.377-1.645 4.193-.321 3.375.755-.467 2.306-4.575 1.727-4.575-.113 0-.746.54-1.406 1.2m1096.3 37.825-4 .538 5 .85c7.63 1.298 9.734 1.488 9.063.816-.338-.338-1.596-.764-2.795-.947-1.2-.183-2.426-.661-2.725-1.063-.298-.402-2.343-.489-4.543-.194M521.714 815.214c-.91 2.848-1.489 5.344-1.287 5.547.203.203 1.136-1.94 2.073-4.761s1.516-5.317 1.287-5.546c-.229-.23-1.162 1.913-2.073 4.76m36.68.202c-.299.778-.397 2.685-.219 4.237.296 2.574.423 2.449 1.436-1.415 1.018-3.881.05-6.125-1.217-2.822m5.929.449c-.289.899-1.592 4.512-2.895 8.029-1.302 3.516-2.16 6.731-1.905 7.143.255.413-.232 2.415-1.082 4.45-.85 2.034-1.37 4.22-1.155 4.856.216.636-.193 2.562-.908 4.28-.714 1.718-1.079 3.343-.81 3.611.268.269-.022 1.789-.644 3.377-.623 1.589-1.275 4.689-1.448 6.889-.173 2.2-.773 5.191-1.332 6.647-.559 1.456-.804 2.86-.544 3.12.261.26-.417 2.732-1.506 5.494-1.088 2.761-1.749 5.251-1.467 5.533.281.281.093 1.343-.418 2.359-1.808 3.594-6.228 17.879-6.219 20.097.006 1.237-.44 2.25-.99 2.25s-1.014 1.237-1.031 2.75c-.017 1.513-1.172 5-2.566 7.75-1.859 3.667-7.403 17.859-7.403 18.952 0 .055 1.913.105 4.25.11 5.037.01 15.478 1.152 16.541 1.809.411.254 5.239.78 10.728 1.168 13.735.97 13.891.987 14.999 1.596.54.298 3.007.633 5.482.745 2.475.113 6.295.682 8.489 1.265 2.193.583 5.568 1.194 7.5 1.357 4.575.387 11.733 1.397 15.511 2.19 1.65.346 3.683.691 4.518.766.834.075 2.042.461 2.684.858 1.17.723 9.093 1.652 17.047 1.999 2.338.102 4.25.475 4.25.829.001.355 1.014.619 2.251.587 1.237-.031 4.5.256 7.25.639s6.884.898 9.187 1.144c2.303.246 5.903.794 8 1.217 2.097.423 5.449.632 7.449.465 3.533-.295 3.709-.506 6.254-7.5 1.441-3.958 2.617-7.758 2.615-8.446-.003-.687.472-1.25 1.054-1.25.582 0 .836-.36.564-.801-.552-.892 5.298-17.484 8.356-23.699 2.614-5.312 18.021-48.311 18.454-51.5.186-1.375.425-2.5.529-2.5.105 0 .338-.762.518-1.693.179-.931 1.747-5.457 3.483-10.058 1.737-4.601 3.267-9.114 3.402-10.028.134-.915.557-1.976.939-2.359.383-.382.696-1.439.696-2.349 0-1.346-1.022-1.64-5.5-1.583-3.025.038-5.5.396-5.5.795s-1.013.364-2.25-.079c-1.237-.442-4.411-.737-7.052-.655-2.642.082-5.031-.221-5.311-.674-.28-.452-1.322-.387-2.316.145-.995.532-2 .775-2.236.54-.235-.235-3.331-.716-6.881-1.069-3.55-.353-6.76-.827-7.135-1.054-.374-.226-.977.068-1.339.653-.403.652-1.109.715-1.819.162-.639-.497-3.835-.995-7.102-1.108-3.268-.112-6.399-.487-6.958-.833-1.111-.686-3.415-1.017-11.252-1.618-2.832-.217-5.618-.683-6.19-1.037-.95-.587-10.206-1.857-14.409-1.977-.962-.027-1.75-.398-1.75-.823 0-.426-2.812-.78-6.25-.788-3.437-.007-7.6-.229-9.25-.493-11.46-1.835-24.457-2.45-28.741-1.359-1.956.497-2.983.264-3.587-.816-.607-1.083-2.899-1.597-8.085-1.812-5.989-.248-7.329-.018-7.764 1.335m-47.212 12.246c-.616 1.767-.945 3.388-.731 3.602.214.214.893-1.057 1.509-2.824.616-1.767.945-3.388.731-3.602-.214-.214-.893 1.057-1.509 2.824m-5.993 17.007c-1.157 3.426-1.932 6.401-1.722 6.612.211.21 1.329-2.421 2.486-5.848 1.157-3.426 1.932-6.401 1.722-6.612-.211-.21-1.329 2.421-2.486 5.848m-4.503 12.497c-.885 2.598-1.436 4.897-1.225 5.109.212.211 1.109-1.741 1.995-4.339.885-2.598 1.436-4.897 1.225-5.109-.212-.211-1.109 1.741-1.995 4.339m462 0c-.885 2.598-1.436 4.897-1.225 5.109.212.211 1.109-1.741 1.995-4.339.885-2.598 1.436-4.897 1.225-5.109-.212-.211-1.109 1.741-1.995 4.339m-467.497 15.503c-1.157 3.426-1.932 6.401-1.722 6.612.211.21 1.329-2.421 2.486-5.848 1.157-3.426 1.932-6.401 1.722-6.612-.211-.21-1.329 2.421-2.486 5.848m462 0c-1.157 3.426-1.932 6.401-1.722 6.612.211.21 1.329-2.421 2.486-5.848 1.157-3.426 1.932-6.401 1.722-6.612-.211-.21-1.329 2.421-2.486 5.848M73 887.046c0 .351 3.027.737 6.727.857 3.7.119 6.411-.098 6.025-.484-.888-.888-12.752-1.235-12.752-.373m1085.882 208.665c-.066.434-.05 1.174.035 1.644.084.471-.334 1.443-.93 2.161-.752.905-.762 1.505-.036 1.954.577.356 1.056.284 1.064-.161.009-.445.401-.201.872.542.613.967.978.519 1.286-1.574.241-1.642-.142-3.459-.872-4.141-.716-.668-1.354-.86-1.419-.425m-1.882 9.06c0 1.108.675 2.274 1.5 2.591.876.336 1.5.015 1.5-.771 0-.74-.675-1.906-1.5-2.591-1.249-1.037-1.5-.908-1.5.771M137 1410.126c0 1.123 7.01 4.418 11.5 5.405 7.736 1.7 8.5 1.718 8.5.191 0-.828-1.125-1.788-2.5-2.133s-2.5-1.077-2.5-1.627c0-.557-1.066-.733-2.403-.397-1.712.43-2.714.075-3.482-1.231-.806-1.37-1.286-1.521-1.898-.597-.589.89-1.717.98-4.018.32-2.057-.59-3.199-.565-3.199.069m462 0c0 1.123 7.01 4.418 11.5 5.405 7.736 1.7 8.5 1.718 8.5.191 0-.828-1.125-1.788-2.5-2.133s-2.5-1.077-2.5-1.627c0-.557-1.066-.733-2.403-.397-1.712.43-2.714.075-3.482-1.231-.806-1.37-1.286-1.521-1.898-.597-.589.89-1.717.98-4.018.32-2.057-.59-3.199-.565-3.199.069" fill-rule="evenodd"/></svg>