<svg xmlns="http://www.w3.org/2000/svg" width="1240" height="1753"><path d="M566.764 59.565c-1.524.827-3.64 3.467-4.775 5.96-1.122 2.461-2.365 4.512-2.764 4.558-.399.046-1.625.214-2.725.373-1.1.16-4.362.63-7.25 1.046-3.799.547-5.25.429-5.25-.427 0-1.554-11.258-.8-11.788.79-.208.624-1.071 1.135-1.918 1.135-1.208 0-1.288.302-.373 1.404.641.773.885 2.522.541 3.89-.705 2.81-4.901 6.894-6.036 5.875-.409-.368-.462.118-.117 1.081.408 1.137.114 1.794-.84 1.875-.808.069-1.919.237-2.469.375-.55.138-1.45.306-2 .375s-1.014.688-1.032 1.375c-.053 2.1-2.615 4.797-4.991 5.254-1.238.239-2.977 1.054-3.864 1.813-1.53 1.308-4.794 2.909-6.313 3.097-.385.047-1.281.667-1.992 1.378-1.05 1.05-1.052 1.439-.008 2.085 1.008.622 1.046 1.744.178 5.208a486.17 486.17 0 0 0-2.124 8.915c-1.232 5.445-1.245 35.299-.017 39.5 1.584 5.422.055 106.996-1.793 119-2.289 14.88-3.051 29.92-3.564 70.403-.303 23.871-.732 43.696-.954 44.056-.222.359-.624 7.292-.892 15.406-.443 13.42-.336 14.725 1.189 14.434 1.324-.252 1.741-1.679 1.98-6.771.299-6.35 1.555-9.543 3.324-8.449.495.306.895 5.363.888 11.239-.008 5.875.072 12.482.177 14.682.194 4.078-.621 10.583-2.295 18.315-.514 2.373-.604 4.848-.2 5.5.403.652.613 5.256.466 10.231-.27 9.103 1.162 16.164 2.755 13.586.525-.849.82-.317.852 1.534.027 1.559.31 14.084.629 27.834.474 20.395.314 25.737-.865 29-.796 2.2-1.518 6.7-1.606 10-.088 3.3-.366 5.212-.617 4.25-.564-2.157-1.898-2.268-2.683-.223-.322.84-.512 9.278-.421 18.75.09 9.473-.401 22.538-1.093 29.033-.881 8.262-.944 12.19-.21 13.074.618.745.681 1.644.154 2.19-.492.509-1.159 6.551-1.481 13.426a8245.492 8245.492 0 0 1-1.543 31c-2.223 42.987-2.097 56.253.938 99 1.187 16.724 1.818 23.699 2.594 28.67 2.675 17.143 5.201 84.67 4.874 130.328-.12 16.773.162 33.184.626 36.468.56 3.965.492 6.189-.202 6.618-.663.41-.824 3.169-.44 7.531.333 3.787.539 10.035.457 13.885-.199 9.338-.198 17.479.004 26.211.091 3.967-.534 20.392-1.39 36.5-1.492 28.066-2.229 40.302-4.631 76.789-.597 9.075-1.198 51.825-1.335 95-.23 72.408-.776 101.454-3.506 186.5-1.137 35.413-1.698 48.463-3.052 71-.529 8.8-.964 21.48-.966 28.177-.004 10.758.199 12.23 1.745 12.634 1.621.423 1.617.466-.055.573-1.71.11-1.794 2.156-1.612 39.108.151 30.714.469 39.222 1.5 40.077.719.597 1.821 3.638 2.449 6.758.627 3.12 1.577 6.494 2.11 7.498.533 1.004 1.179 3.479 1.437 5.5.257 2.021.907 3.825 1.444 4.008.538.184.977.794.977 1.357s-.708.752-1.573.42c-2.551-.978-1.271 2.734 1.338 3.881 1.239.545 2.533 1.895 2.875 3 .342 1.105 1.398 3.134 2.345 4.509 1.813 2.63 2.598 5.182 3.568 11.602 1.03 6.815 6.202 26.023 7.881 29.27 1.185 2.291 2.315 3.128 4.226 3.128 2.939 0 9.717-1.693 13.056-3.261 1.623-.762 2.626-.7 3.75.233 1.19.987 1.534.997 1.534.043 0-.676.652-.979 1.449-.673.881.338 1.695-.22 2.077-1.424.51-1.608 1.225-1.87 3.801-1.396 1.745.32 6.863 1.168 11.373 1.884 8.039 1.275 8.207 1.26 8.613-.803.395-2.003.421-1.996.551.146.132 2.191.375 2.239 9.386 1.854 5.087-.218 11.725-1.145 14.75-2.06 3.025-.915 6.251-1.667 7.169-1.671.918-.005 1.928-.682 2.243-1.504.316-.823 1.365-1.399 2.331-1.281.966.119 2.844-.228 4.173-.769 1.901-.775 2.804-.598 4.228.826.996.996 2.484 1.552 3.308 1.236.823-.316 2.215.144 3.094 1.023.878.878 2.127 1.59 2.775 1.582.691-.009.558-.417-.321-.985-1.333-.862-1.333-.979 0-1.055 1.01-.058.847-.366-.5-.945-1.849-.795-1.811-.873.5-1.045 1.375-.102 3.291-.105 4.257-.006.966.098 2.021-.51 2.344-1.353.771-2.008 8.618-1.106 12.942 1.486 1.673 1.004 3.923 1.826 5 1.828 1.076.002 4.207.405 6.957.895 2.75.491 7.7.722 11 .514 3.3-.209 7.559-.391 9.465-.405 1.906-.015 3.952-.43 4.547-.924.595-.494 2.768-1.084 4.828-1.311 2.059-.227 4.334-1.219 5.055-2.205 1.179-1.612 1.753-1.663 5.708-.512 6.331 1.842 17.504 2.088 22.046.486 2.118-.748 3.851-1.125 3.851-.84 0 .286 1.8-.492 4-1.728 2.2-1.237 4-2.565 4-2.953 0-.388.563-.652 1.25-.588.688.065 5.245-.255 10.129-.711 6.062-.566 9.088-.491 9.538.238.452.731 1.516.622 3.383-.347 2.4-1.245 3.084-1.211 5.757.284 2.856 1.597 3.091 1.597 4.015-.011.599-1.045 1.618-1.465 2.618-1.081 1.096.421 1.399.242.915-.541-.398-.644-.439-1.17-.093-1.17 1.06 0 3.488 2.786 3.488 4.002 0 .63.788.972 1.75.762.962-.211 1.638-.919 1.5-1.573-.396-1.885 1.554-1.383 2.173.559.352 1.104 1.72 1.831 3.706 1.971 1.732.121 3.909.908 4.839 1.75 2.04 1.846 5.699 2.008 6.299.279.238-.687.219-3.995-.042-7.349l-.475-6.099 3.875-.64c2.131-.352 6.137-.645 8.902-.651 6.595-.014 8.992-1.844 10.867-8.294 1.934-6.654 2.86-32.48 2.839-79.217-.015-31.405-.547-43.435-3.092-69.866-.417-4.326-.397-17.826.044-30 .85-23.468 1.088-104.821.337-115.061-1.745-23.786-2.717-44.612-2.22-47.573.323-1.925.991-5.64 1.485-8.254.493-2.615.551-9.365.128-15-.767-10.226-1.027-37.223-.44-45.746.33-4.794 1.761-53.449 2.015-68.5.266-15.801 2.494-60.455 3.842-77 1.242-15.251 1.299-24.63.653-106.5-.137-17.325.044-45.225.403-62 .359-16.775.86-47.186 1.114-67.58.254-20.395 1.12-45.82 1.925-56.5 2.155-28.604 2.814-63.477 1.672-88.42-.554-12.1-1.469-33.925-2.034-48.5-.564-14.575-1.489-33.25-2.056-41.5-1.727-25.164-1.843-27.352-2.514-47.5-.357-10.725-1.365-23.325-2.241-28-1.675-8.936-1.998-29.631-1.33-85 .176-14.575.265-45.175.199-68-.117-40.076.838-68.794 2.844-85.5 2.471-20.586 3.761-33.539 3.934-39.5.104-3.575 1.035-13.925 2.07-23 3.49-30.607 3.503-69.181.033-101-.51-4.675-1.001-12.325-1.092-17-.33-17.02-2.919-27.189-7.824-30.733-2.669-1.928-9.382-4.581-14.509-5.734-1.607-.361-4.03-1.529-5.385-2.595-3.666-2.884-11.172-2.407-18.712 1.189-2.651 1.265-5.419 1.4-8.433.413l-2.451-.802 1.8 2.747c1.268 1.934 1.401 2.62.451 2.317-.742-.237-1.793-1.415-2.336-2.617-1.144-2.532-4.513-2.957-4.513-.568 0 1.124-.609 1.457-2 1.093-1.1-.287-2-.208-2 .177s-5.288.695-11.75.689c-6.462-.006-13.325.37-15.25.837-5.672 1.374-44.878 2.594-45.604 1.419-.283-.457-1.95-.837-3.705-.843-1.755-.006-5.216-.614-7.691-1.351-2.475-.738-7.2-1.256-10.5-1.151-3.3.104-6.765-.191-7.699-.657-1.094-.545-2.985-.233-5.309.875-3.135 1.495-3.73 1.529-4.521.258-.726-1.167-1.295-1.225-2.812-.285-2.254 1.396-4.159.028-4.159-2.985 0-1.313-.484-1.721-1.552-1.311-.89.341-1.291.173-.941-.393.766-1.24.494-1.234-3.243.069-2.659.927-3.921.606-10.206-2.597-3.944-2.01-7.708-3.736-8.364-3.836-.657-.1-1.644-.454-2.194-.788-.55-.333-2.868-.915-5.15-1.293-4.707-.778-11.272 1.913-14.882 6.1-2.166 2.512-5.472 3.182-5.462 1.106.004-.687.6-2.387 1.325-3.777 2.888-5.534 2.933-10.395.086-9.303-.779.299-1.417.118-1.417-.402 0-1.042-4.389-3.291-6.297-3.228-.662.022-2.434.708-3.939 1.525M535.223 394.75c-.074 3.495.129 4.221.768 2.75 1.133-2.608 1.244-7.5.171-7.5-.461 0-.883 2.137-.939 4.75m-24.077 22.75c-.095 1.1-.453 3.125-.796 4.5-.479 1.925-.344 2.242.587 1.377.673-.625 1.026-2.62.796-4.5-.227-1.857-.491-2.477-.587-1.377M492.503 436c-1.49 14.403-.873 19.155.958 7.368.694-4.472.961-9.872.592-12-.59-3.405-.775-2.852-1.55 4.632m107.783 384.5c.008 2.75.202 3.756.432 2.236.229-1.52.223-3.77-.014-5-.237-1.23-.425.014-.418 2.764M644.32 1078c0 3.575.182 5.037.403 3.25.222-1.787.222-4.713 0-6.5-.221-1.787-.403-.325-.403 3.25m6.966 242.5c.008 2.75.202 3.756.432 2.236.229-1.52.223-3.77-.014-5-.237-1.23-.425.014-.418 2.764m1.014 14.5c0 3.025.187 4.263.416 2.75.229-1.513.229-3.987 0-5.5s-.416-.275-.416 2.75m-23 57c0 3.025.187 4.263.416 2.75.229-1.513.229-3.987 0-5.5s-.416-.275-.416 2.75m-67.833 83c0 30.525.127 43.013.282 27.75.156-15.263.156-40.237 0-55.5-.155-15.263-.282-2.775-.282 27.75m69.785-23.5c.011 2.2.216 2.982.455 1.738.239-1.244.23-3.044-.02-4s-.446.062-.435 2.262m-.252 8.833c0 2.017.439 3.667.975 3.667.56 0 .712-1.383.356-3.25-.867-4.557-1.331-4.702-1.331-.417m0 10.334c0 2.016.291 3.376.646 3.02 1.018-1.018 1.22-6.687.238-6.687-.486 0-.884 1.65-.884 3.667m2.443 36.816c.104 2.465.524 4.817.933 5.226.409.409.636-1.608.505-4.483-.131-2.874-.551-5.226-.933-5.226-.381 0-.609 2.017-.505 4.483m-72.061 75.017c.002 6.6.164 9.17.359 5.711.196-3.459.195-8.859-.003-12s-.358-.311-.356 6.289m-.082 28.5c0 3.025.187 4.263.416 2.75.229-1.513.229-3.987 0-5.5s-.416-.275-.416 2.75" fill-rule="evenodd"/></svg>