<svg xmlns="http://www.w3.org/2000/svg" width="1240" height="1753"><path d="M926.854 42.479c-.197.197-12.732.841-27.856 1.43-15.124.589-33.573 1.312-40.998 1.608-7.425.296-20.425.763-28.889 1.037-8.464.275-15.694.689-16.067.919-1.708 1.055-48.559 3.883-84.044 5.072-4.675.157-13 .528-18.5.825-5.5.297-15.625.101-22.5-.434-6.875-.536-19.475-1.181-28-1.433-8.525-.252-22.659-.702-31.41-1.001-18.898-.644-80.797-.707-82.735-.084-2.797.899-33.91 2.071-48.191 1.816-13.367-.239-15.199-.063-18.5 1.777-2.748 1.531-6.663 2.264-15.664 2.929-16.347 1.209-49.081.459-59.5-1.363-23.078-4.036-59.703-6.245-95-5.73-29.294.428-58.517 1.852-73 3.557-6.875.809-23.75 1.961-37.5 2.559-26.799 1.166-43.468 2.516-50.178 4.065-3.252.751-31.136 3.73-39.322 4.201-2.414.139-9 4.669-9 6.19 0 .855-.703 1.21-1.82.918-1.001-.262-2.406.23-3.122 1.093-.717.864-2.148 1.57-3.18 1.57-1.033 0-1.878.429-1.878.953s-1.54 1.684-3.423 2.577c-1.882.894-3.668 2.265-3.968 3.047-.754 1.965.373 4.552 1.641 3.769.659-.408.859.304.546 1.943-.452 2.361-.138 2.649 3.605 3.306l4.099.721-3.435.918c-2.379.637-3.03 1.169-2.118 1.733.995.615.821.972-.707 1.457-2.982.946-3.49 4.287-.926 6.083 1.172.821 1.751 1.493 1.286 1.493-.465 0-.318.635.326 1.411.814.981.847 1.611.106 2.069-.585.362-.837 1.026-.559 1.476.278.449-.165 1.373-.984 2.053-2.085 1.73-1.856 3.991.404 3.991 2.381 0 3.529 2.786 1.939 4.703-.949 1.143-.9 1.664.232 2.468 1.099.779.966.857-.564.334-5.052-1.727-6.661-1.604-7.225.552-.469 1.795-1.158 2.069-4.416 1.758-4.597-.438-5.06.905-.859 2.491 3.65 1.378 3.894 2.694.5 2.694-1.798 0-2.5.539-2.5 1.918 0 3.107 1.1 5.082 2.829 5.082 1.283 0 1.192.297-.442 1.441-3.538 2.479-.842 10.149 3.322 9.454 1.852-.309 3.291.174 3.291 1.105 0 .55-.871 1-1.935 1s-3.088.438-4.497.974l-2.563.974 2.208 4.276c1.215 2.352 2.849 4.931 3.632 5.731 1.238 1.267.881 1.636-2.748 2.846-3.595 1.198-4.076 1.688-3.485 3.545.377 1.185.804 4.327.948 6.982.144 2.655.527 5.093.851 5.416 1.005 1.005.646 3.409-.411 2.756-1.478-.914-1.214 1.143.347 2.704 1.386 1.386 1.653 8.129.372 9.41-1.559 1.56-.673 6.172 1.458 7.587 2.149 1.427 2.152 1.47.25 3.372-1.06 1.06-1.994 3.052-2.075 4.427a840.663 840.663 0 0 1-.633 9c-.275 3.69-.045 7.047.533 7.764.559.696 1.125 4.521 1.257 8.5.133 3.98.747 8.503 1.366 10.051.619 1.548 1.125 3.676 1.125 4.727 0 1.052 1.125 2.649 2.5 3.55 1.404.92 2.5 2.596 2.5 3.823 0 1.202.467 2.652 1.039 3.224.571.571 1.146 3.686 1.277 6.923.186 4.617-.162 6.284-1.62 7.742-1.799 1.799-1.8 1.901-.027 3.245 1.08.818 1.318 1.4.581 1.419-2.014.051-1.434 2.171.75 2.742 2.258.591 2.623 1.871.75 2.631-.946.383-.892.756.222 1.529 1.266.879 1.228 1.116-.276 1.693-1.36.522-1.493.977-.599 2.054.691.833.748 1.383.142 1.383-.553 0-1.241.9-1.529 2-.331 1.268-1.38 2.012-2.866 2.032-2.24.03-2.261.095-.469 1.452 1.144.865 1.63 2.06 1.247 3.058-.346.901-.298 2.16.106 2.798.404.638.805 2.44.891 4.005.138 2.502-.136 2.789-2.271 2.381-1.438-.275-2.284-.033-2.075.593.194.581-.457 1.865-1.446 2.854-1.514 1.514-1.614 2.233-.636 4.562 1.474 3.507 5.507 7.54 9.714 9.716 3.406 1.761 23.687 3.835 29.864 3.053 2.569-.325 3.568.081 4.791 1.947 1.881 2.872 3.837 3.398 16.89 4.545 5.614.493 14.869 1.846 20.566 3.007 5.696 1.161 18.71 2.999 28.92 4.084 10.21 1.085 21.489 2.378 25.064 2.873 27.33 3.786 82.724 5.218 103.5 2.676 6.05-.741 14.825-1.137 19.5-.881 5.6.306 11.557-.109 17.461-1.217 8.591-1.612 9.016-1.606 10.291.14 1.084 1.486 3.304 1.939 12.039 2.457 5.89.349 18.134 1.357 27.209 2.24 36.033 3.504 44.184 3.893 63 3.004 26.433-1.25 80.843-1.291 106-.081 29.198 1.405 39.023 1.367 41.801-.159 1.265-.695 5.54-1.496 9.5-1.78 3.959-.284 11.802-1.606 17.428-2.938 10.238-2.423 20.686-3.176 21.684-1.562.291.472 3.13 1.121 6.309 1.442a40920.2 40920.2 0 0 0 16.478 1.657c7.631.765 12.076.764 15.5-.003 4.565-1.023 46.602-1.658 126.8-1.915 27.885-.09 58.208 1.064 66.033 2.513 1.829.338 2.161 1.616 3.299 12.662 1.469 14.263 1.837 16.626 7.367 47.285l4.148 23 .077 28c.042 15.4-.31 51.4-.783 80-1.391 84.239-1.06 124.864 1.36 167 .98 17.057 1.382 25.419 3.008 62.5 1.616 36.857 2.997 64.245 4.033 80 3.169 48.193 4.682 185.066 2.338 211.5-1.775 20.025-2.697 26.624-4.684 33.53-.865 3.008-2.255 9.417-3.088 14.24-.833 4.824-1.852 9.316-2.264 9.982-.939 1.52-1.091 2.638-2.269 16.748-1.149 13.745-7.833 46.556-10.085 49.5-.421.55-.972 2.8-1.225 5-.423 3.668-7.988 32.34-9.764 37-3.193 8.382-5.969 14.809-12.607 29.186-1.317 2.852-2.394 5.829-2.394 6.615 0 .786-.933 2.615-2.073 4.064-1.139 1.449-1.745 2.635-1.345 2.635.401 0 .035.787-.812 1.75-2.991 3.398-5.87 10.57-4.567 11.375.931.576.908 1.299-.104 3.191-.742 1.385-1.008 3.394-.615 4.634.737 2.32-5.781 16.156-11.801 25.05-3.631 5.365-13.391 15.05-14.843 14.728-.564-.126-1.547.636-2.183 1.691-.636 1.055-2.732 3.301-4.657 4.989-1.925 1.689-6.425 5.834-10 9.211-6.799 6.423-22.889 17.771-31.089 21.926-2.637 1.336-7.183 2.71-10.102 3.053-2.92.344-6.019 1.25-6.888 2.013-.868.764-3.456 1.389-5.75 1.389s-4.171.413-4.171.918c0 1.955-6.833 4.918-14 6.071-4.125.664-8.47 1.666-9.655 2.227-1.185.561-2.658.708-3.274.328-.637-.394-1.002-.131-.846.608.151.715-.738 1.455-1.975 1.644-1.237.189-2.25-.066-2.25-.566 0-.499-3.712-.08-8.25.932-11.748 2.62-12.703 2.78-28.413 4.783-27.174 3.465-43.901 4.545-50.206 3.243-3.163-.653-9.324-1.192-13.691-1.197-9.655-.01-29.284-1.64-35.44-2.943-7.542-1.596-15.017-2.937-25.655-4.604-11.159-1.749-30.28-6.323-48.845-11.687-6.6-1.906-14.204-4.059-16.897-4.783-7.015-1.885-15.118-8.67-51.329-42.974-26.008-24.638-37.795-41.127-48.43-67.748-3.042-7.615-10.173-22.644-11.722-24.704-1.38-1.834-7.942-21.589-11.642-35.048-1.966-7.15-4.398-15.7-5.405-19-1.007-3.3-2.304-7.8-2.883-10-.579-2.2-1.747-6.475-2.596-9.5-.849-3.025-2.007-12.025-2.573-20-.566-7.975-1.466-17.65-2.001-21.5-.965-6.953-4.424-44.225-5.613-60.5-.416-5.684-1.084-8.765-2.015-9.3-.767-.44-1.394-2.127-1.394-3.75 0-1.622-.45-2.95-1-2.95-.657 0-1 23.389-1 68.167 0 37.491-.217 67.95-.482 67.685-.264-.265-.508-37.104-.541-81.864-.045-62.061-.346-81.737-1.268-82.877-.953-1.179-.945-1.336.041-.744.952.572 1.25-.915 1.25-6.249 0-4.266-.457-7.282-1.17-7.723-.786-.486-.961-.178-.532.94.351.914.231 2.676-.266 3.914-.519 1.291-.935 1.611-.975.751-.038-.825-.682-2.675-1.432-4.111-.749-1.436-1.682-5.711-2.072-9.5-.39-3.789-1.219-8.914-1.843-11.389-1.122-4.455-1.139-4.47-1.803-1.5-.546 2.445-.692 2.573-.789.691-.065-1.27-.525-2.057-1.023-1.75-.498.308-2.057-1.353-3.465-3.691-4.458-7.4-4.313-7.258-5.965-5.887-1.007.836-1.696.896-2.135.186-.356-.577-2.196-1.049-4.089-1.049-3.171 0-3.441.24-3.441 3.059 0 1.8-.415 2.803-1.008 2.436-.554-.342-1.682.052-2.507.877-1.027 1.027-2.602 1.321-4.992.933-2.525-.41-3.493-.198-3.493.764 0 1.035-.267 1.064-1.2.131-.66-.66-2.423-1.2-3.917-1.2-1.494 0-2.943-.562-3.221-1.25-.346-.858-.529-.884-.583-.083-.048.715-1.723.238-4.329-1.233-2.337-1.32-5.375-2.867-6.75-3.438-1.375-.57-3.4-1.469-4.5-1.996-1.1-.528-7.4-1.18-14-1.45-6.6-.271-17.625-.893-24.5-1.383-6.875-.489-14.251-.771-16.392-.625-2.141.146-6.641-.143-10-.642s-25.084-1.161-48.276-1.472c-38.022-.509-42.484-.401-45.377 1.095-1.764.913-4.79 1.855-6.723 2.095-4.425.549-8.486 2.789-14.29 7.882-2.508 2.2-5.911 4.718-7.564 5.596-1.652.878-3.799 3.272-4.771 5.32-.972 2.048-3.51 6.211-5.639 9.251-2.129 3.04-4.552 7.621-5.384 10.18-.831 2.559-2.952 17.028-4.712 32.153-2.512 21.579-3.29 32.828-3.614 52.243-.424 25.506-.123 29.675 4.138 57.257 1.36 8.8 2.945 23.317 3.522 32.259 1.289 19.972 4.216 40.714 8.079 57.241a4622.333 4622.333 0 0 1 5.427 23.535c2.698 11.886 10.371 36.025 15.565 48.965 1.766 4.4 4.073 10.161 5.127 12.802 3.962 9.933 18.924 39.822 24.446 48.834 3.155 5.15 7.488 12.886 9.63 17.191 2.142 4.304 7.308 13.979 11.48 21.5 4.173 7.52 10.067 18.398 13.098 24.173 3.032 5.775 6.303 11.4 7.27 12.5.967 1.1 4.33 6.275 7.474 11.5 3.143 5.225 6.154 9.663 6.689 9.863.536.2 3.802 4.7 7.258 10s7.944 11.212 9.974 13.137c2.03 1.925 5.538 6.875 7.796 11 7.278 13.3 18.646 29.832 25.545 37.149 9.316 9.881 33.894 29.917 41.384 33.736 1.462.746 8.439 6.364 15.503 12.486 13.48 11.68 23.317 19.288 38.047 29.426 8.518 5.862 36.39 23.484 39.29 24.841.825.386 3.75 2.121 6.5 3.856 6.354 4.009 23.189 12.18 31 15.046 3.3 1.211 9.15 3.452 13 4.98 12.538 4.975 26.735 9.569 40.5 13.104 7.425 1.907 15.662 4.166 18.305 5.02 2.643.854 8.493 2.358 13 3.34 11.704 2.553 32.167 7.804 39.195 10.058 8.211 2.634 20.06 4.838 32 5.953 5.5.514 12.475 1.631 15.5 2.483 9.684 2.726 18.189 4.399 31 6.097 20.487 2.714 50.623.827 72.5-4.54 19.244-4.721 29.52-6.939 36.852-7.955 4.319-.599 8.149-1.272 8.512-1.496.362-.224 5.953-1.369 12.422-2.545 12.142-2.207 19.219-4.199 28.714-8.082 8.053-3.294 14.967-4.079 20.16-2.29 4.877 1.681 13.34 1.153 21.09-1.315 4.782-1.523 6.569-4.352 2.75-4.352-1.111 0-2-.667-2-1.5 0-.825.638-1.5 1.417-1.5s1.606-.563 1.837-1.25c.318-.944.766-.972 1.833-.112.777.626 2.875 1.016 4.663.866 2.613-.218 3.25.098 3.25 1.612 0 1.036.23 1.884.511 1.884 1.099 0 9.436-4.537 9.462-5.15.015-.357-2.223-1.458-4.973-2.447-2.75-.989-5-2.352-5-3.029s2.362-2.131 5.25-3.232c2.888-1.101 7.141-2.933 9.452-4.072 2.311-1.138 4.617-2.07 5.125-2.07 2.207 0 16.93-7.439 28.797-14.55 14.484-8.68 37.85-23.956 40.854-26.71 1.088-.998 6.938-4.768 13-8.378 6.062-3.611 12.898-8.094 15.19-9.964 2.293-1.869 4.514-3.398 4.936-3.398.422 0 1.699-.875 2.837-1.945 1.139-1.07 7.918-4.934 15.065-8.588 12.576-6.429 29.264-17.008 38.465-24.383 8.452-6.775 9.416-7.592 12.609-10.692 1.761-1.709 5.839-5.139 9.061-7.621 7.567-5.83 17.966-17.034 24.385-26.271 1.911-2.75 3.736-5.225 4.057-5.5.32-.275 4.282-5.675 8.804-12 11.941-16.701 15.113-21.084 18.092-25 1.465-1.925 3.97-5.975 5.567-9 1.597-3.025 3.928-6.892 5.179-8.594 1.251-1.702 2.275-3.802 2.275-4.667 0-.865.338-1.722.75-1.906.412-.183 2.683-4.158 5.046-8.833 2.363-4.675 7.2-13.148 10.75-18.83 3.55-5.681 6.454-10.744 6.454-11.25 0-.506.344-.92.764-.92.42 0 1.561-1.688 2.535-3.75.975-2.062 3.533-6.9 5.686-10.75 5.262-9.409 11.264-21.933 11.132-23.229-.012-.125 1.52-3.613 3.405-7.75 1.885-4.136 3.202-7.521 2.927-7.521-.275 0 .129-1.237.898-2.75 1.751-3.443 6.452-19.438 7.613-25.899 1.364-7.597 2.035-10.611 3.105-13.955 1.122-3.505 1.339-4.374 3.326-13.302.785-3.524 1.205-6.982.936-7.685-.27-.704.868-6.821 2.529-13.594 6.133-25.003 8.92-38.595 11.141-54.315 1.485-10.513 4.01-22.273 5.599-26.075.847-2.027 1.966-8.239 2.487-13.805.521-5.566 1.352-12.82 1.847-16.12 2.999-20.021 4.058-27.499 4.461-31.5.456-4.519 3.416-26.993 7.968-60.5 1.346-9.9 2.721-20.7 3.057-24 .336-3.3 1.048-9.375 1.582-13.5 1.7-13.14 2.142-19.942 2.92-45 1.782-57.369 1.967-114.603.569-175.5-1.218-53.065-1.246-111.981-.068-140.594.827-20.063.429-30.759-1.985-53.406-.235-2.2-.673-29.875-.974-61.5-.521-54.721-.934-63.387-4.001-84-.204-1.375-.637-5.425-.962-9-.324-3.575-.982-7.625-1.461-9-1.267-3.632-2.464-15.394-2.411-23.675.035-5.361.53-7.889 1.961-10 1.811-2.673 1.91-5.027 1.848-43.825-.036-22.55-.349-62.288-.696-88.307-.631-47.361.092-91.337 2.395-145.693 1.478-34.874 1.593-44.115.648-52-1.348-11.25-3.037-15.868-7.59-20.75-1.411-1.513-2.171-2.75-1.69-2.75.482 0-.108-.917-1.311-2.038-1.843-1.716-3.374-2.01-9.709-1.863-5.817.135-7.942-.207-9.377-1.505-1.021-.924-3.599-1.924-5.73-2.222-6.208-.869-7.231-1.685-2.889-2.304l3.985-.568-2.267-2.104c-1.756-1.63-4.092-2.245-10.356-2.728-4.449-.343-8.597-1.044-9.218-1.557-1.927-1.591-7.352-2.05-31.036-2.628-12.598-.307-23.173-.717-23.5-.91-1.151-.681-20.696-2.073-28.593-2.036-4.4.021-17.4.396-28.889.833-18.671.712-20.826.632-20.294-.755.936-2.439-.457-2.613-7.694-.962-6.395 1.458-7.185 1.429-14.969-.557-4.521-1.153-10.004-2.099-12.186-2.102-2.183-.003-6.668-.469-9.968-1.036-5.704-.979-41.891-2.234-42.646-1.479m-774.59 128.239c1.52.229 3.77.223 5-.014 1.23-.237-.014-.425-2.764-.418-2.75.008-3.756.202-2.236.432m-22.514 60.988c1.238.238 3.262.238 4.5 0 1.238-.239.225-.434-2.25-.434s-3.488.195-2.25.434M1044.272 488c0 2.475.195 3.488.434 2.25.238-1.238.238-3.262 0-4.5-.239-1.238-.434-.225-.434 2.25m-699.63 482.491c-.326.849.295 2.998 1.379 4.776l1.972 3.233.003-3.628c.004-4.011-2.327-7.056-3.354-4.381m4.373 9.2c.02 3.573 1.422 6.029 2.473 4.329.406-.657.272-1.66-.297-2.229-.569-.569-.814-1.609-.545-2.312.27-.702.01-1.574-.578-1.937-.662-.409-1.062.409-1.053 2.149m1.806 9.821c-.298.299-.195 2.441.229 4.762.48 2.626.387 4.456-.246 4.847-.673.416-.643.86.089 1.313.609.376 1.107 2.232 1.107 4.125 0 1.893.436 3.441.969 3.441.532 0 .681.749.33 1.664-.444 1.155-.263 1.432.589.905 1.352-.835.899-9.394-.553-10.458-.459-.336-.835-2.564-.835-4.952 0-4.373-.677-6.649-1.679-5.647m-1.806 24.571c.01 5.577.329 7.921.945 6.948.855-1.352.39-13.993-.55-14.948-.225-.229-.403 3.371-.395 8m-11.705-.583c.005 3.3.192 4.529.415 2.732.222-1.797.218-4.497-.01-6-.229-1.503-.411-.032-.405 3.268m11.099 193c-.001 9.35.149 13.31.334 8.799.185-4.51.186-12.16.002-17-.183-4.839-.335-1.149-.336 8.201m-.099 23c.005 3.3.192 4.529.415 2.732.222-1.797.218-4.497-.01-6-.229-1.503-.411-.032-.405 3.268m.101 27.5c0 9.625.15 13.563.334 8.75.183-4.812.183-12.687 0-17.5-.184-4.812-.334-.875-.334 8.75m551.709 3.25a186.686 186.686 0 0 1-2.745 6.154c-1.798 3.797-1.747 4.572.127 1.896 2.127-3.036 5.569-11.3 4.707-11.3-.397 0-1.337 1.463-2.089 3.25M348 1346.5c0 30.708.228 55.605.506 55.327.666-.665.671-109.984.005-110.649-.281-.281-.511 24.614-.511 55.322m667.188-47.812c-1.249 3.059-2.108 5.725-1.909 5.925.2.199 1.396-2.13 2.659-5.175 1.262-3.046 2.121-5.713 1.908-5.926-.214-.213-1.41 2.116-2.658 5.176m-150.737 2.774c-2.515 5.299-1.151 6.607 1.881 1.804 3.086-4.889 3.173-5.266 1.215-5.266-.799 0-2.192 1.558-3.096 3.462m15.549-.866c0 .877-.809 2.79-1.799 4.25-.989 1.46-2.364 3.967-3.055 5.572-1.087 2.524-1.061 2.756.191 1.717.796-.661 2.033-2.649 2.749-4.418.715-1.769 1.603-3.442 1.972-3.717 1.286-.957 2.102-5 1.009-5-.587 0-1.067.718-1.067 1.596m253.747 40.441c-1.437 4.105-2.869 8.813-3.183 10.463l-.57 3 1.536-2.753c2.045-3.662 5.692-15.582 5.21-17.027-.21-.63-1.557 2.213-2.993 6.317M324 1352.441c0 1.501 1.795 3.097 2.59 2.302.698-.697-.683-3.743-1.697-3.743-.491 0-.893.648-.893 1.441m800.63 11.486c-2.547 5.186-4.63 10.023-4.63 10.75 0 .728-.45 1.323-1 1.323s-1 .45-1 1 .389 1 .863 1c1.231 0 11.361-20.851 10.834-22.299-.241-.66-2.521 3.041-5.067 8.226m-17.314 20.823c-.941 2.063-1.884 4.088-2.097 4.5-.212.412.019.75.514.75.842 0 5.267-7.045 5.267-8.386 0-1.961-2.222-.069-3.684 3.136m-10.545 19.5c-2.591 3.994-3.997 7.007-2.974 6.376 1.018-.63 5.47-8.626 4.802-8.626-.203 0-1.026 1.013-1.828 2.25m-748.389 17.25c.002 6.6.164 9.17.359 5.711.196-3.459.195-8.859-.003-12s-.358-.311-.356 6.289m758.095-7.735c-1.344.965-3.199 3.934-9.23 14.768-2.746 4.932-5.994 10.655-7.219 12.717-1.224 2.063-2.02 3.75-1.769 3.75.486 0 6.055-8.856 9.746-15.5 4.842-8.715 7.485-13.059 8.711-14.321 1.891-1.947 1.741-2.835-.239-1.414M348.378 1446c0 6.325.163 8.912.361 5.75.198-3.162.198-8.338 0-11.5-.198-3.162-.361-.575-.361 5.75m722.68.626c-2.958 5.013-1.948 5.317 1.31.394 1.463-2.211 2.248-4.02 1.745-4.02-.504 0-1.878 1.632-3.055 3.626M348.349 1471c0 4.675.173 6.588.383 4.25.211-2.338.211-6.162 0-8.5-.21-2.338-.383-.425-.383 4.25m177.151 29c1.1.473 2.675.884 3.5.914 1.333.049 1.333-.052 0-.914-.825-.533-2.4-.945-3.5-.914l-2 .055 2 .859m-177.248 12.5c.011 2.2.216 2.982.455 1.738.239-1.244.23-3.044-.02-4s-.446.062-.435 2.262m672.748 5c-1.866 1.925-2.932 3.5-2.37 3.5 1.025 0 4.457-3.414 5.78-5.75 1.193-2.107.138-1.41-3.41 2.25m-672.69 7c.005 3.3.192 4.529.415 2.732.222-1.797.218-4.497-.01-6-.229-1.503-.411-.032-.405 3.268m653.19 7.146c-5.5 5.275-8.947 9.05-7.66 8.389 2.885-1.481 20.046-18.041 18.66-18.005-.55.014-5.5 4.342-11 9.616m-5.25-4.155c-1.788.777-3.25 1.884-3.25 2.461 0 1.353.113 1.337 3.826-.515 5.764-2.875 5.284-4.493-.576-1.946m-8.935 16.516c-2.203.888-5.112 4.993-3.537 4.993.466 0 2.141-1.35 3.722-3 3.103-3.239 3.096-3.315-.185-1.993m-638.96 11.493c-.003 4.95.166 7.101.376 4.78.209-2.321.212-6.371.005-9-.206-2.629-.378-.73-.381 4.22M498.5 1558c1.1.473 2.9.846 4 .83 1.608-.024 1.51-.186-.5-.83-3.419-1.095-6.048-1.095-3.5 0m457 3.422c-5.65 4.791-4.019 5.218 1.868.489 2.677-2.151 4.252-3.904 3.5-3.896-.752.008-3.168 1.541-5.368 3.407m11.812-2.071c-1.28 1.238-2.799 2.457-14.312 11.486-8.98 7.043-12.524 10.721-11.147 11.572.552.341 1.291-.286 1.642-1.394.352-1.108 1.454-2.015 2.45-2.015 2.149 0 4.351-2.339 3.296-3.501-.407-.45.07-.526 1.061-.17 1.074.387 1.555.249 1.191-.34-.336-.544.215-.989 1.225-.989s3.32-1.356 5.134-3.012c1.815-1.657 3.647-2.798 4.073-2.535.425.263 1.383-.743 2.129-2.237.745-1.494 2.24-3.727 3.321-4.962 2.054-2.346 2.002-3.901-.063-1.903m-317.55.356c1.244.239 3.044.23 4-.02s-.062-.446-2.262-.435c-2.2.011-2.982.216-1.738.455m159.988 1.865c-3.877 2.103-3.438 2.829.5.827 3.77-1.918 4.437-2.414 3.167-2.359-.504.022-2.154.711-3.667 1.532M348.422 1589c0 11.275.146 15.888.324 10.25.178-5.638.178-14.862 0-20.5s-.324-1.025-.324 10.25m616.468-16.686c-4.001 2.73-11.493 9.686-10.434 9.686 1.211 0 6.776-4.133 11.034-8.194 4.543-4.334 4.332-4.859-.6-1.492m-8.39 11.818c-2.459 1.226-5.928 5.773-5.064 6.637.348.348 2.523-1.257 4.834-3.568 4.126-4.126 4.195-5.045.23-3.069m-21.461 5.335c-2.325 1.943-3.906 3.533-3.511 3.533.394 0 .205.617-.421 1.371-.707.852-.826 2.214-.314 3.597l.823 2.226 3.442-2.841c1.893-1.562 4.04-3.409 4.77-4.103.73-.695 2.193-1.726 3.25-2.292 1.057-.565 1.922-1.514 1.922-2.108 0-.629-1.031-.405-2.465.535-3.502 2.294-4.87 2.11-3.489-.471 1.815-3.391.497-3.209-4.007.553m-41.17 22.747c-.753.72-2.719 1.897-4.369 2.615-1.65.719-4.575 2.329-6.5 3.579a387.618 387.618 0 0 1-6.48 4.105c-1.638 1.009-2.451 2.01-1.806 2.225.645.215 3.555-1.213 6.466-3.173 6.044-4.07 7.335-4.35 7.54-1.632.163 2.165-1.242 3.611-4.22 4.343-1.34.33-.95.53 1.179.608 1.748.064 3.782-.488 4.52-1.226.738-.738 2.345-1.879 3.572-2.535 1.226-.656 2.229-1.679 2.229-2.273 0-.629-1.031-.405-2.465.535-3.131 2.051-3.285 2.032-3.148-.399.062-1.108 1.463-3.093 3.113-4.411 1.65-1.318 2.716-2.682 2.369-3.033-.347-.35-1.247-.048-2 .672m-14.587 14.131c.12.635-.344 1.043-1.032.905-.689-.138-1.281.759-1.318 2-.055 1.794-1.677 3.038-8 6.138-4.363 2.139-7.932 4.262-7.932 4.719 0 1.114 2.654.067 7.5-2.958 2.2-1.373 6.608-3.881 9.796-5.573 6.266-3.325 7.042-4.708 3.217-5.731-1.606-.429-2.374-.257-2.231.5m-198.018 6.373c1.52.229 3.77.223 5-.014 1.23-.237-.014-.425-2.764-.418-2.75.008-3.756.202-2.236.432M474 1655.433c1.925.778 4.29 1.449 5.255 1.491.965.042 4.006 1.162 6.758 2.489 2.751 1.328 6.911 2.731 9.245 3.12 2.333.388 6.492 1.507 9.242 2.486 2.75.98 7.226 2.054 9.946 2.389 2.72.334 5.195.969 5.5 1.411.544.79 9.11 3.217 18.134 5.138 2.519.536 5.331 1.264 6.25 1.616.918.353 1.67.2 1.67-.338 0-.539-1.89-1.282-4.2-1.651-2.311-.369-4.673-1.034-5.25-1.477-.578-.442-6.9-2.291-14.05-4.107-7.15-1.816-13.45-3.629-14-4.029-.55-.399-4.15-1.501-8-2.449-3.85-.947-10.15-2.759-14-4.026-3.85-1.267-9.025-2.568-11.5-2.89l-4.5-.587 3.5 1.414m368.165 14.444c-1.014.643-.834.976.752 1.391 1.147.3 1.857.176 1.578-.276-.279-.452.058-1.049.749-1.328.863-.348.787-.526-.244-.57-.825-.035-2.101.317-2.835.783M580 1675c0 .55.844 1 1.875 1 1.031 0 3.394.231 5.25.513l3.375.513-3.5-1.437c-4.193-1.721-7-1.957-7-.589m-25 2.912c.825.468 5.325 1.597 10 2.508 4.675.912 13.963 2.99 20.641 4.619 12.604 3.074 16.359 3.558 16.359 2.108 0-.469-3.937-1.555-8.75-2.413-4.812-.858-12.8-2.509-17.75-3.67-16.2-3.798-17.504-4.064-19.764-4.034-1.744.024-1.906.218-.736.882M677.5 1684c.34.55-.084 1-.941 1s-1.559.498-1.559 1.107.712.834 1.582.5c.87-.334 3.007-.668 4.75-.743 2.778-.12 2.86-.197.668-.625-2.333-.456-2.367-.542-.5-1.293 1.628-.656 1.385-.818-1.309-.876-1.966-.041-3.058.336-2.691.93m-63.469 4.981c-2.611 1.614 26.786 3.541 30.469 1.998 1.286-.539-1.571-.891-8-.986-9.945-.146-18.008-.722-20.091-1.435-.6-.205-1.67-.015-2.378.423M648 1691c0 1.198 3.711 1.198 6.5 0 1.549-.666 1.042-.875-2.25-.93-2.337-.038-4.25.38-4.25.93" fill-rule="evenodd"/></svg>