<svg xmlns="http://www.w3.org/2000/svg" width="1240" height="1753"><path d="M966.975 31.038c-3.153.749-7.571 3.065-19.056 9.991-1.969 1.188-6.056 4.538-9.081 7.445-3.026 2.907-6.744 5.937-8.264 6.733-2.505 1.313-23.562 20.809-32.457 30.051-16.148 16.779-20.261 20.631-24.867 23.294-1.788 1.034-3.25 2.227-3.25 2.651 0 .425-1.687 1.847-3.75 3.162-2.062 1.315-7.8 6.254-12.75 10.977-4.95 4.723-9.562 8.603-10.25 8.622a1.309 1.309 0 0 0-1.258 1.286c-.005.688-2.367 3.819-5.25 6.958a1282.903 1282.903 0 0 0-11.242 12.454c-13.152 14.787-35.704 37.886-46.54 47.67-3.553 3.207-10.082 9.282-14.508 13.5-12.369 11.784-17.906 16.661-21.584 19.011-1.852 1.183-5.387 4.178-7.855 6.654-2.467 2.477-4.805 4.503-5.194 4.503-1.055 0-15.509 12.201-21.881 18.469-7.513 7.393-20.225 18.531-21.149 18.531-.411 0-2.67 2.137-5.018 4.75-2.349 2.613-7.196 7.714-10.771 11.337-3.575 3.623-10.775 11.234-16 16.915-13.404 14.573-16.65 17.752-18.829 18.444-1.051.333-5.993 4.645-10.98 9.58-4.988 4.936-9.546 8.974-10.13 8.974-.583 0-1.061.596-1.061 1.324 0 .727-4.837 5.548-10.75 10.712-5.913 5.163-17.95 16.619-26.75 25.456-9.631 9.672-18.975 18.047-23.474 21.038-19.065 12.678-31.451 24.294-82.026 76.927-6.325 6.583-16.463 16.935-22.528 23.006-6.066 6.07-14.354 14.637-18.418 19.037-14.032 15.193-82.184 83.5-83.309 83.5-.248 0-.483-20.812-.524-46.25-.041-25.437-.356-76.777-.699-114.088-.459-49.809-.224-81.835.882-120.5 2.32-81.113 2.558-93.104 1.913-96.329-.357-1.783-.89-2.524-1.317-1.833-.395.639-.669-5.804-.609-14.318.06-8.515.446-15.275.859-15.022.413.252.75-.469.75-1.601 0-1.132-.451-2.059-1.003-2.059-.6 0-.79-1.779-.472-4.424.305-2.543.094-4.694-.497-5.059-.565-.349-.996-1.396-.958-2.326.058-1.379.229-1.321.93.309.998 2.321 1.124 2.129 1.493-2.263.151-1.794-.104-3.496-.566-3.782-.462-.285-.665-1.067-.451-1.737.326-1.019.942-11.851 1.948-34.218.421-9.371.614-10.594 1.576-10 .55.34 1-.084 1-.941s-.39-1.559-.867-1.559c-.713 0-1.272-5.524-1.137-11.25.376-15.977.777-23.815 1.34-26.25.452-1.951.4-2.324-.148-1.066-1.28 2.936-2.457.278-2.813-6.352-.671-12.504-2.045-20.404-3.404-19.564-.534.33-1.004-.214-1.044-1.209-.114-2.81-3.39-7.771-5.388-8.157-1.565-.303-1.708.132-1.105 3.348.471 2.512.353 3.486-.37 3.039-.585-.361-1.064-1.74-1.064-3.063 0-1.428-.862-2.867-2.121-3.541-1.49-.797-1.918-.808-1.441-.035.374.605.218 1.1-.348 1.1-.565 0-.781.642-.48 1.427.409 1.066-.673 1.597-4.281 2.102-2.656.371-6.605 1.051-8.775 1.511-2.171.459-4.328.6-4.794.312-.466-.288-1.48.001-2.253.643-.774.641-2.666 1.048-4.207.904-3.096-.289-7.314.837-7.161 1.912.38 2.673-.369 3.838-2.375 3.69-1.579-.116-2.498-1.078-3.128-3.275-.961-3.349-3.636-5.241-3.636-2.572 0 1.285-.282 1.357-1.467.373-1.879-1.559-10.213 1.385-10.866 3.839-.249.934-.485.527-.551-.949-.064-1.421-.678-2.601-1.366-2.623-2.205-.07-4.232-.769-4.9-1.691-.357-.493-1.232.036-1.944 1.176-1.127 1.804-1.438 1.876-2.404.555-.911-1.247-1.815-1.327-5.073-.45-2.18.588-5.187.846-6.682.575-2.521-.457-2.766-.195-3.373 3.605-.444 2.773-.928 3.668-1.499 2.767-.627-.989-.87-.817-.946.669-.071 1.408-.372 1.112-1.018-1-.504-1.65-.654-4.237-.334-5.75.516-2.44.291-2.75-1.998-2.75-2.145 0-2.58.462-2.586 2.75l-.006 2.75-1.744-2.534c-1.221-1.774-2.792-2.606-5.243-2.775-7.368-.509-8.522-.721-9.235-1.691-.425-.579-.741-.33-.75.589-.008.875-1.118 2.093-2.467 2.707-2.085.95-2.362.882-1.85-.453.51-1.328-.013-1.466-3.404-.893-3.112.526-4.849.204-7.782-1.443-2.076-1.166-4.447-1.862-5.27-1.546-.823.315-2.113.061-2.869-.566-1.097-.911-1.387-.663-1.441 1.233-.067 2.355-.075 2.357-1.106.226-1.153-2.382-4.876-3.469-9.082-2.653-1.515.294-3.399 0-4.186-.653-1.018-.845-1.986-.889-3.363-.153-1.062.569-2.134.832-2.382.585-.247-.248-2.557-.53-5.131-.627-2.575-.098-4.682-.514-4.682-.925 0-1.005-8.946-.825-9.575.193-.538.87-5.522-1.012-6.563-2.479-.351-.494-1.108-.608-1.681-.254-.574.355-1.297.233-1.608-.269-.31-.503-2.139-.84-4.063-.749-1.924.09-3.691-.294-3.925-.853-.235-.559-.546.333-.691 1.983-.145 1.65-.361 3.9-.48 5a88.636 88.636 0 0 0-.315 3.75c-.055.963-.445 1.638-.868 1.5-2.003-.651-4.987 4.056-5.547 8.75-.328 2.75-1.27 7.025-2.094 9.5l-1.497 4.5.32-5.5c.176-3.025.125-4.488-.113-3.25-.238 1.237-.831 2.25-1.319 2.25-1.005 0-.663-6.087.443-7.877.4-.647.619-4.652.487-8.9-.132-4.247.107-8.511.531-9.473.445-1.008.352-1.75-.218-1.75-1.432 0-2.412 3.848-2.231 8.75.126 3.377-.187 4.25-1.523 4.25-1.401 0-1.584-.707-1.102-4.25 1.384-10.169 1.375-10.222-1.74-10.578-3.872-.443-4.898.87-4.082 5.224.482 2.565 1.025 3.376 1.82 2.719.798-.66 1.166-.074 1.24 1.974.059 1.601-.278 2.911-.75 2.911-.471 0-.863 1.688-.871 3.75-.009 2.102-.35 3.224-.777 2.553-.502-.79-1.263-.88-2.234-.266-2.542 1.608-3.244 1.063-2.624-2.037.33-1.65.354-3 .054-3-.962 0-3.404 2.819-3.404 3.929 0 .589-.45 1.071-1 1.071-1.082 0-1.386-8.831-.393-11.418.334-.87 1.417-1.582 2.406-1.582 1.307 0 1.657-.547 1.277-2-.592-2.264-1.39-2.5-3.003-.887-1.262 1.262-3.626.244-2.744-1.182.316-.512-.127-.931-.984-.931-1.071 0-1.591 1.017-1.661 3.25l-.102 3.25-1.004-3.5a534.344 534.344 0 0 0-1.431-4.917c-.313-1.041-.722-1.122-1.54-.304-.817.817-2.164.576-5.071-.907-2.178-1.111-3.684-1.574-3.348-1.03.362.585-.616.526-2.391-.144-2.425-.915-3.262-.851-4.344.334-1.706 1.869-4.08 9.8-3.779 12.622.27 2.528-1.601 4.033-3.121 2.513-.583-.583-1.244-3.83-1.47-7.216-.526-7.89-2.105-9.621-8.96-9.827-6.142-.184-7.871 1.158-8.834 6.856-.839 4.97-2.883 5.403-2.31.489.324-2.771.102-3.412-1.032-2.977-1.096.42-1.181.238-.353-.76.818-.986.63-1.602-.751-2.464C55.451 50.64 55 51.535 55 58.333c0 6.856-1.257 6.967-1.531.136-.099-2.482-.47-4.803-.825-5.158-.607-.607-1.14 6.031-.657 8.189.123.55.232 1.977.243 3.171.014 1.519.472 1.997 1.527 1.592 1.282-.492 1.415.375.897 5.83-.335 3.524-1.088 14.057-1.673 23.407s-1.233 19.025-1.438 21.5c-.206 2.475-.695 11.7-1.087 20.5-.391 8.8-.94 18.25-1.219 21-1.286 12.698.237 62.161 1.979 64.26 1.597 1.924 1.68 19.437.102 21.396-.622.772-1.126 6.239-1.183 12.844-.055 6.325-.539 14.65-1.075 18.5-.537 3.85-1.201 9.475-1.476 12.5-.276 3.025-1.184 12.025-2.019 20-1.501 14.341-1.488 25.113.071 57 .39 7.975.804 19.225.921 25 .117 5.775.501 13.571.854 17.325.476 5.056.341 6.64-.517 6.109-.862-.532-.959.798-.378 5.175.43 3.24.742 6.688.693 7.663-.048.974.335 1.51.852 1.191.516-.32.939-3.929.939-8.022 0-4.914.388-7.441 1.143-7.441 1.853 0 .426 16.102-1.524 17.193-1.199.671-1.33 1.437-.583 3.402 1.245 3.274 1.225 4.684-.056 3.893-.668-.413-.841 1.173-.501 4.589.311 3.126.075 5.756-.59 6.557-.76.916-1.211 14.017-1.431 41.601-.177 22.146-.846 57.59-1.487 78.765-1.264 41.74-.787 108.944.858 121 .564 4.125 1.276 9.975 1.584 13 .308 3.025 1.04 9.55 1.627 14.5 1.18 9.946.854 18.217-2.285 58-1.895 24.026-2.118 34.16-2.022 92 .13 78.967.664 103.041 2.66 120 4.413 37.485 4.702 42.364 5.156 87 .516 50.604.542 51.5 1.476 51.5.371 0 .692 1.912.713 4.25.021 2.338.34 12.35.708 22.25.369 9.9.824 22.275 1.012 27.5.187 5.225.668 12.717 1.069 16.65.512 5.031.237 10.081-.927 17.045-1.715 10.252-1.92 14.681-1.607 34.611.164 10.406.382 11.768 1.846 11.485 1.431-.277 1.68-2.021 1.796-12.608.074-6.758.412-12.563.75-12.901.338-.339.615 4.452.615 10.645 0 10.419.149 11.299 2 11.783 1.567.41 2 1.364 2 4.407 0 2.639-.443 3.883-1.383 3.883-.761 0-1.619.9-1.907 2-.354 1.356-.03 2 1.006 2 1.2 0 1.278.302.362 1.406-.642.774-1.244 4.149-1.337 7.5-.183 6.627-1.741 8.572-1.741 2.176 0-8.265-2.423-9.594-3.341-1.832-.342 2.888-.881 6.6-1.199 8.25-.318 1.65-.953 8.625-1.412 15.5-.533 7.985-1.407 13.605-2.42 15.559-1.306 2.523-1.452 4.844-.83 13.239.415 5.598.367 11.197-.108 12.44-.474 1.244-1.059 25.212-1.299 53.262s-.959 66.3-1.596 85c-1.96 57.474-1.412 105.677 1.366 120.318.555 2.924 2.025 7.649 3.267 10.5 1.241 2.85 2.802 9.232 3.468 14.182.666 4.95 2.087 10.701 3.157 12.781 2.329 4.522 2.39 5.418.504 7.305-1.145 1.145-1.22 2.111-.363 4.678.593 1.78 1.432 3.628 1.864 4.108.432.479.519 1.566.194 2.414-.412 1.074-.203 1.302.69.75 1.018-.629 1.199 1.18.879 8.806-.236 5.635-.041 9.095.473 8.378.529-.738.643.117.288 2.165-.61 3.524.931 11.115 2.257 11.115.418 0 1.331-.562 2.028-1.25 1.015-1.001 1.503-.948 2.45.264 3.604 4.612 6.264 5.213 24.985 5.642 9.9.227 18.418.671 18.928.986.51.315 5.504.788 11.098 1.051 5.595.262 11.837.836 13.873 1.275 3.931.847 12.627.262 14.299-.962.55-.403 13.501-.614 28.78-.47 22.727.214 28.034.007 29.178-1.137 1.794-1.794 3.457-1.784 4.152.026.301.784 2.308 1.723 4.46 2.087 4.566.771 9.671-1.791 11.912-5.978 1.365-2.551 3.018-3.391 3.018-1.534 0 .55.627 1 1.393 1s1.681.751 2.034 1.67c.536 1.396 1.277 1.048 4.527-2.125 2.138-2.088 3.698-4.302 3.466-4.92-.231-.619.592-1.575 1.83-2.125 3.042-1.352 21.154-1.229 22.881.155.753.604 2.265.772 3.361.373 1.095-.398 3.345-.193 5 .456 3.881 1.523 29.907 1.216 33.942-.4 2.264-.906 4.028-.894 7.725.053 3.948 1.012 5.251.982 7.408-.173 1.44-.771 3.574-1.415 4.743-1.433 1.559-.023 2.531-1.122 3.657-4.137.843-2.258 2.156-4.852 2.918-5.765 2.285-2.738 4.059-12.576 3.616-20.054-.285-4.794-.034-7.245.792-7.755 2.131-1.317 1.886-30.495-.356-42.32-1.729-9.12-1.779-10.968-.569-21 .73-6.05 1.414-18.16 1.52-26.911.106-8.751.387-16.225.623-16.607.237-.383.507-13.143.599-28.356.146-23.775-.049-27.903-1.386-29.393-1.809-2.016-2.495-5.636-3.195-16.869-.402-6.442-.198-8.394.982-9.373.819-.68 1.489-.806 1.489-.28s.629.956 1.398.956c1.096 0 1.455-2.386 1.664-11.084.737-30.668-.158-97.497-1.541-115.083-.13-1.65-.3-6.338-.379-10.417-.278-14.477-1.857-4.685-2.043 12.667-.058 5.434-.512 9.25-1.099 9.25-.55 0-1.053-1.687-1.118-3.75-.114-3.601-1.52-10.678-1.764-8.878-.065.48-.793.313-1.618-.372-1.012-.84-1.495-3.075-1.485-6.872.019-7.024 1.44-9.849 2.394-4.762 1.224 6.523 2.236 4.634 1.965-3.668-.147-4.509-.383-13.231-.523-19.382-.264-11.591-.994-13.429-2.415-6.088l-.828 4.272-.362-3.708c-.199-2.039.054-4.514.562-5.5.514-.999.77-11.529.576-23.792-.19-12.1-.094-23.237.214-24.748l.56-2.748 3.085 3.085c3.688 3.688 7.167 5.23 11.334 5.024 4.052-.201 7.331 3.088 5.399 5.416-1.043 1.256-1.48 1.309-2.214.268-.727-1.032-.838-1.012-.54.097.205.766 1.623 1.527 3.151 1.689 4.641.495 7.497 3.897 3.877 4.619-1.555.311-1.5.566.5 2.296 1.237 1.071 2.25 2.276 2.25 2.678 0 .72 20.598 21.618 24.5 24.857 1.1.913 5.15 4.154 9 7.201 3.85 3.047 9.7 8.153 13 11.347 3.3 3.194 6.997 6.282 8.215 6.863 2.042.974 6.389 4.593 27.195 22.639 4.175 3.62 8.67 7.445 9.991 8.5 1.32 1.054 16.402 15.867 33.515 32.917 38.501 38.358 46.043 45.528 60.821 57.815 13.721 11.408 23.872 18.898 39.763 29.341 6.325 4.156 12.253 8.071 13.174 8.7.921.629 7.523 5.105 14.671 9.946 7.148 4.841 13.537 9.454 14.198 10.25.661.796 1.628 1.448 2.148 1.448 1.133 0 17.876 11.67 19.315 13.463.554.689 2.866 2.555 5.139 4.145 2.273 1.591 10.743 8.292 18.824 14.892 23.757 19.405 27.627 22.374 51.531 39.53 10.888 7.815 32.696 24.288 38.5 29.083 2.75 2.272 6.743 5.538 8.874 7.259 2.131 1.72 5.731 4.65 8 6.509 2.269 1.86 6.528 4.785 9.464 6.5 2.936 1.716 6.536 3.902 8 4.858 1.464.957 3.787 2.238 5.162 2.847 6.934 3.072 9.659 4.656 12.449 7.235 4.431 4.098 8.428 6.026 9.921 4.787.869-.722 1.989-.376 3.844 1.187 5.337 4.496 6.437 5.301 13.258 9.705 3.833 2.475 8.107 5.644 9.498 7.042 1.392 1.398 4.555 4.091 7.03 5.985 4.715 3.609 17.14 13.886 18 14.89.459.535 4.64 3.676 27.489 20.649 7.014 5.21 18.015 12.434 18.935 12.434.179 0 2.036 1.567 4.127 3.483 3.662 3.354 6.552 5.121 15.699 9.597 2.337 1.143 4.925 2.502 5.75 3.02.825.517 3.013 1.633 4.863 2.481 1.85.847 5 2.618 7 3.936 3.309 2.18 13.979 4.76 11.637 2.814-1.438-1.195-1.732-3.28-1.008-7.142.624-3.323.672-3.351 2.654-1.557 1.957 1.771 2.051 1.768 3.101-.108 1.069-1.91 1.092-1.91 1.847.02.655 1.674.776 1.568.836-.739.051-1.969-.651-3.047-2.606-4-3.915-1.909-4.4-4.273-.704-3.431 2.636.601 2.725.535 1.058-.771-1.762-1.382-1.762-1.444 0-1.9 1.657-.428 1.663-.482.072-.587-.962-.064-1.75-.566-1.75-1.116 0-1.239.202-1.239 3.685.005l2.815 1.006-2.326-1.978c-1.28-1.087-2.06-2.409-1.734-2.936.326-.527.108-1.258-.484-1.624-.692-.428-.434-1.134.723-1.98.989-.724 2.102-1.128 2.472-.899.371.229.547-.737.393-2.146-.207-1.886.099-2.415 1.162-2.007.793.304 2.116-.12 2.94-.944 1.329-1.329 1.237-1.506-.825-1.576-1.276-.043-1.784-.297-1.127-.565.656-.267.978-1.047.715-1.733-.263-.686.549-1.799 1.806-2.473 1.257-.675 2.792-2.307 3.413-3.628 1.233-2.628.241-3.522-3.91-3.522-1.532 0-1.816-.302-1.025-1.093.79-.79 1.711-.761 3.327.104 2.865 1.533 4.214-.265 2.864-3.816-1.223-3.217-.384-3.957 2.019-1.783 1.827 1.653 1.947 1.637 2.574-.339.833-2.627 2.202-2.66 3.023-.073.349 1.1 1.11 2 1.69 2 .656 0 .584-.568-.19-1.5-.86-1.036-.898-1.5-.122-1.5.617 0 1.122-.477 1.122-1.059s-.52-.738-1.155-.346c-.715.443-.883.275-.44-.44.392-.635 1.665-1.155 2.828-1.155 2.092 0 2.089-.028-.233-2.5-2.463-2.622-2.118-3.168.962-1.52 1.505.805 1.942.537 2.454-1.5.342-1.364 1.319-2.48 2.17-2.48 1.094 0 1.362-.588.914-2-.525-1.655-.18-2 2-2 2.249 0 2.544-.329 2.016-2.25-.602-2.187-.576-2.195.932-.309 1.522 1.904 1.578 1.905 2.941.042.764-1.045 1.174-2.459.911-3.143-.938-2.446.806-3.554 2.781-1.767 1.519 1.375 2.168 1.465 3.372.466 1.293-1.073 1.301-1.428.062-2.667-2.18-2.18-.759-4.65 2.241-3.897 2.301.577 2.452.397 2.038-2.426-.377-2.566-.118-3.049 1.635-3.049 2.263 0 5.217-5.148 4.726-8.238-.222-1.392.332-1.666 2.784-1.381 1.684.196 3.061.065 3.061-.292s2.255-1.524 5.01-2.593c4.566-1.772 4.81-2.022 2.75-2.825-2.196-.856-2.204-.904-.26-1.706 1.1-.453 3.039-.856 4.309-.895 1.27-.038 2.068-.46 1.774-.936-.295-.477.354-1.672 1.441-2.655 1.087-.984 1.976-2.364 1.976-3.067 0-.702.94-1.576 2.089-1.94 1.149-.365 3.676-2.42 5.616-4.568 1.94-2.147 4.15-3.904 4.911-3.904.761 0 1.384-.365 1.384-.81 0-.446 5.223-5.958 11.607-12.25 22.437-22.115 25.616-25.487 29.069-30.833 4.251-6.584 5.492-9.669 5.51-13.701.016-3.48-3.145-10.302-5.778-12.473-.957-.788-3.314-3.908-5.239-6.933-3.442-5.408-13.318-15.565-22.169-22.8-9.918-8.106-18.961-16.137-28-24.864-18.566-17.925-20.998-19.951-43-35.815-24.791-17.876-46.338-33.065-56.5-39.828-3.3-2.196-8.25-5.844-11-8.106-2.75-2.262-8.504-6.754-12.787-9.984-4.282-3.229-12.11-9.973-17.395-14.987-15.245-14.462-50.88-43.659-68.985-56.52-5.591-3.973-12.743-9.477-15.892-12.233-3.149-2.755-8.024-6.716-10.833-8.801-2.809-2.085-9.158-7.572-14.108-12.193-4.95-4.62-13.05-11.727-18-15.791-4.95-4.065-9.45-7.883-10-8.485-.55-.601-2.575-2.298-4.5-3.771-1.925-1.474-4.85-3.882-6.5-5.352-1.65-1.471-6.37-5.44-10.488-8.822-4.119-3.381-11.362-9.973-16.098-14.648-12.372-12.215-16.996-16.39-29.914-27.007-6.325-5.199-11.725-9.716-12-10.039-.501-.587-8.309-5.915-10.857-7.409-1.025-.601-1.199-.296-.709 1.246.356 1.122.199 2.318-.35 2.657-.548.339-.743 1.277-.433 2.084 1.313 3.422-3.262 1.042-10.964-5.704-8.79-7.7-10.137-9.29-9.182-10.836.337-.546.136-.992-.446-.992-.582 0-1.059-.466-1.059-1.035 0-.695.604-.712 1.838-.052 1.011.542 2.775.739 3.919.44 1.484-.388 3.323.583 6.412 3.387 2.382 2.162 5.231 4.242 6.331 4.623 2.476.857-5.623-7.149-10.757-10.633-2.013-1.367-5.816-4.856-8.452-7.754-2.635-2.898-6.884-6.891-9.442-8.873-2.558-1.982-8.858-6.991-14-11.132-5.142-4.141-10.653-8.358-12.247-9.37-2.895-1.839-2.897-1.839-2.315.39.433 1.655.085 2.36-1.352 2.736-2.233.584-2.424 1.384-.735 3.073.933.933.922 1.2-.053 1.2-1.638 0-16.678-14.802-15.865-15.615.342-.343-.046-1.292-.864-2.11-1.144-1.143-1.22-1.809-.33-2.881 1.666-2.008 2.654-1.767 7.064 1.727 6.398 5.067 5.377 2.682-1.371-3.202-3.418-2.98-13.923-13.069-23.344-22.419-17.009-16.879-22.951-22.289-35.437-32.262-20.062-16.024-28.596-21.691-32.248-21.415-1.902.144-3.856-.808-6.35-3.093-2.929-2.685-3.602-4.014-3.602-7.115 0-3.647-1.077-4.893-24.65-28.515-21.856-21.901-29.333-28.972-44.65-42.226-7.06-6.108-19.915-16.453-22.75-18.306-1.513-.989-2.75-2.209-2.75-2.71 0-1.528 9.346-9.837 11.795-10.488 1.263-.335 3.317-2.112 4.564-3.948 1.248-1.836 7.456-8.87 13.796-15.63 6.341-6.761 14.83-15.892 18.866-20.292 4.035-4.4 10.52-11.15 14.411-15 3.89-3.85 8.318-8.836 9.84-11.081 2.914-4.3 8.728-10.321 8.728-9.04 0 .414-.494 1.675-1.097 2.802-.865 1.617-.812 1.962.25 1.634.741-.228 2.42-2.641 3.731-5.361 3.063-6.355 25.986-29.908 31.616-32.485 4.717-2.159 7.616-4.442 15.605-12.282 4.385-4.304 6.417-5.656 7.828-5.208 1.464.465 4.431-1.892 12.824-10.187 6.005-5.936 12.427-13.042 14.27-15.792s4.631-6.613 6.197-8.586c1.565-1.972 3.285-5.173 3.821-7.114 1.11-4.022 5.469-9.218 6.959-8.297.548.338 1.007.026 1.021-.694.014-.72 2.484-3.559 5.489-6.309 8.829-8.079 12.746-11.902 16.856-16.448 2.265-2.506 4.142-3.842 4.525-3.222.392.634 2.353-.556 4.88-2.96 2.324-2.211 4.225-3.751 4.225-3.422 0 .329 1.152-.157 2.56-1.079 1.966-1.289 2.256-1.888 1.25-2.589-.887-.616-.608-.715.86-.303 1.577.441 2.877-.154 4.75-2.175 1.419-1.53 2.58-3.124 2.58-3.542 0-.418.449-.76.998-.76 1.582 0 11.002-7.073 11.002-8.26 0-.591.282-.791.627-.447 1.439 1.44 6.708-2.778 10.105-8.088 3.462-5.412 34.376-37.025 46.651-47.705 7.822-6.807 15.745-16.074 16.05-18.776.421-3.718 7.288-13.438 10.697-15.139 3.94-1.966 3.788-1.986 3.16.415-.288 1.1-.921 2-1.407 2-.485 0-.883.488-.883 1.085s-1.581 2.485-3.513 4.196c-1.932 1.711-4.244 4.26-5.138 5.665l-1.624 2.554 2.887-2.608c1.589-1.435 4.351-3.445 6.139-4.467 1.788-1.022 3.5-2.639 3.803-3.595.303-.955 2.89-3.435 5.749-5.511 2.858-2.076 5.647-4.303 6.197-4.95.55-.647 4.375-4.045 8.5-7.552 10.44-8.875 12.044-10.321 20.872-18.817 4.286-4.125 10.177-9.525 13.093-12 2.915-2.475 6.885-6.068 8.821-7.985 1.937-1.916 4.415-3.941 5.506-4.5 1.091-.558 1.934-1.465 1.872-2.015-.147-1.326 11.955-13.5 13.421-13.5.629 0 2.39-1.8 3.915-4s3.095-4 3.49-4 3.821-3.054 7.614-6.787c3.793-3.732 10.046-9.343 13.896-12.469 3.85-3.125 7.9-6.658 9-7.852 1.1-1.193 2.9-3.018 4-4.054 28.871-27.207 58.5-56.533 58.5-57.902 0-.476.808-1.298 1.796-1.827 1.92-1.027 18.204-16.875 18.204-17.716 0-.942 5.495-6.084 13-12.165 4.125-3.342 11.775-10.205 17-15.252 22.496-21.729 26.964-25.905 35.304-32.993 14.636-12.44 17.104-13.846 17.968-10.233.381 1.592.494 1.575 1.253-.19.544-1.263.423-2.077-.345-2.333-.649-.217-1.18-.899-1.18-1.516 0-1.149 10.768-12.009 14.586-14.711 9.432-6.675 53.974-50.922 59.187-58.796 9.164-13.84 10.97-19.888 7.227-24.204-1.1-1.268-2-2.912-2-3.653 0-.741-.415-1.347-.923-1.347-1.937 0-7.215-5.394-8.681-8.87-1.41-3.346-1.38-4.021.385-8.63 4.791-12.511 5.338-17.34 2.613-23.083-1.847-3.892-6.944-7.417-10.723-7.417-1.426 0-3.172-.71-3.882-1.578-.709-.868-2.526-2.959-4.039-4.648-1.513-1.689-2.75-3.663-2.75-4.388 0-.724-1.25-2.795-2.779-4.601-3.595-4.25-8.221-11.149-8.221-12.26 0-.477-.787-1.732-1.75-2.788-1.936-2.124-5.568-8.16-10.303-17.119-1.71-3.235-4.76-8.037-6.778-10.671-2.018-2.635-4.794-6.694-6.169-9.021-1.375-2.327-7.562-9.275-13.749-15.439-6.186-6.165-12.616-12.959-14.288-15.098a235.035 235.035 0 0 0-6.065-7.389c-7.1-8.212-9.924-12.383-10.94-16.156C1007.04 58.721 997.554 45 994.547 45c-.583 0-3.982-2.758-7.554-6.128-8.956-8.452-12.151-9.702-20.018-7.834M135 59.441c0 1.407.45 2.559 1 2.559s1-.873 1-1.941-.45-2.219-1-2.559c-.567-.351-1 .49-1 1.941M67.2 61.2c-.719.719-1.2 4.193-1.2 8.667 0 8.801.738 9.203 1.139.62.154-3.293.913-7 1.686-8.237 1.486-2.379.404-3.079-1.625-1.05m41.55 7.371c-.412.419-.75 2.127-.75 3.796 0 2.169.307 2.726 1.078 1.955.593-.593.931-2.301.75-3.796-.18-1.495-.666-2.375-1.078-1.955m8.889 12.927c-.351.916-.587 3.766-.523 6.334.064 2.567.332 3.768.597 2.668.265-1.1.887-2.427 1.384-2.95 1.13-1.189 1.145-4.62.027-6.384-.675-1.064-.975-.997-1.485.332M68.343 551.5c.003 4.4.179 6.076.39 3.724.212-2.352.209-5.952-.006-8s-.388-.124-.384 4.276m-1.057 43c.008 2.75.202 3.756.432 2.236.229-1.52.223-3.77-.014-5-.237-1.23-.425.014-.418 2.764m187.966 35c.011 2.2.216 2.982.455 1.738.239-1.244.23-3.044-.02-4s-.446.062-.435 2.262M254 694c0 1.65.375 3 .833 3 .459 0 .834-1.35.834-3s-.375-3-.834-3c-.458 0-.833 1.35-.833 3m-127.75 2.662c-.687.278-1.25.917-1.25 1.421 0 1.451 2.631 1.067 4-.583 1.004-1.21.98-1.485-.128-1.421-.754.043-1.934.306-2.622.583M58.343 1070.5c.003 4.4.179 6.076.39 3.724.212-2.352.209-5.952-.006-8s-.388-.124-.384 4.276m.466 110.502c-.17 6.601.028 12.001.441 12 .413-.001.75-5.402.75-12.002 0-6.6-.199-12-.441-12-.243 0-.58 5.401-.75 12.002M348 1194.656c0 .36 1.202 2.273 2.672 4.25a737.832 737.832 0 0 1 2.882 3.893c.385.546 5.447-1.005 5.407-1.657-.021-.353-2.028-2.105-4.458-3.892-4.22-3.103-6.503-4.014-6.503-2.594m-289.363 4.122c-.662 1.072-1.02 32.172-.377 32.815.241.241.754-7.046 1.14-16.193.667-15.788.532-18.718-.763-16.622m690.092 35.47c1.394 5.785 10.049 10.378 11.658 6.187.448-1.168.137-1.419-1.226-.986-1.144.363-2.542-.213-3.743-1.543-1.055-1.167-3.114-2.974-4.575-4.016l-2.657-1.894.543 2.252m-190.258 36.705c.324.525 2.038 1.954 3.809 3.177l3.22 2.222-3-3.148c-2.816-2.956-5.334-4.362-4.029-2.251M58 1289.667c0 1.466.309 2.357.687 1.979 1.006-1.005 1.12-4.646.146-4.646-.458 0-.833 1.2-.833 2.667m282.731 99.885c-.317 1.621-.177 3.361.313 3.865 1.359 1.4 2.159-1.693 1.147-4.431-.877-2.368-.886-2.365-1.46.566m-.731 46.889c0 .793.45 1.719 1 2.059.55.34 1-.309 1-1.441 0-1.132-.45-2.059-1-2.059s-1 .648-1 1.441m528.022 171.309c.012.412 2.296 2.201 5.075 3.974 5.865 3.742 6.14 2.091.323-1.941-4.047-2.805-5.436-3.328-5.398-2.033m-12.559 31.31c-.906 1.467 2.126 4.601 5.634 5.824 3.577 1.247 3.896-.213.653-2.991-3.727-3.191-5.556-4.016-6.287-2.833m159.755 5.094c.519 1.558 2.756 1.83 2.835.346.029-.55-.698-1.155-1.615-1.346-1.043-.215-1.5.159-1.22 1m-44.691 60.18c2.758 1.865 5.473 2.755 5.473 1.795 0-.905-4.455-3.129-6.27-3.129-.646 0-.287.6.797 1.334M960 1714.893c0 .962 2.432 2.127 4.332 2.075.642-.017.294-.692-.773-1.5-2.204-1.667-3.559-1.886-3.559-.575" fill-rule="evenodd"/></svg>