<svg xmlns="http://www.w3.org/2000/svg" width="1240" height="1753"><path d="M274 52.11c-2.721 1.195-16.186 1.969-34.47 1.981-4.127.003-7.258.469-7.674 1.142-.508.821-1.073.837-2.03.056-1.515-1.238-11.699-2.152-12.077-1.084-.137.387-1.711-.006-3.497-.874-2.382-1.158-3.598-1.288-4.561-.49-.784.651-6.316 1.107-13.752 1.134-16.968.061-17.062.077-18.772 3.057-1.28 2.23-2.081 2.563-5.581 2.325-8.654-.589-15.133-1.586-16.247-2.501-.745-.611-1.393-.577-1.809.095-.97 1.57-10.077 1.299-11.437-.339-1.187-1.431-2.614-1.254-11.593 1.433-2.524.755-6.745.967-11.442.573-6.877-.578-7.635-.447-10 1.729-3.189 2.934-10.066 5.651-14.328 5.66-1.777.003-4.58.9-6.23 1.993-1.65 1.093-3.786 1.99-4.747 1.993-.961.004-3.491 1.582-5.621 3.507-2.131 1.925-4.64 3.5-5.575 3.5-3.511 0-6.985 5.886-7.968 13.5-.355 2.75-.832 14.212-1.061 25.472-.316 15.589-.736 20.717-1.76 21.5-1.56 1.192-4.327 10.378-5.73 19.028-.536 3.3-1.219 13.2-1.52 22-.3 8.8-.76 20.95-1.021 27-.262 6.05-.738 20.225-1.059 31.5-.321 11.275-.894 27.25-1.273 35.5-.698 15.171-.258 29.489 1.829 59.5.631 9.075 1.313 33.936 1.516 55.247.202 21.311.647 39.198.988 39.75.341.552.143 1.003-.439 1.003-1.373 0-1.243 24.769.144 27.371.679 1.274.667 1.667-.038 1.231-.689-.426-1.053 3.29-1.09 11.129-.03 6.473-.308 18.294-.617 26.269-1.219 31.458-1.418 41.57-1.934 98.5-.294 32.45-.98 74.75-1.525 94-1.333 47.143-1.518 69.528-1.161 141 .133 26.621.005 153.326-.247 245-.097 35.152 1.432 185.66 1.895 186.5.464.843 1.754 96.528 2.036 151 .241 46.515.792 66.823 2.048 75.5.239 1.65.424 19.59.411 39.866-.013 20.276.439 40.526 1.006 45 .566 4.474 1.726 14.659 2.578 22.634.852 7.975 1.993 16.3 2.535 18.5.759 3.078.502 6.765-1.116 16-4.149 23.686-4.429 30.531-1.877 46 .544 3.3 1.385 8.6 1.869 11.778 1.166 7.653 3.801 14.619 6.749 17.84 1.318 1.44 5.945 4.456 10.282 6.703 8.366 4.335 10.661 4.744 31.493 5.612 4.95.206 10.287.875 11.859 1.487 1.7.662 5.348.866 9 .504 3.828-.38 7.271-.162 9.141.579 7.757 3.073 14.737 4.271 26.105 4.479 13.072.239 15.668.861 12.705 3.043-1.719 1.265-1.722 1.366-.047 2.016 2.729 1.058 9.422.89 18.737-.47 6.201-.905 14.044-1.016 29-.412 11.275.456 22.75.783 25.5.728 28.291-.569 87.114.2 106 1.385 9.209.578 35.949.775 63 .464 43.822-.503 86.204-.583 172-.322 19.25.058 45.8.775 59 1.593 37.959 2.351 65.531 3.523 68.045 2.892 1.273-.319 8.084-.043 15.135.614 47.107 4.388 49.39 4.503 72.82 3.652 12.65-.459 32-.684 43-.5 27.69.464 52.417.15 98.5-1.251 21.725-.66 53.675-1.287 71-1.392 32.108-.196 47.61-1.025 49.628-2.654 1.174-.947 9.592-1.923 34.633-4.014 16.472-1.376 29.369-.265 37.098 3.195 4.544 2.035 6.427 1.289 4.734-1.876-1.655-3.091-1.491-3.213 4.157-3.088 2.888.063 10.517-.541 16.956-1.342 10.567-1.316 12.04-1.752 15.153-4.485 1.896-1.665 3.945-3.193 4.554-3.396.609-.203 1.307-1.409 1.552-2.682.432-2.243.288-2.293-4.812-1.656-4.108.513-5.538.319-6.542-.89-.706-.85-1.022-1.969-.703-2.485.798-1.291-1.806-2.149-6.52-2.149h-3.948l2.12-2.868c1.167-1.577 4.036-3.825 6.378-4.994 7.25-3.621 9.562-6.403 9.562-11.507 0-2.455-.478-4.624-1.062-4.818-.734-.245-.751-1.175-.055-3.006.771-2.028.671-2.932-.426-3.843-.789-.655-1.22-1.539-.957-1.964 1.058-1.712-2.225-3.055-4.943-2.021-4.219 1.603-4.407 1.118-.389-1.005 3.37-1.78 7.86-7.974 5.78-7.974-.494 0-.608-1.463-.254-3.25.584-2.948.488-3.122-1.025-1.878-.918.755-1.669.916-1.669.357 0-.558.675-1.274 1.5-1.591 1.819-.698 1.981-3.276.25-3.979-.941-.381-.879-.769.25-1.568 1.166-.824 1.198-1.064.143-1.076-.902-.01-1.112-.602-.627-1.765 1.039-2.493 1.243-12.281.268-12.883-.449-.278-.566-.911-.259-1.407.306-.496-.599-1.191-2.011-1.546-1.727-.433-2.276-1.016-1.677-1.779.49-.624.898-1.81.908-2.635.009-.825.344-2.287.743-3.25.467-1.126.276-1.75-.536-1.75-.821 0-.61-.72.603-2.061 1.497-1.653 1.602-2.224.531-2.886-1.429-.883-1.944-10.173-.985-17.781.292-2.325.137-4.359-.347-4.521-.49-.163-.448-1.425.095-2.855.536-1.409 1.244-4.325 1.573-6.479.333-2.187 1.529-4.693 2.706-5.673 1.63-1.357 1.85-2.065.973-3.123-.625-.752-.855-2.1-.511-2.994.405-1.057.098-1.627-.876-1.627-1.592 0-2.985-2.396-1.978-3.402.328-.329 1.925-.598 3.547-.598 2.669 0 2.901-.258 2.432-2.712-.308-1.61.014-3.133.793-3.75 1.76-1.392 3.102-11.538 1.527-11.538-.634 0-.894-.419-.578-.931.317-.512.138-1.201-.397-1.532-.535-.331-.719-1.262-.409-2.069.382-.996-.095-1.468-1.485-1.468-1.126 0-2.323-.445-2.659-.989-.35-.566.051-.734.941-.393.854.328 1.552.112 1.552-.48 0-.591.675-.816 1.5-.5.825.317 1.5.078 1.5-.531 0-1.044-1.417-1.542-3.373-1.185-.48.088-.604-.539-.276-1.393.474-1.236.039-1.448-2.128-1.035-1.497.285-2.142.247-1.431-.085.991-.463 1.021-.929.127-2.006-.902-1.088-.856-1.406.209-1.418 1.113-.013 1.099-.188-.071-.929-1.145-.724-1.212-1.419-.327-3.362.613-1.347.758-2.841.322-3.321-.437-.48-1.085-2.11-1.442-3.623-.506-2.146-.288-2.75.993-2.75 1.303 0 1.399-.292.466-1.416-.933-1.125-.803-1.513.628-1.884 1.284-.333 1.363-.501.277-.584-2.519-.191-1.326-8.031 1.388-9.126 1.712-.691 1.79-.876.388-.927-1.292-.046-1.754-.914-1.764-3.313-.019-4.629-1.04-7.835-2.254-7.084-.604.373-.742.159-.327-.511.392-.635 1.56-1.155 2.595-1.155 1.035 0 2.16-.45 2.5-1 .34-.55-.335-1-1.5-1-1.217 0-1.843-.444-1.473-1.044.355-.574.106-1.693-.553-2.487s-.942-2.11-.63-2.924c.313-.815.138-1.747-.388-2.072-2.987-1.846 2.33-4.601 7.583-3.928 4.985.638 7.445-.775 4.046-2.324-1.572-.717-2.736-.785-3.108-.183-.327.529-1.045.962-1.595.962s-.722-.45-.382-1c.873-1.412-.855-1.245-2.325.225-.967.967-1.67.947-3.334-.092-1.621-1.013-2.28-1.04-2.85-.118-.531.859-.935.885-1.425.092-.376-.609-1.782-1.107-3.125-1.107s-2.441-.414-2.441-.921c0-1.216-5.034-2.272-11.977-2.513-3.087-.107-6.158-.532-6.826-.944-.763-.472-1.559.109-2.142 1.564-.694 1.73-.944 1.872-.992.564-.045-1.26-.973-1.795-3.313-1.91a787.52 787.52 0 0 1-9.25-.545c-3.3-.212-9.914-.446-14.698-.52-5.36-.083-8.466-.509-8.095-1.11.331-.535.108-.668-.497-.295-.604.374-4.161.009-7.904-.811-3.743-.819-7.931-1.53-9.306-1.58-1.375-.05-5.65-.269-9.5-.487-3.85-.218-11.725-.531-17.5-.694-5.775-.164-10.831-.748-11.235-1.298-.472-.643-.74-.604-.75.111-.009.703-2.598 1.126-7.058 1.154-6.068.038-6.876-.158-5.831-1.417 1.015-1.223.818-1.406-1.206-1.119-1.331.189-3.24.813-4.243 1.387-1.121.643-3.621.748-6.5.274-2.572-.424-8.393-.798-12.936-.83-7.543-.055-8.617-.32-12.404-3.063-5.155-3.734-10.053-5.091-18.649-5.166-10.801-.093-29.901 1.207-40.953 2.787-5.703.816-20.812 1.646-34 1.868-13.054.22-30.935.652-39.735.96-8.8.309-23.2.222-32-.192-8.8-.415-20.05-.397-25 .04-22.607 1.995-120.912.401-138.5-2.245-3.025-.455-21.925-.841-42-.858-36.709-.032-59.047-.663-63.563-1.796-1.34-.337-2.437-.226-2.436.247.001.474-10.393.524-23.25.111-12.788-.411-29.667-.572-37.509-.359-8.516.232-14.499 0-14.855-.576-.359-.582-9.371-.882-22.741-.756-12.18.115-35.789-.145-52.464-.578-21.972-.57-35.691-.425-49.84.527-16.738 1.126-19.663 1.112-20.499-.099-.627-.908-.702-19.277-.212-51.412.42-27.5.782-72.5.805-100 .025-30.561.412-50.264.996-50.678.6-.427.566-1.54-.092-3-.576-1.277-1.131-7.343-1.233-13.48-.103-6.137-.419-12.212-.702-13.5-.284-1.288-.704-12.917-.934-25.842-.697-39.236-1.415-62.277-1.957-62.819-.283-.283-.553 3.273-.6 7.902-.157 15.377-1.952 3.918-2.441-15.583-.248-9.9-.704-20.925-1.014-24.5-.985-11.368-1.248-104.343-.31-109.525 1.11-6.134 1.111-5.333-.025-14.999-1.283-10.922-1.531-52.779-.484-81.976 1.04-29.033 1.052-44.656.054-75.5-.794-24.528-1.084-28.947-2.664-40.5-2.938-21.487-4.158-49.921-4.341-101.122-.155-43.601.054-53.349 1.167-54.388.897-.838 1.162-2.487.783-4.878-.315-1.987-.917-25.662-1.337-52.612-.695-44.585-.686-71.426.042-123 .14-9.9-.003-23.85-.318-31-.399-9.063-.199-14.106.662-16.653 2.033-6.014 3.437-57.875 2.04-75.347-.352-4.4-1.291-12.725-2.088-18.5-.796-5.775-1.5-13.811-1.564-17.858-.063-4.047-1.033-11.594-2.155-16.771-1.763-8.139-2.088-13.847-2.401-42.143-.391-35.326-.974-47.708-2.645-56.108-1.041-5.233.004-17.169 2.117-24.181.425-1.408 1.3-7.483 1.946-13.5.645-6.016 1.598-13.111 2.118-15.765 2.335-11.933 1.052-18.127-6.084-29.378-1.634-2.578-2.972-5.467-2.972-6.42 0-.953-.606-2.339-1.346-3.079-1.441-1.441-4.081-6.857-5.143-10.551-.357-1.239-2.763-4.425-5.348-7.078-4.733-4.86-8.396-6.468-14.854-6.522-1.755-.015-2.966-.391-2.691-.837.275-.445-.989-.813-2.809-.818-1.82-.004-5.559-.227-8.309-.494-2.75-.267-6.125.009-7.5.613M58.75 84.08c-.962.561-1.75 1.479-1.75 2.041 0 .562-.675 1.697-1.5 2.522-.825.825-1.5 2.593-1.5 3.928 0 1.492.578 2.429 1.5 2.429.825 0 1.5.653 1.5 1.451 0 3.305 2.231 11.524 2.999 11.05.457-.283 1.049.052 1.316.743.268.691.518-4.707.555-11.994.038-7.287-.255-13.236-.651-13.22-.395.017-1.507.489-2.469 1.05M323.272 185c0 2.475.195 3.488.434 2.25.238-1.238.238-3.262 0-4.5-.239-1.238-.434-.225-.434 2.25m-.172 9.55.101 4.95.921-3.929c.602-2.567.567-4.282-.101-4.95-.695-.695-.989.56-.921 3.929m-.386 228.063c-1.387 1.398-.715 34.281.718 35.135 1.552.926 2.836 6.991 1.573 7.432-.554.193-.548 1.902.015 4.32.513 2.2.943 5.489.956 7.309.034 4.693 1.661 3.097 2.492-2.444 1.148-7.658 1.495-23.432.555-25.209-.483-.911-1.221-2.556-1.641-3.656-.598-1.566-.905-1.023-1.418 2.5-.563 3.877-.665 3.461-.737-3-.116-10.413-1.567-23.341-2.513-22.387M292.071 678.25c-.046 103 .276 159.78.913 160.75.649.988.991-53.354 1.001-159.25.009-98.213-.346-160.75-.913-160.75-.567 0-.956 62.023-1.001 159.25m25.944 14.5c.008 2.063.618 5.482 1.355 7.599l1.34 3.849.638-3.186c.696-3.484-1.055-12.012-2.467-12.012-.484 0-.874 1.688-.866 3.75m-10.188 2.756c-.843.843.205 4.494 1.29 4.494 1.02 0 1.027-.778.031-3.302-.391-.991-.985-1.528-1.321-1.192m19.58 17.007c-.802 3.197.765 13.719 2.109 14.163.636.209 1.011-2.848 1-8.169-.011-6.056-.37-8.504-1.247-8.505-.677-.001-1.515 1.129-1.862 2.511M75.141 749c0 1.375.386 3.4.859 4.5.783 1.823.859 1.779.859-.5 0-1.375-.386-3.4-.859-4.5-.783-1.823-.859-1.779-.859.5m1.244 37.439c-.304.792-.078 2.254.501 3.25.895 1.539 1.058 1.323 1.084-1.439.032-3.428-.661-4.22-1.585-1.811m25.867 41.061c.011 2.2.216 2.982.455 1.738.239-1.244.23-3.044-.02-4s-.446.062-.435 2.262m946.852 649.895c.333.356 3.37.686 6.75.733 3.38.048 6.147.376 6.148.729 0 .354 3.9.755 8.665.892 4.765.137 8.327-.088 7.915-.5-.907-.908-1.78-.999-17.582-1.838-6.875-.365-12.228-.372-11.896-.016M1113.5 1479c.352.569-.509 1-2 1-4.487 0-1.869 1.607 3.032 1.861 3.046.158 4.425-.122 3.999-.81-.357-.578-1.297-1.051-2.09-1.051-.793 0-1.441-.45-1.441-1s-.477-1-1.059-1-.781.45-.441 1m-18.625 1.098c-.924.586-.145.876 2.375.887 2.063.008 3.75-.323 3.749-.735-.001-1.074-4.492-1.185-6.124-.152m8.104-.085c-.87.538-.573.981.99 1.477 1.228.39 2.667.274 3.198-.257 1.23-1.23-2.442-2.299-4.188-1.22m71.521 166.042-4 1.988 3.5-.22c3.602-.225 6-1.403 6-2.945 0-1.27-1.009-1.054-5.5 1.177m-31.75 23.668c1.787.222 4.713.222 6.5 0 1.787-.221.325-.403-3.25-.403s-5.037.182-3.25.403M136 1724.936c-8.209.545-8.384.607-5.101 1.814 3.888 1.43 13.926 1.647 15.979.346 1.551-.982.647-3.197-1.187-2.91-.655.103-5.016.44-9.691.75" fill-rule="evenodd"/></svg>