<svg xmlns="http://www.w3.org/2000/svg" width="1240" height="1753"><path d="M992.597 422.744c-1.596.23-3.541 1.057-4.321 1.837-.873.873-3.485 1.419-6.788 1.419-2.954 0-5.616.398-5.917.885-.3.486-2.525 1.181-4.943 1.544-2.418.362-6.811 1.577-9.762 2.699-2.951 1.123-6.154 2.28-7.116 2.573-.962.293-1.75.874-1.75 1.292 0 .417-4.059 1.547-9.02 2.511-4.961.964-9.254 2.131-9.54 2.594-.286.463-3.765 1.774-7.73 2.914-7.907 2.274-14.91 5.019-15.745 6.171-.502.693-12.584 4.776-14.215 4.804-.413.007-.75-.826-.75-1.852 0-1.745-.558-1.682-8.671.976-8.617 2.824-12.224 2.926-14.316.405-.866-1.043-2.159-.945-6.791.517-7.021 2.216-13.552 4.94-14.222 5.932-.275.407-2.858 1.516-5.74 2.464-5.192 1.709-6.416 3.101-8.61 9.791-.651 1.986-5.86 3.65-6.395 2.044-.42-1.259-4.255-.438-4.255.912 0 .518-.45.664-1 .324s-1 .084-1 .941c0 1.863-1.624 2.078-2.338.309-.382-.949-.523-.956-.583-.031-.043.67-.754.959-1.579.643-.825-.317-1.5-.176-1.5.313 0 1.286-5.069 1.512-6.54.291-1.429-1.185-4.46 1.234-4.46 3.559 0 1.218-1.934 2.342-9.5 5.519-1.1.462-3.462 1.126-5.249 1.477-2.704.531-3.147.371-2.639-.953.453-1.18.18-1.425-1.058-.95-.918.352-1.432 1.257-1.143 2.011.289.754.09 1.371-.442 1.371-.533 0-.976-.562-.984-1.25-.008-.687-.57-.167-1.25 1.157-.713 1.39-2.925 2.983-5.235 3.77-2.2.75-5.35 1.989-7 2.754-1.65.765-6.375 2.392-10.5 3.615-4.125 1.223-8.175 2.803-9 3.511-.825.708-2.85 1.611-4.5 2.007-1.65.395-4.869 1.798-7.154 3.116-2.569 1.483-4.293 1.979-4.519 1.301-.5-1.499-3.827-.102-3.827 1.607 0 .756-1.237 1.639-2.75 1.962-7.683 1.644-14.62 5.03-19.546 9.54-3.446 3.155-21.867 10.545-23.606 9.471-.528-.327-1.272-.088-1.654.529-.492.796-.945.728-1.554-.233-.606-.958-.864-.584-.875 1.271-.019 3.357-1.378 4.434-7.528 5.966-9.022 2.247-17.999 6.348-17.855 8.157.092 1.173-2.111 2.588-7.5 4.817-8.748 3.617-12.603 5.392-16.103 7.411-1.826 1.054-2.656 1.124-3.185.269-.504-.817-4.486.265-13.529 3.674-7.048 2.658-13.04 5.145-13.315 5.528-.275.383-1.288.986-2.25 1.342-.962.355-1.75 1.109-1.75 1.677 0 .567.788 1.049 1.75 1.071.962.022-.546 1.035-3.352 2.25-2.805 1.216-5.73 2.717-6.5 3.337-.769.62-4.21 2.578-7.648 4.351-3.437 1.774-6.25 3.677-6.25 4.23 0 .553-.605.774-1.345.49-.739-.284-1.964.343-2.721 1.393-.756 1.05-2.311 1.909-3.455 1.909-1.143 0-2.629.55-3.301 1.222-.673.673-3.8 1.982-6.95 2.91-7.084 2.086-15.559 5.18-16.228 5.925-.618.688-3.414 1.698-18 6.501-6.325 2.082-11.725 4.068-12 4.412-.275.344-2.943 1.625-5.929 2.847-4.242 1.735-5.606 1.944-6.235.952-.608-.958-.809-.891-.821.274-.009.976-2.086 2.247-5.653 3.459-3.101 1.054-6.138 2.408-6.75 3.01-1.113 1.094-5.739 3.123-15.11 6.628-3.211 1.201-5.125 1.491-5.351.812-.195-.584-1.013-.25-1.826.745-.81.992-1.188 1.241-.84.553.348-.687.205-1.25-.319-1.25s-1.211.675-1.528 1.5c-.316.825-1.264 1.5-2.107 1.5-.842 0-1.531.45-1.531 1s-.805 1-1.788 1c-1.982 0-26.664 8.399-29.516 10.044-.992.572-7.472 3.016-14.399 5.43-6.927 2.415-12.866 4.815-13.196 5.333-.331.518-2.176 1.275-4.101 1.682-1.925.407-6.045 1.802-9.156 3.099-3.111 1.297-7.498 2.653-9.75 3.013-2.252.36-4.094 1.047-4.094 1.527s-1.762.872-3.917.872c-2.154 0-4.066.376-4.25.835-.183.459-7.525 2.964-16.316 5.567-8.79 2.603-16.215 5.055-16.5 5.449-.284.393-7.492 2.89-16.017 5.548-8.525 2.658-15.725 5.184-16 5.613-1.017 1.587-21.623 7.295-25.998 7.201-2.476-.052-6.302.407-8.502 1.022-2.2.615-4.337 1.039-4.75.942-.412-.098-.75.163-.75.579 0 .674-1.904 1.614-8.5 4.194-3.801 1.487-8.006 3.287-9.736 4.167-.955.486-2.836.883-4.179.883-1.343 0-3.117.675-3.942 1.5-.825.825-1.953 1.5-2.506 1.5-.554 0-2.274.525-3.822 1.166-1.548.642-3.04 1.211-3.315 1.266-.275.054-1.063.456-1.75.892-.688.437-1.25.563-1.25.28 0-.688-12.017 3.854-19.5 7.369-3.3 1.551-7.463 3.127-9.25 3.503-1.788.375-3.25 1.046-3.25 1.49 0 .444-1.98 1.104-4.4 1.467-2.421.363-5.415 1.539-6.653 2.613-1.239 1.075-3.063 1.954-4.053 1.954-1.63 0-2.935.426-9.394 3.067-1.1.449-6.05 2.016-11 3.481-4.95 1.464-9.225 2.971-9.5 3.347-.275.377-2.075 1.18-4 1.784-9.619 3.021-23.539 8.477-23.833 9.343-.184.538-.706.978-1.161.978-1.603 0-22.128 8.264-23.309 9.385C90.996 766.999 75.235 776 74.109 776c-.515 0-2.887 3.924-5.272 8.719l-4.337 8.72.036 25.076c.031 21.613.283 25.723 1.824 29.757.983 2.574 1.526 5.104 1.207 5.62-.32.517-.114 2.169.457 3.672.572 1.502 1.957 6.378 3.08 10.834 2.096 8.318 3.281 11.715 9.373 26.864 1.938 4.819 3.523 10.04 3.523 11.603 0 2.548 1.591 7.877 10.597 35.49 2.946 9.036 3.121 12.823 1.489 32.365-.654 7.821-.875 15.921-.493 18 1.258 6.841 5.233 14.035 9.918 17.951 2.469 2.064 4.489 4.332 4.489 5.041 0 1.169 1.271 1.719 3.25 1.406.412-.065.75.557.75 1.382 0 .825.508 1.5 1.128 1.5.621 0 4.036 3.038 7.591 6.75 18.706 19.54 23.486 24.049 28.881 27.24 3.245 1.919 6.731 4.243 7.746 5.164 2.972 2.695 12.531 5.789 21.154 6.847 10.795 1.325 13.731 1.99 15.5 3.512.825.709 3.525 1.841 6 2.514 2.475.673 5.85 1.801 7.5 2.507 1.65.705 5.588 1.876 8.75 2.601 3.297.757 5.75 1.863 5.75 2.592 0 1.134 2.037 1.68 5.75 1.542.688-.026 1.25.334 1.25.8 0 .465 3.232 1.809 7.183 2.985 6.224 1.854 11.075 4.096 12.817 5.924 1.313 1.378 13.895 6.619 19.331 8.053 2.658.701 5.437 1.88 6.177 2.62 1.785 1.785 16.972 7.349 20.06 7.349 1.338 0 2.432.414 2.432.921 0 .506 1.35 1.217 3 1.579 1.65.362 3 1.009 3 1.437 0 .428 3.938 1.807 8.75 3.064 17.279 4.514 25.676 7.071 26.246 7.992.674 1.091 11.062 3.55 19.004 4.498 6.49.775 14.044 3.279 15.615 5.176.613.74 3.538 2.191 6.5 3.224 7.77 2.709 19.301 7.456 19.885 8.185.775.968 4.745 2.924 5.934 2.924.586 0 1.066-.642 1.066-1.427 0-1.272-14.118-7.573-16.968-7.573-.567 0-1.032-.382-1.032-.848 0-.854-5.506-3.479-9.825-4.685-1.279-.357-2.112-.863-1.851-1.124.495-.496 7.723 1.153 11.176 2.549 3.682 1.489 8.943 3.227 16 5.287 11.579 3.378 12.33 3.755 11.77 5.895-.286 1.095.004 1.926.672 1.926.647 0 .917-.419.601-.931-.317-.512-.118-1.213.441-1.559.559-.345 1.016-.25 1.016.213 0 .462 2.05 1.446 4.555 2.185 2.506.74 5.093 1.876 5.75 2.524.657.649 3.087 2.238 5.399 3.532s4.469 3.043 4.793 3.888c.484 1.262.255 1.234-1.283-.158-2.269-2.054-3.214-2.147-3.214-.315 0 1.885 6.216 4.474 6.767 2.819.22-.659.798-1.198 1.285-1.198.487 0 .645.627.351 1.392-.363.946.958 1.962 4.118 3.169 3.916 1.496 4.788 1.557 5.512.386.698-1.13.99-1.052 1.552.415.381.993.968 1.375 1.304.848.864-1.355 5.111.409 5.111 2.122 0 2.022 8.978 5.322 9.996 3.674.571-.924 1.054-.763 1.869.624.683 1.163 1.389 1.486 1.867.856 1.203-1.588 8.226-.966 10.433.923 1.095.938 3.081 2.202 4.413 2.808 1.332.607 2.422 1.482 2.422 1.944 0 .461.653.839 1.45.839.798 0 1.81.589 2.25 1.309 1.211 1.982 6.883 3.958 9.226 3.214 1.141-.362 2.074-.25 2.074.249s1.154 1.433 2.564 2.075c1.483.676 2.301.743 1.941.161-.791-1.28 1.608-1.296 4.93-.033 1.411.537 2.565 1.61 2.565 2.385 0 1.71 10.269 5.334 10.778 3.805.229-.685 1.274-.694 3.185-.028 1.952.681 4.176.634 7.084-.15 2.332-.628 4.513-.759 4.846-.291 1.248 1.748 5.849 4.12 11.364 5.859 5.041 1.589 5.63 2.049 5.137 4.011-.313 1.247-.015 2.55.682 2.981.89.55 1.08.158.675-1.391-.337-1.29-.099-2.157.593-2.157 3.303-.004 18.428 2.299 20.156 3.069 4.793 2.135 8.238 3.043 16.795 4.427 5.661.916 9.415 2.023 9.921 2.926.447.799 6.769 3.336 14.048 5.638 7.28 2.303 13.784 4.624 14.453 5.159 1.263 1.009 24.899 8.777 26.739 8.788.574.004 2.394.711 4.044 1.572 2.294 1.197 14.682 3.353 19.614 3.414.337.005 1.687 1.062 3 2.35 2.947 2.892 6.886 4.073 6.886 2.064 0-.773-.675-1.406-1.5-1.406s-1.5-.675-1.5-1.5c0-1.77.365-1.804 5.138-.478 2.259.627 3.834 1.762 4.156 2.994.339 1.295 1.366 1.984 2.959 1.984 1.343 0 3.479.9 4.747 2 1.268 1.1 2.687 2 3.153 2 .466 0 .847.659.847 1.465 0 2.434 2.984 3.245 14.5 3.941 12.231.738 20.363 2.11 25.251 4.259 1.787.786 5.612 1.695 8.5 2.02 2.887.325 6.145 1.053 7.24 1.617 1.094.564 2.991 1.136 4.215 1.27 4.096.45 12.074 3.503 14.381 5.503 1.255 1.089 3.414 2.264 4.797 2.611 1.384.347 4.947 1.91 7.917 3.473 2.971 1.562 5.931 2.841 6.578 2.841 1.644 0 4.338 3.348 3.857 4.792-.219.658.792 1.648 2.248 2.202 3.705 1.408 4.826 1.257 4.129-.559-.474-1.236-.138-1.419 1.597-.868 2.569.815 4.79 2.838 4.79 4.362 0 1.497 3.72 1.345 4.352-.179.368-.885 1.049-.656 2.334.784.998 1.118 3.389 2.672 5.314 3.453 1.925.781 3.994 2.072 4.598 2.868.785 1.037 2.279 1.291 5.25.892 2.501-.335 4.152-.154 4.152.455 0 .557.675.753 1.5.436.825-.316 1.5-.222 1.5.211 0 .432 2.587 1.575 5.75 2.539 13.497 4.116 24.889 7.745 26.75 8.52 3.818 1.591 19.702 5.085 20.599 4.531.495-.306.901-.108.901.44s.788.986 1.75.973c.962-.014 2.763.292 4 .678 1.304.408 2.25.282 2.25-.298 0-1.462-4.946-4.467-6.421-3.901-.693.266-1.895.082-2.67-.408-2.121-1.343 2.662-1.139 8.091.346 5.637 1.542 14.998 6.823 14.999 8.462.001.677 1.238 1.511 2.751 1.854 1.513.343 5.225 1.203 8.25 1.91 3.025.707 9.55 2.035 14.5 2.951 4.95.916 10.46 2.118 12.244 2.672 1.784.554 3.659.751 4.165.438.506-.312 1.071-.194 1.256.263.679 1.684 41.923 6.633 55.48 6.657l13.145.024 7.605-7.73c4.183-4.252 7.605-8.38 7.605-9.173 0-.794 1.063-2.716 2.363-4.27 1.957-2.341 3.252-4.924 4.174-8.327.075-.275.4-1.175.723-2 2.276-5.807 5.74-22.298 5.74-27.324 0-2.579 5.44-24.731 9.988-40.676a771.254 771.254 0 0 0 3.049-11c.657-2.475 1.575-5.625 2.04-7 .464-1.375 1.352-5.425 1.972-9 .619-3.575 1.576-7.043 2.125-7.706.549-.664.708-1.676.353-2.25-.355-.574-.168-1.044.414-1.044s1.059-1.654 1.059-3.675 1.077-6.858 2.393-10.75c4.155-12.287 10.218-35.507 13.596-52.075 1.01-4.95 2.325-10.267 2.923-11.815.599-1.548 1.088-4.334 1.088-6.191 0-1.857.45-3.654 1-3.994 1.196-.739 1.373-22.5.183-22.5-1.582 0-4.51-11.579-4.679-18.5-.184-7.594-1.529-10.735-5.339-12.471-1.344-.612-3.278-2.174-4.299-3.472-1.159-1.474-4.39-3.112-8.611-4.366-8.499-2.526-13.481-3.646-14.718-3.31-1.201.326-10.079-3.649-13.845-6.198-1.544-1.046-3.035-1.674-3.313-1.396-.277.278-4.325-1.035-8.994-2.918-4.669-1.882-8.874-3.185-9.345-2.894-.47.291-1.909.107-3.198-.41-1.733-.694-1.887-.955-.592-1.002.963-.034 1.75-.645 1.75-1.356 0-1.522-8.221-3.967-9.016-2.681-.887 1.436-11.347.176-16.352-1.97-2.562-1.098-4.989-2.067-5.395-2.153-2.687-.574-3.153-1.191-2.219-2.937.54-1.009.982-2.027.982-2.263 0-.236-2.812-.663-6.25-.95-3.859-.321-8.15-1.493-11.217-3.062-2.731-1.398-5.319-2.323-5.75-2.057-.431.266-.783.099-.783-.371 0-.471-2.812-.875-6.25-.898-3.437-.024-8.476-.188-11.196-.365-3.218-.21-5.087.098-5.347.88-.305.913-.737.925-1.79.051-.764-.634-2.971-.968-4.903-.743-2.426.283-3.514.008-3.514-.889 0-1.925-5.044-1.586-6.714.451-.789.962-1.172 1.224-.851.581.35-.703-.818-1.632-2.926-2.328-1.93-.637-3.509-1.522-3.509-1.967 0-1.17-6.329-1.982-7.426-.952-.559.524-.2 1.672.905 2.892 1.775 1.962 1.775 2.024-.008 2.024-1.012 0-3.735-.918-6.051-2.039-3.259-1.577-4.098-2.475-3.709-3.965.388-1.482-.385-2.328-3.354-3.671-2.121-.96-4.54-2.301-5.375-2.98-.835-.679-3.025-1.5-4.867-1.825-1.842-.324-4.759-1.357-6.482-2.294-1.723-.937-3.583-1.739-4.133-1.782-3.849-.304-16.79-2.834-20.5-4.008-2.475-.783-5.915-1.587-7.644-1.786-4.139-.478-9.66-4.414-8.915-6.356.312-.814.839-2.563 1.172-3.887.573-2.284.366-2.407-4.037-2.407-2.552 0-6.256-.675-8.23-1.5-1.975-.825-5.11-1.5-6.968-1.5-1.858 0-3.378-.357-3.378-.793 0-.437-1.687-1.307-3.75-1.934-17.161-5.217-24.517-7.108-25.776-6.625-.823.316-1.474.003-1.474-.708 0-.7-.266-1.008-.59-.683-.325.325-2.356-.032-4.514-.794-2.158-.761-4.15-1.368-4.427-1.348-1.292.094-7.078-1.428-7.969-2.095-.55-.412-5.05-1.967-10-3.456-4.95-1.489-9.675-3.119-10.5-3.622-4.731-2.884-14.814-7.05-24-9.916-5.775-1.801-10.95-3.619-11.5-4.04-.55-.42-7.75-2.934-16-5.586s-15.225-5.103-15.5-5.447c-.275-.343-6.575-2.536-14-4.872s-14.555-4.923-15.844-5.749c-2.403-1.539-15.352-6.243-25.156-9.137-3.025-.894-6.095-2.203-6.821-2.91-.727-.707-1.809-1.285-2.405-1.285-2.784 0 7.595-7.847 20.889-15.794 2.11-1.261 5.326-3.594 7.146-5.183 3.94-3.44 7.311-4.323 13.624-3.565 4.181.502 5.426.129 11.615-3.486 3.812-2.226 8.073-5.106 9.469-6.4 1.396-1.294 3.988-2.942 5.76-3.662 1.773-.721 5.362-2.799 7.976-4.619 2.614-1.82 9.362-5.146 14.996-7.39 5.635-2.245 10.471-4.407 10.748-4.805.73-1.051 24.302-10.096 26.309-10.096.932 0 1.694-.379 1.694-.842 0-1.073 7.751-3.43 8.916-2.71.481.297 1.099-.044 1.373-.759.274-.714 2.459-1.915 4.855-2.668 2.396-.753 4.783-1.741 5.306-2.195.522-.454 1.837-.826 2.921-.826 1.084 0 2.785-.736 3.779-1.635.994-.9 3.476-1.82 5.515-2.045 2.196-.242 4.267-1.206 5.078-2.364.852-1.216 2.527-1.956 4.428-1.956 2.801 0 10.536-3.429 11.905-5.278.317-.428 5.246-2.558 10.952-4.733 6.943-2.646 10.598-3.594 11.049-2.865.931 1.507 6.906.083 7.636-1.819.318-.829.037-1.842-.625-2.251-.721-.445 1.127-1.464 4.604-2.539 3.194-.987 7.063-2.428 8.597-3.201 2.282-1.15 25.25-7.314 27.254-7.314.316 0 .297.45-.043 1-.34.55.084 1 .941 1s1.559-.477 1.559-1.059.45-.781 1-.441 1 .251 1-.198c0-1.035 5.657-2.793 14-4.352 10.023-1.872 27.272-5.914 29.5-6.912 1.1-.493 6.95-2.267 13-3.942 11.709-3.241 16.48-5.094 16.492-6.405.004-.445.458-.531 1.008-.191s1 .172 1-.374c0-.545.902-1.278 2.005-1.628 1.103-.35 3.372-1.786 5.042-3.191 1.669-1.405 2.904-2.161 2.744-1.681-.16.481.152.874.693.874.541 0 .868-.678.728-1.507-.159-.935 1.984-2.738 5.643-4.75 6.129-3.37 8.404-4.102 6.345-2.043-1.704 1.704-1.486 3.8.396 3.8 1.535 0 7.306-3.55 8.467-5.208.309-.442 3.15-1.478 6.313-2.302 3.162-.823 7.722-2.396 10.132-3.494 2.41-1.098 5.082-1.996 5.937-1.996.855 0 1.555-.45 1.555-1s.338-.929.75-.841c.412.087 1.425-.113 2.25-.446 3.275-1.319 20.157-6.709 20.807-6.643.381.039-1.782 1.071-4.807 2.292-3.025 1.222-7.975 3.432-11 4.913-3.025 1.48-7.412 3.166-9.75 3.747-2.58.64-4.25 1.629-4.25 2.517 0 .803.4 1.461.888 1.461 1.782 0 18.58-5.143 19.621-6.008.59-.489 3.236-1.375 5.88-1.967 4.822-1.081 16.516-7.375 19.939-10.732 1.55-1.52 1.596-1.841.302-2.106-.839-.173-2.487.201-3.663.831-1.176.629-2.352.93-2.613.669-.262-.261 1.689-1.284 4.335-2.272 5.484-2.048 10.174-5.325 10.256-7.165.03-.687.429-1.25.886-1.25 1.684 0 3.532-4.858 2.377-6.249-.697-.84-.757-1.85-.166-2.785 1.323-2.092 1.187-4.225-.215-3.359-.645.399-.42-.35.5-1.664 2.3-3.283 2.153-5.943-.327-5.943-1.178 0-2-.667-2-1.622 0-1.289-.292-1.38-1.421-.443-1.167.968-1.325.81-.884-.878.306-1.169.056-2.057-.578-2.057-.669 0-1.117-1.945-1.117-4.847 0-4.576.28-5.088 5-9.153 2.75-2.368 5-5.111 5-6.094 0-.983.437-2.058.972-2.388 1.188-.735 5.028-9.246 5.028-11.145 0-.755-.414-1.373-.921-1.373-.506 0-1.211-1.324-1.566-2.943-.445-2.025-1.1-2.769-2.099-2.386-1.191.457-1.268.076-.433-2.122 1.42-3.733 1.307-4.24-1.082-4.865-1.155-.302-1.827-.991-1.493-1.531.333-.54.127-1.142-.458-1.337-1.302-.434-2.011-8.659-.81-9.402 1.167-.721 1.064-4.567-.172-6.414-.869-1.298-1.203-1.239-2.485.441-1.454 1.905-1.481 1.902-1.481-.167 0-1.159.539-2.287 1.198-2.507.922-.307.908-1.098-.062-3.439-.693-1.673-1.418-4.742-1.611-6.822-.193-2.079-.791-4.056-1.328-4.393-.537-.337-1.547-2.526-2.245-4.863-.698-2.337-1.633-4.25-2.079-4.25-.446 0-.571-.624-.278-1.386.292-.762-.397-3.118-1.532-5.235-1.135-2.117-2.063-4.419-2.063-5.114 0-.696-.45-1.265-1-1.265s-1-1.575-1-3.5-.45-3.5-1-3.5-1-.516-1-1.147c0-3.088-4.542-13.182-6.117-13.594-1.001-.262-1.516-1.053-1.207-1.858.296-.77.04-1.401-.569-1.401s-1.107.375-1.107.833c0 .459-.694.834-1.543.834s-1.332-.549-1.075-1.22c.303-.791-.21-1.043-1.457-.717-1.314.343-1.925-.01-1.925-1.113 0-.89-.702-1.617-1.559-1.617s-1.281-.45-.941-1c.34-.55.144-1-.435-1-1.4 0-.704-4.287.777-4.781 1.913-.637 1.308-5.646-.911-7.546-1.558-1.334-1.915-2.469-1.447-4.598.417-1.9.111-3.337-.932-4.38-.853-.854-1.552-2.169-1.552-2.924 0-.754-.478-1.849-1.063-2.434-1.702-1.702-1.397-7.068.616-10.805 1.766-3.281 1.774-3.623.152-7.024-.938-1.967-1.705-4.236-1.705-5.042s-.45-1.466-1-1.466-1-.6-1-1.333c0-.824-1.181-1.334-3.088-1.334-1.698 0-3.386-.445-3.75-.989-.364-.545-1.449-1.28-2.412-1.636-.963-.355-1.757-1.672-1.765-2.927-.009-1.254-.404-2.893-.878-3.642-1.359-2.146-.089-5.106 2.468-5.747 1.968-.494 2.245-1.044 1.756-3.489-.495-2.475-.268-2.903 1.544-2.903 1.222 0 2.125-.637 2.125-1.5 0-.915-.933-1.5-2.393-1.5-3.098 0-4.204-2.676-1.465-3.545 1.505-.478 1.889-1.214 1.463-2.801-.318-1.185-.584-2.54-.591-3.012-.008-.473-1.121-.581-2.474-.241-1.843.462-2.732.109-3.543-1.407-.847-1.581-.76-2.148.397-2.592.814-.312 1.258-1.146.986-1.853-.275-.717.417-1.524 1.563-1.824 1.29-.337 2.057-1.359 2.057-2.74 0-1.854-.398-2.102-2.522-1.569-2.805.704-4.441-1.509-2.721-3.679 1.434-1.808 2.147-10.372 1.17-14.057a126.692 126.692 0 0 1-1.397-5.902c-.774-3.801-4.308-6.872-7.102-6.171-1.233.31-3.219.04-4.413-.599-1.194-.639-2.924-.84-3.843-.447-1.558.667-6.721.69-10.172.045-.825-.154-2.806-.092-4.403.138m-19.93 1.923c-1.151 1.15-.729 2.333.833 2.333.825 0 1.5-.675 1.5-1.5 0-1.562-1.183-1.984-2.333-.833m-117.471 27.32c-6.337 1.501-12.196 4.189-12.196 5.596 0 1.546 3.027 1.927 4.55.572.522-.464 3.763-1.869 7.2-3.122 3.438-1.252 6.25-2.672 6.25-3.155 0-1.009-1.175-.987-5.804.109m-18.446 6.762c-.962.219-1.75.778-1.75 1.244 0 .465-2.362 1.618-5.25 2.562-7.445 2.433-10.75 4.269-10.75 5.971 0 2.032.785 1.889 7.573-1.383 3.26-1.572 7.615-3.462 9.677-4.201 4.8-1.72 5.223-5.265.5-4.193m-18.721 15.212c-.809.512-1.211 1.19-.893 1.508.788.788 3.864-.467 3.864-1.576 0-1.14-1.101-1.115-2.971.068m-5 2c-.809.512-1.211 1.19-.893 1.508.788.788 3.864-.467 3.864-1.576 0-1.14-1.101-1.115-2.971.068m-29.446 6.682c-.797 2.079-.305 2.571 1.774 1.774.904-.347 1.643-1.258 1.643-2.024 0-1.942-2.65-1.748-3.417.25m9.167 2.046c-.962.252-1.75 1.09-1.75 1.863 0 1.136.479 1.187 2.5.266 1.375-.626 2.5-1.517 2.5-1.979 0-.88-.388-.898-3.25-.15m-19.671 7.953c-.043.627-1.204 1.424-2.579 1.769-1.375.345-2.5 1.099-2.5 1.675 0 .622.915.772 2.25.369 3.037-.917 4.081-2.015 3.441-3.618-.309-.774-.566-.857-.612-.195M682 525.879c0 .483-1.35 1.438-3 2.121s-3 1.856-3 2.605c0 1.092.696 1.031 3.5-.306 2.101-1.002 3.5-2.395 3.5-3.484 0-.998-.225-1.815-.5-1.815s-.5.395-.5.879m-67.851 33.785c-.743.807-1.073 1.745-.733 2.085.837.837 2.9-1.325 2.446-2.563-.199-.545-.968-.33-1.713.478m-7.8 1.521c.296.927.09 1.835-.459 2.018-.661.221-.663 1.17-.007 2.815.916 2.297.995 2.322 1.054.34.042-1.422.902-2.352 2.563-2.769 1.375-.345 2.5-1.099 2.5-1.675 0-.614-.881-.769-2.125-.374-1.32.419-2.492.16-3.094-.683-.749-1.049-.847-.974-.432.328M565 587.622c-3.575 1.365-6.95 3.047-7.5 3.738-1.281 1.609-9.372 4.837-10.452 4.17-.853-.528-2.3 3.551-1.532 4.319.239.24 3.709-1.164 7.71-3.12 4.001-1.955 9.299-4.351 11.774-5.323 2.475-.973 5-2.362 5.61-3.087.611-.725 1.623-1.319 2.25-1.319s1.14-.45 1.14-1c0-1.463-1.745-1.149-9 1.622m-35.25 13.135c-2.152.479-2.338 3.243-.219 3.243.843 0 1.798-.694 2.124-1.543.722-1.883.362-2.204-1.905-1.7m495.263 128.691c-1.369.757-2.741 1.22-3.05 1.029-.31-.191-1.089.495-1.732 1.525-1.076 1.723-.952 1.795 1.55.905 3.029-1.077 8.284-4.87 6.719-4.849-.55.007-2.119.632-3.487 1.39M984 753.5c0 .833.889 1.5 2 1.5s2-.667 2-1.5-.889-1.5-2-1.5-2 .667-2 1.5m-107.971 33.461c-.809.512-1.181 1.221-.825 1.576.874.874 4.796-.438 4.796-1.604 0-1.19-2.068-1.176-3.971.028m-101.779 33.53c-3.69 1.604-4.412 3.006-1 1.942 2.603-.813 6.665-3.452 5.223-3.394-.535.022-2.435.675-4.223 1.452M123.5 975.736c-2.499.63-6.358 3.264-4.782 3.264.64 0 1.442-.45 1.782-1 .34-.55 1.716-1 3.059-1 1.343 0 2.441-.45 2.441-1s-.112-.948-.25-.884c-.138.064-1.15.343-2.25.62m114.773 90.391c-1.159 1.159-.649 3.873.727 3.873 1.186 0 1.912-2.525 1.102-3.835-.525-.849-1.008-.859-1.829-.038M412 1148.418c0 .888 3.08 2.437 8.25 4.149 4.538 1.502 8.612 3.226 9.054 3.832.488.668.684.352.5-.805-.207-1.299-1.971-2.471-5.542-3.685-2.881-.978-6.244-2.483-7.473-3.344-2.78-1.947-4.789-2.009-4.789-.147m70 26.421c0 .711 1.403 1.601 6.25 3.962.413.201.75-.303.75-1.12 0-.817-1.417-1.979-3.149-2.583-3.78-1.318-3.851-1.322-3.851-.259M548 1198c0 .55.638 1 1.417 1s1.617.563 1.863 1.25c.245.688.788.932 1.207.543 1.321-1.228-.339-3.793-2.456-3.793-1.117 0-2.031.45-2.031 1m7 2.31c0 .801.926 1.699 2.058 1.995 1.535.401 1.977.116 1.739-1.122-.403-2.092-3.797-2.872-3.797-.873m15 5.114c0 .749.675 1.621 1.5 1.938.881.338 1.5.013 1.5-.786 0-.749-.675-1.621-1.5-1.938-.881-.338-1.5-.013-1.5.786m19 5.891c0 1.661.989 2.786 3.5 3.984l3.5 1.669v-2.453c0-1.71-.431-2.287-1.423-1.906-.782.3-2.357-.389-3.5-1.532L589 1209v2.315m14 6.647c0 1.172 4.805 2.567 5.713 1.658.84-.84.273-1.222-2.963-1.998-1.606-.386-2.75-.244-2.75.34m7 1.838c0 1.035 2.165 3.2 3.2 3.2 1.465 0 .825-2.777-.782-3.393-2.07-.794-2.418-.767-2.418.193m10 3.7c0 .825.675 1.5 1.5 1.5s1.5-.675 1.5-1.5-.675-1.5-1.5-1.5-1.5.675-1.5 1.5m26 9c0 .825.188 1.5.418 1.5.23 0 1.13.273 2 .607 1.009.387 1.582.064 1.582-.893 0-.825-.712-1.773-1.582-2.107-2.235-.858-2.418-.79-2.418.893m14.667 3.167c-1.151 1.15-.729 2.333.833 2.333.825 0 1.5-.675 1.5-1.5 0-1.562-1.183-1.984-2.333-.833m4.333 3.314c0 1.109 4.795 2.557 5.647 1.706.304-.305.257-1.034-.106-1.62-.827-1.34-5.541-1.412-5.541-.086m11 1.998c-1.311.829-1.279 1.17.257 2.706 1.676 1.677 1.747 1.633 1.532-.964-.124-1.496-.24-2.714-.257-2.706-.018.009-.707.442-1.532.964m32 3.521c0 .825.675 1.5 1.5 1.5s1.5-.675 1.5-1.5-.675-1.5-1.5-1.5-1.5.675-1.5 1.5m49 16.461c0 .529 1.913 1.456 4.25 2.06 2.337.604 5.038 1.327 6 1.606.962.279 1.75.059 1.75-.489s-2.432-1.703-5.404-2.567c-6.345-1.845-6.596-1.868-6.596-.61m38.276 12.368c.479 1.438 3.724 2.189 3.724.861 0-.526-.926-1.199-2.057-1.495-1.309-.342-1.915-.111-1.667.634" fill-rule="evenodd"/></svg>