<svg xmlns="http://www.w3.org/2000/svg" width="1240" height="1753"><path d="M194.181 49.307c-1.678 1.787-1.898 2.576-.974 3.5.924.924.697 1.193-1.007 1.193-1.289 0-2.2.621-2.2 1.5 0 .825-.338 1.546-.75 1.601-.412.056-2.511.26-4.662.454-2.152.194-4.177.711-4.5 1.149-.324.438-8.463.84-18.088.893-9.625.053-21.55.583-26.5 1.179-4.95.595-9.386 1.114-9.857 1.153-.471.039-.619.691-.328 1.45.551 1.435-5.156 1.814-29.815 1.981-9.907.067-22.309-.836-23.16-1.686-.242-.243-2.556.315-5.141 1.239-3.692 1.321-4.725 2.18-4.819 4.012-.077 1.499.547 2.505 1.75 2.819 2.597.679 2.338 2.121-.88 4.888-2.098 1.805-2.349 2.366-1.059 2.367.93 0 2.012.521 2.404 1.156.444.717.275.882-.448.436-.657-.406-1.435-.005-1.792.926-.406 1.059-1.346 1.457-2.642 1.118-1.387-.363-2.663.305-4.112 2.15-1.156 1.472-1.989 3.022-1.851 3.446.137.423-.148.769-.633.769-1.643 0-2.077 4.309-.547 5.428 1.236.903 1.269 1.521.202 3.817-.699 1.507-1.522 2.743-1.827 2.747-.305.004-.665 3.462-.8 7.684-.135 4.222-.505 8.098-.823 8.612-.318.515-.094 1.235.497 1.6.669.413.738 1.211.183 2.109-1.455 2.354-2.184.52-2.255-5.673-.093-8.163.537-14.324 1.465-14.324.434 0 .788-.675.788-1.5 0-2.941-1.861-1.43-3.489 2.832-2.397 6.277-2.098 27.574.458 32.668.414.825.591 10.679.393 21.898-.224 12.662.018 20.855.638 21.602.549.661.969 3.407.933 6.101-.036 2.695.21 7.374.546 10.399 1.248 11.23 2.15 29.731 1.805 37-.626 13.142-.528 44.578.152 49.119.361 2.41 1.104 6.406 1.65 8.881.546 2.475 1.179 9 1.407 14.5.227 5.5.833 17.425 1.346 26.5.513 9.075 1.001 29.1 1.084 44.5.332 61.388 1.213 106.444 2.622 134 .112 2.2.927 7.825 1.811 12.5 1.936 10.24 1.964 12.594.196 16.5-1.3 2.87-1.355 2.892-1.272.5.214-6.2-.358-12-1.183-12-1.109 0-1.85 9.443-.935 11.911 1.224 3.304 1.899 13.31.975 14.455-.503.624-1.203 4.509-1.555 8.634-.639 7.495-.639 7.498.986 4 1.567-3.373 1.657-3.418 2.501-1.237.863 2.229-.583 7.237-2.09 7.237-1.156 0-2.134 10.579-2.494 27-.526 23.961-1.607 33.011-3.571 29.882-.513-.816-.775 3.388-.641 10.272.125 6.41.564 11.446.977 11.191.413-.255.75-.013.75.537s-.45 1.278-1 1.618c-.55.34-1 1.068-1 1.618s.45.722 1 .382c1.391-.86 1.285 8.145-.147 12.507-.694 2.112-1.339 14.366-1.632 30.993-.715 40.541-.686 43.137.534 47.432.757 2.666.812 5.404.171 8.5-.52 2.512-1.114 8.168-1.321 12.568-.207 4.4-.855 10.475-1.441 13.5-1.59 8.201-3.235 51.773-2.135 56.519 1.213 5.231 1.214 10.231.002 10.648-1.438.494-1.598 27.905-.179 30.557.759 1.418.809 2.367.147 2.777-.553.342-.731 1.719-.394 3.06.341 1.359.172 2.439-.381 2.439-.546 0-.993 2.244-.993 4.988 0 2.743.398 4.741.884 4.441.487-.301.885-.07.885.512 0 .582-.422 1.059-.939 1.059-.516 0-.946 3.614-.956 8.032-.01 4.418.377 7.788.859 7.49 1.342-.829 1.615 12.525.798 38.975-.452 14.597-1.138 24.128-1.752 24.333-.556.185-1.01.776-1.01 1.312 0 .537.45.698 1 .358.595-.368 1 .823 1 2.941 0 1.957-.45 3.559-1 3.559s-1 1.35-1 3 .441 3 .98 3c.623 0 .759 5.374.373 14.75-1.126 27.401-.53 113.241 1.083 155.75.871 22.967 2.78 56.727 4.469 79.037.499 6.592.298 14.657-.586 23.5-2.545 25.466-3.471 39.505-3.803 57.66-.183 10.009-.626 18.672-.984 19.25-.357.579-.236 1.053.27 1.053.507 0 .706 1.125.443 2.5-.263 1.375-.876 2.5-1.362 2.5-.485 0-.883 1.125-.883 2.5s.45 2.5 1 2.5c.558 0 1 2.702 1 6.107 0 5.091.256 6.009 1.542 5.515 1.321-.507 1.5.513 1.25 7.143-.209 5.535-.648 7.664-1.542 7.485-.687-.137-1.282.313-1.321 1-.039.688-.248 4.175-.463 7.75-.347 5.751-.251 6.193.837 3.834l1.228-2.666 1.14 2.415c.657 1.392.756 2.653.235 2.975-.498.308-.906 1.489-.906 2.623 0 1.808.206 1.893 1.66.691 1.535-1.269 1.599-.659.854 8.128-.443 5.225-.853 23.719-.91 41.099-.08 24.365-.371 31.233-1.272 30.001-.643-.878-1.429-1.336-1.747-1.018-.319.319-.847 5.713-1.175 11.988-.327 6.274-1.046 12.249-1.596 13.277-.55 1.028-1.14 9.26-1.311 18.293-.172 9.034-.758 16.973-1.303 17.642-1.171 1.438-2.104 20.719-2.286 47.218-.072 10.45-.556 26.269-1.075 35.153-.925 15.836-.33 28.458 2.163 45.847.552 3.85 1.265 10.056 1.585 13.792.549 6.414.733 6.822 3.318 7.339 1.736.347 3.369 1.723 4.468 3.763 2.37 4.401 9.453 12.171 10.774 11.819.593-.159 1.616.448 2.274 1.348 1.464 2.002 13.929 2.489 15.801.617.648-.648 1.956-1.178 2.907-1.178.95 0 2.323-.575 3.05-1.279.726-.703 3.008-1.786 5.071-2.406 3.272-.984 3.759-.917 3.82.529.055 1.295.246 1.22.877-.344.459-1.139.376-2.538-.193-3.25-1.473-1.843.711-1.6 2.246.25.86 1.036.898 1.5.122 1.5-.617 0-1.122.466-1.122 1.035 0 .662.631.711 1.75.135.962-.495 2.328-.693 3.034-.44.706.252 1.831.029 2.5-.498 1.16-.912 4.51-1.918 9.526-2.859 1.27-.239 3.788-.026 5.595.473s3.917.554 4.69.122c.773-.431 3.205-.154 5.405.616 3.014 1.055 4.656 1.135 6.659.325 1.747-.707 3.291-.746 4.5-.112 1.013.53 3.304.741 5.091.47 2.027-.308 3.25-.072 3.25.627 0 .777 2.271.948 7.418.556 6.461-.492 7.554-.331 8.47 1.243.578.994 1.065 1.245 1.082.557.036-1.488 4.64-1.689 5.535-.242.386.624 1.196.434 2.13-.5 1.951-1.951 4.102-1.914 6.122.106 1.486 1.486 1.674 1.454 2.359-.397 1.611-4.358 5.884-3.752 5.884.833 0 1.798.814 3.407 2.223 4.393 2.338 1.638 10.292 2.151 11.176.72.285-.46 4.024-.958 8.309-1.107 12.834-.446 15.283-.308 16.787.94.915.759 2.866.95 5.377.526 3.402-.575 4.986-.103 11.567 3.445 6.211 3.349 8.247 3.995 10.979 3.482 2.011-.377 3.623-.192 4.026.461 1.754 2.837 9.919-.508 13.104-5.369 1.096-1.672 3.392-3.716 5.102-4.541 5.014-2.419 11.354-8.769 12.005-12.024.327-1.637.988-2.976 1.468-2.976s2.542 1.575 4.583 3.5c2.041 1.925 4.479 3.5 5.419 3.5.94 0 1.971.562 2.292 1.25.466 1 .7 1 1.166 0 .321-.688 1.46-1.25 2.532-1.25 1.071 0 2.235-.747 2.585-1.66.548-1.429.747-1.365 1.422.461.62 1.675 1.496 2.066 4.165 1.856 4.9-.386 8.41-4.163 10.392-11.181 2.215-7.84 2.476-51.374.432-71.976-1.545-15.576-1.486-14.404-2.598-52.13-.693-23.488-.583-27.985.816-33.5.888-3.503 2.545-12.67 3.68-20.37 1.136-7.7 2.504-16.7 3.04-20 2.033-12.509 5.248-65.053 5.537-90.5.329-28.971 1.036-40.148 2.602-41.116.688-.426.679-1.265-.031-2.59-.706-1.319-.842-11.422-.415-30.877.348-15.905.589-31.842.535-35.417-.346-22.917-.782-32-1.536-32-.472 0-.508-.562-.078-1.25 1.287-2.061 1.301-4.154.032-4.94-1.292-.799-1.335-35.538-.067-53.81.362-5.225.697-12.312.744-15.75.047-3.437.433-6.25.857-6.25s.771-.477.771-1.059-.495-.753-1.1-.379c-.799.494-.799.119 0-1.376.605-1.13 1.114-4.447 1.13-7.37.024-4.137.259-4.923 1.061-3.546.567.974.769 2.596.449 3.605-.321 1.009-.152 2.913.375 4.23.527 1.317 1.032 1.945 1.122 1.395.908-5.529 2.365-61.202 1.583-60.438-.317.308-.749 4.033-.959 8.277-.21 4.243-.67 8.003-1.022 8.355-.351.352-.655.227-.675-.277-.019-.505-.223-12.842-.452-27.417-.394-25.059-1.065-36.352-2.284-38.405-.302-.508.037-.549.774-.094 1.042.644 1.147.011.513-3.096-.439-2.148-.732-7.618-.652-12.155.084-4.78-.264-8.25-.827-8.25-.535 0-.758-.562-.496-1.25.777-2.032 1.171-21.811.444-22.26-.367-.227-.542-1.667-.388-3.201 1.064-10.645 1.33-14.321 1.319-18.289-.007-2.475-.015-6.067-.019-7.982-.003-1.915.469-3.64 1.049-3.833.58-.193 1.055-.791 1.055-1.327 0-.537-.45-.698-1-.358-1.331.823-1.27-1.126.116-3.717.943-1.761.865-1.99-.5-1.466-1.336.513-1.616-.136-1.616-3.741 0-2.955.484-4.548 1.5-4.938 1.512-.58 2.196-6.639.75-6.637-.62 0-.783-9.345-.192-11.001.099-.275.081-.95-.04-1.5-.331-1.518.056-19.895.844-40 .392-10.024.313-18.829-.178-19.871-.596-1.261-.537-1.656.181-1.212.714.441.982-1.164.814-4.88-.15-3.307.166-5.543.785-5.552.57-.009.361-.452-.464-.985-.825-.533-1.05-.976-.5-.985.604-.01 1.068-5.059 1.171-12.765.094-7.013.471-18.6.837-25.75 1.326-25.881 1.42-28.085 1.436-33.5.011-4.017.286-5.096 1.02-4 .825 1.231 1.008 1.109 1.021-.685.008-1.202-.434-3.365-.982-4.807-.548-1.442-.594-2.373-.1-2.068.493.305 1.09-1.357 1.326-3.693.237-2.336.775-5.147 1.195-6.247.609-1.593.545-1.695-.314-.5-.901 1.252-1.082 1.138-1.095-.691-.008-1.205.435-2.469.985-2.809.55-.34 1-1.293 1-2.118s-.45-1.222-1-.882c-.55.34-1-.084-1-.941s.45-1.559 1-1.559 1-2.475 1-5.5-.388-5.5-.861-5.5c-.474 0-.616-1.237-.316-2.75l.546-2.75.716 2.5c.635 2.219.727 2.101.815-1.05.055-1.953-.462-4.181-1.15-4.952-1.063-1.192-.989-1.204.5-.077 1.59 1.203 1.761.97 1.868-2.549.066-2.129.066-4.209 0-4.622-.065-.413.332-.75.882-.75s1.058 1.237 1.128 2.75c.078 1.659.574.498 1.25-2.925.617-3.122 1.459-6.009 1.872-6.417.412-.408.75-2.958.75-5.667 0-10.762 2.25-29.242 3.772-30.983 1.437-1.643 1.592-1.614 2.721.5 7.235 13.548 10.559 18.199 11.791 16.494.621-.859.72-.683.317.561-.349 1.08.421 3.298 1.906 5.483 1.371 2.017 2.493 4.135 2.493 4.704 0 .57 1.778 3.188 3.951 5.817 3.723 4.506 9.049 14.288 9.049 16.621 0 .584.337 1.08.75 1.102.413.023 2.279 2.385 4.149 5.25 1.869 2.866 5.215 6.56 7.435 8.21 2.219 1.65 6.315 6.212 9.101 10.137 9.19 12.95 13.912 18.195 17.565 19.509 1.925.693 4.108 1.138 4.85.99.743-.148 1.11.119.816.595-.294.475-.11 1.518.407 2.317.78 1.203 1.266 1.033 2.833-.989l1.891-2.442-.505 4.481c-.377 3.35-.099 4.817 1.102 5.814.883.733 1.606 2.178 1.606 3.21 0 1.033.436 1.878.969 1.878.532 0 .698-.705.367-1.567-.331-.863-.115-2.55.48-3.75.594-1.201 1.297-3.083 1.561-4.183.264-1.1.4 1.489.302 5.752-.148 6.413.089 7.752 1.371 7.75.852-.001 2.129-.564 2.836-1.252 1.038-1.008 1.231-.863.996.75-.31 2.131 2.02 6.5 3.466 6.5.476 0 .598-.698.27-1.552-.349-.912-.176-1.293.42-.925.558.345.89 1.784.738 3.197-.161 1.499.303 2.772 1.113 3.055.818.285 1.114.039.72-.599-.851-1.377.315-6.176 1.499-6.176 1.36 0 1.063 2.764-.358 3.338-1 .403-1 .52 0 .583 1.592.101 1.625 3.304.05 4.879-.881.881-.904 1.496-.087 2.313 1.581 1.581 3.196.256 2.576-2.114-.785-3.003 3.054-2.595 4.711.501.736 1.375 1.712 2.5 2.169 2.5.457 0 .831.689.831 1.531 0 .843.675 1.791 1.5 2.107 2.099.806 1.868 2.033-.5 2.652-1.474.385-2 .03-2-1.348 0-1.03-.954-2.382-2.121-3.007-1.49-.797-1.918-.808-1.441-.035.374.605.23 1.1-.32 1.1s-1.308-.498-1.684-1.107c-.478-.773-.97-.698-1.635.25-.74 1.055-1.064 1.079-1.458.107-.279-.687-.964-1.25-1.523-1.25-1.781 0 8.525 11.947 14.127 16.377 3.349 2.647 10.888 5.844 12.067 5.116.543-.336.99-.247.992.198.003.445 1.578.89 3.5.988 4.286.219 4.563-1.45.496-2.985-1.65-.623-3-1.484-3-1.913 0-.43-.623-.781-1.383-.781-.761 0-1.601-.83-1.866-1.844-.467-1.788-.366-1.789 3.263-.035 2.06.995 4.587 3.139 5.616 4.763 1.028 1.625 2.095 2.921 2.37 2.88 1.993-.296 8.083 3.023 9.127 4.973.805 1.505 1.915 2.224 2.996 1.941 1.18-.309 1.908.31 2.327 1.977.335 1.335 1.032 2.165 1.55 1.845.518-.32 1.936.561 3.151 1.959 1.215 1.398 2.761 2.541 3.436 2.541.765 0 1.013.815.659 2.169-.45 1.72-.224 2.037 1.093 1.531.941-.361 1.661-.15 1.661.486 0 .618.9.309 2-.686 2.119-1.918 2.842-.742.8 1.3-.667.667-.756 1.2-.2 1.2.55 0 1.54-.54 2.2-1.2.66-.66 1.2-.853 1.2-.429 0 .425-.755 1.527-1.679 2.45-1.498 1.499-1.509 1.712-.102 1.983 1.39.267 3.145 3.503 2.914 5.372-.046.372 1.255.97 2.892 1.329 1.636.36 2.975 1.068 2.975 1.574 0 .507.9.921 2 .921s2 .432 2 .961c0 .529.943 1.839 2.095 2.913 1.445 1.346 1.889 2.6 1.433 4.039-.417 1.314-.224 2.087.521 2.087.733 0 .997.981.691 2.578-.5 2.619-.369 2.734 5.76 4.998 1.1.407 2.596.641 3.325.521.832-.138.489.912-.921 2.819-2.021 2.733-2.111 3.316-.901 5.811.741 1.525 1.281 3.07 1.201 3.433-.315 1.44 13.313 15.063 16.898 16.892 5.413 2.762 11.423 2.547 15.487-.552 1.803-1.375 3.775-2.5 4.384-2.5.608 0 4.178-2.812 7.933-6.25 7.774-7.117 13.253-11.567 17.594-14.287 4.828-3.026 15.296-13.04 23.697-22.672 2.917-3.343 8.493-9.501 12.393-13.685 3.899-4.183 11.991-13.231 17.982-20.106 5.991-6.875 11.168-12.725 11.506-13 1.196-.974 16.491-18.763 21.141-24.588 4.419-5.537 12.211-16.063 21.122-28.536 2.112-2.957 5.433-6.501 7.379-7.876 1.946-1.375 4.718-3.647 6.159-5.048 1.442-1.402 5.996-5.452 10.121-9 4.125-3.549 8.89-8.027 10.589-9.952 8.897-10.079 16.911-19.619 24.783-29.5 11.378-14.282 10.161-12.734 17.677-22.5 7.326-9.52 8.749-11.29 14.451-17.975 12.234-14.343 19.329-22.896 29.057-35.025a4563.253 4563.253 0 0 1 16.936-21c3.361-4.125 9.863-12.375 14.449-18.333 8.961-11.642 10.014-12.02 10.043-3.605.008 2.509.915 6.425 2.015 8.702 2.423 5.015 2.659 11.768.454 13.002-1.362.762-1.431 3.098-.585 19.751.76 14.926 1.279 19.118 2.478 19.995 3.727 2.725 6.131 16.138 2.489 13.887-.749-.463-.956.328-.644 2.459.32 2.176.054 3.142-.865 3.142-1.582 0-1.725-2.387-.303-5.045 1.118-2.089.199-7.614-1.044-6.278-1.01 1.085-1.842 18.27-2.614 54.044-.49 22.704-.276 33.298.962 47.5 1.469 16.862 2.509 34.085 4.333 71.779 1.55 32.034.378 94.968-3.148 169-.276 5.775-.741 15.675-1.034 22-.294 6.325-.765 15.775-1.047 21-.283 5.225-.723 33.901-.979 63.724-.255 29.823-.654 55.923-.886 58-.232 2.077-.733 12.551-1.115 23.276-.381 10.725-.833 20.625-1.004 22-.862 6.909-.453 119.576.483 133.5 2.382 35.396 3.178 45.575 4.573 58.5.802 7.425 2.153 27 3.003 43.5.849 16.5 2.028 35.175 2.62 41.5.591 6.325 1.221 15.775 1.398 21 .178 5.225.648 14.9 1.045 21.5.398 6.6.625 24.945.504 40.766-.129 16.947.191 30.095.778 32 .548 1.779 1.251 7.059 1.563 11.734.704 10.559 4.267 22.336 6.498 21.48.839-.322 1.239-.299.888.052-.795.796 1.022 6.294 2.965 8.968 1.349 1.857 1.415 1.737.918-1.675-.509-3.506-.453-3.594 1.224-1.917.967.967 1.834 2.509 1.925 3.425.092.917.242 2.452.334 3.411.156 1.638 5 7.256 6.256 7.256.317 0 .63-1.013.695-2.25.096-1.819.265-1.675.882.75.42 1.65.817 2.438.882 1.75.065-.687 1.018-1.25 2.118-1.25 1.1 0 2-.204 2-.453 0-1.276-2.434-5.547-3.161-5.547-.461 0-.839-1.5-.839-3.333 0-1.834-.308-3.642-.685-4.019-1.248-1.247-3.285-8.099-3.3-11.098-.022-4.302 1.453-1.964 2.995 4.747.732 3.188 1.705 6.027 2.161 6.309.456.281.829 1.555.829 2.831 0 1.275.645 2.853 1.433 3.507 1.139.946 1.857.766 3.5-.877 1.689-1.689 2.067-1.776 2.067-.477 0 .874-.998 2.397-2.218 3.385-1.95 1.579-2.047 2.001-.802 3.501 1.333 1.606 1.487 1.606 2.661 0 .686-.938 2.394-2.3 3.795-3.027 2.191-1.137 2.778-1.093 4.188.318 1.52 1.52 1.589 1.478.941-.564-1.076-3.388.143-2.626 2.975 1.86 1.937 3.069 3.102 3.98 4.762 3.726 1.209-.185 2.1-.845 1.98-1.467-.12-.622.527-1.736 1.437-2.476 1.457-1.185 1.567-1.11.915.624-.407 1.083-.42 1.649-.029 1.258.391-.391 1.251-.262 1.912.286.66.548 4.301 1.269 8.092 1.603 3.79.333 7.341.942 7.891 1.353 1.734 1.295 21.729.256 22.743-1.182.72-1.019 1.015-1.027 1.416-.038.688 1.695 3.433 1.574 6.06-.266 1.755-1.229 2.317-1.268 2.973-.206.444.72 2.608 1.81 4.808 2.423 12.691 3.534 15.695 4.094 22.574 4.205 4.727.076 9.717.875 13.272 2.124 6.263 2.202 25.576 4.016 49.154 4.618 15.401.394 22.329-.906 26.77-5.023 1.325-1.228 2.932-2.058 3.57-1.845.738.246.93-.282.526-1.446-.56-1.617-.444-1.597.98.166 1.088 1.346 1.867 1.64 2.385.9 1.719-2.459 5.873-3.611 12.655-3.507 3.913.059 7.259.543 7.437 1.076.177.532 1.877 1.259 3.776 1.616 2.796.524 3.235.91 2.305 2.031-.632.761-2.444 1.384-4.026 1.384-1.791 0-2.878.525-2.878 1.391 0 1.862 6.757 2.684 7.44.905.273-.713 1.663-1.296 3.088-1.296 1.472 0 2.323.432 1.972 1-.34.55-1.401 1-2.359 1s-2.266.525-2.907 1.166c-.889.889-.579 1.711 1.3 3.453 1.356 1.257 2.466 2.982 2.466 3.833 0 2.889 7.591 2.448 12.244-.712 3.194-2.169 13.952-4.669 16.959-3.941 1.585.383 9.438-3.722 11.341-5.928 3.377-3.916 7.456-18.661 7.633-27.594.064-3.177.51-6.555.993-7.506.483-.95 1.293-6.117 1.8-11.481.936-9.892-.787-38.136-2.946-48.29-.527-2.475-1.659-11.925-2.517-21-.857-9.075-2.03-20.1-2.606-24.5-.873-6.671-1.141-51.362-.536-89.5.074-4.675-.206-17.95-.623-29.5-.416-11.55-1.002-30-1.301-41-.299-11-.73-25.175-.957-31.5-.228-6.325-.395-29.275-.371-51 .423-378.504.73-463.905 1.737-483.833 3.008-59.496 3.328-85.71 1.37-112.167-1.102-14.892-4.847-37.969-6.628-40.852-.385-.622-.859-3.047-1.055-5.389-.195-2.343-.69-7.34-1.1-11.105-.587-5.402-.448-7.029.659-7.714 1.143-.706 1.427-5.84 1.529-27.654.069-14.732.613-33.086 1.209-40.786 1.177-15.207 1.791-28.823 2.864-63.5.897-29.002.91-38.361.066-50-.379-5.225-1.002-21.623-1.384-36.439-.428-16.574-1.021-26.061-1.54-24.658-.464 1.255-.591 2.69-.283 3.189.309.5.115.908-.429.908-1.014 0-1.458-37.981-.505-43.142.367-1.985.952-2.52 2.353-2.154 1.767.462 1.84-.208 1.398-12.858a2791.47 2791.47 0 0 1-.79-27.346c-.177-7.7-.828-18.475-1.446-23.945-.884-7.829-.859-10.111.119-10.72.988-.615.982-1.195-.03-2.828-.908-1.465-.98-2.601-.25-3.964.563-1.051.978-2.729.923-3.727-.07-1.277-.327-1.074-.864.684l-.765 2.5-.962-2.397c-.529-1.319-.928-11.084-.886-21.7.06-14.915.387-19.599 1.44-20.603 1.145-1.092 1.291-.377.915 4.478-.301 3.884-.092 5.661.637 5.419.64-.212 1.201-3.961 1.368-9.141.168-5.232.875-9.928 1.75-11.619.807-1.561 1.472-5.223 1.478-8.137.015-7.002 1.018-12.8 2.214-12.8.56 0 .759 2.299.475 5.494-.269 3.021-.145 5.281.276 5.021.42-.26 1.078-5.544 1.461-11.744 1.139-18.424 2.483-29.768 4.083-34.482.829-2.44 1.31-4.756 1.069-5.145-.241-.39-.694-3.169-1.006-6.176-.313-3.007-.78-7.268-1.038-9.468-.257-2.2-.688-6.925-.956-10.5-.581-7.748-3.367-24.286-4.666-27.702-.508-1.336-.938-4.986-.956-8.113-.055-9.584-1.659-19.188-3.556-21.283-3.512-3.881-4.197-.362-3.039 15.598.452 6.227.351 10.555-.269 11.471-1.281 1.896-2.353.798-2.353-2.411 0-1.388-.394-2.28-.875-1.983-.481.298-.875-1.67-.875-4.371 0-2.702-.288-7.671-.641-11.043-.6-5.743-.783-6.095-2.903-5.563-1.555.391-2.605-.005-3.359-1.266-1.052-1.759-1.168-1.75-2.847.218-1.86 2.181-2.378 2.448-4.75 2.448-1.073 0-1.546 1.21-1.66 4.25-.125 3.309-.246 3.58-.547 1.224-.302-2.365-1.306-3.511-4.59-5.238-2.539-1.336-5.072-1.978-6.398-1.621-1.837.493-2.334.054-3.046-2.695-1.015-3.918-3.257-5.123-3.263-1.753-.003 2.116-.193 2.022-2.039-1.006-1.645-2.698-2.309-3.114-3.453-2.164-.779.646-1.934.855-2.567.464-.797-.492-.944-.059-.48 1.405.9 2.835-.204 4.589-1.967 3.125-1.061-.88-1.214-.652-.751 1.12.582 2.224.581 2.224-1.953.312-1.395-1.052-2.341-2.419-2.103-3.039.237-.619-.291-1.403-1.174-1.742-1.358-.521-1.56.11-1.308 4.086.244 3.844-.025 4.769-1.476 5.065-1.234.253-2.093-.55-2.82-2.635-.574-1.649-1.752-3.269-2.616-3.601-1.302-.499-1.357-.343-.319.907 1.401 1.688.609 5.012-.963 4.04-.554-.342-1.007-1.469-1.007-2.504s-.377-2.115-.837-2.399c-.46-.285-.758.795-.663 2.399.095 1.604-.203 2.684-.663 2.399-.46-.284-.837-1.364-.837-2.399 0-2.771-1.975-3.515-2.148-.809-.081 1.27-.24 2.984-.352 3.809-.112.825-.271 2.147-.352 2.939-.187 1.813-3.661-1.684-4.507-4.537-.31-1.046-.335-.214-.057 1.848.289 2.136.083 3.75-.477 3.75-.542 0-1.289-2.031-1.661-4.512-.372-2.482-1.123-4.788-1.669-5.126-.608-.376-.731.209-.317 1.513.371 1.169.272 2.125-.219 2.125-.492 0-.696 1.35-.454 3 .37 2.526.106 3-1.674 3-1.352 0-2.107-.631-2.098-1.75.013-1.496.157-1.532.985-.25.699 1.081.941.243.866-3-.094-4.104-.17-4.236-.866-1.5-.42 1.65-.817 2.213-.882 1.25-.065-.963-.793-1.75-1.618-1.75-1.054 0-1.5 1.065-1.5 3.583 0 3.853-2.408 4.505-2.608.707-.059-1.125-.804-3.039-1.655-4.255l-1.547-2.209-.667 2.102c-.853 2.688-2.523 1.704-2.523-1.487 0-1.343-.45-2.441-1-2.441s-1 1.8-1 4-.45 4-1 4-1 .498-1 1.107.675.848 1.5.531c.825-.316 1.5-.139 1.5.393 0 .92-1.489 1.387-3.354 1.053-1.929-.346-4.431 1.096-5.534 3.188-.646 1.225-.965 1.482-.71.57.317-1.132-.322-1.856-2.009-2.28-1.491-.374-2.198-1.068-1.779-1.746.423-.685.245-.847-.456-.414-.633.391-1.94.893-2.904 1.115-.965.222-2.713.685-3.884 1.029-1.815.532-2.283.056-3.158-3.211-.917-3.425-1.102-3.595-1.736-1.585-1.01 3.203-4.476 3.009-4.476-.25 0-2.467-1.966-3.674-2.036-1.25-.02.688-1.192 2.6-2.605 4.25-2.178 2.544-2.496 2.675-2.086.861.265-1.177.151-2.676-.254-3.331-.452-.731-.975-.001-1.353 1.889-.712 3.56-2.659 4.163-2.681.831-.012-1.757-.217-1.932-.934-.798-.506.799-.725 1.767-.488 2.15.237.384-1.255.591-3.316.46-2.061-.13-5.011-.31-6.556-.4-1.587-.091-2.54-.597-2.191-1.162.34-.55.168-1-.382-1s-1.278.45-1.618 1c-.34.55-1.829 1-3.309 1.001-2.662.001-2.689-.069-2.527-6.494.093-3.708-.295-6.779-.905-7.156-.631-.39-.776-.188-.354.494.392.635.264 1.155-.284 1.155-1.263 0-1.094 4.07.242 5.826.704.927.607 1.574-.323 2.149-.732.453-1.055 1.544-.717 2.424.813 2.119-3.572 2.211-5.314.112-.68-.819-1.683-1.213-2.229-.875-.604.373-.461.951.363 1.474 1.072.679 1.006.863-.311.875-.918.008-2.493.324-3.5.702-1.669.626-1.698.522-.332-1.162 1.144-1.411 1.203-1.95.25-2.271-.688-.231-1.25-1.058-1.25-1.837 0-.779-.408-1.417-.906-1.417-.499 0-.712 1.013-.474 2.25l.432 2.25-1.212-2.326c-.764-1.465-.854-2.575-.243-3 .533-.371.899-1.236.811-1.924a79.429 79.429 0 0 1-.283-2.75c-.069-.825-.561-1.5-1.094-1.5-.532 0-.731.617-.442 1.371s-.144 1.628-.963 1.942c-1.064.409-1.382.017-1.115-1.371.222-1.154-.178-1.942-.985-1.942-.748 0-1.529-.51-1.737-1.134-.248-.744-.94-.572-2.009.497-.897.897-2.294 1.377-3.105 1.066-.81-.311-1.77-.085-2.133.503-.363.587-1.11 1.068-1.66 1.068-.55 0-.679-.52-.287-1.155.445-.719.275-.882-.453-.433-.772.477-.854 1.281-.242 2.374 1.355 2.421-2.245 7.198-4.901 6.503-1.1-.287-1.999-.936-1.999-1.441 0-.535-.731-.56-1.75-.061-.962.471-3.903.78-6.534.685-2.631-.094-5.025.218-5.319.695-.294.476-1.067.561-1.716.189-.65-.372-.865-.326-.479.103 1.516 1.681-2.123 3.646-5.558 3.002-2.535-.476-3.749-.21-4.772 1.046-3.716 4.56-5.977 6.546-6.842 6.011-.602-.371-.588-1.549.036-3.192 1.545-4.062.144-4.073-1.553-.012-.832 1.992-1.513 4.089-1.513 4.66 0 .572-1.125 2.017-2.5 3.213-1.375 1.195-2.5 2.768-2.5 3.493 0 .726-.374 1.32-.831 1.32-.457 0-1.464 1.238-2.237 2.75-.774 1.513-5.298 6.8-10.054 11.75-4.757 4.95-10.159 10.8-12.005 13-5.011 5.972-48.056 48.66-54.648 54.195-3.147 2.643-7.748 6.682-10.224 8.977-2.475 2.295-5.626 5.12-7.001 6.278-4.632 3.901-12 11.413-12 12.235 0 .448-.59.815-1.312.815-1.456 0-6.308 6.025-5.898 7.324.143.454-.166.561-.687.24-.521-.322-3.991 2.907-7.712 7.175-3.721 4.269-7.783 8.563-9.027 9.543-1.244.981-6.371 6.606-11.393 12.5-5.022 5.895-10.782 12.542-12.801 14.771-4.727 5.22-10.071 11.534-20.266 23.943-9.507 11.572-14.48 17.422-24.974 29.378-9.4 10.711-19.22 22.21-31.703 37.126a1913.443 1913.443 0 0 1-7.502 8.928c-.674.786-2.8 3.543-4.725 6.128-3.421 4.593-9.601 12.337-28.943 36.268a6236.21 6236.21 0 0 0-14.898 18.5c-2.937 3.672-9.537 11.401-14.667 17.176-13.092 14.739-20.258 22.911-37.934 43.26-16.453 18.94-20.872 23.282-22.604 22.211-.613-.378-.952-.082-.778.679.48 2.09-1.555 2.226-2.676.177-.55-1.005-1.228-2.052-1.506-2.327-.278-.275-2.376-3.016-4.662-6.091s-4.758-6.225-5.494-7.001c-.736-.776-4.263-4.757-7.838-8.846-3.575-4.09-8.31-9.264-10.521-11.499-6.297-6.362-8.915-9.563-7.822-9.563.981 0 12.2 11.011 16.303 16 6.197 7.536 7.621 9.131 12.052 13.5 1.673 1.65 4.679 5.363 6.681 8.25 2.002 2.888 4.008 5.25 4.458 5.25.911 0-8.508-13.221-10.736-15.071-.778-.645-1.415-1.617-1.415-2.158 0-.826-2.745-4.683-7.486-10.52-2.444-3.008-9.209-10.413-17.094-18.709-4.683-4.927-9.418-10.42-10.522-12.207-1.104-1.786-4.13-5.18-6.725-7.541-4.476-4.073-11.903-13.754-15.57-20.294-5.943-10.6-14.8-24.431-23.052-36-3.531-4.95-7.643-11.025-9.137-13.5-1.494-2.475-7.261-10.459-12.815-17.743-5.555-7.283-11.534-15.383-13.287-18-1.754-2.616-4.151-6.107-5.328-7.757-7.4-10.373-17.651-24.863-21.196-29.957-3.806-5.471-7.156-9.94-21.288-28.397-6.492-8.479-11.056-14.646-16-21.62-2.2-3.104-6.025-8.26-8.5-11.459a879.862 879.862 0 0 1-7.761-10.191A817.858 817.858 0 0 0 368.51 203a8460.332 8460.332 0 0 1-7.689-10c-2.321-3.025-4.725-6.014-5.342-6.643-.617-.628-2.439-3.778-4.05-7-1.611-3.221-3.717-6.585-4.679-7.474-.962-.89-1.75-2.379-1.75-3.309 0-.931-.377-1.459-.839-1.174-.461.285-1.84-1.263-3.064-3.441-1.224-2.177-2.611-3.959-3.083-3.959-.473 0-1.379-1.575-2.014-3.5-.635-1.925-1.719-3.5-2.408-3.5-2.806 0-26.51-27.066-28.683-32.75-.473-1.237-1.321-2.25-1.884-2.25-.564 0-1.025-.45-1.025-1s.705-1 1.567-1c2.302 0 1.172-2.701-5.92-14.145-10.166-16.405-9.734-15.366-9.469-22.774.198-5.561-.126-7.2-1.863-9.408-1.157-1.47-2.624-2.673-3.26-2.673-.636 0-1.799-1.537-2.584-3.415-1.017-2.435-2.413-3.741-4.861-4.549-1.888-.623-3.687-1.794-3.997-2.602-.31-.808-1.812-1.481-3.338-1.494a613.162 613.162 0 0 1-5.775-.087c-1.65-.033-5.475.673-8.5 1.569-5.939 1.76-32.514 2.494-39.047 1.078-3.834-.831-7.406-3.107-11.845-7.546-3.554-3.553-6.028-3.733-8.927-.647m922.545 5.301c-.361.36-.18 1.544.402 2.631.777 1.452 1.352 1.681 2.172.861.819-.819.713-1.516-.402-2.631-.835-.834-1.812-1.222-2.172-.861m-11.079 3.155c-.259.419.148 1.881.905 3.25l1.377 2.487.036-3.25c.032-2.993-1.193-4.308-2.318-2.487m-80.474 6.987c-.129 2.063-.476 4.537-.771 5.5-.295.963-.056 1.75.531 1.75.587 0 1.074-1.463 1.082-3.25.012-2.5.246-2.904 1.013-1.75.739 1.112.941.531.78-2.25-.119-2.062-.708-3.75-1.308-3.75-.6 0-1.197 1.688-1.327 3.75m42.842-.878c-.013 1.996.223 2.175 1.485 1.128.825-.685 1.464-1.752 1.421-2.372-.043-.621-.323-.515-.621.235-.458 1.151-.677 1.151-1.406 0-.626-.988-.868-.711-.879 1.009m-49.899 1.878c.082 1.949.257 2.198.601.855.39-1.523.659-1.621 1.369-.5.664 1.048.887.836.899-.855.009-1.34-.592-2.25-1.485-2.25-.998 0-1.461.921-1.384 2.75m-879.7 2.385c-.294.476 1.593.865 4.192.865s4.522-.204 4.272-.453c-.909-.909-7.944-1.252-8.464-.412m870.044 2.154c-1.493 2.351-2.765 3.2-4.75 3.172-2.783-.041-3.688 1.021-1.46 1.713.688.214 3.725.374 6.75.357 6.034-.034 7.968-1.736 2.877-2.531-2.876-.449-3.033-.64-1.54-1.872 1.679-1.386 2.299-4.161.913-4.089-.413.021-1.668 1.483-2.79 3.25M148.5 69c-.365.591.736.994 2.691.985 2.504-.012 2.944-.251 1.809-.985-1.944-1.256-3.724-1.256-4.5 0m8.5 0c0 .55.927 1 2.059 1 1.132 0 1.781-.45 1.441-1-.34-.55-1.266-1-2.059-1-.793 0-1.441.45-1.441 1m6.083.359c1.195 1.03 5.917 1.557 5.917.66 0-.56-1.425-1.019-3.167-1.019-1.741 0-2.979.162-2.75.359M51.322 71.382c-4.248 1.494-5.201 2.615-2.239 2.632 1.33.007 3.542.271 4.917.586 1.975.453 2.185.345 1-.513-1.245-.902-1.269-1.236-.143-1.962 2.24-1.444-.128-1.942-3.535-.743m903.279 1.897c-2.523 3.307-3.507 7.721-1.722 7.721.483 0 1.42-1.463 2.083-3.25.663-1.787 1.648-4.081 2.191-5.097 1.751-3.283.124-2.883-2.552.626M1095 73c0 1.1.422 2 .938 2s.87-.9.787-2c-.083-1.1-.505-2-.938-2-.433 0-.787.9-.787 2M94.015 79.662c-.008.639-1.064 1.047-2.347.906-1.882-.207-2.254.147-1.931 1.838.276 1.441 1.158 2.094 2.832 2.094 2.751 0 3.38-1.457.681-1.579-.963-.043-1.215-.297-.561-.563.654-.266 2.278.23 3.609 1.102 1.331.872 3.159 1.302 4.061.956 1.233-.474 1.645-.044 1.656 1.727.009 1.296.452 3.032.985 3.857.836 1.294.971 1.268.985-.185.008-.927-.437-2.873-.989-4.326-.961-2.526-.872-2.627 2.04-2.321 1.817.19 3.391-.24 3.902-1.068.502-.813 1.728-1.159 2.96-.837 1.156.302 2.102.142 2.102-.357 0-.498-1.237-.944-2.75-.99-1.513-.047-5.562-.285-9-.53-4.636-.329-6.254-.114-6.265.835-.011.891-.309.824-.985-.221-.549-.849-.976-.996-.985-.338m22.347 1.838c-.317.825-1.229 1.5-2.028 1.5-.799 0-1.183.435-.854.967.329.532 1.876.712 3.437.4 1.602-.321 3.137-.089 3.521.532.374.606 1.355 1.101 2.18 1.101.825 0 1.217-.457.872-1.016-.346-.559-1.047-.758-1.559-.441-.512.316-.931-.084-.931-.89 0-.973-.672-1.29-2-.943-1.1.288-2 .054-2-.52 0-.574.787-1.249 1.75-1.501 1.64-.428 1.638-.464-.031-.573-.98-.064-2.041.559-2.357 1.384m16.236-.004c2.366 1.792 3.06 1.84 3.666.254.308-.805-.598-1.329-2.545-1.472-2.832-.207-2.903-.13-1.121 1.218m-2.098 2.439 2 .795-2 .519c-1.568.407-1.413.544.719.635 2.031.087 2.573-.263 2.143-1.384-.317-.825-1.54-1.468-2.719-1.43-2.076.068-2.081.095-.143.865m-21.5 5.57c0 .725.662 1.221 1.471 1.102 2.445-.359 2.734-1.32.569-1.886-1.291-.338-2.04-.05-2.04.784m1084.526 37.743c-.911 3.374.076 6.55 1.571 5.055.676-.676.711-2.194.101-4.417l-.93-3.386-.742 2.748M48.837 133.274c-.313 1.525-.149 3.033.364 3.35 1.348.833 1.501.247.815-3.124l-.611-3-.568 2.774M1199.761 155.5c-1.098 5.941-.978 9.117.296 7.843.582-.582.919-3.484.75-6.45l-.307-5.393-.739 4m-.667 27c-.025 3.05.197 3.605.937 2.338.611-1.048.623-2.526.033-4-.82-2.045-.941-1.837-.97 1.662m.158 22c.011 2.2.216 2.982.455 1.738.239-1.244.23-3.044-.02-4s-.446.062-.435 2.262m-8.182 28.75c.039.688.413 2.126.832 3.196.712 1.818.803 1.79 1.382-.423.341-1.304.39-2.742.109-3.197-.787-1.272-2.402-.978-2.323.424m.916 17.454c-.267 3.412-.123 5.839.321 5.393.444-.446.663-3.238.486-6.204l-.321-5.393-.486 6.204m-5.734 81.796c.011 2.2.216 2.982.455 1.738.239-1.244.23-3.044-.02-4s-.446.062-.435 2.262m-1.086 38.107c-.135 2.004.237 3.393.91 3.393.64 0 .865-.712.514-1.627-.344-.894-.155-2.192.418-2.883.742-.894.66-1.403-.285-1.766-.921-.353-1.399.531-1.557 2.883m-.166 11.134c0 4.129-.494 7.353-1.242 8.101-.877.877-.921 1.449-.15 1.95.601.389 1.39 1.383 1.753 2.208.373.846.479.519.244-.75-.23-1.238-.01-2.25.489-2.25 1.242 0 1.153-14.729-.094-15.5-.63-.389-1 1.923-1 6.241M153.36 436c0 5.225.169 7.363.375 4.75.206-2.613.206-6.887 0-9.5-.206-2.613-.375-.475-.375 4.75m1025.926 20.5c.008 2.75.202 3.756.432 2.236.229-1.52.223-3.77-.014-5-.237-1.23-.425.014-.418 2.764m-614.244 24.792c-.023.436.414 1.336.971 2 .557.664 3.715 4.583 7.019 8.708 3.304 4.125 6.523 7.675 7.152 7.888.63.214-.906-2.261-3.415-5.5-6.006-7.754-11.675-14.086-11.727-13.096m617.896 89.875c-.034 1.283-.398 5.696-.809 9.807-.411 4.111-.401 12.636.022 18.945.484 7.214.406 11.91-.212 12.654-.643.775-.638 2.088.015 3.805.548 1.442.794 2.622.546 2.622s-.023 1.125.5 2.5.596 2.5.163 2.5c-.932 0 .591 14.222 1.888 17.635 1.602 4.212 2.614 2.507 1.714-2.885-.482-2.888-1.039-19.638-1.238-37.223-.247-21.744-.709-32.088-1.445-32.333-.595-.198-1.11.689-1.144 1.973M159.359 585.499c-.534 3.575-.639 6.501-.232 6.501 1.105 0 1.991-3.462 2.054-8.033.087-6.325-.753-5.618-1.822 1.532m732.573 25.251c-.038.413-.01 4.462.062 9 .077 4.885-.276 8.25-.864 8.25-1.244 0-.81 3.562.914 7.5 1.236 2.824 1.336 2.867 1.706.735.216-1.245.778-2.026 1.249-1.735 2.161 1.335 2.295-8.729.16-11.992-.362-.555-.695-1.908-.738-3.008-.317-8.04-.536-9.5-1.421-9.5-.55 0-1.031.337-1.068.75m-54.682 1.746c-1.423 1.616-1.597 2.504-.491 2.504.418 0 1.322-.9 2.009-2 1.426-2.283.36-2.637-1.518-.504m-6.75 8.184c-5.199 6.297-5.875 8.029-1.101 2.82 3.873-4.226 5.453-6.578 4.351-6.477-.138.013-1.6 1.658-3.25 3.657m-14.275 16.873c-2.318 2.996-3.859 5.447-3.425 5.447.992 0 8.614-9.919 8.053-10.48-.227-.228-2.31 2.037-4.628 5.033m75.442 8.114c-1.151 1.15-.729 2.333.833 2.333.825 0 1.5-.675 1.5-1.5 0-1.562-1.183-1.984-2.333-.833m1.348 7.024c-.008 1.755.435 3.469.985 3.809 1.282.792 1.282-3.517 0-5.5-.738-1.141-.973-.737-.985 1.691m8.319 35.059c.05 2.337.445 4.25.878 4.25.952 0 .869-2.599-.19-6-.627-2.015-.761-1.675-.688 1.75m-.319 6.5c.021 1.673 1.744 4.324 2.391 3.677.775-.774-.508-4.927-1.523-4.927-.485 0-.876.563-.868 1.25M52.3 731c0 3.025.187 4.263.416 2.75.229-1.513.229-3.987 0-5.5s-.416-.275-.416 2.75m283.601 9.25c-.562 1.422-.315 8.75.295 8.75.442 0 .804-2.025.804-4.5s-.225-4.5-.5-4.5-.544.112-.599.25m-4.234 73.417c-.367.366-.667 3.366-.667 6.666 0 3.3.182 5.813.404 5.584.357-.369 1.386-12.917 1.059-12.917-.071 0-.43.3-.796.667m-9.183 5.405c-.872 3.97.155 5.007 1.488 1.502 1.271-3.342 1.3-4.574.107-4.574-.506 0-1.224 1.382-1.595 3.072m7.377 13.296c-.217 2.678-.145 7.178.161 10l.554 5.132.773-7.5c.445-4.314.377-8.562-.16-10-.829-2.219-.978-1.954-1.328 2.368m143.911-3.806c-.592.591 3.501 5.438 4.593 5.438 1.183 0 .643-1.684-1.232-3.847-1.97-2.272-2.453-2.5-3.361-1.591M329.252 866.5c.011 2.2.216 2.982.455 1.738.239-1.244.23-3.044-.02-4s-.446.062-.435 2.262m6.667 35.75c-.045.688-.174 2.52-.286 4.073-.113 1.553.148 3.042.581 3.309.432.267.786-1.566.786-4.073 0-2.507-.225-4.559-.5-4.559s-.537.563-.581 1.25m-7.849 7c.059 2.724.21 2.926.93 1.25 1.187-2.763 1.187-4.5 0-4.5-.55 0-.968 1.462-.93 3.25M44.286 943.5c.008 2.75.202 3.756.432 2.236.229-1.52.223-3.77-.014-5-.237-1.23-.425.014-.418 2.764m282.238-2.539c-.841 1.361-.181 15.039.726 15.039.413 0 .75-3.6.75-8 0-7.796-.255-9.014-1.476-7.039M325 982.667c0 3.116.226 5.441.502 5.165.962-.962 1.353-10.832.429-10.832-.512 0-.931 2.55-.931 5.667M79.286 987.5c.008 2.75.202 3.756.432 2.236.229-1.52.223-3.77-.014-5-.237-1.23-.425.014-.418 2.764m245.291 4.05c-.378 1.506-.271 3.156.238 3.665.567.567 1.11-.045 1.404-1.58.687-3.593-.792-5.471-1.642-2.085m7.759 12.45c0 4.125.177 5.813.392 3.75.216-2.062.216-5.437 0-7.5-.215-2.062-.392-.375-.392 3.75m-8.843 10.022c-.782 2.465.314 7.978 1.586 7.978.507 0 .921-2.25.921-5 0-5.075-1.337-6.663-2.507-2.978m855.793 3.478c.008 2.75.202 3.756.432 2.236.229-1.52.223-3.77-.014-5-.237-1.23-.425.014-.418 2.764M77.75 1039.58c-.412.414-.736 6.641-.72 13.837.034 14.591 1.541 15.562 2.352 1.515.506-8.764-.333-16.656-1.632-15.352m13.536 12.92c.008 2.75.202 3.756.432 2.236.229-1.52.223-3.77-.014-5-.237-1.23-.425.014-.418 2.764m231.714-1c0 .825.661 1.5 1.469 1.5.894 0 1.243-.586.893-1.5-.317-.825-.978-1.5-1.469-1.5-.491 0-.893.675-.893 1.5m0 16.645c0 .837.316 1.837.701 2.223.386.386.871 3.048 1.079 5.917.548 7.567 1.991 7.985 1.874.542-.072-4.564-.595-6.867-1.877-8.266-1.408-1.536-1.777-1.622-1.777-.416m-231.746 11.677c-.938.596-1.213 6.03-1.109 21.985.075 11.656.523 21.193.996 21.193.472 0 .891-3.487.93-7.75.04-4.263.152-14.162.25-22l.179-14.235c0 .009-.561.372-1.246.807m-14.827 5.699c-1.139 2.725-1.343 6.17-.903 15.25.644 13.296 1.096 16.229 2.499 16.229.564 0 .899-2.684.783-6.275-.111-3.452.17-6.877.624-7.612.496-.802.333-1.641-.405-2.098-.82-.506-.937-1.388-.349-2.638.979-2.083.946-10.561-.047-12.169-.35-.565-.361-1.743-.025-2.618 1.243-3.238-.759-1.463-2.177 1.931m6.72 4.029.147 6.95.691-6c.381-3.3.315-6.428-.147-6.95-.461-.523-.772 2.177-.691 6m878.105 5.95c.011 2.2.216 2.982.455 1.738.239-1.244.23-3.044-.02-4s-.446.062-.435 2.262m-885.069 39.25c-.362 13.271.681 25.786 2.036 24.431.876-.876 1.11-15.974.345-22.181-.17-1.375-.366-4.862-.436-7.75-.231-9.484-1.646-5.483-1.945 5.5m14.224 11.467c.384 11.146 1.055 18.619 1.727 19.25.794.746.932-.216.495-3.467-.333-2.475-.669-11.138-.747-19.25-.086-8.866-.533-14.75-1.122-14.75-.627 0-.754 6.564-.353 18.217M77 1163.882c0 1.65.45 3.278 1 3.618.582.36 1-.637 1-2.382 0-1.65-.45-3.278-1-3.618-.582-.36-1 .637-1 2.382m.962 8.908c.389 2.129.372 4.777-.037 5.884-1.062 2.87.324 12.579 1.869 13.092.925.308 1.117-.273.673-2.042-.341-1.359-.698-6.429-.794-11.265-.108-5.473-.597-8.934-1.296-9.167-.78-.26-.907.808-.415 3.498m259.053 4.46c-.008 2.063.158 3.75.368 3.75.867 0 1.253-4.968.481-6.185-.531-.838-.839.045-.849 2.435M322.32 1186c0 3.575.182 5.037.403 3.25.222-1.787.222-4.713 0-6.5-.221-1.787-.403-.325-.403 3.25m-1.461 23.5c-.353 1.1-.662 5.825-.688 10.5-.039 7.088.116 7.951.934 5.196 1.058-3.567.817-19.011-.246-15.696m-.587 24.5c0 2.475.195 3.487.434 2.25.238-1.237.238-3.263 0-4.5-.239-1.237-.434-.225-.434 2.25m-1.467 34.872c-.231 1.579-.089 3.717.317 4.75.486 1.237.761.257.808-2.872.078-5.311-.483-6.249-1.125-1.878m-183.613 43.203c.197.591.786 1.075 1.308 1.075s1.111-.484 1.308-1.075c.197-.591-.391-1.075-1.308-1.075s-1.505.484-1.308 1.075m943.094 10.425c.008 2.75.202 3.756.432 2.236.229-1.52.223-3.77-.014-5-.237-1.23-.425.014-.418 2.764m.44 18.75c.576 12.037 1.026 12.62 1.158 1.5.064-5.362-.26-9.75-.719-9.75-.459 0-.657 3.713-.439 8.25m1.546 30.75c0 2.475.195 3.487.434 2.25.238-1.237.238-3.263 0-4.5-.239-1.237-.434-.225-.434 2.25m-.02 8.5c.011 2.2.216 2.982.455 1.738.239-1.244.23-3.044-.02-4s-.446.062-.435 2.262m102.058 9c.005 3.3.192 4.529.415 2.732.222-1.797.218-4.497-.01-6-.229-1.503-.411-.032-.405 3.268m-102.058-1c.011 2.2.216 2.982.455 1.738.239-1.244.23-3.044-.02-4s-.446.062-.435 2.262M54.89 1396.75c-.06 1.513-.232 4.213-.383 6-.15 1.787.088 3.25.529 3.25.441 0 .815-2.7.831-6 .028-5.93-.765-8.569-.977-3.25m1025.336 9c.115 2.888.561 5.25.991 5.25 1.119 0 .94-7.211-.223-9-.69-1.061-.915.037-.768 3.75M1183.32 1421c0 3.575.182 5.037.403 3.25.222-1.787.222-4.713 0-6.5-.221-1.787-.403-.325-.403 3.25M902 1418.015c-1.333.876-1.333 1.096 0 1.985 1.317.878 1.32 1.116.029 1.946-.809.52-1.147 1.27-.75 1.666 1.13 1.13 2.025-.324 2.221-3.606.098-1.653.138-2.999.089-2.991-.049.009-.764.459-1.589 1m224.741 4.317c-.408 1.007-.727 2.807-.711 4 .028 1.976.123 2.01 1.066.389.57-.978.889-2.778.711-4-.293-2-.399-2.039-1.066-.389M53.07 1433.417c-.038 3.804.12 6.727.351 6.495.919-.918 1.335-9.531.552-11.412-.562-1.352-.855.243-.903 4.917m1028.216 3.083c.008 2.75.202 3.756.432 2.236.229-1.52.223-3.77-.014-5-.237-1.23-.425.014-.418 2.764m-1027.723 9.091c.407 5.119 1.437 5.532 1.437.576 0-2.292-.387-4.167-.861-4.167-.473 0-.732 1.616-.576 3.591m1026.426 10.492c-.006 4.079-.26 9.217-.565 11.417-.395 2.845-.269 3.559.436 2.472 1.145-1.766 1.863-19.582.831-20.614-.38-.38-.696 2.646-.702 6.725M54.3 1462c0 3.025.187 4.263.416 2.75.229-1.513.229-3.987 0-5.5s-.416-.275-.416 2.75m-.028 13c0 2.475.195 3.487.434 2.25.238-1.237.238-3.263 0-4.5-.239-1.237-.434-.225-.434 2.25m858.291 139.58c-.912.912-1.35 1.942-.974 2.289.377.347.892.05 1.145-.661.358-1.003.779-1.027 1.887-.107 1.956 1.623 2.501.787.908-1.392-1.217-1.665-1.421-1.674-2.966-.129m6.033 2.92c.813 4.856 1.404 5.768 1.404 2.167 0-1.467.45-2.667 1-2.667s1-.477 1-1.059-.5-.75-1.112-.372c-.611.378-1.528.067-2.037-.691-.595-.886-.686.051-.255 2.622m-14.998-1.764c-1.123 1.122-.601 3.264.795 3.264 1.89 0 2.813-2.707 1.142-3.348-.737-.283-1.608-.245-1.937.084m30.982 37.134c-.307.497.112 1.459.931 2.139 1.211 1.005 1.489.944 1.489-.328 0-1.866-1.631-3.087-2.42-1.811m204.714 17.948c-.767.474-.868 1.254-.283 2.2.721 1.167 1.159 1.212 2.147.224 1.492-1.492-.075-3.529-1.864-2.424" fill-rule="evenodd"/></svg>