<svg xmlns="http://www.w3.org/2000/svg" width="1240" height="1753"><path d="M1125.845 65.13c-3.046 1.116-4.417 4.933-2.834 7.891 1.372 2.562-.709 2.745-2.619.229-1.265-1.667-1.33-1.667-1.36 0-.029 1.586-.219 1.563-2.032-.25-3.061-3.061-4.172-2.503-3.488 1.75.483 3.006.381 3.399-.516 1.979-.615-.974-1.541-1.51-2.057-1.191-.517.319-.939-.012-.939-.735 0-1.476-3.884-3.43-8.758-4.405-2.007-.401-3.242-.249-3.242.401 0 .603-1.928.974-4.536.875-2.622-.101-4.849.331-5.277 1.023-.488.79-1.241.88-2.213.266-2.495-1.578-3.908-1.076-4.587 1.632-.481 1.917-.874 2.244-1.504 1.25-.469-.74-.859-.938-.868-.44-.008.498-.87.131-1.916-.815-2.062-1.866-3.506-.813-2.495 1.82.685 1.785-1.112 2.195-2.163.494-.43-.695-2.277-.856-5.051-.44-3.643.547-4.277.405-3.797-.845.692-1.804-2.827-1.667-6.366.247-2.898 1.567-16.273 1.677-17.222.142-.385-.623-2.006-1.052-3.603-.952-11.425.714-38.342-.283-40.298-1.492-1.31-.809-17.859-2.651-25.104-2.793-5.789-.114-19.381.991-21.202 1.722-.936.376-2.27.333-2.963-.095-.694-.429-2.77-.934-4.615-1.124-2.711-.278-3.914.258-6.286 2.797-1.614 1.727-2.934 3.816-2.934 4.642 0 .923-.577 1.279-1.5.925-.825-.316-1.5-.167-1.5.332s-2.138 1.223-4.75 1.609c-2.612.386-7 1.7-9.75 2.92-6.142 2.724-15.503 2.498-18.448-.447-1.509-1.509-3.308-1.803-10.326-1.69l-8.5.138-3.559 3.887c-2.421 2.643-3.911 5.523-4.656 8.996-2.514 11.722-6.225 71.665-6.26 101.117-.034 28.374 2.372 84.601 4.257 99.5.521 4.125 1.417 29.1 1.991 55.5 1.015 46.793 2.193 66.905 5.534 94.5 1.531 12.648 1.519 27.486-.042 52.778-.766 12.411-1.521 50.012-2.083 103.722-.34 32.45-.955 71.375-1.367 86.5-.412 15.125-.813 45.05-.892 66.5-.078 21.45-.427 54.3-.775 73-.347 18.7-.63 34.675-.629 35.5.002.825.286 33 .632 71.5.627 69.749.622 69.991-1.339 67.5-1.083-1.375-2.526-3.85-3.207-5.5s-1.747-3.45-2.37-4c-1.091-.963-7.485-10.691-12.488-19-1.325-2.2-3.788-5.818-5.473-8.041-1.685-2.223-7.748-11.898-13.472-21.5-5.724-9.602-12.928-21.284-16.007-25.959a1300.935 1300.935 0 0 1-10.56-16.335c-2.729-4.31-6.416-9.53-8.193-11.602-1.778-2.071-5.293-7.738-7.812-12.594-2.519-4.855-5.708-10.168-7.087-11.807-1.379-1.639-4.666-7.322-7.303-12.627-2.638-5.306-6.008-11.567-7.489-13.914-1.482-2.346-4.631-7.946-6.998-12.444-8.327-15.822-15.29-28.248-19.711-35.177-2.457-3.85-5.393-8.8-6.525-11-4.146-8.054-12.597-23.041-13.816-24.5-3.536-4.231-14.804-24.84-15.055-27.535-.349-3.76-22.185-46.345-28.441-55.465-.943-1.375-2.383-3.85-3.199-5.5-3.988-8.064-34.798-60.927-41.38-71-2.834-4.337-10.409-16.89-13.878-23-.625-1.1-4.64-7.85-8.922-15-4.283-7.15-10.879-18.175-14.659-24.5-3.78-6.325-7.687-12.615-8.683-13.978-3.553-4.864-10.31-15.33-10.31-15.97 0-.359-2.739-4.64-6.086-9.514-3.348-4.874-6.468-9.864-6.933-11.089-.466-1.225-2.161-3.739-3.767-5.588-1.605-1.849-6.42-8.761-10.699-15.361-4.279-6.6-8.17-12.15-8.648-12.333-.477-.184-.867-.686-.867-1.117 0-.686-7.707-13.417-19.706-32.55-7.77-12.39-10.012-16.173-13.336-22.5-1.878-3.575-5.382-9.406-7.786-12.958-2.403-3.552-5.475-8.502-6.825-11-3.066-5.674-2.881-5.369-17.281-28.542-3.076-4.95-6.167-10.125-6.869-11.5-1.478-2.895-2.631-4.798-6.665-11-3.061-4.707-5.889-9.83-13.249-24-2.428-4.675-5.21-9.4-6.183-10.5-.972-1.1-3.036-4.25-4.586-7-1.55-2.75-4.253-7.25-6.008-10-10.583-16.589-15.476-24.119-16.25-25.005-.483-.554-3.308-4.379-6.278-8.5-2.97-4.122-5.98-7.855-6.689-8.295-.709-.44-1.289-1.378-1.289-2.085 0-.708-3.17-4.623-7.045-8.701s-7.587-8.364-8.25-9.525c-3.221-5.642-6.854-10.392-7.968-10.417-1.135-.025-14.875-12.811-17.267-16.069-1.622-2.208-14.47-24.877-14.47-25.531 0-.322.685-.323 1.523-.001 1.285.492 1.339.235.344-1.644-.648-1.225-2.234-3.619-3.523-5.321-1.289-1.702-2.344-3.797-2.344-4.654 0-3.516-10.086-18.998-16.124-24.752-3.565-3.398-10.941-14.086-10.364-15.02.256-.414-.204-1.309-1.023-1.989-.819-.68-1.485-2.643-1.481-4.363.012-4.443-6.878-19.615-8.605-18.952-.744.285-2.096-.226-3.006-1.136-.91-.91-2.24-1.431-2.955-1.156-.715.274-2.932.805-4.927 1.179-2.998.563-4.065.269-6.155-1.691-1.39-1.305-3.502-2.408-4.694-2.452-1.191-.044-3.479-.45-5.085-.901-2.423-.681-3.241-.422-4.819 1.527-1.576 1.946-2.06 2.1-2.831.901-.776-1.206-1.077-1.221-1.806-.09-.516.8-1.678 1.102-2.831.736-1.226-.389-2.803.114-4.226 1.348-1.627 1.411-3.103 1.802-5.214 1.38-1.619-.324-2.87-.191-2.78.295.593 3.218-.299 3.705-2.36 1.289-2.842-3.331-5.296-4.18-7.04-2.436-1.069 1.069-2.352 1.166-5.644.426-2.343-.526-5.221-.634-6.395-.239-1.174.394-3.171.598-4.438.452-1.267-.146-2.954.275-3.75.936-1.13.938-1.782.923-2.977-.069-1.205-1-2.087-1.015-4.159-.071-2.005.914-2.802.92-3.354.027-.504-.815-1.053-.603-1.81.699-.597 1.029-1.1 1.369-1.117.757-.016-.613-.818-1.037-1.78-.942-7.688.753-14.103 2.074-15.956 3.285-1.213.793-2.623 1.185-3.132.87-.51-.315-2.066.324-3.459 1.419-1.827 1.437-2.65 1.642-2.955.737-.331-.984-.784-.958-2.085.116-1.166.963-2.037 1.065-2.913.341-2.311-1.907-9.059-1.721-12.192.337-1.729 1.135-5.029 2.028-8 2.165-2.782.128-6.858.465-9.058.747-2.988.384-4.311.096-5.23-1.138-1.079-1.449-1.756-1.497-5.5-.392-2.349.694-5.673 2.118-7.388 3.164-3.773 2.304-5.969 2.423-6.758.367-.47-1.224-1.659-1.415-5.857-.939-8.225.932-9.767 1.405-9.767 2.995 0 2.55-1.93 1.615-2.619-1.269-1.035-4.33-1.438-4.545-4-2.138-1.707 1.604-2.718 1.951-3.476 1.193-1.148-1.148-7.905.364-7.905 1.769 0 .406-.9.503-2 .216-1.1-.288-2-.921-2-1.407 0-1.57-2.87-.936-3.92.867-.561.963-1.033 1.191-1.05.507-.041-1.681-8.058-1.347-8.715.364-.384 1-.907 1.026-2.364.116-1.359-.848-1.54-1.379-.661-1.937.772-.491.395-.775-1.04-.785-1.237-.008-2.257.548-2.265 1.235-.011.887-.229.923-.75.126-1.116-1.708-7.107-2.727-8.626-1.467-.886.736-2.865.796-6.13.186-4.93-.921-7.479-.576-7.479 1.012 0 .491-.498.893-1.107.893s-.848-.675-.531-1.5c.443-1.156-.221-1.5-2.893-1.5-3.287 0-3.469.181-3.469 3.441 0 1.893-.481 3.738-1.068 4.101-.588.363-.802 1.353-.477 2.201.49 1.277.331 1.324-.932.276-1.345-1.116-1.51-.283-1.414 7.109l.109 8.372 1.158-6c1.24-6.427 1.978-5.99 3.157 1.872.675 4.5.622 4.628-1.919 4.628-1.891 0-2.614.52-2.614 1.878 0 1.033-.675 3.493-1.5 5.468-1.887 4.517-1.906 11.355-.058 21.015 1.253 6.547 1.255 9.81.021 24.838-.782 9.516-1.431 24.443-1.442 33.173-.012 8.729-.522 23.405-1.135 32.613-1.11 16.67-.57 31.337 2.154 58.515 1.024 10.219 2.444 44.198 2.299 55-.044 3.3-.372 17.7-.728 32-.357 14.3-.193 35.675.363 47.5 2.566 54.527 3.122 69.175 4.101 108 .575 22.825 1.211 43.75 1.413 46.5 1.934 26.325 4.436 121.377 4.487 170.5.03 28.875.505 63.075 1.055 76 1.111 26.102 2.128 59.287 2.099 68.5-.011 3.3-.015 8.025-.01 10.5.014 6.898.01 7.79-.066 18.5-.145 20.332 1.07 80.72 2.082 103.5.574 12.925 1.207 35.875 1.407 51 .199 15.125 1.5 50.675 2.891 79 3.931 80.043 4.932 109.007 4.581 132.5-.016 1.1.618 11 1.409 22 1.781 24.754 2.026 49.667.467 47.5-.864-1.201-.933-1.101-.347.5 1.702 4.655 2.53 14.196 2.863 33 .478 26.963 2.456 74.58 3.634 87.5.527 5.775.959 13.483.959 17.128.001 3.645.676 8.243 1.501 10.218.825 1.974 1.5 4.981 1.5 6.681 0 1.7.39 2.85.867 2.555.477-.295 1.152 1.542 1.5 4.081.912 6.648.779 18.129-.216 18.744-.468.289-.719 3.915-.56 8.059.164 4.245-.12 7.534-.65 7.534-1.302 0-1.177 2.965.39 9.201.81 3.223 1.402 12.155 1.511 22.799.099 9.625.41 19.75.691 22.5.282 2.75.918 12.244 1.412 21.097.591 10.558 1.443 17.396 2.478 19.872.867 2.076 1.583 5.858 1.591 8.403.017 6.006.891 9.128 2.553 9.128.733 0 1.777.788 2.318 1.75.831 1.477 2.328 1.724 9.596 1.584 4.736-.091 9.225-.675 9.976-1.298.939-.779 1.567-.806 2.013-.085.356.577 2.803 1.049 5.438 1.049 4.127 0 10.102 1.159 31.592 6.128 2.2.509 7.6 1.371 12 1.916 4.4.545 12.95 1.845 19 2.889 7.112 1.227 18.518 2.111 32.268 2.5l21.268.602 1.161-2.767c1.14-2.721 1.167-2.728 1.561-.442.298 1.728.831 2.146 2.072 1.623.918-.387 5.27-1.063 9.67-1.501 4.4-.439 11.15-1.955 15-3.369 3.85-1.414 7.943-2.572 9.095-2.575 1.152-.002 2.867-.857 3.81-1.899 2.17-2.398 6.403-3.239 8.806-1.751 1.46.904 2.048.83 2.789-.354.761-1.215 1.309-1.271 2.884-.295 1.568.971 2.184.919 3.171-.272.675-.812 2.625-1.422 4.336-1.355 5.929.231 16.126-1.369 19.609-3.077 3.761-1.845 7.994-3.089 12-3.527a112.73 112.73 0 0 0 5.276-.739c1.849-.31 3.126.073 3.825 1.15.81 1.246.947 1.272.601.115-.67-2.239 11.134-1.809 14.712.535 3.39 2.222 9.533 2.49 10.629.465.888-1.639 2.031-4.648 2.66-7 .221-.825.593-8.25.827-16.5.889-31.255 1.419-39.134 2.869-42.605 1.03-2.464 1.619-9.173 1.995-22.733.294-10.581.753-19.591 1.019-20.022.267-.431-.114-1.937-.845-3.346-.807-1.556-.989-3.099-.464-3.928 1.219-1.925 1.108-11.254-.149-12.511-.575-.575-1.236-5.052-1.469-9.95-.234-4.898-.7-14.755-1.037-21.905-.336-7.15-.85-15.925-1.142-19.5-.292-3.575-.491-8.187-.442-10.25.049-2.062-.311-3.75-.8-3.75-.489 0-.872-3.263-.851-7.25.021-3.987-.255-12.088-.613-18-.452-7.457-.319-10.75.433-10.75.619 0 .748-.537.3-1.25-.431-.687-.661-1.998-.511-2.911.15-.914-.182-1.943-.737-2.286-.663-.41-.679-1.492-.048-3.154.651-1.712.599-3.209-.162-4.631-1.07-1.999-2.191-16.297-1.863-23.768.22-5.008.167-7.185-.47-19.5-.313-6.05-.767-16.4-1.01-23-1.133-30.875-1.547-38.691-2.542-48-.589-5.5-1.063-14.407-1.056-19.793.008-5.387-.339-9.575-.772-9.308-1.082.669-3.534-13.68-2.901-16.987.319-1.67-.24-3.956-1.483-6.062-2.24-3.796-1.789-9.891.876-11.84 1.037-.758 1.279-1.926.797-3.846-.775-3.088-1.663-2.861-1.837.472-.063 1.209-.565 2.348-1.115 2.53-.644.214-1.089-8.423-1.251-24.269-.228-22.357-.511-27.675-1.88-35.397-.243-1.375-.655-8.35-.914-15.5-.446-12.302-1.724-25.866-2.977-31.59-1.787-8.165-3.215-49.956-2.902-84.91.373-41.617 2.056-88.071 3.423-94.5.467-2.2.873-12.572.901-23.048.027-10.476.467-22.176.977-26 .51-3.824.999-26.053 1.087-49.398.088-23.345.325-42.712.526-43.037.201-.326.857-20.6 1.458-45.054.601-24.455 1.336-47.388 1.635-50.963 1.085-13.001.857-41.783-.423-53.341-1.212-10.952-1.048-15.609.39-11.052.329 1.041 1.252 3.018 2.052 4.393 4.178 7.183 7.311 14.022 7.927 17.303.38 2.024 1.091 3.432 1.581 3.129.489-.302.89-.11.89.427 0 .538.301 1.763.67 2.723.454 1.183.296 1.515-.489 1.03-.765-.473-.949-.17-.541.894.34.885 1.248 1.367 2.018 1.072.941-.361 1.592.422 1.986 2.391.322 1.61 1.884 4.382 3.471 6.159 1.587 1.778 2.885 3.601 2.885 4.052 0 .451.563.822 1.25.824 2.023.006 5.085 8.501 3.878 10.757-.859 1.604-.68 1.872 1.16 1.736 1.542-.113 2.929 1.026 4.772 3.922 1.429 2.244 3.424 4.756 4.433 5.581 1.718 1.405 1.759 1.358.636-.75-.66-1.237-.806-2.25-.325-2.25 1.203 0 8.196 7.661 8.196 8.979 0 2.19 8.238 17.348 10.807 19.885 3.407 3.364 5.616 7.455 7.56 14 1.898 6.391 5.027 10.964 7.373 10.777 1.218-.098 2.729 1.787 4.904 6.116 1.729 3.441 2.802 6.467 2.384 6.725-.792.49-.646 2.795.526 8.268.477 2.229.324 3.25-.488 3.25-.708 0-.862.502-.382 1.25 1.29 2.009 3.224 9.973 3.272 13.47.039 2.851 1.07 5.65 6.569 17.826.756 1.675 1.855 5.185 2.441 7.801 1.244 5.554 8.636 20.668 13.421 27.442 3.209 4.543 5.471 8.522 14.611 25.696 2.337 4.391 5.318 9.558 6.625 11.482 1.308 1.923 2.377 3.989 2.377 4.591 0 .601 1.125 2.15 2.5 3.442 1.375 1.292 2.5 2.833 2.501 3.424.001 2.122 12.911 27.379 22.017 43.076 5.105 8.8 11.734 20.725 14.731 26.5 8.414 16.215 20.202 37.962 22.857 42.167 1.317 2.086 2.394 3.972 2.394 4.19 0 2.087 25.043 42.643 26.332 42.643.862 0-8.721-18.507-21.749-42-6.237-11.249-12.583-23.914-12.583-25.115 0-1.723 3.252 2.881 6.438 9.115 5.759 11.267 8.855 16.35 14.068 23.097 4.592 5.942 5.402 6.605 5.704 4.664.194-1.243-.285-3.288-1.064-4.542-.78-1.255-1.131-2.567-.781-2.917.349-.349.635-.084.635.59 0 .674.414.97.921.657 1.207-.746 6.599 8.743 9.103 16.022 2.303 6.694 2.263 6.429.976 6.429-.55 0-1-.45-1-1 0-1.145-3.978-5.356-4.534-4.799-1.286 1.285 13.377 26.332 24.47 41.799 4.536 6.325 9.168 13.3 10.293 15.5 1.124 2.2 3.001 5.145 4.171 6.546 1.17 1.4 4.371 6.949 7.113 12.331 2.743 5.383 6.212 10.987 7.709 12.455 1.497 1.467 2.765 3.118 2.817 3.668.051.55 1.629 3.025 3.506 5.5 1.876 2.475 4.111 6.052 4.965 7.95.855 1.897 3.29 5.722 5.411 8.5 5.18 6.785 9.937 14.503 14.514 23.55 2.087 4.125 4.814 8.625 6.059 10 1.246 1.375 3.493 4.525 4.994 7 1.501 2.475 3.254 4.95 3.895 5.5.641.55 2.911 3.7 5.045 7s5.498 7.605 7.476 9.566c1.978 1.961 5.758 7.688 8.401 12.725s5.23 9.422 5.75 9.743c.52.321.945 1.295.945 2.164 0 2.447 19.56 41.516 22.887 45.715.474.598 2.784 4.687 5.133 9.087 2.349 4.4 6.753 12.05 9.786 17 3.033 4.95 7.579 12.523 10.104 16.828 2.524 4.305 6.012 10.155 7.749 13 7.113 11.646 18.426 32.503 29.653 54.672 18.748 37.016 19.742 39.038 23.372 47.5 4.473 10.426 20.663 39.366 31.889 57 2.451 3.85 5.959 10.185 7.797 14.078 1.838 3.893 5.147 10.193 7.355 14 6.6 11.383 8.25 18.424 3.258 13.906-1.504-1.361-2.322-1.545-3.155-.712-1.662 1.662 5.178 9.23 11.503 12.728 1.69.934 4.875 6.025 11.261 18 3.223 6.044 8.958 14.961 12.119 18.842 2.348 2.883 5.907 10.091 8.348 16.908.738 2.063 1.702 3.75 2.142 3.75.439 0 .799.873.799 1.941s.45 2.219 1 2.559c.55.34 1.007 2.054 1.015 3.809.021 4.373.924 5.386 4.887 5.483 3.285.08 5.491 1.762 4.473 3.41-.565.915-.306.98 5.125 1.301 2.2.13 6.025.815 8.5 1.522 2.475.707 6.413 1.273 8.75 1.256 2.337-.016 4.25.314 4.25.734 0 1.341 6.137 1.972 20.272 2.084 8.396.066 14.271-.305 15.05-.951.702-.583 3.28-1.352 5.728-1.708 2.447-.356 7.098-1.304 10.335-2.106 7.076-1.754 13.615-2.229 13.615-.99 0 .495.635.374 1.411-.27.899-.746 1.633-.812 2.022-.182.745 1.206 6.567-.611 6.567-2.049 0-.528.521-.639 1.157-.246 1.324.818 9.604.669 11.008-.199 1.251-.773 10.574-1.284 32.975-1.808 13.084-.306 19.279-.832 20.781-1.763 1.741-1.08 2.29-1.087 2.942-.038.605.971 1.475 1.033 3.535.25 1.503-.572 4.137-1.039 5.854-1.039h3.122l-2.671 2.788c-2.472 2.581-2.524 2.8-.689 2.938 1.128.085 2.477-.793 3.13-2.038 1.132-2.158 3.419-4.037 4.23-3.476.229.158 1.251-.439 2.271-1.328 2.835-2.469 7.276-3.253 7.984-1.409.35.914 1.845 1.531 3.728 1.54 2.337.012 2.764.255 1.667.949-1.205.762-1.021 1.112 1 1.907 2.614 1.028 2.362 1.22 7.937-6.034 1.381-1.796 3.414-2.894 6.25-3.373 4.51-.762 11.282-4.699 12.201-7.094.595-1.551 3.628-1.509 4.762.066.398.553 1.318.401 2.25-.373.867-.719 1.583-.915 1.591-.435.009.479.435.21.947-.6.797-1.261 1.025-1.225 1.591.25.704 1.834 4.447 2.422 4.447.699 0-.563 1.033-.346 2.297.482 1.263.827 3.288 1.314 4.5 1.08 1.267-.244 2.217.082 2.235.768.017.656.692.319 1.5-.748.807-1.068 1.468-1.388 1.468-.711 0 .727.895.396 2.189-.809 1.203-1.121 2.539-2.039 2.968-2.039.429 0 .493-.749.142-1.664-.43-1.119-.256-1.427.531-.941.644.398 1.204.359 1.247-.086.042-.445.283-1.709.537-2.809.893-3.875.559-11.111-.992-21.5-2.578-17.272-3.539-24.91-4.64-36.898-.576-6.269-1.276-11.768-1.555-12.219-.278-.452-.545-6.862-.592-14.245-.046-7.383-.472-14.035-.945-14.781-.653-1.031-.863-.897-.875.56-.042 5.356-1.164-.611-2.508-13.35-2.209-20.935-1.915-47.963.481-44.087.39.632.767-5.881.837-14.473.071-8.592.357-15.992.636-16.444.279-.452.989-8.189 1.576-17.192.588-9.004 1.272-18.621 1.522-21.371.249-2.75.631-22.775.848-44.5.336-33.647.723-41.945 2.614-56 1.815-13.496 2.128-19.504 1.717-33-.276-9.075-.097-22.35.397-29.5.912-13.174 1.287-108.008.433-109.39-1.692-2.738-2.975-151.995-1.671-194.61 1.369-44.795 2.822-96.689 3.568-127.5.705-29.109 2.443-70.818 3.062-73.5.255-1.1.7-21.125.991-44.5.29-23.375.998-48.8 1.572-56.5.582-7.808 1.194-57.125 1.384-111.5.187-53.625.71-111.225 1.163-128 .453-16.775.833-34.775.843-40 .051-24.439-1.601-114.734-2.442-133.5-.518-11.55-1.205-32.25-1.528-46-.729-31.11-1.154-37.127-3.639-51.5-3.589-20.761-3.881-22.75-4.127-28.114-.239-5.189-.322-5.325-3.744-6.069-1.925-.418-6.343-.863-9.818-.987-6.646-.239-8.387-1.245-12.479-7.211-1.417-2.066-2.579-2.602-5.5-2.54-2.037.043-4.898.517-6.358 1.051M357.62 709c10.105 20.59 29.165 52 31.554 52 .419 0 1.433 1.237 2.254 2.75 4.183 7.71-1.14-8.094-6.243-18.538-5.451-11.154-12.486-24.631-13.16-25.212-.319-.275-1.133-1.625-1.808-3l-1.228-2.5.63 2.5c.821 3.26-.151 2.271-5.619-5.716-2.475-3.615-5.39-7.071-6.477-7.679-1.087-.608-2.559-1.78-3.271-2.605-.712-.825.803 2.775 3.368 8m-37.089 77.293c-.428.986-.497 2.074-.155 2.417 1.016 1.015 1.835-.411 1.367-2.382-.414-1.747-.468-1.748-1.212-.035m-.531 8.815c0 6.001.753 6.076 1.581.156.339-2.421.135-4.322-.507-4.718-.713-.441-1.074 1.092-1.074 4.562m433.693 29.827c.279 1.065 1.41 2.752 2.513 3.75 2.005 1.813 2.005 1.811.151-1.91-1.986-3.984-3.497-5.028-2.664-1.84m6.02 8.721c-.296.478.082 1.988.839 3.357 1.219 2.202 1.379 2.258 1.397.487.025-2.435-1.494-5.045-2.236-3.844M319.272 856c0 2.475.195 3.487.434 2.25.238-1.237.238-3.263 0-4.5-.239-1.237-.434-.225-.434 2.25m0 40c0 2.475.195 3.487.434 2.25.238-1.237.238-3.263 0-4.5-.239-1.237-.434-.225-.434 2.25m182.76 32.135c-.018.35.625 2.15 1.429 4 1.077 2.482 1.471 2.825 1.5 1.306.034-1.785-2.844-6.999-2.929-5.306m6.003 12.924c.02.792.679 2.566 1.465 3.941 1.263 2.21 1.43 2.268 1.433.5.002-1.1-.657-2.874-1.465-3.941-1.033-1.366-1.458-1.515-1.433-.5M835 1317.426c0 1.102 2.174 4.891 3.658 6.375 2.077 2.077 1.593.658-1.158-3.396-1.375-2.026-2.5-3.367-2.5-2.979m16.035 143.124c.02.522.714 2.075 1.542 3.45l1.506 2.5-.654-2.5c-.682-2.608-2.458-5.167-2.394-3.45M1154.3 1465c0 3.025.187 4.263.416 2.75.229-1.513.229-3.987 0-5.5s-.416-.275-.416 2.75m-296.889 7.856c.291.471 1.005 2.108 1.587 3.639.582 1.53 1.32 2.521 1.639 2.201.748-.748-1.864-6.696-2.94-6.696-.448 0-.577.385-.286.856m-18.711 86.52c.44.757 2.375 2.664 4.3 4.239 3.469 2.839 2.952 1.574-1.377-3.365-2.158-2.463-4.201-3.074-2.923-.874m-4.7 4.062c0 .809.853 1.373 1.949 1.291 1.473-.111 1.688-.462.878-1.438-1.422-1.713-2.827-1.64-2.827.147" fill-rule="evenodd"/></svg>