<svg xmlns="http://www.w3.org/2000/svg" width="1240" height="1753"><path d="M903.237 168.018c.375 3.278-7.831 7.617-11.863 6.273-2.079-.693-3.13-.535-4.311.647-1.204 1.203-3.633 1.538-10.563 1.457-8.443-.098-12.122.984-9.291 2.734.682.422-.952 2.812-4.281 6.261A66.342 66.342 0 0 0 850.775 203c-.648 1.375-2.015 3.734-3.039 5.243-1.025 1.509-1.561 3.231-1.193 3.827.368.596-.278 1.966-1.437 3.046-1.158 1.079-2.106 2.967-2.106 4.194 0 2.501-9.065 20.758-11.762 23.687-.956 1.039-4.213 6.75-7.238 12.693-3.025 5.942-5.759 11.03-6.075 11.307-1.256 1.1-6.467 11.67-7.397 15.003-.221.792-5.592 9.496-10.843 17.573-2.649 4.074-4.535 7.861-4.191 8.417.343.555.223 1.01-.267 1.01-.489 0-2.408 2.363-4.263 5.25s-3.743 5.404-4.195 5.592c-.452.188-1.72 2.101-2.816 4.25-1.097 2.15-2.404 3.908-2.906 3.908-.502 0-1.219 1.012-1.595 2.25-.375 1.238-1.503 3.15-2.506 4.25-1.771 1.943-4.668 7.222-17.44 31.79-3.372 6.485-6.89 12.677-7.818 13.761-.928 1.085-1.688 2.261-1.688 2.614 0 1.55-5.147 11.335-5.962 11.335-.497 0-1.223 1.012-1.615 2.25-.391 1.238-2.446 5.108-4.567 8.602-2.121 3.494-3.856 6.561-3.856 6.817 0 .255-1.038 1.897-2.307 3.648-1.268 1.751-3.181 4.976-4.25 7.168-1.069 2.191-2.469 4.549-3.111 5.239-1.411 1.516-2.763 7.178-1.917 8.025.729.729 4.585-3.23 4.585-4.707 0-.573.401-1.042.892-1.042.49 0 1.16-1.071 1.489-2.381.328-1.309 1.445-2.602 2.481-2.873 1.452-.379 1.772-.063 1.395 1.381-.27 1.03-.888 1.873-1.374 1.873-.485 0-.883.595-.883 1.322 0 .727-1.337 3.089-2.972 5.25-1.635 2.16-2.985 4.625-3 5.478-.015.853-.517 2.039-1.115 2.637-.783.783-.782 1.276.003 1.761.696.43.096 1.754-1.663 3.666-4.95 5.381-5.896 6.52-6.619 7.962-1.925 3.846-3.363 5.862-3.84 5.385-.29-.291-.821 1.308-1.18 3.553-.365 2.28-1.085 3.813-1.633 3.474-.54-.333-.981-.097-.981.524 0 .622-.675 1.806-1.5 2.631-.825.825-1.5 2.368-1.5 3.428 0 1.061-.429 1.929-.953 1.929-1.169 0-3.032 6.416-3.048 10.5-.006 1.65-.684 4.289-1.505 5.864-.822 1.576-1.494 3.488-1.494 4.25s-.675 1.386-1.5 1.386-1.5.885-1.5 1.966c0 3.6-3.24 9.029-5.435 9.108-1.136.041-3.19.263-4.565.492-26.54 4.434-52.6 6.153-88.232 5.821-10.853-.102-21.428.2-23.5.67-2.307.523-3.897.484-4.101-.101-.443-1.27-7.493-1.23-8.773.05-.627.627-2.679.698-5.45.187-2.444-.451-6.469-.687-8.944-.524-2.475.162-6.525.295-9 .296-4.601.003-52.084-4.154-71-6.215-6.268-.682-23.6-1.045-43-.899-31.638.237-77.499-.899-115-2.85-10.175-.529-23.45-1.202-29.5-1.495-14.015-.678-22.285-1.268-35.967-2.565-6.032-.572-25.548-.963-43.37-.87-30.09.158-32.537.303-34.258 2.024-1.02 1.02-3.103 2.153-4.63 2.517-1.526.365-3.375 1.138-4.108 1.718-.734.579-2.238 1.12-3.342 1.201-1.105.082-2.46.783-3.011 1.559-.781 1.098-.871 1.005-.408-.424.391-1.204.167-1.692-.655-1.421-.688.226-1.395 1.389-1.571 2.583-.175 1.195-.758 2.172-1.295 2.172-.537 0-2.193 1.225-3.68 2.723-1.488 1.498-3.81 2.876-5.161 3.062-3.587.494-19.233 7.112-21.395 9.05-1.549 1.388-1.747 2.556-1.214 7.162.768 6.626 1.034 7.975 2.026 10.266.445 1.029.249 2.381-.472 3.25-.907 1.094-.925 1.487-.068 1.487.642 0 1.034.788.873 1.75-.179 1.064.25 1.634 1.094 1.454 1.084-.231 1.238.538.705 3.5-.376 2.088-.956 7.328-1.288 11.644-.472 6.137-.299 8.042.795 8.735 1.126.713 1.061.889-.334.902-1.571.014-1.692 1.121-1.288 11.85.245 6.509.953 13.146 1.573 14.75.62 1.603 1.327 4.49 1.57 6.415.243 1.925.835 4.939 1.316 6.698.524 1.92.502 3.322-.055 3.508-.511.17-1.081 1.881-1.267 3.802-.187 1.92-.675 4.28-1.084 5.242-.543 1.276-.28 1.75.97 1.75 1.319 0 1.574.564 1.104 2.439-.337 1.341-.161 2.718.391 3.059 1.336.825 1.286 9.107-.071 11.642-3.104 5.801-2.925 41.113.241 47.509.612 1.236.779 3.995.394 6.5-.923 6.003-.973 15.289-.118 21.851.762 5.846 2.578 12 3.54 12 .319 0 .712 3.248.874 7.218.163 3.969.473 7.505.691 7.857.217.352.021 1.946-.437 3.542-.458 1.596-.449 3.938.02 5.205.475 1.285.46 4.046-.034 6.247-.519 2.31-.516 4.172.009 4.496 1.452.897 1.025 4.162-.781 5.968-1.349 1.349-1.446 2.042-.5 3.558 1.377 2.204 1.557 4.263.306 3.489-.478-.295-.839.987-.801 2.85.037 1.863-.506 4.078-1.207 4.923-.702.845-1.128 2.574-.949 3.842.291 2.048.79 2.269 4.476 1.979l4.149-.326.76 4.326c.417 2.379.66 6.136.539 8.349-.535 9.783 3.178 12.124 20.735 13.076 30.49 1.652 59.839.789 79.168-2.327 3.096-.499 11.62-.528 19.5-.066 18.983 1.112 67.181.974 79.22-.228 22.341-2.231 25.156-2.326 26.871-.902 1.683 1.397 15.446 1.637 17.598.307.982-.607 17.549-.551 22.811.078 2.604.311 32.699 1.731 44 2.077 11.413.349 38.166 2.392 48.5 3.703 5.5.698 14.163 1.262 19.25 1.253 5.087-.009 9.25.264 9.25.605 0 .342-1.125 2.28-2.5 4.306-1.375 2.026-2.5 4.044-2.5 4.484 0 .441-.903 1.618-2.006 2.617-1.104.998-1.821 2-1.595 2.226.226.227-1.121 3.123-2.994 6.436-1.873 3.313-3.405 6.374-3.405 6.802 0 1.205-5.298 10.488-6.199 10.863-.441.184-.801.987-.801 1.786 0 .798-.692 2.508-1.539 3.8-.846 1.292-1.468 2.738-1.381 3.215.378 2.086-.182 3.366-1.473 3.366-1.16 0-2.304 1.605-2.85 4-.063.275-.709 1.095-1.436 1.821-.726.727-1.321 2.605-1.321 4.174 0 1.568-1.064 4.124-2.363 5.678-1.3 1.555-3.334 4.74-4.521 7.077-1.186 2.338-2.526 4.25-2.978 4.25-.846 0-3.534 7.394-3.606 9.918-.022.78-.601 1.605-1.286 1.833-.685.229-1.246 1.223-1.246 2.21 0 3.808-2.36 4.381-13.266 3.221-6.269-.667-21.083-.885-38.234-.562-26.787.505-71.939-.555-111.5-2.617-10.175-.53-23.45-1.204-29.5-1.497-14.015-.678-22.285-1.268-35.967-2.565-6.032-.572-25.548-.963-43.37-.87-30.09.158-32.537.303-34.258 2.024-1.02 1.02-3.103 2.153-4.63 2.517-1.526.365-3.375 1.138-4.108 1.718-.734.579-2.238 1.12-3.342 1.201-1.105.082-2.46.783-3.011 1.559-.781 1.098-.871 1.005-.408-.424.391-1.204.167-1.692-.655-1.421-.688.226-1.395 1.389-1.571 2.583-.175 1.195-.758 2.172-1.295 2.172-.537 0-2.193 1.225-3.68 2.723-1.488 1.498-3.81 2.876-5.161 3.062-3.587.494-19.233 7.112-21.395 9.05-1.549 1.388-1.747 2.556-1.214 7.162.768 6.626 1.034 7.975 2.026 10.266.445 1.029.249 2.381-.472 3.25-.907 1.094-.925 1.487-.068 1.487.642 0 1.034.787.873 1.75-.179 1.064.25 1.634 1.094 1.454 1.084-.231 1.238.538.705 3.5-.376 2.088-.956 7.328-1.288 11.644-.472 6.137-.299 8.042.795 8.735 1.126.713 1.061.889-.334.902-1.571.014-1.692 1.121-1.288 11.85.245 6.509.953 13.146 1.573 14.75.62 1.603 1.327 4.49 1.57 6.415.243 1.925.835 4.939 1.316 6.698.524 1.92.502 3.322-.055 3.508-.511.17-1.081 1.881-1.267 3.802-.187 1.92-.675 4.279-1.084 5.242-.543 1.276-.28 1.75.97 1.75 1.319 0 1.574.564 1.104 2.439-.337 1.341-.161 2.718.391 3.059 1.336.825 1.286 9.107-.071 11.642-3.104 5.801-2.925 41.113.241 47.509.612 1.236.779 3.995.394 6.5-.923 6.003-.973 15.289-.118 21.851.762 5.846 2.578 12 3.54 12 .319 0 .712 3.248.874 7.218.163 3.969.473 7.505.691 7.857.217.352.021 1.946-.437 3.542-.458 1.596-.449 3.938.02 5.205.475 1.285.46 4.046-.034 6.247-.519 2.31-.516 4.172.009 4.496 1.452.897 1.025 4.162-.781 5.968-1.349 1.349-1.446 2.042-.5 3.558 1.377 2.204 1.557 4.263.306 3.489-.478-.295-.839.987-.801 2.85.037 1.863-.506 4.078-1.207 4.923-.702.845-1.128 2.574-.949 3.842.291 2.048.79 2.269 4.476 1.979l4.149-.326.76 4.326c.417 2.379.66 6.136.539 8.349-.535 9.783 3.178 12.124 20.735 13.076 30.5 1.653 59.874.788 79.172-2.33 3.12-.504 11.782-.53 20-.061 7.973.456 19.784.873 26.246.927 6.462.055 11.75.265 11.75.468 0 .791-9.161 16.881-9.892 17.374-.426.288-2.262 3.336-4.081 6.773-1.818 3.438-3.657 6.25-4.087 6.25-.43 0-1.078 1.35-1.44 3-.362 1.65-1.084 3-1.604 3s-1.33 1.013-1.801 2.25c-.838 2.203-13.246 23.278-14.867 25.25-1.531 1.862-13.735 23.961-16.706 30.25-1.625 3.437-3.306 6.25-3.738 6.25-.431 0-.784.845-.784 1.878 0 1.032-.686 2.446-1.524 3.142-.838.696-1.302 1.488-1.03 1.76s-.333 1.67-1.344 3.107c-1.012 1.437-2.184 3.738-2.606 5.113-.421 1.375-1.085 2.725-1.476 3-1.246.878-9.02 16.022-9.02 17.572 0 .82-.675 1.75-1.5 2.066-.825.317-1.5 1.228-1.5 2.024 0 1.955-4.003 10.676-5.272 11.486-.558.356-1.154 3.499-1.324 6.984-.171 3.485-.781 6.494-1.357 6.686-.576.192-1.047 2.31-1.047 4.706 0 2.397-.489 4.66-1.087 5.03-.598.369-.86 1.539-.583 2.6.397 1.518.109 1.803-1.354 1.338-1.466-.465-1.829-.103-1.716 1.709.079 1.265.552 2.581 1.05 2.925 1.252.864 1.653 13.096.479 14.576-.525.661-1.101 2.236-1.28 3.5-.18 1.264-1.488 6.183-2.908 10.93-1.42 4.748-2.842 11.288-3.161 14.532-.502 5.104-.305 6.148 1.461 7.747 1.885 1.705 7.263 3.365 12.935 3.991 1.285.142 2.74.897 3.235 1.678.494.781.912.97.929.42.017-.55.482-.325 1.034.5.867 1.295 1.215 1.227 2.55-.5 1.538-1.989 1.555-1.988 3.391.25 1.015 1.237 2.314 2.25 2.886 2.25.572 0 1.399.593 1.839 1.319.704 1.16 7.745 6.346 12.465 9.181 4.328 2.599 12.262 6.255 15.335 7.066.55.145 3.475.922 6.5 1.726 3.025.804 5.642 1.09 5.817.635.174-.455 1.447-.397 2.829.128 1.381.526 3.503.776 4.714.556 1.821-.33 2.197.059 2.171 2.245-.023 1.964.441 2.605 1.805 2.491 1.198-.1 2.187.854 2.848 2.75 1.18 3.387 2.42 3.725 3.316.903.744-2.344 2.325-2.619 3.122-.543.374.974 1.44 1.284 3.218.935 2.13-.418 3.507.296 6.91 3.58 2.337 2.256 4.25 4.787 4.25 5.624 0 .837.463 1.236 1.028.887.565-.35 1.803.316 2.75 1.48 1.764 2.167 4.255 3.772 9.972 6.426 1.787.83 3.25 2.014 3.25 2.632 0 .617 1.081.98 2.402.807 1.322-.173 3.234.418 4.25 1.314 1.956 1.725 7.588 2.989 13.272 2.981 2.677-.004 4.26.856 7.249 3.936 2.104 2.168 4.699 3.941 5.767 3.941 1.068 0 2.224.457 2.569 1.015.767 1.241 6.786 3.828 9.218 3.962 9.72.537 13.686 1.146 19.181 2.944 6.887 2.253 9.394 3.781 8.522 5.192-.301.488.767.887 2.375.887 1.788 0 3.898.976 5.437 2.515 1.562 1.562 3.13 2.279 4.137 1.893 1.001-.384 1.627-.103 1.636.735.012 1.047.237 1.014.985-.143.828-1.282.972-1.246.985.25.008.963.578 1.757 1.265 1.765.905.011.87.256-.128.889-.758.48-1.069 1.373-.691 1.984.874 1.415 3.569 1.455 3.569.053 0-.582.498-.751 1.107-.375.787.487.75.904-.128 1.447a1.446 1.446 0 0 0-.482 1.982c.579.937.951.905 1.613-.138.551-.871.865-.939.875-.189.025 1.902 8.292 9.99 8.765 8.576.232-.691.793-1.027 1.247-.746.454.281 1.123-1.251 1.487-3.405.948-5.611 3.253-7.417 7.601-5.957 1.878.631 4.17 1.798 5.092 2.594.922.796 3.31 1.816 5.305 2.266 3.328.75 3.938.515 7.354-2.839 4.094-4.02 9.626-11.157 8.647-11.157-.341 0 .412-1.448 1.672-3.218 1.261-1.77 2.384-3.844 2.496-4.608.112-.765 1.092-2.354 2.177-3.532s3.749-5.517 5.921-9.642c5.522-10.491 10.394-19.312 11.344-20.541.442-.572 3.338-6.085 6.434-12.25 3.097-6.165 6.12-11.209 6.718-11.209.599 0 .787-.301.419-.669-.367-.368.077-1.493.989-2.5.911-1.007 1.371-1.831 1.021-1.831-.35 0 1.083-3.487 3.184-7.75 7.637-15.49 10.142-20.977 10.142-22.215 0-1.191.663-2.625 5.84-12.637 1.167-2.257 1.852-4.373 1.521-4.703-.33-.331.965-2.76 2.878-5.398 1.913-2.638 5.843-9.297 8.734-14.797 2.89-5.5 5.911-11.237 6.714-12.75.803-1.513 1.877-2.75 2.386-2.75.51 0 .927-.614.927-1.365s.933-2.551 2.073-4c1.139-1.449 1.784-2.635 1.431-2.635-.352 0 .2-1.237 1.227-2.75 1.026-1.513 2.397-3.987 3.046-5.5.649-1.512 1.688-2.75 2.309-2.75.62 0 .88-.646.577-1.436-.303-.79.356-2.59 1.465-4 1.11-1.41 1.704-2.564 1.322-2.564-.382 0-.194-.604.419-1.342.612-.738.818-1.638.456-2-.362-.362-.166-.658.436-.658s2.495-2.812 4.206-6.25c1.712-3.437 5.515-10.75 8.452-16.25 8.481-15.883 9.735-18.388 9.568-19.103-.087-.37.218-.949.678-1.285.779-.571 7.026-13.545 10.887-22.612.937-2.2 2.375-4.771 3.197-5.713.821-.942 1.234-2.39.916-3.218-.318-.828-.235-1.717.184-1.976.419-.259 2.076-3.086 3.682-6.282 1.606-3.196 3.917-6.61 5.135-7.587 1.219-.977 2.5-2.671 2.847-3.765.347-1.093 1.049-1.73 1.559-1.415.51.316.928-.211.928-1.17s1.608-4.851 3.573-8.648c1.965-3.797 3.343-7.503 3.062-8.236-.281-.732.473-2.431 1.677-3.776 1.203-1.344 2.336-3.067 2.517-3.829.181-.762.968-2.095 1.75-2.964.781-.868 1.421-2.045 1.421-2.615 0-.57.956-2.252 2.124-3.737l2.124-2.7 22.104.582c12.156.321 27.738 1.224 34.625 2.008 19.383 2.205 40.118 2.801 56.023 1.609 7.975-.598 22.15-1.531 31.5-2.073 9.35-.543 21.05-1.433 26-1.978 14.627-1.61 17.412-1.844 30-2.517 6.6-.354 14.475-1.359 17.5-2.235 5.741-1.663 18.855-1.984 54.5-1.335 9.35.17 28.489.252 42.53.182 31.759-.16 47.27 1.002 64.97 4.865 2.475.54 7.875 1.231 12 1.536 4.125.305 12 1.413 17.5 2.463 18.512 3.532 41.971 3.539 65 .016 3.3-.504 8.925-1.134 12.5-1.399 10.023-.744 12.836-1.61 15.495-4.769 2.729-3.244 5.505-11.488 5.505-16.352 0-1.741.729-4.626 1.62-6.412 1.279-2.565 1.472-4.752.915-10.404-.388-3.936-1.175-7.722-1.749-8.414-.574-.692-.814-3.301-.532-5.799.508-4.512.498-4.529-1.543-2.742-2.251 1.971-1.592.18 1.079-2.932 1.058-1.233 1.185-2.097.441-3-.63-.767-.942-5.971-.785-13.141.142-6.529-.289-14.629-.959-18-.669-3.37-1.303-8.349-1.408-11.064-.105-2.714-.417-5.302-.694-5.75-.277-.448-.139-.814.306-.814.445.001.656-5.637.469-12.527-.187-6.89.226-16.453.919-21.25 1.567-10.847 2.038-26.658.922-30.973-.532-2.058-.473-3.25.159-3.25.583 0 .732-1.213.358-2.916-.477-2.176-.204-3.16 1.078-3.878 1.283-.718 1.763-2.449 1.895-6.834.097-3.229.945-8.347 1.884-11.372 2.67-8.598 2.754-9.093 2.786-16.307.025-5.683-.399-7.454-2.566-10.729-3.617-5.466-3.211-9.408.584-5.658.726.718 2.087 1.596 3.023 1.95 2.357.892 4.795-4.261 4.807-10.16.008-3.948-.436-4.962-3.146-7.19-2.621-2.154-3.293-3.593-3.966-8.5-.446-3.248-.56-9.056-.253-12.906.412-5.165.166-7.74-.938-9.824-.875-1.653-1.772-2.379-2.16-1.75-1.122 1.815-2.154 1.218-4.083-2.365-1.019-1.891-2.214-3.215-2.657-2.941-.444.274-.806-.919-.806-2.651 0-1.952-.771-3.779-2.029-4.809-1.117-.913-2.241-2.845-2.499-4.292-.257-1.448-1.141-3.923-1.964-5.5-.823-1.578-1.498-3.629-1.502-4.559-.007-2.034-1.678-3.293-2.218-1.672-.272.814-1.389.681-3.836-.458-1.898-.884-6.152-2.01-9.452-2.501-6.375-.95-19.466-.465-20.793.77-1.068.994-53.759.213-65.707-.974-5.225-.518-13.1-1.583-17.5-2.367-4.841-.861-19.016-1.669-35.896-2.046-15.342-.343-28.167-.786-28.5-.986-.332-.2-4.992-.662-10.354-1.027-9.391-.64-9.75-.589-9.75 1.394 0 1.765.625 2.058 4.393 2.058 4.029 0 5.607 1.048 5.607 3.724 0 .309-2.736.275-6.079-.074-3.44-.36-6.882-.206-7.929.354-1.29.691-3.696.518-7.945-.571-3.352-.858-6.872-1.52-7.821-1.47-.949.051-4.552.051-8.005.001-4.726-.068-7.111.423-9.641 1.986-4.761 2.943-28.84 4.061-35.456 1.647-2.406-.878-6.006-1.604-8-1.612-2.454-.011-3.179-.297-2.246-.889.758-.48 1.054-1.397.657-2.039-.498-.806-4.328-1.088-12.378-.912-11.884.26-18.157-.529-18.157-2.283 0-.539.48-.683 1.067-.321.587.363.965.052.84-.691-.348-2.062 1.817-6.699 5.493-11.771 1.826-2.518 3.308-5.264 3.294-6.102-.015-.838 1.626-3.875 3.647-6.75 2.02-2.875 3.448-5.227 3.173-5.227-.275 0 1.521-2.953 3.993-6.563 2.471-3.61 4.493-7.06 4.493-7.667 0-.607.296-.807.659-.445.362.363 1.959-1.919 3.548-5.07 1.59-3.151 3.768-6.664 4.842-7.807 1.073-1.142 1.951-2.55 1.951-3.128 0-.577.933-2.236 2.073-3.685 1.139-1.449 1.784-2.635 1.431-2.635-.352 0 .29-1.307 1.428-2.904 1.137-1.598 2.068-3.309 2.068-3.803 0-.495 1.281-2.675 2.848-4.846 1.566-2.171 4.135-6.422 5.709-9.447 1.574-3.025 3.654-6.676 4.623-8.113.968-1.437 1.452-2.922 1.075-3.299-.378-.377 4.923-.459 11.779-.183 16.792.679 36.402.889 66.996.72 31.722-.176 47.246.984 64.97 4.852 2.475.54 7.875 1.231 12 1.536 4.125.305 12 1.413 17.5 2.463 18.512 3.532 41.971 3.539 65 .016 3.3-.504 8.925-1.134 12.5-1.399 10.023-.744 12.836-1.61 15.495-4.769 2.729-3.244 5.505-11.488 5.505-16.352 0-1.741.729-4.626 1.62-6.412 1.279-2.565 1.472-4.752.915-10.404-.388-3.936-1.175-7.722-1.749-8.414-.574-.692-.814-3.301-.532-5.799.508-4.512.498-4.529-1.543-2.742-2.251 1.971-1.592.18 1.079-2.932 1.058-1.233 1.185-2.097.441-3-.63-.767-.942-5.971-.785-13.141.142-6.529-.289-14.629-.959-18-.669-3.37-1.303-8.349-1.408-11.064-.105-2.714-.417-5.302-.694-5.75-.277-.448-.139-.814.306-.814.445.001.656-5.637.469-12.527-.187-6.89.226-16.453.919-21.25 1.567-10.847 2.038-26.658.922-30.973-.532-2.058-.473-3.25.159-3.25.583 0 .732-1.213.358-2.916-.477-2.176-.204-3.16 1.078-3.878 1.283-.718 1.763-2.449 1.895-6.834.097-3.229.945-8.347 1.884-11.372 2.67-8.598 2.754-9.093 2.786-16.307.025-5.683-.399-7.454-2.566-10.729-3.617-5.466-3.211-9.408.584-5.658.726.718 2.087 1.596 3.023 1.95 2.357.892 4.795-4.261 4.807-10.16.008-3.948-.436-4.962-3.146-7.19-2.621-2.154-3.293-3.593-3.966-8.5-.446-3.248-.56-9.056-.253-12.906.412-5.165.166-7.74-.938-9.824-.875-1.653-1.772-2.379-2.16-1.75-1.122 1.815-2.154 1.218-4.083-2.365-1.019-1.891-2.214-3.215-2.657-2.941-.444.274-.806-.919-.806-2.651 0-1.952-.771-3.779-2.029-4.809-1.117-.913-2.241-2.845-2.499-4.292-.257-1.448-1.141-3.923-1.964-5.5-.823-1.578-1.498-3.629-1.502-4.559-.007-2.034-1.678-3.293-2.218-1.672-.272.814-1.389.681-3.836-.458-1.898-.884-6.152-2.01-9.452-2.501-6.364-.949-19.465-.466-20.789.766-.927.862-55.344.204-63.985-.774l-5.915-.67 2.167-2.75c1.192-1.512 1.879-2.75 1.526-2.75-.352 0 .29-1.307 1.428-2.904 1.137-1.598 2.068-3.398 2.068-4 0-.603.788-1.921 1.75-2.93 1.843-1.932 3.691-4.831 6.023-9.448 2.021-4.001 7.917-12.915 9.912-14.986.937-.973 1.808-2.484 1.936-3.358.212-1.441 3.138-5.308 5.958-7.874.604-.55 1.898-2.687 2.874-4.75.976-2.062 2.425-3.75 3.22-3.75.795 0 1.19-.412.879-.915-.311-.504.496-2.191 1.792-3.75 1.297-1.559 2.177-3.356 1.955-3.992-.222-.636.62-1.873 1.871-2.75 1.251-.876 1.919-1.593 1.484-1.593-.434 0 .14-1.307 1.278-2.904 1.137-1.598 2.076-3.285 2.085-3.75.01-.465 1.135-1.906 2.5-3.201 1.366-1.295 2.483-2.967 2.483-3.715 0-.748.913-1.848 2.028-2.445 1.115-.597 1.766-1.509 1.446-2.027-.32-.518.533-2.056 1.895-3.417 1.362-1.362 2.766-3.391 3.121-4.509.355-1.118 1.019-2.032 1.476-2.032.458 0 1.717-1.688 2.798-3.75 4.897-9.34 8.538-15.859 9.554-17.107 1.304-1.603 1.984-2.782 6.932-12.03 2.063-3.855 3.75-7.608 3.75-8.339 0-.731.777-2.439 1.727-3.795.95-1.356 1.816-3.07 1.924-3.81.109-.739.875-2.092 1.702-3.007.828-.914 1.537-1.999 1.576-2.412.039-.413.105-.863.148-1 .042-.137.212-.934.377-1.769.277-1.395 2.836-7.043 12.122-26.748 1.883-3.996 3.424-7.934 3.424-8.75 0-.815.477-1.483 1.059-1.483s.814-.397.514-.882c-.3-.486.349-2.021 1.443-3.412 1.094-1.39 1.737-3.185 1.429-3.988-.308-.803.086-2.106.876-2.896 1.529-1.529 1.55-7.683.04-11.495-.474-1.196-3.347-4.796-6.385-8-3.038-3.205-6.06-7.052-6.716-8.549-1.293-2.955-7.566-6.193-10.506-5.424-.964.252-2.02.024-2.349-.507-.328-.531-1.566-.84-2.751-.687-1.184.153-2.716-.072-3.404-.5-.687-.428-1.253-.414-1.257.031-.003.445-.854-.477-1.89-2.048-1.755-2.663-1.957-2.731-2.963-1-1.022 1.759-1.081 1.747-1.11-.226-.016-1.146-.299-2.353-.628-2.681-.901-.902-3.473.339-2.837 1.369.304.492.103.895-.447.895s-1.297-.481-1.66-1.068c-.363-.588-1.21-.858-1.881-.6s-1.778-.424-2.46-1.515c-.681-1.092-1.838-1.754-2.571-1.473-.733.281-2.359-.581-3.614-1.916-1.254-1.336-3.047-2.428-3.984-2.428-.937 0-2.28-.695-2.986-1.546-.705-.85-1.829-1.335-2.498-1.079-.668.257-2.448-.173-3.954-.954-1.506-.782-3.497-1.421-4.424-1.421-.927 0-2.226-.54-2.886-1.2-.66-.66-1.2-.912-1.2-.559 0 .352-1.205.015-2.678-.749-1.473-.764-3.043-1.164-3.489-.889-.445.276-.542-.197-.215-1.051.386-1.006.03-1.552-1.011-1.552-.884 0-1.607-.354-1.607-.787 0-.433-.787-.876-1.75-.985-4.08-.461-5.349-.953-7.677-2.977-1.351-1.175-3.27-2.275-4.265-2.444-.994-.169-2.037-.608-2.317-.977-.281-.368-1.114-.818-1.853-1-.739-.181-2.695-1.52-4.346-2.974-1.652-1.455-3.949-3.48-5.104-4.5-5.292-4.675-8.108-6.336-9.086-5.358-.551.551-1.475.995-2.052.987-.578-.009-.43-.408.328-.889 1.614-1.021.651-3.096-1.437-3.096-.793 0-1.441-.477-1.441-1.059s-.418-.801-.928-.485c-.51.315-1.199-.281-1.53-1.324-.499-1.572-1.352-1.827-4.985-1.491-3.995.37-4.335.227-3.853-1.618.436-1.667.047-2.023-2.21-2.023-2.214 0-2.52-.264-1.595-1.378.802-.967.846-2.162.147-4-.815-2.145-1.638-2.622-4.521-2.622-2.545 0-3.525-.439-3.525-1.578 0-.869-1.8-3.361-4-5.539-2.2-2.178-4-4.393-4-4.922 0-.528-.45-.961-1-.961s-1-.675-1-1.5-.432-1.5-.961-1.5c-.529 0-1.766-.842-2.75-1.872-2.506-2.622-10.164-3.593-13.733-1.741-2.754 1.428-5.556 1.209-5.556-.435 0-1.474 1.81-2.007 2.405-.708.317.691.325.244.018-.994-.431-1.739-.127-2.25 1.341-2.25 1.044 0 2.463-1.056 3.154-2.347 1.116-2.086.894-2.861-1.995-6.96-3.121-4.427-3.427-4.599-7.633-4.284-2.879.216-5.23 1.125-6.857 2.654-2.994 2.813-4.956 3.217-6.512 1.342-.641-.773-1.99-1.405-2.996-1.405-2.585 0-6.96-2.134-6.362-3.102.909-1.47-4.223-3.952-9.45-4.571-4.923-.583-5.128-.512-4.876 1.691M719.694 438.639c-.926.926.189 2.361 1.834 2.361.842 0 1.178-.604.834-1.5-.611-1.591-1.614-1.914-2.668-.861m-3.103 6.426c-.986 2.236-2.055 3.804-2.375 3.484-.32-.319-1.557 1.443-2.749 3.918-1.193 2.474-2.461 4.206-2.818 3.849-.357-.357-.649.074-.649.958 0 .885.37 1.836.822 2.116.919.568 4.178-2.865 4.178-4.401 0-.544.45-.989 1-.989s1-.675 1-1.5.441-1.5.981-1.5c.539 0 1.259-1.107 1.598-2.459.34-1.352 1.221-2.96 1.96-3.573 1.299-1.078.969-3.968-.454-3.968-.385 0-1.507 1.829-2.494 4.065m-11.403 18.998c.24.721 1.028 1.509 1.75 1.75.75.25 1.125-.125.875-.875-.241-.722-1.029-1.51-1.75-1.75-.75-.25-1.125.125-.875.875m-536.412 114.67c2.352.212 5.952.209 8-.006s.124-.388-4.276-.384c-4.4.003-6.076.179-3.724.39m53.909.015c9.453.164 25.203.165 35 .001 9.798-.164 2.065-.298-17.185-.299-19.25 0-27.267.134-17.815.298m269.077 82.959c1.244.239 3.044.23 4-.02s-.062-.446-2.262-.435c-2.2.011-2.982.216-1.738.455M893 921.853c0 1.004 6.583 2.366 12.249 2.535 5.576.166 4.537-1.018-1.499-1.709-2.888-.33-6.487-.852-8-1.159-1.513-.308-2.75-.158-2.75.333m33.541 44.213c.721 1.167 4.16 1.227 4.866.085.288-.467-.818-.887-2.459-.933-1.641-.047-2.724.335-2.407.848m-757.765 25.667c2.352.212 5.952.209 8-.006s.124-.388-4.276-.384c-4.4.003-6.076.179-3.724.39m53.909.015c9.453.164 25.203.165 35 .001 9.798-.164 2.065-.298-17.185-.299-19.25 0-27.267.134-17.815.298" fill-rule="evenodd"/></svg>