<svg xmlns="http://www.w3.org/2000/svg" width="1240" height="1753"><path d="M430.983 959.937c-5.824 1.771-16.779 8.548-20.68 12.793-6.792 7.394-15.532 20.09-14.726 21.394.403.652.325.94-.172.641-1.301-.782-18.595 25.407-26.496 40.123-1.424 2.654-4.346 7.702-6.492 11.219-2.146 3.516-4.805 7.996-5.909 9.955-1.105 1.959-5.608 9.735-10.008 17.28-4.4 7.545-8.675 14.928-9.5 16.407-1.685 3.021-12.441 17.943-16.695 23.161-1.529 1.875-3.235 4.205-3.792 5.177-.557.973-3.076 4.614-5.597 8.091-2.522 3.477-9.3 15.547-15.063 26.822-12.156 23.78-22.414 41.05-30.124 50.713-5.308 6.652-14.34 20.111-15.466 23.044-.308.803-1.672 2.65-3.029 4.102-2.565 2.743-8.296 12.248-7.938 13.164.112.288-.809 1.611-2.046 2.939-1.238 1.328-2.25 2.789-2.25 3.246 0 .458-1.149 2.652-2.554 4.877-6.632 10.507-14.826 26.494-17.381 33.915-2.591 7.527-4.193 19.724-2.916 22.209.483.941.772 2.066.642 2.5-.534 1.789 3.546 6.291 5.702 6.291 1.244 0 2.839.695 3.545 1.546.705.85 1.856 1.325 2.558 1.056.701-.269 1.426-.036 1.611.519.185.554 2.351 1.271 4.815 1.593 2.463.322 4.724.959 5.025 1.416.3.457 2.318 1.057 4.482 1.334 2.165.277 5.164 1.411 6.663 2.52 1.5 1.109 3.135 2.016 3.633 2.016 2.616 0 5.984 4.237 6.592 8.295.426 2.839 1.731 5.516 3.788 7.769 3.065 3.355 4.667 3.882 12.081 3.976 1.532.019 2.544.426 2.248.904-.295.478.364.634 1.465.346 1.1-.288 2.001-.969 2.001-1.514 0-.544-.788-.716-1.75-.381-1.459.508-1.427.36.191-.893 1.605-1.242 1.663-1.502.333-1.502-.884 0-1.784.531-2.001 1.18-.234.704-1.136.895-2.236.472-1.732-.664-1.74-.783-.124-1.965 1.608-1.175 1.585-1.379-.347-3.127-1.136-1.028-2.066-2.25-2.066-2.715 0-1.514 2.573-.891 4.77 1.155 2.642 2.462 3.944 2.533 4.541.25.251-.963.509-.287.573 1.5.064 1.787.52 3.25 1.013 3.25.494 0 .832 1.42.75 3.156-.123 2.65.295 3.277 2.615 3.916 1.864.514 3.201.322 4.115-.592 1.137-1.137 1.561-.965 2.657 1.084 1.463 2.734 2.966 3.208 2.966.936 0-.825.675-1.5 1.5-1.5s1.5.85 1.5 1.889c0 1.185.652 1.837 1.75 1.75.962-.076 1.634.433 1.493 1.132-.179.884.506 1.079 2.25.641 1.946-.488 2.507-.245 2.507 1.087 0 1.004.544 1.506 1.312 1.212.721-.277 2.409.34 3.75 1.37 1.341 1.031 3.027 1.885 3.747 1.897.762.013 1.008.544.59 1.272-.396.688-.367.932.064.543.432-.389 2.473.154 4.537 1.207 2.064 1.053 3.982 1.685 4.262 1.404.281-.28 1.461.7 2.624 2.178 1.204 1.531 2.127 2.092 2.144 1.303.022-.997.304-.917 1.005.284.535.918 3.109 2.47 5.719 3.449 2.61.978 5.011 2.162 5.336 2.631.324.468 1.497.92 2.605 1.003 1.109.083 2.01.623 2.003 1.2-.036 2.909.366 4.817.901 4.282.824-.823 7.742 2.888 10.577 5.675 2.719 2.673 12.457 9.578 13.564 9.619.418.015 1.973 1.266 3.456 2.78 1.483 1.513 4.408 3.362 6.5 4.109 2.092.747 4.929 1.817 6.304 2.377 1.375.56 3.288.92 4.25.799.962-.12 1.75.286 1.75.903s.474.829 1.053.471 1.87.291 2.867 1.441c.998 1.151 2.324 2.092 2.947 2.092.623 0 1.133.675 1.133 1.5 0 .833.889 1.5 2 1.5 1.1 0 2-.477 2-1.059s.457-.776 1.016-.431c.559.346.758 1.047.441 1.559-.316.512-.043.931.606.931.881 0 .865.382-.063 1.5-1.04 1.253-.896 1.5.878 1.5 1.167 0 2.122.439 2.122.975 0 .558 1.332.709 3.112.353 3.038-.608 3.096-.55 2.439 2.441-.521 2.369-.263 3.302 1.138 4.117.996.579 1.463 1.067 1.038 1.084-1.114.043 2.315 5.03 3.459 5.03 1.273 0 3.814 2.591 3.814 3.89 0 1.617 4.189 5.111 5.303 4.423.55-.34 1.562.15 2.249 1.089s2.193 1.778 3.348 1.865c1.155.087 2.1.568 2.1 1.068 0 .501.675.35 1.5-.335s1.5-.895 1.5-.467c0 1.227 4.131-2.817 5.14-5.033.849-1.864 4.703-7.647 6.704-10.06.484-.582 2.111-3.282 3.617-6 1.506-2.717 3.278-5.615 3.939-6.44 5.063-6.322 32.528-58.614 37.08-70.598 2.097-5.521 6.969-13.97 15.223-26.402 7.568-11.398 19.325-29.971 21.839-34.5 1.527-2.75 3.921-6.8 5.321-9 3.29-5.168 6.137-10.671 6.137-11.858 0-.514 1.688-3.457 3.75-6.538 2.063-3.082 4.902-7.854 6.31-10.604 5.389-10.524 11.462-21.266 15.832-28 2.498-3.85 5.039-7.9 5.647-9 2.963-5.357 4.136-7.212 6.211-9.823 1.237-1.557 2.25-3.403 2.25-4.104 0-.7 1.35-3.137 3-5.414 1.65-2.278 3-4.438 3-4.8 0-.363 2.181-4.079 4.846-8.259 2.665-4.18 6.8-11.425 9.188-16.1 7.729-15.126 19.202-35.46 20.878-37 3.928-3.61 6.257-8.235 6.801-13.507.37-3.584.195-5.493-.502-5.493-.587 0-1.683-.562-2.434-1.25-3.108-2.846-9.613-5.514-10.726-4.401-.801.801-1.635.767-3.062-.124-2.531-1.581-4.979-1.568-5.024.025-.02.688-.651.139-1.402-1.218-.752-1.357-1.149-3.832-.884-5.5.628-3.942-3.699-13.365-6.845-14.91-1.284-.63-2.96-2.561-3.724-4.29-.765-1.729-2.418-3.694-3.674-4.366-1.256-.672-2.53-2.206-2.832-3.408-.302-1.202-3.255-5.306-6.562-9.121-3.308-3.816-9.342-11.887-13.408-17.937-7.003-10.418-12.407-16.035-23-23.906-2.126-1.58-4.759-4.387-5.851-6.238-1.545-2.618-2.847-3.503-5.866-3.985-2.134-.342-3.637-1.015-3.34-1.496.298-.481.071-.875-.504-.875-.574 0-2.289-1.907-3.809-4.237-4.284-6.567-5.279-7.755-12.781-15.251-9.162-9.155-13.435-12.367-23.483-17.654-6.646-3.497-18.614-8.335-25.694-10.386-7.254-2.102-10.495-2.459-21.668-2.386-7.226.047-14.271.43-15.655.851m-38.66 210.358c-5.627 8.516-6.175 9.584-4.015 7.833.931-.755 1.692-1.767 1.692-2.248 0-.482 1.631-3.145 3.624-5.92 1.994-2.775 3.439-5.231 3.212-5.457-.227-.227-2.258 2.379-4.513 5.792m-9.796 16.25c-1.465 2.499-2.513 4.997-2.329 5.55.185.554 1.561-1.492 3.058-4.544 3.294-6.717 2.92-7.233-.729-1.006m-13.267 26.165c-.681 1.454-1.055 2.828-.831 3.053.602.601 2.755-3.718 2.386-4.786-.173-.501-.873.278-1.555 1.733m445.019 2.816c-2.863 1.294-6.138 4.395-14.074 13.325-4.961 5.583-14.001 17.821-15.991 21.649-1.143 2.2-3.212 5.194-4.596 6.652-2.944 3.102-9.618 13.314-9.618 14.717 0 .53-.382 1.114-.848 1.298-.467.183-2.022 2.452-3.457 5.042-2.325 4.195-6.517 11.225-13.466 22.58-1.249 2.041-2.567 4.386-2.927 5.211-.361.825-.978 1.725-1.372 2-1.907 1.331-20.499 37.895-21.356 42-.058.275-.375.95-.706 1.5-.955 1.589-6.32 11.412-10.103 18.5-1.908 3.575-4.871 8.75-6.585 11.5-1.714 2.75-4.096 6.8-5.293 9-1.196 2.2-3.236 5.392-4.531 7.094-1.296 1.702-2.356 3.467-2.356 3.922 0 .454-.643 1.537-1.429 2.405-2.02 2.233-12.571 22.918-12.571 24.646 0 .788-.394 1.433-.875 1.433s-1.5 1.237-2.264 2.75c-1.262 2.501-10.407 16.81-14.993 23.46-1.027 1.49-1.868 3.107-1.868 3.595 0 .487-.9 1.7-2 2.695-1.1.995-2 2.209-2 2.697s-.472 1.431-1.048 2.095c-.951 1.096-13.387 20.138-18.747 28.708-1.204 1.925-2.83 4.856-3.612 6.514-.782 1.657-2.948 5.257-4.813 8-1.865 2.742-4.402 7.011-5.638 9.486a1012.027 1012.027 0 0 1-5.619 11c-4.362 8.408-6.177 15.911-4.764 19.691.577 1.545 1.601 4.947 2.275 7.559.674 2.612 1.556 4.75 1.96 4.75.403 0 1.867 1.134 3.252 2.519 3.594 3.593 11.938 5.848 18.943 5.117 4.986-.519 5.764-.36 6.286 1.286.328 1.034 1.628 2.138 2.889 2.454 2.563.644 4.658 2.546 12.634 11.472 3.023 3.383 6.085 6.152 6.804 6.152 2.165 0 12.947 7.793 15.896 11.488 1.515 1.899 4.033 3.733 5.595 4.076 1.628.358 3.182 1.545 3.639 2.78.438 1.186 1.196 2.101 1.683 2.033 1.647-.228 3.874.99 6.513 3.562 1.446 1.408 3.246 3.025 4 3.592 2.596 1.951 12.929 6.469 14.796 6.469 2.189 0 16.958 6.817 18.921 8.734.739.722 2.764 2.042 4.5 2.933 1.735.891 4.146 2.68 5.357 3.976 1.397 1.495 3.336 2.357 5.3 2.357 1.703 0 4.466.708 6.138 1.572 1.672.865 3.632 1.346 4.356 1.068 1.069-.41 9.937 4.335 17.504 9.367.825.549 2.533 1.443 3.796 1.988 1.262.545 2.163 1.567 2 2.273-.162.706.38 2.081 1.205 3.056 3.662 4.329 6.167 6.676 7.128 6.676.571 0 2.688 1.6 4.704 3.556 5.195 5.039 6.383 6.019 8.851 7.306 3.317 1.728 7.154 1.367 9.591-.904 2.827-2.633 10.772-7.291 12.437-7.291.709 0 1.125-.163.927-.362-.199-.198 2.164-2.946 5.25-6.106 3.086-3.159 6.511-7.052 7.611-8.649 1.1-1.598 3.495-4.706 5.322-6.908s4.145-5.609 5.152-7.573c1.007-1.963 2.818-4.694 4.024-6.069s2.823-3.712 3.594-5.194c1.705-3.278 16.234-22.957 20.529-27.806 1.705-1.925 4.935-6.2 7.177-9.5 2.243-3.3 4.595-6.45 5.226-7 1.087-.947 6.824-9.592 12.94-19.5 1.527-2.475 3.814-5.625 5.081-7 1.268-1.375 4.205-5.875 6.527-10 2.323-4.125 6.744-11.356 9.826-16.068 7.936-12.138 7.859-12.014 10.208-16.432 1.17-2.2 2.709-4.675 3.421-5.5.711-.825 2.759-4.2 4.55-7.5s4.242-7.35 5.446-9c1.203-1.65 4.51-7.167 7.348-12.26s8.037-13.665 11.553-19.049c5.577-8.539 9.936-15.795 15.597-25.96.836-1.502 2.748-4.523 4.25-6.713 1.501-2.19 2.729-4.553 2.729-5.25 0-.697.337-1.27.75-1.273.413-.003 2.765-3.04 5.227-6.75 2.463-3.71 4.738-6.97 5.057-7.245.319-.275 2.44-3.124 4.714-6.33 7.11-10.027 21.002-23.88 28.75-28.669 6.859-4.239 9.88-11.111 5.497-12.503-6.196-1.966-9.943-8.636-6.471-11.518.838-.696 1.304-1.485 1.035-1.754-.269-.269-.064-1.283.455-2.252.663-1.24.523-2.113-.471-2.938-.778-.646-1.702-2.482-2.053-4.08-.351-1.599-.942-2.858-1.314-2.798-1.726.279-7.089-1.49-6.654-2.194.27-.436.15-.944-.266-1.129-.416-.184-2.191-3.101-3.944-6.481-3.65-7.038-9.42-13.349-14.097-15.419-1.974-.874-3.215-2.148-3.215-3.302 0-1.549-.261-1.662-1.487-.644-2.118 1.758-4.863.456-4.22-2.001.384-1.471.024-1.988-1.387-1.988-1.048 0-1.906.486-1.906 1.079 0 .696-1.155.829-3.25.375-3.398-.737-4.997-2.216-4.343-4.016.238-.656-.762-.893-2.619-.62-2.653.389-2.929.201-2.355-1.606.542-1.707.302-1.955-1.449-1.498-1.485.389-2.993-.366-5.16-2.582-1.684-1.723-3.882-3.132-4.886-3.132s-2.413-.824-3.131-1.83c-2.388-3.345-9.827-7.998-13.883-8.683-2.637-.445-4.539-1.496-5.578-3.081-.867-1.324-2.13-2.406-2.806-2.406-.677 0-2.028-.882-3.004-1.96-.976-1.078-2.126-1.866-2.555-1.75-.43.115-2.901-1.59-5.492-3.79-9.154-7.772-21.308-15.295-26.514-16.412-6.43-1.379-20.331-12.39-19.389-15.358.525-1.654.112-1.759-4.504-1.146-5.05.669-6.232-.034-3.929-2.337.871-.871.198-1.128-2.75-1.05-2.147.057-8.066-.639-13.153-1.547-5.088-.907-9.588-1.597-10-1.532-1.947.308-3.312-.208-2.79-1.054.595-.962-2.547-.227-7.701 1.801-4.936 1.942-8.003-.885-3.29-3.033 1.357-.618 2.217-1.531 1.91-2.028-.308-.497-2.099.27-3.981 1.706-3.037 2.316-3.589 2.442-4.917 1.114-.922-.923-1.112-1.734-.494-2.116.551-.341 1.467-1.488 2.035-2.549.945-1.765.811-1.846-1.56-.945-3.418 1.3-3.462 1.289-3.462-.895 0-3.028-5.909-8.117-9.44-8.13-1.683-.006-4.635-.215-6.56-.465-1.925-.25-4.95.201-6.721 1.002m-271.876 4.166c-2.047 2.792-4.718 9.326-4.076 9.969.185.185.959-.901 1.719-2.413.76-1.511 2.221-3.992 3.246-5.513 2.517-3.73 1.709-5.586-.889-2.043m-8.412 14.555a382.167 382.167 0 0 1-4.622 8.638c-4.224 7.618-1.989 5.393 3.398-3.381 2.844-4.633 4.776-8.668 4.293-8.967-.483-.299-1.864 1.371-3.069 3.71m-12.478 22.733c-2.432 3.851-3.39 6.411-1.673 4.47 1.571-1.777 5.326-8.45 4.754-8.45-.313 0-1.7 1.791-3.081 3.98m335.434 212.659c-1.403 3.692-.674 3.863 1.412.33 1.012-1.713 1.297-2.969.673-2.969-.595 0-1.533 1.187-2.085 2.639m-26.28 158.028c-.958.957-.823 4.333.172 4.333.462 0 1.353-1.125 1.979-2.5.9-1.975.864-2.5-.173-2.5-.721 0-1.612.3-1.978.667m-2.974 3.692c-.333.867-.145 1.861.417 2.209 1.557.962 2.189-.212 1.131-2.102-.842-1.505-1.008-1.516-1.548-.107m-11.811 12.391a5.707 5.707 0 0 0 0 1.5c.065.412-.316.75-.847.75-.53 0-1.504 1.013-2.164 2.25-1.131 2.124-1.091 2.166.715.75 3.768-2.953 5.501-6 3.414-6-.55 0-1.053.338-1.118.75m-20.842 7.702c-1.307 1.575-.526 5.548 1.09 5.548.548 0 .855-.831.683-1.846-.172-1.016.305-2.591 1.06-3.5 1.172-1.414 1.154-1.654-.128-1.654-.825 0-2.042.653-2.705 1.452m13.71 6.303c-3.755 2.519-5.097 6.245-2.25 6.245.825 0 1.5-.567 1.5-1.26 0-.693 1.171-2.523 2.601-4.066 3.424-3.692 2.769-4.017-1.851-.919m-8.75 2.304c0 1.132.45 1.781 1 1.441.55-.34 1-1.266 1-2.059 0-.793-.45-1.441-1-1.441s-1 .927-1 2.059" fill-rule="evenodd"/></svg>