<svg xmlns="http://www.w3.org/2000/svg" width="1240" height="1753"><path d="M293.97 38.514c-9.412.937-13.394 1.774-16 3.363l-3.47 2.116 2.809.003c5.382.007 1.622 1.852-5.07 2.486-3.706.352-8.089.84-9.739 1.084-2.667.395-2.751.336-.75-.529C265.791 45.29 264.198 44 258 44c-3.3 0-6 .337-5.999.75 0 .413-4.838.765-10.75.783-5.913.018-14.351.596-18.751 1.284-4.4.688-9.35 1.448-11 1.689-3.962.58-40.881.459-46-.15-2.2-.262-6.05-.639-8.556-.837-2.506-.198-7.231-.836-10.5-1.417-14.079-2.501-45.857-3.201-59.24-1.305C75.473 46.459 69 49 69 51.944c0 1.131-.42 2.056-.933 2.056-2.133 0-2.237 4.279-.171 7.074 1.157 1.565 2.136 3.876 2.174 5.136.071 2.292 1.727 7.09 1.86 5.385.038-.498.938-.12 1.998.84 1.287 1.165 2.659 1.513 4.126 1.048 1.489-.473 1.976-.341 1.512.41-.376.609-1.17 1.107-1.765 1.107-.594 0-1.649.777-2.343 1.726-1.07 1.464-.875 2.085 1.28 4.082 1.518 1.407 2.797 1.945 3.173 1.335.348-.561 1.972-1.289 3.61-1.617 5.182-1.037 19.542-1.437 18.98-.528C101.845 81.06 91.998 84 89.096 84 87.943 84 87 83.55 87 83s-.713-1-1.583-1c-.871 0-1.395.563-1.163 1.25.447 1.331-4.266 3.75-7.307 3.75-1.044 0-1.851.747-1.888 1.75-.159 4.231-.637 6.851-1.493 8.191-.609.954-.508 1.578.301 1.848.821.274.387 1.5-1.323 3.742-2.56 3.356-3.338 6.469-1.617 6.469.509 0 1.132-.787 1.384-1.75.344-1.317.486-1.193.573.5.182 3.521.077 3.769-1.457 3.454-1.797-.368-3.728 4.44-3.101 7.72.255 1.336-.11 3.003-.812 3.705-1.73 1.73-2.661.579-1.297-1.604.644-1.032.761-2.539.283-3.643-.448-1.035-.733-2.411-.631-3.057.101-.646-.279-1.46-.844-1.81-1.797-1.11-2.735 3.765-2.019 10.485.426 3.994.3 7.005-.328 7.809-.562.72-.979 3.645-.926 6.5L62.015 152c.095 5.387.488 8.657.908 7.554.689-1.811.784-1.781 1.364.436.343 1.311.357 4.325.032 6.697-.425 3.103-.239 4.313.662 4.313.735 0 1.048-.78.758-1.889-.272-1.039-.106-2.502.368-3.25.567-.894.868.021.878 2.667.009 2.556-.624 4.631-1.735 5.679-4.369 4.124-5.791 7.371-3.597 8.213.84.323 1.937.333 2.437.024.501-.309.91.59.91 1.997s.375 2.559.833 2.559c.459 0 .834 1.35.834 3 0 4.716-2.353 3.53-3.309-1.668-.472-2.567-1.416-4.853-2.098-5.08-.959-.319-1.127 2.244-.74 11.279.275 6.431.742 12.084 1.038 12.563.814 1.316 1.644 55.442.839 54.636-1.211-1.211-3.332 2.629-3.365 6.091-.018 1.827-.672 3.962-1.455 4.745-1.138 1.138-1.324 3.979-.925 14.179.275 7.015.873 13.938 1.329 15.383.825 2.612.479 17.175-.816 34.372-.838 11.116.247 51.628 1.71 63.921.595 4.993 1.523 17.404 2.062 27.579.539 10.175 1.42 21.2 1.958 24.5.538 3.3 1.748 15.532 2.688 27.181 1.796 22.252 1.508 52.62-.68 71.821-.564 4.949-1.212 12.373-1.439 16.498-.228 4.125-.656 9.862-.953 12.75-.296 2.888-.183 5.25.252 5.25.981 0 .836 61.221-.149 62.815-.392.635-.723 12.299-.736 25.92-.012 13.621-.438 27.803-.947 31.517-.508 3.713-.97 11.588-1.026 17.5-.055 5.911-.742 19.052-1.526 29.2-.784 10.149-1.455 22.074-1.491 26.5-.037 4.427-.108 11.198-.16 15.048-.051 3.85.228 11.725.621 17.5s.856 17.475 1.029 26c.173 8.525.364 16.175.424 17 .06.825-.171 9.15-.513 18.5-.699 19.077-.666 113.77.045 131.5.254 6.325.395 17.35.314 24.5-.225 19.745.211 56.429.843 71 .31 7.15.586 13.675.614 14.5.027.825-.22 7.835-.548 15.577-.371 8.721-.166 16.711.537 21 .625 3.808 1.486 12.773 1.914 19.923.865 14.46 1.591 21.573 2.96 29 1.832 9.936 2.944 82.215 1.306 84.865-.353.572-.743 7.586-.866 15.587s-.692 20.705-1.264 28.23c-.572 7.526-.808 15.176-.525 17 .283 1.825-.189 8.917-1.049 15.761-1.133 9.02-1.258 12.632-.453 13.129.77.476.704.821-.213 1.127-1.021.34-1.393 4.864-1.634 19.871-.172 10.686-.424 21.08-.56 23.096-.136 2.016-.014 3.523.272 3.348.285-.175.574 2.053.644 4.951.069 2.898.819 7.467 1.666 10.152.848 2.686 1.807 6.458 2.13 8.383.324 1.925 1.242 4.752 2.041 6.283.799 1.531 1.052 2.535.563 2.233-.489-.302-.246.74.54 2.315.786 1.576 1.631 4.861 1.878 7.3.246 2.439.865 6.29 1.375 8.558.509 2.267.725 5.852.479 7.967-.246 2.114.098 6.165.765 9.002.951 4.046.948 9.301-.014 24.386-.823 12.901-.894 19.434-.216 19.853 1.118.691 1.115 71.869-.003 73.609-1.242 1.932.322 6.494 2.226 6.494 1.371 0 1.9-.897 2.134-3.617l.31-3.618 1.944 2.161c1.64 1.822 1.679 2.058.25 1.51-1.325-.508-1.694-.082-1.694 1.957 0 1.434.477 2.607 1.059 2.607s.838.357.569.793c-.27.436-.749 3.924-1.065 7.75-.316 3.826-.833 8.194-1.149 9.707-.345 1.656-.143 2.75.507 2.75.593 0 1.079 1.575 1.079 3.5s.505 3.5 1.122 3.5c.781 0 .748.451-.109 1.484-.909 1.096-1.039 4.164-.497 11.741.608 8.497 1.082 10.559 2.762 12.016 1.115.968 1.509 1.759.875 1.759-1.987 0-1.264 1.468 1.597 3.242 1.896 1.175 2.233 1.713 1.083 1.731-.916.015-1.825-.449-2.019-1.03-.194-.582-1.064-.784-1.934-.451-1.137.437-1.863 2.912-2.583 8.808-.551 4.51-1.945 10.263-3.099 12.785-1.153 2.521-1.851 5.527-1.549 6.68.579 2.215 2.914 3.623 4.441 2.679.501-.309.91-.175.91.297s2.363.676 5.25.452c2.888-.224 7.95-.538 11.25-.698 3.3-.16 7.297-.798 8.882-1.418 1.585-.62 3.779-.843 4.875-.495 1.135.36 1.744.229 1.415-.303-.332-.537 1-.794 3.125-.603 5.623.506 6.318.494 11.703-.188 2.75-.349 5.98-1.11 7.178-1.691 1.214-.59 3.426-.734 5-.326 4.575 1.186 11.724 1.333 13.074.268.689-.544 2.627-.713 4.307-.377 1.996.399 3.893.06 5.48-.98 1.912-1.253 3.062-1.368 5.422-.546 1.853.647 3.217.685 3.578.102.357-.578 1.364-.525 2.6.136 1.109.594 2.628.846 3.375.559.746-.286 1.55.017 1.786.673.257.717 1.314.091 2.644-1.566 1.219-1.517 2.621-2.509 3.115-2.203.495.305 1.747.102 2.782-.452 1.365-.73 2.402-.614 3.771.422 2.465 1.866 3.388 1.848 3.388-.066 0-.922.471-1.268 1.152-.847.633.391 1.758-.118 2.5-1.132.844-1.155 1.348-1.353 1.348-.531 0 1.001.327 1.042 1.373.174.756-.627 2.179-.83 3.164-.452 1.362.522 1.593.346.967-.733-.489-.842-.454-1.081.086-.587.5.459.91 1.321.91 1.917 0 .596.563 1.271 1.251 1.5.718.24 1.033-.15.739-.916-.394-1.027 1.036-1.347 6.217-1.391 6.262-.053 6.777-.227 7.412-2.5.587-2.104.712-2.166.9-.443.12 1.1.145 2.395.057 2.878-.089.483.736.643 1.833.356 1.098-.287 2.129-.137 2.293.333.317.91 6.638 1.292 10.789.652 1.768-.272 2.794.222 3.531 1.699 1.017 2.037 4.653 2.688 13.478 2.415 11.617-.359 18.171.21 19.219 1.667.47.652 1.408.574 2.696-.225 1.585-.982 2.806-.932 6.157.25 2.299.811 5.248 1.475 6.554 1.475s2.374.413 2.374.918c0 .506 2.813.886 6.25.846 5.056-.06 6.312.243 6.573 1.581.712 3.64 8.693.183 10.436-4.519.679-1.833 7.45-5.45 8.408-4.492.328.328 1.392.17 2.365-.351 1.282-.686 1.923-.544 2.33.518.927 2.416 3.495.558 3.921-2.836.378-3.012.405-2.984.557.585.157 3.691 2.085 5.413 2.239 2 .047-1.045.282-1.247.583-.5.776 1.923 2.024 1.488 2.87-1 2.095-6.161 2.263-6.41 2.368-3.5.055 1.513.536 2.75 1.069 2.75.532 0 .709.675.393 1.5-.37.963.02 1.5 1.09 1.5 1.007 0 1.383.458.951 1.158-.491.793-.037.98 1.441.593 1.186-.31 2.156-.156 2.156.343 0 .498.675.906 1.5.906s1.447-.338 1.382-.75c-.066-.412-.03-1.65.079-2.75.162-1.647.374-1.514 1.201.75.553 1.513 1.315 2.75 1.694 2.75 1.447 0 4.117-6.729 4.761-12 .608-4.978 2.679-9.886 3.902-9.25 2.155 1.12 4.358-.284 6.277-4 1.206-2.337 2.597-4.925 3.091-5.75.494-.825 1.85-5.55 3.015-10.5 2.238-9.511 2.936-27.936 1.184-31.264-.503-.955-1.659-10.736-2.568-21.736-.91-11-2.327-23.15-3.149-27-.823-3.85-1.897-16.225-2.388-27.5-.491-11.275-.988-22.3-1.104-24.5-.171-3.231.415-30.321 1.557-72 .425-15.537-1.192-61.503-2.207-62.726-1.855-2.235-3.548-62.387-1.781-63.256.681-.335.61-.725-.202-1.103-.691-.322-.968-1.052-.616-1.623.353-.57.799-23.819.992-51.664.193-27.846.67-51.978 1.059-53.628.389-1.65.822-9.3.962-17 .258-14.185 1.231-44.323 2.051-63.5.247-5.775.682-22.65.968-37.5.285-14.85.842-27.341 1.236-27.757.395-.417 9.693-1.008 20.661-1.315 10.969-.306 25.118-.782 31.443-1.057 6.325-.274 22.75-.594 36.5-.71 27.042-.228 49.186-1.265 59.5-2.785 12.169-1.794 27.461-2.705 56.463-3.364 15.93-.361 29.205-.806 29.5-.988 1.508-.93 26.002-2.877 44.537-3.541 22.313-.799 61.993-4.305 67-5.92 1.65-.532 5.475-1.266 8.5-1.632 6.52-.788 31.891-6.896 37.267-8.973 2.073-.801 5.448-1.856 7.5-2.345 2.053-.489 9.666-2.52 16.917-4.513 7.25-1.993 14.45-3.78 16-3.971 1.549-.191 4.614-1.109 6.812-2.04 2.198-.931 8.718-3.306 14.49-5.278 5.772-1.972 10.949-4.164 11.504-4.87 1.955-2.485 8.612-5.441 12.29-5.457 2.146-.01 5.413-1.043 7.72-2.442 7.703-4.669 22.538-11.542 24.914-11.542.637 0 6.768-2.909 13.623-6.465A3998.808 3998.808 0 0 1 917 981.719c6.875-3.493 15.451-8.176 19.058-10.407 3.607-2.23 7.503-4.355 8.658-4.722 1.156-.367 3.604-2.003 5.442-3.636 3.634-3.228 6.062-4.91 27.919-19.334 8.017-5.291 14.915-9.62 15.328-9.62.414 0 3.305-2.181 6.424-4.848 3.119-2.666 8.286-6.378 11.482-8.25 10.62-6.217 12.65-7.517 14.928-9.564 1.244-1.116 5.186-4.091 8.761-6.61 3.575-2.52 8.977-6.976 12.005-9.904 3.028-2.928 9.083-8.249 13.457-11.824 7.51-6.139 11.789-10.308 37.753-36.782 5.894-6.01 10.882-10.654 11.086-10.322.204.332.203-.041-.003-.828-.34-1.297 4.215-8.599 7.416-11.889 1.128-1.16 1.494-2.626 1.201-4.817-.047-.351.515-1.01 1.25-1.464.734-.454 1.347-1.179 1.361-1.612.015-.432 1.242-2.833 2.727-5.335 3.54-5.962 17.747-35.61 17.747-37.036 0-.608.91-2.384 2.022-3.945 1.112-1.562 1.908-3.207 1.77-3.655-.138-.448.602-2.84 1.645-5.315a337.769 337.769 0 0 0 3.611-9c.942-2.475 4.052-10.35 6.908-17.5 2.857-7.15 5.372-14.373 5.588-16.051.216-1.679 2.835-10.454 5.821-19.5 6.219-18.848 7.394-22.971 8.086-28.374.273-2.137 1.16-6.178 1.971-8.98 3.146-10.877 3.741-22.917 3.697-74.756-.041-47.306-.211-52.489-2.016-61.5-2.994-14.946-3.159-15.902-5.109-29.63-1-7.035-2.237-13.335-2.751-14-.513-.665-1.444-3.234-2.069-5.709-.625-2.475-2.973-11.475-5.217-20-3.564-13.539-4.462-16.638-5.505-19-.122-.275-.55-1.512-.953-2.75-.403-1.238-1.156-2.25-1.675-2.25-.518 0-.69-.408-.382-.906.711-1.151-4.391-16.709-8.065-24.594-1.538-3.3-2.896-6.675-3.017-7.5-.121-.825-1.118-3.3-2.216-5.5-3.071-6.158-5.116-11.077-7.626-18.344-3.852-11.149-10.55-26.156-11.675-26.156-.376 0-.987-1.38-1.358-3.068-.37-1.687-1.304-3.309-2.074-3.604-.77-.296-1.151-.94-.846-1.433.304-.492.132-.895-.383-.895s-1.894-2.137-3.065-4.75c-1.17-2.613-3.238-6.55-4.595-8.75-1.357-2.2-3.131-5.462-3.943-7.25-.812-1.788-1.837-3.255-2.278-3.26-.441-.006-1.899-2.481-3.242-5.5-1.343-3.02-2.775-5.49-3.183-5.49-.408 0-1.06-1.004-1.449-2.231-.661-2.08-4.169-7.642-5.532-8.769-.332-.275-4.696-5.9-9.697-12.5-5.001-6.6-10.242-13.218-11.646-14.706-1.403-1.489-2.552-3.026-2.552-3.416 0-.391-.662-1.423-1.472-2.294-5.927-6.379-7.528-8.209-7.528-8.601 0-.246-2.072-2.593-4.605-5.215-2.533-2.623-6.221-6.793-8.196-9.268-1.974-2.475-5.189-6.08-7.144-8.012-1.955-1.931-6.03-6.386-9.055-9.9-6.949-8.071-16.033-17.088-17.215-17.088-.496 0-.678-.363-.404-.808.275-.444-.711-1.681-2.191-2.75-1.479-1.068-6.609-5.767-11.4-10.442-9.729-9.495-13.311-12.766-21.592-19.717-3.134-2.631-6.021-5.28-6.416-5.886-.394-.607-3.319-3.068-6.5-5.469-3.18-2.401-7.85-6.05-10.377-8.11-2.528-2.06-6.915-4.91-9.75-6.334-2.835-1.424-5.155-2.961-5.155-3.415 0-.455-1.463-1.405-3.25-2.112-1.788-.708-3.925-1.829-4.75-2.492-2.079-1.671-10.087-6.096-19-10.499-11.67-5.764-14.952-7.113-15.893-6.532-.478.295-2.51-.575-4.514-1.936-2.005-1.36-4.871-2.775-6.369-3.143-1.498-.369-5.255-1.95-8.348-3.513-3.093-1.563-6.018-2.845-6.5-2.848-.482-.004-2.226-.728-3.876-1.609-3.648-1.95-14.745-5.389-19.388-6.01-1.864-.249-4.236-.906-5.271-1.46-1.035-.554-2.323-.735-2.862-.402-.538.333-.979.134-.979-.442 0-.971-7.627-2.777-8.23-1.95-.149.204-1.723-.664-3.499-1.928-3.465-2.467-4.938-2.945-12.917-4.19-6.837-1.066-9.354-1.921-9.354-3.177 0-.572-.661-.786-1.468-.477-.807.31-1.753.103-2.101-.461-.348-.563-1.225-.797-1.947-.52-.723.277-3.715-.435-6.649-1.582s-8.26-2.719-11.835-3.493c-12.513-2.709-14-3.212-14-4.738 0-1.31-8.294-3.555-13.135-3.555-1.641 0-2.734-.403-2.43-.895.305-.493-.12-1.154-.944-1.47-3.337-1.281-19.378-3.616-20.879-3.039-.887.34-1.612.12-1.612-.489S725.688 63 724.083 63c-1.604 0-3.067-.453-3.252-1.006-.537-1.612-12.608-3.424-14.17-2.127-.785.651-1.679.722-2.235.178-.814-.798-6.38-1.78-28.426-5.02-3.025-.444-7.3-1.277-9.5-1.851-2.2-.574-5.35-1.247-7-1.496-1.65-.248-5.812-.953-9.25-1.565-16.086-2.865-18.321-3.187-19.037-2.745-.421.261-3.454-.174-6.739-.964-3.286-.791-9.124-1.626-12.974-1.856-3.85-.23-11.275-.868-16.5-1.418-13.393-1.41-27.414-1.546-67.5-.657-44.555.988-59.059.819-75-.874-3.3-.35-9.6-1.008-14-1.463-10.141-1.047-63.043-.321-66.876.918-1.581.511-4.506.723-6.5.472-1.993-.252-8.733-.701-14.977-.997-6.244-.296-11.767-.794-12.273-1.107-.506-.313-6.561-.731-13.455-.929-6.894-.197-13.746-.555-15.227-.793-1.48-.239-8.331.127-15.222.814M258 52.066c-2.475.458-5.85 1.3-7.5 1.873l-3 1.041 3.5-.481c1.925-.265 6.087-.773 9.25-1.129 3.163-.356 5.75-1.035 5.75-1.509 0-.996-1.736-.952-8 .205m18 .694c0 .601-.788 1.299-1.75 1.551-.962.251-.175.502 1.75.558 1.925.055 3.05-.235 2.5-.646a12.294 12.294 0 0 1-1.75-1.651c-.428-.517-.75-.436-.75.188m13.75.983c3.988.189 10.512.189 14.5 0 3.988-.19.725-.346-7.25-.346s-11.238.156-7.25.346m-28.173 2.132c-.297.481 1.589.669 4.191.417 6.886-.666 7.466-1.123 1.541-1.213-2.855-.043-5.434.315-5.732.796m-4.077 9.602c-3.939 1.013-4.363 1.294-2 1.327 1.65.023 4.8-.551 7-1.276 5.14-1.694 1.536-1.731-5-.051M86.352 74.993c-1.181.477-2.459 1.371-2.84 1.988-.621 1.004 6.15-1.31 7.353-2.513.757-.757-2.183-.415-4.513.525M65.374 208.654c.272 3.215.538 8.096.591 10.846.065 3.395.379 4.517.978 3.494 1.101-1.878 1.682-11.703.747-12.637-.379-.38-.69-1.939-.69-3.465 0-1.526-.477-3.069-1.061-3.429-.721-.446-.902 1.214-.565 5.191M1020 273.629c0 .346 1.471 2.258 3.27 4.25 1.798 1.991 3.936 4.549 4.75 5.682 2.959 4.121 4.086 3.552 1.377-.696-4.437-6.959-9.397-11.834-9.397-9.236M63.272 281c0 2.475.195 3.488.434 2.25.238-1.238.238-3.262 0-4.5-.239-1.238-.434-.225-.434 2.25m.61 15.083c-.066 1.33-.01 2.867.124 3.417.133.55.234 5.275.225 10.5-.013 7.137.189 8.629.81 6 .854-3.61.457-20.835-.502-21.794-.296-.297-.592.548-.657 1.877m357.618 9.85c-1.65.382 2.625.519 9.5.304 6.875-.216 12.95-.547 13.5-.736 1.942-.667-20.043-.255-23 .432M70 313.167c0 .458.417.833.927.833.509 0 1.132.788 1.384 1.75.3 1.148.497.861.573-.833.075-1.682-.408-2.584-1.384-2.584-.825 0-1.5.375-1.5.834m466.713 12.453c-.891.891-28.673 2.456-51.213 2.886-14.85.282-28.35.699-30 .925-1.65.227-20.1.736-41 1.132-20.9.396-38.949 1.072-40.11 1.501-2.998 1.108-3.29 4.236-3.498 37.436-.184 29.406-.558 35.906-3.246 56.5-.826 6.325-1.784 17.125-2.13 24-.346 6.875-1.037 15.875-1.536 20-.967 7.991-1.678 34.833-2.572 97-.781 54.267-1.087 66.74-2.21 90-.544 11.275-1.068 25.432-1.165 31.46-.096 6.029-.338 11.224-.537 11.546-.545.882-.405 22.4.267 40.994.328 9.075.598 20.438.6 25.25.002 4.813.36 8.75.794 8.75.435 0 .915 6.845 1.067 15.21l.276 15.21 3.457.706c1.901.388 15.626.969 30.5 1.291 14.874.322 33.568.922 41.543 1.334 7.975.412 30.475.572 50 .355 19.525-.216 41.013-.309 47.75-.207 6.87.105 12.25-.214 12.25-.727 0-.94 6.323-2.023 16-2.74 3.025-.224 8.2-.828 11.5-1.343 3.3-.515 8.025-.901 10.5-.858 16.956.292 76.671-2.641 86-4.223 3.575-.607 10.775-1.8 16-2.651 16.891-2.751 25.472-4.544 26.758-5.591.693-.564 2.878-.762 4.856-.441 3.003.487 3.682.261 4.108-1.371.358-1.369 1.375-1.954 3.395-1.954 1.585 0 2.883-.352 2.883-.782 0-.846 6.199-2.766 12.299-3.809 2.09-.358 4.418-1.269 5.175-2.026 1.396-1.396 5.6-3.272 8.766-3.912.957-.194 2.982-1.031 4.5-1.86 5.679-3.101 7.865-3.868 11.76-4.122 5.139-.337 12.02-2.247 16.636-4.62 2-1.028 4.125-1.869 4.723-1.869.597 0 3.461-1.083 6.364-2.407 2.902-1.324 7.415-3.186 10.027-4.136 2.612-.951 4.75-2.118 4.75-2.593 0-.475.469-.864 1.042-.864 1.165 0 1.718-.429 9.653-7.5 9.976-8.889 13.15-12.553 17.916-20.68.611-1.042 2.073-2.92 3.25-4.172 1.176-1.252 2.139-2.81 2.139-3.462 0-.653.46-1.186 1.021-1.186.562 0 1.566-1.237 2.23-2.75.665-1.513 1.469-2.975 1.787-3.25.318-.275 1.262-1.502 2.098-2.727 1.81-2.651 7.453-9.171 22.59-26.101 6.174-6.905 11.036-12.744 10.804-12.975-.232-.232.935-1.834 2.593-3.559 3.925-4.086 10.657-13.867 12.377-17.984 1.54-3.687 2.446-11.124 2.941-24.154.188-4.95.686-17.437 1.107-27.75.49-11.986.416-18.75-.205-18.75-1.184 0-.741-8.908 1.121-22.5 1.612-11.767 1.885-22.373.615-23.909-.496-.6-1.345-3.341-1.887-6.091-3.444-17.471-8.816-33.631-16.295-49.02-3.142-6.465-5.93-10.937-6.992-11.215-2.285-.598-3.344-3.37-1.689-4.42 1-.634 1.007-.818.034-.83-.687-.008-1.25-.664-1.25-1.458 0-.794-.919-2.087-2.042-2.874-1.123-.787-1.911-2.05-1.75-2.807.169-.796-.393-1.264-1.333-1.111-1.779.29-4.738-3.608-5.826-7.675-.38-1.42-1.343-2.584-2.141-2.586-1.497-.004-8.908-7.055-8.908-8.475 0-.439-1.145-1.55-2.546-2.467-1.4-.917-3.024-2.72-3.61-4.005-.586-1.286-2.14-2.913-3.454-3.616-1.315-.703-2.39-1.878-2.39-2.61s-.409-1.331-.908-1.331c-.5 0-2.992-2.025-5.539-4.5-2.546-2.475-5.284-4.5-6.083-4.5-.799 0-2.015-.9-2.702-2-.687-1.1-1.546-2-1.908-2-1.814 0-13.86-9.064-13.86-10.429 0-1.195 2.703-.499 4.574 1.179a73.827 73.827 0 0 0 3.939 3.25c1.847 1.394 1.889 1.375.598-.27-2.536-3.231-14.477-10.998-24.611-16.007-10.471-5.176-19.934-8.892-35-13.744a9447.488 9447.488 0 0 1-18.5-5.986c-17.676-5.744-31.815-9.293-42-10.542-3.025-.372-10.675-1.778-17-3.126-14.909-3.176-21.183-4.246-28.335-4.835-3.21-.264-8.385-1.128-11.5-1.921-3.116-.794-9.265-1.931-13.665-2.529-4.4-.598-11.825-2.011-16.5-3.14-4.675-1.129-10.975-2.453-14-2.941-3.025-.489-8.425-1.38-12-1.982-3.575-.601-13.475-1.472-22-1.936-8.525-.463-16.85-1.405-18.5-2.094-2.697-1.125-13.213-2.9-13.787-2.327M76 376.333c0 4.925.418 8.667.969 8.667.883 0 .314-15.851-.608-16.917-.199-.229-.361 3.484-.361 8.25m-6.815 6.898c-.172 2.877-.123 5.015.11 4.75.812-.922 1.661-9.981.936-9.981-.402 0-.873 2.354-1.046 5.231m874.29 6.435c.334 1.191.138 2.455-.434 2.809-1.606.992-1.231 2.535.459 1.887 1.737-.667 1.934-3.198.419-5.362-.831-1.187-.924-1.048-.444.666m-872.668 17.88c.286 11.598 1.318 15.811 2.438 9.954.263-1.375.203-2.502-.134-2.504-.336-.002-.74-4.159-.898-9.237-.158-5.078-.608-9.555-1-9.95-.392-.394-.575 4.888-.406 11.737m799.766 37.219c.59.404 1.363 1.523 1.719 2.485.355.962 1.12 1.75 1.7 1.75.583 0 .323-1.116-.584-2.5-.901-1.375-2.149-2.493-2.773-2.485-.791.011-.81.238-.062.75M87 546.441c0 1.343-.45 2.719-1 3.059-.55.34-1 1.068-1 1.618s.421.74.935.422c.515-.318 1.118.893 1.34 2.691.223 1.798.477.231.565-3.481.088-3.712-.065-6.75-.34-6.75s-.5 1.098-.5 2.441m-.561 95.366c.443 1.398.081 2.375-1.145 3.088-1.889 1.1-1.877 1.105 2.406 1.105 1.281 0 .722-5.359-.605-5.802-.914-.304-1.11.178-.656 1.609M899.5 770.355c-1.65 1.18-3.138 2.784-3.306 3.564-.265 1.226-.066 1.226 1.456 0 5.627-4.529 7.059-7.288 1.85-3.564m-10.928 8.776c-1.06 1.031-3.63 2.66-5.712 3.621-2.081.962-4.002 2.285-4.269 2.941-.266.655 1.854-.171 4.712-1.837 5.478-3.193 8.372-5.545 7.637-6.203-.242-.217-1.307.448-2.368 1.478M76.287 811.038c-.121 1.736.199 2.779.75 2.439 1.129-.697 1.314-5.478.213-5.475-.412.001-.846 1.367-.963 3.036m675.213-1.547c-2.2.734-5.291 1.62-6.868 1.97-1.577.35-2.669.835-2.426 1.079.643.642 12.121-2.471 13.244-3.592 1.146-1.144 1.086-1.135-3.95.543m82.5 3.515c-1.925 1.05-4.76 2.43-6.301 3.067-1.541.637-2.582 1.377-2.314 1.645.473.473 9.591-3.627 12.615-5.673 2.573-1.74-.324-1.045-4 .961M796.5 1017l-2 .859 2 .055c1.1.031 2.675-.381 3.5-.914 1.333-.862 1.333-.963 0-.914-.825.03-2.4.441-3.5.914m-603.228 223c0 2.475.195 3.487.434 2.25.238-1.237.238-3.263 0-4.5-.239-1.237-.434-.225-.434 2.25m0 33c0 2.475.195 3.487.434 2.25.238-1.237.238-3.263 0-4.5-.239-1.237-.434-.225-.434 2.25M76 1394.941c0 1.132.45 2.059 1 2.059s1-.648 1-1.441-.45-1.719-1-2.059c-.55-.34-1 .309-1 1.441M68.32 1405c0 3.575.182 5.037.403 3.25.222-1.787.222-4.713 0-6.5-.221-1.787-.403-.325-.403 3.25m-3.403-2.5c-.388 2.327-.118 7.633.416 8.167.367.366.667-1.434.667-4 0-2.567-.225-4.667-.5-4.667a.617.617 0 0 0-.583.5m10.934 7.092c.201 2.526.708 4.213 1.126 3.75.877-.969.131-8.342-.844-8.342-.356 0-.483 2.066-.282 4.592m-8.169 4.452c-.837 1.195-1.966 1.898-2.509 1.563-.547-.338-.816.17-.604 1.142.21.963.601 4.901.869 8.751.727 10.453 1.32 14.652 2.393 16.939.531 1.133 1.416 3.636 1.965 5.561l1 3.5.102-3.007c.056-1.653-.323-4.489-.843-6.302-.742-2.587-.634-3.415.5-3.85.797-.306 1.4-1.74 1.345-3.198l-.099-2.643-.763 2.5c-.668 2.191-.856 2.279-1.522.713-.479-1.129-.184-2.422.799-3.509 1.301-1.437 1.426-3.172.759-10.492-.44-4.824-1.04-9.012-1.335-9.306-.294-.294-1.22.443-2.057 1.638M83.272 1429c0 2.475.195 3.487.434 2.25.238-1.237.238-3.263 0-4.5-.239-1.237-.434-.225-.434 2.25m-16.605.667c-1.365 1.364-.598 2.462 1.505 2.153 2.748-.405 3.671-2.82 1.078-2.82-1.054 0-2.217.3-2.583.667m3.732 23.737c-1.036 2.698.162 4.285 1.436 1.904.772-1.441.826-2.399.161-2.811-.556-.343-1.274.065-1.597.907m8.853 142.096c.011 2.2.216 2.982.455 1.738.239-1.244.23-3.044-.02-4s-.446.062-.435 2.262" fill-rule="evenodd"/></svg>