<svg xmlns="http://www.w3.org/2000/svg" width="1240" height="1753"><path d="M377 41.977c-3.025.431-7.975 1.3-11 1.933-3.025.632-10.9 1.832-17.5 2.667-6.6.834-14.925 2.163-18.5 2.954-3.575.79-11.9 2.545-18.5 3.899-13.801 2.832-23.153 5.478-43.5 12.307-21.018 7.055-24.46 9.039-37.991 21.901-6.893 6.551-12.516 10.042-19.009 11.801-3.964 1.073-10 3.802-10 4.52 0 .361-1.687 1.405-3.75 2.32-3.234 1.435-9.792 6.146-15.375 11.045-.894.784-2.1 1.595-2.681 1.801-1.108.394-7.015 5.13-13.249 10.625-2.028 1.787-4.113 3.25-4.632 3.25-.52 0-2.299 1.463-3.953 3.25s-7.024 7.156-11.934 11.93C137.575 155.816 130 163.848 130 164.538c0 .344-7.604 8.846-14.361 16.056-8.772 9.362-14.959 17.91-30.379 41.972-.681 1.064-2.148 3.509-3.26 5.434a487.739 487.739 0 0 1-2.922 5C74.65 240.368 66 265.753 66 271.379c0 1.377-.374 2.734-.831 3.016-1.118.692-2.822 9.063-4.194 20.605-1.485 12.499-3.817 26.61-5.139 31.106-.796 2.705-.746 4.194.201 5.963l1.261 2.357.819-2.213c1.018-2.753 1.88-2.917 1.176-.224-.578 2.209 1.742 11.107 2.736 10.493.346-.214.519.602.384 1.814a92.445 92.445 0 0 0-.36 4.204c-.103 1.812-.207 1.839-1.11.292-1.778-3.05-3.943-.955-3.943 3.815 0 3.005-.423 4.393-1.34 4.393-3.216 0-5.259 17.18-3.22 27.074.671 3.259.878 5.926.458 5.926-.86 0-1.507 1.884-2.407 7-.478 2.72-.155 3.992 1.447 5.708 1.134 1.215 2.062 2.812 2.062 3.55s.555 1.897 1.232 2.574c1.127 1.127 3.399 17.496 4.117 29.668.327 5.537 1.517 10.5 2.517 10.5.356 0 .484 2.073.282 4.607-.287 3.605.129 5.276 1.911 7.687 2.3 3.111 3.17 6.168 4.932 17.335.531 3.371 1.454 7.411 2.049 8.977.596 1.566 1.724 5.895 2.507 9.619.784 3.725 3.006 11.449 4.939 17.165C80.419 520.106 82 525.28 82 525.888c0 1.999 10.317 24.472 14.45 31.474 2.227 3.774 6.203 9.399 8.835 12.5 2.632 3.101 6.12 7.213 7.751 9.138 1.631 1.925 4.355 5.3 6.054 7.5 4.038 5.23 34.955 35.769 46.57 46 8.747 7.704 17.101 13.229 31.714 20.973 3.78 2.004 7.83 4.262 9 5.018 3.746 2.422 35.812 15.556 45.126 18.483 17.696 5.56 27.099 7.88 33.577 8.284 3.617.225 7.107.738 7.756 1.139.648.401 3.089.747 5.423.769 2.363.023 5.02.729 5.994 1.593 1.094.97 1.75 1.118 1.75.396 0-.635.477-1.155 1.059-1.155s.803.414.491.919c-1.153 1.865 6.506 3.311 13.88 2.62 5.23-.49 8.925-.243 13.3.891 3.332.864 7.312 1.57 8.843 1.57 1.532 0 4.167.419 5.856.932 4.169 1.266 40.963 3.969 46.571 3.422 9.886-.964 25.614-3.615 27.5-4.636 1.1-.595 3.084-1.202 4.409-1.349 1.325-.146 2.675-.627 3-1.068.325-.44 2.616-.959 5.091-1.152 2.475-.193 4.95-.696 5.5-1.118.55-.422 4.15-1.322 8-2 10.903-1.919 20.345-4.993 34-11.071 2.75-1.224 5.9-2.326 7-2.45 1.1-.123 4.7-1.012 8-1.976 5.692-1.662 11.188-2.678 14.5-2.68 2.761-.001 9.088-3.181 8.643-4.343-.285-.74 1.162-1.231 4.076-1.382 2.484-.128 6.601-.7 9.149-1.27 2.547-.571 6.023-1.003 7.722-.961 3.97.097 23.83-9.957 34.744-17.59 4.491-3.141 8.391-5.999 8.666-6.352.275-.353 2.525-2.195 5-4.093 6.776-5.196 35.671-34.234 43.346-43.56 3.71-4.509 7.632-8.479 8.715-8.822 1.082-.344 1.72-1.026 1.417-1.517-.303-.49.296-1.738 1.332-2.774 1.997-1.997 15.134-16.722 19.246-21.573 1.344-1.586 3.047-3.506 3.784-4.268.737-.762 2.945-3.74 4.908-6.617 1.962-2.878 4.172-5.592 4.91-6.032.738-.44 1.342-1.212 1.342-1.716s1.715-3.571 3.812-6.815c5.259-8.136 10.594-19.32 13.2-27.669.687-2.2 1.583-4.45 1.992-5 .409-.55 1.069-3.25 1.467-6 .398-2.75 1.011-5.45 1.361-6 .351-.55.678-1.225.727-1.5.05-.275.425-2.75.834-5.5s1.111-5.9 1.559-7c.449-1.1 1.363-5.6 2.031-10 .668-4.4 1.676-8.563 2.239-9.251.564-.688 1.183-5.83 1.376-11.425.193-5.596.733-10.433 1.2-10.749.896-.607 2.497-3.888 2.72-5.575.073-.55.491-9.889.929-20.753.77-19.074.721-19.928-1.41-24.882-1.606-3.733-2.342-7.881-2.704-15.247-.275-5.565-.875-11.58-1.335-13.368-.494-1.917-.46-3.25.083-3.25.505 0 .958.563 1.005 1.25.158 2.304 2.034-4.712 2.072-7.75.02-1.65-.044-3.225-.144-3.5-.099-.275-.393-2.75-.652-5.5-.26-2.75-1.32-8.632-2.356-13.072-1.036-4.44-2.166-12.274-2.511-17.409-.345-5.135-1.241-11.178-1.992-13.428-.75-2.25-2.09-7.016-2.977-10.591-1.812-7.301-6.81-22.189-9.737-29a2771.363 2771.363 0 0 1-3.42-8c-6.554-15.435-26.07-49.357-40.273-70-7.539-10.959-6.191-9.342-17.016-20.399-4.631-4.731-8.928-8.601-9.547-8.601-.62 0-2.906-1.852-5.08-4.116-2.174-2.264-5.303-4.785-6.953-5.602-7.105-3.517-11.946-6.203-11.25-6.241 1.023-.056-2.003-2.997-6.766-6.577-6.456-4.851-7.631-5.796-11.902-9.57-8.851-7.818-41.464-28.137-55.164-34.368a1516.655 1516.655 0 0 1-9.918-4.556c-4.73-2.204-19.917-7.535-27-9.477-2.75-.754-6.996-2.083-9.436-2.953-7.006-2.5-17.193-4.634-19.15-4.013-.984.313-2.605.128-3.601-.409-2.275-1.226-17.734-4.12-22.004-4.119-1.755.001-3.469-.449-3.809-.999-.34-.55-1.897-1-3.46-1s-7.948-.861-14.191-1.914c-13.689-2.308-28.375-3.172-35.849-2.109m696.623 127.389c-.406 1.618-2.098 3.017-5.347 4.424-2.614 1.131-4.983 1.71-5.264 1.285-.647-.976-4.082-.997-3.479-.022.244.396-.45.954-1.543 1.239-1.094.286-2.217.15-2.496-.302-.28-.453-2.064-.699-3.965-.549-1.902.151-3.594-.137-3.762-.64-.168-.504-1.081-.618-2.03-.253-.949.364-1.465 1.082-1.148 1.597.318.514-2.243 3.504-5.691 6.645-3.449 3.14-6.974 6.555-7.834 7.589-.86 1.033-3.954 4.633-6.876 8-2.922 3.366-6.452 8.033-7.845 10.371-1.393 2.338-2.843 4.25-3.222 4.25-.38 0-1.55 1.463-2.601 3.25-1.685 2.865-16.825 21.875-21.702 27.25-.999 1.1-5.024 6.05-8.946 11-3.922 4.95-8.854 10.8-10.96 13-2.105 2.2-5.31 6.123-7.12 8.717-4.41 6.319-14.323 18.314-19.003 22.994-2.084 2.084-3.789 4.04-3.789 4.346 0 .307-3.561 4.245-7.914 8.75-12.409 12.846-15.892 16.692-21.904 24.193-3.087 3.85-7.202 8.83-9.147 11.066-4.255 4.894-7.461 8.817-21.603 26.434-5.96 7.425-11.362 13.95-12.005 14.5-.642.55-3.325 3.7-5.962 7-2.636 3.3-5.318 6.45-5.959 7-.641.55-3.604 3.925-6.585 7.5-2.982 3.575-7.334 8.686-9.671 11.358-3.96 4.527-5.357 7.642-3.427 7.642.453 0 3.027-2.475 5.722-5.5 2.695-3.025 5.245-5.5 5.667-5.5.937 0-1.2 2.73-7.462 9.533-2.612 2.838-4.75 5.589-4.75 6.114 0 .524-.562 1.516-1.25 2.203-.687.688-1.25 1.587-1.25 2 0 .412-4.163 4.916-9.25 10.008-5.087 5.092-9.25 9.575-9.25 9.961 0 .386-1.157 1.949-2.571 3.474-5.66 6.104-12.561 15.922-12.077 17.182.282.735-.357 2.124-1.419 3.086-1.063.962-1.935 2.242-1.938 2.844-.002.602-1.679 2.895-3.726 5.095-2.047 2.2-4.407 5.21-5.245 6.689-.838 1.478-3.393 4.722-5.676 7.206-2.284 2.485-4.309 4.919-4.5 5.409-1.233 3.155-23.848 27.044-23.848 25.191 0-.701-1.462.346-3.25 2.327-10.516 11.653-14.452 16.312-16.114 19.077-1.025 1.706-4.4 5.878-7.5 9.272C711.551 579.545 710 581.406 710 582.829c0 .827-.264 1.24-.587.917-.323-.323-4.407 3.765-9.075 9.084-8.594 9.79-10.645 12.183-21.049 24.554-3.184 3.786-8.555 9.861-11.936 13.5-3.38 3.639-7.78 8.641-9.778 11.116-1.997 2.475-4.562 5.6-5.7 6.944-1.138 1.344-3.249 4.044-4.691 6-1.442 1.956-5.555 7.125-9.141 11.487-3.585 4.363-9.31 11.788-12.723 16.5-3.412 4.713-7.918 10.751-10.012 13.419-2.094 2.667-4.483 5.865-5.308 7.107-2.165 3.257-8.372 12.33-11.941 17.454-1.69 2.425-3.97 5.038-5.066 5.806-1.096.768-1.993 1.991-1.993 2.717 0 .727-.659 1.868-1.464 2.537-.806.668-3.148 3.761-5.206 6.872-2.057 3.111-7.473 10.466-12.035 16.343-4.562 5.878-8.31 11.053-8.328 11.5-.019.448-2.156 3.353-4.75 6.457-11.541 13.807-14.937 18.008-18.212 22.531-6.047 8.349-17.602 22.626-22.52 27.826-6.007 6.352-10.219 11.539-15.107 18.605-3.386 4.895-7.343 9.881-13.598 17.137-.946 1.098-1.989 2.842-2.318 3.877-.328 1.034-1.129 1.898-1.779 1.919-1.11.036-5.68 5.682-8.394 10.37-.666 1.151-2.016 2.768-3 3.595-.984.827-3.131 3.302-4.772 5.5-1.64 2.198-4.751 5.685-6.912 7.747-2.162 2.063-3.629 3.75-3.261 3.75.859 0-5.795 9.573-9.383 13.5-1.508 1.65-5.217 5.7-8.243 9-10.653 11.617-16.277 18.045-19.687 22.5-4.436 5.796-13.424 16.214-18.531 21.479-2.2 2.268-6.7 7.219-10 11.002-3.3 3.783-7.601 8.71-9.558 10.949-1.957 2.238-5.332 6.32-7.5 9.07s-4.438 5.45-5.044 6c-4.718 4.281-16.655 18.517-25.994 31-3.704 4.95-8.797 11.319-11.319 14.154-7.224 8.119-12.359 14.362-17.151 20.846-2.439 3.3-6.684 8.728-9.434 12.062-2.75 3.334-6.207 7.609-7.682 9.5-4.54 5.821-8.128 10.124-12.829 15.388-2.481 2.777-5.83 6.85-7.443 9.05-1.613 2.2-3.443 4.45-4.067 5-.624.55-2.823 3.219-4.887 5.932-4.728 6.213-10.627 13.192-17.268 20.428-11.143 12.141-13.271 14.685-13.297 15.89-.015.688-.412 1.25-.884 1.25-.471 0-4.183 4.373-8.25 9.718-4.066 5.344-10.543 13.125-14.393 17.291-8.801 9.522-14.068 15.753-24.505 28.991-4.553 5.775-9.789 11.962-11.637 13.748-1.847 1.786-3.358 3.699-3.358 4.25 0 .551-.44 1.002-.977 1.002-.537 0-2.736 2.226-4.887 4.947-2.15 2.72-4.186 4.67-4.523 4.333-.337-.337-.613.067-.613.898 0 1.785-11.558 15.576-24.993 29.822-3.371 3.575-7.333 8.075-8.804 10-6.807 8.908-13.941 17.851-17.168 21.521-1.944 2.212-4.435 5.308-5.535 6.882-1.1 1.573-3.575 4.741-5.5 7.039l-7.636 9.119c-9.081 10.843-16.712 20.611-22.415 28.689-2.232 3.162-4.401 5.75-4.82 5.75-.419 0-1.802 2.512-3.074 5.582-1.273 3.07-3.096 6.332-4.052 7.25-.955.917-2.264 3.301-2.908 5.297-.644 1.996-2.053 4.428-3.133 5.405-1.079.977-1.962 2.456-1.962 3.288 0 .831-.279 1.233-.619.892-1.162-1.162-3.39 2.145-3.011 4.469.208 1.274.063 2.767-.324 3.317-.386.55-1.527 3.25-2.536 6-1.009 2.75-2.825 6.35-4.036 8-1.211 1.65-3.877 6.037-5.924 9.75-2.047 3.712-4.103 6.75-4.569 6.75-.465 0-1.162 1.012-1.547 2.25-.386 1.237-2.023 5.06-3.637 8.494-1.683 3.579-2.683 7.039-2.344 8.108.325 1.025 2.308 2.638 4.405 3.584 2.097.945 4.427 2.572 5.178 3.614 1.267 1.758 1.498 1.777 3.165.268 1.659-1.501 1.799-1.502 1.799-.003 0 .893.894 3.216 1.987 5.162 1.093 1.946 1.88 3.745 1.75 3.998-.13.253.468 1.284 1.33 2.291.862 1.006 1.366 2.434 1.121 3.171-.268.803.006 1.061.682.643.651-.402 1.13-.052 1.13.827 0 3.27 10.783 11.463 13.157 9.996.748-.462.879-.269.372.55-.573.928-.217 1.083 1.346.587 1.261-.4 2.125-.241 2.125.393 0 .587.99 1.067 2.2 1.067 1.711 0 1.933.267 1 1.2-1.673 1.673-1.498 4.472.325 5.171 1.08.414 1.351 1.393.93 3.357l-.594 2.772 2.069-2.361c1.717-1.958 2.07-2.066 2.07-.633 0 1.25.567 1.579 2.055 1.19 2.447-.64 4.048 2.667 4.129 8.529.028 2.061.448 3.502.934 3.202.485-.3.882.435.882 1.632 0 1.197 1.35 3.715 3 5.594 1.65 1.879 3 4.026 3 4.771 0 .744.788 1.291 1.75 1.215 1.149-.091 1.649.462 1.456 1.611-.212 1.266.376 1.75 2.128 1.75 1.331 0 2.99.685 3.685 1.523.695.837 1.987 1.295 2.872 1.018 1.957-.613 4.159 3.553 3.403 6.442-.378 1.447.15 2.235 1.958 2.923 1.361.517 2.722 1.584 3.024 2.371.742 1.933 8.195 5.723 11.255 5.723 1.358 0 2.469.45 2.469 1s.471 1 1.048 1c1.467 0 5.952 5.008 5.952 6.646 0 .745.675 1.354 1.5 1.354.951 0 1.5.957 1.5 2.617 0 2.123.376 2.518 1.999 2.094 1.099-.288 2.251-.115 2.559.383.308.498.028.906-.621.906-.881 0-.865.382.063 1.5.86 1.036.898 1.5.122 1.5-.617 0-1.122.675-1.122 1.5s.675 1.5 1.5 1.5 1.5-.525 1.5-1.167c0-.641.289-.877.643-.524.353.354.073 1.328-.622 2.166-.937 1.129-.995 2.236-.224 4.274.572 1.513 1.315 4.007 1.651 5.542.753 3.443 1.551 2.979 6.586-3.837 3.583-4.85 4.217-5.295 6.228-4.363 1.231.57 2.954 2.47 3.828 4.223.875 1.752 2.31 3.326 3.19 3.498 1.742.339 13.864-11.179 20.284-19.274 2.165-2.729 5.054-6.104 6.42-7.5 2.226-2.274 7.301-8.325 23.097-27.538 2.713-3.3 7.742-9.606 11.176-14.013 3.433-4.407 9.843-12.339 14.243-17.626 7.785-9.355 15.21-19.164 20.698-27.341a227.708 227.708 0 0 1 5.698-8.02c1.651-2.2 4.427-6.025 6.171-8.5 1.743-2.475 3.77-4.848 4.504-5.273.733-.425 4.979-5.481 9.435-11.234 4.455-5.754 10.102-12.55 12.547-15.103 2.446-2.552 4.447-4.997 4.447-5.432 0-.435.338-.941.75-1.125.413-.183 2.522-2.583 4.688-5.333s4.708-5.763 5.649-6.695c.942-.933 3.852-4.533 6.467-8 2.616-3.468 5.258-6.755 5.873-7.305.614-.55 5.355-6.4 10.536-13 5.18-6.6 12.258-15.132 15.728-18.961 3.47-3.828 6.309-7.312 6.309-7.742 0-.898 18.085-25.016 21.635-28.852 1.301-1.405 2.365-2.933 2.365-3.397 0-1.135 6.367-8.839 12.5-15.124 6.843-7.013 17.042-19.634 19.097-23.63.931-1.812 5.115-7.154 9.298-11.873 10.485-11.827 21.681-25.178 27.422-32.699 2.65-3.471 8.279-10.003 12.511-14.516 4.231-4.513 9.414-10.568 11.518-13.456 2.103-2.888 4.215-5.25 4.692-5.25.478 0 1.612-1.568 2.521-3.484.91-1.916 6.218-8.277 11.797-14.136 5.579-5.858 12.619-13.87 15.644-17.805 7.221-9.391 14.656-17.991 24.642-28.503 4.479-4.715 12.731-14.422 18.34-21.572 5.608-7.15 11.647-14.575 13.418-16.5 1.772-1.925 4.52-5.3 6.108-7.5 1.587-2.2 3.18-4.225 3.538-4.5 1.1-.844 25.217-31.548 29.212-37.191 2.067-2.92 6.949-8.68 10.849-12.8 3.9-4.12 7.733-8.732 8.518-10.25.784-1.517 1.834-2.759 2.333-2.759.499 0 1.167-.819 1.485-1.821.318-1.002 1.831-3.139 3.363-4.75 1.532-1.611 4.553-5.179 6.714-7.929 2.161-2.75 6.905-8.187 10.542-12.081 3.636-3.895 11.861-13.795 18.277-22 6.416-8.206 13.742-17.394 16.28-20.419 8.357-9.96 12.825-15.225 17.021-20.054 2.277-2.621 4.962-6.156 5.966-7.856 1.004-1.699 2.093-3.09 2.421-3.09.328 0 4.796-4.95 9.928-11 5.132-6.05 9.645-11 10.028-11 .383 0 2.762-2.588 5.287-5.75 5.164-6.467 17.529-21.194 21.622-25.75 4.921-5.478 18.542-22.255 23.108-28.462 2.475-3.364 6.3-8.398 8.5-11.185 2.2-2.788 5.575-7.221 7.5-9.853 1.925-2.631 4.752-6.296 6.282-8.142 1.531-1.847 6.398-8.083 10.816-13.858 9.836-12.855 10.158-13.285 11.402-15.191 1.004-1.539 3.915-5.327 14.071-18.309 3.011-3.85 8.052-10.5 11.202-14.778 9.067-12.314 28.095-36.747 32.869-42.205 2.397-2.74 4.358-5.305 4.358-5.7 0-.394 1.462-2.81 3.25-5.369 1.788-2.559 3.7-5.375 4.25-6.259 1.049-1.685 7.679-10.871 14.571-20.189 2.237-3.025 6.894-8.425 10.349-12 3.454-3.575 6.46-7.016 6.68-7.647.22-.63 1.856-2.88 3.635-5 1.778-2.119 6.507-7.903 10.507-12.853 8.755-10.834 11.019-13.526 16.361-19.45 2.257-2.502 5.468-6.459 7.136-8.792 4.055-5.674 19.108-24.496 27.672-34.602 3.801-4.486 12.91-15.685 20.244-24.887 7.333-9.201 17.048-20.7 21.589-25.553 4.541-4.853 12.506-13.524 17.7-19.27 5.194-5.745 11.044-12.179 13-14.296 1.956-2.118 4.231-4.617 5.056-5.554 4.088-4.642 19.716-21.851 21.483-23.656 3.258-3.329 12.649-13.75 17.625-19.56 2.535-2.959 6.585-7.661 9-10.448 7.995-9.227 12.355-14.707 15.558-19.558 1.741-2.636 6.286-8.524 10.099-13.084 3.813-4.559 8.554-10.765 10.534-13.79 5.555-8.483 9.693-14.258 12.181-17 2.137-2.355 5.165-6.575 12.77-17.795 7.312-10.788 8.216-13.994 6.168-21.858-.78-2.994-1.418-7.02-1.418-8.945 0-4.631-2.611-9.625-4.808-9.195-1.729.338-7.192-4.448-7.192-6.3 0-.564-.445-.75-.989-.414-.566.35-.734-.051-.393-.941.471-1.226-.162-1.552-3.011-1.552-2.94 0-3.607-.37-3.607-2 0-1.1-.542-1.887-1.205-1.75-.662.138-1.225-.254-1.25-.869-.093-2.295-4.682-7.062-8.085-8.397-2.47-.969-3.347-1.835-2.938-2.902.321-.837.287-1.224-.076-.862-1.254 1.255-4.534-2.828-3.803-4.733.48-1.251.333-1.59-.473-1.092-.644.398-1.17.299-1.17-.219 0-.519-.9-1.178-2-1.466-1.219-.318-2-1.364-2-2.675 0-1.184-.445-1.878-.989-1.542-.567.35-.734-.052-.391-.944.407-1.061-.311-1.95-2.262-2.802-2.06-.899-2.773-1.84-2.555-3.372.167-1.169-.326-2.756-1.096-3.525-.77-.77-1.714-3.076-2.099-5.125-.395-2.105-1.283-3.725-2.042-3.725-.739 0-1.281-.787-1.205-1.75.077-.963-.423-1.637-1.111-1.5-.783.157-1.25-.897-1.25-2.817 0-2.462-.345-2.96-1.75-2.523-.963.299-2.425.112-3.25-.418-.998-.64-1.082-.966-.25-.977.688-.008 1.25-.69 1.25-1.515s-.675-1.5-1.5-1.5c-1.611 0-2.074-1.615-.622-2.167 1.146-.434 2.551-6.935 1.458-6.743-2.211.389-4.393-.189-3.876-1.026.319-.515.09-2.877-.508-5.25-.597-2.373-1.209-6.001-1.358-8.064-.15-2.062-.345-4.687-.433-5.833-.091-1.181-.703-1.901-1.411-1.663-.687.232-1.717-.211-2.287-.985-.889-1.207-1.636-1.2-5.261.049-2.323.801-4.439 1.108-4.702.682-.685-1.108 2.023-3.129 3.002-2.241.45.407.493.175.095-.516-.438-.76-.007-1.532 1.09-1.951 2.609-1 5.241-4.447 5.28-6.917.058-3.734-1.181-8.361-2.089-7.8-.483.299-.878.033-.878-.589 0-.623-2.44.263-5.422 1.97l-5.423 3.102-3.073-3.279c-1.69-1.803-3.075-4.24-3.077-5.414-.005-2.357-3.853-5.365-6.861-5.365-1.193 0-2.154.902-2.521 2.366M357 240.977c-5.225 2.203-11.975 5.723-15 7.822-5.929 4.115-11.985 7.199-14.151 7.205-2.07.005-6.792 3.274-12.777 8.843-2.985 2.778-5.752 4.85-6.149 4.605-.844-.521-6.612 5.828-8.104 8.921-1.642 3.406-9.983 9.98-10.86 8.561-.523-.847-1.073-.59-1.852.865-.609 1.138-1.107 2.568-1.107 3.177s-.9 2.074-2 3.254c-1.1 1.181-2.007 3.3-2.015 4.709-.018 3.231-1.055 5.005-8.589 14.703-3.357 4.322-6.409 8.819-6.781 9.994-1.328 4.188-1.354 41.203-.043 61.364 2.107 32.401 3.445 40.166 9.65 56 5.523 14.094 7.022 16.548 15.932 26.08 4.349 4.653 11.491 10.838 10.361 8.973-.54-.892.247-.666 2.054.588 3.905 2.709 6.327 3.642 9.931 3.823 3.35.168 5.467.982 17 6.538 4.4 2.119 10.925 4.401 14.5 5.069 3.575.669 7.386 1.67 8.469 2.225 2.111 1.082 36.124 1.17 45.531.118 4.962-.554 14.456-2.755 22.509-5.216 4.624-1.414 13.283-6.014 14.185-7.535.813-1.374 3.194-2.774 11.173-6.574 2.401-1.144 5.749-3.432 7.439-5.084 1.691-1.653 3.663-3.005 4.384-3.005.72 0 1.31-.477 1.31-1.059s.461-.774 1.025-.426c.563.349.901.038.75-.691-.151-.728.321-1.2 1.049-1.049.729.151 1.077-.126.774-.617-.609-.985 2.768-4.459 3.563-3.664.274.274 1.587-.681 2.918-2.122l2.421-2.62-2.25.691c-1.238.381-2.25.45-2.25.155 0-1.077 4.308-8.173 6.66-10.969 3.697-4.396 6.554-11.753 10.34-26.629 1.19-4.675 3.702-11.713 5.582-15.639 1.88-3.927 3.418-8.26 3.418-9.628 0-2.828 2.491-9.3 3.919-10.183 1.453-.898 4.081-10.851 4.081-15.454 0-2.821.431-4.096 1.383-4.096.761 0 1.61-.864 1.886-1.92.372-1.422-.145-2.083-1.991-2.546-1.99-.5-2.4-1.115-2.031-3.045.254-1.331.034-2.562-.491-2.737-.782-.261-1.254-3.295-1.712-11.002-.024-.413-.609-.75-1.3-.75-1.709 0-3.522-4.525-4.072-10.162-.25-2.564-1.143-5.939-1.984-7.5-1.845-3.425-5.722-13.729-8.108-21.55-.958-3.141-3.276-7.641-5.151-10-1.875-2.358-3.414-4.647-3.419-5.087-.016-1.306-8.329-12.701-9.266-12.701-.474 0-.598-.427-.275-.95.711-1.151-2.112-2.768-6.064-3.473-1.598-.285-3.669-1.544-4.603-2.798-.935-1.253-2.397-3.067-3.25-4.029-.854-.962-1.552-2.2-1.552-2.75 0-.55-.519-1-1.154-1-1.994 0-11.979-5.026-21.846-10.997-15.777-9.546-14.239-9.1-28.821-8.362-8.516.431-13.978.276-16.078-.456-1.75-.61-6.425-1.357-10.391-1.66-6.772-.518-7.787-.309-16.71 3.452m474.484 190.805c-.559.395-2.296 2.293-3.86 4.218-1.564 1.925-4.96 5.75-7.548 8.5-4.147 4.409-6.835 8.5-5.583 8.5.743 0 8.32-7.931 12.245-12.817 2.069-2.576 4.386-5.172 5.15-5.77 1.563-1.225 1.176-3.747-.404-2.631m-768.066 1.55c.32 1.007.582 2.47.582 3.25 0 .78.45 1.418 1 1.418 1.505 0 1.203-2.369-.582-4.559-1.447-1.776-1.532-1.785-1-.109m746.258 23.07c-.565 1.472.082 2.598 1.491 2.598.458 0 .833-.9.833-2 0-2.293-1.523-2.685-2.324-.598m20.035 553.22c-.312.312-3.637.784-7.389 1.048-8.176.576-10.433.817-16.322 1.741-2.475.388-5.85.853-7.5 1.033-1.65.18-3.112.436-3.25.567-.331.317-3.135.931-11.25 2.465-.275.052-1.625.717-3 1.478s-2.725 1.362-3 1.335c-.275-.027-1.625.391-3 .93s-2.95 1.06-3.5 1.158c-.55.099-1.45.451-2 .784-.55.332-2.416.907-4.146 1.278-1.731.371-3.938 1.549-4.905 2.618-.968 1.069-2.309 1.943-2.982 1.943-.672 0-1.799.695-2.505 1.546-.705.85-1.852 1.326-2.549 1.059-.697-.267-1.814.173-2.482.979-.669.805-1.458 1.222-1.754.926-.296-.296-1.765.637-3.264 2.074-1.499 1.436-2.936 2.455-3.194 2.264-.257-.192-2.661 1.055-5.343 2.769-5.166 3.303-13.377 7.938-14.616 8.251-2.522.637-3.76 1.509-3.76 2.647 0 .716-2.024 2.58-4.498 4.143-2.474 1.563-4.499 3.105-4.5 3.425-.001.321-1.346.584-2.989.584-1.643 0-3.893.819-5 1.821-1.107 1.002-2.013 1.534-2.013 1.183 0-.635-1.285.412-10.112 8.239-2.536 2.25-5.034 4.09-5.55 4.09-1.543 0-14.148 12.398-15.298 15.047-2.23 5.137-4.953 8.676-11.882 15.444-3.937 3.844-7.158 7.509-7.158 8.143 0 1.551-2.529 2.437-3.678 1.288-.938-.938-9.377 3.834-9.011 5.095.104.357-1.553 2.637-3.681 5.066-2.129 2.429-5.565 6.892-7.637 9.917-2.072 3.025-6.856 8.699-10.63 12.609-7.504 7.774-10.363 11.089-10.363 12.018 0 .333-1.575 2.751-3.5 5.373-1.925 2.622-3.5 5.27-3.5 5.884 0 .614-.441 1.116-.981 1.116-.539 0-1.263 1.125-1.608 2.5-.345 1.375-1.104 2.5-1.686 2.5-.582 0-.797.262-.477.581.32.32-.523 2.209-1.873 4.199-2.689 3.962-13.292 25.361-13.896 28.045-.523 2.324-5.05 13.079-5.835 13.865-.354.354-.644 1.828-.644 3.277 0 1.448-.395 3.06-.877 3.583-.482.522-2.099 4.775-3.592 9.45a4763.096 4763.096 0 0 1-4.495 14c-2.95 9.114-8.905 31.892-9.673 37-1.067 7.093-1.405 43.856-.409 44.472.593.366.843 1.047.555 1.513-.288.466-.031 2.122.572 3.681.602 1.559 1.262 10.709 1.466 20.334.204 9.625.601 19.525.881 22 .801 7.057 2.401 18.252 3.001 21 .301 1.375 1.273 6.067 2.161 10.427.888 4.359 1.976 8.634 2.419 9.5.443.865 1.486 4.498 2.317 8.073.831 3.575 2.056 8.075 2.721 10l3.623 10.5c1.327 3.85 3.07 8.274 3.872 9.831.802 1.557 1.458 3.47 1.458 4.25 0 .78.45 1.419 1 1.419s1 .81 1 1.8.369 2.227.82 2.75c.451.522 2.101 4.1 3.666 7.95 3.517 8.656 7.226 15.252 10.345 18.4 1.307 1.319 2.825 3.682 3.371 5.25.547 1.567 1.351 2.85 1.787 2.85.437 0 1.069 1.094 1.404 2.43.336 1.337 1.238 3.058 2.005 3.825.767.768 2.744 3.922 4.392 7.011 1.648 3.088 3.269 5.341 3.603 5.008.334-.334.607.058.607.871s.9 2.444 2 3.625c1.1 1.18 2 2.651 2 3.269 0 .617 1.575 3.495 3.5 6.395 1.925 2.9 3.5 5.789 3.5 6.42 0 .63.45 1.146 1 1.146s1.005.563 1.011 1.25c.006.688 1.918 3.331 4.25 5.875 2.331 2.544 5.428 5.919 6.882 7.5 3.892 4.233 12.785 11.91 17.308 14.941 2.174 1.456 5.549 4.126 7.5 5.932 5.225 4.837 8.548 7.698 12.2 10.502 1.79 1.375 3.939 3.287 4.774 4.25.836.963 2.056 1.75 2.712 1.75.656 0 2.244.899 3.528 1.998 1.284 1.099 3.685 3.15 5.335 4.559 1.65 1.408 4.35 3.271 6 4.141 1.65.87 3.225 1.863 3.5 2.208.5.627 11.946 8.207 19.5 12.914 2.2 1.371 5.139 3.263 6.531 4.204 1.392.941 4.542 2.732 7 3.978 2.458 1.247 4.694 2.596 4.969 2.999.764 1.119 14.612 6.999 16.483 6.999.907 0 2.627.524 3.823 1.164 2.89 1.547 5.939 2.047 13.442 2.205 3.437.072 6.249.495 6.25.94.001.445.565.457 1.252.026 1.9-1.189 4.069-1.014 5.916.477.916.74 2.795 1.47 4.176 1.621 1.38.152 3.25 1.016 4.155 1.921.905.905 2.032 1.646 2.503 1.646.471 0 1.452.563 2.179 1.25 1.335 1.264 9.637 4.518 13.321 5.222 3.764.719 8 1.644 12 2.62 4.788 1.169 7.165 1.669 10.5 2.208 1.375.223 4.3.71 6.5 1.083s5.575.906 7.5 1.185c1.925.279 4.625.723 6 .987 3.312.636 9.249 1.384 16 2.015 9.183.858 66.286 1.026 69.568.205 1.687-.423 6.187-.96 10-1.195 3.812-.234 6.932-.518 6.932-.631 0-.298 3.37-.856 8.42-1.395 2.432-.259 5.132-.775 6-1.147 1.525-.652 3.171-.955 9.58-1.761 2.89-.363 3.61-.561 8-2.201 2.439-.911 3.389-1.191 6.127-1.805 1.169-.263 4.319-1.504 7-2.759 2.68-1.254 5.098-2.319 5.373-2.366.275-.047 1.513-.648 2.75-1.336 1.237-.687 2.25-.939 2.25-.559 0 .379.922-.144 2.048-1.163 1.126-1.02 2.741-1.956 3.588-2.08.847-.124 2.311-.924 3.254-1.777.943-.854 2.696-1.702 3.894-1.885 1.199-.183 3.201-1.261 4.448-2.396 1.247-1.136 2.831-1.859 3.518-1.608.688.25 1.25.074 1.25-.392s1.8-1.959 4-3.319c2.2-1.36 4-2.842 4-3.295 0-.453.385-.585.855-.295.47.291 1.898-.583 3.174-1.941s2.846-2.469 3.49-2.469c.644 0 1.976-.889 2.96-1.976.983-1.087 2.113-1.776 2.509-1.531.397.245 1.752-.652 3.012-1.993 1.26-1.341 2.622-2.233 3.028-1.983.405.251 1.802-.362 3.104-1.36 2.467-1.892 4.865-2.99 6.075-2.78 1.121.195 3.726-3.702 3.761-5.627.018-.963-.27-1.75-.639-1.75s-1.6.787-2.736 1.75c-1.135.963-.383-.164 1.672-2.503 2.054-2.339 3.735-4.848 3.735-5.576 0-1.464 3.155-4.422 7-6.563 2.444-1.36 2.461-1.347.75.579-4.525 5.094-.202 5.845 4.684.813 3.666-3.775 4.838-4.372 3.928-2-1.063 2.769 2.217 1.576 9.254-3.366 6.104-4.287 15.384-13.472 15.384-15.227 0-.348 1.077-.514 2.394-.369 3.311.363 10.071-6.498 9.177-9.315-.413-1.299-.102-2.189.899-2.573.842-.323 1.53-1.409 1.53-2.413 0-1.004 1.8-3.756 4-6.115 2.2-2.359 4-4.672 4-5.138 0-.467.787-1.116 1.75-1.442 1.847-.625 5.323-4.863 5.627-6.861.317-2.087 1.733-3.731 2.7-3.134.916.567 3.923-1.769 3.923-3.047 0-.354.71-1.353 1.578-2.221.867-.867 1.35-2.446 1.073-3.507-.354-1.351-.091-1.771.873-1.401 1.488.571 8.735-8.435 8.253-10.255-.437-1.647 6.483-11.835 8.973-13.211 1.237-.684 2.25-1.571 2.25-1.972 0-1.067 8.008-14.26 9.368-15.433 1.372-1.183 3.667-4.701 7.221-11.066a286.658 286.658 0 0 1 5.469-9.284c3.38-5.453 11.327-21.545 12.422-25.15.417-1.375 1.58-4.334 2.585-6.576 2.07-4.621 5.639-21.231 6.966-32.424.489-4.125 1.366-11.1 1.948-15.5 2.849-21.539 3.191-68.81.585-81-.823-3.85-2.261-10.6-3.197-15-.936-4.4-2.134-8.287-2.662-8.638-.529-.351-.663-1.12-.299-1.71.364-.589.218-1.876-.325-2.861-1.078-1.957-10.081-29.137-10.081-30.435 0-.441-1.163-3.401-2.585-6.579-4.607-10.296-5.415-12.324-5.415-13.589 0-.684-.9-2.014-2-2.956-1.1-.942-2-2.297-2-3.011 0-2.805-11.313-20.789-14.44-22.956-.583-.404-.712-.741-.287-.75.82-.016-2.144-5.098-3.566-6.115-.462-.33-.954-1.379-1.094-2.33-.139-.951-.897-2.137-1.683-2.635-1-.632-1.054-.909-.178-.92 1.954-.024-1.813-6.311-6.722-11.22-2.332-2.333-5.63-6.278-7.327-8.768-1.698-2.49-3.453-4.678-3.901-4.862-.448-.185-.548-.767-.222-1.294.648-1.049-1.603-4.894-4.647-7.938-1.063-1.063-1.933-2.538-1.933-3.278 0-.74-.9-2.16-2-3.155-1.1-.995-2-2.222-2-2.726s-.562-1.505-1.25-2.223c-.687-.718-1.925-2.316-2.75-3.551-.825-1.235-1.992-2.762-2.594-3.395-.601-.632-2.267-3.009-3.702-5.282-4.033-6.388-24.63-26.124-30.494-29.219-1.454-.767-3.224-1.975-3.933-2.684-.709-.709-2.186-1.574-3.283-1.922-1.097-.348-1.994-1.038-1.994-1.534s-.675-.642-1.5-.326c-.825.317-1.5.051-1.5-.59s-.399-.92-.886-.618c-.488.301-1.121-.349-1.408-1.445-.371-1.422-1.027-1.799-2.287-1.316-1.365.524-1.62.298-1.124-.995.353-.921.244-1.674-.243-1.674s-1.112.563-1.39 1.25c-.31.769-.535.598-.583-.443-.043-.932-1.429-2.491-3.079-3.466-1.65-.975-3-2.125-3-2.557 0-.431-.689-.784-1.531-.784-.843 0-1.786-.661-2.096-1.47-.31-.808-2.096-2.024-3.968-2.701-1.873-.677-3.405-1.665-3.405-2.197 0-.531-.273-.692-.607-.359-.333.334-1.121.146-1.75-.417-1.693-1.517-10.31-6.377-17.143-9.67-5.172-2.492-11.549-6.285-15-8.922-.55-.42-2.912-2.063-5.25-3.65-2.337-1.587-4.25-3.275-4.25-3.75 0-.475-.717-.864-1.594-.864-.876 0-1.827-.895-2.113-1.989-.286-1.094-.919-1.742-1.407-1.441-.487.302-.886.002-.886-.666 0-.79-.639-.636-1.832.444-1.723 1.559-1.986 1.486-4.402-1.227-1.414-1.586-5.048-4.528-8.075-6.538-3.027-2.009-5.757-4.313-6.066-5.118-.309-.806-1.251-1.465-2.094-1.465-.842 0-1.531-.627-1.531-1.393s-.675-1.652-1.5-1.969c-.825-.316-1.5-.106-1.5.467 0 .573-2.406-.335-5.347-2.018-2.941-1.682-5.62-2.787-5.953-2.454-.332.333-1.337-.128-2.233-1.023-.896-.896-2.062-1.361-2.591-1.033-.53.327-1.554.105-2.276-.494-1.185-.983-5.159-1.933-9.85-2.354-.962-.087-1.75-.436-1.75-.777 0-.34-.562-.654-1.25-.697-3.447-.215-7.599-1.044-8.729-1.742-.697-.431-2.899-.891-4.894-1.022-1.995-.132-6.327-.503-9.627-.826-21.425-2.093-33.196-2.725-48-2.576-24.698.249-51.558-.007-52.352-.497-.478-.296-1.124-.282-1.437.03m58.26 205.339c2.305 1.457 1.112 1.867-9.008 3.091-10.079 1.22-14.941 2.945-30.651 10.873-5.396 2.723-12.893 5.72-16.659 6.659-3.766.939-7.591 2.5-8.5 3.468-.909.969-4.353 2.513-7.653 3.433-3.3.919-7.418 2.312-9.151 3.093-1.733.782-3.468 1.422-3.856 1.422-.388 0-2.536 1.45-4.775 3.223-2.537 2.01-4.218 2.776-4.465 2.036-.302-.905-.836-.912-2.254-.026-1.444.902-1.634 1.58-.852 3.042 1.247 2.329.427 4.725-1.616 4.725-.842 0-1.531.643-1.531 1.429s-1.575 3.099-3.5 5.14c-1.925 2.041-3.5 4.519-3.5 5.506 0 3.145-1.742 6.532-5.417 10.534-1.965 2.14-3.576 4.877-3.578 6.082-.003 1.205-.465 2.475-1.027 2.823-.563.347-2.353 3.186-3.979 6.309a382.75 382.75 0 0 1-6.107 11.177c-1.734 3.025-3.741 7.975-4.461 11-.719 3.025-2.289 8.875-3.487 13-3.348 11.52-3.514 15.047-.843 17.895 2.205 2.35 2.217 2.502.675 8.257-1.528 5.706-1.504 6.053.908 12.991 2.456 7.06 3.342 11.037 5.371 24.105 1.652 10.637 2.889 12.937 12.198 22.68 4.813 5.039 9.713 11.054 10.887 13.367 4.676 9.21 8.808 13.149 19.016 18.127 8.206 4.002 13.75 6.04 21.844 8.03.825.203 2.85 1.081 4.5 1.952s3.563 1.586 4.25 1.59c.688.003 1.25.421 1.25.928 0 1.803 13.77 4.447 21.75 4.177 1.237-.042 2.25.433 2.25 1.056 0 .807 2.514.942 8.75.472 10.48-.79 18.25.066 18.25 2.009 0 1.617 1.421 1.744 4.013.357 1.034-.554 3.142-1.085 4.684-1.181 1.542-.096 4.603-1.168 6.803-2.383 3.241-1.79 6.13-2.302 15.223-2.698 10.403-.452 11.572-.712 16-3.554 2.627-1.686 6.352-4.715 8.277-6.732 1.925-2.017 5.75-5.369 8.5-7.449 6.857-5.186 39.136-37.124 44.971-44.496 2.612-3.3 5.705-6.833 6.873-7.85 4.289-3.734 16.837-27.694 19.114-36.497 1.853-7.165 3.087-28.608 1.592-27.684-.652.403-1.056-.606-1.065-2.66-.012-2.599-.241-2.987-1.066-1.809-.824 1.177-.915 1.018-.422-.735.435-1.548-.159-3.266-1.934-5.594-1.41-1.848-2.563-4.555-2.563-6.015 0-1.461-.4-2.656-.888-2.656-.489 0-1.896-4.162-3.128-9.25-1.622-6.694-3.449-11.164-6.612-16.177-2.405-3.81-4.374-7.635-4.376-8.5-.002-.865-2.28-4.048-5.063-7.073a1151.188 1151.188 0 0 1-10.746-11.897c-7.55-8.492-18.292-18.81-22.702-21.807-7.663-5.207-24.626-13.492-26.579-12.982-1.092.286-5.905-1.041-10.696-2.948-7.612-3.03-11.024-3.889-18.387-4.627-.922-.092-1.439-.551-1.149-1.02.714-1.155-2.998-.464-3.848.717-.402.558-1.271.44-2.153-.292-1.173-.974-1.602-.961-2.076.064-.472 1.021-.719 1.03-1.18.042-.321-.687-1.784-1.243-3.25-1.235-2.035.012-2.319.236-1.196.946m253.287 322.3c-.882 1.128-2.37 5.739-1.852 5.739.12 0 1.198-1.326 2.397-2.947 2.052-2.775 1.531-5.446-.545-2.792" fill-rule="evenodd"/></svg>