<svg xmlns="http://www.w3.org/2000/svg" width="1240" height="1753"><path d="M645.67 45.663c-.123.124-6.062.488-13.197.81-11.721.529-24.84 2.018-26.427 2.999-.337.208-4.198.659-8.58 1.002-4.381.343-9.316.842-10.966 1.109-7.816 1.264-17.557 1.704-34.381 1.554-5.71-.051-10.707.108-11.105.354-.399.247-7.202 1.603-15.119 3.014-7.917 1.411-14.845 2.684-15.395 2.828-.55.144-4.6 1.074-9 2.065-4.4.992-11.6 2.834-16 4.093-4.4 1.26-10.25 2.86-13 3.557-2.75.697-6.8 2.27-9 3.497-2.2 1.226-6.475 3.015-9.5 3.975-3.025.959-5.95 2.062-6.5 2.449-.55.387-3.7 1.759-7 3.049s-8.531 3.613-11.624 5.163C425.783 88.732 422.694 90 422.01 90c-1.938 0-27.263 12.902-29.574 15.067-1.136 1.063-2.356 1.933-2.712 1.933-.356 0-4.213 2.429-8.572 5.397-4.359 2.968-8.883 5.7-10.054 6.072-1.17.371-1.932.99-1.695 1.375.238.385-1.582 1.533-4.045 2.551-2.867 1.187-4.294 2.329-3.968 3.178.341.889-.022 1.122-1.105.706-1.074-.412-1.372-.228-.89.551.465.753-.033 1.17-1.395 1.17-1.165 0-1.882.382-1.593.849.573.927-10.947 12.151-12.471 12.151-.515 0-.936.59-.936 1.311 0 1.459-2.602 4.41-5.883 6.672-1.184.816-1.933 2.054-1.666 2.75.283.737-.276 1.267-1.336 1.267-2.067 0-7.667 4.781-6.716 5.732.342.342 1.18-.087 1.861-.954.682-.867 2.362-1.911 3.732-2.321 1.766-.528-.276 2.066-7 8.896-5.22 5.303-9.815 9.643-10.211 9.645-1.607.005.81-3.737 4.842-7.498 2.359-2.2 4.421-4.45 4.583-5 .162-.55.615-.893 1.008-.762s.471-.395.174-1.169c-.381-.994-1.618-.183-4.214 2.762-2.021 2.293-4.015 4.32-4.432 4.505-.417.185-2.591 2.097-4.831 4.25-2.82 2.709-4.964 3.914-6.964 3.914-4.391 0-17.779 5.277-23.851 9.401-9.648 6.553-20.748 16.112-30.885 26.595-7.854 8.121-7.224 7.487-13.652 13.754-2.962 2.887-5.244 5.25-5.072 5.25.172 0-1.104 1.482-2.837 3.294-3.901 4.078-15.97 17.649-16.65 18.722-.526.828-8.225 9.678-16.25 18.678-2.612 2.93-4.751 5.66-4.751 6.067-.001.406-1.819 2.764-4.04 5.239-4.644 5.175-14.959 20.129-14.959 21.687 0 .576-1.921 3.92-4.269 7.431C160.775 323.014 143 353.191 143 354.802c0 .404-1.125 2.389-2.5 4.413-1.375 2.023-2.5 4.603-2.5 5.732 0 1.129-.42 2.053-.933 2.053-.836 0-2.391 3.264-2.518 5.286-.027.433-.724 1.214-1.549 1.735-.825.522-1.138.955-.695.964.443.008-2.42 6.202-6.362 13.765-9.97 19.126-14.209 27.551-18.238 36.25a8336.296 8336.296 0 0 1-6.633 14.276c-1.737 3.727-2.911 7.176-2.609 7.665.302.488.183 1.039-.266 1.224-.93.382-6.05 13.205-11.114 27.835a421.086 421.086 0 0 1-4.795 13c-4.236 10.819-15.855 46.798-17.902 55.433-.382 1.614-1.298 4.089-2.034 5.5-.737 1.412-1.349 3.242-1.36 4.067-.028 1.992-2.633 9.507-5.05 14.566-1.068 2.236-1.942 5.633-1.942 7.55 0 1.916-.471 3.955-1.047 4.531-3.513 3.513-14.707 66.136-16.419 91.853-1.351 20.296-1.753 57.425-.688 63.569.613 3.537 1.103 11.381 1.089 17.431-.014 6.05.023 11.9.082 13 .128 2.399.11 2.754-.447 8.5-.24 2.475-.755 10.688-1.145 18.25-.637 12.37-.543 13.75.933 13.75 1.14 0 1.642-.875 1.642-2.86 0-1.574.286-4.949.636-7.5.489-3.57 1.052-4.64 2.439-4.64 1.501 0 1.92 1.176 2.494 7 .379 3.85 1.039 7 1.467 7 .427 0 1.049-4.162 1.381-9.25 2.094-32.113 2.363-34.031 1.948-13.877-.219 10.654-.64 19.763-.935 20.24-.934 1.512.775 17.878 1.802 17.244.528-.327.77-1.891.537-3.475-.232-1.585-.163-2.882.154-2.881.317 0 .511-2.363.431-5.25-.081-2.888.06-3.789.313-2.001.253 1.787.791 3.25 1.195 3.25.779 0 .549 16.305-.445 31.685-.517 8.002-.808 9.106-2.255 8.573-2.616-.963-3.13-2.355-3.147-8.508-.008-3.163-.465-5.75-1.015-5.75-.596 0-1.014 3.94-1.035 9.75-.024 6.561-.503 10.568-1.465 12.25-1.724 3.017-1.925 6.094-.375 5.75.619-.137 1.331.313 1.584 1.001.293.801-.111 1.032-1.125.643-1.323-.508-1.587.276-1.599 4.749-.009 2.946-.452 6.032-.985 6.857-.679 1.05-.974-.523-.985-5.25-.011-5.037-.362-6.75-1.383-6.75-1.124 0-1.403 5.452-1.559 30.5l-.191 30.5h2.726c1.499 0 2.394.332 1.988.737-.405.406-1.493.743-2.417.75-1.237.01-1.631.802-1.496 3.013.54 8.824.477 16.673-.137 17.287-.383.383-1.14-.097-1.682-1.066-2.551-4.559-3.855 4.032-1.939 12.779.482 2.2 1.178 6.587 1.547 9.75.733 6.276 2.528 7.874 2.528 2.25 0-1.925.422-3.5.939-3.5.988 0 2.064 6.42 1.926 11.5-.197 7.284.159 9.659 1.385 9.249.901-.302 1.181-2.909 1.004-9.334-.153-5.532.073-8.156.597-6.915 1.065 2.528 1.396 29.23.369 29.864-.878.543.676 23.882 1.64 24.636.352.275.648 5.675.658 12 .011 6.325.55 13.975 1.199 17 2.03 9.46 2.993 26.174 1.539 26.732-1.555.597-1.617 6.437-.125 11.768 1.023 3.652 1.193 3.804 1.962 1.75 1.074-2.869 1.712-2.869 1.635 0-.033 1.237.307 3.561.755 5.164.71 2.536.587 2.827-.945 2.239-1.644-.631-1.715.135-1.07 11.586.734 13.057 1.891 19.381 3.651 19.967.597.199 1.746 5.522 2.555 11.828 2.219 17.303 3.567 24.966 4.389 24.966.408 0 .521 2.759.251 6.132-.581 7.254 1.658 23.198 5.86 41.73 1.667 7.349 3.001 15.786 2.966 18.75-.036 2.963.272 5.388.683 5.388.412 0 .809.787.883 1.75.075.963 1.039 5.8 2.143 10.75 1.104 4.95 2.974 14.175 4.155 20.5 3.694 19.782 8.309 41.478 8.933 42 .33.275 2.102 5.9 3.939 12.5l4.174 15c5.788 20.815 10.945 34.14 20.598 53.221 10.393 20.545 23.769 43.279 25.463 43.279.489 0 .786.338.66.75-.32 1.044 3.485 7.25 4.445 7.25.431 0 .784.627.784 1.393s.704 1.663 1.563 1.993c.86.33 1.313 1.006 1.006 1.502-.307.496.179 1.185 1.08 1.531.9.345 1.351.915 1 1.265-.35.35.268 1.27 1.374 2.045 1.106.774 1.751 1.827 1.435 2.339-.317.513-.144.932.384.932s1.95 1.677 3.159 3.726c1.967 3.334 15.595 22.027 16.967 23.274.303.275 1.744 2.3 3.202 4.5s3.72 5.125 5.027 6.5 6.173 7.45 10.813 13.5c4.641 6.05 9.787 12.237 11.437 13.75 1.649 1.512 2.561 2.757 2.026 2.765-.535.009-.475.346.134.75 1.022.678 23.246 26.04 34.893 39.82 5.533 6.545 12.686 13.817 19.591 19.915 4.275 3.775 6.824 5.853 15.952 13a817.04 817.04 0 0 1 7.551 6c6.49 5.234 22.19 16.888 26.944 20 6.879 4.502 17.86 11.142 18.719 11.318 1.977.405 11.286 5.598 15.184 8.469 2.399 1.767 7.376 5.013 11.061 7.213 3.684 2.2 7.237 4.503 7.895 5.118.658.615 2.146 1.42 3.307 1.788 1.161.369 2.364 1.328 2.672 2.132.309.804 1.067 1.462 1.685 1.462.618 0 2.253.888 3.633 1.974 1.38 1.085 4.038 2.26 5.907 2.611 1.87.351 3.399 1.038 3.399 1.526 0 .489.337.836.75.771 2.1-.332 3.25.279 3.25 1.725 0 .954.56 1.392 1.378 1.078.758-.291 1.883-.024 2.5.593s1.122.815 1.122.439c0-.376 1.58.204 3.511 1.289 1.93 1.084 6.737 2.645 10.681 3.467 3.943.822 7.426 1.878 7.739 2.347.889 1.332 7.181 3.229 8.338 2.514.604-.373.74-.158.326.511-.448.726.03 1.155 1.287 1.155 1.1 0 2.259.42 2.576.933.317.513 3.157 1.423 6.309 2.022 3.153.599 7.485 1.567 9.627 2.15 2.142.584 5.883 1.062 8.314 1.062 2.802 0 4.61.497 4.94 1.359.393 1.024 1.153 1.12 3.076.389 1.404-.534 2.791-.733 3.081-.443.291.29.003.528-.638.528-.642 0-1.167.498-1.167 1.107s.675.848 1.5.531c.825-.316 1.507-.027 1.515.643.01.771.372.668.985-.281.533-.825.976-.99.985-.367.026 1.928 3.928 2.338 4.987.524.676-1.158.976-1.248.998-.3.016.748.659 1.115 1.432.819.771-.296 1.709-.232 2.084.143.374.375.981.708 1.347.74.367.033 2.692.455 5.167.938 2.475.483 4.837.794 5.25.691.412-.104.75.292.75.879 0 .597-.845.8-1.916.46-1.054-.335-2.191-.163-2.528.382-.342.554 1.052 1.271 3.166 1.629 2.078.351 6.478 1.248 9.778 1.993 10.83 2.445 12.5 2.661 12.5 1.618 0-.555-1.013-1.221-2.25-1.479-2.453-.512 13.613-.015 24.596.76 3.765.266 7.546 1.066 8.403 1.777.856.711 3.176 1.358 5.154 1.436 1.978.079 10.572.647 19.097 1.261 31.168 2.246 48.655 2.45 62 .723 12.616-1.633 30.204-3.24 44-4.019 8.159-.462 15.633-1.439 18-2.355.825-.319 1.725-.66 2-.757.275-.097 2.882-.534 5.794-.971 5.265-.79 5.283-.805 3.25-2.699-3.092-2.88-2.458-3.268 1.513-.925 3.747 2.211 8.403 3.086 5.443 1.023-1.124-.783-.716-.892 1.623-.433 2.295.45 3.28.204 3.714-.927.327-.853.103-1.434-.502-1.302-.601.131-1.185-.775-1.297-2.012-.119-1.31.353-2.25 1.129-2.25.755 0 1.333-1.084 1.333-2.5 0-1.375.436-2.5.969-2.5.532 0 .709.675.393 1.5-.786 2.046.611 1.893 2.28-.25 1.125-1.444 1.265-1.467.804-.131-.376 1.088.197 1.865 1.747 2.372 2.107.688 2.003.808-1.193 1.381-2.63.472-3.579 1.187-3.82 2.878-.208 1.468.198 2.25 1.169 2.25.818 0 2.144.252 2.946.56.97.372 1.673-.297 2.101-2 .719-2.867 4.517-3.575 6.48-1.209.841 1.013 2.37 1.153 6.12.561 2.749-.435 5.515-1.11 6.147-1.501.632-.39 3.896-1.276 7.253-1.969 9.761-2.014 15.756-3.942 21.1-6.787 2.743-1.46 5.442-2.656 5.996-2.658.554-.001 3.483-1.484 6.508-3.295s7.075-3.925 9-4.698c3.676-1.475 15.516-8.311 22.779-13.152 2.354-1.569 4.941-2.852 5.75-2.852.809 0 1.471-.357 1.471-.793 0-.436 2.025-1.334 4.5-1.996 2.475-.662 4.5-1.682 4.5-2.266 0-.585.433-.795.963-.468.529.327 2.667-.452 4.75-1.732 2.083-1.279 5.7-3.164 8.037-4.187 2.337-1.024 4.25-2.243 4.25-2.71 0-.466.788-.847 1.75-.845.962.001 3.55-.86 5.75-1.915 2.2-1.055 5.125-2.399 6.5-2.988 1.375-.588 3.606-1.864 4.957-2.835 1.352-.971 2.116-1.208 1.698-.526-.522.852-.261 1.047.836.626.877-.337 1.366-.841 1.086-1.121-.592-.593 3.833-4.26 5.081-4.211.463.019-.22.919-1.519 2-2.671 2.226-1.632 2.656 1.211.502 1.018-.771 1.571-1.854 1.229-2.407-.342-.553.172-1.449 1.142-1.992.969-.542 1.468-1.281 1.107-1.641-.36-.36-1.706.013-2.991.829-3.84 2.439-25.936 10.817-27.183 10.306-.635-.259-.422-.508.474-.551.895-.043 2.158-.719 2.807-1.501.649-.782 3.067-1.737 5.373-2.122 2.305-.386 4.417-1.019 4.692-1.407.991-1.399 20.286-11.028 23.205-11.581 6.324-1.197 8.325-1.848 11.583-3.77l3.54-2.089 1.586 2.443c.872 1.344 2.599 3.397 3.836 4.561 1.237 1.164 2.25 2.397 2.25 2.74 0 .672 2.424 3.811 5.25 6.797.962 1.018 1.75 2.3 1.75 2.85 0 .55.461 1 1.025 1 .563 0 1.431 1.012 1.927 2.25 1.023 2.547 13.102 18.021 18.886 24.192 2.103 2.244 4.47 5.424 5.259 7.069.79 1.644 2.104 3.013 2.92 3.042 2.576.091 7.901 3.393 9.563 5.929.879 1.342 2.571 2.743 3.759 3.114 3.125.975 8.831 6.172 7.367 6.71-2.273.837.918 2.88 4.943 3.164a25.67 25.67 0 0 1 16.687 7.832c2.29 2.381 7.539 6.998 11.664 10.26 4.125 3.261 7.725 6.189 8 6.507.716.826 4.362 2.278 5.25 2.09.413-.088.75.291.75.841s1.497 1 3.326 1c3.337 0 7.674-3.286 7.674-5.814 0-.653.45-1.186 1-1.186s1-.45 1-1c0-1.577 4.355-5.52 5.744-5.201.691.159 1.256-.406 1.256-1.255 0-.849.388-1.544.861-1.544.474 0 .647-1.125.384-2.5-.336-1.757-.038-2.5 1.004-2.5.815 0 2.651-.92 4.081-2.045 1.43-1.124 2.728-1.958 2.885-1.852.278.188 7.435-3.582 10.671-5.62 5.99-3.773 13.115-8.864 13.12-9.375.004-.334 2.241-3.033 4.973-5.998 2.731-2.964 4.756-5.73 4.499-6.145-.256-.415.206-1.013 1.028-1.329.822-.315 1.494-1.387 1.494-2.382 0-.995.9-2.58 2-3.522 1.1-.942 2-2.279 1.999-2.972 0-.789 1.401-1.26 3.75-1.26 2.181 0 3.667-.46 3.551-1.099-.11-.605 1.174-1.139 2.853-1.186 3.969-.113 4.473-.732 2.335-2.869-1.666-1.667-1.648-1.796.381-2.701a3.6 3.6 0 0 0 2.131-3.298c0-1.526.584-2.347 1.671-2.347.919 0 2.46-.713 3.423-1.585.963-.871 3.625-1.836 5.915-2.143 2.29-.307 4.398-1.169 4.684-1.915.287-.746 1.837-1.357 3.445-1.357 1.677 0 3.17-.64 3.5-1.5.317-.825 1.124-1.5 1.795-1.5.67 0 2.275-1.125 3.567-2.5 1.292-1.375 2.977-2.5 3.746-2.5.768 0 2.072-.675 2.897-1.5.825-.825 1.173-1.5.773-1.5-.399 0 .089-.9 1.084-2 .995-1.1 2.426-2 3.18-2 1.29 0 3.235-3.514 2.95-5.331-.071-.457.995-1.431 2.37-2.165 1.468-.783 2.709-2.504 3.006-4.169.354-1.98 1.184-2.931 2.75-3.155 1.234-.175 2.244-.738 2.244-1.25 0-.511 1.25-.93 2.778-.93 1.54 0 3.54-.891 4.49-2 .942-1.1 1.379-2.002.972-2.004-.407-.002.706-.885 2.472-1.962 5.21-3.177 6.84-5.21 12.055-15.034 3.106-5.851 12.397-15 15.232-15 1.49 0 2.526-.929 3.289-2.952.849-2.249 1.837-3.022 4.155-3.25 2.114-.207 3.155-.907 3.414-2.298.496-2.649 2.135-3.639 4.935-2.98 2.471.581 5.028-1.25 4.613-3.304-.14-.696-.026-.805.253-.241.622 1.253 3.342 1.369 3.342.142 0-1.004 3.165-2.187 7.315-2.733 3.427-.451 6.098-2.9 5.046-4.626-.422-.692-1.81-2.085-3.084-3.096-1.274-1.011-2.972-3.106-3.773-4.655-1.409-2.725-1.335-2.926 2.27-6.182 2.049-1.85 4.649-4.031 5.776-4.845 1.128-.814 2.78-2.541 3.671-3.839 1.511-2.2 1.474-2.77-.551-8.5-1.193-3.377-2.508-6.291-2.92-6.474-.412-.184-.75-.923-.75-1.643 0-.721-.675-1.569-1.5-1.886-.825-.316-1.5-1.264-1.5-2.107 0-.842-.42-1.531-.933-1.531-.513 0-1.234-.95-1.602-2.111-.369-1.16-2.311-3.927-4.317-6.147-2.007-2.221-3.557-4.309-3.446-4.64.255-.757-2.51-4.731-5.429-7.803-1.225-1.29-2.179-2.615-2.12-2.945.06-.33-1.076-1.854-2.523-3.387-1.446-1.533-2.63-3.278-2.63-3.877 0-.6-.39-1.09-.867-1.09-.933 0-5.737-6.757-7.999-11.25-.761-1.513-2.003-2.75-2.759-2.75-.756 0-1.375-.689-1.375-1.531 0-.843-.675-1.791-1.5-2.107-.825-.317-1.5-1.01-1.5-1.54 0-.531-.562-1.592-1.25-2.359a65.73 65.73 0 0 1-2.259-2.678c-6.066-7.725-7.491-9.655-7.491-10.144 0-.315-1.237-1.887-2.75-3.495s-4.325-5.202-6.25-7.988c-1.925-2.785-3.95-5.088-4.5-5.118-.55-.03-2.003-1.513-3.229-3.297-3.479-5.063-7.396-9.268-8.377-8.993-.492.137-.894-.232-.894-.821 0-.59-.562-1.673-1.25-2.407-.687-.735-3.368-3.627-5.957-6.429-2.588-2.801-5.103-5.093-5.589-5.093-.486 0-1.436-1.237-2.111-2.75-1.146-2.565-5.929-10.127-7.116-11.25-.291-.275-1.972-2.356-3.737-4.624l-3.208-4.123 4.011-8.098c2.206-4.454 5.745-12.273 7.864-17.377a4107.525 4107.525 0 0 1 7.996-19.087c2.278-5.395 3.904-10.194 3.613-10.665-.291-.47-.007-1.029.63-1.241.637-.213 1.226-1.291 1.307-2.397.14-1.899 1.653-6.426 3.639-10.888.49-1.1 2.726-7.625 4.97-14.5 2.243-6.875 4.665-13.41 5.382-14.522.717-1.112 1.64-4.018 2.053-6.458.412-2.439 1.841-7.335 3.175-10.88 1.334-3.544 2.204-7.022 1.933-7.727-.271-.706-.082-1.425.419-1.598.501-.173 1.183-3.454 1.514-7.29.332-3.837 1.386-9.237 2.344-12 .958-2.764 1.849-7.05 1.98-9.525.303-5.72 2.872-17.574 4.673-21.566.761-1.686 1.62-7.761 1.908-13.5.629-12.52 1.223-19.116 2.561-28.434.553-3.85 1.908-16.675 3.011-28.5 1.104-11.825 2.215-22.625 2.471-24 .255-1.375.717-5.556 1.027-9.29.309-3.735 1.016-8.91 1.569-11.5 1.785-8.348 2.107-15.588.862-19.37-.924-2.806-.937-5.138-.058-10 .631-3.487 1.334-9.94 1.563-14.34.229-4.4.453-8.675.499-9.5.065-1.174.262-1.218.906-.203 2.07 3.265 3.968-3.644 4.407-16.046.131-3.713.689-6.757 1.239-6.766.55-.008.325-.452-.5-.985-.825-.533-1.05-.977-.5-.986.62-.01 1.069-6.566 1.182-17.265.1-9.487.491-18.824.867-20.749.879-4.49 1.163-56.938.306-56.409-.809.499-1.855-2.135-1.855-4.673 0-1.055-.48-1.918-1.067-1.918s-.815-.798-.505-1.773c.309-.975.148-3.219-.359-4.986-.584-2.038-.565-3.435.053-3.817.603-.372.501-1.173-.268-2.1-.859-1.035-1.325-6.801-1.509-18.661-.147-9.44-.483-19.638-.747-22.663-.264-3.025-.767-13.596-1.117-23.491-.35-9.896-.994-18.446-1.43-19-.437-.555-1.553-10.009-2.48-21.009s-2.11-24.145-2.629-29.211c-1.028-10.051-1.231-17.911-.441-17.121.275.275.56 3.05.631 6.166.072 3.116.471 5.666.886 5.666 1.009 0 1.848 5.965.919 6.539-.401.248-.292 2.14.242 4.206.534 2.065.925 4.655.868 5.755-.162 3.136 1.982 27.336 3.02 34.094.516 3.351 1.194 8.301 1.507 11 .313 2.698.987 5.056 1.498 5.239.51.184.928.998.928 1.809 0 .812-.45 1.198-1 .858-1.413-.873-1.247 1.853.2 3.3 1.928 1.928 2.467 1.429 2.612-2.416.075-1.989.636-4.219 1.248-4.956.612-.737.827-1.802.478-2.366-.348-.564-.643-4.183-.655-8.044-.013-3.86-.374-7.018-.804-7.018-.43 0-1.083-6.187-1.45-13.75-.857-17.651-1.547-25.886-2.535-30.25-.436-1.925-.9-7.548-1.031-12.495-.131-4.948-.582-9.223-1.002-9.5-.71-.469-2.509-20.973-2.085-23.755.348-2.284.42-9.683.144-14.75-.501-9.163-3.279-32.972-4.084-35-.748-1.885-2.885-14.87-6.583-40-2.07-14.072-5.413-30.71-6.429-32-.433-.55-1.007-2.575-1.275-4.5-.7-5.016-6.291-30.16-8.673-39a995.734 995.734 0 0 1-4.244-16.5c-1.222-4.95-2.697-9.331-3.277-9.735-.58-.404-.662-.741-.183-.75.48-.008.398-.587-.183-1.287-.946-1.14-2.675-6.517-6.723-20.906-3.332-11.846-13.913-42.925-16.451-48.322-1.552-3.3-3.953-9.15-5.336-13-2.578-7.182-5.055-13.466-6.699-17-.512-1.1-2.5-5.952-4.418-10.782-4.883-12.3-12.705-28.718-13.681-28.718-.45 0-.559-.675-.243-1.5.317-.825.051-1.5-.59-1.5s-.912-.412-.601-.915c.311-.503.189-1.065-.271-1.25-.825-.331-3.949-6.132-10.142-18.835-5.35-10.973-10.58-19.812-21.182-35.8-1.569-2.365-2.852-4.705-2.852-5.2 0-.496-.573-1.26-1.274-1.7-.701-.44-2.127-2.138-3.17-3.774-3.42-5.366-10.059-12.689-10.817-11.932-.464.464-5.739-5.984-5.739-7.016 0-.305-.642-1.348-1.428-2.317-.785-.968-3.62-4.686-6.3-8.261-2.913-3.886-5.556-6.444-6.572-6.361-.935.076-1.7-.513-1.7-1.309 0-.796-.379-1.214-.842-.928-.462.286-2.361-1.048-4.218-2.964-1.857-1.916-3.947-3.265-4.645-2.998-2.581.991-8.242-3.9-11.187-9.665-4.319-8.457-6.272-10.762-31.358-37.013-4.812-5.036-8.75-9.712-8.75-10.392 0-.679-.9-1.521-2-1.87-1.1-.349-2-1.073-2-1.609s-4.335-5.43-9.633-10.876c-5.298-5.446-11.261-12.152-13.25-14.903-1.989-2.751-4.149-5.026-4.8-5.057-.65-.03-1.464-.943-1.809-2.029-.344-1.086-1.95-2.916-3.567-4.068-1.618-1.152-2.941-2.739-2.941-3.526 0-.788-.421-1.432-.935-1.432-.515 0-3.552-2.764-6.75-6.143-8.544-9.025-16.372-16.704-22.791-22.357-3.124-2.75-6.908-6.125-8.411-7.5-1.503-1.375-6.306-5.535-10.673-9.244-4.367-3.709-9.374-8.08-11.126-9.715-1.753-1.634-4.361-3.266-5.797-3.626-1.436-.36-2.372-.893-2.082-1.184.589-.589-3.299-4.231-4.517-4.231-.426 0-1.37-.584-2.097-1.298-2.073-2.036-18.043-11.384-20.821-12.187-1.375-.398-3.625-1.458-5-2.357-4.466-2.919-5.648-3.618-10.828-6.408-2.808-1.513-5.795-2.75-6.639-2.75-.843 0-1.533-.379-1.533-.843 0-.936-7.109-4.637-11-5.727-1.375-.385-2.725-1.007-3-1.382-.275-.376-5.45-2.403-11.5-4.504-11.391-3.957-19.5-5.512-19.5-3.738 0 .554-.788.843-1.75.642-13.82-2.883-36.183-6.551-45.25-7.422-22.836-2.195-22.275-2.184-21.606-.442.333.869.606 1.993.606 2.498 0 .505 1.377.918 3.059.918 1.682 0 2.827.375 2.544.833-.283.459-1.885.632-3.559.387-2.923-.429-3.05-.294-3.204 3.417-.156 3.775-.169 3.788-.568.556-.224-1.819-1.052-3.555-1.84-3.857-1.887-.725-1.84-2.336.068-2.336 2.072 0 1.889-2.613-.25-3.564-1.499-.666-41.952-1.4-42.58-.773M634 49.514c-.825.203-5.55.679-10.5 1.057-9.426.719-9.548 2.222-.191 2.359 3.404.049 4.598.412 4.086 1.24-.507.821-.152.944 1.191.412 1.053-.418 5.878-.948 10.722-1.178 4.845-.231 10.633-.83 12.862-1.331 2.23-.501 5.691-.693 7.692-.427 2.537.338 3.184.197 2.138-.465-1.503-.952-25.18-2.361-28-1.667m66.515 3.51c.332.537 3.126.976 6.211.976 7.02 0 6.564-.613-1.02-1.372-3.658-.366-5.572-.22-5.191.396m25.985 4.499c6.763 1.738 10.287 1.656 4-.093-2.75-.765-5.9-1.347-7-1.292-1.1.055.25.678 3 1.385M622.642 299.977c-5.972.415-11.147 1.2-11.5 1.744-.353.545-2.442 1.314-4.642 1.709-7.707 1.385-22.07 6.858-29.75 11.336-4.263 2.486-7.75 4.833-7.75 5.216s-1.237 1.25-2.75 1.926c-2.929 1.31-11.264 6.608-33.665 21.402-18.054 11.923-34.666 23.97-47.47 34.426-1.862 1.52-5.125 3.601-7.25 4.625-2.126 1.024-3.865 2.291-3.865 2.817 0 .526-1.012.672-2.25.324-1.504-.423-1.816-.331-.94.278 1.004.699.697 1.313-1.318 2.633-1.445.947-3.497 1.787-4.56 1.867-1.063.08-2.174.908-2.47 1.84-.692 2.179-3.462 3.299-3.462 1.401 0-1.154-.602-1.216-3.25-.332-1.788.596-3.677 1.473-4.2 1.947-.522.475-1.527.864-2.231.864-2.013 0-9.823 6.185-11.997 9.5-3.588 5.471-8.641 13.923-11.88 19.868-1.87 3.433-3.404 5.3-3.696 4.5-.281-.769-.799-.053-1.182 1.632-1.031 4.528-2.135 6.03-4.197 5.708-1.481-.231-1.573-.094-.446.665 1.201.808 1.123 1.377-.5 3.674-1.057 1.495-2.431 3.596-3.055 4.669-1.976 3.4-3.05 4.049-3.738 2.256-.425-1.107.498-2.798 2.767-5.067 1.873-1.873 2.948-3.405 2.39-3.405-1.394 0-7.821 7.133-7.254 8.05.252.407-.243 1.009-1.1 1.338-.857.329-1.278 1.051-.935 1.605.342.554.183 1.007-.354 1.007-1.365 0-7.427 12.73-6.656 13.978.348.562.195 1.022-.339 1.022-.533 0-2.225 3.262-3.758 7.25-1.534 3.988-4.801 11.075-7.262 15.75-5.79 11.002-6.209 11.754-9.193 16.5-1.383 2.2-3.373 6.025-4.421 8.5-2.518 5.947-5.447 10.159-6.578 9.46-.502-.31-.644.134-.317.988.338.878.068 1.552-.62 1.552-.847 0-1.032-1.139-.609-3.75.335-2.062.684-4.312.776-5 .093-.687.57-1.25 1.061-1.25.49 0 .614-.45.274-1-.34-.55-.066-1 .608-1 .674 0 .934-.291.578-.648-.769-.768 3.316-8.352 4.498-8.352.449 0 .834.563.855 1.25.074 2.349 2.961-5.473 2.961-8.02 0-1.398 1.055-3.934 2.344-5.636 2.824-3.728 7.954-16.262 7.332-17.914-.256-.681-.766-.335-1.207.82-2.067 5.414-4.567 10.442-5.466 10.998-.552.341-1.003 1.451-1.003 2.467 0 1.36-.532 1.709-2.015 1.321-1.533-.401-1.87-.149-1.407 1.056.375.977-.384 2.501-1.986 3.985-1.425 1.321-2.592 2.941-2.592 3.6 0 2.805-5.268 11.985-8.969 15.627-2.204 2.171-3.803 4.509-3.551 5.196.251.688.096 1.25-.345 1.25-.441 0-.853.563-.916 1.25-.063.688-.534 5.29-1.047 10.229-.514 4.938-.721 9.532-.462 10.208.26.677-.071 2.878-.736 4.891-.984 2.983-.957 3.815.15 4.499 1.119.691 1.051 1.356-.383 3.785-.958 1.621-1.741 3.627-1.741 4.459 0 .832-.495 1.677-1.1 1.879-.607.202-1.247 3.367-1.428 7.062-.18 3.683-.609 7.151-.952 7.706-.364.589.02.762.924.415 1.335-.512 1.461.278.914 5.762-.348 3.495-1.111 6.96-1.696 7.699-.793 1.003-.534 1.765 1.02 3 2.66 2.114 3.642 10.173 1.844 15.13-1.361 3.751-4.459 20.116-6.063 32.026-.111.825-1.009 5.775-1.996 11-.986 5.225-1.786 10.625-1.777 12 .014 2.051-2.154 16.07-6.187 40-.554 3.29-1.869 10.1-4.459 23.087-.613 3.072-1.283 8.697-1.489 12.5-.205 3.802-1.067 12.313-1.914 18.913-2.908 22.657-4.713 42.018-5.173 55.5-.254 7.425-.661 15.525-.904 18-2.625 26.698-3.542 56.218-4.024 129.5-.277 42.286-.045 56.603 1.072 66 .784 6.6 1.668 25.05 1.963 41 .395 21.302.898 29.796 1.895 32 .746 1.65 1.677 5.25 2.068 8 .682 4.798 2.365 9.471 2.432 6.75.043-1.794 2.03-1.55 2.03.25 0 .825-.45 1.5-1 1.5-2.32 0 .115 16.273 5.154 34.442 1.077 3.882 2.624 9.533 3.439 12.558.814 3.025 1.889 6.4 2.389 7.5.5 1.1 1.843 5.6 2.983 10 1.141 4.4 2.485 8.9 2.987 10 .802 1.758 1.631 4.769 4.996 18.132.433 1.723 1.139 3.7 1.568 4.394.429.694.928 2.538 1.11 4.097.182 1.56 2.365 7.133 4.852 12.384 2.487 5.252 4.522 10.179 4.522 10.95 0 .77.707 2.107 1.571 2.972.865.864 1.283 1.571.929 1.571-.354 0 .064.707.929 1.571.864.865 1.571 2.215 1.571 3 0 .786.401 1.429.892 1.429.49 0 1.201 1.233 1.579 2.74.378 1.507 1.043 2.969 1.477 3.25.434.28 1.959 2.829 3.388 5.663 1.43 2.834 3.964 6.647 5.632 8.473 1.667 1.826 3.032 3.878 3.032 4.561 0 3.662 10.572 19.07 17.961 26.179 2.497 2.401 3.977 4.062 3.289 3.691-1.664-.898-1.606.903.074 2.297.837.695 1.673.749 2.275.147.601-.601 1.444-.133 2.294 1.274 1.076 1.783 1.081 1.977.025.975-1.545-1.465-2.918-1.628-2.918-.346 0 1.125 6.105 8.096 7.09 8.096.398 0 .487-.9.2-2-.288-1.1-1.146-2-1.907-2-1.564 0-1.861-1.587-.458-2.454.508-.314 2.196.819 3.75 2.518a254.054 254.054 0 0 0 5.075 5.377c1.237 1.258 2.253 2.687 2.258 3.174.004.487 1.817 1.919 4.03 3.182 2.212 1.263 3.76 2.721 3.44 3.239-.32.517.004.721.72.452.72-.27 2.361 1.069 3.671 2.997 1.303 1.917 2.835 3.198 3.404 2.846.594-.367.736-.154.332.499-.395.639.743 2.59 2.596 4.45 1.814 1.821 4.874 5.243 6.799 7.605 4.294 5.269 16.955 17.731 20.154 19.837 1.29.85-.129-.927-3.154-3.949s-6.85-7.138-8.5-9.148c-1.65-2.01-4.8-5.602-7-7.982s-5.575-6.26-7.5-8.622c-1.925-2.362-4.062-4.876-4.75-5.586-1.54-1.592-1.626-3.435-.161-3.435 1.294 0 9.911 8.677 9.911 9.979 0 .497.445 1.178.989 1.514.566.35.734-.051.393-.941-.386-1.006-.03-1.552 1.011-1.552.884 0 1.607.675 1.607 1.5 0 1.823 2.133 1.961 3.867.25 1.017-1.003 2.059-.362 5.282 3.25 2.209 2.475 3.727 3.938 3.374 3.25-1.24-2.417.614-3.398 2.441-1.291.982 1.131 4.879 4.337 8.66 7.124 3.782 2.786 9.801 7.867 13.376 11.29 5.522 5.288 15.417 13.89 22.601 19.649 1.044.837 6.174 4.331 11.399 7.764 5.225 3.433 9.992 6.637 10.594 7.121.602.484 2.605 1.661 4.451 2.616 1.846.955 3.887 2.24 4.534 2.857.647.616 2.181 1.795 3.409 2.62 4.324 2.904 8.012 6.821 8.012 8.508 0 1.106.528 1.503 1.5 1.13.825-.316 1.518-.027 1.541.643.049 1.458 7.865 5.246 13.459 6.523 2.2.502 6.71 2.064 10.023 3.472 6.721 2.855 15.323 3.63 19.927 1.797 3.515-1.4 16.047-2.877 34.55-4.07 15.131-.976 37.033-4.439 38.003-6.008.35-.565 2.404-1.224 4.566-1.463 2.162-.239 5.503-.906 7.424-1.483 4.274-1.283 4.27-1.283 3.507-.049-.886 1.434 1.253 1.233 4.346-.409 1.46-.774 6.244-2.657 10.631-4.184 4.388-1.527 9.349-3.705 11.025-4.841 1.677-1.136 5.062-2.9 7.523-3.919 2.461-1.019 5.375-2.336 6.475-2.927 4.372-2.349 6.092-3.337 8.206-4.712l2.206-1.434-2.67-3.537c-1.468-1.945-3.136-4.084-3.706-4.752-2.436-2.858-3.492-4.22-7.664-9.886-2.42-3.289-4.961-6.636-5.645-7.439-.685-.803-3.142-3.935-5.461-6.96-2.319-3.025-4.523-5.725-4.897-6.001-.374-.275-2.374-2.975-4.445-6-4.129-6.033-11.082-15.068-14.646-19.032-1.253-1.394-2.364-2.879-2.47-3.302-.105-.422-1.583-2.432-3.284-4.466-4.841-5.789-5.024-6.05-5.024-7.188 0-.591-.675-1.333-1.5-1.649-.825-.317-1.5-1.217-1.5-2 0-.784-.675-1.684-1.5-2-.825-.317-1.5-1.203-1.5-1.969s-.45-1.393-1-1.393-1-.792-1-1.76-1.125-2.974-2.5-4.457c-1.375-1.482-2.5-2.917-2.5-3.188 0-.271-1.084-1.661-2.409-3.091-1.324-1.429-3.098-4.04-3.941-5.801-.844-1.762-2.685-4.753-4.092-6.647-1.407-1.895-2.558-3.857-2.558-4.361 0-.505-1.8-3.067-4-5.695s-4-5.278-4-5.889c0-.611-.45-1.111-1-1.111s-1.008-.787-1.017-1.75c-.01-.963-1.135-2.81-2.5-4.105-1.366-1.295-2.483-2.983-2.483-3.75 0-.767-.45-1.395-1-1.395s-1-.675-1-1.5-.441-1.5-.981-1.5c-.539 0-1.263-1.125-1.608-2.5-.345-1.375-.959-2.5-1.363-2.5s-2.268-2.249-4.141-4.998c-1.874-2.749-3.744-4.999-4.157-5-.413-.001-.75-.707-.75-1.569 0-.861-1.176-3.108-2.613-4.993l-2.614-3.426 2.864-5.368c7.281-13.65 10.667-17.851 29.984-37.199 10.953-10.971 22.021-21.522 24.597-23.447 6.684-4.996 20.566-16.929 42.462-36.5 12.829-11.467 21.388-18.298 26.295-20.987 9.59-5.256 12.72-9.164 18.065-22.556 5.352-13.406 6.736-14.896 25.17-27.072 7.309-4.828 15.315-10.165 17.79-11.86a761.973 761.973 0 0 1 9-6.051c2.475-1.633 7.535-5.122 11.245-7.754 6.848-4.858 13.727-8.627 21.628-11.851l4.373-1.784 1.953 2.458a187.274 187.274 0 0 0 4.117 4.957c1.19 1.375 3.186 3.99 4.436 5.812 1.249 1.821 3.824 4.91 5.722 6.864 1.897 1.954 3.396 3.839 3.329 4.188-.258 1.361 1.471 4.136 2.577 4.136.641 0 2.013 1.575 3.05 3.5s2.264 3.5 2.727 3.5c.464 0 .843.652.843 1.448 0 .797 1.125 2.663 2.5 4.147 1.375 1.483 2.5 3.333 2.5 4.11 0 .777.395 1.169.877.871.483-.298 2.697 2.167 4.921 5.479l4.044 6.022 1.113-5.788a471.984 471.984 0 0 1 1.995-9.789c.485-2.2 1.416-8.275 2.068-13.5.652-5.225 1.589-10.534 2.084-11.797.494-1.263.903-3.738.91-5.5.011-3.032 1.562-9.554 3.853-16.203 5.852-16.988 9.705-34.285 8.545-38.37-.411-1.446-.759-3.08-.774-3.63-.049-1.794 1.447-16.899 2.08-21 .339-2.2.582-5.125.539-6.5-.043-1.375.376-3.05.932-3.722.556-.672 1.416-2.809 1.912-4.75.496-1.94 1.404-5.215 2.019-7.278 1.161-3.897 2.021-10.496 3.997-30.66.874-8.927.881-12.367.026-13.736-1.663-2.662-1.563-26.996.109-26.779 3.069.398 3.503-.375 3.985-7.111.534-7.462 1.289-9.33 2.804-6.935.741 1.172.933 1.03.946-.696.008-1.191-.543-2.352-1.226-2.58-.893-.298-.753-.902.498-2.153 2.066-2.066.763-5.62-2.042-5.568-1.603.03-1.601.118.035 1.36 2.398 1.821 2.194 2.81-.5 2.428-1.809-.257-2.248-.957-2.24-3.57.005-1.788-.385-3.25-.867-3.25s-.641-.9-.353-2c.287-1.1.052-2-.523-2-.667 0-.831 1.81-.453 5 .596 5.036-.563 6.93-1.684 2.75-1.016-3.791-.733-13.932.37-13.25.638.395.949-2.206.858-7.191-.108-5.948-.287-6.855-.75-3.809-1.292 8.498-2.612.736-2.892-17-.196-12.45.03-17.538.735-16.5.798 1.176 1.019.852 1.023-1.5.007-4.945-1.169-10.497-2.102-9.921-.479.296-.872-.373-.872-1.489 0-1.345-.48-1.843-1.427-1.48-1.067.41-1.591-.668-2.081-4.281-.36-2.656-1.127-6.366-1.705-8.245-1.017-3.302-1.186-11.063-.759-34.878.23-12.838-1.511-22.907-4.101-23.729-1.869-.593-2.927-6.217-2.927-15.558 0-3.19-.397-6.047-.883-6.347-.87-.537-2.689-11.177-2.225-13.017.131-.519-.211-1.869-.76-3-.549-1.13-1.909-8.355-3.022-16.055-4.32-29.875-6.154-40.849-7.003-41.904-.829-1.03-1.318-3.572-2.664-13.846-.545-4.16-1.404-6.714-3.951-11.75-2.922-5.776-11.293-27.932-11.335-30-.105-5.15-3.926-18-5.353-18-.507 0-.644-.45-.304-1s.141-1-.441-1-1.059-.689-1.059-1.531c0-.843-.701-1.801-1.557-2.129-.857-.329-1.338-1.172-1.068-1.874.269-.701-1.055-5.43-2.943-10.507-1.888-5.077-3.432-10.283-3.432-11.568 0-3.358-4.191-11.532-5.629-10.98-1.466.563-2.829-2.51-1.483-3.342.938-.579-4.51-12.931-6.266-14.207-.483-.351-.588-1.108-.234-1.681a1.228 1.228 0 0 0-.396-1.686c-.573-.354-.977-.273-.898.181.34 1.961-.187 2.374-1.438 1.123-1.437-1.437-6.981-9.965-7.02-10.799-.013-.275-.866-1.4-1.895-2.5-1.084-1.159-1.692-2.939-1.448-4.233.352-1.859.066-2.144-1.706-1.699-1.677.42-2.817-.44-5.359-4.046-3.233-4.588-4.102-7.522-2.228-7.522.55 0 1 .525 1 1.167 0 .641.289.877.643.524.898-.898-1.669-3.793-2.764-3.116-1.129.697-4.354-2.434-3.444-3.344.371-.37 1.075-.024 1.565.769s1.138 1.195 1.44.893c.302-.302-.799-3.183-2.446-6.404-1.646-3.22-2.994-6.014-2.994-6.207 0-1.363 4.282 2.363 5.563 4.841.872 1.684 1.837 2.811 2.145 2.502.705-.705-7.467-14.323-10.026-16.707-1.046-.974-2.435-1.566-3.087-1.316-1.275.489-1.966-.236-11.077-11.625C792.2 378.08 782.245 368 780.762 368c-.484 0-.63-.404-.325-.897 1.007-1.631-19.729-21.425-26.739-25.525-3.664-2.143-7.481-4.612-8.481-5.487-2.948-2.579-9.521-6.106-18.967-10.178-1.788-.771-3.25-1.681-3.25-2.022 0-.341-3.263-1.411-7.25-2.377-3.987-.966-8.825-2.548-10.75-3.515-7.456-3.745-11.33-5.47-12.393-5.52-1.13-.052-2.624-.463-20.107-5.528-11.46-3.32-29.125-7.09-35-7.47-2.2-.142-8.886.081-14.858.496m-117.458 42.168c-2.374 1.681-4.037 3.335-3.696 3.677.342.341.934.159 1.316-.404.383-.563 2.384-2.049 4.446-3.302 2.063-1.254 3.75-2.467 3.75-2.698 0-.97-1.758-.146-5.816 2.727m11.987 6.952c-1.796 2.877-1.116 2.966 1.543.204 1.227-1.275 1.669-2.301.991-2.301-.673 0-1.813.944-2.534 2.097m-27.504 19.57c-1.07 1.069-.767 3.513.349 2.823.559-.346.71-1.124.336-1.729-.435-.704-.092-.875.952-.475.898.345 1.898.196 2.223-.33.662-1.071-2.818-1.332-3.86-.289M822.73 434.75c.367.962 1.703 2.87 2.969 4.24 1.265 1.369 2.31 2.944 2.32 3.5.029 1.541 6.826 8.999 7.546 8.279.601-.602-4.413-7.996-8.33-12.283-1.012-1.108-2.14-2.796-2.506-3.75-.366-.955-1.116-1.736-1.666-1.736-.55 0-.7.788-.333 1.75m-721.086 72.511c-1.912 5.008-2.106 7.115-.39 4.239.657-1.1 1.228-2.225 1.269-2.5.041-.275.432-1.546.867-2.825 1.445-4.241-.071-3.298-1.746 1.086M1126.086 518c.03.825.441 2.4.914 3.5l.859 2 .055-2c.031-1.1-.381-2.675-.914-3.5-.862-1.333-.963-1.333-.914 0M95.214 527.654c-.616 2.009-.724 3.246-.238 2.75.978-1.002 2.497-6.404 1.8-6.404-.242 0-.945 1.644-1.562 3.654m1035.43 5.846c.3 1.65.78 4.243 1.066 5.762.287 1.519.967 3.038 1.512 3.375 1.216.752.12-4.837-1.791-9.137l-1.334-3 .547 3m11.978 5.25c.941 3.926 1.378 4.058 1.378.417 0-1.742-.459-3.167-1.019-3.167-.605 0-.751 1.117-.359 2.75M351 541.257c0 .141-.435 1.828-.968 3.75-.883 3.186-.839 3.323.5 1.552 1.392-1.841 2.04-5.559.968-5.559-.275 0-.5.115-.5.257m783.658 8.943c.619 3.257 3.012 8.8 3.798 8.8.222 0-.057-1.462-.622-3.25-.564-1.788-1.262-4.269-1.55-5.515-.839-3.634-2.317-3.666-1.626-.035M1149 563.941c0 1.618.356 3.161.791 3.43.435.269.611-1.055.391-2.941-.491-4.203-1.182-4.489-1.182-.489m-9.985 3.943c-.008 1.311.419 4.011.949 6 .53 1.989 1.645 6.509 2.478 10.044.833 3.536 2.04 6.911 2.683 7.5.874.801.984.567.437-.928-.403-1.1-.981-3.575-1.286-5.5-.304-1.925-.886-3.95-1.291-4.5-.406-.55-1.038-3.479-1.403-6.509-.729-6.031-2.539-10.34-2.567-6.107m13 9.366c-.008 1.513.435 2.75.985 2.75 1.264 0 1.264-2.043 0-4-.755-1.169-.973-.893-.985 1.25m1.495 6.25c.363 1.1.908 3.473 1.21 5.274.302 1.801.876 3.476 1.276 3.723 1.098.679-.466-6.765-1.896-9.022-1.239-1.956-1.245-1.956-.59.025m-6.855 16.957c-.326.849-.205 1.543.267 1.543.473 0 1.612 3.938 2.532 8.75 2.533 13.259 2.626 13.666 3.232 14.227 1.533 1.42-3.425-24.05-4.986-25.61-.249-.249-.719.241-1.045 1.09m11.464 2.793c1.222 4.053 3.601 16.107 5.773 29.25.545 3.3 1.803 9.825 2.795 14.5 1.593 7.504 1.842 8.038 2.131 4.554.179-2.17-.374-6.895-1.231-10.5-1.471-6.196-4.024-18.568-4.962-24.054-1.101-6.444-4.032-17-4.719-17-.421 0-.325 1.462.213 3.25m-2.322 38.25c.364 3.3.638 7.44.609 9.2-.028 1.759.318 2.97.771 2.691.453-.28.823-.032.823.55 0 1.77-2.821 1.181-3.311-.691-.374-1.432-.478-1.376-.573.311-.064 1.134.846 3.094 2.022 4.356 1.745 1.874 1.883 2.456.75 3.174-1.125.712-1.076.881.255.894 1.767.016 3.223 2.614 2.301 4.105-.309.501-.085.91.497.91s1.059.702 1.059 1.559.391 1.317.87 1.022c.923-.571.239-5.191-1.863-12.581-.704-2.475-1.438-5.4-1.632-6.5-.194-1.1-1.002-4.925-1.796-8.5l-1.443-6.5.661 6m15.253 21.5c-.359 1.877-.433 1.065.956 10.5.647 4.4 1.59 11.15 2.094 15 1.82 13.884 3.67 23.958 3.765 20.5.052-1.925-.366-6.65-.93-10.5-.564-3.85-1.234-8.575-1.49-10.5-.255-1.925-.938-6.2-1.518-9.5-.58-3.3-.802-7.35-.492-9 .384-2.048.268-2.542-.365-1.557-.677 1.054-1.035.38-1.33-2.5-.222-2.169-.533-3.268-.69-2.443M58.252 705.5c.011 2.2.216 2.982.455 1.738.239-1.244.23-3.044-.02-4s-.446.062-.435 2.262m1120.763 17.583c.009 1.879.465 4.092 1.015 4.917.698 1.048.802.145.345-3-.813-5.601-1.38-6.4-1.36-1.917M50.3 727c0 3.025.187 4.263.416 2.75.229-1.513.229-3.987 0-5.5s-.416-.275-.416 2.75m-.957 28.5c.003 4.4.179 6.076.39 3.724.212-2.352.209-5.952-.006-8s-.388-.124-.384 4.276m6.098-2.15c-.557 1.778-.742 4.339-.413 5.691.452 1.855.761 1.123 1.261-2.982.779-6.401.543-7.154-.848-2.709m-1.273 22.599c-.585 1.678-.686 3.051-.224 3.051.916 0 2.423-4.966 1.72-5.669-.238-.238-.911.94-1.496 2.618M51.252 798.5c.011 2.2.216 2.982.455 1.738.239-1.244.23-3.044-.02-4s-.446.062-.435 2.262m1126.472 10.75c.849 13.009 2.65 30.71 3.081 30.278 1.448-1.447-1.144-34.528-2.705-34.528-.359 0-.528 1.913-.376 4.25m-1133.624-1c.055.688.46 2.375.9 3.75.715 2.231.811 2.097.9-1.25.055-2.062-.35-3.75-.9-3.75s-.955.563-.9 1.25M1158 839.5c0 1.925.176 3.5.391 3.5.214 0 .574-1.575.799-3.5.225-1.925.049-3.5-.391-3.5-.439 0-.799 1.575-.799 3.5m29.286 15c.008 2.75.202 3.756.432 2.236.229-1.52.223-3.77-.014-5-.237-1.23-.425.014-.418 2.764M48 856.882c0 1.65.45 3.278 1 3.618.582.36 1-.637 1-2.382 0-1.65-.45-3.278-1-3.618-.582-.36-1 .637-1 2.382M48 866c0 1.65.45 3 1 3s1-1.35 1-3-.45-3-1-3-1 1.35-1 3m1138.999 4c-.213 2.26-.157 3.319.344 6.5.191 1.215 1.795 2.469 3.157 2.469.55 0 .41-.374-.311-.831-.721-.457-1.681-3.038-2.132-5.735-.505-3.014-.913-3.94-1.058-2.403m-25.349 12c.823 1.65 2.026 2.993 2.673 2.985.847-.011.864-.222.062-.75-.614-.404-1.431-1.748-1.818-2.985-.386-1.237-1.087-2.25-1.558-2.25-.471 0-.182 1.35.641 3M39.03 886.083c.023 4.843.281 5.988 1.049 4.669.905-1.554.405-9.596-.664-10.669-.228-.229-.401 2.471-.385 6m1130.222 4.417c.011 2.2.216 2.982.455 1.738.239-1.244.23-3.044-.02-4s-.446.062-.435 2.262m-4.754 2.503c-.91 1.473.56 9.997 1.724 9.997.611 0 .689-1.061.201-2.75-.436-1.513-.775-3.987-.752-5.5.045-2.957-.2-3.322-1.173-1.747M39.057 907c-.317 3.984-.056 8.3.54 8.917.819.847.889-.56.321-6.417-.424-4.376-.657-5.053-.861-2.5m1127.288 3.099c.353 3.52.932 8.811 1.286 11.757.482 4.008.295 5.6-.744 6.326-1.07.749-1.101 1.086-.137 1.477.688.279 1.279 1.258 1.313 2.174.05 1.309.233 1.238.854-.333 1.077-2.724.682-11.779-.817-18.736-.68-3.154-.973-6.161-.652-6.681.322-.519.06-1.269-.581-1.665-.865-.535-.999.93-.522 5.681m-10.345.842c0 1.618.356 3.161.791 3.43.435.269.611-1.055.391-2.941-.491-4.203-1.182-4.489-1.182-.489m24.639 14.829c-.974 5.891-.778 8.444.611 7.97.688-.234 1.116-1.357.952-2.494-.164-1.138.113-2.323.616-2.634 1.01-.624.381-5.371-.81-6.107-.414-.256-1.03 1.213-1.369 3.265M39.116 934.25c.121 5.455.514 4.931 1.126-1.5.196-2.062-.003-3.75-.443-3.75-.439 0-.747 2.362-.683 5.25m1049.136 5.25c.011 2.2.216 2.982.455 1.738.239-1.244.23-3.044-.02-4s-.446.062-.435 2.262M39.015 946.25c.009 2.549.339 3.74.824 2.977.76-1.199.383-7.227-.452-7.227-.213 0-.38 1.913-.372 4.25m1050.906 1.501c.478 3.451.547 3.521.877.877.197-1.579-.036-3.266-.519-3.749-.503-.503-.656.722-.358 2.872M1172 951c0 .55.675 1 1.5 1s1.5.525 1.5 1.167c0 .641.289.877.643.524.744-.744-1.464-3.691-2.765-3.691-.483 0-.878.45-.878 1M40 956.059c0 1.682.39 2.818.866 2.524.805-.498.366-5.583-.483-5.583-.21 0-.383 1.377-.383 3.059m1013.006 35.629c-.003 1.204 1.344 3.667 2.994 5.473 1.65 1.807 3 3.634 3 4.062 0 .427.473.777 1.051.777s-.067-1.465-1.433-3.257c-1.366-1.791-3.186-4.603-4.045-6.25-1.362-2.612-1.561-2.715-1.567-.805M41 994.941c0 1.132.45 2.059 1 2.059s1-.648 1-1.441-.45-1.719-1-2.059c-.55-.34-1 .309-1 1.441M48.757 1013c.286 4.125.682 7.688.881 7.917.695.8.156-10.438-.619-12.917-.44-1.411-.555.768-.262 5m1097.994 8.524c-.266 1.388-.093 2.765.383 3.059.476.294.866-.842.866-2.524 0-3.712-.593-3.967-1.249-.535M55 1026.435c0 1.339.401 3.488.89 4.776 1.247 3.28 2.476 31.55 1.317 30.289-.506-.55-1.437-4.805-2.068-9.454-.631-4.65-1.596-8.903-2.143-9.45-1.295-1.295-1.292-2.897.004-2.096.55.34 1-.11 1-1s-.408-1.366-.907-1.058c-.498.309-.671-.34-.383-1.441.364-1.392.031-2.001-1.093-2.001-.89 0-1.617-.723-1.617-1.607 0-1.096.556-1.413 1.75-.998 1.404.489 1.355.303-.25-.943-1.549-1.202-2.055-1.259-2.245-.252-.134.715.091 10.3.5 21.3l.745 20 2.75-.188c2.119-.145 2.75.256 2.75 1.75 0 1.066.436 1.938.969 1.938.532 0 .692-.72.354-1.601-.338-.881.013-1.992.781-2.47 1.07-.666 1.545 0 2.034 2.851.402 2.344.217 3.997-.5 4.47-.812.535-.826.965-.052 1.5 1.638 1.131 3.414 7.061 3.414 11.399 0 2.118.45 3.851 1 3.851s1 1.098 1 2.441c0 1.343.498 2.749 1.107 3.125.754.466.93-.233.553-2.191-.518-2.69-.865-5.453-2.231-17.799-.3-2.708-.908-5.633-1.352-6.5-.444-.867-1.121-6.301-1.505-12.076-.728-10.971-.929-12.591-2.489-20.06-.523-2.508-1.133-6.82-1.354-9.581-.222-2.762-.728-5.548-1.125-6.191-.397-.642-.444-1.618-.104-2.168s.141-1-.441-1-1.059 1.096-1.059 2.435m879.921.814c-.298 2.15-.145 3.375.358 2.872.483-.483.716-2.17.519-3.749-.33-2.644-.399-2.574-.877.877m-1.785 8.419c-.075 1.193-.395 2.993-.712 4-.544 1.734-.514 1.737.566.053.628-.978.948-2.778.712-4-.429-2.219-.43-2.219-.566-.053M57 1066.441c0 2.322 1.585 4.307 2.615 3.277.761-.761-.733-5.718-1.723-5.718-.491 0-.892 1.098-.892 2.441M46 1077.5c0 1.925.45 3.5 1 3.5s1-1.575 1-3.5-.45-3.5-1-3.5-1 1.575-1 3.5m870.53 3.686c-.371 2.923-.897 6.101-1.17 7.064-.272.963-.067 1.75.456 1.75.982 0 2.738-12.779 1.875-13.643-.267-.267-.789 1.906-1.161 4.829m-862.175 1.411c1.099 9.833 3.261 22.353 3.985 23.076.374.375.461-.636.192-2.246-1.575-9.417-2.524-17.769-2.071-18.221.287-.287-.008-1.16-.655-1.94-.916-1.104-.859-1.62.258-2.327 1.084-.686 1.115-.912.127-.924-.72-.008-1.05-.434-.734-.946.317-.512.05-1.256-.593-1.653-.869-.537-1 .795-.509 5.181M911.3 1095c0 3.025.187 4.263.416 2.75.229-1.513.229-3.987 0-5.5s-.416-.275-.416 2.75m3.505.872c-.231 1.579-.089 3.717.317 4.75.486 1.237.761.257.808-2.872.078-5.311-.483-6.249-1.125-1.878m222.331 11.296c-.075.918-.427 2.493-.783 3.5-.5 1.414-.366 1.573.584.697.678-.624 1.031-2.199.784-3.5-.247-1.301-.51-1.614-.585-.697M333 1205.122c0 1.212 3.256 9.955 3.585 9.626.553-.553-1.651-8.123-2.678-9.198-.499-.523-.907-.715-.907-.428m807.753 60.086c-.273 1.261-.827 3.079-1.231 4.042-.433 1.03-.299 1.75.326 1.75.584 0 1.361-1.596 1.727-3.547.729-3.889-.022-5.942-.822-2.245m-25.071 25.444c-.997.996-.834 4.348.211 4.348.491 0 1.125-.603 1.407-1.341.618-1.61-.653-3.973-1.618-3.007m-26.206 10.423c-.362 1.142-.393 2.342-.067 2.667.325.325.591.098.591-.504s.707-1.802 1.571-2.667c1.369-1.368 1.378-1.571.068-1.571-.827 0-1.801.934-2.163 2.075m23.977.675c-.418.963-.658 2.565-.534 3.561.154 1.227-.327 1.71-1.492 1.5-.946-.171-1.937.314-2.203 1.078-.295.847-.042 1.117.646.691 1.396-.862 1.468 1.401.155 4.855-.537 1.411-.645 2.565-.241 2.565 1.266 0 3.316-4.029 2.622-5.152-.364-.59-.078-1.433.636-1.874.714-.441 1.378-1.853 1.476-3.138.098-1.285.52-3.123.937-4.086.436-1.006.334-1.75-.241-1.75-.55 0-1.342.787-1.761 1.75m-6.002 10.857c-.329 1.041-1.005 2.66-1.504 3.597-.498.937-.547 1.925-.108 2.196.937.58 3.613-6.281 2.776-7.118-.312-.313-.836.284-1.164 1.325m-3.701 10.725c-.412 1.007-.75 2.64-.75 3.627 0 .988-.675 2.356-1.5 3.041s-1.5 1.674-1.5 2.199c0 .525 1.156-.419 2.569-2.098 1.717-2.041 2.463-3.973 2.25-5.827-.265-2.303-.446-2.463-1.069-.942m-686.75 1.3c0 1.654 4.328 7.368 5.582 7.368.78 0 1.418.517 1.418 1.149s1.575 2.679 3.5 4.548c1.925 1.87 3.5 4.018 3.5 4.774 0 .757 1.199 2.8 2.664 4.542 2.178 2.588 2.406 3.329 1.25 4.061-.778.493-.923.902-.323.911.6.008 3.035 1.921 5.411 4.249 2.742 2.688 3.866 3.388 3.078 1.915-1.489-2.782-.729-3.933 1.419-2.15 1.303 1.081 1.447 1.025.917-.358-.347-.902-1.257-1.641-2.023-1.641-.766 0-1.393-.83-1.393-1.845 0-1.015-.9-2.66-2-3.655-1.1-.995-2-2.372-2-3.06 0-.687-2.925-4.277-6.5-7.978-3.575-3.7-6.507-7.23-6.515-7.845-.009-.614-.452-.442-.985.383-.862 1.333-.973 1.333-1.002 0-.049-2.245-5.998-7.57-5.998-5.368m30.032 10.118c.052 1.243 4.795 6.25 5.92 6.25 1.886 0 1.1-2.594-1.46-4.82-2.516-2.188-4.519-2.83-4.46-1.43M458 1370.313c0 .172 1.35 1.606 3 3.187 3.557 3.408 4.025 2.709.635-.948-2.075-2.24-3.635-3.201-3.635-2.239m241.25 49.151c-2.888 1.344-5.25 2.669-5.25 2.944 0 .547 9.731-3.806 10.721-4.796 1.045-1.044-.037-.678-5.471 1.852m185.056 190.096c-1.849 1.687-2.124 2.224-.806 1.574 3.189-1.574 6.11-4.067 4.806-4.102-.657-.018-2.457 1.12-4 2.528m-24.865 18.926c-1.776 1.36-1.664 1.394 1.309.402 3.393-1.132 4.171-1.888 1.941-1.888-.72 0-2.182.669-3.25 1.486m20.041 9.22c-2.19 1.488-3.982 2.547-3.982 2.353 0-.194-1.013-.031-2.25.362-1.237.392-2.25 1.321-2.25 2.063 0 .742-.562 1.55-1.25 1.796-.687.245-.946.774-.575 1.175.371.4 1.496.251 2.5-.333 1.004-.584 1.427-1.075.941-1.092-.487-.016 2.326-1.636 6.25-3.599 3.924-1.963 7.134-3.988 7.134-4.5 0-1.658-2.446-.992-6.518 1.775M701 1696.8c0 1.21-.45 2.2-1 2.2s-1.014-.787-1.03-1.75c-.027-1.527-.176-1.495-1.165.25-.624 1.1-1.623 2.331-2.22 2.735-.661.447-.401.74.665.75.962.008 1.75-.421 1.75-.954 0-.532.603-.737 1.34-.454 1.997.766 4.292-2.345 2.818-3.819-.877-.877-1.158-.624-1.158 1.042m3.868.4c-.621 2.931 1.602 4.73 3.499 2.833.711-.711.524-1.033-.597-1.033-.921 0-1.783-.98-1.98-2.25-.323-2.078-.394-2.043-.922.45m-11.571 6.582c.088 2.167.588 3.186 1.471 3 1.383-.292 1.813-1.828.482-1.723-.413.032-1.051-.98-1.418-2.25-.534-1.847-.641-1.653-.535.973" fill-rule="evenodd"/></svg>