<svg xmlns="http://www.w3.org/2000/svg" width="1240" height="1753"><path d="M592.361 60.217c-1.574.432-5.495.497-8.715.144-4.29-.471-6.068-.296-6.657.656-.482.78-3.21 1.4-6.828 1.552-3.315.139-7.519.716-9.344 1.281-1.824.565-6.641 1.473-10.704 2.016-6.367.852-7.782 1.421-10.25 4.123-1.749 1.915-2.863 2.566-2.863 1.672 0-1.047-.923-1.373-3.25-1.15-4.671.449-12.736 2.46-16.401 4.088-1.733.771-3.843 1.401-4.688 1.401-1.857 0-17.75 4.987-19.161 6.013-.55.399-2.8 1.294-5 1.987-2.2.693-4.483 1.642-5.074 2.107-.591.466-2.756.631-4.81.368-2.665-.341-3.531-.147-3.021.678.394.638.28.888-.255.557-1.245-.769-23.732 5.158-24.173 6.373-.184.504-.92.917-1.636.917-.716 0-2.535.639-4.041 1.421-1.506.781-3.335 1.192-4.063.913-.728-.28-2.809.27-4.625 1.222-6.085 3.188-6.765 3.444-9.135 3.444-1.298 0-3.765.701-5.483 1.558-1.717.857-4.824 1.815-6.903 2.13-2.08.314-4.922 1.63-6.317 2.924-1.395 1.294-4.095 2.66-6 3.036-5.137 1.014-9.268 2.925-11.389 5.269-1.037 1.146-2.798 2.083-3.914 2.083-3.222 0-10.4 3.894-10.933 5.931-.294 1.126-1.812 2.143-3.857 2.583-4.133.891-7.608 2.63-10.774 5.391-2.109 1.839-4.401 2.617-5.43 1.845-.184-.137-1.954 1.1-3.934 2.75-1.98 1.65-7.63 6.15-12.556 10-4.926 3.85-8.755 7.338-8.508 7.75.247.412-.03.75-.617.75-.586 0-2.069 1.154-3.295 2.565-1.227 1.41-3.699 3.472-5.494 4.581-1.794 1.109-3.263 2.655-3.263 3.436 0 .78-.605 1.418-1.345 1.418s-2.15.889-3.134 1.976c-.983 1.087-2.178 1.736-2.655 1.441-.476-.294-.866-.105-.866.421C311 174.45 286.312 201 283.884 201c-.551 0-.724.45-.384 1 .34.55-.058 1-.884 1-.827 0-2.192.984-3.034 2.187-.843 1.202-4.294 5.211-7.669 8.909-3.376 3.697-6.65 7.598-7.275 8.67-.626 1.071-2.408 3.854-3.959 6.184-1.552 2.33-2.579 4.869-2.282 5.643.297.774.201 1.407-.213 1.407-.414 0-1.615 1.462-2.668 3.25-1.054 1.787-2.757 4.15-3.785 5.25-1.027 1.1-2.119 3.238-2.425 4.75-.306 1.512-.914 2.75-1.352 2.75-.437 0-1.108 1.463-1.491 3.25-.383 1.788-1.544 4.055-2.579 5.039-2.047 1.944-2.471 3.711-.89 3.711 1.038 0 .855 2.104-.48 5.5-2.837 7.22-5.055 11.229-6.01 10.863-.607-.233-1.862 1.165-2.788 3.107-.926 1.941-2.398 3.53-3.271 3.53-1.81 0-4.445 2.329-4.445 3.929 0 .589-.45 1.071-1 1.071s-1 .648-1 1.441-.443 1.715-.985 2.05c-.611.377-.753-.55-.375-2.441.47-2.352.255-3.05-.943-3.05-1.711 0-6.506 7.451-12.227 19-2.044 4.125-4.11 8.281-4.593 9.236-.482.955-.877 2.461-.877 3.346 0 .885-.661 2.804-1.469 4.264-2.479 4.482-4.546 10.32-3.979 11.239.297.48-.358 2.119-1.456 3.644-1.098 1.524-2.28 4.796-2.627 7.271-.348 2.475-1.488 6.075-2.535 8-1.046 1.925-2.364 6.2-2.928 9.5-1.689 9.872-3.776 18.514-4.782 19.795-.52.663-.992 2.82-1.048 4.794-.057 1.974-.612 4.899-1.235 6.5-.623 1.601-1.26 5.678-1.416 9.06-.155 3.383-.663 6.758-1.127 7.5-.465.743-.916 3.151-1.003 5.351-.256 6.433-1.437 15.505-2.938 22.561-1.008 4.74-1.267 11.263-.934 23.5.509 18.656.549 19.089 2.32 25.189 1.45 4.994 3.314 5.699 2.644 1-.367-2.573-.149-2.313 1.049 1.25.831 2.475 1.703 5.939 1.936 7.698.233 1.759 1.229 4.684 2.213 6.5.984 1.816 1.804 4.202 1.822 5.302.031 1.932 3.347 13.309 5.975 20.5.703 1.925 1.612 5.525 2.021 8 .408 2.475 1.11 4.735 1.561 5.023.45.287 1.086 2.762 1.414 5.5 1.159 9.678 3.087 15.864 4.645 14.901.49-.303 1.161.153 1.491 1.013.604 1.574 5.386 2.252 5.386.764 0-.44 1.494-.625 3.32-.412 2.641.308 3.306.828 3.25 2.541-.055 1.695.767 2.363 3.857 3.132 2.926.728 4.03.666 4.333-.242.224-.671.846-1.22 1.382-1.22.537 0 .727.403.423.895-.305.493.156 1.168 1.023 1.5 2.222.853 5.412.752 5.412-.171 0-.427 1.859-.6 4.132-.383 2.869.274 3.92.053 3.441-.723-.38-.615-.241-1.118.309-1.118s1.278.45 1.618 1c.859 1.39 3.85 1.25 5.35-.25 1.234-1.234 1.654-1.379 4.698-1.625.852-.069 2.184-1.587 2.961-3.375 1.185-2.726 1.419-2.887 1.452-1 .044 2.513 2.51 3.07 3.394.767.353-.919 1.217-1.235 2.271-.83 1.251.48 1.483.298.874-.687-.605-.979-.38-1.168.836-.701.915.351 1.664.237 1.664-.254 0-.49 1.344-.221 2.987.599 1.643.819 3.392 1.24 3.887.934.495-.306 1.455.114 2.135.933 1.242 1.496 4.519 2.152 3.639.728-.259-.419.107-1.551.814-2.517 1.398-1.912 4.538-1.376 4.538.774 0 2.452 3.425 5.662 5.282 4.949 1.406-.539 1.634-1.376 1.121-4.11-.628-3.349-.576-3.417 2.126-2.738 1.963.492 2.563.361 2.061-.451-1.016-1.644.585-1.412 3.278.474 1.833 1.284 2.762 1.386 4.473.49 1.187-.622 3.509-1.207 5.159-1.301 1.65-.095 3.543-.579 4.206-1.076 1.58-1.186 3.198-.116 4.331 2.864.968 2.548 2.863 3.25 3.111 1.153.694-5.857 1.813-8.75 3.385-8.75.715 0 1.467-.501 1.672-1.114.204-.613 1.563-1.245 3.019-1.405 2.68-.294 7.687-3.353 7.745-4.731.017-.413.917-.75 2.001-.75 1.083 0 3.587-.909 5.564-2.019 1.977-1.111 4.016-1.759 4.531-1.441.514.318 1.468.249 2.119-.154 1.763-1.089 15.68-1.164 20.642-.11 4.642.985 11.575.181 10.696-1.241-.294-.475-.062-1.022.516-1.214.578-.193 1.124-1.325 1.214-2.517.222-2.951 1.355-2.018 2.105 1.733.567 2.834 2.704 5.963 4.072 5.963.314 0 .571-1.125.571-2.5 0-1.63.56-2.5 1.607-2.5 1.002 0 1.395-.553 1.044-1.468-.31-.807-.121-1.741.419-2.075.541-.334.859-1.32.707-2.19-.343-1.962 4.314-3.399 8.382-2.585 3.686.737 6.416-1.603 7.287-6.247.71-3.784.852-3.881 3.559-2.432 1.187.635 2.091.651 2.466.043.326-.527 1.234-.713 2.018-.412 1.581.607 8.511-5.581 8.511-7.6 0-.925.658-.833 2.454.344 2.275 1.49 2.529 1.48 3.47-.135.558-.959 1.036-1.293 1.061-.743.025.55.454 1.646.954 2.436.79 1.247 1.14 1.247 2.672 0 1.588-1.293 1.692-1.245 1.042.484-.442 1.177-.224 2.235.563 2.735 2.221 1.409 3.63.924 4.078-1.405l.434-2.25.136 2.25c.075 1.237.586 2.25 1.136 2.25.55 0 1 .675 1 1.5 0 1.812 2.628 2.008 3.338.25.277-.687.54-.261.583.948.072 2.002.346 2.105 3.079 1.152 1.87-.652 3-1.74 3-2.889 0-1.014.417-2.101.926-2.415.525-.325.582-1.774.132-3.344-.437-1.524-.707-5.231-.599-8.237.108-3.006-.344-7.836-1.005-10.734-.66-2.898-.849-5.487-.418-5.753.43-.266.15-2.845-.622-5.731-.773-2.886-1.667-8.124-1.988-11.64-.321-3.516-1.015-7.527-1.542-8.913-.58-1.525-.597-2.881-.043-3.435.555-.555.46-2.563-.24-5.088-.636-2.294-1.093-5.296-1.014-6.671.078-1.375.457-8.552.841-15.949.385-7.397.852-13.697 1.037-14 .186-.303.605-2.241.932-4.308.654-4.135 2.422-7.807 4.353-9.043.688-.44 1.25-1.596 1.25-2.57 0-1.676 5.004-8.249 9.611-12.625 1.976-1.876 3.66-5.376 3.131-6.505-.129-.275.698-1.85 1.837-3.5 1.14-1.65 2.653-4.457 3.362-6.237.71-1.781 1.689-2.992 2.175-2.691.486.3.884-.026.884-.725 0-1.646 8.037-9.847 9.649-9.847.678 0 1.554-.52 1.946-1.155.473-.763.271-.88-.595-.345-.892.551-1.068.42-.553-.414.415-.672 1.37-.986 2.122-.698.752.289 1.613.127 1.913-.359.3-.486 2.215-1.434 4.254-2.107 2.04-.673 4.316-1.831 5.058-2.573s2.104-1.363 3.027-1.381c.924-.017 2.553-.692 3.62-1.5 1.068-.807 2.59-1.468 3.383-1.468.793 0 2.247-.929 3.232-2.065 1.035-1.193 3.089-2.101 4.867-2.152 1.693-.048 3.077-.44 3.077-.87 0-.431 1.575-1.353 3.5-2.049s3.5-1.652 3.5-2.124c0-.472.432-.591.959-.265.528.326 1.765.155 2.75-.379.985-.535 4.829-2.35 8.541-4.033 3.712-1.683 6.75-3.538 6.75-4.121 0-.583.5-.751 1.112-.373.611.378 1.504.067 1.984-.691.602-.95.878-1 .889-.159.015 1.188 2.946.663 4.015-.72.275-.356 3.2-1.364 6.5-2.24 3.3-.876 10.132-2.734 15.181-4.129 8.678-2.398 9.829-2.484 20.964-1.577 8.221.67 12.777.633 15.069-.124 2.415-.797 4.232-.772 6.854.093 1.962.648 8.489 1.178 14.503 1.178 6.014 0 11.158.362 11.431.804.274.442 2.762.822 5.53.843 2.768.021 6.481.779 8.251 1.683 1.769.904 5.679 2.3 8.688 3.102 3.009.801 6.159 2.022 7 2.712.841.69 4.004 2.355 7.029 3.702 3.025 1.346 6.095 3.011 6.821 3.701.727.689 2.415 1.253 3.75 1.253 1.336 0 2.429.477 2.429 1.059s.45.781 1 .441 1-.197 1 .317c0 .951 16.117 9.183 17.979 9.183.562 0 1.021.36 1.021.801 0 .44 2.129 1.835 4.732 3.099 2.603 1.265 6.315 3.546 8.25 5.069 1.935 1.523 5.796 3.918 8.581 5.322 2.784 1.404 5.677 3.293 6.427 4.197.75.904 2.747 2.355 4.437 3.225 3.461 1.781 4.916 3.039 14.38 12.427 8.73 8.661 16.671 17.161 16.938 18.13.116.424 1.346 1.994 2.733 3.49 1.387 1.496 2.522 3.03 2.522 3.408 0 .379.579 1.284 1.287 2.011.709.726 2.318 3.006 3.578 5.065 1.26 2.059 2.818 4.084 3.463 4.5 1.632 1.053 7.672 9.846 7.672 11.169 0 .598.39 1.087.867 1.087.857 0 5.727 6.78 5.942 8.272.166 1.155 6.074 11.755 8.272 14.842 1.056 1.482 1.919 3.204 1.919 3.826 0 .622.733 2.249 1.628 3.615.896 1.367 2.206 5.064 2.912 8.215 1.257 5.609 3.06 12.436 6.074 23.006.827 2.901 1.249 6.081.936 7.066-.313.985.352 4.461 1.476 7.725 1.125 3.263 2.23 7.373 2.457 9.132.227 1.759.916 5.067 1.53 7.351.615 2.283.893 4.378.617 4.654-.276.276-.069 1.642.461 3.035.53 1.393 1.156 5.51 1.392 9.147 1.328 20.454 1.719 24.516 2.582 26.785.522 1.373.678 2.936.346 3.473-.332.537-.769 6.687-.972 13.666-.423 14.523-2.248 25.134-5.194 30.19-1.122 1.925-2.366 4.59-2.765 5.923-.753 2.516-.938 2.804-4.702 7.297-1.253 1.496-3.38 4.531-4.726 6.745-1.347 2.214-3.248 4.28-4.224 4.59-.977.31-2.794 1.999-4.038 3.754-1.243 1.755-3.393 4.436-4.776 5.958a1465.1 1465.1 0 0 0-4.876 5.395c-1.299 1.446-3.7 4.926-5.336 7.734-2.787 4.783-13.952 16.269-21.764 22.391-1.905 1.492-5.473 4.626-7.929 6.963-2.457 2.337-4.907 4.25-5.446 4.25-.875 0-11.42 7.584-12.663 9.108-.275.337-2.075 1.403-4 2.369-1.925.967-4.496 2.667-5.713 3.779-3.342 3.055-12.342 7.819-17.537 9.283-.413.116-.862.305-1 .419-.138.115-1.963.387-4.056.605-2.093.218-5.243 1.024-7 1.791-1.757.768-8.594 3.099-15.194 5.181-6.6 2.083-12.45 4.038-13 4.346-.55.308-1.91.611-3.022.673-1.112.062-5.162 1.047-9 2.188-3.838 1.141-8.445 2.378-10.238 2.748-1.793.37-4.623 1.353-6.288 2.184-1.666.831-3.71 1.249-4.542.93-.86-.33-1.25-.154-.903.407.336.544-.203 1.041-1.198 1.104-3.252.208-3.758.361-8.309 2.515-6.392 3.024-8.325 3.714-9.763 3.481-.695-.113-1.541.517-1.879 1.4-.339.882-1.219 1.373-1.955 1.09-.736-.282-1.593-.103-1.903.399-.31.502-1.297.631-2.193.288-1.26-.484-1.508-.163-1.095 1.417.414 1.581.137 1.938-1.226 1.581-.968-.253-2.037-.013-2.374.533-.338.546-1.514.758-2.613.47-1.099-.287-1.999-.06-1.999.505 0 1.05-9.525 6.206-11.464 6.206-.59 0-2.751 1.141-4.804 2.536-2.053 1.395-3.732 2.226-3.732 1.847s-.854.295-1.897 1.498c-1.043 1.203-2.344 2.06-2.891 1.903-.547-.156-1.831.664-2.853 1.823-1.023 1.159-2.889 2.432-4.147 2.83-1.259.397-3.416 2.425-4.793 4.505-2.845 4.299-11.444 10.577-15.919 11.621-1.65.385-4.432 1.766-6.183 3.068-1.751 1.303-3.664 2.369-4.25 2.369-.587 0-1.067.466-1.067 1.036 0 .569-1.913 1.928-4.25 3.02-4.771 2.229-16.872 9.658-24.323 14.932-2.71 1.918-5.152 3.493-5.427 3.5-.275.007-1.429.912-2.565 2.012s-6.045 5.6-10.909 10c-12.491 11.3-22.69 21.514-32.462 32.508-4.64 5.221-8.74 9.717-9.111 9.992-.371.275-1.38 1.85-2.242 3.5-.863 1.65-2.956 4.496-4.652 6.325-1.696 1.829-2.862 3.685-2.59 4.125.271.439-.651 2.033-2.049 3.542-1.399 1.509-2.305 3.366-2.013 4.126.292.76.068 1.382-.497 1.382-.566 0-.743.461-.395 1.025.349.563.263.96-.191.881-.453-.078-1.315-.09-1.915-.024-1.379.149-6.707 9.827-6.021 10.937.28.453-.123 2.044-.896 3.534-.773 1.49-1.155 3.361-.849 4.158.306.798-.841 3.214-2.549 5.37-1.707 2.156-3.382 5.307-3.721 7.003-.339 1.696-.916 2.898-1.283 2.672-.366-.227-.756.675-.866 2.004-.11 1.329-1.105 3.321-2.212 4.428-2.12 2.12-2.704 5.012-1.012 5.012.55 0 1-.525 1-1.167 0-.641.284-.882.631-.535.611.611-2.291 7.702-3.153 7.702-.236 0 .025-1.192.579-2.649.855-2.251.791-2.47-.427-1.459-.789.655-1.733 2.381-2.098 3.837-.366 1.456-1.422 3.266-2.348 4.022-1.238 1.01-1.353 1.513-.434 1.895 1.74.725 1.567 2.354-.25 2.354-.825 0-1.5.337-1.501.75 0 .413-1.575 2.519-3.5 4.682-1.924 2.162-3.499 4.319-3.499 4.792 0 .473-.468 1.404-1.04 2.068-.572.664-2.034 3.142-3.25 5.506-5.442 10.585-11.01 21.91-11.897 24.202-.532 1.375-2.058 4.638-3.39 7.251-1.333 2.612-2.423 5.228-2.423 5.811 0 .584-1.166 3.527-2.592 6.54-1.425 3.013-2.339 6.135-2.031 6.938.308.803.124 1.46-.408 1.46-.533 0-.969.537-.969 1.193 0 .657-1.546 4.369-3.435 8.25-4.364 8.967-5.778 12.452-6.279 15.48-.22 1.333-.856 3.274-1.413 4.315-.557 1.04-1.198 2.853-1.424 4.027-.226 1.175-1.121 3.632-1.989 5.461-.868 1.829-1.296 4.214-.952 5.3.345 1.086.167 1.974-.395 1.974s-1.3 1.688-1.64 3.75c-.339 2.063-1.054 4.657-1.588 5.765-.534 1.108-1.095 3.133-1.246 4.5-.152 1.367-.813 3.479-1.471 4.694-.657 1.216-1.092 2.566-.967 3 .126.435-.927 2.591-2.34 4.791-4.26 6.636-6.861 12.28-6.861 14.889 0 1.357-.562 3.063-1.25 3.79-.687.726-1.298 2.896-1.358 4.821-.179 5.829-1.608 14.425-2.61 15.7-.519.659-.842 2.459-.719 4 .123 1.54-.061 3.475-.408 4.3-.348.825-.811 3.525-1.028 6-.218 2.475-.898 5.767-1.511 7.315-.614 1.548-1.116 4.946-1.116 7.55s-.443 5.178-.985 5.72c-3.312 3.312-5.447 56.106-2.595 64.188 1.347 3.817 1.641 20.677.397 22.737-.329.544-.426 3.015-.215 5.49.212 2.475.386 6.3.389 8.5.002 2.2.637 5.797 1.411 7.994.819 2.322 1.065 4.633.589 5.522-.45.841-.393 3.769.126 6.506.52 2.738.695 6 .39 7.249-.306 1.248-.069 3.18.526 4.291.595 1.112 1.085 4.365 1.089 7.23.004 2.864.479 7.008 1.057 9.208.577 2.2 1.161 5.829 1.298 8.064.14 2.296 1.355 5.775 2.794 8 1.4 2.165 2.868 5.511 3.262 7.436.393 1.925 1.608 5.411 2.7 7.746 1.091 2.336 1.724 4.923 1.407 5.75-.318.827-.115 1.504.45 1.504.566 0 .719.5.341 1.112-.378.611-.233 1.399.323 1.75.555.351 1.257 3.446 1.56 6.879.59 6.7 2.546 13.259 3.953 13.259.475 0 1.65-.42 2.61-.934 3.34-1.788 38.13 2.634 46.623 5.925 3.46 1.341 7.273.488 27.285-6.099 11.252-3.703 12.85-3.985 19-3.349 3.693.382 8.232 1.317 10.087 2.076 7.723 3.163 26.422.992 35.582-4.13 3.431-1.919 7.152-3.489 8.27-3.489 1.117 0 3.694-.695 5.727-1.544 2.032-.849 5.574-1.946 7.872-2.437 5.006-1.071 15.539-4.586 21.457-7.16 2.355-1.025 5.955-2.295 8-2.823 13.168-3.4 14.434-3.554 23.463-2.854 7.23.561 10.769.346 16.163-.982 8.558-2.107 11.734-4.902 13.859-12.2 1.862-6.398 5.28-53.76 4.13-57.235-.412-1.246-.708-3.952-.657-6.015.051-2.062-.287-3.75-.751-3.75s-1.136-2.588-1.494-5.75c-.358-3.163-1.054-7.1-1.547-8.75-.494-1.65-1.161-5.925-1.484-9.5-.323-3.575-.788-8.3-1.034-10.5-1.682-15.057-2.345-26.207-1.937-32.567.706-10.99 2.537-23.262 3.676-24.635.553-.666.711-1.687.351-2.269-.728-1.178 1.451-12.242 2.566-13.029.39-.275 1.886-5.9 3.324-12.5 1.439-6.6 3.056-12.773 3.593-13.718.537-.945 1.457-3.863 2.044-6.484.588-2.621 1.645-5.448 2.349-6.282.705-.834 2.532-5.116 4.059-9.516 1.528-4.4 3.089-8.225 3.469-8.5.38-.275 1.31-2.027 2.066-3.894.755-1.866 2.47-4.566 3.809-6 1.34-1.433 4.253-5.306 6.474-8.606 4.381-6.511 11.325-15.012 16.479-20.177 1.788-1.791 3.25-3.515 3.25-3.832 0-.708 1.506-2.601 5.815-7.309 3.631-3.968 6.747-7.808 10.695-13.182 1.415-1.925 2.779-3.388 3.031-3.25 1.173.639 2.11.067 3.477-2.12.815-1.304 3.732-4.279 6.482-6.611 2.75-2.333 6.237-5.32 7.75-6.638 1.513-1.318 2.75-2.179 2.75-1.913 0 .265 1.237.004 2.75-.582 1.513-.585 3.547-1.225 4.521-1.421.973-.197 2.998-1.203 4.5-2.236 1.501-1.032 5.588-3.34 9.082-5.128 3.494-1.788 7.994-4.181 10-5.317 2.006-1.137 5.672-3.199 8.147-4.583 2.475-1.383 5.892-3.57 7.594-4.858 1.702-1.289 3.74-2.343 4.528-2.343.788 0 2.376-.66 3.528-1.467 2.406-1.686 8.366-2.038 20.029-1.184l8.179.599 2.594-4.641c1.426-2.552 2.866-5.727 3.199-7.055.632-2.517 1.214-2.911 5.349-3.627 1.375-.238 5.077-1.404 8.226-2.592 3.15-1.187 5.85-2.063 6-1.946.151.117 2.749-1.18 5.774-2.881 3.025-1.701 6.665-3.301 8.09-3.554 1.424-.254 5.308-1.833 8.629-3.51 3.322-1.677 6.27-2.82 6.55-2.54.28.28 2.828-.609 5.661-1.976 2.834-1.367 6.596-2.798 8.361-3.181 1.765-.383 3.434-.995 3.709-1.36.275-.365 3.425-1.921 7-3.458 3.575-1.537 9.038-4.107 12.14-5.711 3.102-1.604 6.187-2.916 6.855-2.916.668 0 3.117-1.284 5.443-2.853C888.7 952.27 905.268 944 906.769 944c1.118 0 8.466-3.797 9.163-4.735.954-1.284 4.949-3.265 6.586-3.265.85 0 1.767-.58 2.039-1.289.273-.709 1.496-1.364 2.719-1.455 1.223-.091 3.012-1.136 3.974-2.321.962-1.186 1.75-1.873 1.75-1.525 0 .86 8.025-3.292 9.808-5.075.788-.788 2.729-1.692 4.313-2.009 1.583-.317 2.879-.939 2.879-1.384 0-.444.914-1.097 2.032-1.452 1.118-.355 3.057-1.623 4.309-2.818 1.252-1.194 3.15-2.684 4.218-3.31 1.067-.627 1.878-1.864 1.802-2.75-.076-.887.397-1.612 1.051-1.612 2.339 0 6.601-2.531 7.157-4.25.311-.962.898-1.75 1.305-1.75.94 0 19.126-17.503 19.126-18.407 0-1.116 17.325-18.591 18.454-18.614.575-.012 3.071-2.749 5.546-6.082 2.475-3.334 5.762-6.973 7.305-8.087 1.543-1.114 3.887-3.738 5.209-5.832 1.321-2.093 4.896-6.32 7.944-9.392 3.048-3.073 5.542-6.002 5.542-6.51 0-.507 1.063-2.195 2.363-3.749 1.3-1.555 2.695-3.886 3.1-5.18.706-2.253 4.31-8.228 6.592-10.929.596-.705 2.171-3.742 3.501-6.75 1.331-3.007 2.769-5.468 3.197-5.468.428 0 1.591-2.363 2.585-5.25.994-2.888 2.873-7.5 4.176-10.25 5.621-11.87 7.43-16.295 8.586-21 .676-2.75 1.779-5.9 2.452-7 .673-1.1 1.511-3.642 1.862-5.649.351-2.006 1.46-4.706 2.465-6 1.004-1.293 2.606-4.72 3.558-7.614.953-2.895 2.3-5.832 2.994-6.525.694-.694 1.595-3.037 2.002-5.207.407-2.169 1.869-5.87 3.249-8.225 1.379-2.354 2.15-4.28 1.713-4.28-.437 0-.255-.54.405-1.2.66-.66 1.203-2.122 1.206-3.25.004-1.127.695-3.371 1.537-4.985.842-1.614 1.626-4.764 1.744-7 .117-2.236.438-4.29.713-4.565.275-.275 1.046-1.48 1.714-2.679.952-1.708.952-2.285 0-2.674-.91-.371-.868-.737.164-1.459.758-.53 1.088-1.434.734-2.007-.355-.574-.151-1.348.453-1.721.606-.375.826-1.758.491-3.091-.421-1.681-.125-2.597.977-3.02.87-.334 1.367-1.167 1.105-1.851-.263-.684.343-4.929 1.347-9.432s1.704-9.296 1.555-10.651c-.149-1.355.007-2.635.346-2.845.728-.449.53-10.511-.449-22.93-.517-6.548-.38-9.057.525-9.617 1.146-.708 2.464-7.599 3.446-18.023.233-2.475 1.159-9.9 2.059-16.5 1.558-11.433 2.22-38.579.99-40.57-.32-.517-.792-5.325-1.049-10.685-.658-13.702-1.37-19.034-4.438-33.245-.534-2.475-1.172-6.165-1.418-8.199-.665-5.5-2.514-11.801-3.462-11.801-.459 0-.784-1.877-.724-4.171.066-2.514-.383-4.335-1.13-4.584-.682-.227-1.521-2.175-1.865-4.329-.345-2.154-1.132-3.917-1.749-3.919-.66-.002-1.134-1.875-1.15-4.554-.016-2.503-.466-4.864-1-5.247-.535-.383-1.12-1.371-1.301-2.196-.18-.825-1.418-2.932-2.75-4.683-1.331-1.751-2.421-3.633-2.421-4.183 0-.55-.9-1.285-2-1.634-1.155-.367-2.032-1.557-2.077-2.817-.143-4.09-.759-5.779-3.342-9.165-1.419-1.862-2.581-3.717-2.581-4.123 0-.405-.745-1.56-1.655-2.566-1.003-1.109-1.197-1.829-.492-1.829.856 0 .831-.584-.095-2.211-1.92-3.375-3.644-4.977-4.672-4.342-.511.316-1.641-.854-2.512-2.599-1.88-3.769-1.504-4.955.427-1.346.735 1.374 1.704 2.498 2.153 2.498.449 0-.053-1.431-1.117-3.179-1.063-1.749-1.658-3.625-1.321-4.17.36-.584-.072-.728-1.052-.352-.915.351-1.693.315-1.727-.08-.035-.396-.198-2.532-.363-4.747-.436-5.886-1.564-9.531-5.404-17.472-1.196-2.475-2.174-5.288-2.173-6.25.002-.962-.447-1.75-.997-1.75s-1-.649-1-1.443c0-.793-.917-2.997-2.037-4.896-1.121-1.899-2.241-4.512-2.489-5.807-.248-1.295-1.131-2.854-1.962-3.464-.832-.611-1.512-1.848-1.512-2.75 0-.902-.34-1.64-.756-1.64-.76 0-3.504-5.469-3.859-7.689-.105-.654-1.287-2.679-2.628-4.5-1.34-1.821-3-4.741-3.689-6.489-.688-1.748-1.885-3.422-2.66-3.719-.774-.297-1.408-1.088-1.408-1.757 0-.669-.827-2.146-1.838-3.282-1.011-1.135-2.414-3.639-3.117-5.564-2.516-6.884-4.303-10.306-6.904-13.226-1.453-1.63-2.68-3.259-2.727-3.619-.24-1.818-2.062-4.894-4.116-6.948-1.264-1.264-2.298-2.942-2.298-3.729 0-.788-1.121-2.166-2.491-3.064-1.371-.898-2.229-2.057-1.909-2.576.591-.956-3.209-4.838-4.734-4.838-.455 0-1.135-1.222-1.51-2.717-.375-1.494-1.508-3.603-2.519-4.688-1.01-1.085-1.837-2.546-1.837-3.248 0-.702-.848-1.73-1.884-2.285-1.617-.865-3.795-7.039-3.284-9.312.092-.413-.309-.75-.891-.75-.582 0-.805-.412-.494-.915.311-.503.225-1.065-.191-1.25-.416-.184-1.656-2.135-2.756-4.335-2.554-5.108-2.632-5.207-11.25-14.238-3.987-4.179-7.25-7.956-7.25-8.394 0-.438-2.643-3.4-5.874-6.582s-6.043-6.324-6.25-6.982C960.195 212.137 931.81 182 930.45 182c-.582 0-5.957-4.639-9.385-8.1-1.961-1.98-5.478-4.853-7.815-6.383-2.337-1.531-4.25-3.136-4.25-3.568 0-.432-2.745-1.835-6.099-3.117-3.355-1.283-7.131-3.278-8.391-4.433-1.261-1.156-3.016-2.379-3.901-2.719-.885-.339-1.609-1.276-1.609-2.081 0-.805-.893-1.748-1.984-2.094-1.091-.346-3.679-2.321-5.75-4.388-2.071-2.067-5.566-4.828-7.766-6.135-2.2-1.307-4.225-2.658-4.5-3.002-.275-.344-1.175-.948-2-1.342-3.917-1.871-16.762-10.443-17.544-11.709-.372-.602-2.597-1.918-4.944-2.924-2.348-1.006-5.336-2.928-6.64-4.271-1.305-1.343-4.367-3.212-6.805-4.153-2.438-.941-5.735-2.807-7.327-4.146-2.45-2.062-8.327-3.329-10.135-2.185-.217.138-1.23-.477-2.25-1.366-1.02-.888-3.205-1.971-4.855-2.406-4.628-1.22-4.6-1.211-11.5-3.712-5.67-2.055-11.421-5.047-13-6.763-1.217-1.323-6.25-2.967-7.229-2.361-.643.397-.791.199-.366-.487.478-.775-.274-1.155-2.287-1.155-1.65 0-3.278-.45-3.618-1-.34-.55-1.491-1-2.559-1S764 84.55 764 84s-1.155-1-2.566-1c-1.411 0-3.541-.522-4.733-1.16-1.191-.638-4.424-1.231-7.184-1.319-2.759-.087-6.628-.93-8.597-1.873-1.97-.943-6.02-2.172-9-2.732a749.868 749.868 0 0 1-8.278-1.596c-2.563-.519-2.789-.358-2.183 1.551.561 1.768.283 2.112-1.642 2.029-3.147-.135-7.887-1.668-5.567-1.8 2.309-.132 2.245-.359-1.133-3.974-3.23-3.458-6.849-5.126-11.123-5.126-1.582 0-3.173-.481-3.536-1.068-.363-.588-1.358-.801-2.211-.473-.852.327-5.194-.278-9.649-1.344-4.454-1.067-13.273-2.449-19.598-3.072-10.578-1.042-17.429-1.226-44-1.178a856.473 856.473 0 0 1-18.639-.209c-5.027-.124-10.427.128-12 .561m150.314 63.187c-.337.878-.176 1.596.356 1.596.533 0 .969-.48.969-1.067 0-1.093 4.043-.277 5 1.009.889 1.194 7.044 3.347 7.699 2.693.349-.349-.116-.635-1.032-.635-.917 0-1.667-.461-1.667-1.025 0-1.083-3.752-2.769-8.106-3.644-1.811-.364-2.793-.036-3.219 1.073M802.5 134c1.65 1.093 3.45 1.988 4 1.99.55.001-.473-.896-2.274-1.994-4.246-2.588-5.636-2.585-1.726.004m224.978 608.281c-1.054 1.77-1.955 3.669-2.001 4.219-.296 3.536-2.198 7.396-4.875 9.898-1.706 1.594-2.329 2.626-1.384 2.294 1.892-.666 3.62 1.151 2.064 2.17-.536.351-1.277 1.875-1.647 3.388-.74 3.023-3.588 3.79-3.714 1-.05-1.1-.27-1.273-.594-.466-.284.706.015 1.923.665 2.706 1.218 1.468.607 3.51-1.051 3.51-.518 0-.994-.788-1.059-1.75-.064-.962-.483.431-.931 3.098-.914 5.448-1.678 6.712-2.88 4.766-.574-.928-1.027-.995-1.504-.223-.376.608-.036 2.029.754 3.157 1.364 1.948 1.525 1.964 3.174.314.955-.955 2.595-3.565 3.644-5.799a221.353 221.353 0 0 1 3.75-7.563c3.246-6.162 4.909-10.564 6.653-17.615.937-3.787 2.162-7.458 2.723-8.159.561-.701.82-1.475.575-1.719-.245-.245-1.308 1.003-2.362 2.774m-40.107 3.969c-1.42 2.748-1.441 3.052-.134 1.967 1.404-1.164 3.109-5.217 2.195-5.217-.209 0-1.137 1.462-2.061 3.25m44.178 10c-4.02 12.96-4.146 13.533-2.872 13.044.728-.28 1.339-1.022 1.359-1.651.019-.629.654-3.73 1.409-6.893.756-3.163 1.176-5.75.933-5.75-.242 0-.615.563-.829 1.25m23.601 6.258c-.083 1.104-1.217 4.029-2.521 6.5-2.89 5.475-4.041 8.992-2.945 8.992 1.592 0 6.463-11.88 6.035-14.718-.261-1.73-.476-2.023-.569-.774m-9.15 22.551c0 .582-.4.812-.888.51-.488-.302-1.1.684-1.359 2.191-.258 1.507-.819 3.64-1.246 4.74-.426 1.1.41.45 1.859-1.444 2.321-3.035 3.537-7.056 2.134-7.056-.275 0-.5.477-.5 1.059m-645.463 597.824c-.355 1.119.024 3.287.844 4.825l1.489 2.792-.378-4.36c-.441-5.084-1.052-6.102-1.955-3.257M559 1441c-1.375.44-4.194.845-6.264.9-2.07.055-4.545.516-5.5 1.024-1.528.813-16.266 2.336-36.236 3.745-3.575.252-8.075.877-10 1.389-1.925.512-4.738.933-6.25.936-2.081.005-2.75.492-2.75 2.006 0 1.558-.717 2.034-3.25 2.152-5.708.268-6.255.418-6 1.645.234 1.128-1.629 1.325-15.5 1.641-2.222.05-2.696-.336-2.467-2.01.26-1.909-.263-2.086-6.686-2.258-3.832-.103-7.249.266-7.592.821-.342.555-1.331 1.009-2.197 1.009-.865 0-2.301.822-3.191 1.827-.889 1.005-4.317 2.39-7.617 3.078-4.928 1.027-6.461 1.01-8.578-.094-1.417-.74-2.407-1.855-2.2-2.478.228-.682-.936-1.165-2.922-1.213-1.815-.044-4.525-.25-6.022-.459-1.497-.209-2.483.007-2.191.48.292.472-.733.896-2.278.942-1.545.046-3.709.252-4.809.459-4.046.759-16.13 2.564-20.5 3.063-2.475.282-5.175.785-6 1.118-.825.332-1.725.684-2 .781-.275.097-2.173.924-4.218 1.836-2.045.913-4.437 1.66-5.316 1.66-2.676 0-5.424 1.947-4.851 3.438.297.774-.423 2.37-1.599 3.546-1.218 1.218-2.001 3.082-1.82 4.327.176 1.204-.346 2.706-1.16 3.338-1.13.877-1.541 3.953-1.739 13-.412 18.918-.192 30.527.667 35.159.44 2.369.413 5.969-.058 8-.472 2.03-.869 9.182-.882 15.893-.013 6.71-.508 14.456-1.099 17.213-1.349 6.289-1.448 13.458-.683 49.427.549 25.847.799 29.047 2.413 30.83 1.443 1.595 1.832 3.905 1.962 11.659.159 9.512 2.057 17.819 4.835 21.17 1.89 2.279 2.561 4.829 1.376 5.224-.703.234-.521 2.024.54 5.315.88 2.728 2.548 8.336 3.707 12.461 2.147 7.639 6.265 14.526 8.034 13.433.538-.333 1.64-.056 2.449.615 3.136 2.603 24.572 1.301 42.574-2.586 3.647-.788 10.622-1.725 15.5-2.083 4.877-.358 9.318-.993 9.868-1.41.55-.417 8.425-1.082 17.5-1.477 19.612-.855 17.568-.876 27.5.282 8.12.946 10.003.773 7.619-.7-1.527-.944 8.945-2.523 22.881-3.452 2.475-.164 5.175-.554 6-.865.825-.311 2.4-.89 3.5-1.286 1.1-.397 8.441-.853 16.313-1.015 11.08-.227 14.426.002 14.814 1.015.289.754 1.358 1.084 2.522.78 1.544-.404 1.706-.728.686-1.374-1.023-.649-.926-.85.415-.862.962-.008 1.75-.465 1.75-1.015 0-.55 1.035-1 2.3-1s2.781-.481 3.369-1.069c.588-.588 1.691-1.189 2.45-1.334.76-.146 2.506-.745 3.881-1.332 1.375-.586 4.938-1.794 7.918-2.683 2.98-.889 7.331-3.184 9.668-5.099 2.338-1.916 4.812-3.483 5.499-3.483.687 0 .95-.298.585-.663-.364-.365.701-1.492 2.367-2.506 1.667-1.013 3.276-2.627 3.577-3.587.301-.959 1.438-3.647 2.526-5.972 1.088-2.326 2.234-5.805 2.547-7.731.313-1.926.934-3.275 1.38-3 .447.276.865-.295.93-1.269.065-.975.246-4.022.403-6.772.156-2.75.629-6.069 1.049-7.375.495-1.536.332-2.642-.459-3.131-.908-.561-.644-1.544 1.019-3.793 1.917-2.592 2.089-3.482 1.176-6.101-.831-2.382-.771-3.237.266-3.833 1.165-.67 1.796-3.344 3.08-13.066.167-1.265 1.016-3.387 1.886-4.715 2.203-3.362 1.976-5.291-.667-5.666-3.226-.459-2.842-3.252.5-3.636 3.429-.395 3.549-1.93.25-3.184-3.027-1.151-3.25-2.991-.452-3.723 1.9-.497 2.002-1.049 1.417-7.656-.347-3.917-1.076-8.576-1.62-10.355s-.724-4.072-.399-5.096c.325-1.023.097-5.193-.507-9.265-.603-4.073-1.246-10.33-1.428-13.905-.183-3.575-.822-8.072-1.421-9.993-.6-1.922-1.102-5.297-1.116-7.5-.014-2.204-1.139-7.366-2.5-11.472s-2.474-8.418-2.474-9.583c0-1.165-.308-2.427-.685-2.804-1.285-1.285-3.26-8.147-2.428-8.434.456-.157 1.579-.834 2.495-1.504 2.441-1.785 1.095-7.536-2.106-8.994-2.429-1.107-2.43-1.115-.287-1.908 1.498-.554 2.054-1.481 1.831-3.052-.44-3.104-4.349-3.559-6.608-.769-1.465 1.809-2.566 2.079-7.22 1.775-5.053-.331-5.237-.425-2.306-1.173 3.339-.852 5.321-3.498 2.783-3.714-.808-.069-1.919-.237-2.469-.375-.55-.138-1.45-.306-2-.375s-1-.71-1-1.425c0-1.702 7.143-1.77 8.5-.081 1.311 1.632 8.141 2.14 9.57.711 1.333-1.333-.591-5.744-2.1-4.812-.511.316-1.875.068-3.032-.551-1.968-1.053-1.997-1.244-.453-2.951 1.4-1.546 1.452-2.144.343-3.92-.72-1.153-1.637-2.096-2.037-2.096-.401 0-.469-.675-.153-1.5.411-1.07-.1-1.504-1.781-1.515-1.889-.013-2.059-.208-.857-.985 1.078-.697 1.134-.974.199-.985-.716-.008-1.919-1.478-2.675-3.265-2.11-4.992-7.888-10.75-10.786-10.75-1.371 0-3.053-.675-3.738-1.5s-1.688-1.5-2.229-1.5c-.542 0-.726.675-.409 1.5.83 2.164-.311 1.845-2.747-.768-1.163-1.247-3.414-2.372-5.001-2.5-1.587-.128-5.637-.679-9-1.224-6.936-1.126-8.12-1.127-11.614-.008m34.441 21.558c2.407 1.788 3.653 1.851 3.002.153-.273-.709-1.496-1.358-2.719-1.442-2.164-.149-2.172-.114-.283 1.289m.09 6.392c-.834 1.349 2.81 3.075 4.408 2.088 1.03-.637.862-1.074-.738-1.931-2.524-1.35-2.922-1.367-3.67-.157m8.42 4.491c.657.792 1.875 1.179 2.706.86 1.227-.471 1.261-.738.177-1.425-.734-.465-1.952-.852-2.706-.861-1.082-.012-1.119.29-.177 1.426" fill-rule="evenodd"/></svg>