<svg xmlns="http://www.w3.org/2000/svg" width="1240" height="1753"><path d="M629.944 31.09c-.794.521-4.594.877-8.444.791-3.85-.086-11.888.423-17.862 1.131-8.763 1.039-13.027 1.046-22.064.039-7.065-.787-15.424-.994-22.637-.558-6.29.38-19.825.817-30.076.971-10.252.155-19.101.566-19.664.914-.564.349-10.851.856-22.861 1.127-34.968.79-59.177 2.498-65.205 4.599-2.351.82-3.936.622-7.791-.972-2.856-1.181-8.734-2.312-14.34-2.759-13.113-1.047-53.882-.678-63 .57-4.125.565-12.9 1.697-19.5 2.517-6.6.82-15.15 2.134-19 2.919-12.878 2.627-39.703 4.899-48.655 4.12-4.59-.399-8.795-1.006-9.345-1.349-.55-.343-5.392-.629-10.759-.636-7.399-.011-9.644.288-9.281 1.236.285.746-.34 1.25-1.55 1.25-1.116 0-1.75-.45-1.41-1 .693-1.122-.24-1.278-5.999-1.002-2.2.105-4.225.538-4.5.962-.276.424-1.513 1.086-2.751 1.473-1.595.498-2.25.295-2.25-.697 0-1.066-2.077-1.476-8.75-1.726-8.709-.326-10.419-.307-23.75.256-3.85.163-8.575-.063-10.5-.502-1.925-.438-6.334-1.011-9.798-1.271-3.464-.261-7.147-.929-8.185-1.484-2.427-1.299-18.701-1.305-31.517-.011-5.5.555-13.015 1.266-16.699 1.58-5.489.467-7.296 1.092-10 3.456-1.816 1.587-3.34 3.466-3.388 4.176-.263 3.881-1.723 9.638-3.071 12.111-.846 1.551-1.31 3.693-1.031 4.759.279 1.067-.105 4.564-.853 7.772-.751 3.219-1.609 14.526-1.915 25.24-.305 10.674-1.021 22.558-1.591 26.408-.57 3.85-1.189 9.7-1.375 13-.186 3.3-.911 9.6-1.611 14-1.772 11.145-1.931 83.678-.184 84.261.835.278 1.232 3.288 1.262 9.572.024 5.042.511 11.192 1.083 13.667.571 2.475 1.265 10.8 1.54 18.5.276 7.7.913 14.427 1.417 14.95.559.579.916-1.339.916-4.917 0-8.432.711-6.496 1.456 3.967.353 4.95.875 9.788 1.16 10.75.587 1.98 2.59 2.425 2.252.5-.121-.687.146-5.748.593-11.245.876-10.764 2.27-10.418 1.997.495-.089 3.575.09 6.946.397 7.49.973 1.721.011 16.751-1.198 18.716-.966 1.571-.765 2.18 1.215 3.685 2.1 1.595 2.176 1.877.66 2.458-2.109.81-3.596.001-2.999-1.631.662-1.809-1.122-4.09-2.522-3.225-.794.491-.972 1.829-.514 3.878.384 1.721.634 5.227.555 7.792-.079 2.564.296 4.934.833 5.266 1.542.953 2.311-1.195 1.182-3.303-.756-1.414-.661-2.218.364-3.069 1.12-.93 1.518-.567 2.054 1.873.365 1.664.387 3.899.048 4.966-.431 1.357-.077 2.081 1.175 2.407 1.661.431 1.664.473.042.581-1.579.105-2.127 1.393-2.033 4.782.018.641-.837 1.394-1.899 1.671-1.374.36-1.667.167-1.013-.666.506-.644 1.222-2.436 1.592-3.983.517-2.162.192-3.201-1.406-4.5-1.465-1.19-2.342-3.561-2.973-8.044-.493-3.495-1.077-6.537-1.299-6.758-.365-.365-1.585 27.174-2.087 47.114-.111 4.4-.555 8.57-.987 9.267-.431.697-.511 3.622-.178 6.5.8 6.899.801 8.947.006 17.103-.548 5.621-.425 6.722.679 6.058 1.097-.661 1.116-.525.099.731-1.364 1.685-1.429 9.613-.085 10.443.459.284.827 1.052.819 1.707-.011.815-.282.772-.858-.139-1.706-2.69-2.923 6.375-2.016 15.025.478 4.568.632 9.457.342 10.866-.291 1.408-.15 3.583.312 4.832.654 1.768-.878 13.607-1.761 13.607-.652 0-.674 10.586-.022 10.989.457.282.594 1.415.306 2.517-.288 1.103-.055 2.57.519 3.262.74.891.458 2.988-.969 7.215-1.106 3.278-1.588 6.1-1.07 6.273.518.173.733 1.402.479 2.733-.373 1.952.041 2.545 2.145 3.073 2.169.545 2.608 1.225 2.608 4.046 0 1.866.338 3.392.75 3.392s.684 3.262.603 7.25c-.08 3.987.302 8.092.85 9.121.706 1.324.675 1.672-.103 1.191-.708-.438-1.1.409-1.1 2.379 0 1.682-.388 3.059-.861 3.059-.474 0-.788 4.717-.698 10.483.09 5.765-.208 10.606-.663 10.758-.873.291-1.072 12.647-.347 21.509.236 2.888.011 5.25-.501 5.25-.511 0-.937-1.462-.945-3.25-.016-3.396-1.886-7.791-2.021-4.75-.085 1.923-1.51 12.025-3.313 23.5-.978 6.221-1.362 16.487-1.246 33.25.093 13.337-.114 24.25-.46 24.25-.58 0-1.386 79.816-1.051 104 .296 21.334.022 41.612-.614 45.5-.845 5.16-.73 8.696.697 21.5.644 5.775 1.377 20.175 1.629 32 .259 12.129.959 23.026 1.606 25 1.182 3.607 1.187 4.8.331 70.5-.635 48.776-.604 50.61.914 53.685 1.129 2.288 1.106 2.769-.151 3.251-1.269.487-1.391 4.161-.876 26.315.737 31.642 1.282 38.216 3.364 40.549 1.351 1.514 1.415 2.308.4 4.998-.781 2.067-.851 3.316-.201 3.533 1.324.441 1.307 10.866-.019 11.685-.565.349-1.029 2.063-1.032 3.809-.003 1.746-.058 4.3-.123 5.675-.236 5.032 1.07 25.222 1.671 25.823.34.341 1.037-.043 1.549-.852.652-1.031.935-.083.946 3.172.01 3.191-.449 4.821-1.468 5.212-1.042.4-1.458 1.991-1.4 5.357.045 2.633-.366 5.932-.913 7.33-1.541 3.932-1.78 14.171-.39 16.685.678 1.225 1.65 7.738 2.161 14.474.741 9.754.661 12.557-.39 13.773-.979 1.131-1.237 4.635-.996 13.526.333 12.304.976 16.5 2.528 16.5 1.515 0 .965 5.031-.617 5.638-.825.317-1.5 1.026-1.5 1.576s.675.741 1.5.424c1.006-.386 1.5.045 1.5 1.31 0 1.037.406 2.035.901 2.219.496.183.271.913-.5 1.622-1.165 1.073-1.401.946-1.401-.75 0-1.121-.45-2.039-1-2.039s-1 1.125-1 2.5c0 1.556.567 2.5 1.5 2.5.923 0 1.455.865 1.384 2.25-.088 1.712-.226 1.829-.576.488-.785-3.012-2.308-.821-2.308 3.321 0 2.247.482 3.941 1.122 3.941.776 0 .738.464-.122 1.5-.821.989-.874 1.5-.154 1.5.6 0 .832.675.516 1.5-.317.825-.078 1.5.531 1.5.686 0 1.107 2.28 1.107 6 0 6.468.968 7.634 2.701 3.25l1.086-2.75.206 2.5.206 2.5.743-2.5c.59-1.988.826-1.389 1.153 2.926.265 3.514-.031 5.867-.842 6.679-1.537 1.536-1.7 5.789-.186 4.854 1.354-.837.817 2.753-.567 3.791-.631.473-.477 1.087.419 1.664 1.099.707 1.203 1.668.461 4.25-.557 1.937-.628 6.061-.17 9.836.434 3.575.591 8.177.348 10.227-.243 2.05-.018 3.989.5 4.309.518.32.922 5.168.897 10.773-.041 9.251-.165 9.914-1.344 7.191-.714-1.65-.924-3.248-.467-3.552.959-.635-1.189-6.948-2.363-6.948-.43 0-.781 1.098-.781 2.441 0 1.343-.399 2.688-.887 2.989-.488.302-.867-.009-.843-.691.107-2.951-.333-4.739-1.164-4.739-.743 0-.817 3.745-.214 10.75.06.687.671 1.137 1.358 1 .749-.15 1.322.953 1.429 2.75.099 1.65-.047 2.212-.323 1.25-1.003-3.494-2.289-1.636-2.075 3 .147 3.179.632 4.667 1.469 4.5.688-.137 1.25.2 1.25.75s-.638 1-1.417 1c-1.898 0-2.403 1.842-1.547 5.648.389 1.732.355 3.72-.076 4.417-.431.697-.392 2.298.086 3.557.479 1.258.607 4.509.286 7.223-.321 2.714-.075 7.121.547 9.795.622 2.673 1.357 11.048 1.633 18.61.445 12.195.319 13.75-1.112 13.75-1.061 0-1.406.542-1.007 1.582.334.87.607 1.796.607 2.059 0 .262.45.199 1-.141.622-.384 1.049 1.769 1.129 5.691.071 3.47.332 7.659.58 9.309.787 5.228.966 57.955.201 59-.402.55-.354 14.509.107 31.019.461 16.511.64 33.228.397 37.149-.242 3.922.004 8.301.548 9.731.667 1.756.654 2.601-.04 2.601-1.208 0-1.114 12.272.145 19 .464 2.475 1.075 11.516 1.358 20.091.284 8.575.733 16.225 1 17 .266.775.733 3.884 1.038 6.909.305 3.025 1 7.975 1.543 11 1.285 7.147 1.335 14.272.145 20.5-1.197 6.269-.66 9.395 2.965 17.253 1.586 3.439 2.884 6.632 2.884 7.096 0 .726 2.819 7.031 3.57 7.984.144.183 3.45.564 7.346.848 6.799.495 7.084.426 7.084-1.696 0-1.878.415-2.13 2.75-1.669 14.994 2.963 19.478 3.647 24.007 3.664 5.409.021 21.657 2.282 28.743 4.002 2.2.534 7.713.981 12.25.994 4.817.014 8.25.44 8.25 1.024 0 1.3 9.296 1.304 10.596.004 1.114-1.114 29.491-1.953 28.81-.852-.524.848 6.447 1.601 20.844 2.251 5.912.267 10.75.126 10.75-.313s3.037-.776 6.75-.75c8.733.063 19.318-1.824 24.197-4.313 3.481-1.776 5.296-1.918 18.551-1.45 8.08.286 16.787.981 19.347 1.546 8.445 1.864 11.136 2.107 15.728 1.418 3.648-.547 4.934-1.306 6.538-3.861 1.792-2.854 1.921-4.154 1.258-12.68-1.21-15.554-.891-43.851.569-50.5.725-3.3 1.464-7.8 1.642-10 .976-12.032 1.453-16.662 2.369-23 1.582-10.952 1.285-32.155-.577-41.143-1.412-6.819-1.466-9.371-.406-19.312 1.548-14.516.552-39.705-1.67-42.226-1.514-1.719-1.406-9.919.213-16.069.449-1.705.328-2.75-.319-2.75-.574 0-1.225.787-1.446 1.75-.466 2.025-1.83-8.799-2.339-18.563-.691-13.265-1.64-20.187-2.771-20.219-.624-.017-.236-.71.861-1.54 1.902-1.436 1.917-1.644.33-4.411-.917-1.597-1.259-3.041-.762-3.21.532-.181.572-4.633.095-10.807-.445-5.775-.438-11.847.016-13.493.454-1.647.826-5.536.826-8.643 0-4.247.396-5.802 1.594-6.262 1.344-.516 1.539-2.178 1.25-10.644-.244-7.101-.743-10.28-1.709-10.876-1.048-.647-1.3-3.369-1.084-11.712.155-5.979.197-13.12.093-15.87-.103-2.75-.337-8.804-.519-13.454-.391-9.994.003-12.126 2.093-11.324 1.254.481 1.423-.101.964-3.319a987.873 987.873 0 0 1-1.247-9.153c-.719-5.472-1.985-6.864-2.729-3-.239 1.237-.442 0-.452-2.75-.023-6.608.908-10 2.746-10 2.164 0 2.23-25.124.07-26.457-1.542-.953-2.274-5.043-.903-5.043.458 0 .833.9.833 2s.45 2 1 2 1-1.575 1-3.5c0-2-.5-3.5-1.167-3.5-.641 0-.882-.284-.535-.631.347-.348.025-1.497-.716-2.555-1.48-2.114-.589-8.574 1.348-9.771 1.393-.86 1.332-25.043-.062-25.043-.543 0-.708-.45-.368-1 .34-.55.141-1-.441-1-.921 0-1.611 5.49-1.256 10 .755 9.588.404 16.935-.868 18.206-1.246 1.245-1.456.158-1.591-8.277-.089-5.513-.693-10.712-1.398-12.029-.732-1.369-1.154-5.307-1.028-9.61.125-4.297-.195-7.29-.779-7.29-.546 0-1.198.787-1.45 1.75-.412 1.579-.468 1.569-.573-.107-.073-1.165-.642-1.655-1.529-1.315-1.093.42-1.601-1.08-2.25-6.643-.638-5.479-.54-7.262.413-7.508 1.44-.373 1.623-3.041.346-5.055-1.473-2.326-3.089-.225-3.221 4.187-.12 4.043-.153 3.997-.92-1.302-.438-3.022-.433-5.947.01-6.5.443-.554 1.348-4.268 2.01-8.253 1.123-6.759 3.025-10.804 3.025-6.435 0 1.065.606 2.439 1.346 3.053 1.098.911 1.38.069 1.532-4.576.226-6.918 1.122-8.485 1.122-1.963 0 2.567.45 4.667 1 4.667s1.007-1.463 1.015-3.25c.012-2.466.249-2.888.985-1.75.533.825.976 2.412.985 3.528.008 1.115.891 2.777 1.961 3.694 1.919 1.643 1.94 1.427 1.551-15.58-.218-9.484-.841-18.415-1.385-19.846-1.135-2.986-3.112-4.588-3.112-2.522 0 2.479-2.801 1.473-3.315-1.191-.671-3.471.175-10.344 1.425-11.583.677-.671.776-.391.304.851-.433 1.136-.185 2.173.642 2.684 2.681 1.657 4.148-5.593 4.054-20.035-.105-16.085-1.975-22.496-5.03-17.25-.869 1.493-1.024 1.341-1.05-1.031-.016-1.53-.702-3.04-1.524-3.355-.822-.316-1.247-.973-.945-1.462.856-1.386 1.634-8.641 1.866-17.402.421-15.881.74-20.978 1.237-19.744.279.691.837 1.052 1.24.803.404-.249.539.873.302 2.494-.327 2.224-.037 2.947 1.181 2.947 1.693 0 1.82-.36 2.112-6 .1-1.925.529-4.295.955-5.267.425-.971.567-2.843.316-4.158-.336-1.755-.084-2.249.946-1.854.853.327 1.615-.27 1.942-1.522.327-1.25 1.09-1.849 1.941-1.523.928.357 1.401-.173 1.401-1.569 0-1.159-.638-2.107-1.418-2.107-1.055 0-1.503-1.771-1.75-6.927l-.332-6.928 3 .613c6.411 1.311 32.594.117 60-2.736 5.5-.573 13.825-1.246 18.5-1.496 4.675-.25 13.704-.758 20.065-1.129 15.266-.89 16.944-.277 23.935 8.744 3.025 3.903 6.553 8.056 7.841 9.228 2.198 2.001 3.404 3.271 10.48 11.035 1.552 1.703 3.426 4.237 4.165 5.631.739 1.395 2.491 3.15 3.895 3.901 1.403.751 2.343 1.701 2.09 2.111-.962 1.556 3.937 8.918 10.792 16.215 2.069 2.203 5.16 6.983 6.868 10.622 3.05 6.5 11.115 16.116 13.515 16.116.751 0 1.05.945.776 2.455-.33 1.822.461 3.361 3.067 5.967 1.931 1.931 3.511 3.868 3.511 4.304 0 .436.9 1.355 2 2.042 1.602 1 2.003.999 2.015-.01.032-2.604 1.955 1.781 1.97 4.492.008 1.513.475 2.75 1.036 2.75.562 0 1.566 1.194 2.231 2.654.665 1.459 2.343 3.884 3.728 5.388 3.981 4.321 5.02 5.787 5.02 7.082 0 .664.686 1.921 1.525 2.792 2.047 2.127 6.475 8.966 6.475 10.001 0 .456.93 2.932 2.067 5.502 1.678 3.793 2.431 4.558 4 4.06 1.13-.359 1.933-.146 1.933.513 0 .619-.45.848-1 .508-1.625-1.004-1.142.965.75 3.061.962 1.067 1.904 2.823 2.093 3.903.188 1.08.976 2.867 1.75 3.972s1.407 2.616 1.407 3.358.688 2.036 1.528 2.877c1.293 1.293 1.793 1.32 3.25.178 1.492-1.169 1.567-1.149.561.151-1.322 1.707-.631 7 .913 7 1.061 0 5.748 4.653 5.748 5.707 0 .331-.9-.212-2-1.207-1.799-1.628-2-1.643-2-.155 0 .91.477 1.655 1.059 1.655s.74.516.351 1.146c-.503.813.134.949 2.191.469 1.854-.432 2.411-.35 1.546.227-1.055.705-1.103 1.373-.215 3.031.626 1.17 1.685 2.134 2.353 2.142.819.011.76.304-.183.901-1.117.707-.663 1.783 2.25 5.338 2.006 2.448 3.648 4.92 3.648 5.492 0 .572.651 1.29 1.448 1.596.796.305 2.207 2.041 3.135 3.857.928 1.815 2.302 3.661 3.052 4.101.751.44 1.365 1.382 1.365 2.095 0 .712.889 2.099 1.975 3.082 1.086.983 2.955 3.865 4.153 6.405 1.198 2.54 3.458 5.829 5.022 7.309 2.43 2.3 3.413 4.396 3.776 8.059.041.412.592.75 1.224.75.633 0 3.116 2.081 5.519 4.625 3.516 3.722 4.139 4.902 3.191 6.044-.937 1.129-.736 1.73.981 2.932 1.187.832 2.159 2.114 2.159 2.85 0 .736 1.35 2.783 3 4.549 1.65 1.766 3 4.064 3 5.106 0 1.042.477 1.894 1.059 1.894s.738.52.346 1.155c-.454.733-.274.882.493.408.784-.484 1.616.338 2.375 2.348.642 1.702 2.009 3.361 3.038 3.688 1.03.326 2.512 2.125 3.294 3.997.782 1.872 1.79 3.404 2.239 3.404.45 0 1.451 1.237 2.224 2.75 1.885 3.689 13.028 20.224 15.01 22.274.869.898 3.007 4.073 4.753 7.054 3.117 5.324 4.6 7.434 12.721 18.1 4.271 5.609 7.625 10.461 14.044 20.315 2.147 3.296 4.354 6.543 4.904 7.216.55.672 1.476 1.801 2.058 2.508 1.64 1.996 10.484 15.3 16.973 25.533 3.225 5.088 6.229 9.25 6.675 9.25.445 0 2.093 2.588 3.662 5.75 4.69 9.454 10.814 19.386 12.382 20.083.413.184.75.985.75 1.782 0 .796.675 1.707 1.5 2.023.825.317 1.5 1.203 1.5 1.969s.374 1.393.832 1.393c.458 0 3.556 3.938 6.884 8.75 13.685 19.787 16.69 24.196 22.998 33.75 3.632 5.5 6.982 10.15 7.445 10.333.462.184.841.985.841 1.782 0 .796.675 1.707 1.5 2.023.825.317 1.5 1.428 1.5 2.469s.411 1.893.912 1.893c.502 0 3.057 3.037 5.679 6.75 2.622 3.713 6.824 9.277 9.338 12.366 2.514 3.088 6.371 8.18 8.571 11.315 2.2 3.135 4.832 6.683 5.849 7.885 1.017 1.201 3.67 4.772 5.895 7.934 2.225 3.162 4.431 5.75 4.901 5.75.47 0 .855.608.855 1.352 0 .743 1.32 2.733 2.934 4.422 1.614 1.689 4.176 5.018 5.694 7.398 3.146 4.933 10.381 16.505 11.874 18.991 1.984 3.303 10.727 16.394 12.581 18.837 1.043 1.375 3.567 4.932 5.608 7.905 2.04 2.973 5.51 7.136 7.711 9.25 2.2 2.115 3.736 3.845 3.413 3.845-.323 0 2.791 3.263 6.921 7.25 12.384 11.959 17.264 17.103 17.268 18.205.003.575 1.803 3.417 4 6.315 2.198 2.899 3.996 5.54 3.996 5.869 0 .528 9.678 14.681 12.446 18.201.58.737 2.854 3.281 5.054 5.652 8.226 8.866 9.5 10.414 10.646 12.93.646 1.418 1.74 2.578 2.43 2.578.691 0 2.702 1.826 4.469 4.057 1.968 2.485 3.766 3.846 4.638 3.511.783-.3 2.385.349 3.559 1.443 1.174 1.094 2.899 1.989 3.832 1.989 1.914 0 4.511 3.499 5.489 7.396.36 1.432.974 2.604 1.365 2.604.392 0 2.255 1.388 4.142 3.085 2.912 2.619 4.01 3.01 7.266 2.584 2.625-.343 4.706-1.476 6.589-3.585 1.515-1.696 3.276-3.084 3.914-3.084.639 0 1.161-.45 1.161-1s.723-1 1.607-1c1.041 0 1.397-.546 1.011-1.552-.358-.933-.18-1.295.447-.908 1.601.99 7.788-3.709 8.841-6.713.515-1.469 1.884-3.179 3.043-3.8 1.159-.62 1.859-1.529 1.556-2.019-.303-.491 1.058-1.656 3.025-2.589 2.236-1.061 3.381-2.208 3.055-3.058-.331-.864.197-1.361 1.446-1.361 1.083 0 1.969-.436 1.969-.969 0-.532.749-.681 1.664-.33 1.119.43 1.427.256.941-.531-.453-.733-.029-1.17 1.137-1.17 2.87 0 7.201-2.314 7.801-4.168.321-.992 2.577-2.191 5.561-2.955 4.145-1.063 4.936-1.617 4.529-3.174-.464-1.772-.381-1.785 1.346-.222 1.728 1.563 1.88 1.538 2.502-.422.365-1.149 1.081-1.83 1.591-1.515.51.316.928.112.928-.454 0-.565.629-.786 1.399-.49 2.167.831 2.812-1.247.961-3.098-1.249-1.248-1.313-1.6-.26-1.422 2.027.341 5.135-1.143 7.15-3.414.963-1.084 1.75-1.453 1.75-.819 0 .634.675 1.153 1.5 1.153s1.5-.661 1.5-1.469c0-.962.577-1.247 1.674-.826 1.252.481 1.517.234 1.051-.98-.447-1.164-.196-1.459.886-1.044.981.376 1.702-.162 2.062-1.54.305-1.165.957-1.87 1.448-1.566 1.262.78 3.876-2.076 3.894-4.254.013-1.549.166-1.597 1.019-.321.869 1.298 1.203 1.239 2.485-.441.815-1.068 1.481-1.405 1.481-.75s.705 1.191 1.567 1.191c1.161 0 1.391-.585.888-2.25-.555-1.836-.438-2.02.633-1 1.565 1.491 3.29 1.67 2.412.25-.34-.55.098-1 .972-1 .875 0 1.849-.672 2.164-1.494.316-.822.976-1.246 1.469-.941.492.304.895-.1.895-.899 0-1.704 3.306-3.249 3.797-1.775.5 1.499 5.053-.842 5.719-2.94.364-1.148 1.222-1.571 2.507-1.235 1.224.32 2.184-.091 2.572-1.103.34-.887 1.471-1.613 2.512-1.613s1.893-.43 1.893-.955c0-.525 1.575-1.25 3.5-1.611s3.5-1.191 3.5-1.844c0-.654 1.575-1.758 3.5-2.454 2.085-.754 3.513-1.947 3.532-2.951.027-1.449.243-1.406 1.539.31 1.294 1.712 1.642 1.783 2.453.5.52-.822.952-2.338.961-3.367.011-1.411.332-1.61 1.299-.808 1.718 1.426 4.175-.181 3.393-2.219-.338-.881-.178-1.601.354-1.601.533 0 .856-.562.719-1.25-.146-.729.536-1.115 1.636-.925 1.367.236 1.719-.108 1.281-1.25-.457-1.191.047-1.575 2.067-1.575 1.657 0 3.939-1.229 6.012-3.238 1.837-1.781 4.109-3.244 5.047-3.25 1.115-.008 1.817-.966 2.023-2.762.194-1.686.919-2.75 1.873-2.75 1.27 0 1.327.276.311 1.5-.774.932-.846 1.5-.19 1.5 1.369 0 1.974-2.374 2.103-8.25.079-3.655-.252-4.75-1.436-4.75-2.659 0-2.759-2.809-.192-5.375 1.516-1.517 4.178-2.722 6.919-3.133 2.987-.448 5.551-1.692 7.779-3.774 2.428-2.269 4.225-3.08 6.668-3.011 1.898.054 3.089-.319 2.753-.863-.326-.527-.327-2.015-.002-3.308.458-1.826 1.075-2.224 2.762-1.783 1.651.432 2.034.207 1.596-.936-.44-1.147-.005-1.395 1.831-1.044 1.325.253 2.409.858 2.409 1.344 0 .485 1.383.883 3.073.883 2.391 0 2.998-.389 2.731-1.75-.21-1.075-1.183-1.705-2.523-1.634-1.629.086-2.34-.61-2.811-2.75-.346-1.576-1.043-2.866-1.549-2.866-.507 0-.921-.627-.921-1.393s-.661-1.647-1.468-1.957c-1.167-.447-4.532-6.591-4.532-8.272 0-.208.9-.378 2-.378 1.511 0 2.004-.672 2.015-2.75.012-2.143.23-2.419.985-1.25 1.181 1.828 1.181.249 0-2.5-.473-1.1-.891-1.437-.93-.75-.092 1.637-2.478-.779-7.372-7.465-2.091-2.857-5.018-6.228-6.504-7.49-1.487-1.262-4.951-5.197-7.698-8.743-2.748-3.547-5.718-7.194-6.6-8.104-.882-.911-2.652-3.522-3.934-5.802s-2.697-4.146-3.146-4.146c-.449 0-.816-.422-.816-.938s-1.329-2.393-2.953-4.172c-1.624-1.778-2.723-3.606-2.441-4.061.282-.456.09-.829-.427-.829-.516 0-2.889-2.588-5.273-5.75-2.383-3.162-5.25-6.703-6.37-7.867-1.12-1.164-2.507-2.92-3.083-3.902-.576-.982-1.926-1.85-3-1.93-2.12-.156-9.604-7.264-15.919-15.118-2.181-2.713-4.251-5.158-4.6-5.433-.349-.275-.814-.994-1.034-1.598-.589-1.615-8.826-11.142-13.124-15.178-2.049-1.924-3.485-3.886-3.191-4.361.293-.475.134-.863-.353-.863-.981 0-10.984-11.223-18.732-21.016-2.75-3.476-6.58-7.932-8.512-9.902-1.931-1.97-5.907-6.619-8.836-10.332-2.928-3.712-5.81-6.75-6.405-6.75-.594 0-.817-.263-.496-.585.544-.544-.928-2.723-4.072-6.027-.727-.763-1.049-1.388-.716-1.388.334 0-1.042-1.447-3.056-3.216-2.015-1.769-4.453-5.032-5.418-7.25-.965-2.219-3.945-7.033-6.622-10.698-6.719-9.2-11.71-17.451-11.87-19.624-.074-1.002-1.791-3.579-3.816-5.726-2.024-2.146-3.681-4.307-3.681-4.8 0-1.775-6.285-8.79-7.469-8.336-.665.255-1.982-.844-2.927-2.443-.944-1.599-2.254-2.914-2.911-2.922-.72-.01-.602-.389.299-.959 1.188-.751 1.238-1.196.25-2.184-.989-.989-1.25-.947-1.281.208-.022.798-.637.1-1.368-1.55-.731-1.65-2.626-4.388-4.211-6.085-4.275-4.576-26.855-36.34-26.869-37.798-.027-2.631-4.92-11.611-6.621-12.151-.98-.311-5.838-5.888-10.795-12.393-4.958-6.505-9.708-12.094-10.556-12.419-.847-.325-1.541-1.44-1.541-2.477s-1.09-3.061-2.422-4.499c-1.333-1.437-2.712-3.525-3.066-4.64-.354-1.114-1.176-2.599-1.828-3.3-.651-.701-3.637-4.866-6.635-9.256-2.999-4.39-6.149-8.53-7-9.2-.852-.67-1.099-1.24-.549-1.266.55-.025.484-.377-.147-.781-1.159-.742-11.738-16.497-16.353-24.354-1.375-2.34-3.233-5.017-4.129-5.948-4.024-4.178-9.576-12.793-10.676-16.564-.662-2.273-1.898-4.708-2.747-5.412-1.136-.943-1.23-1.474-.358-2.013.846-.523.574-1.388-.952-3.027-1.176-1.262-2.138-2.847-2.138-3.522 0-.676-.337-1.378-.75-1.562-1.515-.673-6.163-7.637-6.805-10.196-.364-1.45-1.063-2.637-1.553-2.637-.491 0-.892-.702-.892-1.559 0-.924-.47-1.268-1.155-.846-.732.453-.882.274-.409-.492.436-.705-.226-2.135-1.595-3.445-1.288-1.231-3.237-4.021-4.331-6.199-1.095-2.177-2.22-4.184-2.5-4.459-.813-.798-2.921-4.285-4.231-7-2.626-5.446-9.019-15-10.035-15-.593 0-.799-.279-.458-.619.34-.341.078-1.225-.584-1.965-3.345-3.746-4.16-4.929-4.367-6.341-.124-.846-.712-1.701-1.306-1.899-1.124-.374-7.972-10.566-12.045-17.926-1.294-2.338-2.719-4.25-3.168-4.25-.449 0-.816-.612-.816-1.359 0-.748-1.709-3.335-3.797-5.75-4.211-4.871-12.55-16.353-16.08-22.141-1.257-2.063-2.726-3.75-3.264-3.75-.537 0-.728-.403-.424-.895.305-.493-.147-1.164-1.004-1.493-.857-.329-1.307-1.004-1-1.5.307-.496-.143-1.171-1-1.5-.857-.329-1.307-1.004-1-1.5.307-.496-.002-1.118-.687-1.381-.684-.264-3.04-3.124-5.234-6.355-7.102-10.458-15.87-22.863-16.521-23.376-.349-.275-.928-1.293-1.285-2.262-.358-.97-2.594-4.795-4.97-8.5-5.164-8.056-7.389-12.756-5.492-11.599.692.422 2.078 1.801 3.081 3.064 1.002 1.263 2.295 2.297 2.872 2.297.646 0 .572-.576-.195-1.5-1.231-1.483-.341-2.074 2.375-1.577.48.088.647-1.028.369-2.48-.418-2.189-.009-2.849 2.392-3.858 1.594-.67 2.552-1.582 2.131-2.026-.422-.444.246-.496 1.483-.116 1.295.398 2.25.267 2.25-.309 0-.55 1.237-.978 2.75-.951 1.513.028 6.8-1.085 11.75-2.471 4.95-1.387 10.575-2.84 12.5-3.23 1.925-.39 6.65-1.725 10.5-2.967 3.85-1.242 9.443-3.027 12.428-3.965 7.324-2.303 14.165-5.591 13.584-6.53-.479-.776 6.457-3.522 16.488-6.527 7.605-2.279 14.688-5.498 19.085-8.676 2.043-1.476 8.596-5.123 14.564-8.105s13.077-6.837 15.797-8.567c2.72-1.73 5.287-3.145 5.704-3.145.418 0 1.808-1.049 3.089-2.33 1.282-1.282 5.567-3.567 9.521-5.078 3.955-1.512 8.803-3.842 10.774-5.179 1.97-1.338 5.306-3.311 7.412-4.385 3.8-1.939 13.334-9.235 20.052-15.346 1.925-1.75 3.871-3.058 4.325-2.907.454.151.577-.128.273-.62-.304-.492 2.25-3.066 5.676-5.721 3.425-2.654 9.378-7.904 13.228-11.667 3.85-3.762 13.258-12.787 20.906-20.054 7.649-7.267 18.899-18.197 25-24.288 9.708-9.692 13.358-13.615 23.656-25.425 1.199-1.375 3.865-4.75 5.925-7.5 2.061-2.75 4.696-5.848 5.856-6.884 1.16-1.036 1.943-2.161 1.738-2.5-.204-.339.257-1.196 1.024-1.905.767-.71 1.395-.997 1.395-.64 0 .985 6.95-6.939 6.977-7.954.013-.485.827-1.61 1.811-2.5 2.004-1.813 8.212-11.047 8.212-12.215 0-.415 2.25-4.421 5-8.902 2.75-4.481 5-8.409 5-8.729 0-.32 1.101-2.026 2.447-3.79 1.345-1.764 2.744-4.394 3.108-5.844.364-1.45 1.111-2.637 1.66-2.637.55 0 .772-.59.496-1.312-.277-.721.34-2.409 1.37-3.75 1.031-1.341 1.885-3.063 1.897-3.828.012-.764 2.081-4.814 4.597-9 2.516-4.185 4.836-8.96 5.157-10.61.32-1.65.871-3.225 1.225-3.5.69-.537 4.043-10.619 4.043-12.157 0-.509 1.371-3.86 3.048-7.445 4.112-8.796 5.063-11.369 5.503-14.898.206-1.65.805-4.8 1.331-7 .525-2.2 1.482-6.7 2.125-10s2.238-8.475 3.545-11.5c9.054-20.965 10.87-29.289 10.742-49.232-.024-3.702.337-6.496.802-6.209 1.045.646 1.506-1.303 3.439-14.52.842-5.754 1.938-10.713 2.435-11.021 2.367-1.462 4.091-11.623 2.28-13.435-.412-.412-.785-1.05-.828-1.416-.042-.367-.364-2.242-.714-4.167-.51-2.798-1.363-11.08-1.906-18.5-.04-.55.247-6.175.638-12.5.418-6.759.276-15.004-.345-20-.581-4.675-1.315-11.65-1.632-15.5-1.06-12.903-2.266-19.246-4.053-21.334-.976-1.14-1.846-2.881-1.933-3.869-.599-6.772-4.024-25.297-4.677-25.297-.44 0-.8-.96-.8-2.134s-.434-3.761-.964-5.75c-2.035-7.636-4.268-16.73-4.755-19.366-.561-3.035-2.26-3.769-2.316-1-.065 3.212-2.891-2.996-2.93-6.435-.019-1.752-.551-4.452-1.182-6-2.077-5.096-3.78-17.729-2.498-18.534.851-.535.824-1.238-.105-2.737-.687-1.109-1.259-3.26-1.27-4.78-.011-1.52-1.389-6.589-3.064-11.264-1.674-4.675-3.917-11.425-4.985-15-3.523-11.795-4.11-13.444-7.034-19.753-1.593-3.439-2.897-6.904-2.897-7.7 0-.796-.598-1.807-1.328-2.247-.731-.44-2.193-2.362-3.25-4.27-1.057-1.909-2.597-4.246-3.422-5.195-.825-.949-2.791-4.9-4.369-8.78-1.579-3.88-3.266-7.055-3.75-7.055-.485 0-.881-.569-.881-1.264 0-1.545-11.921-16.736-13.133-16.736-.477 0-.867-.659-.867-1.466 0-.806-1.312-2.808-2.916-4.448-1.604-1.641-3.202-3.884-3.552-4.984-.349-1.1-1.512-2.278-2.584-2.619-2.339-.742-8.712-7.269-9.518-9.748-.316-.97-.923-1.549-1.348-1.285-.426.263-3.298-2.172-6.382-5.41-3.083-3.239-8.44-8.243-11.903-11.12-6.744-5.601-17.117-15.577-15.047-14.47.688.367 1.25.253 1.25-.255 0-1.054-4.93-6.195-5.941-6.195-.367 0-2.388-1.575-4.489-3.5-2.102-1.925-4.234-3.5-4.738-3.5-.503 0-1.909-.938-3.124-2.085-1.214-1.147-3.558-2.785-5.208-3.641-1.65-.855-4.272-2.617-5.827-3.915-1.554-1.297-3.451-2.359-4.215-2.359-.764 0-2.994-1.41-4.957-3.133-1.962-1.723-3.828-2.873-4.146-2.556-.318.318-1.65-.696-2.96-2.253-1.31-1.558-4.298-3.796-6.639-4.974-2.341-1.179-8.06-4.829-12.709-8.113-4.649-3.284-8.924-5.975-9.5-5.981-.576-.005-3.001-1.563-5.39-3.462-2.388-1.899-5.201-3.725-6.25-4.057-1.049-.333-1.907-1.025-1.907-1.538 0-.513-.645-.933-1.434-.933-1.391 0-6.786-3.021-17.066-9.557-2.75-1.749-6.01-3.493-7.244-3.877-1.234-.383-2.869-1.322-3.633-2.085-1.37-1.371-5.588-3.694-15.205-8.375a624.406 624.406 0 0 1-8.565-4.256C864.832 65.755 842 58.223 842 59.672c0 .26-1.186-.46-2.635-1.599-1.985-1.562-4.08-2.073-8.5-2.073-4.436 0-5.865-.351-5.865-1.439 0-.938-1.565-1.673-4.5-2.113-2.475-.371-4.5-1.009-4.5-1.416 0-1.156-20.504-3.3-24.068-2.517-2.024.445-2.958.337-2.567-.297.653-1.056-11.149-3.705-15.17-3.404-1.268.095-2.064-.217-1.769-.694.294-.476-2.269-1.17-5.695-1.54-3.427-.371-8.031-1.307-10.231-2.079-5.339-1.874-20.745-3.731-24.775-2.986-1.774.328-6.009-.057-9.412-.856-3.402-.799-6.44-1.199-6.75-.889-.31.31-.563.038-.563-.603 0-1.795-2.775-1.382-3.92.583-.561.962-1.033 1.199-1.05.526-.016-.674-1.492-2.003-3.28-2.955-2.786-1.483-6.747-1.764-27.75-1.968-13.475-.131-29.7-.457-36.056-.724-6.508-.274-12.187-.073-13 .461m225.497 9.391c-1.68 1.282-1.739 1.616-.441 2.484 2.089 1.396 3.444.76 3.82-1.793.373-2.54-.674-2.754-3.379-.691m-92.177 4.237c1.52.229 3.77.223 5-.014 1.23-.237-.014-.425-2.764-.418-2.75.008-3.756.202-2.236.432m227.388 123.838c8.411 8.241 13.033 11.763 13.802 10.519.562-.91-4.965-7.075-6.342-7.075-.404 0-1.608-.787-2.674-1.75-2.175-1.962-8.165-6.432-10.406-7.765-.808-.48 1.721 2.252 5.62 6.071m.354 7.681c1.766 1.896 2.223 2.01 3.002.75.653-1.057.423-1.683-.795-2.166-3.457-1.372-4.3-.831-2.207 1.416m5.592 3.871c.918 1.015 2.012 1.633 2.431 1.374.419-.259 1.019.202 1.335 1.024.315.822 1.069 1.494 1.676 1.494s.396-.707-.469-1.571c-.864-.865-1.571-1.937-1.571-2.384 0-.446-1.141-1.03-2.536-1.297-2.408-.46-2.451-.391-.866 1.36M1006 182c.589 1.1 1.52 2 2.07 2 .644 0 .618-.714-.07-2-.589-1.1-1.52-2-2.07-2-.644 0-.618.714.07 2m-2.985 3.75c.041 1.99 5.985 6.22 5.985 4.258 0-.554-.45-1.008-1-1.008s-1-.627-1-1.393-.712-1.666-1.582-2c-2.052-.787-2.421-.765-2.403.143M424 304.636c-12.335 2.826-25.025 4.461-34 4.383-8.176-.072-20.339 1.4-16 1.936 2.866.354-2.36 1.902-6.667 1.975-2.291.038-4.329.559-4.528 1.156-.2.598-4.175 1.495-8.834 1.995-12.272 1.317-12.971 1.556-12.971 4.438 0 1.365-.376 2.481-.835 2.481-.459 0-.646 3.488-.416 7.75.23 4.262.013 10.249-.483 13.303-.496 3.055-.594 7.78-.217 10.5.376 2.721.744 4.159.817 3.197.074-.962.514-1.75.978-1.75 1.271 0 3.349 16.207 2.223 17.333-.517.517-.676 3.173-.353 5.901.419 3.537.211 5.194-.723 5.771-1.017.629-1.063 1.446-.206 3.653.607 1.563 1.165 9.592 1.241 17.842.186 20.327.28 21.5 1.724 21.5.688 0 1.25.45 1.25 1s-.732 1-1.627 1c-1.393 0-1.518.756-.866 5.25.418 2.887.813 8.071.877 11.52.098 5.278.314 5.999 1.366 4.559 1.117-1.529 1.25-1.431 1.25.921 0 1.448-.42 2.891-.933 3.208-1.224.757-1.046 6.542.202 6.542.53 0 .729.901.441 2.001-.288 1.101-.183 1.792.232 1.535.416-.257.794.867.84 2.498.085 2.977-1.218 4.055-2.072 1.716-.6-1.643.014 27.439.702 33.25.293 2.475 1.039 7.556 1.658 11.291.619 3.736.867 9.811.553 13.5-.314 3.69-.204 13.684.245 22.209.449 8.525.888 13.813.974 11.75.185-4.382 2.158-5.143 2.158-.832 0 1.605.273 3.63.607 4.5.435 1.134.01 1.582-1.5 1.582-2.483 0-2.483-.001-.693 6.721.764 2.872 1.403 8.633 1.42 12.801.016 4.169.321 8.907.677 10.529.405 1.844.243 2.949-.432 2.949-1.411 0-1.404 3.725.009 4.196.742.247 1.201 10.312 1.445 31.698.197 17.235.614 32.522.927 33.971.313 1.449 1.032 8.485 1.598 15.635.566 7.15 1.572 19.508 2.235 27.462l1.207 14.462 19.5.166c29.836.255 53.305 1.3 66.073 2.941 11.479 1.477 13.368 1.338 20.427-1.5 2.812-1.13 28.223-5.749 39-7.089 5.288-.657 13.537-.845 20-.454 16.573 1 34.222.838 41.5-.383 3.575-.599 11.563-1.093 17.75-1.097 6.188-.005 11.25-.403 11.25-.885s4.155-1.864 9.233-3.071 9.691-2.567 10.25-3.023c1.023-.834 16.136-4.519 24.517-5.978 2.475-.431 7.182-1.519 10.46-2.417 3.278-.899 8.678-1.67 12-1.713 3.322-.043 5.402-.331 4.622-.639-1.705-.674 11.093-4.143 15.585-4.224 1.741-.032 3.33-.55 3.531-1.151.2-.601 2.037-1.14 4.083-1.198 2.045-.058 3.719-.382 3.719-.721 0-.338 3.712-1.647 8.25-2.908 4.538-1.262 9.668-2.921 11.401-3.687 1.733-.766 3.477-1.393 3.875-1.393 1.016 0 12.866-5.292 13.474-6.017.275-.328 2.075-1.227 4-1.998 1.925-.77 4.155-2.042 4.955-2.827.801-.784 4.203-2.659 7.561-4.165 4.216-1.892 8.83-5.33 14.916-11.116 8.894-8.456 24.01-19.871 26.318-19.875.688-.001 1.25-.376 1.25-.833 0-.457 1.221-1.47 2.712-2.25 1.492-.78 4.08-2.801 5.75-4.489 1.671-1.689 7.313-6.392 12.538-10.451 5.225-4.06 9.991-7.854 10.592-8.43.6-.577 2.614-2.174 4.475-3.549 1.861-1.375 4.428-3.513 5.704-4.75 1.276-1.237 2.749-2.25 3.274-2.25.525 0 .842-.379.705-.843-.138-.463 2.061-3.399 4.886-6.522 2.825-3.124 6.65-8.185 8.5-11.248 1.85-3.062 4.736-7.665 6.413-10.228 6.469-9.886 15.632-31.917 21.324-51.269 2.166-7.364 4.402-14.581 4.969-16.037.567-1.456.817-2.861.556-3.121-.26-.261.728-5.744 2.197-12.185 2.227-9.767 2.489-12.321 1.575-15.379-.603-2.018-1.8-6.671-2.661-10.341-2.173-9.273-5.078-17.416-7.979-22.365-1.353-2.309-2.176-4.483-1.828-4.83.347-.348.106-.632-.535-.632a1.166 1.166 0 0 1-1.167-1.158c0-1.951-8.159-19.06-11.423-23.955-4.941-7.408-5.687-8.46-5.055-7.137.328.688-.029 1.25-.794 1.25s-1.858-1.012-2.429-2.25c-5.678-12.298-12.141-24.716-13.923-26.75-5.367-6.128-10.665-10.89-17.769-15.974-4.931-3.528-7.46-5.966-7.117-6.861.339-.883.032-1.195-.846-.859-2.088.801-11.16-3.919-13.037-6.782-.909-1.388-2.283-2.524-3.053-2.524s-2.673-1.07-4.227-2.378c-1.555-1.307-5.077-3.503-7.827-4.88a961.56 961.56 0 0 1-10-5.094c-13.963-7.236-27.337-11.711-39-13.051-5.175-.594-31.543-5.454-33.5-6.174-3.574-1.316-17.139-3.497-24.5-3.941-10.609-.639-23.871-2.563-24.519-3.557-.696-1.066-94.981-2.172-94.981-1.114 0 1.385-20.744 3.617-33.5 3.605-18.31-.017-50.048-1.287-59-2.361-4.4-.528-10.378-1.679-13.284-2.557-6.134-1.852-18.805-1.788-27.216.138m194.75.07c1.237.238 3.263.238 4.5 0 1.237-.239.225-.434-2.25-.434s-3.487.195-2.25.434M75.63 310.25c-.858 3.204-.802 3.47.87 4.112 1.156.443 1.5-.221 1.5-2.893 0-3.902-1.451-4.648-2.37-1.219M559 311.333c0 1.631 4.226 1.488 4.776-.162.231-.693-.663-1.171-2.193-1.171-1.485 0-2.583.566-2.583 1.333M788 350c0 .55.675 1 1.5 1s1.5.397 1.5.883 2.362 2.08 5.25 3.543c9.859 4.997 14.929 8.142 15.889 9.859.528.943 1.54 1.715 2.248 1.715.708 0 3.18 1.8 5.492 4 2.313 2.2 4.536 4 4.941 4 1.156 0 4.082 3.765 3.431 4.415-.321.322-.077.585.543.585.621 0 1.988.923 3.039 2.051 1.922 2.063 12.349 22.502 13.62 26.699.375 1.238 1.375 2.25 2.221 2.25 1.058 0 1.328-.548.863-1.75-.372-.962-.921-3.1-1.219-4.75-1.285-7.108-5.068-16.5-6.645-16.5-.554 0-.774-.232-.491-.516.619-.618-15.892-16.648-21.998-21.356-2.374-1.831-4.584-3.061-4.911-2.734-.327.327-1.094-.408-1.705-1.633s-2.451-2.681-4.089-3.236c-1.639-.554-3.567-1.799-4.286-2.766-.718-.968-2.181-1.759-3.25-1.759s-1.943-.525-1.943-1.167c0-.641-.285-.881-.634-.532-.349.348-1.759-.252-3.135-1.334-2.651-2.085-6.231-2.641-6.231-.967M75.708 369.75c.114 4.812.226 9.988.25 11.5.023 1.512.38 2.749.792 2.747.412-.001.682-3.939.599-8.75C77.116 361.815 77.053 361 76.25 361c-.412-.001-.657 3.937-.542 8.75m-.472 16.75c-.02 1.1.281 3.125.67 4.5.705 2.494.708 2.494 1.307.25.33-1.238.223-2.25-.237-2.25-.46 0-1.032-1.012-1.27-2.25-.359-1.862-.44-1.905-.47-.25m.67 16.808c-.223 4.845-.1 9.57.274 10.5.587 1.462.702 1.42.843-.308.513-6.257.482-12.426-.076-15.5-.464-2.556-.745-1.123-1.041 5.308M847 412.411c0 .226.962 2.926 2.139 6 2.188 5.718 3.861 7.232 3.861 3.493 0-2.371-2.992-7.904-4.275-7.904-.463 0-.565-.45-.225-1 .34-.55.141-1-.441-1s-1.059.185-1.059.411M72.468 453.255c.144 2.335-.113 4.723-.571 5.308-.457.585-.557 2.757-.221 4.827.943 5.81 2.291 2.259 2.309-6.081.008-3.955-.388-7.44-.882-7.745-.493-.305-.778 1.356-.635 3.691m1066.391 25.995c-.197 1.788-.092 5.5.234 8.25.512 4.318.614 3.875.75-3.25.16-8.39-.332-10.891-.984-5M64.337 528.435c.303.79.066 1.597-.526 1.795-1.215.405-.164 4.77 1.148 4.77 1.155 0 2.163-4.517 1.433-6.421-.333-.868-1.056-1.579-1.606-1.579s-.752.646-.449 1.435m12.475 8.315c-.179 5.362.015 10.178.431 10.7.416.522.757-3.865.757-9.75s-.194-10.7-.431-10.7c-.238 0-.578 4.388-.757 9.75m-8.658-7.198c.191.98.951 1.984 1.692 2.23.86.287 1.22-.194 1-1.334-.191-.98-.951-1.984-1.692-2.23-.86-.287-1.22.194-1 1.334M63.638 558.5c.317.825.978 1.5 1.469 1.5.491 0 .893-.675.893-1.5s-.661-1.5-1.469-1.5c-.894 0-1.243.586-.893 1.5m1.029 3.167c-1.206 1.206-.696 5.333.66 5.333.905 0 1.187-.953.886-3-.475-3.237-.542-3.338-1.546-2.333m1062.042 9.674c.513 2.798-3.029 13.465-10.679 32.159-5.548 13.558-6.094 15.529-5.68 20.5.252 3.025.526 5.725.608 6 .199.665 4.04-10.948 4.466-13.5.183-1.1 1.93-6.349 3.881-11.665 1.951-5.315 3.863-11.84 4.249-14.5.386-2.659 1.153-5.703 1.705-6.764 1.943-3.737 3.49-13.453 2.22-13.941-.731-.28-1.019.359-.77 1.711M237.272 579c0 2.475.195 3.487.434 2.25.238-1.237.238-3.263 0-4.5-.239-1.237-.434-.225-.434 2.25m1.064 20c0 4.125.177 5.813.392 3.75.216-2.062.216-5.437 0-7.5-.215-2.062-.392-.375-.392 3.75m-.064 19c0 2.475.195 3.487.434 2.25.238-1.237.238-3.263 0-4.5-.239-1.237-.434-.225-.434 2.25M66.856 629.5c-.754 1.227-.358 8.331.513 9.202.347.347.631 1.483.631 2.524 0 1.04.43 1.626.956 1.301.526-.325.702-1.255.39-2.068-.312-.812-.861-3.835-1.221-6.718-.36-2.882-.931-4.791-1.269-4.241m1032.381 20.925C1092.833 665.236 1092.276 667 1094 667c.55 0 1-.681 1-1.514 0-.832.39-2.295.867-3.25 5.553-11.124 9.119-19.41 9.676-22.486.374-2.062.511-3.75.305-3.75-.205 0-3.181 6.491-6.611 14.425M66.404 651.611c.403 1.05.179 1.445-.643 1.134-.866-.329-1.308.733-1.411 3.388-.099 2.559.284 3.867 1.133 3.867.706 0 1.543.993 1.861 2.206.998 3.82 1.369 1.543.887-5.456-.255-3.712-.91-6.75-1.454-6.75-.545 0-.713.725-.373 1.611m177.571 49.185.483 4.704.339-3.882c.187-2.135-.03-4.251-.482-4.703-.452-.452-.605 1.295-.34 3.881M64.66 725.769c.638.405 1.358 2.086 1.6 3.734.399 2.718.454 2.648.59-.753.119-2.967-.215-3.747-1.6-3.735-1.136.01-1.343.275-.59.754m8.426 2.781c.085 3.904.096 3.915.974.974.549-1.84.516-3.348-.086-3.95-.632-.632-.944.413-.888 2.976m365.676 7.157c1.244.239 3.044.23 4-.02s-.062-.446-2.262-.435c-2.2.011-2.982.216-1.738.455M334.919 1056.25c-.65 2.001-.405 13.567.306 14.465.53.67.656 3.03.28 5.253-.58 3.438-.446 3.947.907 3.428.873-.336 1.637-1.349 1.698-2.253.06-.904.232-3.106.383-4.893.15-1.787-.024-3.25-.386-3.25-.363 0-.488-1.804-.277-4.01.445-4.669-.444-8.99-1.849-8.99-.54 0-1.018.112-1.062.25M328 1143c0 1.65-.45 3-1 3-1.413 0-1.243 3.342.25 4.925 1 1.06 1 1.417 0 1.783-.687.252-1.25 1.546-1.25 2.875 0 2.472.728 2.953 2.5 1.652 1.148-.844 1.386-17.237.25-17.236-.413.001-.75 1.351-.75 3.001m16 5c0 2.75.45 5 1 5s1-2.25 1-5-.45-5-1-5-1 2.25-1 5m-11.748 9.5c.011 2.2.216 2.982.455 1.738.239-1.244.23-3.044-.02-4s-.446.062-.435 2.262m-272.31.812c-.031.653-.238 2.907-.458 5.007-.281 2.676-.039 3.701.808 3.423.664-.218 1.349-1.824 1.521-3.569.173-1.745.735-3.173 1.25-3.173.516 0 .937-.579.937-1.287 0-1.621-3.979-2.014-4.058-.401m267.334 1.517c-1.171.724-1.315 8.158-.158 8.167.57.004 2.024-8.188 1.539-8.672-.118-.119-.739.109-1.381.505m2.173 23.421c.308 2.888.923 8.048 1.368 11.467.661 5.083.569 6.018-.504 5.127-1.016-.842-1.313-.595-1.313 1.093 0 1.199.418 1.923.928 1.607.51-.315 1.216.333 1.567 1.441.703 2.214 1.32 2.418 3.372 1.119 1.073-.68 1.139-1.59.306-4.235-.584-1.853-1.614-7.757-2.29-13.119-.887-7.04-1.613-9.75-2.611-9.75-1.073 0-1.257 1.178-.823 5.25m12.551 1.06c0 1.362.705 2.746 1.566 3.077 1.219.468 1.496.011 1.25-2.066-.412-3.481-2.816-4.344-2.816-1.011m-5.158 2.94c-.086 1.787-.106 3.925-.043 4.75.062.825.318 6.163.569 11.862.45 10.232 1.333 13.059 3.638 11.634 1.482-.916.633-22.257-.948-23.838-.582-.582-1.058-2.543-1.058-4.358 0-4.273-1.951-4.318-2.158-.05m-256.556 2.25c.008 2.75.202 3.756.432 2.236.229-1.52.223-3.77-.014-5-.237-1.23-.425.014-.418 2.764m-5.923 3.563c.543 2.719.389 2.993-1.369 2.435-1.416-.449-1.833-.242-1.462.726.286.745 1.408 1.421 2.494 1.503 1.656.125 1.974-.485 1.974-3.789 0-2.25-.482-3.938-1.125-3.938-.722 0-.905 1.098-.512 3.063m861.791 42.489c.191.98.951 1.984 1.692 2.23.86.287 1.22-.194 1-1.334-.191-.98-.951-1.984-1.692-2.23-.86-.287-1.22.194-1 1.334m-604.47 20.83c-.376.98-.629 4.107-.562 6.95l.122 5.168.875-6c.92-6.305.719-9.127-.435-6.118m-.795 15.618c-.336 1.375-.679 5.875-.763 10-.114 5.636.11 7.069.902 5.766.584-.962.924-5.415.763-10-.164-4.659-.557-7.175-.902-5.766m-260.045 14.25c-.744 2.516.326 19.75 1.227 19.75.513 0 .929-4.701.929-10.5 0-5.775-.402-10.5-.893-10.5s-1.059.563-1.263 1.25m11.442 4.25c.008 2.75.202 3.756.432 2.236.229-1.52.223-3.77-.014-5-.237-1.23-.425.014-.418 2.764m-3 23c.008 2.75.202 3.756.432 2.236.229-1.52.223-3.77-.014-5-.237-1.23-.425.014-.418 2.764m-7.979.409c-.533 1.325-.76 3.499-.506 4.832.384 2.009.687 2.195 1.77 1.091.917-.935 1.067-2.375.505-4.832-.78-3.412-.825-3.439-1.769-1.091M82.702 1318c.313 3.025.733 5.688.933 5.917.701.801.158-6.439-.669-8.917-.538-1.614-.632-.551-.264 3m958.034 55.398c.233 1.222 1.401 2.81 2.594 3.529 1.559.94 1.84.959.998.069-.644-.682-.977-1.748-.738-2.37.239-.622-.402-1.652-1.423-2.289-1.625-1.015-1.803-.883-1.431 1.061M65 1392.417c0 .87.713 1.583 1.583 1.583 1.766 0 1.459-2.153-.395-2.771-.654-.218-1.188.317-1.188 1.188m1.541 6.892c.845 3.364 1.296 5.955 1.382 7.941.043.963.556 1.75 1.142 1.75 1.146 0 .773-7.203-.53-10.25-1.101-2.572-2.669-2.133-1.994.559M1115 1462c.825.533 1.162.976.75.985-.412.008.15.915 1.25 2.015s2 2.627 2 3.393c0 1.415 2.878 3.062 3.779 2.162 1.189-1.189-5.862-9.566-8.029-9.54-.833.011-.75.339.25.985m8 18.643c0 1.583 3.953 6.357 5.264 6.357.615 0 .423-.562-.427-1.25-.849-.687-2.285-2.363-3.191-3.723-.905-1.359-1.646-1.983-1.646-1.384m7.76 11.247c1.507 2.139 2.917 3.724 3.134 3.522.549-.511-4.225-7.397-5.134-7.405-.408-.004.492 1.743 2 3.883m55.24 74.91c0 .44.54 1.34 1.2 2 1.6 1.6 2.8 1.518 2.8-.193 0-.766-.712-1.666-1.582-2-2.07-.794-2.418-.767-2.418.193m-964.238 136.907c1.244.239 3.044.23 4-.02s-.062-.446-2.262-.435c-2.2.011-2.982.216-1.738.455" fill-rule="evenodd"/></svg>