<svg xmlns="http://www.w3.org/2000/svg" width="1240" height="1753"><path d="M614 35.047c-22.588 1.449-34.218 2.929-37.715 4.8-2.853 1.527-5.544 4.925-4.824 6.09.422.683-.781 1.063-3.371 1.063-3.342 0-3.919-.283-3.39-1.66.567-1.478-.069-1.593-5.781-1.047-3.531.338-9.981 1.511-14.334 2.608-5.252 1.322-8.49 1.685-9.625 1.078-1.167-.625-4.052-.167-9.085 1.442-4.056 1.297-9.85 2.925-12.875 3.619-3.025.694-8.369 2.779-11.875 4.633-3.506 1.854-7.781 3.574-9.5 3.821-1.719.248-5.6 1.174-8.625 2.059-3.025.885-9.063 2.486-13.419 3.558-4.355 1.071-10.719 3.284-14.142 4.918-3.424 1.634-6.668 2.971-7.21 2.971-.541 0-1.602.748-2.357 1.662-.754.914-3.622 2.753-6.372 4.087-10.032 4.867-15.385 7.786-17.172 9.366-1.006.889-4.078 2.751-6.828 4.139-13.082 6.601-15.947 8.461-22.082 14.331-2.993 2.864-9.926 6.764-15.918 8.954-2.75 1.006-7.7 3.786-11 6.179-3.3 2.393-9.356 6.662-13.459 9.487-4.102 2.826-8.543 6.427-9.869 8.002-1.326 1.576-3.819 3.59-5.541 4.476-1.722.886-4.481 3.206-6.131 5.155-1.65 1.95-6.825 7.264-11.5 11.81s-8.851 8.622-9.281 9.058c-11.279 11.468-20.832 20.291-21.969 20.293-.413.001-.75.69-.75 1.532 0 .843-.683 1.794-1.517 2.114-.835.32-3.66 4.924-6.277 10.231-5.04 10.216-7.595 14.402-8.338 13.658-.249-.249-1.978 1.892-3.842 4.757-1.863 2.865-4.207 5.797-5.207 6.516-1 .718-1.819 1.94-1.819 2.715 0 .774-.828 1.851-1.839 2.392-1.012.541-3.824 3.595-6.25 6.785-2.426 3.191-4.973 6.396-5.661 7.122-.687.727-1.25 1.708-1.25 2.179 0 .471-.625 1.482-1.388 2.245-.763.763-2.872 4.058-4.686 7.321-1.814 3.264-4.227 7.088-5.362 8.498-3.946 4.903-15.642 22.492-18.65 28.047-.778 1.436-2.585 4.361-4.016 6.5-2.631 3.932-9.506 17.09-14.441 27.636-2.308 4.934-2.946 7.415-3.408 13.253-.044.55-.516.325-1.049-.5-.809-1.253-.997-1.17-1.137.5-.092 1.1-.217 2.547-.277 3.215-.06.669-1.004 1.907-2.097 2.753-1.785 1.38-1.799 1.47-.133.887 1.648-.578 1.594-.25-.488 2.926-2.571 3.921-3.69 4.249-1.896.555.914-1.884.652-1.767-1.36.606-1.371 1.618-2.286 3.276-2.033 3.685.252.409-.566 1.785-1.819 3.058-1.253 1.273-4.038 5.803-6.189 10.065s-4.509 7.75-5.241 7.75c-.731 0-1.33.614-1.33 1.364 0 .75-1.062 2.437-2.361 3.75-3.442 3.478-5.639 8.285-5.639 12.336 0 2.366-.464 3.55-1.391 3.55-1.523 0-4.717 6.8-5.353 11.395-.22 1.593-1.01 3.843-1.755 5-.745 1.158-2.246 5.705-3.335 10.105s-3.077 12.275-4.418 17.5c-4.334 16.892-5.916 24.895-5.304 26.824.33 1.039-.121 4.766-1.002 8.283-2.336 9.321-2.846 48.468-.833 63.893 2.363 18.112 2.495 22.094.889 27-2.012 6.146-2.383 20.918-.753 30 .741 4.125 1.5 8.894 1.687 10.597.819 7.448 1.826 11.404 2.906 11.418.712.01.622.358-.234.899-.798.506-1.121 1.599-.755 2.554.569 1.482 3.801 16.731 5.008 23.625.249 1.425 1.656 5.7 3.125 9.5 4.312 11.146 6.338 16.741 7.029 19.407.357 1.375 1.25 3.85 1.985 5.5 1.268 2.844 4.42 14.078 8.514 30.343 1.016 4.038 2.513 8.088 3.326 9 .813.911 2.005 3.682 2.649 6.157.644 2.475 2.199 6.75 3.456 9.5a547.042 547.042 0 0 1 4.115 9.25c1.006 2.337 2.192 4.25 2.636 4.25.445 0 .808.683.808 1.518 0 1.41 2.322 6.505 7.199 15.798 1.102 2.098 1.759 4.06 1.46 4.358-.298.299 2.864 4.432 7.028 9.184 4.163 4.753 8.289 9.767 9.168 11.142.879 1.375 1.88 2.725 2.224 3 .344.275 2.805 3.2 5.47 6.5 2.664 3.3 8.018 9.669 11.898 14.154 3.879 4.485 9.078 10.931 11.553 14.324 2.475 3.394 7.757 9.625 11.738 13.846 3.98 4.222 7.243 8.013 7.25 8.426.006.413.687.75 1.512.75s1.5.42 1.5.933c0 .513.848 1.201 1.884 1.53 1.036.329 1.823 1.355 1.75 2.279-.074.925.669 1.847 1.65 2.05.981.202 3.89 2.357 6.463 4.788 2.574 2.432 5.479 4.674 6.454 4.984.976.31 5.67 3.221 10.431 6.47 4.76 3.248 9.041 5.668 9.512 5.377.471-.291.856-.115.856.391 0 1.237 26.655 18.198 28.599 18.198.297 0 2.422 1.269 4.721 2.821 2.299 1.552 7.78 4.774 12.18 7.16 4.4 2.387 9.35 5.094 11 6.016 16.777 9.377 33.712 17.992 35.376 17.998.756.003 7.443 3.211 14.859 7.129C420.336 951.782 435.461 958 439.054 958c1.989 0 9.698 3.686 12.831 6.135 1.312 1.026 3.006 1.865 3.766 1.865.759 0 4.079 1.912 7.378 4.25 3.299 2.337 9.479 6.499 13.734 9.249 4.255 2.749 7.962 5.254 8.237 5.566 2.134 2.422 28.6 18.619 37.13 22.723 5.846 2.813 11.246 5.728 12 6.478.753.751 4.52 3.095 8.37 5.21 8.695 4.777 18.835 10.809 19.5 11.6.61.726 9.003 5.357 23 12.694 5.775 3.026 13.447 7.208 17.049 9.293 3.602 2.085 9.902 5.462 14 7.505 4.098 2.043 9.701 5.158 12.451 6.922 4.386 2.814 7.478 4.181 19.71 8.715 1.49.552 4.963 2.645 7.717 4.65 2.755 2.005 6.905 4.77 9.223 6.145 2.317 1.375 5.594 3.9 7.282 5.61 1.687 1.711 6.801 5.761 11.364 9 4.562 3.24 11.537 8.255 15.5 11.145 3.962 2.891 8.779 6.113 10.704 7.162 4.21 2.293 20.67 16.926 30.892 27.463 4.066 4.191 8.004 7.62 8.75 7.62a1.36 1.36 0 0 1 1.358 1.353c0 .744 2.362 3.581 5.25 6.304 2.887 2.723 7.692 7.852 10.677 11.397 2.985 3.545 6.167 7.121 7.071 7.946 4.401 4.015 17.771 24.525 25.002 38.352 1.375 2.629 3.315 5.661 4.311 6.738.996 1.076 2.465 3.409 3.265 5.183.8 1.775 1.845 3.902 2.323 4.727 2.128 3.673 7.541 20.682 9.069 28.5 1.748 8.944 2.71 26.945 1.873 35.065-1.462 14.179-3.594 21.763-7.755 27.587-2.101 2.941-5.049 7.823-6.551 10.848a2298.593 2298.593 0 0 1-4.494 9c-.97 1.925-2.293 6.875-2.941 11-1.369 8.718-2.626 13.046-5.298 18.246-1.059 2.06-1.677 4.146-1.375 4.636.303.49-.094 1.427-.883 2.082-.789.654-2.886 3.518-4.66 6.363-1.775 2.845-3.723 5.623-4.329 6.173-.606.55-2.137 2.35-3.403 4-2.45 3.194-17.436 18.653-21.327 22-2.596 2.233-4.293 3.289-10.825 6.74-2.475 1.307-8.325 4.773-13 7.702-4.675 2.929-10.075 5.992-12 6.806-1.925.815-4.706 2.338-6.18 3.385-2.529 1.796-24.825 9.822-31.32 11.274-1.65.369-5.925 1.496-9.5 2.504a1468.788 1468.788 0 0 1-15 4.115c-4.675 1.255-8.95 2.606-9.5 3.002-2.533 1.827-21.25 4.274-35 4.576-112.873 2.48-113.421 2.463-129-4.106-7.799-3.288-35.02-16.932-36.321-18.205-.727-.711-1.708-1.293-2.179-1.293-.471 0-1.48-.623-2.242-1.385-2.568-2.568-16.178-11.615-17.474-11.615-.706 0-1.284-.378-1.284-.839 0-.462-1.024-1.306-2.275-1.876-4.929-2.246-16.034-12.913-20.286-19.485-2.441-3.774-4.439-7.095-4.439-7.379 0-.284-1.575-2.979-3.5-5.988-1.925-3.01-3.5-6.273-3.5-7.252 0-.98-.421-2.208-.935-2.731-1.129-1.147-4.932-14.069-6.119-20.793-.47-2.663-1.321-5.404-1.892-6.092-.57-.687-.755-1.531-.41-1.876.345-.345-.119-1.766-1.032-3.158-.912-1.392-1.206-2.531-.654-2.531 1.055 0 .233-9.291-.862-9.749-1.478-.618 1.023-39.729 2.892-45.251.466-1.375 1.1-4.638 1.41-7.25.449-3.782.262-4.75-.917-4.75-1.755 0-1.826-.487-.446-3.066.57-1.064 1.815-1.934 2.769-1.934 1.044 0 3.817-3.081 6.976-7.75 2.883-4.263 6.714-9.325 8.513-11.25 10.511-11.25 16.896-21.16 18.236-28.305.382-2.032 1.087-3.695 1.567-3.695s.69-2.408.466-5.35c-.422-5.561-4.377-15.423-8.746-21.809-4.039-5.904-14.997-17.841-16.377-17.841-.699 0-2.996-1.865-5.105-4.144-2.109-2.279-4.658-4.867-5.665-5.75-1.007-.883-2.759-3.406-3.892-5.606-1.134-2.2-4.811-7.15-8.172-11-6.784-7.772-10.605-12.941-10.605-14.347 0-.511-1.512-3.127-3.361-5.814-1.848-2.687-3.678-5.888-4.067-7.112-.389-1.225-1.041-2.227-1.449-2.227-.781 0-7.04-9.354-11.376-17-1.403-2.475-3.947-6.3-5.652-8.5-1.706-2.2-3.775-4.879-4.598-5.953-.823-1.075-1.497-2.382-1.497-2.906s-1.125-2.427-2.5-4.23c-1.375-1.803-2.5-3.573-2.5-3.935 0-1.919-5.848-8.475-8-8.968-1.603-.366-3.143-1.905-4.293-4.29-3.611-7.486-4.25-8.206-9.183-10.346-2.763-1.199-7.949-2.459-11.524-2.801-3.575-.341-7.065-.975-7.756-1.408-1.467-.921-7.588.986-11.398 3.551-1.46.982-3.572 1.786-4.694 1.786-1.121 0-2.69.93-3.487 2.067-1.665 2.379-5.473 4.72-14.665 9.02a926.215 926.215 0 0 0-9.965 4.727c-5.684 2.766-19.876 14.689-30.285 25.443-5.362 5.54-9.75 10.425-9.75 10.856 0 .431-1.013 1.895-2.25 3.252-1.238 1.358-5.602 6.575-9.699 11.594-4.097 5.018-8.934 10.793-10.749 12.833-1.815 2.039-3.301 4.233-3.301 4.875-.001.641-.368 1.316-.817 1.5-1.576.644-10.227 11.982-12.689 16.631-1.37 2.586-5.221 8.527-8.558 13.202-7.756 10.865-22.692 41.429-24.434 50-.329 1.62-2.937 8.66-5.001 13.5-.704 1.65-1.605 4.125-2.002 5.5-.397 1.375-1.312 3.85-2.033 5.5-1.252 2.867-3.724 11.014-5.614 18.5-1.226 4.859-2.777 17.009-3.356 26.291-.267 4.285-1.242 13.51-2.165 20.5-1.953 14.775-2.18 46.579-.454 63.709.609 6.05 1.304 13.25 1.544 16 .987 11.308 1.913 16.917 3.203 19.389.75 1.436 1.365 4.1 1.369 5.92.004 2.035.406 3.062 1.046 2.666.675-.417.812.266.392 1.941-.397 1.581-.231 2.584.428 2.584.593 0 .836.629.54 1.399-.295.769-.056 1.696.532 2.059.587.363 1.068 2.208 1.068 4.101 0 1.893.436 3.441.969 3.441.532 0 .693.718.356 1.595-.568 1.48.908 8.982 4.405 22.405.789 3.025 1.83 7.703 2.315 10.396.484 2.693 1.797 5.872 2.918 7.064 1.12 1.193 2.037 3.092 2.037 4.221s.85 4.25 1.89 6.936c1.039 2.685 2.457 6.784 3.151 9.107.694 2.323 2.094 5.117 3.11 6.208 1.017 1.092 1.849 2.678 1.849 3.526 0 .848.36 1.542.799 1.542.44 0 1.369 1.575 2.065 3.5s1.686 3.5 2.201 3.5c.514 0 .935.761.935 1.69 0 1.653 5.883 14.321 7.11 15.31.341.275.941 1.527 1.333 2.782.392 1.255 1.751 3.444 3.021 4.864 4.364 4.88 5.536 6.355 5.536 6.972 0 .34 1.238 2.128 2.75 3.973 1.512 1.845 4.775 5.881 7.25 8.969 5.075 6.331 10.929 13.021 19 21.711 5.206 5.605 20.407 16.729 22.861 16.729.627 0 1.139.645 1.139 1.433s.922 1.725 2.048 2.082c1.127.358 5.514 3.255 9.75 6.437 8.279 6.221 15.308 10.101 22.922 12.654 2.629.881 5.455 2.183 6.28 2.892 1.658 1.425 26.184 13.502 27.42 13.502 1.517 0 17.58 8.224 17.58 9.001 0 .435 2.256 2.238 5.013 4.008 2.758 1.769 5.345 3.786 5.75 4.481.781 1.34 13.018 7.73 17.237 9.001 1.375.414 7 2.904 12.5 5.533 16.804 8.032 45.879 19.01 51.879 19.588 2.198.212 6.31 1.25 9.137 2.308 2.827 1.058 9.155 2.868 14.062 4.023 4.907 1.155 11.622 2.981 14.922 4.058 7.548 2.462 19.622 5.05 25.5 5.465 2.475.175 10.8 1.232 18.5 2.349 7.7 1.117 19.4 2.525 26 3.13 24.884 2.278 121.356 2.892 158 1.004 11.092-.571 23.181-1.887 31.5-3.427 7.425-1.374 14.873-2.504 16.55-2.51 1.678-.007 3.478-.39 4-.851.523-.461 3.65-1.413 6.95-2.114 3.3-.701 8.025-1.849 10.5-2.55 2.475-.701 9-2.254 14.5-3.451s11.125-2.675 12.5-3.285c1.375-.611 2.807-1.042 3.182-.958 1.142.254 15.057-4.483 19.318-6.576 2.2-1.081 6.475-2.535 9.5-3.231 5.93-1.366 21.864-6.811 23.5-8.032.55-.41 5.725-2.321 11.5-4.247 5.775-1.926 15.225-5.755 21-8.509 20.478-9.767 32.541-15.448 35.694-16.809 1.757-.758 7.979-4.309 13.827-7.889 5.849-3.581 10.81-6.51 11.025-6.51.215 0 .132.675-.184 1.5-.317.825-.052 1.5.587 1.5 1.386 0 6.108-4.94 10.037-10.5 1.555-2.2 6.824-7.838 11.709-12.529 4.886-4.692 9.641-9.613 10.568-10.936.927-1.324 8.126-8.96 15.998-16.971 7.873-8.01 15.872-16.382 17.776-18.603 7.407-8.64 15.643-18.08 19.562-22.421 2.254-2.497 4.556-5.388 5.115-6.425.559-1.037 3.587-4.637 6.729-8 4.759-5.094 22.573-27.967 26.057-33.457.55-.867 3.762-5.87 7.139-11.117 3.376-5.248 6.855-11.263 7.731-13.368.876-2.105 2.854-5.705 4.396-8 1.542-2.295 3.443-5.748 4.224-7.673.78-1.925 2.339-5.075 3.464-7 3.682-6.304 15.725-33.364 17.579-39.5.997-3.3 4.039-11.201 6.761-17.558 8.843-20.655 15.563-41.419 15.355-47.442-.038-1.1.586-6.05 1.387-11 1.808-11.178 1.859-24.415.119-31-.95-3.595-1.37-14.41-1.494-38.5-.095-18.425-.571-35.75-1.058-38.5-2.002-11.289-4.395-22.534-6.704-31.5-4.151-16.114-11.641-40-12.543-40-.471 0-.856-.479-.856-1.064 0-.585-1.172-3.623-2.605-6.75-1.432-3.127-3.313-7.486-4.179-9.686-1.273-3.232-13.157-24.247-17.247-30.5-.54-.825-1.292-2.175-1.671-3-.38-.825-3.913-5.775-7.852-11-3.94-5.225-10.003-13.756-13.475-18.957-3.471-5.202-7.942-11.277-9.934-13.5-1.993-2.224-4.388-5.168-5.322-6.543-7.306-10.748-9.008-12.937-9.722-12.496-.447.276-2.901-2.424-5.453-6.001-2.553-3.577-4.996-6.503-5.43-6.503-.434 0-1.326-1.179-1.983-2.62-1.022-2.243-.973-2.535.34-2.031 2.039.782 1.928-.189-.471-4.123-1.098-1.801-1.996-3.877-1.996-4.614 0-.737-1.064-2.413-2.365-3.726-1.301-1.312-2.681-3.399-3.067-4.636-.387-1.24-1.511-2.25-2.503-2.25-.991 0-2.987-1.796-4.446-4-1.456-2.2-3.066-4-3.578-4-1.182 0-16.052-15.136-26.524-27-2.184-2.475-4.319-4.387-4.744-4.25-.425.138-.661-.312-.523-1 .137-.687-.313-1.137-1-1-.688.138-1.138-.312-1-1 .137-.687-.249-1.159-.858-1.047-.61.111-2.41-1.237-4-2.997-2.869-3.173-2.87-3.179-.142-.778 1.513 1.331 2.75 1.971 2.75 1.421 0-1.444-4.537-5.494-5.763-5.145-.57.163-.969.006-.887-.349.271-1.167-3.597-4.82-4.508-4.257-.491.303-.768-.025-.617-.728.151-.704-.287-1.3-.975-1.325-.687-.025-1.288-.495-1.335-1.045-.141-1.663-2.081-3.515-3.053-2.915-.501.31-.788-.022-.637-.737.151-.715-.716-1.452-1.928-1.638-1.211-.185-2.479-1.208-2.817-2.273-.338-1.066-1.148-1.937-1.8-1.937-.651 0-3.261-1.913-5.799-4.25-2.538-2.338-7.677-6.725-11.419-9.75-3.743-3.025-7.597-6.257-8.566-7.183-.969-.926-2.917-2.44-4.329-3.365-1.412-.925-2.567-2.305-2.567-3.067s-.498-1.385-1.107-1.385-.829-.725-.489-1.611c.426-1.109.185-1.445-.772-1.078-1.259.483-3.258-1.259-12.031-10.487-1.4-1.472-5.181-4.082-8.404-5.8-3.223-1.717-7.285-4.425-9.028-6.017-1.743-1.592-3.169-2.625-3.169-2.295 0 .329-1.013-.529-2.25-1.907-2.577-2.87-11.101-8.805-12.645-8.805-.57 0-2.514-1.264-4.32-2.809-6.365-5.444-31.998-22.438-40.962-27.157-3.123-1.644-5.957-3.442-6.299-3.995-.341-.553-4.087-2.73-8.322-4.837-7.578-3.771-11.578-5.959-13.651-7.466-4.366-3.174-8.875-5.736-10.095-5.736-.801 0-1.456-.388-1.456-.863s-3.487-2.605-7.75-4.734c-4.263-2.128-11.35-5.938-15.75-8.466-4.4-2.527-9.575-5.179-11.5-5.892-4.411-1.634-16.893-7.94-25.168-12.714-12.102-6.982-37.693-20.138-42.832-22.019-1.925-.705-4.527-1.289-5.781-1.297-1.255-.008-2.541-.69-2.857-1.515-.317-.825-1.653-1.5-2.969-1.5-1.319 0-2.393-.594-2.393-1.324 0-.729-2.812-2.613-6.25-4.189-10.896-4.992-29.074-13.563-34.068-16.062-2.649-1.326-5.968-2.619-7.374-2.874-3.632-.659-9.189-4.698-8.594-6.247.283-.739-.197-1.304-1.107-1.304-.884 0-1.607-.45-1.607-1s-.691-1-1.535-1c-1.714 0-5.922-2.511-8.965-5.35-1.1-1.026-3.575-2.883-5.5-4.128-1.925-1.244-4.357-3.221-5.405-4.392-1.048-1.172-2.532-2.13-3.298-2.13s-2.384-1.039-3.595-2.31c-1.211-1.27-7.827-5.968-14.702-10.44-17.827-11.596-21.012-13.849-31.461-22.25-12.595-10.126-29.704-25.048-31.505-27.477-.806-1.087-4.631-5.436-8.5-9.664-3.869-4.228-9.28-11.439-12.024-16.023-4.581-7.652-6.773-10.738-17.762-25.009-7.532-9.781-11.712-18.456-13.829-28.699-1.456-7.043-.304-37.192 1.945-50.873 1.106-6.735 2.238-12.612 2.515-13.059.277-.448.711-3.038.966-5.755.581-6.205 2.849-15.046 7.234-28.206 1.882-5.646 3.421-11.389 3.421-12.763 0-1.374 1.83-7.33 4.068-13.235 2.237-5.905 4.8-12.987 5.696-15.737.896-2.75 4.128-8.781 7.182-13.403 3.055-4.621 6.948-10.59 8.653-13.264 3.38-5.303 14.513-18.782 15.538-18.814.351-.01 3.253-3.281 6.449-7.269 3.195-3.988 6.104-7.475 6.462-7.75.359-.275.832-.979 1.052-1.565.533-1.42 21.204-20.387 26.9-24.682 2.475-1.867 8.1-5.338 12.5-7.715s11.859-6.519 16.576-9.204c4.717-2.685 9.667-5.089 11-5.341 3.678-.697 22.924-9.693 22.924-10.715 0-.493.386-.658.858-.366.471.291 4.634-1.086 9.25-3.06 10.675-4.567 18.674-7.352 21.113-7.352 1.051 0 2.757-.453 3.793-1.007 4.45-2.382 25.609-2.756 60.486-1.068 17.675.855 19.172 1.104 25.247 4.201 2.022 1.031 4.465 1.874 5.431 1.874.965 0 3.232.63 5.038 1.399 7.837 3.339 11.442 4.677 13.781 5.114 1.373.257 2.652.935 2.843 1.508.292.876 9.625 6.265 11.16 6.443.275.032 3.259 1.74 6.631 3.797 3.372 2.056 6.492 3.739 6.934 3.739 1.338 0 9.843 4.305 11.256 5.698.727.716 1.766 1.302 2.309 1.302.543 0 2.648 1.266 4.679 2.814 2.03 1.547 5.491 3.414 7.691 4.148 2.2.733 5.082 2.28 6.404 3.436 3.907 3.416 11.074 11.045 11.085 11.8.006.385 1.128 1.904 2.492 3.376 1.365 1.473 2.239 3.07 1.943 3.55-.297.479.122 2.11.929 3.624.808 1.514 2.029 4.327 2.714 6.252.684 1.925 2.875 5.525 4.868 8 5.171 6.421 7.239 9.909 6.543 11.035-.333.539.054 1.232.86 1.541.806.309 1.781 1.544 2.166 2.743.386 1.2.948 2.856 1.25 3.681.974 2.668 1.058 35.329.105 41-.509 3.025-1.162 7.275-1.453 9.445-.291 2.169-.755 4.311-1.032 4.759-.277.447-.696 2.873-.932 5.39-.236 2.517-.757 5.1-1.157 5.741-.401.641-.822 1.782-.936 2.536-.114.754-.655 3.454-1.203 6-2.422 11.269-5.018 29.083-4.873 33.44.033.995 1.335 2.469 2.894 3.275 2.661 1.376 2.833 1.342 2.833-.56 0-1.114.477-2.026 1.059-2.026s.781.45.441 1 .11 1 1 1 1.34-.45 1-1c-.34-.55.098-1 .973-1s1.998-1.012 2.496-2.25l.904-2.25.064 2.25c.086 3.061 2.818 2.883 4.258-.278.786-1.726 1.39-2.143 1.902-1.315.575.931 1.157.879 2.489-.221 1.332-1.099 1.837-1.145 2.157-.194.312.927.928.969 2.428.166 1.702-.911 2.417-.581 4.669 2.155 2.683 3.258 8.05 6.207 11.566 6.356 1.216.052 2.303 1.243 3 3.287 1.442 4.226 3.042 5.699 6.36 5.854 8.443.394 7.959.119 8.682 4.94.371 2.475 1.067 4.5 1.546 4.5.479 0 1.164.924 1.523 2.053.542 1.708.906 1.841 2.171.791.836-.694 1.912-2.293 2.391-3.553 1.127-2.963 2.546-2.921 3.304.098.759 3.024 3.159 3.626 14.864 3.729 14.23.126 16.753.312 16.753 1.24 0 .473 1.125.576 2.5.231 1.75-.439 2.5-.219 2.5.734 0 .749 1.688 2.22 3.75 3.27 2.063 1.049 5.142 2.92 6.844 4.157 1.702 1.238 4.049 2.25 5.215 2.25 1.166 0 2.609.913 3.206 2.028s1.447 1.805 1.889 1.531c1.314-.812 3.155 4.358 2.492 6.998-.395 1.576-.186 2.443.589 2.443.661 0 1.429-.869 1.707-1.931.726-2.774 2.743-3.203 6.9-1.466 2.003.837 4.25 1.288 4.993 1.003.743-.285 1.633-.063 1.977.495.345.557 2.272.908 4.282.781 2.011-.128 4.929-.153 6.485-.057 2.572.159 2.772.437 2.199 3.048-.474 2.159-.214 3.034 1.047 3.517 1.868.717 4.425-.953 4.425-2.89 0-.69.641-1.787 1.425-2.438 1.149-.953 1.858-.598 3.652 1.828 2.05 2.773 2.39 2.896 4.297 1.561 1.139-.798 3.231-1.451 4.649-1.451 1.417 0 3.183-.562 3.924-1.25 1.077-1 1.205-1 .641 0-.408.722-.153 1.253.603 1.256.72.004 2.647.704 4.281 1.556 2.747 1.432 3.08 1.413 4.385-.256 1.076-1.377 1.283-1.428.87-.215-.298.875-.246 2.052.116 2.615 1.271 1.983 9.458 5.47 11.794 5.023 1.3-.248 2.363-.1 2.363.33 0 .43 2.975 1.1 6.612 1.49 5.119.548 6.812.397 7.5-.671.752-1.167 1.027-1.161 1.797.033 1.442 2.24 9.704.179 9.269-2.313-.291-1.666.199-1.786 5-1.23 6.381.74 7.98-.231 10.636-6.452 1.991-4.666 3.663-11.57 3.309-13.666-.116-.687.224-1.25.756-1.25.919 0 3.604-6.385 3.574-8.5-.008-.55 1.048-3.475 2.346-6.5 4.32-10.067 7.051-17.816 6.48-18.387-.31-.311.063-1.306.828-2.213.766-.906 3.055-6.429 5.086-12.274 3.072-8.837 3.629-9.869 3.31-6.126l-.384 4.5 1.775-4c4.921-11.088 6.488-31.307 4.649-60-1.651-25.758-2.831-39-3.474-39-.103 0-.339-1.575-.526-3.5-.461-4.768-2.192-14.5-2.579-14.5-.105 0-.302-1.35-.439-3-.666-8.018-1.757-15.08-2.471-15.99-.815-1.038-2.229-7.262-2.559-11.261-.103-1.238-.96-3.105-1.906-4.15-1.078-1.192-1.336-2.137-.691-2.536.653-.403.33-1.784-.883-3.779-1.051-1.728-1.689-3.503-1.417-3.943.272-.44-.013-1.748-.634-2.908-.62-1.16-1.343-3.292-1.605-4.74-.263-1.447-.965-3.218-1.561-3.936s-.834-1.554-.53-1.859c.305-.304-.527-2.995-1.847-5.98-1.32-2.985-2.4-5.652-2.399-5.927.001-.595-2.398-5.675-4.87-10.314-1.883-3.532-4.04-5.364-5.357-4.55-.44.272-.348 1.34.205 2.373.614 1.147.642 2.103.073 2.455-.513.317-1.504-1.006-2.204-2.939-.699-1.934-1.63-3.516-2.07-3.516-.439 0-.799-.675-.799-1.5 0-.839-.892-1.5-2.025-1.5-1.245 0-2.394-.973-2.985-2.526-.528-1.389-1.607-2.774-2.398-3.077-1.48-.568-4.752-6.623-5.057-9.357-.094-.847-.703-2.807-1.353-4.355-1.43-3.405-1.493-4.685-.233-4.685.897 0 .169-2.15-3.895-11.5-.956-2.2-2.333-5.575-3.061-7.5-.727-1.925-1.855-4.175-2.506-5-1.103-1.398-2.703-4.754-2.901-6.081-.285-1.918-5.079-10.919-5.816-10.919-.488 0-.647-.39-.353-.866.295-.477-.354-1.672-1.441-2.655-1.087-.984-1.976-2.207-1.976-2.718 0-1.283-12.065-15.761-13.135-15.761-.476 0-.752-.387-.615-.86.138-.473-2.225-3.403-5.25-6.51-8.407-8.636-9.282-9.678-13.972-16.645-2.402-3.567-8.003-10.091-12.448-14.498-4.444-4.407-10.355-10.482-13.136-13.5-2.78-3.018-7.452-7.512-10.381-9.987-2.93-2.475-6.573-5.738-8.096-7.25-1.523-1.513-3.219-2.75-3.769-2.75-.55 0-3.694-2.025-6.986-4.5-3.293-2.475-6.6-4.503-7.349-4.507-2.133-.01-6.603-3.367-6.166-4.629.217-.625-.864-1.631-2.402-2.236-1.537-.604-3.47-1.529-4.295-2.054-.825-.525-2.737-1.215-4.25-1.533-1.513-.319-2.75-1.17-2.75-1.891 0-1.314-10.726-6.65-13.367-6.65-.771 0-2.092-1.052-2.934-2.337-.981-1.496-3.988-3.154-8.365-4.611-3.759-1.251-7.261-2.674-7.784-3.163-.522-.489-1.985-.889-3.25-.889s-2.3-.45-2.3-1-.66-1-1.466-1c-.806 0-2.944-.63-4.75-1.399-1.806-.77-5.309-2.22-7.784-3.222-2.475-1.003-4.729-2.137-5.009-2.52-.923-1.264-24.269-8.805-25.295-8.171-.594.367-.691.114-.238-.62.565-.914-.139-1.163-2.671-.944-2.365.203-4.315-.394-6.247-1.914-1.545-1.216-3.397-2.21-4.115-2.21-.718 0-3.861-1.326-6.985-2.947s-7.089-3.247-8.81-3.613c-1.722-.367-5.414-1.736-8.206-3.044-2.791-1.307-6.616-2.669-8.5-3.027-1.883-.358-4.009-1.111-4.724-1.673-2.144-1.688-7.57-1.566-8.915.2-.81 1.063-1.232 1.18-1.253.345-.076-3.003-5.529-6.963-10.532-7.649-2.75-.377-7.025-1.328-9.5-2.112-14.936-4.735-22.641-5.916-50.5-7.74-10.45-.684-19.45-1.523-20-1.864-1.78-1.103-30.642-1.653-43.5-.829m-82.25 55.669c-1.527.232-2.75 1.054-2.75 1.85 0 1.884 4.611 1.889 5.334.006.301-.785 1.812-1.618 3.357-1.85l2.809-.422h-3c-1.65 0-4.237.187-5.75.416M208.674 680.25c.343 1.788 1.457 5.896 2.475 9.13 1.018 3.234 1.851 7.16 1.851 8.724 0 2.889 5.383 17.609 7.075 19.346.509.523.925 1.68.925 2.572 0 .892 1.337 3.389 2.972 5.55 1.635 2.16 2.985 4.491 3 5.178.015.688.366 1.249.778 1.247.412-.002.772-1.815.8-4.03.035-2.883-.316-3.887-1.235-3.534-1.95.748-3.462-3.007-2.897-7.197.278-2.055.264-2.948-.03-1.986-.652 2.136-3.388 2.337-3.388.25 0-.825.45-1.5 1-1.5s1-.408 1-.906c0-.499-.787-.702-1.75-.452-1.314.341-2.046-.492-2.936-3.344-.688-2.203-.799-3.936-.265-4.126.506-.181.045-1.981-1.025-4-1.07-2.02-3.336-8.284-5.035-13.922-3.067-10.18-4.511-13.227-3.315-7m-26.069 29.032c.301 3.18 1.185 7.005 1.965 8.5s1.42 3.281 1.424 3.968c.003.688.445 1.25.981 1.25 1.198 0 .294-5.225-1.73-10-.816-1.925-1.867-4.85-2.335-6.5-.602-2.12-.692-1.305-.305 2.782m24.666-.297c.59 4.395 3.729 9.268 3.729 5.788 0-.91-.45-1.933-1-2.273-.55-.34-1-1.915-1-3.5s-.518-3.202-1.152-3.594c-.832-.514-.993.479-.577 3.579M190 730.083c0 1.391 1.185 4.078 2.634 5.973 1.449 1.894 2.298 2.544 1.886 1.444-.411-1.1-.991-2.9-1.289-4-.298-1.1-1.147-2.888-1.886-3.973-1.292-1.894-1.345-1.873-1.345.556M437.215 942.5c2.023 1.375 4.346 2.5 5.161 2.5.814 0 2.097.563 2.851 1.25 1.797 1.64 9.773 5.959 9.773 5.292 0-1.306-17.601-11.439-19.982-11.502-.815-.022.173 1.085 2.197 2.46m-257.147 240.404c-1.137 1.598-2.068 3.26-2.068 3.695 0 .434 1.125-.735 2.5-2.599 1.375-1.864 2.5-3.526 2.5-3.694 0-.945-1.107.036-2.932 2.598m-7.068 9.095c-1.742 2.2-2.94 4.563-2.662 5.25.318.791.533.646.583-.392.043-.904.642-1.866 1.329-2.139 1.234-.489 5.305-6.718 4.391-6.718-.26 0-1.898 1.8-3.641 3.999m-10.387 16.274c-3.234 5.529-7.778 14.896-7.407 15.266.195.195 1.448-1.759 2.785-4.342 1.337-2.583 3.488-6.418 4.779-8.52 1.291-2.103 2.209-4.231 2.039-4.728-.17-.497-1.158.549-2.196 2.324m-10.35 20.477c-.899 2.063-1.532 4.144-1.407 4.625.125.481-.391 1.606-1.146 2.5-1.151 1.361-4.053 9.814-7.251 21.125-1.143 4.04.464 1.67 2.457-3.623 1.009-2.682 3.217-8.266 4.905-12.408 4.485-11.001 6.663-21.902 2.442-12.219m4.499 18.076c-.898 1.52-1.291 3.318-.873 3.994.487.789 1.17-.106 1.903-2.494 1.418-4.619 1.092-5.093-1.03-1.5m3.809 6.745c-.367 1.466-.443 2.89-.168 3.165.275.275.801-.699 1.168-2.165.368-1.465.444-2.889.169-3.164-.275-.275-.801.699-1.169 2.164m-6.492 3.679c-.043.963-.754 1.75-1.579 1.75s-1.537.338-1.583.75l-.33 2.954c-.135 1.212.127 1.973.584 1.691.456-.282.829-1.014.829-1.625 0-.612.721-1.909 1.603-2.883.881-.974 1.367-2.36 1.079-3.079-.341-.851-.552-.696-.603.442m-18.096 13.5c-.01.412-.678 3.869-1.486 7.681-1.497 7.065-1.303 9.819.38 5.393 1.202-3.163 2.543-13.824 1.738-13.824-.338 0-.623.338-.632.75m9.017 2.297c0 1.009.451 2.114 1.003 2.455.652.403.577 1.385-.213 2.809-.668 1.204-1.09 2.614-.938 3.134.153.519-.251 1.933-.898 3.141-.82 1.531-.867 2.747-.157 4.015.835 1.493 1.143.932 1.721-3.141.387-2.728 1.554-6.93 2.593-9.337 1.039-2.408 1.889-4.433 1.888-4.5 0-.068-1.125-.188-2.5-.267-1.81-.105-2.499.362-2.499 1.691m-14.513 21.37c-.363 1.146-.854 4.108-1.092 6.583-.237 2.475-.578 5.625-.757 7-.179 1.375-.395 4.412-.481 6.75-.159 4.31-2.144 6.138-2.172 2-.013-1.819-.201-1.963-.985-.75-1.615 2.498-1.23 8 .559 8 .857 0 1.276.457.931 1.016-.346.559-.991.792-1.434.518-.443-.273-1.11 1.399-1.48 3.718-.422 2.64-.282 4.346.375 4.565.577.192 1.049 1.239 1.049 2.325 0 1.087-.45 1.698-1 1.358-.62-.383-1.064 1.777-1.167 5.691-.093 3.47-.264 8.777-.382 11.793-.117 3.017.155 6.392.605 7.5.449 1.109.846 1.427.881.707.084-1.748 2.063-.466 2.063 1.337 0 .881-.6 1.179-1.599.796-1.434-.551-1.544.824-1.064 13.281.633 16.458 1.545 28.611 2.195 29.261.258.257.468-1.183.468-3.199 0-3 .364-3.667 2-3.667 2.646 0 2.627.537 1.021-30-.917-17.424.1-43.602 2.525-65 .343-3.025.711-6.85.818-8.5.107-1.65.499-3.487.871-4.083.372-.596.055-1.084-.706-1.084s-1.68.938-2.042 2.084m69.513.083c0 1.375.338 2.5.75 2.5s.75-1.125.75-2.5-.338-2.5-.75-2.5-.75 1.125-.75 2.5m-72.97 1.05c.027 2.586.163 2.722 1.104 1.104.769-1.324.761-2.159-.03-2.95-.805-.805-1.096-.305-1.074 1.846m13.1 9.613c-.91 1.458-.98 2.387-.236 3.131.637.637.701 1.489.159 2.142-.494.596-.561 2.654-.148 4.574l.751 3.49.636-3c.86-4.059 1.242-11.299.629-11.912-.273-.273-1.079.436-1.791 1.575m-4.412 36.808c-.28 1.069.097 2.128.86 2.421 2.018.774 2.767-1.19 1.093-2.864-1.275-1.275-1.518-1.22-1.953.443m1.368 6.529c.03 1.65.441 3.9.914 5 .702 1.634.869 1.36.914-1.5.031-1.925-.381-4.175-.914-5-.74-1.146-.956-.791-.914 1.5m-.614 32.231c.414 14.229 1.827 29.901 2.782 30.856.253.253 1.137.2 1.965-.118 1.202-.461 1.427-2.033 1.114-7.773-.689-12.658-1.664-22.249-2.078-20.446-.955 4.162-3.212.332-3.241-5.5-.019-3.73 1.449-3.469 2.814.5.984 2.862 1.049 2.533.549-2.75-.382-4.028-1.187-6.581-2.451-7.769-1.84-1.729-1.873-1.431-1.454 13M138 1388c0 1.1.45 2 1 2s1-.9 1-2-.45-2-1-2-1 .9-1 2m5 25c0 .55-.717 1-1.593 1-1.316 0-1.508.911-1.107 5.25.677 7.335 2.836 15.042 4.586 16.368 1.051.798 1.528 3.411 1.661 9.101.103 4.39.703 8.837 1.333 9.882.997 1.649 1.066 1.537.525-.851-.704-3.114.91-3.756 2.515-1 1.974 3.39 1.189-.77-4.765-25.25-.401-1.65-1.238-3-1.859-3-1.995 0-2.617-1.408-1.316-2.976 1.049-1.263.975-1.524-.431-1.524-1.094 0-1.56-.621-1.313-1.75.211-.963.919-1.638 1.573-1.5.67.141 1.191-.843 1.191-2.25 0-1.375-.225-2.5-.5-2.5s-.5.45-.5 1m-13.275 14c.268 4.125 1.054 10.2 1.746 13.5 3.837 18.296 4.772 22.459 6.085 27.088.794 2.798 1.449 6.173 1.455 7.5.006 1.327 2.031 6.459 4.5 11.405s4.489 9.736 4.489 10.645c0 1.983 4.014 11.871 11.325 27.894 1.388 3.043 4.583 8.873 7.099 12.954 2.517 4.082 4.579 7.893 4.583 8.468.004.575 3.885 5.096 8.624 10.046 4.739 4.95 7.998 8.1 7.243 7-.756-1.1-1.609-2.225-1.897-2.5-1.437-1.373-4.072-6.238-3.623-6.687.282-.283 2.644 1.669 5.249 4.337 5.122 5.247 4.354 3.97-2.799-4.65-4.669-5.626-17.881-25.921-19.187-29.472-.577-1.57-.899-1.69-1.58-.588-1.152 1.863-3.319-.286-5.463-5.416-1.955-4.68-1.966-5.524-.074-5.524.825 0 1.5.75 1.5 1.667 0 .916.286 1.381.635 1.032.569-.57-.223-3.304-2.666-9.199-.455-1.1-2.271-5.724-4.035-10.276-1.764-4.551-3.596-8.515-4.071-8.809-.475-.293-.863-1.602-.863-2.909 0-1.307-.525-3.643-1.166-5.191-.642-1.548-1.228-3.04-1.304-3.315-2.439-8.895-6.344-19.248-8.199-21.737-2.609-3.5-6.204-17.671-6.409-25.263-.067-2.475-.473-5.625-.903-7-.447-1.432-.573.703-.294 5m19.314.136c1.08 3.767 2.526 5.428 1.622 1.864-.348-1.375-.64-3.062-.647-3.75-.008-.687-.433-1.25-.944-1.25-.567 0-.579 1.224-.031 3.136m.693 35.119c-.332.867-.256 2.851.169 4.41.715 2.621.825 2.676 1.458.73.857-2.64-.699-7.558-1.627-5.14m4.268 6.461c0 .344 1.451 3.703 3.225 7.463 3.099 6.572 4.912 8.027 5.598 4.492.224-1.155-.155-1.481-1.236-1.066-1.068.41-1.881-.248-2.58-2.087-.562-1.477-.784-3.069-.495-3.537.289-.469-.607-1.985-1.993-3.371-1.385-1.385-2.519-2.238-2.519-1.894m1 14.978c0 1.12.816 3.109 1.814 4.421 1.772 2.33 3.563 6.008 6.185 12.702.927 2.367 1.534 2.94 2.118 2 .457-.735.391-1.464-.149-1.65-.532-.184-.968-1.421-.968-2.75s-.401-2.417-.892-2.417c-.49 0-1.2-1.237-1.577-2.75-1.017-4.077-6.531-12.146-6.531-9.556m-4.985 15.056c.028 1.369 1.867 3.702 2.454 3.114.788-.788-.467-3.864-1.576-3.864-.491 0-.886.338-.878.75m48.585 75.269c1.155 1.365 3.528 4.602 5.273 7.194 3.859 5.733 9.916 12.407 8.201 9.037-.629-1.237-1.579-2.25-2.109-2.25-.531 0-.884-.338-.785-.75.44-1.83-3.871-8.088-8.08-11.731-2.53-2.189-3.655-2.864-2.5-1.5" fill-rule="evenodd"/></svg>