<svg xmlns="http://www.w3.org/2000/svg" width="1240" height="1753"><path d="M963 198.97c0 .872-.9 2.356-2 3.298-1.1.942-2 1.512-2 1.267 0-.246-1.709.157-3.797.893-3.255 1.149-4.209 1.125-6.674-.167-2.637-1.381-2.987-1.356-4.203.307-.729.998-1.326 1.413-1.326.923s-.517-.374-1.149.258c-.865.865-1.791.852-3.75-.05-1.43-.66-5.188-1.199-8.35-1.199s-5.75-.364-5.75-.809c-.001-.445-.453-.53-1.005-.189-.552.341-.728 1.718-.391 3.059.353 1.408.174 2.439-.422 2.439-.569 0-3.308 2.25-6.087 5s-5.482 5-6.007 5c-.525 0-1.27 1.012-1.656 2.25-.387 1.238-1.003 2.475-1.371 2.75-.367.275-2.669 3.425-5.115 7s-4.784 6.65-5.197 6.833c-.413.184-.75.968-.75 1.743 0 .775-.987 2.544-2.194 3.932-1.206 1.387-2.305 3.284-2.442 4.215-.363 2.475-2.336 6.054-6.856 12.435a1240.747 1240.747 0 0 0-5.508 7.824c-.825 1.191-2.683 3.503-4.129 5.137C871.053 277.432 861 292.436 861 293.82c0 .649-.375 1.18-.834 1.18-1.005 0-8.166 10.223-8.166 11.659 0 .557-2.312 3.894-5.137 7.414-2.826 3.521-6.152 7.982-7.392 9.914-1.24 1.932-3.86 5.294-5.822 7.47-1.963 2.176-3.399 4.126-3.192 4.333.395.395-.341 1.312-5.999 7.478-1.902 2.073-3.458 4.285-3.458 4.917 0 .632-.302.846-.672.477-.369-.37-2.105 1.344-3.857 3.809-1.753 2.464-3.475 4.191-3.829 3.838-.353-.353-.642-.133-.642.49s-1.25 2.411-2.777 3.973c-1.528 1.563-5.458 6.866-8.734 11.785-3.277 4.918-6.195 9.168-6.487 9.443-.291.275-2.323 3.197-4.516 6.493-2.192 3.296-4.548 6.591-5.236 7.322-.687.73-1.25 1.714-1.25 2.185 0 .471-.579 1.452-1.287 2.179-.709.726-2.32 3.009-3.582 5.071-1.262 2.063-2.686 3.75-3.166 3.75-.479 0-1.619 1.575-2.532 3.5s-2.086 3.5-2.606 3.5-.71.381-.422.847c.288.465-.731 2.153-2.264 3.75-1.534 1.597-4.972 6.052-7.641 9.901-2.669 3.849-5.336 7.545-5.926 8.215-2.303 2.612-3.409 4.075-7.051 9.335-2.077 2.999-4.885 6.44-6.242 7.648-1.404 1.25-2.156 2.698-1.745 3.362.396.641.147 1.52-.554 1.953-.76.47-.99 1.526-.571 2.619.61 1.587 1.228 1.246 4.646-2.569 2.169-2.42 3.943-4.947 3.943-5.614 0-.668 1.125-1.429 2.5-1.692 3.231-.617 3.15.152-.5 4.745-1.65 2.076-3 4.133-3 4.57 0 .437-.836 1.06-1.857 1.385-1.834.582-5.51 8.141-4.643 9.546.247.398-1.002 2.112-2.776 3.807-1.773 1.695-3.774 3.67-4.446 4.387a71.407 71.407 0 0 1-2.27 2.305c-3.064 2.927-8.024 8.763-8.133 9.571l-.25 1.845c-.069.504-1.067 1.741-2.218 2.75-2.285 2.002-4.958 6.39-4.619 7.584.116.413-.249.75-.813.75-1.213 0-3.056 4.315-3.592 8.411-.21 1.601-1.607 4.976-3.106 7.5-1.499 2.524-2.736 4.943-2.751 5.375-.014.433-.669 1.185-1.456 1.671-.786.485-1.526 1.545-1.645 2.354-.119.81-2.063 4.252-4.321 7.651-2.257 3.399-4.104 6.393-4.104 6.654 0 .261-1.125 1.6-2.5 2.975s-2.5 2.822-2.5 3.215c0 .393-1.237 2.049-2.75 3.68-1.513 1.631-2.75 3.378-2.75 3.881 0 .503-.882 1.414-1.96 2.024-1.078.61-2.715 2.009-3.637 3.109-3.559 4.243-8.073 8.942-7.444 7.75.955-1.811-.28-1.536-3.114.694-2.407 1.892-8.29 9.85-8.327 11.261-.01.387-1.176 1.862-2.592 3.278-1.415 1.416-2.392 3.12-2.17 3.786.223.667-.081 1.718-.676 2.335-.594.618-2.655 3.072-4.58 5.455-1.925 2.382-4.409 5.256-5.519 6.386-1.11 1.13-3.342 3.855-4.959 6.055-1.617 2.2-3.592 4.495-4.387 5.101-.796.605-1.544 2.18-1.662 3.5-.118 1.319-.643 2.313-1.166 2.208-.523-.105-1.594.725-2.379 1.844a68.536 68.536 0 0 1-3.178 4.093c-.962 1.133-1.75 2.505-1.75 3.049s-1.35 2.279-3 3.855c-1.65 1.577-3 3.306-3 3.841 0 1.029-3.97 5.785-7.75 9.286-1.237 1.146-2.25 2.565-2.251 3.153 0 .589-1.575 2.839-3.5 5.002-1.924 2.162-3.499 4.284-3.499 4.715 0 .431-1.312 2.127-2.916 3.767-1.604 1.641-3.21 3.907-3.568 5.035-.358 1.128-.989 2.051-1.403 2.051-.414 0-3.405 3.938-6.646 8.75-3.242 4.813-6.45 9.097-7.13 9.521-.679.424-2.455 3.012-3.945 5.75-1.49 2.739-3.088 4.979-3.551 4.979-.463 0-.841.508-.841 1.129s-2.19 4.343-4.867 8.271c-2.677 3.928-6.077 9.382-7.557 12.121-5.679 10.513-8.849 15.998-9.524 16.479-.386.275-3.103 5-6.037 10.5-2.935 5.5-6.194 11.237-7.243 12.75-1.05 1.513-1.583 2.75-1.185 2.75.398 0 .023.787-.832 1.75-.856.962-2.269 3.477-3.141 5.588-.872 2.111-2.891 5.486-4.486 7.5-2.824 3.566-3.128 4.158-3.128 6.091 0 .51-.563 1.523-1.252 2.25-2.704 2.855-9.558 14.073-13.231 21.658-.889 1.835-4.909 8.153-8.933 14.039-4.023 5.887-7.633 11.705-8.022 12.928-.388 1.224-1.091 1.987-1.562 1.696-.471-.291-1.152.49-1.515 1.735-.542 1.866-5.671 10.23-8.747 14.265-.42.55-2.533 3.669-4.697 6.931-2.164 3.261-4.634 6.321-5.488 6.799-.854.478-1.553 1.329-1.553 1.891s-.562 1.649-1.25 2.416c-3.678 4.101-9.35 12.579-11.015 16.463-.825 1.925-2.453 4.494-3.617 5.708-1.165 1.215-2.118 2.677-2.118 3.25s-.45 1.042-1 1.042-1 .52-1 1.156c0 .635-1.15 2.663-2.555 4.505-1.406 1.843-2.353 3.686-2.105 4.095.247.409-.178 1.324-.945 2.033-.767.71-1.395.962-1.395.562 0-1.341-3.746 3.275-4.445 5.476-.379 1.195-1.074 2.173-1.543 2.173-.469 0-1.142 1.314-1.495 2.921-.353 1.607-1.626 4.017-2.829 5.357-2.178 2.426-2.967 3.51-6.709 9.222-1.081 1.65-1.969 2.576-1.972 2.059-.012-1.715-2.943 2.906-2.975 4.691-.018.962-.438 1.75-.934 1.75-.496 0-1.373 1.35-1.948 3s-1.519 3-2.098 3-1.052.614-1.052 1.364c0 .751-1.346 2.888-2.99 4.75-1.645 1.863-3.243 4.15-3.552 5.085-.308.934-1.437 1.977-2.509 2.317-1.072.34-1.949.988-1.949 1.439 0 1.175-6.792 11.085-9.626 14.045-1.316 1.375-4.009 4.975-5.984 8-1.975 3.025-4.496 6.288-5.601 7.25-1.106.962-1.669 1.75-1.251 1.75.417 0-.658 1.354-2.39 3.009-1.731 1.654-3.148 3.454-3.148 3.998s-1.804 2.902-4.009 5.241c-2.206 2.339-4.261 5.04-4.568 6.002-.307.962-.923 1.75-1.369 1.75-.446 0-1.364 1.335-2.04 2.967-.676 1.631-2.058 3.229-3.07 3.551-1.013.321-2.118 1.455-2.456 2.519-.338 1.064-1.849 3.179-3.358 4.699-1.51 1.52-4.645 5.571-6.967 9.002-2.322 3.432-5.03 7.032-6.018 8-.987.969-3.337 3.992-5.22 6.717-1.884 2.725-4.663 6.279-6.175 7.898-1.512 1.619-2.75 3.497-2.75 4.173 0 .676-.646 1.765-1.435 2.42-.789.654-2.413 3.072-3.609 5.372-1.196 2.3-2.463 4.407-2.815 4.682-.353.275-2.441 3.2-4.641 6.5-4.431 6.647-4.507 6.75-8.018 11-1.364 1.65-2.48 3.376-2.481 3.837-.001.881-5.618 9.193-7.751 11.471-.687.734-1.25 1.653-1.25 2.041 0 .388-2.245 3.844-4.99 7.678-5.724 7.999-5.513 7.687-11.476 16.973-2.472 3.85-5.516 8.299-6.765 9.887-1.248 1.588-2.446 3.356-2.662 3.929-.588 1.56-7.192 10.084-8.408 10.854-.582.369-1.171 1.44-1.309 2.381-.138.941-1.583 3.114-3.21 4.83-1.628 1.715-3.243 4.019-3.591 5.119-.347 1.1-2.394 3.92-4.548 6.267-2.154 2.347-4.2 5.16-4.546 6.25-.347 1.091-1.019 1.983-1.495 1.983-.476 0-1.116.787-1.423 1.75-.307.963-2.362 3.663-4.568 6.002-2.205 2.339-4.009 4.904-4.009 5.7 0 .797-.562 1.808-1.25 2.248-.687.44-3.048 3.5-5.245 6.8s-4.56 6.595-5.25 7.321c-.69.727-1.255 1.708-1.255 2.179 0 .471-.563 1.455-1.25 2.185-.688.731-2.992 3.913-5.122 7.072-2.129 3.159-4.267 5.743-4.75 5.743-.483 0-.878.675-.878 1.5s-.364 1.5-.81 1.5c-.445 0-2.692 2.813-4.992 6.25-2.3 3.438-5.53 7.825-7.179 9.75-3.868 4.516-3.82 4.451-8.519 11.5-2.2 3.3-4.338 6.15-4.75 6.333-.412.184-.75.886-.75 1.562 0 .675-.802 2.1-1.782 3.166-.98 1.067-2.817 3.627-4.081 5.689-1.265 2.062-2.713 3.75-3.219 3.75-.505 0-.918.702-.918 1.559s-.45 1.281-1 .941c-.55-.34-1-.174-1 .37 0 .543-.617 1.604-1.37 2.357-.754.754-2.116 2.811-3.026 4.572-.91 1.761-2.094 3.201-2.63 3.201s-.974.675-.974 1.5-.45 1.5-1 1.5-1 .548-1 1.218c0 .67-1.016 2.133-2.258 3.25-1.242 1.118-3.604 4.057-5.25 6.532-1.646 2.475-3.494 4.95-4.108 5.5-.614.55-3.036 3.7-5.384 7-2.348 3.3-4.807 6.45-5.465 7-.659.55-3.385 4.15-6.058 8-2.673 3.85-6.349 9.133-8.169 11.74-1.819 2.607-3.308 4.949-3.308 5.204 0 .256-2.25 3.475-5 7.153-2.75 3.679-5 7.252-5 7.939 0 .688-.675 1.509-1.5 1.826-.825.316-1.5 1.264-1.5 2.107 0 .842-.395 1.531-.879 1.531-.483 0-1.438 1.35-2.121 3s-1.638 3-2.121 3c-.484 0-.879.653-.879 1.45 0 .798-.569 1.81-1.264 2.25-.695.44-3.058 3.497-5.25 6.793-2.192 3.296-4.548 6.591-5.236 7.322-.687.73-1.25 1.714-1.25 2.185 0 .471-.563 1.452-1.251 2.179-.688.726-2.574 3.796-4.19 6.821-3.245 6.071-5.001 8.225-5.94 7.286-.706-.706-.771-.393-1.163 5.55-.298 4.539-2.188 10.164-3.415 10.164-.394 0-.773 1.491-.842 3.313-.068 1.823-.813 4.635-1.655 6.25-.843 1.616-1.57 3.612-1.617 4.437-.058 1.027-.244 1.106-.589.25-.858-2.125-2.338-1.379-2.338 1.179 0 1.335.678 3.107 1.508 3.936.934.934 1.124 1.744.5 2.13-.555.343-1.008 2.764-1.008 5.381 0 3.273-.899 6.517-2.882 10.393-1.585 3.099-2.699 5.817-2.476 6.04.224.223-.28.975-1.118 1.671-.838.696-1.524 2.024-1.524 2.953 0 .928-1.115 4.533-2.477 8.009-1.363 3.477-2.236 6.713-1.941 7.19.295.477.132.868-.361.868s-.957 1.608-1.031 3.573c-.1 2.665.522 4.182 2.445 5.965 1.419 1.315 2.869 2.321 3.222 2.236 1.443-.348 7.143 1.447 7.143 2.248 0 .475.947.681 2.103.458 1.452-.279 2.262.2 2.614 1.546.281 1.073.96 1.674 1.508 1.335.549-.34 1.353-.043 1.787.658.593.96 1.093.786 2.025-.707 1.165-1.866 1.659-1.567 8.448 5.103 7.39 7.262 11.631 11.021 12.515 11.091.275.022 1.759 1.226 3.297 2.676 2.617 2.465 8.538 5.791 11.08 6.223.618.105 2.248.829 3.623 1.608 1.375.779 2.8 1.432 3.167 1.452.366.019.973.341 1.347.716.375.375 1.267.457 1.983.182.715-.275 1.586-.038 1.934.525.348.564 1.294.771 2.101.461.807-.309 2.255-.216 3.218.208 2.141.942 2.882 1.157 4.543 1.318.711.069 1.724 1.588 2.25 3.375s1.52 3.25 2.207 3.25c.688 0 1.174.225 1.081.5-.093.275.411 1.584 1.121 2.91 1.14 2.131 1.398 2.217 2.223.742.513-.917.63-2.159.258-2.76-.467-.756-.023-.743 1.446.043 1.167.625 2.121 1.618 2.121 2.209 0 .654 1.007.82 2.579.425 2.125-.533 3.266.061 6.475 3.367 2.142 2.208 4.181 5.15 4.529 6.539.398 1.587 1.337 2.525 2.525 2.525 1.041 0 1.892.465 1.892 1.033 0 1.37 6.634 7.967 8.012 7.967.593 0 2.245 1.166 3.67 2.591 1.425 1.425 3.767 2.794 5.204 3.043 1.438.248 3.176 1.192 3.862 2.097.686.905 2.261 1.821 3.5 2.036 1.239.214 2.769.487 3.401.605.632.119 1.864.809 2.737 1.533.923.767 2.613 1.061 4.036.704 2.47-.62 4.735 1.126 9.335 7.193.96 1.266 2.511 2.414 3.446 2.552.936.137 2.51.929 3.499 1.76 2.547 2.141 7.298 5.027 7.298 4.434 0-.274 1.148-.062 2.551.471 1.403.534 4.216 1.191 6.25 1.46 5.883.778 7.422 1.239 12.199 3.653 2.475 1.25 4.725 2.302 5 2.337 1.214.156 4.852 3.961 4.434 4.637-.616.997 3.271 2.194 4.553 1.402.552-.341 1.56.642 2.238 2.186 1.458 3.315 2.786 4.42 4.227 3.518 2.032-1.272 3.679-1.035 4.287.617.338.919 1.098 2.002 1.688 2.406.721.494.663.739-.177.75-1.694.02-1.592 2.67.128 3.33.758.291 1.915.001 2.571-.643.921-.905 1.028-.508.472 1.742-.606 2.453-.459 2.815.929 2.282 1.072-.411 1.65-.118 1.65.835 0 .808.429 1.469.953 1.469s1.684 1.54 2.577 3.423c1.574 3.315 4.47 5.575 4.47 3.487 0-.566.45-.75 1-.41s1-.127 1-1.037c0-1.645 3.556-7.379 5.337-8.606.513-.353 2.39-.033 4.171.711 1.781.744 3.52 1.071 3.865.726.345-.345.627-.119.627.503 0 1.479 6.976 6.203 9.161 6.203.933 0 2.403-.707 3.268-1.571.864-.865 1.571-1.253 1.571-.864 0 .389 1.186-.479 2.636-1.929 1.45-1.45 2.913-2.64 3.25-2.644.338-.004 2.189-2.464 4.114-5.465 1.925-3.002 4.32-5.739 5.322-6.083 1.044-.358 1.592-1.227 1.282-2.034-.298-.776-.16-1.41.306-1.41.466 0 1.413-1.364 2.103-3.032.691-1.668 1.485-2.804 1.764-2.524.279.279 2.01-1.619 3.846-4.218 3.494-4.946 3.717-5.273 7.987-11.726 5.959-9.005 8.981-13.068 10.64-14.307.963-.718 1.75-1.975 1.75-2.792 0-.818 1.697-3.83 3.771-6.694 2.075-2.864 4.873-6.861 6.218-8.882 1.345-2.021 2.868-3.413 3.383-3.095.515.318.647.11.294-.462-.354-.573.026-1.597.845-2.277.819-.68 1.489-1.657 1.489-2.171 0-.514 1.942-3.721 4.316-7.127 2.373-3.406 5.378-8.33 6.677-10.943 1.299-2.612 2.677-4.75 3.063-4.75.386 0 1.261-1.35 1.944-3s1.676-3 2.205-3c.529 0 .757-.563.506-1.25s.517-2.6 1.706-4.25 3-4.912 4.024-7.25c1.025-2.338 2.244-4.25 2.711-4.25.466 0 .848-.787.849-1.75 0-.963 1.561-3.55 3.468-5.75 4.599-5.305 4.182-4.737 11.013-15.007 3.29-4.946 6.777-9.721 7.75-10.61.972-.89 1.768-1.99 1.768-2.446 0-.455 1.06-1.977 2.356-3.382 1.296-1.405 4.513-5.705 7.15-9.555 2.637-3.85 5.401-7.36 6.144-7.8.742-.44 1.35-1.677 1.35-2.75 0-1.072.42-1.95.933-1.95.513 0 1.217-.897 1.565-1.994.348-1.097 1.166-2.562 1.818-3.257.651-.694 2.982-3.96 5.179-7.256 2.197-3.296 4.56-6.588 5.25-7.314.69-.727 1.255-1.708 1.255-2.179 0-.471.563-1.455 1.25-2.185.688-.731 3.048-4.026 5.245-7.322 2.197-3.296 4.53-6.558 5.184-7.249.655-.691 1.475-2.153 1.823-3.25.348-1.097.98-1.994 1.405-1.994.424 0 1.631-1.795 2.682-3.989 1.051-2.193 2.248-3.993 2.661-4 .413-.006.75-.911.75-2.011s.42-2 .933-2c.513 0 1.217-.897 1.565-1.994.348-1.097 1.166-2.571 1.818-3.277 2.179-2.361 5.888-7.914 6.063-9.078.094-.633 1.764-3.626 3.71-6.651s4.399-7.187 5.452-9.25c1.053-2.062 2.231-3.75 2.619-3.75.388 0 1.012-.968 1.388-2.151.375-1.183 3.218-4.689 6.317-7.792 3.099-3.103 6.501-7.198 7.56-9.099 1.058-1.902 2.183-3.683 2.5-3.958 1.892-1.644 5.075-7.219 5.075-8.888 0-1.083.577-2.564 1.283-3.291.706-.726 3.836-4.921 6.955-9.321 3.12-4.4 6.082-8.478 6.582-9.063.5-.585 1.481-2.131 2.18-3.437 1.421-2.656 1.845-3.239 5.448-7.5 4.212-4.982 5.992-7.222 7.274-9.157 6.487-9.786 9.008-13.264 11.44-15.783 1.561-1.617 2.838-3.272 2.838-3.678 0-.407.562-1.337 1.25-2.067.688-.731 3.047-4.026 5.243-7.322 2.196-3.296 5.233-7.265 6.75-8.82 1.516-1.555 2.757-3.388 2.757-4.074 0-.686 1.575-3.462 3.5-6.17 1.925-2.707 3.5-4.524 3.5-4.036 0 .487 1.164-.864 2.586-3.003 1.423-2.14 3.144-4.34 3.825-4.89.681-.55 3.679-4.6 6.664-9 2.984-4.4 5.988-8.595 6.675-9.321.688-.727 1.25-1.686 1.25-2.132 0-.445 1.275-2.101 2.833-3.678 1.558-1.578 4.371-5.119 6.25-7.869 1.879-2.75 4.181-5.571 5.114-6.27.933-.698 2.693-3.042 3.911-5.209s2.494-3.767 2.836-3.556c.341.211 1.731-1.269 3.087-3.29 1.357-2.021 3.029-4.27 3.718-4.996.688-.727 1.251-1.766 1.251-2.309 0-.544.48-.691 1.067-.329.587.363.939.052.784-.691-.325-1.546 4.972-9.85 6.282-9.85.477 0 .867-.597.867-1.326 0-.729 1.111-2.369 2.469-3.645 1.358-1.276 2.243-2.687 1.965-3.135-.277-.449 1.119-2.521 3.102-4.605 1.984-2.084 4.225-5.247 4.98-7.029.756-1.783 2.551-4.418 3.99-5.856 1.438-1.439 2.387-2.845 2.107-3.124-.279-.279 1.174-2.819 3.23-5.644s6.419-9.18 9.697-14.123c3.278-4.942 6.523-9.587 7.21-10.321.688-.734 1.25-1.978 1.25-2.763 0-.786.525-1.429 1.167-1.429.641 0 .868-.298.504-.662-.689-.69 3.033-6.12 6.998-10.209 1.265-1.304 2.055-2.766 1.756-3.25-.299-.483-.126-.879.383-.879 1.065 0 6.098-7.18 7.887-11.25.665-1.513 1.631-2.75 2.148-2.75.517 0 1.227-1.143 1.578-2.541.391-1.559 1.078-2.268 1.778-1.836.759.469.922.135.488-.997-.395-1.029-.101-1.914.746-2.239.769-.295 2.674-2.415 4.233-4.712 1.559-2.296 3.397-4.77 4.084-5.496.688-.727 1.25-1.684 1.25-2.127 0-.443 1.8-2.716 4-5.052 2.2-2.336 4-4.573 4-4.971 0-.397.788-1.65 1.75-2.783 1.927-2.268 2.317-2.832 8.48-12.246 2.341-3.575 4.49-6.725 4.777-7 .287-.275 3.215-4.55 6.507-9.5 3.293-4.95 6.519-9.565 7.17-10.256.652-.691 1.47-2.153 1.818-3.25.348-1.097 1.022-1.994 1.498-1.994s1.153-.907 1.505-2.015c.351-1.108 1.057-1.756 1.567-1.441.51.316.928-.146.928-1.025 0-1.731 3.01-6.337 7-10.713 4.22-4.629 5.027-5.714 4.852-6.525-.29-1.338 1.32-4.293 2.081-3.822.399.246 1.814-1.32 3.146-3.479 1.331-2.159 2.704-3.938 3.05-3.953.345-.015 1.194-1.391 1.884-3.059.691-1.668 1.498-2.79 1.793-2.495.296.296 1.999-1.518 3.785-4.031 1.787-2.512 4.118-5.327 5.181-6.255 1.062-.928 2.648-3.078 3.523-4.777.875-1.7 2.747-4.175 4.16-5.5 1.413-1.326 4.019-4.66 5.791-7.41 1.773-2.75 3.564-5.45 3.981-6 .417-.55 3.69-4.825 7.273-9.5 8.304-10.834 7.36-9.533 11.97-16.5 2.183-3.3 3.983-6.264 4-6.586.016-.322 1.718-3.185 3.78-6.363 2.063-3.178 3.75-6.177 3.75-6.664 0-.488.401-.887.892-.887.49 0 1.178-1.143 1.529-2.541.351-1.397 1.022-2.303 1.492-2.013.47.291 1.412-.816 2.092-2.459.681-1.643 1.536-2.987 1.901-2.987.364 0 1.945-2.7 3.512-6s3.195-6 3.618-6c.423 0 1.271-1.442 1.886-3.205.922-2.645 7.264-12.981 9.078-14.795 1.362-1.362 4.978-7.036 6.96-10.922 1.223-2.398 2.639-4.859 3.146-5.469 1.869-2.248 5.894-8.722 5.894-9.479 0-.43 1.134-1.846 2.519-3.148 1.386-1.302 2.364-2.833 2.174-3.403-.19-.57.033-1.495.495-2.057 2.068-2.514 5.812-8.704 5.812-9.607 0-1.053 3.94-7.002 5.303-8.007.441-.325.68-1 .53-1.5-.267-.892 4.524-8.702 6.85-11.164.652-.691 1.471-2.153 1.819-3.25.348-1.097.973-1.994 1.388-1.994.416 0 1.817-2.125 3.114-4.723 2.116-4.237 5.648-10.067 7.74-12.777 2.116-2.742 4.701-7.148 4.891-8.338.118-.735.967-2.17 1.887-3.187.921-1.017 1.41-2.276 1.087-2.799-.323-.522.083-1.505.902-2.185.819-.68 1.489-1.874 1.489-2.654 0-1.354 3.092-6.265 5.75-9.131.688-.742 1.25-1.94 1.25-2.663 0-1.144 7.43-13.179 8.979-14.543.312-.275 1.379-1.775 2.371-3.332.992-1.558 3.295-4.483 5.118-6.5 1.822-2.018 3.368-4.118 3.434-4.668.336-2.765 1.384-4.456 3.098-5 1.044-.331 2.143-1.376 2.443-2.321.3-.945 2.793-4.859 5.541-8.698 2.747-3.84 5.437-7.656 5.977-8.481 6.672-10.188 8.576-12.822 10.632-14.702 1.324-1.211 2.407-2.619 2.407-3.128 0-.509.67-1.481 1.489-2.161.819-.68 1.275-1.582 1.014-2.005-.262-.423.353-1.834 1.366-3.136 3.981-5.117 17.131-24.944 17.131-25.829 0-.517.569-1.299 1.264-1.739.695-.44 3.058-3.497 5.25-6.793 2.192-3.296 4.549-6.591 5.236-7.322.688-.73 1.25-1.714 1.25-2.185 0-.471.563-1.455 1.25-2.185.688-.731 3.048-4.026 5.245-7.322 2.197-3.296 4.56-6.588 5.25-7.314.69-.727 1.255-1.708 1.255-2.179 0-.471.579-1.452 1.287-2.179.709-.726 2.254-2.902 3.436-4.834 1.181-1.933 3.189-4.451 4.462-5.595 2.348-2.111 2.729-2.623 7.505-10.086 1.476-2.306 2.977-4.012 3.336-3.79.358.221 1.591-1.269 2.74-3.313 1.148-2.043 3.133-4.655 4.411-5.804 1.278-1.149 2.998-3.088 3.823-4.31.825-1.221 3.862-4.727 6.75-7.79 2.888-3.064 5.25-5.986 5.25-6.494s.45-.645 1-.305 1 .233 1-.238c0-1.038 2.852-4.894 5.25-7.098.963-.885 1.75-2.117 1.75-2.738s1.237-2.489 2.75-4.151c3.802-4.177 6.25-7.522 6.25-8.537 0-.471.418-.598.928-.282.51.315 1.216-.333 1.567-1.441.352-1.108 1.029-2.015 1.505-2.015s1.153-.907 1.505-2.015c.351-1.108 1.057-1.756 1.567-1.441.51.316.928.093.928-.494 0-.588 1.237-2.39 2.75-4.005 6.364-6.796 10.499-11.91 14.384-17.789 2.269-3.434 5.253-7.46 6.63-8.946 1.377-1.486 4.536-5.651 7.02-9.256 2.484-3.605 5.124-7.264 5.866-8.133.743-.868 1.358-2.218 1.368-3 .009-.781 2.238-4.571 4.952-8.421 2.714-3.85 5.805-8.854 6.869-11.121 1.064-2.266 2.435-4.431 3.048-4.809.612-.378 1.113-1.493 1.113-2.476 0-.983.85-2.768 1.889-3.966 1.039-1.198 2.469-3.629 3.178-5.403 1.353-3.384 6.936-12 8.127-12.54.381-.173 1.205-1.864 1.83-3.759.626-1.894 1.551-3.189 2.057-2.876.505.312.919-.123.919-.968 0-.846 1.371-4.071 3.047-7.169 1.676-3.097 2.865-6.145 2.643-6.772-.221-.628-.051-2.096.38-3.262 1.435-3.89-1.826-10.473-9.28-18.734-1.49-1.651-2.979-4.23-3.309-5.73-.661-3.012-6.701-7.524-9.981-7.456-1.1.022-2.265-.318-2.588-.756-.324-.439-1.674-.924-3-1.078-3.831-.445-5.83-1.674-5.238-3.219.383-.996.061-1.241-1.063-.81-.914.35-1.611.113-1.611-.548 0-.641-.427-.902-.95-.579-.522.323-1.436-.321-2.03-1.431-1.111-2.077-2.893-2.297-4.346-.538-.535.648-1.005.56-1.333-.25-.279-.687-1.262-1.25-2.184-1.25-.922 0-2.265-.944-2.986-2.097-.72-1.154-1.586-1.821-1.925-1.483-.338.338-1.994-.711-3.68-2.333-1.686-1.621-3.739-3.091-4.562-3.267-.823-.176-1.999-.959-2.612-1.741-.613-.782-1.796-1.521-2.627-1.643-2.076-.305-8.478-3.332-13.108-6.199-2.114-1.309-4.425-2.156-5.137-1.883-.894.343-1.125-.147-.749-1.585.342-1.311.154-1.841-.509-1.431-.579.358-1.312-.026-1.629-.853-.318-.827-.927-1.427-1.355-1.333-1.478.325-6.619-2.236-7.915-3.941-.715-.941-1.314-1.273-1.331-.738-.018.534-.733-.028-1.589-1.25-.856-1.223-2.206-2.223-3-2.223s-1.443-.477-1.443-1.059-.437-.789-.971-.459-1.987-.569-3.229-1.997c-1.242-1.428-4.857-5.32-8.034-8.648-4.99-5.228-6.149-5.974-8.521-5.484-1.51.312-2.182.323-1.495.024 1.71-.744 1.584-3.377-.161-3.377-.776 0-2.464-1.238-3.75-2.75s-3.464-2.856-4.839-2.986c-5.537-.522-5.901-.696-5.701-2.723.147-1.495-.301-1.955-1.676-1.718-1.573.271-1.769-.107-1.209-2.335 1.039-4.139-.156-6.349-3.801-7.033-2.709-.508-3.763-1.549-6.11-6.034-1.56-2.982-3.211-5.421-3.669-5.421-.459 0-.834-.468-.834-1.04 0-2.172-7.237-11.211-9.253-11.558-.686-.118-3.162-.66-5.503-1.203-2.341-.544-4.47-.643-4.732-.219-.525.851-5.539 1.077-6.827.308-1.127-.673 2.295-4.288 4.06-4.288 2.699 0 6.615-6.229 4.505-7.167-.413-.183-1.716-2.133-2.897-4.333-1.18-2.2-2.53-4.007-3-4.015-.469-.009-1.303-.288-1.853-.621s-1.9-.412-3-.176-2.562.478-3.25.537c-.687.06-1.25.411-1.25.781 0 .37-1.237 1.273-2.75 2.006-2.789 1.353-5.341 1.379-6.25.065-.537-.776-3.678-2.21-5.8-2.647-1.952-.402-4.2-2.51-4.2-3.937 0-.695-1.125-2-2.5-2.901-1.375-.901-2.5-1.348-2.5-.993 0 .355-.661.097-1.47-.574-2.311-1.918-7.53-1.955-7.53-.055M734 468.417c0 .871-.337 1.595-.75 1.61-.413.015-1.847 1.805-3.188 3.979-1.34 2.173-2.651 3.739-2.911 3.478-.261-.26-1.526 1.075-2.812 2.968-2.258 3.322-2.964 5.548-1.761 5.548 1.196 0 8.422-8.222 8.422-9.582 0-.78.441-1.418.981-1.418.539 0 1.263-1.125 1.608-2.5.345-1.375 1.292-2.5 2.103-2.5 1.684 0 1.289-2.173-.504-2.771-.654-.218-1.188.317-1.188 1.188m17.174 6.715c-1.279 1.577-1.954 2.854-1.5 2.837.929-.036 4.716-4.939 4.174-5.406-.191-.165-1.395.991-2.674 2.569" fill-rule="evenodd"/></svg>