<svg xmlns="http://www.w3.org/2000/svg" width="1240" height="1753"><path d="M656.335 44.148c-1.009.403-4.422.477-7.585.163-3.447-.341-5.75-.18-5.75.403 0 .534-2.657.93-5.904.879-3.248-.051-5.732.186-5.521.528.355.575-1.085.91-10.575 2.457-1.925.314-4.175.82-5 1.125-2.324.859-6.051 1.261-11.335 1.224-2.659-.018-7.159.432-10 1.001s-7.493 1.202-10.339 1.406c-2.854.205-5.859 1.057-6.701 1.898-1.922 1.922-8.934 3.341-9.413 1.905-.226-.68-1.184-.718-2.779-.112-1.896.721-2.433.6-2.433-.55 0-1.785-1.174-1.901-2.8-.275-.933.933-1.2.91-1.2-.105 0-1.39-3.325-1.185-12 .741-3.721.826-4.814.718-6.311-.629-1.541-1.385-1.942-1.416-2.689-.207-.734 1.188-1.226 1.105-3.01-.509-2.178-1.971-2.986-2.044-18.99-1.711-3.575.075-16.4.121-28.5.104-13.434-.02-23.103.389-24.834 1.049-1.559.595-3.215.846-3.681.558-.466-.288-1.103-.109-1.416.398-.313.506-2.365.68-4.56.385-2.321-.311-4.566-.056-5.368.609-.777.645-5.257 1.2-10.26 1.272-5.715.082-8.168.422-6.881.952 1.149.473-2.681.66-9 .44-17.068-.595-45.701-3.348-46.858-4.505-.573-.573-3.989-1.035-7.592-1.027-4.147.01-6.042.337-5.165.893 2.791 1.768-2.407 2.935-15.925 3.577-15.248.723-37.967 3.125-42.46 4.489-4.138 1.256-16.322 2.831-26.5 3.426-6.366.372-7.496.273-4.5-.394 2.2-.49 6.512-.917 9.583-.948 3.071-.032 5.924-.396 6.339-.808.416-.413 1.728-.75 2.917-.75 4.408 0 18.661-2.892 18.661-3.787 0-.51-.723-.65-1.607-.31-.883.339-5.271.666-9.75.728-5.223.072-7.426.402-6.143.92 1.594.645 1.29.82-1.5.863-2.27.036-3.032-.241-2.169-.788C290.734 59.919 285.37 59 276.425 59c-5.77 0-7.522.351-8.25 1.651-.739 1.322-1.698 1.498-4.799.885-4.642-.919-5.249-.921-17.376-.075-12.377.864-14 1.241-14 3.249 0 1.478.156 1.458 1.348-.171 1.295-1.771 1.437-1.754 3.633.442l2.286 2.286-10.807-.606c-7.106-.398-11.085-1.043-11.618-1.883-.533-.839-.817-.885-.827-.135-.028 2.087-3.387 2.569-4.765.684-1.108-1.515-1.037-1.89.473-2.502 2.066-.838-3.497-.913-8.106-.11-2.062.359-2.498.741-1.529 1.339.745.461 1.08 1.111.746 1.445-.724.725 1.062.74-26.681-.223-12.291-.427-22.555-.438-22.809-.026-.254.413 1.027.758 2.847.768 5.641.031 30.943.996 38.309 1.461 3.85.244 10.825.717 15.5 1.052 4.675.335 12.775.764 18 .954 10.277.374 15.917 1.077 16.886 2.106.338.358-9.061.327-20.886-.069-11.825-.397-22.937-.679-24.694-.627-1.757.052-3.412-.257-3.678-.688-.266-.431-9.854-.886-21.306-1.011-39.197-.43-83.039-3.144-93.535-5.791-6.67-1.682-13.01-1.009-17.037 1.807C62.237 66.271 61 66.877 61 66.56c0-1.345-6.012 4.921-6.559 6.837-.33 1.157-1.415 4.353-2.412 7.103-3.662 10.107-4.304 13.039-4.153 18.956.084 3.324-.357 7.619-.982 9.544-.641 1.978-1.24 11.761-1.377 22.5-.134 10.45-.548 24.625-.92 31.5-.373 6.875-.827 26-1.008 42.5-.221 20.068-.763 31.859-1.638 35.616-1.764 7.578-.109 25.489 3.003 32.486 1.198 2.694 2.397 7.373 2.665 10.398.269 3.025 1.206 7.879 2.083 10.788 1.383 4.582 1.409 5.636.197 7.901-.77 1.438-1.26 3.436-1.09 4.441.17 1.005-.668 6.224-1.862 11.598-2.855 12.849-3.013 13.857-3.132 20.055-.079 4.154.369 5.784 2.095 7.621 1.207 1.285 2.164 3.182 2.126 4.216a239.81 239.81 0 0 1-.254 4.88c-.102 1.65-.095 5.613.016 8.806.175 5.023.6 6.17 3.153 8.5 3.646 3.329 10.11 5.602 20.563 7.23 7.994 1.245 21.486.63 21.486-.98 0-1.327 8.186-3.839 14.335-4.398 3.517-.32 9.674.157 15.5 1.202 5.891 1.057 13.57 1.646 19.665 1.509 5.5-.123 19-.435 30-.693 11-.258 25.4-.092 32 .37 6.6.461 18.975 1.079 27.5 1.374 8.525.294 22.25 1.108 30.5 1.808 18.348 1.556 78.579 1.077 81.369-.647.47-.291 11.921-.963 25.445-1.494 13.524-.531 25.399-1.391 26.388-1.911 4.02-2.115 42.216-4.733 52.048-3.568 5.163.612 5.25.678 5.25 3.966 0 1.84.512 6.785 1.137 10.991.655 4.404.761 7.92.25 8.291-4.248 3.083-5.612 13.676-8.389 65.144-.549 10.175-1.203 20.525-1.454 23-2.439 24.116-2.685 32.198-2.077 68 .531 31.221 1.011 40.485 2.541 49 1.614 8.984 1.999 18.298 2.665 64.5.427 29.7.564 64.575.302 77.5-.615 30.436-.608 108.814.014 154 .269 19.525.142 46.975-.281 61-.457 15.147-.368 31.59.218 40.5.543 8.25 1.471 38.175 2.061 66.5.59 28.325 1.501 54.425 2.025 58 .523 3.575 1.148 13.7 1.389 22.5.454 16.546 2.781 73.143 4.626 112.5.58 12.375 1.525 27.9 2.099 34.5 1.393 16.016 1.847 98.589.552 100.286-.614.803-.739 7.56-.333 18 .357 9.193 1.113 31.114 1.682 48.714.568 17.6 1.414 36.5 1.88 42 .467 5.5.644 22.6.395 38-.319 19.758-.046 31.827.928 41 1.269 11.962 1.231 13.839-.482 23.5-2.171 12.247-2.43 27.448-.919 54 1.15 20.204 2.158 26.343 5.854 35.639 2.39 6.012 2.568 6.186 8.629 8.49 3.403 1.293 6.436 2.476 6.739 2.628.303.152 2.014-1.029 3.802-2.625 3.517-3.14 6.816-4.118 14.022-4.156 4.288-.023 11.598-1.274 15.125-2.588 2.404-.897 18.268-.604 20.93.386 1.539.572 4.488.474 8.048-.269 4.316-.901 6.419-.898 9.07.014 1.899.653 4.352.983 5.452.733 10.832-2.455 30.94-2.255 45.414.454 9.382 1.756 25.732 1.014 48.854-2.215 1.798-.251 5.623.157 8.5.906 3.841 1 6.562 1.107 10.232.403 2.75-.527 7.117-1.19 9.705-1.473 2.588-.283 5.231-1.147 5.873-1.92.642-.774 1.558-1.407 2.037-1.407.478 0 2.005-.987 3.393-2.194 3.707-3.223 5.192-3.125 4.688.31-.25 1.705.032 2.884.691 2.884.719 0 1.113-2.657 1.113-7.5 0-5.325.362-7.504 1.25-7.515.833-.011.75-.339-.25-.985-1-.646-1.083-.974-.25-.985.688-.008 1.25-1.195 1.25-2.637 0-2.218.232-2.431 1.5-1.378 1.28 1.063 1.517.751 1.619-2.128.096-2.717.309-2.324 1.1 2.026.683 3.763 1.248 4.974 1.865 4 .622-.982.89-.448.901 1.793.008 1.755.465 3.469 1.015 3.809.55.34 1 3.347 1 6.681 0 5.277.195 5.902 1.5 4.819.825-.685 1.545-2.202 1.6-3.372.088-1.894.181-1.853.838.372.407 1.375 1.262 2.388 1.901 2.25 1.566-.337 1.487 1.467-.089 2.03-.687.245-.876.845-.418 1.332 1.211 1.289 3.668-2.526 3.668-5.696 0-1.65-.681-2.965-1.75-3.376-1.54-.593-1.564-.779-.202-1.544 1.161-.652 1.51-2.38 1.393-6.903-.085-3.319.231-5.796.702-5.505.471.292.857.128.857-.362 0-.491.647-.893 1.437-.893 1.053 0 1.336.959 1.058 3.584-.209 1.971-.406 5.297-.437 7.392-.035 2.273-.461 3.56-1.058 3.191-.55-.34-1 .084-1 .941s.563 1.446 1.25 1.309c.688-.138 1.177.2 1.088.75-.089.55-.457 2.584-.818 4.521l-.657 3.521 8.713.259c4.791.142 9.059.473 9.482.735.424.262 1.678-.991 2.787-2.785 2.322-3.758 3.748-13.476 5.107-34.823.511-8.015 1.391-15.665 1.957-17 1.163-2.748 3.615-21.761 5.02-38.928 1.28-15.646 1.543-55.826 1.455-222.5-.01-18.356-.715-42.873-1.653-57.5-.899-14.025-1.885-33.15-2.19-42.5-.305-9.35-1.232-28.925-2.06-43.5-3.37-59.346-4.038-151.962-1.543-213.763 1.68-41.61 1.381-124.395-.53-146.737-1.152-13.475-1.854-38.775-2.414-87-.926-79.816-1.706-110.785-2.994-118.897-.515-3.243-.759-6.185-.541-6.536.217-.352-.019-6.923-.525-14.603s-1.191-24.539-1.521-37.464c-.813-31.772-.824-32-1.552-32-.351 0-.685-11.362-.743-25.25-.058-13.888-.303-27.725-.544-30.75-.241-3.025-.742-10-1.113-15.5-.37-5.5-1.054-10.719-1.52-11.597-.517-.974-.398-2.046.306-2.75.871-.871.859-1.447-.047-2.353-1.521-1.521-1.707-34.369-.2-35.3 1.312-.811 1.298-11.198-.016-12.01-.559-.346-.769-1.029-.466-1.518.302-.49-.024-1.809-.725-2.931-.971-1.555-1.002-2.477-.129-3.874 1.298-2.079.881-16.371-.553-18.934-.563-1.005-.471-2.291.246-3.448.798-1.289.823-2.063.083-2.566-.706-.479-.816-3.559-.33-9.219.402-4.675.767-11.988.81-16.25L736 378l3.75-.083c2.063-.046 4.875-.25 6.25-.454 1.375-.203 8.8-.845 16.5-1.425 7.7-.581 17.15-1.54 21-2.133a48.195 48.195 0 0 1 14-.123c3.85.525 10.825 1.042 15.5 1.15 4.675.108 9.85.378 11.5.601 13.267 1.793 30.315 2.397 56.5 2.003 37.557-.567 69.511-2.163 81.739-4.084 5.082-.799 10.51-1.452 12.062-1.452 1.553 0 4.82-.969 7.261-2.154 2.577-1.251 7.792-2.494 12.438-2.964 8.637-.874 20.635-2.942 30.954-5.335 4.919-1.141 8.458-1.297 14.758-.652 4.559.466 14.138.738 21.288.604 7.95-.149 11.252.037 8.5.478l-4.5.723 4 .216c2.2.119 7.15.485 11 .813 3.85.328 10.487.609 14.75.625 4.263.016 7.75.42 7.75.898 0 .865 13.699-.046 15.383-1.023.486-.281 2.511-.613 4.5-.737 1.99-.123 6.542-.756 10.117-1.406 11.295-2.054 18.83-2.472 20.44-1.136.81.672 1.911.951 2.447.62.536-.332 1.257-.145 1.603.414 1.175 1.9 8.51.909 8.51-1.15 0-.524-.419-.693-.932-.376-.512.317-.3-.691.473-2.239 1.343-2.693 1.844-5.58 2.906-16.744.263-2.764 1.149-7.939 1.971-11.5.837-3.63 1.403-10.215 1.287-14.988-.194-8.064-.033-8.782 3.045-13.588 2.831-4.42 3.25-5.93 3.25-11.716 0-3.654-.637-8.339-1.415-10.413-2.647-7.054-2.853-12.114-.607-14.969 1.319-1.677 2.022-4.069 2.022-6.879 0-2.673.854-5.753 2.25-8.115 1.996-3.377 2.274-5.33 2.467-17.307.12-7.425.541-16.875.937-21 1.2-12.506.843-34.203-.608-36.915-1.906-3.56-4.148-15.247-3.166-16.503.978-1.252.727-11.02-.369-14.332-.484-1.462-.341-2.25.408-2.25.826 0 .861-.543.123-1.921-.81-1.515-.448-2.807 1.715-6.111 1.509-2.304 2.763-4.477 2.787-4.829.024-.351.633-3.009 1.354-5.907.72-2.897 1.025-6.403.677-7.791-.349-1.388-4.153-6.449-8.455-11.246-8.137-9.076-8.283-9.409-9.294-21.195-.194-2.259-1.849-2.968-6.969-2.985-3.149-.01-4.824-.487-5.206-1.483-.706-1.839 1.307-3.218 2.315-1.586.546.882 1.23.717 2.576-.622 1.776-1.768 1.761-1.834-.47-2.159-1.267-.184-2.791.154-3.387.75-1.734 1.734-2.874 1.257-2.185-.915.389-1.225.18-2-.54-2-.646 0-.915-.675-.598-1.5.316-.825.053-1.5-.585-1.5-.637 0-.314-.618.719-1.373 1.812-1.325 1.801-1.398-.324-2.072-1.229-.39-1.906-1.177-1.532-1.782.404-.652.201-.793-.51-.353-.648.4-2.578.421-4.288.045-2.289-.502-2.744-.913-1.725-1.558 1.459-.925-5.552-1.393-16.617-1.111-13.426.342-26.505.292-35.256-.135-5.09-.248-9.504-.049-9.809.444-.866 1.401-11.176 1.092-11.852-.355-.466-1-.7-1-1.166 0-.321.687-1.248 1.25-2.059 1.25-.812 0-1.198-.45-.858-1 .626-1.013-1.706-1.365-6.8-1.025-1.541.102-3.375-.29-4.076-.872-1.063-.883-16.55-2.017-29.374-2.152-4.276-.045-3.78-.032-18.75-.512-7.15-.229-15.25-.627-18-.884-7.996-.747-14.88-1.614-16.5-2.08-3.617-1.039-30.812-2.47-58-3.052-16.225-.347-33.325-.721-38-.83-6.99-.164-8.844.121-10.439 1.604-1.066.992-2.416 1.789-3 1.771-.583-.017-.247-.649.749-1.404 1.154-.875 1.423-1.611.742-2.032-1.477-.913-19.052-2.249-19.052-1.449 0 .357-1.722.334-3.827-.051-2.104-.385-5.142-.576-6.75-.425-2.637.249-31.278 1.107-50.423 1.511-9.841.208-30.522-.705-31.641-1.396-.484-.299-5.01-.818-10.058-1.154-8.117-.539-9.298-.405-10.209 1.161-.581.998-1.044 1.219-1.062.507-.02-.853-1.008-1.092-3.03-.736-1.709.301-3 .092-3-.486 0-.558-1.377-1.014-3.059-1.014-1.682 0-2.829-.373-2.547-.828.588-.951-35.686-.727-37.235.23-.561.347-1.266.234-1.565-.25-.818-1.324-5.132-.755-4.844.639.323 1.562-2.457 1.587-2.978.026-.446-1.339-16.388-1.888-19.437-.669m26.238 2.802c-1.848.672-1.851.729-.083 1.408 1.015.389 2.258.294 2.764-.212 1.291-1.291-.375-2.034-2.681-1.196m-9.156.916c.498.805 5.583.366 5.583-.483 0-.21-1.377-.383-3.059-.383-1.682 0-2.818.39-2.524.866m-25.655.841c1.244.239 3.044.23 4-.02s-.062-.446-2.262-.435c-2.2.011-2.982.216-1.738.455m119.354.043c-.064.688-1.106 1.25-2.316 1.25-1.543 0-1.885.315-1.145 1.055.58.58 5.004 1.317 9.829 1.637 6.985.464 8.685.315 8.337-.728-.313-.939-2.312-1.243-7.043-1.072-5.661.205-6.673-.02-7.076-1.576-.258-.999-.522-1.253-.586-.566m27.646 3.957c1.244.239 3.044.23 4-.02s-.062-.446-2.262-.435c-2.2.011-2.982.216-1.738.455m-211.634 2.639c-.907 1.093-.414 1.291 2.628 1.059 2.059-.158 3.969-.32 4.244-.361.275-.041-.175-.511-1-1.044-2.122-1.371-4.566-1.227-5.872.346m435.372 3.747-5 .593 6 .319c12.566.668 14.59.658 15.042-.073.632-1.023-9.867-1.571-16.042-.839m-10.738.614c1.244.239 3.044.23 4-.02s-.062-.446-2.262-.435c-2.2.011-2.982.216-1.738.455m34.502 1.011c1.52.229 3.77.223 5-.014 1.23-.237-.014-.425-2.764-.418-2.75.008-3.756.202-2.236.432m16.504.007c1.797.222 4.497.218 6-.01 1.503-.229.032-.411-3.268-.405-3.3.005-4.529.192-2.732.415M189.5 63.057c2.2.455 5.575.809 7.5.786 3.188-.039 3.277-.114 1-.843-1.375-.44-4.75-.794-7.5-.785l-5 .015 4 .827m16.452.994c-.798.505-1.227.96-.952 1.01.275.051 1.287.243 2.25.427.963.184 1.75-.049 1.75-.517 0-1.432-1.515-1.89-3.048-.92M1157.5 83c.471 1.482.18 2-1.124 2-1.595 0-1.578.136.183 1.468 3.346 2.531 4.269 1.935 3.047-1.968-.602-1.925-1.466-3.5-1.918-3.5-.453 0-.537.9-.188 2M733.625 94.708c-.314.314-.331.958-.039 1.431.702 1.136 3.414 1.111 3.414-.032 0-1.104-2.595-2.179-3.375-1.399M691 159.201c0 .439 2.138.763 4.75.72 5.228-.087 4.805-.572-1-1.148-2.062-.204-3.75-.012-3.75.428m-229.296 23.003c-.662.421 1.159.772 4.046.781 2.887.008 5.25-.163 5.25-.38 0-.793-8.127-1.144-9.296-.401m10.444.277c.701.701 24.902.802 25.597.107.324-.323-5.412-.588-12.745-.588-7.333 0-13.117.216-12.852.481m87.602.225c1.237.238 3.263.238 4.5 0 1.237-.239.225-.434-2.25-.434s-3.487.195-2.25.434m-36.5 1.01c1.513.229 3.987.229 5.5 0s.275-.416-2.75-.416-4.263.187-2.75.416m218.512 2.991c1.244.239 3.044.23 4-.02s-.062-.446-2.262-.435c-2.2.011-2.982.216-1.738.455M229 210.589l-3.5 1.437 3.469-.532c1.908-.292 3.91-.973 4.45-1.513 1.343-1.343-.175-1.134-4.419.608M217.5 213c-2.695.686-2.746.765-.5.782 1.375.01 3.625-.342 5-.782 1.959-.627 2.067-.797.5-.782-1.1.01-3.35.362-5 .782m156.583 44.372c.23.204 2.667.632 5.417.949 3.372.39 4.186.301 2.5-.272-2.498-.849-8.704-1.38-7.917-.677m14.417 2.955c2.2.732 4.188 1.183 4.417 1.002.82-.648-.479-1.16-4.417-1.742l-4-.592 4 1.332M396 262c1.375.44 3.625.801 5 .801h2.5L401 262c-1.375-.44-3.625-.801-5-.801h-2.5l2.5.801m29.5 4.523c2.75.764 6.125 1.37 7.5 1.348 1.375-.023.025-.659-3-1.414-7.18-1.792-10.99-1.736-4.5.066m489.524 35.776c.973.857 9.976 1.633 9.976.861 0-.442-2.352-.91-5.226-1.041-2.875-.131-5.012-.05-4.75.18m22.226 1.429c2.063.216 5.438.216 7.5 0 2.063-.215.375-.392-3.75-.392s-5.812.177-3.75.392m32.413 2.296c.46.439 4.437 1.045 8.837 1.348 5.56.382 6.78.296 4-.284-6.342-1.323-13.753-1.937-12.837-1.064M566.272 312c0 2.475.195 3.488.434 2.25.238-1.238.238-3.262 0-4.5-.239-1.238-.434-.225-.434 2.25m493.989 33.595c.931.931 6.739 1.114 6.739.212 0-.444-1.65-.807-3.667-.807-2.016 0-3.399.268-3.072.595M598.015 644.191c.009.72.452 1.984.985 2.809.788 1.219.972 1.09.985-.691.008-1.205-.435-2.469-.985-2.809-.55-.34-.993-.029-.985.691M643.272 890c0 2.475.195 3.487.434 2.25.238-1.237.238-3.263 0-4.5-.239-1.237-.434-.225-.434 2.25m-54.936 34.567c-.331.862-.092 2.077.531 2.7.844.844 1.133.444 1.133-1.567 0-3.009-.749-3.518-1.664-1.133m12.549 7.183c.432 5.125.759 4.881 1.342-1 .218-2.201-.065-3.75-.685-3.75-.65 0-.903 1.829-.657 4.75m.115 8.583c0 2.017.417 3.667.927 3.667s.749-1.411.53-3.136c-.57-4.509-1.457-4.832-1.457-.531m0 8.334c0 2.016.331 3.335.736 2.931 1.066-1.067 1.19-6.598.147-6.598-.486 0-.883 1.65-.883 3.667M602.32 977c0 3.575.182 5.038.403 3.25.222-1.788.222-4.712 0-6.5-.221-1.788-.403-.325-.403 3.25m41.932 59.5c.011 2.2.216 2.982.455 1.738.239-1.244.23-3.044-.02-4s-.446.062-.435 2.262m-43.42 10.603c-.183 3.907-.001 7.619.403 8.25.404.631.741-2.566.75-7.103.008-4.537-.173-8.25-.403-8.25-.23 0-.567 3.196-.75 7.103M486.389 1359.5c.001 7.15.161 9.944.353 6.208.193-3.735.192-9.585-.003-13-.194-3.414-.352-.358-.35 6.792M722 1650.333c0 1.467.375 2.667.833 2.667.974 0 .86-3.641-.146-4.646-.378-.378-.687.513-.687 1.979m-.011 8.417c-.006 2.063-.297 5.483-.647 7.6-.618 3.742-.576 3.813 1.511 2.51 1.181-.738 2.147-2.159 2.147-3.16 0-1-.45-1.54-1-1.2-.581.359-1-.629-1-2.358 0-1.636.563-3.238 1.25-3.559.998-.465.997-.701-.006-1.168-.691-.322-1.002-.997-.691-1.5.311-.503.088-.915-.494-.915s-1.064 1.688-1.07 3.75M704.002 1682c-.112 1.375-.388 4.625-.613 7.222-.338 3.902-.146 4.622 1.101 4.143 1.353-.519 2.159-4.218 1.497-6.865-1.817-7.255-1.77-7.15-1.985-4.5" fill-rule="evenodd"/></svg>