<svg xmlns="http://www.w3.org/2000/svg" width="1240" height="1753"><path d="M266.239 72.247c-3.443.438-7.718 1.684-9.5 2.771-1.781 1.086-3.957 1.976-4.835 1.978-.878.002-2.954.681-4.612 1.508-1.659.828-4.991 1.896-7.404 2.373-2.413.478-6.484 1.792-9.046 2.921-2.562 1.129-4.925 1.786-5.25 1.46-.326-.325-.592-.051-.592.611 0 .891-.516.925-2 .131-1.652-.884-2.003-.76-2.015.715-.013 1.489-.17 1.541-.946.314-1.536-2.428-2.532-.175-1.331 3.009.615 1.629.751 2.962.303 2.962s-1.351-1.463-2.005-3.25c-1.036-2.829-1.285-3-1.923-1.323-.687 1.805-.776 1.814-1.417.144-.492-1.281-1.344-1.618-3.027-1.195-1.288.323-2.645.284-3.016-.087-2.332-2.331-6.735.102-5.067 2.801.309.501.071.91-.528.91-.6 0-1.331-.625-1.624-1.389-.319-.831-1.413-1.198-2.719-.914-1.819.397-1.934.282-.685-.686 1.333-1.034 1.333-1.118 0-.754-.825.225-1.556.935-1.625 1.576a91.901 91.901 0 0 1-.25 2.09c-.069.508-1.373.301-2.897-.459-1.525-.761-4.747-1.631-7.161-1.935-2.414-.303-4.894-.971-5.513-1.484-.618-.513-2.794-.846-4.834-.739-2.88.151-3.712.61-3.716 2.055-.004 1.668-.194 1.626-1.839-.405l-1.834-2.266-1.495 2.134-1.495 2.134-3.921-2.006c-2.156-1.104-5.72-1.974-7.92-1.935-2.2.039-5.238-.227-6.75-.59-1.739-.417-2.75-.254-2.75.445 0 .607-.787 1.038-1.75.958-3.65-.306-5.361.181-4.655 1.325.492.795.277.875-.69.257-1.346-.859-7.058-1.448-17.063-1.758-2.561-.079-4.484-.425-4.271-.768.212-.344-1.067-.314-2.843.065-1.775.379-4.641.313-6.369-.148-1.758-.468-4.179-.442-5.5.06-1.691.644-2.737.492-3.696-.533-.968-1.036-1.691-1.137-2.623-.363-.708.587-2.001.793-2.875.458-.874-.335-3.035.112-4.803.994-1.768.882-4.036 1.343-5.038 1.025-1.293-.41-1.824-.067-1.824 1.18 0 1.593-.135 1.576-1.438-.183-1.408-1.9-1.468-1.901-2.839-.051-1.29 1.741-1.453 1.756-2.055.187-.36-.937-1.114-1.419-1.677-1.071-.563.348-.765 1.051-.448 1.563.316.512.072.931-.543.931s-.854.427-.531.949c.616.998-4.855 2.366-8.083 2.022-8.092-.863-12.289 2.263-14.704 10.95-2.167 7.792-2.293 36.921-.245 56.7.79 7.634 1.712 19.279 2.049 25.879.338 6.6.769 13.35.96 15 .19 1.65.642 9.179 1.004 16.731.362 7.552.868 14.752 1.126 16 .756 3.661.732 54.442-.031 64.269-.384 4.95-1.368 13.026-2.186 17.946-.819 4.92-1.662 13.02-1.873 18-.212 4.98-.664 14.004-1.004 20.054-.435 7.719.134 20.695 1.907 43.5 1.39 17.875 2.783 42.175 3.096 54 .817 30.86 3.368 75.327 6.052 105.5.245 2.75.908 11.469 1.473 19.376.565 7.907 1.297 14.811 1.626 15.343.652 1.056 1.817 71.623 1.383 83.781-.259 7.277-.269 17.078-.031 31.5.063 3.85.756 15.1 1.539 25 1.285 16.258 1.338 36.977.11 43.5-.259 1.375-.515 2.95-.569 3.5-.054.55-.511.348-1.015-.448-.718-1.135-1.062-.866-1.592 1.248-.372 1.483-.408 3.395-.08 4.25.372.971.187 1.301-.495.879-.764-.472-.927 1.09-.542 5.198.709 7.577.837 7.771 1.556 2.373.33-2.475 1.037-4.387 1.571-4.25.584.151.919 6.717.84 16.5-.071 8.938-.242 30.875-.378 48.75s.353 44.875 1.087 60c1.785 36.779 1.861 55.204.23 55.749-1.896.634-1.743 21.597.169 23.184 3.344 2.775 4.582 24.951 1.594 28.551-1.411 1.701-.756 16.837 1.085 25.063 1 4.467.978 5.942-.116 7.986-.936 1.75-1.025 2.824-.292 3.557.59.59.825 3.033.538 5.583-.305 2.707-.078 4.802.565 5.199 1.331.823 2.019 6.168 2.781 21.607.325 6.589.76 12.252.966 12.586.52.84 3.312 20.234 3.879 26.935.256 3.025.774 7.3 1.151 9.5s.725 4.787.772 5.75c.048.963.345 1.75.66 1.75.315 0 .649 1.907.742 4.239.119 2.989-.108 3.799-.772 2.75-1.216-1.923-1.232-.088-.031 3.612.517 1.594 1.143 4.699 1.389 6.899s1.184 7.454 2.084 11.675c.9 4.221 1.551 8.046 1.447 8.5-.104.454.098 1.95.448 3.325.35 1.375 2.272 9.475 4.27 18 1.998 8.525 4.494 18.116 5.547 21.313 1.053 3.197 1.654 6.234 1.335 6.75-.318.515-.165.937.342.937s1.398 2.587 1.981 5.75c1.207 6.552 4.805 19.767 6.194 22.75.513 1.1 1.586 4.25 2.386 7 1.915 6.582 4.565 11.662 5.714 10.951.507-.313.922.106.922.931 0 .825-.451 1.779-1.003 2.12-.652.403-.577 1.385.213 2.809.668 1.204 1.122 2.519 1.008 2.922-.114.403.942 3.328 2.345 6.5 1.403 3.172 2.908 6.667 3.343 7.767.436 1.1 2.211 4.925 3.944 8.5s3.151 7.183 3.15 8.018c0 .835 1.102 3.139 2.449 5.121 1.346 1.982 2.765 4.899 3.152 6.482.68 2.778 4.454 11.803 6.624 15.839.58 1.077 3.609 6.927 6.731 13 4.819 9.371 11.523 21.225 21.71 38.391a234.589 234.589 0 0 1 4.3 7.649c4.807 9.011 6.096 11.057 7.717 12.25.935.688 1.363 1.25.952 1.25-.412 0 .035 1.326.992 2.946s2.102 2.721 2.545 2.448c.443-.274.537.2.21 1.054-.328.854-.098 1.552.511 1.552s1.107.675 1.107 1.5.45 1.5 1 1.5 1 .563 1.001 1.25c0 .688 1.575 3.019 3.5 5.182 1.924 2.162 3.499 4.259 3.499 4.66 0 1.249 5.311 8.908 6.178 8.908.452 0 .822.671.822 1.492 0 .82.9 2.053 2 2.74 1.1.687 2 1.816 2 2.509 0 .692.45 1.259 1 1.259s1 .878 1 1.95c0 1.073.597 2.31 1.327 2.75.73.44 2.378 2.694 3.662 5.009 1.283 2.315 2.781 3.933 3.327 3.596.546-.338.704-.146.35.427s.926 2.755 2.845 4.85c1.919 2.095 3.489 4.422 3.489 5.172s.45 1.086 1 .746c.55-.34 1-.016 1 .719s.788 2.024 1.75 2.865c.963.84 2.539 2.628 3.504 3.972 4.73 6.592 6.869 9.266 14.632 18.298 5.048 5.873 8.916 9.552 9.718 9.245.732-.282 1.598-.081 1.923.445.325.526.059.956-.59.956-.892 0-.883.36.036 1.468.671.807 1.543 1.37 1.939 1.25.395-.12 5.777 4.845 11.959 11.032 6.181 6.188 10.989 11.25 10.684 11.25-.305 0 .383.938 1.528 2.083 5.062 5.062 2.396-2.235-2.848-7.795-4.06-4.305-6.689-8.167-6.017-8.839.268-.269 5.617 5.007 11.885 11.723 6.268 6.717 12.125 12.913 13.014 13.77.889.857 8.299 7.858 16.466 15.558 15.767 14.865 22.917 22.202 22.917 23.516 0 .443 1.8 2.19 4 3.883 2.2 1.692 4.45 3.425 5 3.85 4.931 3.811 17.151 12.581 21.994 15.786 5.27 3.487 11.539 8.035 18.006 13.064 1.1.856 3.8 2.482 6 3.615s5.8 3.283 8 4.778c2.2 1.496 5.63 3.25 7.621 3.899 1.992.648 6.678 3.023 10.414 5.276 7.115 4.291 15.947 8.055 35.965 15.328 14.151 5.142 24.278 9.138 26.843 10.593 2.538 1.439 20.494 6.912 22.68 6.912.977 0 5.535 1.528 10.127 3.395 40.673 16.538 83.755 22.612 125.381 17.676 4.383-.519 13.369-1.466 19.969-2.104 45.678-4.413 87.454-16.36 112.446-32.157 2.445-1.545 5.657-2.81 7.138-2.81 8.387 0 38.457-11.457 45.916-17.494.825-.668 6.675-4.313 13-8.101 6.325-3.787 19.032-11.84 28.237-17.895 9.206-6.056 20.678-13.485 25.493-16.51 8.159-5.125 17.395-11.967 23.27-17.239 1.375-1.234 3.85-3.091 5.5-4.127 3.424-2.151 7.995-6.093 18.009-15.529a1559.49 1559.49 0 0 1 13.5-12.548c11.904-10.898 38.364-37.136 48.991-48.58 5.775-6.218 10.982-11.795 11.57-12.392 5.755-5.835 18.822-21.37 21.593-25.67 6.403-9.939 7.285-11.41 7.311-12.201.014-.433.516-1.108 1.114-1.5 1.011-.663 11.412-17.728 11.412-18.724 0-.246 2.025-4.615 4.5-9.708 2.475-5.094 4.5-9.758 4.5-10.367 0-1.585 14.389-27.925 17.44-31.925 1.408-1.846 2.56-4.024 2.56-4.84 0-.816.4-1.633.89-1.817 1.425-.533 7.153-13.955 6.444-15.101-.373-.604-.159-.742.511-.327.668.412 1.155.109 1.155-.72 0-.789 1.762-6.665 3.916-13.059 2.154-6.394 3.719-11.626 3.48-11.626-.24 0 .41-1.687 1.446-3.75 2.321-4.625 5.894-15.696 10.571-32.75 1.961-7.15 4.852-17.5 6.426-23 4.31-15.066 7.161-26.973 7.161-29.907 0-1.444 1.122-8.267 2.494-15.162 1.372-6.895 2.61-14.535 2.75-16.979.141-2.443.566-4.444.944-4.447.378-.003.653-.793.61-1.755-.042-.963.276-3.055.708-4.649.564-2.083.463-2.7-.36-2.191-1.399.865-1.529-2.273-.235-5.677.501-1.318 1.209-4.835 1.573-7.815.364-2.98 1.324-7.742 2.135-10.582.81-2.84 1.406-7.115 1.325-9.5-.081-2.385.383-6.136 1.03-8.336 1.469-4.995 1.46-7.614-.031-8.535-.693-.429-.913-1.866-.549-3.59.334-1.581.846-4.852 1.137-7.269.291-2.416.728-4.716.972-5.111.244-.394.939-6.067 1.544-12.606.606-6.539 1.696-15.039 2.423-18.889.987-5.227 1.031-7.186.176-7.735-.856-.548-.852-.738.016-.75.772-.01 1.065-1.781.871-5.265-.32-5.772 3.982-35.452 5.389-37.173.485-.592 1.201-4.227 1.591-8.077 1.031-10.17 1.262-11.626 2.459-15.5 1.704-5.518 4.303-37.34 4.217-51.64-.034-5.669.348-7.559 1.854-9.176 1.33-1.427 1.533-2.17.677-2.48-.944-.343-.954-.895-.042-2.445.833-1.415.867-2.314.115-3.066-.752-.752-.602-1.527.512-2.641 1.973-1.973 2.525-6.32 3.116-24.552.258-7.975.704-15.85.99-17.5.286-1.65 1.247-8.625 2.136-15.5.888-6.875 3.336-22.625 5.44-35 5.413-31.844 8.812-58.415 11.002-86 .502-6.325 1.383-16 1.957-21.5 2.751-26.326 5.155-80.538 5.631-127 .426-41.437 1.786-88.688 2.879-100 .159-1.65.591-7.5.959-13s.848-12.025 1.067-14.5c3.344-37.783 4.963-72.017 4.801-101.5-.754-136.873-.724-146.557.492-160 1.36-15.022.678-33.741-2.148-59-.8-7.15-1.734-17.725-2.075-23.5l-1.124-19c-1.44-24.323-7.231-43.171-13.928-45.332-1.65-.532-3.303-1.434-3.674-2.004-.449-.691-1.184-.612-2.206.236-.843.7-1.984.993-2.536.652-.551-.341-1.808-.204-2.793.303-.985.508-3.366 1.69-5.292 2.627l-3.5 1.704-7-3.987c-8.257-4.703-12.672-5.352-34.499-5.072-24.616.315-45.994.316-85.5.004-33.745-.268-38.56-.11-43 1.409-2.75.94-5.675 1.836-6.5 1.99-3.266.61-15.547 1.856-16.297 1.654-.438-.118-7.223-.442-15.077-.72-13.085-.462-14.688-.324-19.157 1.653-5.115 2.262-7.058 2.132-18.469-1.233-4.838-1.426-8.731.203-10.418 4.36-.872 2.149-1.554 10.906-2.007 25.756-.378 12.375-1.093 25.2-1.591 28.5-1.697 11.264-2.303 54.102-1.027 72.5.668 9.625 1.395 32.447 1.615 50.716.22 18.268.619 34.918.885 37 .267 2.081.773 9.859 1.126 17.284.352 7.425.81 13.786 1.017 14.137.518.873.414 38.521-.119 42.863-1.521 12.403-1.528 36.359-.016 63 2.557 45.07 3.089 129.277 1.146 181.5-1.5 40.35-1.553 108.303-.091 117.5.306 1.925.095 9.125-.468 16-2.902 35.435-3.85 49.364-3.947 58-.118 10.511-1.496 24.284-3.65 36.5-.776 4.4-1.903 14.075-2.505 21.5-1.089 13.438-4.036 33.88-5.982 41.5-.562 2.2-1.244 6.25-1.516 9-.271 2.75-.913 5.9-1.427 7-.513 1.1-1.668 5.825-2.566 10.5a2310.802 2310.802 0 0 1-3.552 18c-2.404 11.902-4.521 27.888-6.422 48.5-.812 8.8-2.183 22.3-3.048 30-.865 7.7-1.734 19.4-1.931 26-.197 6.6-1.279 16.858-2.405 22.796-1.126 5.937-2.74 16.287-3.588 23-2.527 20.011-7.778 41.388-12.432 50.614-3.77 7.473-6.621 12.546-7.741 13.778-.639.701-1.952 3.421-2.92 6.044-.967 2.622-2.291 5.443-2.941 6.268-1.439 1.826-9.278 16.45-17.154 32-3.204 6.325-6.162 11.65-6.575 11.833-.413.184-.75.985-.75 1.782 0 .796-.634 1.691-1.41 1.989-.775.297-1.688 1.652-2.029 3.009-.341 1.358-1.051 2.202-1.579 1.876-.534-.33-.695.095-.364.959.406 1.057.004 1.557-1.261 1.567-1.408.012-1.532.221-.515.866 1.12.71 1.121 1.205.01 2.985-.733 1.174-1.701 2.134-2.152 2.134-.45 0-.519.483-.154 1.074.365.591-.396 2.202-1.691 3.581-1.295 1.378-2.239 2.807-2.097 3.176.142.368-.308 1.365-1 2.216-.692.851-3.413 5.801-6.047 11-6.055 11.949-10.716 18.345-14.636 20.08-1.691.749-3.075 1.728-3.075 2.176 0 .448-.52.494-1.155.102-.721-.447-.882-.274-.429.459.71 1.148-1.082 4.715-6.306 12.551-3.085 4.628-9.774 11.584-16.274 16.924-2.565 2.108-5.208 5.144-5.871 6.747-.664 1.603-1.805 2.914-2.534 2.914-1.092 0-12.704 8.865-14.431 11.017-1.509 1.881-16.46 12.983-17.483 12.983-.666 0-2.292.948-3.614 2.106-3.019 2.645-10.567 7.894-11.353 7.894-.324 0-2.295 1.076-4.378 2.392-4.046 2.553-15.614 7.418-20.632 8.675-1.672.419-5.515 1.446-8.54 2.282-6.104 1.686-19.292 1.648-22.5-.066-1.1-.588-6.5-1.358-12-1.712-5.5-.354-14.05-1.272-19-2.04-13.271-2.06-18.764-2.483-20.984-1.616-1.731.677-1.54.916 1.5 1.874 1.916.605 4.514 1.237 5.774 1.405 1.259.168 2.159.756 2 1.306-.434 1.496-17.927.769-20.554-.854-.649-.401-4.504-.87-8.566-1.041-4.063-.171-7.951-.66-8.64-1.087-.722-.446-1.624-.19-2.126.604-.691 1.09-.877 1.012-.889-.372-.008-.963-.495-1.75-1.082-1.75-.613 0-.797.853-.433 2 .722 2.275.214 2.452-2.643.923-1.142-.611-1.776-1.692-1.466-2.5.319-.83-.062-1.423-.912-1.423-1.327 0-15.298-8.405-16.479-9.914-1.904-2.432-13.088-10.994-15.717-12.032-3.514-1.387-5.324-3.13-5.666-5.456-.121-.826-1.631-2.851-3.356-4.499-1.725-1.648-3.649-3.955-4.275-5.126-.681-1.272-1.733-1.9-2.615-1.562-.811.311-1.226.163-.922-.329.305-.493-1.472-2.98-3.948-5.527-2.475-2.548-4.501-5.034-4.501-5.526s-.907-1.182-2.015-1.534c-1.108-.351-1.801-.983-1.541-1.404.734-1.188-2.378-5.091-4.06-5.091-.826 0-1.224-.45-.884-1 .34-.55-.068-1-.907-1-1.058 0-.133 1.993 3.018 6.5 2.499 3.575 4.079 6.5 3.511 6.5-1.67 0-31.077-36.02-31.188-38.202-.128-2.498-24.573-32.602-26.576-32.727-.627-.039-1.426-1.207-1.775-2.596s-1.635-3.527-2.858-4.75c-3.044-3.043-10.971-14.721-10.005-14.74.429-.009.25-.353-.397-.764-1.368-.87-7.329-10.69-10.454-17.221-1.184-2.475-2.652-4.831-3.261-5.235-.609-.404-.793-.741-.409-.75 1.144-.025-2.252-7.368-4.303-9.304-1.043-.984-1.915-1.434-1.938-1-.108 2.033-3.879-6.54-3.916-8.902-.023-1.48-.457-2.947-.964-3.261-.507-.313-1.917-3.602-3.133-7.309-1.216-3.706-2.572-7.2-3.013-7.764-1.406-1.795-4.152-10.789-4.548-14.893-.209-2.179-.796-4.219-1.304-4.533-.992-.613-6.365-11.937-7.612-16.041-.694-2.287-.612-2.373.992-1.041.962.798 2.14 2.482 2.619 3.742.48 1.26 1.333 2.291 1.896 2.291 1.723 0 1.149-3.47-1.352-8.173-1.308-2.46-3.133-7.139-4.057-10.399-.924-3.261-1.909-6.716-2.19-7.678-.281-.963-1.138-1.75-1.905-1.75-1.371 0-2.038-1.923-4.508-13-.675-3.025-1.677-6.369-2.227-7.431-.55-1.062-1.196-7.11-1.434-13.44-.239-6.329-.889-12.356-1.443-13.393-.555-1.037-.72-3.597-.367-5.69.354-2.092.164-8.943-.42-15.225-.585-6.282-1.322-16.124-1.638-21.871-.317-5.748-.932-16.075-1.368-22.95-.437-6.875-.876-17.857-.977-24.405-.101-6.547-.573-12.63-1.048-13.518-.475-.887-1.148-5.43-1.496-10.095-.348-4.665-1.057-11.182-1.576-14.482-1.26-8.016-2.44-33.859-2.295-50.25.083-9.35-.22-13.255-1.028-13.265-.63-.009-.471-.459.354-1 1.239-.814 1.265-1.136.15-1.856-1.991-1.284-3.83-15.346-2.393-18.301l1.133-2.328.671 2.25c.895 2.995 2.091 2.849 2.699-.329.312-1.634-.009-2.771-.878-3.105-.754-.289-1.057-1.033-.674-1.653 1.838-2.973 2.17-10.986 2.186-52.663.017-45.156-.05-48-1.133-48-1.168 0-.903-2.786.303-3.188.585-.195 1.178-2.618 1.318-5.384.14-2.767.49-5.457.779-5.979.289-.522.41-3.199.269-5.949-.141-2.75-.295-6.763-.343-8.917-.132-5.954-.82-3.948-1.504 4.381-.736 8.975-2.542 11.896-2.269 3.671.102-3.1-.182-5.637-.631-5.636-.45 0-.562-.899-.25-1.999 1.508-5.316 1.681-6.476.773-5.169-1.252 1.804-1.974-4.133-1.694-13.929.262-9.137 1.833-13.208 2.9-7.517.377 2.007.412 4.091.077 4.632-.334.541-.13.983.452.983.582 0 1.059-1.35 1.059-3s.423-3 .94-3c.517 0 .845-1.238.729-2.75-.128-1.664-.795-2.75-1.69-2.751-1.642-.001-1.587 7.692-.633-88.999.288-29.15.606-53.45.707-54 .101-.55.493.35.87 2l.687 3 .513-3.189c.311-1.936.101-3.115-.535-3-1.032.186-1.032-2.731.002-21.811.731-13.475 1.253-67.767.69-71.732-.291-2.052-.942-3.477-1.446-3.166-.503.312-.686 1.316-.406 2.232 1.091 3.565.774 10.408-.587 12.666-1.014 1.682-1.375 14.191-.88 30.5.302 9.949-.671 22.624-1.66 21.634-.843-.843-1.451-6.065-1.703-14.634-.138-4.675-.633-10.525-1.101-13-.468-2.475-.74-5.505-.605-6.733.136-1.229-.085-2.771-.491-3.428-1.165-1.884-.405-23.382 1.195-33.839.8-5.225 2.115-13.775 2.923-19 .808-5.225 1.472-11.826 1.475-14.668.007-5.783.771-8.595 2.111-7.767.492.304.895-.149.895-1.006s-.505-1.559-1.122-1.559c-.769 0-.805-.394-.116-1.25.554-.687.903-4.85.776-9.25-.149-5.159.204-8.533.996-9.5 1.457-1.781 3.081-21.759 3.374-41.5.115-7.7.403-15.35.642-17 .239-1.65.866-13.8 1.395-27 .528-13.2 1.215-27.456 1.525-31.68.311-4.223.478-18.398.372-31.5-.107-13.101-.247-40.92-.313-61.82-.116-36.976-.192-38.377-2.833-52-2.68-13.827-6.814-26.752-9.377-29.321-.726-.727-1.319-1.646-1.319-2.042 0-1.15-8.255-9.638-11-11.312-2.399-1.462-8.858-3.149-12-3.135-.825.004-2.767.525-4.315 1.159-1.548.633-3.801 1.151-5.007 1.151-1.205 0-3.763.471-5.685 1.047-1.921.575-6.587 1.065-10.369 1.088l-6.877.041-4.404-5.034c-4.865-5.561-4.915-5.572-18.104-3.895m83.512 265.277c-.266 1.388-.093 2.765.383 3.059.476.294.866-.842.866-2.524 0-3.712-.593-3.967-1.249-.535M345.195 530c-.046 6.536.179 8.006.975 6.363.698-1.442.718-4.205.06-8.5l-.975-6.363-.06 8.5m4.891 39.45c-.056 2.563.256 3.608.888 2.976.602-.602.635-2.11.086-3.95-.878-2.941-.889-2.93-.974.974m.166 110.05c.011 2.2.216 2.982.455 1.738.239-1.244.23-3.044-.02-4s-.446.062-.435 2.262m810 129c.011 2.2.216 2.982.455 1.738.239-1.244.23-3.044-.02-4s-.446.062-.435 2.262m-10.966 2c.008 2.75.202 3.756.432 2.236.229-1.52.223-3.77-.014-5-.237-1.23-.425.014-.418 2.764m9.244 8.686c-.371 2.923-.897 6.102-1.17 7.064-.57 2.017 2.154 2.489 2.887.5.52-1.411-.013-11.849-.637-12.473-.222-.223-.708 1.986-1.08 4.909M72.766 1067.208c-.901 2.293.009 20.048 1.348 26.292.59 2.75 1.268 7.7 1.506 11 .652 9 2.438 22.608 3.413 26 .474 1.65 1.411 6.958 2.083 11.795.671 4.837 1.595 9.026 2.052 9.309.458.283.832 1.462.832 2.622 0 1.159.256 1.851.569 1.539.313-.313.087-3.174-.501-6.357-.767-4.148-.763-5.979.015-6.459.708-.438.559-.873-.429-1.252-1.056-.405-1.414-1.658-1.184-4.139.182-1.957.017-3.558-.367-3.558s-1.235-4.612-1.892-10.25c-.656-5.638-1.872-15.2-2.701-21.25-.83-6.05-1.765-15.05-2.08-20-.741-11.681-1.768-17.572-2.664-15.292M346.375 1079c1.547 10.199 1.823 11.297 2.546 10.127.983-1.59-.511-11.125-1.965-12.543-.812-.792-.969-.142-.581 2.416M1133 1137.559c0 .924-.47 1.268-1.155.846-.729-.451-.882-.274-.416.48.889 1.438-1.413 15.115-2.544 15.115-.437 0-1.016 1.463-1.287 3.25-1.421 9.36-1.578 11.856-.715 11.322.511-.316 1.247-2.882 1.635-5.702.481-3.495.983-4.688 1.578-3.749.675 1.066.911.925 1.041-.621.229-2.728.434-3.672 1.303-6 2.013-5.387 2.482-7.271 2.617-10.5.08-1.925.1-4.062.044-4.75-.147-1.821-2.101-1.534-2.101.309M86.063 1164.101c-.034 1.43.352 3.905.86 5.5.507 1.594 1.24 4.699 1.628 6.899.388 2.2.911 3.435 1.163 2.744.251-.691.981-.995 1.621-.676.641.319.449-.016-.426-.744s-1.904-3.691-2.286-6.583c-.382-2.893-1.1-6.268-1.595-7.5-.881-2.192-.903-2.184-.965.36m1041.492 24.721c-.41 1.826-.499 3.567-.199 3.868.753.752 1.945-4.3 1.392-5.897-.246-.711-.783.202-1.193 2.029m-754.206 18.174c.705 3.525 3.902 8.751 4.414 7.215.402-1.205-3.491-10.211-4.413-10.211-.33 0-.33 1.348-.001 2.996m23.651 6.51c0 1.729 4.381 10.494 5.246 10.494.661 0 .664-.422.007-1.25-.546-.687-1.534-2.931-2.196-4.986-1.046-3.249-3.057-6.05-3.057-4.258m-15.965 8.544c.02.798.721 2.575 1.557 3.95l1.522 2.5-.628-3c-.688-3.291-2.509-5.854-2.451-3.45m.965 8.516c0 1.305 2.45 5.117 4.885 7.601 1.438 1.466 2.653 3.041 2.699 3.5.212 2.115 2.471 6.333 3.391 6.333 1.305 0 1.291-.183-.273-3.635-2.542-5.612-5.22-9.362-6.375-8.927-.646.242-1.635-.882-2.198-2.499-.903-2.59-2.129-3.957-2.129-2.373m-255 16.708c0 1.435.468 2.897 1.04 3.251.682.421.806-.333.359-2.191-.92-3.832-1.399-4.194-1.399-1.06m269-1.385c0 .489.922 1.952 2.049 3.25l2.05 2.361-1.575-3.25c-1.55-3.198-2.524-4.109-2.524-2.361m-267.42 6.981c-.307.497.112 1.459.931 2.139 1.211 1.005 1.489.944 1.489-.328 0-1.866-1.631-3.087-2.42-1.811m668.6 10.638c-2.41 2.771-2.659 3.492-1.206 3.492.536 0 1.673-1.35 2.526-3 1.891-3.657 1.545-3.787-1.32-.492M107 1266.059c0 1.132.45 1.781 1 1.441.55-.34 1-1.266 1-2.059 0-.793-.45-1.441-1-1.441s-1 .927-1 2.059m681.118 11.131c-1.715 1.755-3.678 4.455-4.363 6-.684 1.546-1.535 2.81-1.892 2.81s-.908.675-1.225 1.5c-.316.825-.387 1.5-.157 1.5.745 0 6.51-6.475 6.514-7.317.003-.449 1.183-2.361 2.624-4.25 3.284-4.306 2.583-4.42-1.501-.243m-368.129.297c.679.818.979 2.154.667 2.968-.313.815-.19 1.715.273 2.001.946.585 1.932-3.372 1.308-5.244-.222-.666-1.096-1.212-1.943-1.212-1.249 0-1.306.28-.305 1.487M119.063 1286c-.253 2.053 8.695 21.576 9.513 20.757.243-.243-.848-3.1-2.425-6.349a767.642 767.642 0 0 1-4.947-10.408c-1.144-2.475-2.108-4.275-2.141-4m11.169 26c-.713 1.141-.825 2-.261 2 .544 0 1.907 1.8 3.029 4 1.122 2.2 1.737 4 1.365 4-.371 0 .035.787.902 1.75s1.909 3.1 2.315 4.75c.406 1.65 1.69 4.575 2.854 6.5 1.164 1.925 3.652 7.1 5.529 11.5 1.876 4.4 4.452 9.679 5.724 11.731 1.271 2.052 3.035 5.539 3.92 7.75.884 2.21 2.009 4.019 2.5 4.019.49 0 .891.482.891 1.072 0 1.591 5.159 10.103 5.759 9.502.284-.283-5.853-13.367-13.638-29.075-7.784-15.708-15.319-31.471-16.744-35.029-1.424-3.559-2.659-6.47-2.743-6.47-.084 0-.715.9-1.402 2M492 1339.335c0 .311 1.379 2.608 3.065 5.106 1.685 2.497 2.787 4.99 2.448 5.538-.342.553.004.76.775.464.765-.294 2.004.274 2.754 1.261 1.151 1.518 1.15 1.608-.005.581-1.087-.966-1.656-.864-2.776.5-.775.943-1.156 1.203-.846.578.31-.625-.107-1.692-.926-2.372-.819-.68-1.489-.963-1.489-.631 0 .333-1.532-.255-3.404-1.306-6.772-3.804-4.493-.056 6.404 10.531 1.925 1.87 5.36 5.203 7.633 7.408 2.273 2.204 4.695 4.007 5.382 4.007.687 0 2.77.94 4.63 2.089 3.069 1.898 5.809 2.724 10.532 3.178.922.089 1.458.515 1.191.947-.268.432.351.786 1.373.786s2.399.54 3.059 1.2c.933.933 1.2.913 1.2-.094 0-.711-.9-1.529-2-1.816-1.1-.288-2-.94-2-1.45 0-.509-2.362-3.04-5.25-5.623s-11.212-10.715-18.5-18.071c-7.288-7.356-13.25-13.121-13.25-12.811m-11.333 7.332c-1.172 1.171-.735 1.861 2.32 3.667 2.867 1.693 2.96 1.691 2.306-.035-.67-1.77-2.762-4.299-3.555-4.299-.223 0-.705.3-1.071.667M499.5 1370c.995 1.1 2.429 2 3.186 2 .757 0 1.624.644 1.926 1.43.471 1.229 6.388 4.106 6.388 3.106 0-.529-11.86-8.536-12.644-8.536-.366 0 .149.9 1.144 2m23.75 12.689c.962.252 1.75.831 1.75 1.286 0 .456 1.417 1.323 3.149 1.927 4.085 1.424 4.338 1.39 2.86-.391-.68-.819-1.568-1.283-1.975-1.032-.407.251-1.593-.189-2.637-.979-1.043-.79-2.572-1.399-3.397-1.352-1.05.059-.975.221.25.541m11.223 4.355c-.325.526-.376.956-.114.956.263 0 1.189.273 2.059.607.87.334 1.582.157 1.582-.393 0-1.399-2.809-2.331-3.527-1.17m-364.441 2.515c-.018.582.629 1.932 1.436 3 .808 1.067 1.483 1.465 1.5.882.018-.582-.629-1.932-1.436-3-.808-1.067-1.483-1.465-1.5-.882M539 1392.356c0 .985 7.54 4.805 13.341 6.759 3.387 1.141 6.442 2.534 6.789 3.096.416.672 1.225.69 2.368.05 1.426-.798.24-1.699-6.631-5.039-7.32-3.558-15.867-6.179-15.867-4.866m24 5.571c0 1.405 5.038 5.073 6.968 5.073.934 0 1.984.286 2.334.635.349.349 2.561.802 4.916 1.006 5.146.445 6.782.985 6.782 2.236 0 1.635-11.283.467-16.75-1.734-2.888-1.163-5.25-1.94-5.25-1.727 0 1.126 7.613 4.585 15.047 6.837 16.952 5.135 30.877 7.791 43.21 8.24 3.983.145 10.012.603 13.397 1.018 6.258.767 11.346.139 11.346-1.399 0-1.194-5.776-2.072-18-2.736-5.775-.314-11.85-1.146-13.5-1.85-1.65-.703-4.751-1.353-6.892-1.443-2.141-.091-4.669-.581-5.619-1.089-.949-.508-1.954-.695-2.233-.416-.862.862-13.762-2.759-13.181-3.7.301-.487 1.559-.631 2.795-.321s2.896.694 3.689.852c.792.159 2.116.528 2.941.82 2.854 1.011 16.542 2.733 27 3.397 5.775.366 10.786 1.106 11.135 1.643 1.223 1.881 22.865.841 22.865-1.098 0-.697-3.05-.989-13.911-1.33-3.526-.111-5.581-.493-4.566-.849 3.224-1.131-.092-2.121-8.684-2.592-4.456-.244-8.512-.698-9.014-1.008-.502-.31-1.602.008-2.445.708-1.13.938-1.718.972-2.239.129-.828-1.34-14.565-3.664-16.734-2.832a1.593 1.593 0 0 1-2.052-.914c-.693-1.807-4.456-1.946-6.302-.233-1.091 1.012-1.249.964-.832-.25.385-1.12-.342-1.546-2.869-1.68-2.103-.112-3.143.21-2.747.85.403.651-.119.626-1.419-.07-1.13-.605-3.434-1.1-5.12-1.1s-3.066-.45-3.066-1-.702-1-1.559-1-1.281.45-.941 1c.35.567-.487 1-1.933 1-1.467 0-3.08-.849-3.799-2-1.307-2.093-2.768-2.659-2.768-1.073M259.828 1519.5c4.152 5.791 9.059 10.946 9.756 10.249.388-.387-2.133-3.527-5.601-6.977-3.469-3.449-5.338-4.922-4.155-3.272m44.263 27.369c2.975 3.228 6.036 6.164 6.802 6.524 2.779 1.305 2.115-.22-1.533-3.52a451.782 451.782 0 0 1-6.621-6.123c-5.052-4.802-4.257-2.967 1.352 3.119M290 1554.853c0 .415 1.575 2.281 3.5 4.147s3.5 3.148 3.5 2.85c0-.299-1.575-2.165-3.5-4.147-1.925-1.982-3.5-3.264-3.5-2.85m23.055.897c.031.412 1.485 1.875 3.233 3.25l3.177 2.5-2.301-3.25c-2.121-2.997-4.24-4.287-4.109-2.5" fill-rule="evenodd"/></svg>