<svg xmlns="http://www.w3.org/2000/svg" width="1240" height="1753"><path d="M982.139 106.065c-1.697.91-2.825 1.916-2.506 2.234.87.871-4.369 5.764-5.849 5.462-.706-.143-1.615-.711-2.019-1.261-.448-.611-.74-.49-.75.309-.009.783-.511 1.002-1.251.545-.679-.42-2.664-.64-4.411-.49-2.167.187-3.481-.271-4.136-1.441-.575-1.027-2.363-1.801-4.455-1.928-1.922-.116-3.939-.486-4.481-.821-.543-.336-1.821.001-2.842.747-1.02.746-2.487 1.114-3.26.818-1.111-.427-1.254.143-.684 2.736.503 2.291.386 3.07-.388 2.591-.609-.376-1.107-.082-1.107.654s-.955 2-2.123 2.809c-1.167.809-2.629 1.951-3.25 2.539-.62.587-2.635.894-4.477.683-1.871-.215-3.101.02-2.785.531.945 1.529-3.675 4.73-6.745 4.674-1.584-.029-3.497.564-4.25 1.317-.754.753-1.37 1.058-1.37.676s-.761-.076-1.692.679c-1.459 1.183-1.57 1.166-.808-.128.714-1.212.607-1.276-.558-.335-1.493 1.207-1.921 1.335-4.442 1.335-1.659 0-2.082 2.638-.508 3.167 1.117.375-1.931 7.833-3.2 7.833-.436 0-.792.618-.792 1.373s-.936 3.488-2.079 6.073c-1.143 2.585-1.833 5.342-1.531 6.127.301.785.162 1.427-.308 1.427s-1.205 2.137-1.632 4.75c-.427 2.613-.986 5.425-1.242 6.25-.256.825-.568 3.127-.695 5.117-.126 1.989-.588 4.196-1.026 4.904-.437.708-.956 4.03-1.152 7.383-.307 5.268-1.211 10.236-3.928 21.596-.328 1.375-.68 2.95-.78 3.5-.101.55-.462 1.45-.802 2-.762 1.232-3.225 11.357-5.331 21.915-.869 4.353-1.748 8.187-1.954 8.521-.423.684-1.566 7.893-2.035 12.845-.172 1.805-.801 3.871-1.4 4.592-.598.721-.84 1.558-.538 1.861.303.302-.141 2.204-.986 4.226s-1.47 3.983-1.39 4.358c.284 1.331-1.466 8.699-2.325 9.789-.787.997-1.373 3.211-3.413 12.893-.348 1.65-1.717 5.375-3.043 8.277-1.325 2.903-2.41 6.304-2.41 7.559s-.661 3.155-1.468 4.223c-.808 1.067-1.483 2.969-1.5 4.226-.018 1.257-.656 3.282-1.42 4.5-.763 1.218-1.735 4.015-2.16 6.215-.425 2.2-.875 4.45-.999 5-.125.55-.508 2.74-.853 4.867-.344 2.126-.823 4.184-1.063 4.573-.433.701-2.84 11.426-4.502 20.06-1.837 9.546-2.055 10.426-5.035 20.321-.55 1.827-1 4.714-1 6.417 0 1.702-.456 3.247-1.014 3.433-.558.186-1.222 1.911-1.476 3.834-.253 1.922-1.201 6.195-2.106 9.495-.905 3.3-1.748 6.675-1.872 7.5-.124.825-.701 2.625-1.283 4s-1.626 5.2-2.319 8.5c-.694 3.3-1.512 6.45-1.819 7-.896 1.607-1.105 8.386-.275 8.899 1.448.895 3.36-1.151 3.512-3.757.083-1.44.657-2.812 1.273-3.049.617-.238 1.003-1.515.857-2.839-.157-1.433.445-2.85 1.489-3.501 1.525-.953 1.709-.749 1.421 1.576-.183 1.469-1.244 5.14-2.36 8.157-2.29 6.194-2.603 11.039-.828 12.814.933.933.933 1.2 0 1.2-.66 0-1.2.863-1.2 1.917s-.437 2.066-.971 2.25c-.534.183-1.142 1.233-1.35 2.333-.429 2.268-1.293 4.678-3.212 8.96-.729 1.627-1.063 3.384-.742 3.904.321.52.057.619-.588.221-.851-.526-1.051.508-.729 3.787.243 2.481.02 4.652-.496 4.824-1.252.417-3.129 11.178-2.931 16.804.369 10.471-.046 16.176-1.398 19.202-.418.936-.523 2.086-.233 2.555.29.47.068 2.629-.494 4.798-.561 2.17-1.099 4.845-1.195 5.945-.096 1.1-.554 2.592-1.018 3.317-.464.724-.597 1.562-.297 1.863.301.3-.068 2.183-.82 4.183s-1.7 5.437-2.106 7.637c-.407 2.2-.895 4.822-1.085 5.827-.19 1.005-1.018 2.499-1.84 3.321-.822.822-1.495 2.363-1.495 3.423 0 1.061-.41 1.929-.912 1.929s-1.207 1.745-1.567 3.878c-.361 2.132-1.188 3.82-1.838 3.75-.651-.071-1.191.097-1.201.372-.01.275-.798 1.613-1.75 2.973-.953 1.359-1.732 3.682-1.732 5.16 0 1.479-.853 5.431-1.897 8.783-1.043 3.351-1.54 6.314-1.104 6.584 1.035.639-.233 6.135-2.366 10.25-.926 1.788-1.436 3.25-1.133 3.25.303 0-.069 1.237-.828 2.75-.759 1.513-1.929 4.994-2.6 7.737-.671 2.742-1.677 5.536-2.234 6.209-.569.685-.709 2.613-.32 4.388.443 2.016.334 2.942-.301 2.55-.878-.542-2.259 3.698-2.761 8.477-.138 1.307-1.116 5.26-1.952 7.889-.087.275-.52 2.3-.962 4.5-.441 2.2-1.113 4.45-1.492 5-.379.55-1.185 2.8-1.791 5-.878 3.193-2.979 10.71-3.772 13.5-.078.275-.495 2.3-.926 4.5-.431 2.2-1.308 4.45-1.948 5-.64.55-1.216 2.125-1.28 3.5-.165 3.559-4.321 21.13-5.539 23.419-1.229 2.309-2.142 7.07-2.076 10.831.027 1.513-.296 2.75-.718 2.75s-.774 1.237-.784 2.75c-.009 1.513-.737 5.9-1.616 9.75-.88 3.849-1.6 8.215-1.6 9.701 0 1.486-.666 5.257-1.479 8.38-.813 3.123-1.243 6.059-.955 6.525.288.466.07 2.546-.485 4.621-1.045 3.911-1.818 9.188-2.6 17.773-.251 2.75-.696 6.125-.99 7.5-.513 2.402-1.234 8.607-1.859 16-.163 1.925-.626 5.75-1.03 8.5-.403 2.75-.886 6.125-1.073 7.5-.188 1.375-.874 4.75-1.524 7.5-.651 2.75-1.309 6.575-1.462 8.5-.727 9.141-2.761 21.558-3.72 22.713-.587.708-.846 1.287-.575 1.287.453 0-.521 5.922-1.974 12-.328 1.375-.542 3.754-.473 5.286.069 1.557-.3 2.523-.838 2.191-.559-.345-.973 1.213-.987 3.714-.014 2.37-.515 6.334-1.114 8.809-.6 2.475-1.256 5.4-1.458 6.5-1.709 9.28-3.452 15.95-5.487 21-.86 2.134-3.665 16.681-4.338 22.5-.38 3.277-.631 4.28-2.189 8.75-.336.962-.818 4.595-1.071 8.072-.285 3.906-1.103 7.069-2.14 8.28-1.8 2.1-2.169 3.858-2.281 10.876-.04 2.463-.461 5.206-.937 6.095-.476.89-1.066 2.7-1.311 4.022-.246 1.323-.766 4.089-1.158 6.146-.391 2.058-1.112 3.494-1.602 3.191-.767-.474-1.223 3.875-1.293 12.318-.01 1.237-.422 2.25-.915 2.25-.493 0-.626.704-.296 1.563.33.86-.072 2.863-.893 4.451-.821 1.588-1.496 3.697-1.499 4.686-.004.99-.633 3.001-1.398 4.468-.766 1.468-1.749 4.618-2.185 7-.436 2.383-.863 4.557-.95 4.832-.086.275-.508 2.413-.937 4.75-.429 2.338-1.127 4.25-1.552 4.25-.688 0-2.127 5.936-3.503 14.454-.263 1.625-.89 3.367-1.395 3.872-.505.505-.68 1.538-.389 2.296.291.758.08 1.378-.469 1.378-.548 0-1.224 1.463-1.501 3.25-.839 5.414-1.756 8.959-2.845 10.992-.569 1.064-1.232 3.131-1.473 4.596-.241 1.464-.74 4.012-1.108 5.662-.368 1.65-.584 3.338-.479 3.75.104.412-.21.75-.699.75-.78 0-1.447 2.253-2.791 9.422-.198 1.056-.736 2.406-1.196 3-.779 1.005-2.733 7.995-3.763 13.463-.247 1.311-1.113 3.669-1.925 5.239-.812 1.57-1.448 3.088-1.412 3.374.072.583-1.087 7.201-1.664 9.502-.207.825-.919 3.975-1.582 7-.664 3.025-1.534 5.735-1.933 6.022-.399.287-.7 2.383-.669 4.657.032 2.274-.251 4.634-.629 5.244-.377.611-.878 2.34-1.114 3.843-.235 1.504-1.581 7.684-2.991 13.734-1.409 6.05-2.959 13.025-3.443 15.5a564.79 564.79 0 0 1-2.322 11c-.792 3.575-2.016 9.2-2.72 12.5-.703 3.3-1.653 6.341-2.11 6.758-.457.417-.625.471-.374.119s.044-1.411-.461-2.354c-.504-.942-1.121-2.796-1.371-4.118-.25-1.323-1.107-4.43-1.904-6.905a295.702 295.702 0 0 1-2.709-9c-.693-2.475-1.648-5.625-2.121-7-.474-1.375-1.114-4.024-1.423-5.888-.309-1.863-1.01-4.225-1.558-5.25-.548-1.024-.759-1.862-.469-1.862.29 0-.136-1.687-.946-3.75-.81-2.062-2.349-7.35-3.419-11.75-3.035-12.47-5.024-19.504-6.065-21.45-.526-.983-.672-2.071-.325-2.419.347-.347.176-.631-.381-.631-.558 0-1.013-1.783-1.013-3.962 0-2.179-.48-4.542-1.066-5.25-1.752-2.119-5.125-11.788-4.111-11.788.555 0 .518-.787-.089-1.921-.947-1.77-2.267-7.869-2.343-10.829-.018-.687-.482-1.25-1.032-1.25s-.735-.266-.41-.59c.325-.325-.087-2.463-.915-4.75-.828-2.288-1.639-5.06-1.803-6.16-.164-1.1-.842-3.35-1.507-5-1.678-4.162-2.238-6.612-2.133-9.325.05-1.279-.427-3.293-1.06-4.477-1.277-2.385-2.64-7.43-3.392-12.557-.271-1.847-.905-4.128-1.408-5.069-.504-.94-.877-3.048-.831-4.683.047-1.636-.415-3.908-1.027-5.05-.611-1.142-.826-2.36-.479-2.708.347-.347.203-.631-.321-.631s-1.038-.9-1.143-2c-.402-4.227-.592-5-1.226-5-.361 0-1.266-2.925-2.012-6.5s-1.614-6.501-1.928-6.502c-.315-.001-.668-1.366-.784-3.034-.117-1.667-.909-3.728-1.76-4.579-.851-.851-1.501-2.748-1.444-4.216.144-3.707-.868-7.597-2.08-8.001-.559-.186-.762-.75-.451-1.253.311-.503.138-.915-.383-.915s-.92-.562-.886-1.25c.122-2.462-1.552-7.75-2.453-7.75-.505 0-.808-.563-.672-1.25.135-.687-.308-2.872-.985-4.854-.678-1.981-1.41-4.456-1.627-5.5-.397-1.913-2.613-8.532-5.321-15.896-.809-2.2-1.561-4.675-1.671-5.5-.111-.825-1.185-3.6-2.388-6.167-1.203-2.567-2.616-6.842-3.139-9.5-1.143-5.801-4.146-15.903-6.845-23.024-1.082-2.855-1.679-5.479-1.327-5.832.353-.352-.033-1.166-.858-1.809-.824-.642-1.631-2.867-1.794-4.943-.164-2.077-1.142-5.748-2.176-8.159-1.033-2.41-1.612-4.649-1.286-4.974.325-.326.165-.592-.355-.592-.521 0-.961-1.462-.978-3.25-.031-3.206-2.278-11.924-4.833-18.75-.721-1.925-2.099-6.2-3.062-9.5-.964-3.3-2.562-8.25-3.552-11-.99-2.75-2.559-7.7-3.487-11-.929-3.3-2.311-7.687-3.073-9.75-.762-2.062-1.052-3.757-.644-3.765.408-.009.067-.452-.758-.985-1.22-.789-1.238-.972-.095-.985 1.18-.013 1.168-.296-.072-1.765-1.524-1.805-3.403-7.492-4.213-12.75-.8-5.195-1.207-6.487-2.43-7.71-.655-.655-1.19-2.38-1.19-3.833 0-1.454-.849-5.112-1.887-8.129-1.038-3.017-2.154-7.39-2.479-9.718-.326-2.329-.895-4.723-1.264-5.321-.572-.925-1.077-3.959-1.589-9.539-.063-.687-.516-1.25-1.007-1.25-.49 0-.614-.45-.274-1 .34-.55.238-1-.227-1-.464 0-.904-.788-.977-1.75-.395-5.22-1.202-9.205-2.264-11.19-.657-1.227-.966-2.459-.688-2.737.278-.279-.305-2.4-1.297-4.713-.992-2.314-2.169-6.21-2.616-8.658a1512.6 1512.6 0 0 0-.909-4.952c-.271-1.404-3.909-12.972-5.075-16.137-.737-2-1.064-3.912-.727-4.25.337-.337.163-.613-.387-.613s-1.005-.562-1.012-1.25c-.007-.687-1.024-3.455-2.26-6.15-1.237-2.696-2.453-6.071-2.703-7.5-.251-1.43-1.263-4.175-2.25-6.1-.986-1.925-1.62-4.007-1.409-4.626.212-.62-.796-3.77-2.239-7-1.444-3.231-2.791-6.686-2.995-7.678-.204-.993-1.557-4.312-3.007-7.377-1.45-3.065-2.841-6.701-3.091-8.08-.25-1.38-1.092-3.741-1.871-5.247-.779-1.506-1.218-2.937-.975-3.18.243-.243-.501-2.887-1.652-5.877a1946.992 1946.992 0 0 1-4.354-11.435c-1.243-3.3-2.827-7.35-3.521-9-.694-1.65-1.424-4.25-1.623-5.777-.198-1.527-1.053-3.834-1.899-5.125-.846-1.292-1.717-3.276-1.936-4.409-.218-1.132-1.527-4.423-2.91-7.311-1.382-2.889-2.287-5.618-2.01-6.065.276-.447.1-.813-.39-.813-.491 0-.915-.562-.943-1.25-.028-.687-1.222-3.837-2.654-7s-2.416-5.75-2.187-5.75c.229 0-.944-3.712-2.608-8.25-1.663-4.537-4.459-12.3-6.214-17.25-1.754-4.95-3.736-9.983-4.405-11.184-.668-1.202-1.215-2.696-1.215-3.322 0-.625-.679-1.816-1.509-2.646-.83-.83-1.252-1.926-.937-2.436.315-.509-.131-1.196-.991-1.526-.859-.33-1.563-1.448-1.563-2.484 0-1.037-1.302-4.926-2.892-8.643-3.261-7.618-6.364-16.013-6.75-18.259-1.057-6.155-3.908-15.693-5.023-16.808-.745-.744-1.098-1.767-.785-2.273.312-.505.196-.919-.258-.919-.455 0-.753-1.575-.662-3.5.09-1.925-.314-3.5-.899-3.5-.586 0-.79-.274-.455-.609.335-.335-.259-2.81-1.319-5.5S422.241 472 422.5 472c.259 0-.416-2.25-1.5-5s-1.775-5-1.536-5c.238 0-.283-1.688-1.158-3.75-.876-2.062-1.745-4.65-1.932-5.75-1.131-6.671-2.521-11.481-4.323-14.961-1.128-2.179-2.051-4.712-2.051-5.628 0-.917-.718-3.385-1.595-5.484-.877-2.1-1.753-4.636-1.945-5.636-.193-1-1.769-5.975-3.504-11.055-1.734-5.08-3.329-10.136-3.545-11.236-.423-2.16-2.811-9.576-5.152-16-.801-2.2-1.633-4.9-1.848-6-.4-2.047-2.671-9.151-4.999-15.637-.718-2-1.029-3.912-.692-4.25.337-.337.185-.613-.339-.613s-1.024-.788-1.112-1.75c-.397-4.334-2.24-12.226-4.071-17.433-1.1-3.125-1.758-5.923-1.464-6.218.294-.294-.047-1.941-.759-3.659-.712-1.718-1.393-4.598-1.513-6.4-.121-1.802-.708-4.798-1.304-6.658-.596-1.86-1.293-5.632-1.548-8.382-.255-2.75-.917-6.191-1.473-7.647-.555-1.456-.768-2.888-.473-3.183.294-.295-.051-2.254-.767-4.353-.716-2.099-1.194-4.369-1.061-5.044.132-.674-.49-2.342-1.384-3.706-.893-1.363-1.34-2.94-.992-3.502.348-.563.122-1.977-.501-3.142-.992-1.854-2.039-6.864-2.23-10.673-.034-.687-.365-1.25-.735-1.25s-.576-1.462-.458-3.25c.117-1.788-.179-4.005-.658-4.929-.48-.923-1.067-3.173-1.305-5-.239-1.826-.867-5.233-1.397-7.571-.53-2.337-.77-4.25-.535-4.25.236 0-.065-.923-.669-2.052-1.08-2.018-4.741-15.052-5.604-19.948-.242-1.375-.967-4.075-1.611-6-.645-1.925-1.192-3.725-1.218-4-.187-2.027-3.146-9.8-4.217-11.079-.727-.868-1.322-2.353-1.322-3.299 0-.947-.622-2.936-1.382-4.422-.76-1.485-1.695-4.587-2.078-6.892-.383-2.306-1.336-4.724-2.118-5.373-.782-.649-1.422-1.733-1.422-2.409 0-.675-1.143-3.377-2.539-6.004-1.397-2.627-2.317-5-2.044-5.273.274-.273-.812-3.028-2.411-6.123-1.6-3.094-3.12-6.83-3.378-8.302-.258-1.471-1.329-4.621-2.382-7-1.052-2.378-1.725-4.887-1.496-5.574.229-.688-.071-1.25-.667-1.25-.596 0-1.091-.562-1.1-1.25-.036-2.703-5.695-12.241-7.07-11.917-.777.184-1.103.023-.723-.356.997-.998-2.179-3.926-5.839-5.383-1.733-.689-7.583-1.446-13-1.683-5.418-.236-11.201-.506-12.851-.6-1.65-.095-4.148.472-5.551 1.259-6.081 3.41-8.937 5.506-8.943 6.563-.009 1.59-3.613 2.36-4.922 1.051-.779-.779-1.084-.716-1.084.223 0 .751-.638 1.062-1.5.731-1.666-.639-2.076.888-.5 1.862.55.34 1 1.041 1 1.559s-.89.051-1.977-1.036c-1.089-1.089-2.662-1.715-3.5-1.393-1.377.528-1.647 1.078-1.464 2.983.1 1.046-5.164 3.387-7.614 3.387-1.28 0-2.573.398-2.874.885-.3.486-2.577 1.189-5.059 1.561-2.481.372-4.512 1.126-4.512 1.674 0 .549-.476.704-1.058.344-.581-.359-2.719.426-4.75 1.746-5.736 3.728-15.875 8.239-17.83 7.932-.625-.098-2.425.312-4 .91-1.574.599-3.087 1.137-3.362 1.197-.275.059-1.095.703-1.821 1.43-.727.726-2.302 1.378-3.5 1.449-5.308.311-6.943.68-7.582 1.715-.743 1.202-13.229 3.312-19.475 3.291-2.133-.006-4.882.646-6.109 1.45-1.227.804-2.924 1.195-3.771.871-.847-.325-1.837-.111-2.2.477-.363.587-2.321 1.08-4.351 1.096-2.746.02-4.434.785-6.592 2.984-2.615 2.665-3.02 2.794-4.108 1.307-1.108-1.516-1.292-1.497-2.261.234-1.008 1.802-1.14 1.78-2.985-.498-1.973-2.438-6.245-3.839-6.245-2.049 0 .547-.675.994-1.5.994s-1.5.49-1.5 1.089c0 .714-1.464.871-4.25.455-4.455-.664-13.837-1.611-17.25-1.742-6.741-.258-8.379.312-12.374 4.307-2.26 2.26-3.861 4.51-3.559 5 .303.49.074.891-.508.891S91 170.675 91 171.5s-.697 1.5-1.55 1.5c-1.3 0-1.442-.951-.882-5.902.606-5.35.47-6.007-1.45-7.035-1.59-.851-2.118-.845-2.118.024 0 .836-.361.858-1.298.08-2.326-1.93-8.21-1.705-10.798.413-2.587 2.119-2.893 2.831-3.807 8.87-.556 3.68-1.041 4.172-7.096 7.201-3.873 1.937-6.864 2.886-7.403 2.347-.539-.539-1.752-.451-3.001.218-1.153.617-2.322 1.109-2.597 1.092-1.812-.108-6 2.114-6 3.183 0 .712-.736 1.578-1.636 1.923-1.504.577-1.506.772-.029 2.403 2.773 3.065.378 11.058-4.109 13.708-2.193 1.296-2.893 2.453-2.893 4.786 0 1.92-.683 3.473-1.819 4.133-1 .581-2.538 1.901-3.417 2.935-.878 1.033-3.059 3.243-4.847 4.91-3.791 3.537-4.1 5.256-1.086 6.044 1.719.449 1.927.853 1.009 1.958-.636.766-.892 1.657-.569 1.98.322.322.783 4.098 1.023 8.389.24 4.292.872 8.239 1.405 8.772.532.532.968 1.937.968 3.121s1.085 5.144 2.411 8.8c1.326 3.656 2.171 6.647 1.877 6.647-.293 0 .069.725.804 1.611.735.885 1.494 2.798 1.687 4.25.193 1.451 1.222 3.568 2.286 4.703 1.064 1.136 1.935 2.823 1.935 3.75 0 .928.45 1.686 1 1.686s.899.337.775.75c-.28.936 1.974 9.534 3.771 14.387.741 2 1.071 3.912.734 4.25-.337.337-.201.613.303.613.505 0 .959 1.012 1.011 2.25.143 3.397 1.364 8.803 2.445 10.822.528.988.961 2.464.961 3.279 0 .816.974 3.658 2.164 6.316 1.19 2.658 2.068 5.236 1.951 5.728-.303 1.281 2.821 10.456 5.02 14.741 1.026 2 1.865 4.536 1.865 5.635 0 2.043 2.176 9.851 4.562 16.366.732 2 1.065 3.902.74 4.227-.325.325.107 2.514.959 4.864 2.216 6.11 2.839 8.843 4.137 18.136.297 2.126.761 4.601 1.032 5.5.771 2.565 1.665 7.271 2.211 11.636.275 2.2 1.252 6.025 2.171 8.5.919 2.475 1.691 4.725 1.717 5 .06.651 2.946 9.969 6.969 22.5 5.327 16.591 6.007 18.962 5.701 19.891-.161.49.361 2.29 1.159 4 .799 1.71 1.985 5.134 2.635 7.609 2.25 8.56 3.889 14.554 7.517 27.5 2.004 7.15 3.882 14.688 4.172 16.75.29 2.063.931 3.75 1.423 3.75s.895.62.895 1.378c0 .757.639 1.907 1.419 2.555 2.028 1.683 3.697-1.497 2.474-4.714-.499-1.313-.64-2.819-.314-3.347s-.097-2.014-.941-3.301c-1.43-2.183-1.271-3.571.41-3.571.883 0 2.952 7.982 2.952 11.386 0 2.73 3.651 9.614 5.099 9.614.495 0 .901 1.492.901 3.316 0 1.824.429 5.762.952 8.75.524 2.989 1.166 6.937 1.427 8.775.261 1.837 1.229 4.173 2.151 5.192.921 1.018 1.467 2.44 1.213 3.159-.254.719.368 3.446 1.383 6.058 1.015 2.612 1.617 4.75 1.339 4.75-1.084 0 3.536 7.786 4.94 8.325 2.284.877 5.052 6.886 5.521 11.984.041.445.459.571.93.28.47-.291.643.583.383 1.941-.26 1.359-.001 2.47.574 2.47.576 0 2.053 3.262 3.283 7.25 1.229 3.987 2.675 7.823 3.212 8.524.537.701.712 1.539.388 1.863-.324.324.04 2.226.809 4.226 1.633 4.251 2.518 8.694 3.111 15.636.235 2.75.857 6.555 1.382 8.456.617 2.234.608 3.671-.026 4.062-1.703 1.053-.365 9.46 2.703 16.983.336.825.729 2.64.874 4.033.144 1.392 1.249 4.206 2.456 6.251 1.207 2.045 2.347 5.181 2.534 6.967.712 6.809 5.092 25.883 6.114 26.63.466.341.969 1.969 1.119 3.619.149 1.65.91 4.8 1.691 7s1.622 5.4 1.87 7.112c.247 1.712 1.026 4.187 1.731 5.5.705 1.313 1.408 3.513 1.562 4.888.623 5.553 1.319 8.931 3.769 18.312 1.41 5.396 2.477 10.121 2.372 10.5-.106.378.309 1.588.921 2.688.613 1.1 1.34 3.435 1.616 5.189.276 1.753.761 3.608 1.078 4.12.781 1.264 3.698 12.031 4.188 15.456.217 1.521 1.113 4.155 1.992 5.854.878 1.699 1.715 4.054 1.86 5.235.144 1.18 1.011 3.893 1.925 6.029.914 2.136 1.863 4.992 2.109 6.348.246 1.355 1.779 5.311 3.407 8.789 1.627 3.479 2.699 6.584 2.381 6.902-.317.318-.026.578.648.578s.998.368.72.818c-.278.45.638 3.263 2.036 6.25 1.398 2.988 2.689 6.332 2.869 7.432.354 2.165 8.98 22.581 13.309 31.5 1.469 3.025 2.558 5.837 2.422 6.25-.136.413.229.75.811.75.582 0 .832.367.555.816-.656 1.06 1.558 7.482 3.305 9.586.745.899 1.418 2.413 1.494 3.366.18 2.259 3.44 11.724 5.199 15.095.756 1.45 1.378 3.176 1.382 3.834.003.658 1.131 3.313 2.506 5.899 1.375 2.586 2.5 5.564 2.5 6.619 0 1.054.496 2.843 1.102 3.975.606 1.132 1.249 3.015 1.429 4.184.55 3.574 3.887 12.04 5.353 13.581.987 1.038 1.051 1.567.225 1.842-.79.263-.551 1.391.754 3.545 1.813 2.995 5.371 13.727 5.439 16.408.017.688.406 1.25.865 1.25.458 0 .741.337.628.75-.113.413.392 2.498 1.122 4.633.729 2.136 1.944 6.636 2.699 10 .755 3.365 1.587 6.792 1.849 7.617.263.825.891 3.181 1.398 5.235.506 2.055 1.863 5.545 3.015 7.755 1.152 2.211 2.329 5.345 2.614 6.964.285 1.619 1.035 4.204 1.666 5.745.631 1.54 1.31 3.645 1.508 4.677.198 1.032 1.07 3.372 1.937 5.2.867 1.828 1.275 3.813.905 4.411-.369.597.195 2.758 1.253 4.8 1.059 2.042 1.764 4.183 1.567 4.758-.197.575.566 2.038 1.696 3.25 1.13 1.213 1.843 2.205 1.585 2.205s-.024 1.463.521 3.25 1.119 4.193 1.276 5.346c.157 1.152.576 2.566.932 3.142.356.575.844 2.587 1.085 4.471s1.588 5.586 2.993 8.228c1.404 2.642 2.297 5.219 1.983 5.727-.314.508-.06 1.54.565 2.293.626.753 1.344 2.646 1.597 4.206.253 1.56.763 3.962 1.133 5.337.37 1.375.77 3.175.888 4 .118.825.924 3.975 1.792 7a368.617 368.617 0 0 1 2.703 10c.619 2.475 1.578 6.3 2.131 8.5.554 2.2 1.659 5.592 2.456 7.538.797 1.946 1.536 5.207 1.642 7.246.107 2.039.558 3.709 1.003 3.712.445.002.539.441.209.975-.33.533.032 2.221.805 3.75.773 1.528 1.717 5.217 2.098 8.197.381 2.98 1.381 7.03 2.222 9 .841 1.97 1.662 4.932 1.824 6.582.161 1.65.615 4.125 1.008 5.5.392 1.375 1.08 4.3 1.529 6.5.448 2.2 1.539 6.235 2.423 8.967.884 2.731 1.792 6.331 2.018 8 .225 1.668.84 4.383 1.366 6.033.526 1.65 1.437 4.8 2.025 7 3.069 11.485 4.533 16.311 5.858 19.316.804 1.824 1.663 4.424 1.909 5.778.246 1.355 1.419 5.038 2.608 8.185 1.188 3.146 2.258 6.396 2.378 7.221.119.825.679 2.963 1.244 4.75s.779 3.25.475 3.25c-.304 0-.106.563.439 1.25 1.178 1.484 3.751 8.926 3.458 10-.113.412.272.75.854.75s.8.419.483.931c-.316.513.069 2.425.856 4.25.787 1.826 2.428 6.919 3.648 11.319 1.219 4.4 2.817 9.185 3.55 10.633.734 1.448 1.591 4.088 1.904 5.867.313 1.779 1.211 4.475 1.995 5.99.784 1.516 1.202 2.98.928 3.253-.273.273.369 2.693 1.427 5.377 1.058 2.684 1.903 5.105 1.877 5.38-.026.275.52 2.218 1.213 4.317.692 2.099.988 4.088.656 4.42-.332.332.034 1.575.812 2.762.778 1.188 1.681 3.837 2.007 5.887.326 2.05 1.289 5.075 2.141 6.722.852 1.647 1.752 4.579 1.999 6.515.248 1.936.884 4.328 1.413 5.317.529.988.677 2.081.33 2.429-.347.347-.08.631.594.631.674 0 .977.402.674.894-.304.491.134 2.537.974 4.547.839 2.009 1.426 4.194 1.304 4.856-.388 2.109 1.278 7.703 2.294 7.703.539 0 .685.477.325 1.06-.361.584-.198 2.271.361 3.75.559 1.48 1.775 5.39 2.703 8.69.927 3.3 2.358 7.8 3.179 10 .821 2.2 1.664 4.675 1.875 5.5 3.187 12.502 4.484 17.389 5.838 22 1.709 5.823 2.552 9.23 3.093 12.5.611 3.698 1.65 7.108 4.876 16 .599 1.65 1.133 3.225 1.187 3.5.054.275.374 1.175.712 2 1.316 3.213 3.426 11.686 4.109 16.5.234 1.65.957 4.35 1.607 6 .649 1.65 1.378 4.125 1.618 5.5.24 1.375.722 3.175 1.072 4 .349.825.729 1.838.846 2.25.116.412.312.862.435 1s.352 1.375.508 2.75c.448 3.951 1.24 7.26 2.511 10.5 1.012 2.577 1.735 6.245 2.219 11.25.067.688.496 1.25.955 1.25.458 0 .754.337.656.75-.097.412.363 2.634 1.022 4.936s1.096 4.552.971 5c-.219.789 2.746 11.147 5.817 20.314.829 2.475 1.753 5.513 2.053 6.75.301 1.238.971 2.25 1.49 2.25.518 0 .724.353.457.784-.642 1.039 3.063 14.312 4.356 15.605.556.556 1.011 2.046 1.011 3.311 0 1.265.477 2.3 1.059 2.3s.789.437.459.971c-.33.533.032 2.221.804 3.75.772 1.528 1.203 3.342.957 4.029-.245.687.002 1.25.549 1.25s.868.787.713 1.75c-.155.963.147 2.577.671 3.588.524 1.01 1.16 2.984 1.414 4.384.254 1.401 1.099 3.78 1.878 5.286.779 1.506 1.176 2.979.882 3.272-.293.294.184 1.921 1.061 3.617.876 1.695 1.638 3.424 1.693 3.843.117.891 1.056 3.405 3.086 8.261.805 1.926 1.335 4.381 1.177 5.456-.173 1.183 1.125 3.325 3.291 5.429 1.968 1.911 4.45 5.445 5.515 7.854 1.065 2.408 2.598 4.633 3.407 4.943 2.211.848 5.661 8.053 4.115 8.594-1.698.594 2.024 4.723 4.258 4.723 3.037 0 9.661 7.361 13.948 15.5 6.925 13.147 11.342 20.005 15.435 23.96 3.291 3.181 4.333 3.649 6.95 3.126 1.693-.339 3.326-.986 3.628-1.438 1.014-1.515 10.535-6.636 11.8-6.347.688.158 1.25-.183 1.25-.757 0-.574.723-1.044 1.607-1.044 1.002 0 1.395-.553 1.044-1.468-.672-1.75.757-2.782 4.272-3.089 4.7-.41 11.536-1.399 14.577-2.111 1.65-.385 3.788-.59 4.75-.454.962.136 1.75-.203 1.75-.753s.788-.986 1.75-.969c3.246.059 6.407-1.061 14.845-5.261 4.623-2.301 8.405-4.793 8.405-5.539 0-.746.338-1.303.75-1.238 1.97.311 3.227-.228 3-1.286-.138-.643.715-1.673 1.893-2.289 1.179-.617 2.769-1.64 3.534-2.275.895-.743 1.912-.823 2.857-.226 2.101 1.329 6.243 1.215 5.4-.149-.641-1.036.987-.776 5.316.851 1.521.572 1.584-.251.215-2.81-.902-1.684-.696-1.934 1.593-1.934 1.74 0 2.797-.641 3.125-1.896.617-2.358 10.016-3.871 13.261-2.134 1.131.605 2.056.804 2.056.443 0-.362.675-.098 1.5.587.825.685 1.5.991 1.5.682 0-.31 1.18.049 2.621.797 1.442.747 3.479 1.194 4.527.993 1.12-.216 1.643.057 1.269.662-.363.587.162.927 1.224.791 1.022-.131 3.209.335 4.859 1.035 1.65.699 4.81 1.355 7.022 1.456 2.211.101 4.574.525 5.25.943.691.427 1.228.27 1.228-.359 0-.615.521-.796 1.157-.403 1.681 1.039 7.859.634 9.362-.613.93-.771 1.431-.709 1.808.224.336.834.814.937 1.347.292.454-.55 1.951-1.126 3.326-1.281 1.375-.155 3.413-.476 4.529-.713 1.388-.296 2.335.266 3 1.781.557 1.269 1.882 2.227 3.106 2.245 1.175.018 2.791.577 3.592 1.242.801.665 1.777.889 2.168.498.391-.391.414.063.051 1.008-.379.988-.189 1.72.447 1.72.609 0 1.107-1.125 1.107-2.5 0-2.602 2.288-3.461 3.594-1.349.49.795 1.143.562 2.102-.75 1.658-2.268 1.247-2.255 4.277-.133 1.359.953 3.449 1.732 4.643 1.732 1.193 0 2.431.679 2.749 1.509.318.829 1.829 2.045 3.357 2.701 1.528.656 3.903 1.952 5.278 2.881 1.375.929 2.841 1.719 3.258 1.755 3.379.295 8.678 1.475 10.742 2.392 1.375.611 2.78 1.052 3.121.979 4.096-.867 5.931-.942 6.353-.26.762 1.233 13.696.582 16.291-.82 1.865-1.007 2.364-.963 2.829.247.31.809 1.427 1.305 2.481 1.102 1.163-.224 2.34.422 2.994 1.643.77 1.44 1.98 1.963 4.254 1.84 1.747-.094 3.514-.07 3.927.055.413.124 1.163.282 1.667.351s1.191.4 1.526.735c.955.955 14.913-.161 16.289-1.303 1.355-1.124 12.223-1.69 12.854-.669.217.352 1.964.534 3.882.405 2.26-.151 4.182.414 5.461 1.605 1.535 1.431 2.525 1.63 4.453.897 1.93-.734 3.027-.511 4.956 1.006 3.002 2.362 3.369 2.385 5.416.338 1.481-1.481 1.722-1.461 2.999.25.763 1.024 1.753 1.766 2.2 1.65.446-.116.752.542.679 1.462-.175 2.216 3.1 2.86 3.534.696.283-1.411.642-1.307 2.334.675 1.479 1.733 1.544 1.991.25.988-1.49-1.154-1.75-1.133-1.75.137 0 .934 1.328 1.707 3.553 2.068 1.954.317 4.63 1.613 5.946 2.881 4.136 3.98 7.545 2.465 6.744-2.997-.261-1.775.058-4.511.708-6.081 1.084-2.618 1.569-2.835 5.866-2.634 2.575.121 4.795.342 4.933.493.138.15.7.385 1.25.523s1.112.341 1.25.452c1.989 1.603 11.463-.99 10.328-2.826-.312-.504.134-1.185.991-1.514.857-.329 1.278-1.051.935-1.605-.342-.554-.145-1.007.437-1.007s1.059-.862 1.059-1.917c0-1.054.436-2.066.969-2.25.533-.183 1.233-2.133 1.555-4.333.322-2.2 1.116-5.575 1.763-7.5 1.185-3.524 1.294-4.178 1.565-9.309.084-1.59.582-2.541 1.148-2.191.55.34 1-.135 1-1.054 0-.92.879-5.334 1.954-9.809s2.2-9.487 2.501-11.137c.301-1.65 1.244-5.7 2.096-9 1.319-5.112 4.292-19.005 6.151-28.75.289-1.512.91-2.75 1.38-2.75.47 0 .594-.681.275-1.513-.32-.832-.084-2.111.522-2.842.607-.731.832-1.601.5-1.933-.333-.332-.093-2.766.533-5.408 1.785-7.541 2.139-9.494 2.593-14.304.234-2.475.613-5.4.841-6.5.977-4.704 2.638-16.347 2.926-20.508.171-2.48.631-5.027 1.023-5.66.391-.633.463-1.8.158-2.593-.304-.793.344-4.096 1.441-7.341 1.097-3.244 2.22-7.248 2.497-8.898.869-5.185 1.665-8.93 2.337-11 .805-2.477 1.187-4.347 1.48-7.25.126-1.238.612-2.25 1.082-2.25.469 0 .753-1.013.63-2.25-.122-1.237.349-3.6 1.048-5.25.699-1.65 1.854-5.925 2.567-9.5.712-3.575 1.835-7.85 2.495-9.5.659-1.65 1.317-4.575 1.461-6.5.144-1.925 1.235-7.775 2.423-13s2.353-10.4 2.59-11.5c3.407-15.865 4.383-20.299 5.059-23 1.605-6.408 2.643-11.874 3.037-16 .482-5.045.796-6.94 1.906-11.5.335-1.375.771-4.075.969-6 .198-1.925.885-5.975 1.527-9 .641-3.025 1.321-7.414 1.511-9.752.474-5.854 2.649-15.248 3.529-15.248.613 0 1.005-.968 2.028-5 .07-.275.612-1.4 1.204-2.5s1.181-3.35 1.309-5c.277-3.571.936-6.797 2.326-11.378.58-1.912.66-4.081.183-5-.462-.892-.51-2.522-.105-3.622s.497-2.636.205-3.414c-.369-.982-.122-1.161.808-.586.962.595 1.171.387.739-.738-.331-.862-.315-1.852.034-2.202.35-.35.786-1.856.969-3.348.183-1.492.752-4.062 1.263-5.712.511-1.65 1.167-4.35 1.458-6 1.269-7.207 1.749-9.199 3.486-14.444 1.621-4.9 4.349-15.91 5.694-22.986.254-1.336.763-2.911 1.131-3.5.368-.588.755-1.52.858-2.07.104-.55.886-3.613 1.739-6.808.852-3.194 1.829-7.679 2.17-9.966.341-2.287 1.05-4.961 1.575-5.942.525-.981.658-1.784.297-1.784-.362 0-.179-.578.407-1.283.586-.706 1.177-3.433 1.313-6.059.136-2.626.611-5 1.057-5.275.445-.276.81-1.562.81-2.859 0-1.296.415-2.507.922-2.691.508-.183 1.219-2.343 1.581-4.799.362-2.457 1.036-5.173 1.499-6.037.86-1.607 4.467-15.946 5.457-21.696.303-1.759 1.081-4.459 1.728-6 .647-1.54 1.284-3.476 1.414-4.301.228-1.437 1.013-4.198 4.978-17.5.984-3.3 2.09-6.225 2.458-6.5.367-.275.98-2.902 1.362-5.837.381-2.936 1.067-6.086 1.523-7 .457-.915 1.596-5.488 2.532-10.163 3.104-15.515 3.553-17.385 4.302-17.945 1.034-.772 1.45-2.923 1.407-7.285-.021-2.051.342-3.964.806-4.251.464-.286.608-1.421.32-2.52-.287-1.099-.048-1.999.532-1.999.58 0 1.033-.787 1.006-1.75-.09-3.287 1.416-11.195 4.62-24.25 1.283-5.225 2.895-13.662 3.584-18.75.689-5.088 1.639-9.25 2.111-9.25.472 0 .871-1.013.887-2.25.016-1.237.877-5.354 1.912-9.147 1.036-3.794 1.647-7.512 1.359-8.263-.288-.751-.031-1.959.571-2.684.602-.726 1.214-3.42 1.362-5.987.147-2.567.568-4.668.937-4.668.547-.001 2.164-5.978 4.329-16.001.178-.825.853-2.85 1.501-4.5.648-1.65 1.318-3.675 1.49-4.5.172-.825 1.041-5.1 1.931-9.5.891-4.4 2.267-10.7 3.058-14 .792-3.3 1.644-7.125 1.895-8.5.251-1.375 1.46-6.775 2.687-12 1.226-5.225 2.439-10.962 2.694-12.75.255-1.787.913-3.25 1.461-3.25.549 0 .732-.694.406-1.542-.706-1.841 1.067-9.886 3.001-13.612.757-1.46 1.377-4.723 1.377-7.25 0-2.528.4-4.596.889-4.596.722 0 1.879-3.931 2.278-7.742.043-.417.72-2.783 1.502-5.258.783-2.475 1.655-5.615 1.938-6.977.283-1.362 1.12-3.837 1.86-5.5 1.203-2.704 2.049-5.661 3.046-10.652.179-.896 1.044-3.745 1.922-6.332 1.26-3.711 4.884-18.388 5.935-24.039.103-.55.449-1.45.771-2s1.349-4.375 2.284-8.5c.934-4.125 1.966-8.625 2.293-10 .944-3.969.99-4.235 1.645-9.5.341-2.75.866-6.125 1.164-7.5.776-3.566 1.601-8.172 1.883-10.5.133-1.1.805-3.35 1.494-5 .688-1.65 1.408-6.004 1.598-9.675.191-3.671.79-7.502 1.33-8.512.541-1.01.967-3.406.947-5.325-.02-1.918.223-4.613.541-5.988.317-1.375.807-3.548 1.087-4.83.28-1.281.817-3.3 1.193-4.487.377-1.186.856-3.512 1.065-5.17.21-1.657.605-4.813.878-7.013.673-5.417 1.034-7.553 1.772-10.5.345-1.375.857-4.075 1.139-6 .282-1.925 1.013-6.2 1.626-9.5.612-3.3 1.285-8.375 1.496-11.278.211-2.903.761-6.053 1.223-7 .461-.947.762-3.297.668-5.222-.094-1.925.242-4.85.747-6.5.505-1.65 1.146-4.35 1.425-6 .279-1.65 1.188-5.387 2.02-8.303.833-2.917 1.274-5.929.981-6.693-.293-.764-.119-2.835.388-4.603.507-1.767 1.181-5.056 1.497-7.307.316-2.252.852-4.994 1.191-6.094.339-1.1.665-4.475.725-7.5.06-3.025.443-6.031.851-6.681.407-.649.316-1.443-.202-1.763-.587-.363-.591-1.805-.012-3.819.511-1.781 1.185-5.262 1.497-7.737.744-5.899 1.04-7.574 2.347-13.269.602-2.622 1.361-6.447 1.687-8.5.325-2.052 1.012-4.519 1.526-5.481.515-.962.717-1.75.451-1.75-.266 0 .062-1.462.728-3.25.667-1.788 1.185-4.375 1.151-5.75-.034-1.375.326-2.769.8-3.098.474-.329 1.079-2.129 1.346-4 .266-1.871.704-4.046.974-4.832.458-1.335 4.096-17.116 4.973-21.57 1.28-6.506 2.832-12.066 3.489-12.5.416-.275 1.04-3.157 1.385-6.405.346-3.247 1.039-7.747 1.54-10 .501-2.252 1.122-5.22 1.379-6.595.873-4.664 3.71-17.483 4.647-21 1.281-4.809 4.785-20.731 5.502-25a98.712 98.712 0 0 1 1.497-7c.5-1.925 1.124-4.73 1.387-6.234.262-1.503.71-3.109.994-3.569.284-.46.814-3.055 1.178-5.766.363-2.712 1.095-5.751 1.626-6.752 1.058-1.999 3.203-10.046 4.245-15.929.365-2.062 1.093-3.75 1.618-3.75.525 0 .955-1.012.955-2.25 0-2.025 1.324-6.47 5.809-19.5.804-2.337 1.852-4.25 2.327-4.25.475 0 .87-1.012.878-2.25.022-3.73 1.148-6.768 2.254-6.084.582.359.744.163.369-.445-.37-.599.004-3.031.83-5.405.827-2.374 1.51-5.277 1.518-6.452.008-1.174.687-3.424 1.509-5 .821-1.575 1.503-3.764 1.513-4.864.033-3.326 1.165-6.512 2.107-5.93.487.302.886-1.021.886-2.94 0-1.918.675-4.162 1.5-4.987.825-.825 1.5-2.631 1.5-4.013 0-1.381.457-2.795 1.016-3.14.559-.346.777-1.016.484-1.49-.293-.474-.075-1.144.484-1.49.559-.345 1.03-1.614 1.048-2.819.017-1.205.692-3.065 1.5-4.132.807-1.068 1.461-2.868 1.452-4-.025-3.127 4.297-20.503 4.992-20.074.335.207.669-.38.743-1.304.074-.925.877-5.056 1.786-9.181.908-4.125 1.85-9.72 2.093-12.434.244-2.714 1.146-7.647 2.005-10.964.859-3.316 1.778-8.521 2.042-11.566 1.435-16.553 4.127-33.891 5.542-35.697.556-.709.519-1.403-.095-1.782-.552-.342-.752-1.279-.444-2.083.309-.805.878-1.267 1.265-1.028.388.24.606-2.575.485-6.255-.12-3.68.213-7.213.74-7.852.619-.749.587-1.391-.089-1.809-.577-.356-1.049-1.968-1.049-3.581 0-1.849-.739-3.393-2-4.181-1.1-.687-2-1.816-2-2.509 0-.692-.481-1.259-1.07-1.259-.588 0-3.032-1.35-5.43-3-2.398-1.65-4.842-3-5.43-3-.589 0-1.07-.45-1.07-1s-.402-.888-.894-.75c-.491.137-2-1.024-3.352-2.582-1.997-2.3-3.52-2.933-8.106-3.368-4.117-.391-5.648-.2-5.648.704 0 .914-.348.952-1.318.147-.972-.807-1.891-.693-3.5.434-1.406.985-2.182 1.123-2.182.388 0-.627-.562-.95-1.25-.719-.687.232-1.846-.293-2.574-1.166-1.061-1.273-1.195-1.29-.676-.088.357.825-.048.643-.898-.403-1.35-1.661-1.624-1.703-2.151-.329-.333.867-.105 2.511.507 3.654.612 1.143.849 2.078.526 2.078-.322 0-1.244-1.575-2.048-3.5-1.463-3.501-4.436-4.835-4.436-1.99 0 1.146-.858 1.403-3.567 1.067-1.961-.244-4.114-.897-4.784-1.453-.669-.556-2.102-.869-3.183-.696-1.081.173-2.515-.121-3.187-.655-.671-.533-2.809-1.014-4.75-1.069-1.941-.055-3.529-.421-3.529-.812 0-.392-3.395-.603-7.543-.468-4.149.134-7.718-.038-7.931-.382-.213-.345-2.444-.603-4.957-.575-3.141.036-4.569-.36-4.569-1.267 0-.725-.419-1.059-.931-.743-.512.317-1.159.207-1.437-.244-.279-.45-2.785-.714-5.569-.586-2.978.137-5.063-.195-5.063-.804 0-.57-.661-.783-1.468-.474-.807.31-1.76.091-2.117-.487s-1.722-.845-3.032-.595c-1.311.251-2.383.11-2.383-.312s-.946-.52-2.102-.218c-1.235.323-2.458-.025-2.964-.844-.474-.766-1.215-1.409-1.648-1.428-.432-.02-1.739-.567-2.905-1.215-1.165-.649-2.399-.898-2.743-.554-.344.344-1.416-.01-2.382-.785-4.532-3.641-11.256-5.379-11.256-2.911 0 .55-.54 1-1.2 1-.933 0-.933-.267 0-1.2 1.96-1.96 1.374-3.066-1.349-2.546-1.547.296-3.384-.189-4.674-1.233-1.88-1.522-2.623-1.571-6.451-.419-4.109 1.237-4.326 1.2-4.326-.729 0-1.752-.427-1.938-3.1-1.351-2.819.619-3.039.491-2.431-1.424 1.217-3.834-3.513-6.788-7.734-4.83-1.203.558-1.943.354-2.325-.642-.513-1.336-8.41-7.195-8.41-6.239 0 .228-1.403-.895-3.117-2.496s-4.189-3.181-5.5-3.51c-1.311-.329-2.383-.996-2.383-1.483 0-.487-2.138-.693-4.75-.459-2.612.234-4.75.491-4.75.57 0 .079-.892.31-1.982.513-1.09.203-2.14.844-2.333 1.424-.193.579-.989 1.054-1.768 1.054s-1.417.354-1.417.787c0 .433-.831.85-1.847.927-1.446.108-1.745-.395-1.378-2.318.258-1.351 1.267-2.883 2.242-3.405.975-.522 2.27-2.375 2.878-4.119 1.353-3.882 1.353-3.872.038-3.872-.586 0-2.689-1.237-4.671-2.75-4.193-3.198-6.842-3.481-11.123-1.185M833.875 446.5c-.069.275-.188.837-.265 1.25-.077.413-.41 1.2-.738 1.75-.329.55-.51 2.012-.402 3.25.108 1.238-.179 2.25-.637 2.25s-.833.9-.833 2-.477 2-1.059 2-.816.394-.518.875c.297.481-.181 2.992-1.062 5.579-1.151 3.379-1.297 5.01-.519 5.788.778.778 1.376.315 2.121-1.644.57-1.501 1.037-3.374 1.037-4.163 0-.789.498-1.435 1.107-1.435s.848-.675.531-1.5c-.316-.825-.199-1.5.262-1.5.73 0 2.017-5.582 2.305-10 .054-.825.537-1.787 1.074-2.138.538-.351.668-1.139.29-1.75-.696-1.127-2.465-1.529-2.694-.612m-7.875 31c0 .825.675 1.5 1.5 1.5s1.5-.675 1.5-1.5-.675-1.5-1.5-1.5-1.5.675-1.5 1.5m-715 55.441c0 .518.457 1.224 1.016 1.569.559.346.763 1.038.454 1.538-.309.501-.109 1.758.445 2.793.554 1.035 1.207 3.407 1.45 5.271.758 5.801 1.853 9.888 2.649 9.888.42 0 .701.77.625 1.712-.076.941.702 1.884 1.729 2.096 1.283.264 1.629-.003 1.105-.852-.42-.68-.896-3.433-1.056-6.118-.161-2.686-.996-6.292-1.855-8.014-.859-1.722-1.562-3.962-1.562-4.978 0-1.015-.408-1.846-.906-1.846-.499 0-.671-.9-.384-2 .402-1.535.031-2-1.593-2-1.165 0-2.117.423-2.117.941m8 29.952c0 .491.712 1.166 1.582 1.5 2.235.858 2.418.79 2.418-.893 0-.833-.889-1.5-2-1.5-1.1 0-2 .402-2 .893" fill-rule="evenodd"/></svg>