<svg xmlns="http://www.w3.org/2000/svg" width="1240" height="1753"><path d="M434 79.876c-3.025.932-6.175 1.651-7 1.598-.825-.053-2.062.324-2.75.837-.812.607-1.25.541-1.25-.189 0-.617-.45-1.122-1-1.122s-1 1.125-1 2.5c0 2.789-.308 2.941-3.022 1.488-2.057-1.1-11.247-2.38-17.228-2.398-2.062-.006-3.75-.457-3.75-1.001 0-.557-.503-.486-1.153.164-.679.679-1.81.821-2.75.346-1.74-.879-15.689-.112-16.847.927-.137.123-1.15.336-2.25.474-1.1.138-2.337.36-2.75.493-.413.134-1.084.192-1.493.128-.409-.064-1.283.749-1.944 1.807-1.089 1.744-1.311 1.773-2.38.311-1.048-1.433-1.26-1.359-1.905.672-.55 1.733-1.292 2.176-3.076 1.835-1.441-.275-2.562.098-2.895.966-.299.778-.958 1.158-1.465.845-.506-.313-1.149-.004-1.428.687-.278.691-.542.243-.585-.994-.088-2.492.016-2.441-5.532-2.75-2.175-.121-4.125-.733-4.334-1.36-.729-2.188-2.249-1.12-1.814 1.275.548 3.022-.281 3.928-2.165 2.364-1.156-.959-1.705-.855-2.704.511-2.209 3.021-15.53.855-15.53-2.525 0-.88-.282-.883-1.153-.012s-1.667.87-3.25-.005c-1.153-.637-5.472-1.235-9.597-1.329-4.125-.094-7.95-.322-8.5-.507-.55-.185-2.054.247-3.343.961-1.299.719-3.459 1.017-4.846.669-1.385-.348-3.13-.108-3.907.537-.772.641-1.404.831-1.404.421s-.562-.289-1.25.267c-.687.557-2.482 1.006-3.988.998-1.686-.009-3.484.899-4.676 2.36-1.743 2.137-2.006 2.2-2.616.631-.374-.96-1.13-1.466-1.681-1.125-.551.34-2.721.052-4.821-.642-2.101-.693-4.64-.918-5.644-.499-1.003.418-3.986.669-6.629.558-2.642-.111-5.455.338-6.25.997-.795.66-1.445.865-1.445.455s-.675-.185-1.5.5-1.5.91-1.5.5c0-.41-.675-.185-1.5.5s-1.5.879-1.5.431c0-.447-.661.06-1.468 1.128-.808 1.067-1.49 1.491-1.516.941-.025-.55-.386-.467-.8.185-.414.651-2.095 1.402-3.735 1.668-1.639.265-3.094.576-3.231.69-.137.114-1.6.319-3.25.457s-3.225.362-3.5.5c-1.422.711-3.261.503-5.601-.634-2.136-1.037-2.958-1.013-4.601.138-1.607 1.125-2.735 1.175-5.748.25-3.24-.995-3.877-.92-4.699.548-.523.934-1.678 1.698-2.567 1.698-.89 0-1.316-.301-.948-.669 1.023-1.024-2.406-4.331-4.491-4.331-1.19 0-1.845.724-1.845 2.039 0 1.696-.236 1.823-1.401.75-.771-.709-.996-1.439-.5-1.622 2.233-.826.55-1.894-2.985-1.894-2.138 0-4.938-.737-6.223-1.637-4.841-3.39-7.663-.813-5.887 5.377.969 3.381-.101 8.429-1.826 8.612-.648.069-1.403.237-1.678.375-.275.138-.913.306-1.417.375s-1.238.447-1.631.84c-.393.393-1.443.339-2.333-.12-1.606-.829-6.239-.839-9.119-.021-1.976.561-4.267 3.685-3.552 4.842.311.502.052 1.084-.575 1.293-.627.209-1.192 1.821-1.256 3.583-.064 1.762-.361 3.204-.659 3.206-.299.001-.518 3.039-.488 6.752.03 3.713-.255 7.205-.632 7.762-.378.556-.159 2.994.487 5.416.764 2.865.825 4.521.175 4.738-.919.306-.973 7.259-.407 52.834.068 5.5.034 10.338-.076 10.75-.274 1.031-.252 6.692.028 7 .124.137.3 4.31.391 9.273.091 4.962.426 9.462.745 10 .32.537.636 3.227.703 5.977.067 2.75.814 10.85 1.661 18 2.156 18.214 2.13 17.896 1.581 18.953-.374.721-1.397 48.286-1.313 61.047.211 32.01 1.995 83.263 3.16 90.792.408 2.636.611 6.44.451 8.454-.16 2.014.011 4.132.38 4.708.872 1.362 1.188 17.545.343 17.548-.649.002-1.428 5.322-1.464 9.998-.056 7.295.679 19.106 1.208 19.433 1.136.702-.283 94.819-1.477 97.93-.374.974-.22 2.754.341 3.954.803 1.716 1.085 12.183.328 12.183-.374 0-2.072 44.698-2.419 63.673-.057 3.121-.421 5.477-.809 5.237-.388-.24-.526 2.945-.305 7.077.268 5.031.038 7.513-.697 7.513-.765 0-.745.425.066 1.403.815.982 1.042 6.001.756 16.75-.224 8.441-.096 17.731.286 20.645.381 2.914.302 5.539-.175 5.834-.477.295-.611 1.344-.297 2.332.967 3.048 1.743 36.872 1.674 73.036-.078 41.388-.004 76.592.193 91.25.085 6.317-.268 10.956-.856 11.25-.619.31-.558.711.162 1.054.856.408.995 5.852.526 20.75-.349 11.108-.647 23.191-.661 26.851-.015 3.659-.385 6.433-.822 6.162-.438-.27-.592 2.922-.342 7.094.249 4.171.152 7.771-.217 7.999-.645.399-.594 61.922.059 70.09.175 2.2.659 4.531 1.073 5.181.415.649.354 1.429-.136 1.731-.982.607-.619 9.004 1.149 26.588.359 3.575.923 14.534 1.252 24.354.329 9.82.936 18.767 1.349 19.883.413 1.116.452 3.994.088 6.396-.365 2.402-.354 4.367.023 4.367s.617 2.138.532 4.75c-.085 2.612.188 5.219.606 5.793.418.573 1.024 8.223 1.347 17 .322 8.776.813 18.432 1.09 21.457.529 5.771 1.392 20.858 1.56 27.25.054 2.063.467 3.75.918 3.75s.872.788.936 1.75c.065.963.35 4.225.636 7.25.471 4.999 1.626 45.437 1.4 49-.918 14.453.146 87 1.276 87 .448 0 .518.479.156 1.065s-.698 18.136-.748 39c-.049 20.864-.411 37.935-.804 37.935-.393 0-.693 2.588-.667 5.75.045 5.362-.543 12.676-1.588 19.75-1.154 7.808-2.815 32.211-3.008 44.173-.046 2.846-.417 4.968-.825 4.716-.649-.401-.809 2.091-.887 13.828-.01 1.495-.337 2.916-.726 3.157-1.324.823-.371 69.626.965 69.626.431 0 .76 1.912.73 4.25-.03 2.337.199 6.5.509 9.25.309 2.75 1.012 11.525 1.561 19.5 1.328 19.278 2.123 26 3.078 26 .435 0 1.094 1.379 1.464 3.064.408 1.857 1.621 3.496 3.08 4.161 1.323.603 2.406 1.399 2.406 1.769 0 .37.563.712 1.25.759 3.333.23 13.129 3.684 18.059 6.368 2.926 1.593 4.878 1.942 8.421 1.509 2.537-.311 4.923-1.068 5.303-1.683.38-.615 1.09-1.056 1.579-.981.488.075 1.788-.16 2.888-.523 1.1-.363 2.563-.591 3.25-.508.688.084 1.25-.303 1.25-.86 0-.557.672-.754 1.494-.439.822.316 1.305.88 1.074 1.254-.232.375.446.681 1.505.681 1.94 0 2.597-2.31 1.177-4.135-.412-.53.412.34 1.833 1.933 2.556 2.867 2.606 2.878 4.782 1.014 1.21-1.036 2.472-1.732 2.806-1.548.333.185.936-.199 1.34-.853.537-.869 1.271-.901 2.73-.12 1.098.587 2.284.78 2.635.428.352-.351 4.574-.613 9.382-.58 4.808.032 9.192-.214 9.742-.548.55-.333 1.45-.69 2-.792 5.723-1.066 7.58-1.317 11.25-1.523 2.337-.131 4.25-.632 4.25-1.114 0-.482.68-.196 1.512.636.918.919 2.389 1.278 3.75.915 1.231-.328 5.388-.687 9.238-.797 3.85-.11 7.225-.295 7.5-.412 1.585-.674 6.512-.875 7.426-.304 1.279.801 3.032 1.218 7.074 1.683 1.65.19 4.35.775 6 1.3 3.893 1.238 7.449.651 9.207-1.521 1.264-1.561 1.298-1.515.339.468-1.012 2.094-.858 2.196 3.195 2.118 2.343-.046 5.236.169 6.43.476 1.432.369 2.376.026 2.773-1.011.332-.864.889-1.285 1.238-.936.348.349 1.238.133 1.976-.479.738-.613 1.398-.834 1.467-.491.069.342.238 1.072.375 1.622s.306 1.295.375 1.655c.069.36.997-.134 2.062-1.098 2.368-2.143 4.075-1.318 3.312 1.6-.388 1.484-.201 1.931.601 1.436.653-.404 1.427-.034 1.764.844.74 1.928 2.097 1.963 5.585.143 2.048-1.069 2.933-1.126 3.672-.235.535.645 3.146 1.789 5.801 2.542 2.655.754 5.386 2.067 6.068 2.919.681.851 1.495 1.292 1.809.979.313-.313 2.766.234 5.451 1.215 2.685.981 5.171 1.495 5.524 1.142.354-.353.957-.642 1.342-.642 2.298 0 9.103-4.074 10.187-6.098.706-1.32 1.504-2.179 1.773-1.909.27.269 1.078.002 1.796-.594 1.788-1.484 1.11 3.474-1.057 7.732-1.574 3.094-1.259 6.369.613 6.369.531 0 1.644.679 2.474 1.509.83.83 1.943 1.242 2.472.914.53-.327 1.564-.097 2.298.512 2.448 2.032 11.702-3.307 10.133-5.846-.301-.487.688-2.169 2.199-3.737 2.561-2.66 3.217-2.837 9.746-2.625 13.38.433 15.538.323 17.763-.911 1.23-.683 2.575-1.145 2.987-1.028 1.256.355.835-2.593-.43-3.015-.772-.257-.888-1.064-.336-2.333.464-1.067.882-2.191.93-2.499.117-.757 5.586-7.223 5.586-6.604 0 1.226 5.511-1.149 5.597-2.412.168-2.482 1.579-4.934 2.508-4.36.492.304.895.076.895-.506s1.125-1.059 2.5-1.059 2.5-.461 2.5-1.025c0-.827 2.545-2.302 6-3.478 4.207-1.431 5.345-3.767 2.387-4.902-1.144-.439-1.318-.978-.598-1.857 3.488-4.26 4.555-35.876 1.814-53.738-.296-1.925-.459-8.45-.363-14.5.189-11.865-.099-48.154-.44-55.5-.115-2.475.18-13.5.655-24.5.476-11 .905-21.013.955-22.25.049-1.237.36-2.25.689-2.25.33 0 .505-2.138.389-4.75-.115-2.612.065-5.2.401-5.75.981-1.607.992-2.343.966-66.5-.003-7.425.055-13.725.129-14 .196-.73 1.297-41.052 1.202-44-.23-7.123-.383-7.794-1.727-7.597-2.307.339-2.659 1.211-2.937 7.286-.147 3.196-.625 6.671-1.063 7.721-.784 1.881-.807 1.881-1.479 0-.376-1.05-.369-4.61.015-7.91.796-6.849.543-12.82-.622-14.706-1.022-1.652-1.088-4.83-.146-6.943 1.486-3.333 2.248-15.231 1.479-23.101-.201-2.062-.007-3.75.433-3.75.439 0 .592-.563.341-1.25-.252-.687-.648-3.95-.881-7.25-.233-3.3-1.155-7.43-2.049-9.178-.976-1.911-1.849-6.898-2.186-12.5-.855-14.231-1.007-42.822-.227-42.822.381 0 1.008-3.369 1.394-7.487.386-4.118 1.068-7.261 1.516-6.984.448.277 1.158-.052 1.578-.731.991-1.604 1.529-26.011.559-25.412-.728.45-.661-3.577.208-12.386 1.372-13.917 1.489-22.44.329-23.875-.973-1.202-.961-1.352.059-.74 1.003.603 1.261-1.137 1.197-8.058-.045-4.855.203-13.102.551-18.327.349-5.225.751-14.116.893-19.757.143-5.642.557-10.554.919-10.917.978-.977.801-3.531-.201-2.912-.473.293-.557-1.143-.187-3.191.795-4.389.419-49.916-.46-55.723-.333-2.2-.622-6.812-.643-10.25-.021-3.437-.374-6.25-.786-6.25-.411 0-.775-3.262-.808-7.25-.033-3.987-.282-8.825-.552-10.75-.27-1.925-.75-5.3-1.067-7.5-.317-2.2-1.064-9.4-1.66-16-.596-6.6-1.296-14.025-1.556-16.5-.259-2.475-.636-8.1-.837-12.5-.201-4.4-.456-8-.566-8-.425 0-.91-7.619-1.464-23-.317-8.8-.785-17.238-1.04-18.75-.255-1.513-.061-2.75.431-2.75.526 0 .527-1.341.003-3.25-.867-3.159-1.272-19.306-1.072-42.75.122-14.296-.583-33.277-1.42-38.25-.368-2.186-.227-3.75.337-3.75 1.198 0 1.042-11.257-.167-12.136-.481-.35-.795-1.925-.696-3.5.098-1.575.236-6.102.307-10.061.077-4.332.511-6.959 1.092-6.6.595.367.682-.515.227-2.304-1.206-4.744-2.065-11.661-1.912-15.399.078-1.925.494-10.475.924-19 .429-8.525.862-20.45.962-26.5.099-6.05.273-11.225.386-11.5.113-.275.396-5.9.628-12.5.232-6.6.855-17.625 1.384-24.5.529-6.875 1.007-15.2 1.062-18.5.347-20.948.173-54.948-.443-86.5-.392-20.075-.625-41.9-.519-48.5.219-13.585.17-30.75-.091-31.5-.095-.275-.053-.95.093-1.5s.435-15.85.643-34c.633-55.233 1.353-94.827 1.789-98.25.263-2.069-.018-3.256-.774-3.265-.874-.012-.86-.223.051-.802.744-.473 1.226-2.962 1.207-6.235-.017-2.996.176-7.132.428-9.191.253-2.058.04-4.002-.473-4.319-.513-.317-.604-1.108-.201-1.757 1.11-1.793 1.483-18.02 1.476-64.181-.007-51.918-.182-62.761-1.103-68.601-.4-2.531-.349-5.62.111-6.865.615-1.663.24-3.23-1.413-5.899-1.238-1.999-2.122-4.197-1.966-4.885.156-.687-.127-1.25-.629-1.25s-.758-1.33-.568-2.956c.189-1.626-.103-3.232-.648-3.569-.545-.337-.764-.981-.486-1.431.278-.449-.165-1.373-.984-2.053-1.667-1.384-2.03-7.539-.5-8.484 1.422-.879-1.848-5.507-3.891-5.507-.958 0-1.737-.858-1.824-2.009-.083-1.105-1.156-3.421-2.385-5.147-1.229-1.726-2.589-5.209-3.022-7.741-1.385-8.092-1.914-10.525-3.067-14.103-.62-1.925-1.228-4.759-1.351-6.297-.123-1.538-1.062-3.753-2.086-4.922-1.207-1.376-1.334-1.82-.363-1.261 1.21.697 1.275.586.335-.578-.641-.793-1.189-1.892-1.217-2.442-.029-.55-1.075-2.237-2.325-3.75-2.628-3.182-4.814-3.331-12.793-.874m46 1215.002c0 .482.635 1.404 1.411 2.048 1.567 1.301 3.17-.177 2.089-1.926-.762-1.232-3.5-1.328-3.5-.122m1.397 7.53c-.358.932-.706 3.695-.774 6.141-.067 2.446-.435 4.448-.816 4.449-.381.001-.533.831-.337 1.844.774 4.022.91 10.112.239 10.782-1.298 1.298-.733 2.376 1.246 2.376 1.768 0 1.93-.624 1.686-6.5-.148-3.575-.01-6.5.306-6.5.821 0 .625-12.761-.208-13.594-.381-.381-.984.07-1.342 1.002" fill-rule="evenodd"/></svg>