<svg xmlns="http://www.w3.org/2000/svg" width="1240" height="1753"><path d="M157.271 31.451c-4.649 1.55-20.196 3.604-27.271 3.603-7.522-.001-10.226.535-11.501 2.279-1.53 2.092-2.499 2.131-2.499.1 0-1.519-1.028-1.463-5.75.311-.765.288-1.25-.389-1.25-1.744 0-1.602-.434-2.047-1.572-1.611-.865.332-2.498.109-3.628-.496-1.574-.843-2.258-.783-2.927.254-.722 1.119-1.039 1.094-1.835-.147-.53-.825-1.868-1.55-2.974-1.612-1.107-.062-1.772.276-1.479.75.293.474-.367.862-1.467.862s-2.283-.457-2.628-1.016c-.732-1.185-2.49-.35-2.49 1.182 0 .576.675.789 1.5.472.825-.316 1.5-.139 1.5.393 0 .533-.45.969-1 .969-2.091 0-2.549.187-4.263 1.738-2.032 1.839-6.435 2.56-7.28 1.192-.316-.511-1.313-.93-2.216-.93-1.276 0-1.374.267-.441 1.2.66.66 1.2 1.597 1.2 2.083 0 1.304-2.479.25-2.625-1.116-.069-.642-.181-1.617-.25-2.167-.179-1.429-2.879-1.239-3.371.238-.326.978-.974.983-3.083.022-1.469-.67-2.671-.814-2.671-.322 0 .492.563 1.122 1.25 1.4 1 .403 1 .52 0 .583-.687.043-1.25.584-1.25 1.201 0 .791.431.765 1.456-.086 3.419-2.837 4.659 2.051 2.084 8.215-.804 1.922-1.218 3.737-.922 4.034C69.063 54.73 69.74 96.223 68.624 115c-1.176 19.794-1.38 22.051-2.439 27-.53 2.475-.954 5.175-.941 6 .012.825-.306 12.975-.707 27-.651 22.764-1.298 31.477-3.083 41.5a128.89 128.89 0 0 0-.936 6.5c-.222 1.925-.486 3.5-.588 3.5-.506 0-1.314 7.075-2.913 25.5-1.346 15.521-1.869 46.196-.964 56.57.435 4.988 1.519 12.59 2.408 16.894.889 4.304 1.356 9.448 1.038 11.431-.318 1.983-.729 28.355-.914 58.605-.248 40.666.028 59.561 1.059 72.5 1.636 20.542 2.196 97.38 1.084 149-1.119 51.986-3.602 136.517-4.788 163-.725 16.185-.733 26.924-.025 34.5.564 6.05 1.297 22.457 1.627 36.461.33 14.003.751 25.705.936 26.003.421.681.89 83.193.592 104.036-.123 8.525.047 16.19.377 17.033.68 1.737 1.339 30.52 2.001 87.467.25 21.45.724 43.275 1.053 48.5.329 5.225.763 15.444.964 22.709.202 7.265.656 13.677 1.01 14.25.353.573.166 1.041-.416 1.041-.599 0-1.053 2.065-1.045 4.75.016 5.761.901 9.42 2.1 8.68 1.329-.822 1.067 1.989-.314 3.37-.915.915-.919 1.2-.016 1.2 1.556 0 1.356 22.171-.21 23.219-.752.504-.699 1.325.176 2.737 1.508 2.434 1.601 3.379.25 2.544-.567-.351-1.055.598-1.128 2.191-.07 1.545-.242 3.934-.382 5.309-.141 1.375-.567 10.271-.948 19.769-.381 9.498-1.074 18.6-1.54 20.225-.466 1.626-1.164 7.129-1.55 12.231-.386 5.101-1.151 9.838-1.699 10.525-.679.85-.639 1.25.125 1.25 1.355 0 1.474 3.362.204 5.764-.506.955-1.402 11.636-1.992 23.736-1.106 22.662-1.362 26.027-3.082 40.5-3.306 27.829-3.217 122.236.16 169.055 1.002 13.879.94 16.104-.573 20.658-3.038 9.147-3.945 32.936-1.727 45.287.543 3.025 1.501 8.65 2.129 12.5.628 3.85 1.585 9.025 2.127 11.5.543 2.475 1.099 8.646 1.236 13.713l.25 9.214-2.76.606c-1.619.356-3.053 1.507-3.47 2.786-1.097 3.367-.756 16.685.55 21.475 1.429 5.241 3.028 5.975 14.882 6.832 8.401.607 21.248 4.02 37.188 9.878 11.045 4.06 25.582 5.848 40 4.921 6.875-.442 19.25-.72 27.5-.616 8.25.103 28.277.345 44.504.536l29.504.349 4.822 3.399c5.231 3.687 6.167 3.761 16.17 1.269 13.946-3.474 28.847-12.114 40.547-23.511 6.797-6.621 19.961-24.678 26.012-35.68 4.436-8.066 8.5-14.982 9.572-16.291.623-.759 2.311-3.63 3.752-6.38 1.441-2.75 5.915-10.4 9.944-17 4.028-6.6 9.901-16.275 13.049-21.5 3.149-5.225 9.074-14.675 13.166-21 4.093-6.325 8.35-13.075 9.46-15 2.517-4.363 3.724-6.296 7.484-11.984 3.409-5.156 5.229-8.346 8.986-15.746 1.46-2.877 3.084-5.496 3.61-5.821.526-.325 2.104-2.856 3.508-5.626 1.403-2.769 3.907-6.9 5.564-9.179 1.656-2.279 3.665-5.494 4.464-7.144.799-1.65 2.544-4.8 3.878-7a293.79 293.79 0 0 0 4.107-7c.925-1.65 3.656-6.033 6.068-9.741 2.413-3.708 5.798-9.333 7.522-12.5 1.725-3.167 3.449-5.984 3.832-6.259.383-.275 1.502-2.072 2.487-3.994.986-1.922 3.916-6.647 6.512-10.5A1128.022 1128.022 0 0 0 469.223 1409c3.013-4.675 9.3-14.35 13.971-21.5 4.671-7.15 9.784-15.25 11.362-18 1.578-2.75 3.236-5.154 3.684-5.342.447-.188 1.76-2.213 2.918-4.5 1.157-2.287 3.783-6.633 5.835-9.658 2.051-3.025 5.875-8.875 8.498-13 2.622-4.125 6.004-9.3 7.515-11.5 1.51-2.2 5.123-8.05 8.028-13 2.905-4.95 6.335-10.272 7.624-11.827 1.288-1.554 2.342-3.321 2.342-3.926s1.966-4.058 4.369-7.674c2.404-3.615 8.057-12.648 12.564-20.073 4.508-7.425 11.307-18.225 15.111-24 3.804-5.775 7.491-11.619 8.194-12.988 2.752-5.359 3.178-4.91 24.557 25.866a2593.21 2593.21 0 0 1 8.714 12.622c3.627 5.303 19.372 28.082 28.391 41.075 2.969 4.278 6.401 8.936 7.625 10.352 1.224 1.415 4.318 4.964 6.877 7.886 2.558 2.923 6.801 8.548 9.428 12.5 2.627 3.953 6.218 8.762 7.981 10.687 5.029 5.492 6.727 7.538 9.246 11.142 1.291 1.847 2.645 3.583 3.01 3.858.365.275.953 1.4 1.308 2.5 1.076 3.34 6.267 8.575 7.887 7.953.814-.312 1.712.037 1.995.775.644 1.676 11.863 16.455 21.2 27.924 3.874 4.759 9.518 12.12 12.543 16.358 3.025 4.238 7.525 10.068 10 12.956 2.475 2.887 5.693 6.776 7.15 8.642 1.458 1.866 4.945 6.185 7.75 9.598 2.805 3.414 5.1 6.471 5.1 6.794 0 .625 8.323 11.154 12.444 15.743 1.355 1.509 3.689 4.884 5.186 7.5 1.497 2.616 4.668 7.079 7.046 9.916 2.378 2.838 4.324 5.635 4.324 6.215 0 .581.895 1.535 1.99 2.12 1.094.586 2.724 2.514 3.621 4.286.898 1.771 3.349 5.761 5.447 8.866 2.099 3.106 3.622 5.841 3.385 6.078-.237.236 1.142 2.267 3.063 4.512 1.922 2.245 3.494 4.367 3.494 4.716 0 .348 1.908 3.202 4.24 6.341 2.332 3.139 5.08 7.282 6.105 9.207 1.026 1.925 2.632 4.4 3.569 5.5.938 1.1 2.193 3.156 2.791 4.569.598 1.413 2.822 4.619 4.941 7.124 2.12 2.506 5.834 7.087 8.253 10.181 2.42 3.094 4.686 5.626 5.035 5.626.349 0 1.479 1.429 2.511 3.176s2.465 3.884 3.185 4.75c.72.866 5.785 7.337 11.255 14.38 5.469 7.044 13.572 16.61 18.005 21.259 4.433 4.65 9.886 10.924 12.117 13.944 2.231 3.02 4.386 5.491 4.789 5.491.778 0 10.363 13.067 13.986 19.066 1.184 1.961 3.068 4.393 4.186 5.405 1.117 1.011 2.032 2.703 2.032 3.759 0 2.3 8.524 15.77 9.98 15.77.561 0 1.02.568 1.02 1.263 0 .694 1.155 2.13 2.567 3.19 2.604 1.956 5.719 6.46 3.533 5.109-.605-.374-1.1-.203-1.1.379 0 .582-.003 1.372-.006 1.755-.004.382 5.461.874 12.143 1.093 10.865.356 12.758.157 17.902-1.887 3.163-1.256 5.56-2.782 5.327-3.391-.505-1.315 4.354-1.174 20.134.586 6.05.674 24.05 1.276 40 1.336 15.95.06 29.531.445 30.181.854.649.41 1.463.288 1.809-.271.392-.633-1.151-1.016-4.098-1.016-2.599 0-4.387-.338-3.974-.75.414-.413 5.551-.75 11.417-.75s11.79-.509 13.165-1.13c1.375-.622 2.91-1.144 3.41-1.161.501-.016 1.277-.686 1.726-1.488.56-1 2.603-1.474 6.505-1.509 4.107-.037 5.935-.49 6.574-1.631.556-.994 2.259-1.584 4.585-1.59 2.903-.007 4.205-.648 6.044-2.977 2.318-2.934 2.428-2.961 9.882-2.383 9.476.735 10.063.825 10.912 1.673.382.383 1.775.696 3.094.696 1.32 0 3.229.444 4.243.987 1.183.632 3.58.652 6.684.055 3.868-.743 5.066-.638 5.96.525.615.801 1.965 1.345 3 1.208 3.036-.399 11.824 1.329 12.527 2.464.72 1.162 7.162 1.812 10.537 1.062 2.551-.566 6.317-7.801 6.317-12.136 0-1.572.641-4.164 1.423-5.761 2.425-4.945 4.759-34.683 2.953-37.605-.602-.974-.938-2.659-1.953-9.799-.352-2.475-.982-4.95-1.401-5.5-.419-.55-1.074-2.733-1.456-4.852-.382-2.119-.97-3.577-1.306-3.241-.852.851-3.252-6.366-3.129-9.407.083-2.049.188-2.14.582-.5.265 1.1.887 2.428 1.384 2.95 1.605 1.689.996-12.744-.629-14.891-1.39-1.838-1.468-1.771-1.468 1.25 0 1.755-.419 3.191-.93 3.191-.512 0-1.163 1.013-1.448 2.25-.644 2.807.178-12.33 1.181-21.75.839-7.87 1.906-10.568 3.307-8.357.552.871.865-.307.875-3.288.009-2.907 1.146-7.303 3.036-11.745 3.948-9.278 5.569-17.823 7.42-39.11 1.21-13.921 4.441-71.358 4.388-78-.007-.825.349-35.25.79-76.5.442-41.25.809-78.15.816-82 .019-9.85-1.395-21.197-3.033-24.337-1.82-3.489-1.777-6.805.098-7.525 1.156-.443 1.5.221 1.5 2.893 0 4 1.667 4.644 2.582.998.812-3.234.768-19.096-.078-28.279-.503-5.456-1.037-7.25-2.157-7.25-2.999 0-4.33-2.819-4.805-10.171-.511-7.915.868-18.428 3.079-23.48.758-1.733 1.379-3.646 1.379-4.25 0-.605.45-1.099 1-1.099s1 .45 1 1c0 1.769 1.568 1.064 1.668-.75.054-.963.443-10.3.866-20.75.479-11.849 1.181-19.282 1.867-19.75.797-.544.794-.956-.011-1.5-.791-.534-1.119-17.132-1.142-57.75-.018-31.35-.352-63.3-.744-71-.391-7.7-.777-15.8-.858-18-.08-2.2.238-15.925.708-30.5s.878-34.262.907-43.75c.034-11.277.414-17.25 1.096-17.25.661 0 .62-.423-.11-1.153-.801-.801-.847-1.726-.151-3.026.551-1.03 1.164-6.698 1.363-12.597.198-5.898 1.131-22.199 2.072-36.224 1.899-28.296 2.131-36.252 1.261-43.231-.325-2.602-.156-6.427.373-8.5 2.843-11.123 3.198-15.477 4.337-53.269.29-9.625.959-24.025 1.487-32 .528-7.975 1.676-25.525 2.55-39a6946.588 6946.588 0 0 1 3.083-45c1.799-24.685 3.028-47.463 3.832-71 .328-9.625 1.31-24.475 2.182-33 3.452-33.758 1.756-93.67-3.666-129.5-2.092-13.82-2.643-20.006-1.814-20.333 1.193-.471 1.054-4.167-.156-4.167-.55 0-1-.702-1-1.559s.45-1.281 1-.941c.55.34 1 .141 1-.441s-.505-1.059-1.122-1.059c-.776 0-.807-.387-.103-1.25 1.173-1.438 2.109-18.797.975-18.096-.412.255-.75-.264-.75-1.154 0-.89.45-1.34 1-1 .55.34 1-.282 1-1.382 0-1.1-.45-2.278-1-2.618-.55-.34-.968-1.604-.93-2.809.068-2.102.103-2.11.866-.191.601 1.51.911.775 1.265-3 .258-2.75.093-5.428-.366-5.95-1.28-1.457-.991-6.331.403-6.796.983-.328.982-.976-.007-3.147-.686-1.504-.824-2.473-.308-2.154 1.629 1.006 2.094-1.106.96-4.359-.712-2.042-.755-3.564-.123-4.365 1.33-1.684 3.027-28.046 2.252-34.979-.077-.687.101-5.24.397-10.117.312-5.154.114-9.655-.472-10.75-.577-1.08-.615-1.883-.089-1.883.506 0 1.239-2.985 1.629-6.633.544-5.073.395-6.833-.633-7.485-1.021-.647-.899-.855.507-.867 1.63-.013 1.774-.581 1.207-4.765-.355-2.613-.618-6.775-.585-9.25.033-2.475.04-8.55.016-13.5-.024-4.95.387-10.462.914-12.25.562-1.908.602-4.489.097-6.25-.473-1.65-.554-3.001-.18-3.001.374-.001.82-5.514.99-12.25.4-15.779.429-16.153 1.314-16.768.801-.557 1.728-15.769 2.524-41.411.731-23.546-1.487-33.692-8.048-36.821-2.82-1.345-3.544-1.379-4.716-.22-1.176 1.163-5.951 1.723-11.884 1.395-.825-.046-4.529.321-8.231.815-4.127.551-7.093.537-7.665-.035-.58-.58-2.012-.404-3.769.461-2.378 1.172-3.277 1.182-5.577.065-4.273-2.075-10.936-2.932-14.508-1.865-1.787.534-3.25 1.345-3.25 1.803 0 .458-.45.832-1 .832s-1-.685-1-1.521c0-.837-1.157-2.049-2.572-2.694-2.081-.948-2.752-.896-3.519.272-.807 1.229-1.146 1.184-2.288-.307-.738-.963-1.785-1.75-2.326-1.75-.542 0-1.8-.9-2.795-2-1.741-1.924-5.487-2.679-6.797-1.37-.346.347-2.559.748-4.916.892-2.358.145-6.929.476-10.157.738-3.229.261-7.504.076-9.5-.411-9.185-2.243-11.622-2.147-14.866.583-2.145 1.805-3.227 2.211-3.545 1.333-.365-1.009-.881-1.015-2.549-.031-2.175 1.283-5.17.757-5.17-.908 0-.535-.998-.654-2.25-.269-1.237.38-1.934.357-1.548-.052.631-.668-1.4-3.505-2.509-3.505-.248 0-1.01 1.35-1.693 3s-1.665 3-2.18 3c-.516 0-.63-.498-.254-1.107.48-.776-.324-.889-2.691-.378-1.856.4-3.525 1.124-3.708 1.607-.745 1.963-2.06.682-2.354-2.295-.293-2.966-2.813-5.448-2.813-2.771 0 .673-.749 1.771-1.665 2.441-1.416 1.036-2.444.438-6.892-4.011-2.911-2.91-6.495-5.483-8.085-5.804-1.572-.317-6.233-1.298-10.358-2.178-5.53-1.181-12.49-1.571-26.5-1.485-10.45.065-20.35-.138-22-.45-1.65-.313-6.825-1.015-11.5-1.562-9.759-1.141-11.369-1.601-10.504-3 .342-.554.178-1.007-.364-1.007s-1.191-.788-1.443-1.75c-.351-1.344-.484-1.239-.573.453-.18 3.418-2.269 7.281-4.027 7.445-.874.081-2.264.194-3.089.25-.825.056-2.022.441-2.66.855-.638.415-1.909.466-2.824.115-3.607-1.384-20.5 6.406-23.981 11.058-1.833 2.45-1.982 4.579-2.218 31.67-.14 15.973-.689 31.599-1.221 34.723-2.021 11.872-2.397 24.235-2.304 75.654.06 33.242.52 56.237 1.235 61.735.843 6.483.852 12.469.035 23.026-.698 9.016-.91 30.091-.577 57.266.29 23.65.578 51.265.64 61.367.066 10.781.47 17.802.978 17 1.572-2.481.996 5.386-.752 10.261-1.644 4.587-1.297 8.575.642 7.376.554-.342 1.007.106 1.007.996 0 .953-.467 1.33-1.136.916-.841-.52-.944 3.675-.396 16.191.406 9.291.724 17.568.707 18.393-.018.825-.253 25.012-.524 53.75-.372 39.513-.206 52.254.679 52.265.852.011.865.215.045.75-.785.513-.871 2.545-.283 6.735.463 3.3.637 6.677.386 7.504s-.485 4.877-.519 9c-.035 4.123-.086 9.071-.113 10.996-.027 1.925-.062 4.85-.079 6.5-.017 1.65.353 6.15.821 10 .469 3.85.819 9.025.777 11.5-.041 2.475-.32 31.275-.62 64-.434 47.428-.848 60.92-2.041 66.5-.823 3.85-1.776 12.85-2.117 20-.341 7.15-.836 15.7-1.1 19-.264 3.3-.687 15.108-.94 26.24-.419 18.394-1.187 24.961-3.599 30.76-2.272 5.462-3.333 21.367-3.603 54-.794 96.195-.924 228.966-.238 244.478.427 9.662.387 17.716-.089 18.011-.473.292-1.08 4.948-1.348 10.347-.466 9.388-1.653 14.727-1.685 7.581-.009-1.879-.494-4.092-1.079-4.917-.83-1.172-.967-.9-.623 1.25.66 4.13-1.145 3.309-3.298-1.5-1.046-2.338-3.481-6.05-5.412-8.25-1.93-2.2-3.906-5.125-4.391-6.5-2.453-6.955-2.899-9.029-2.448-11.39.379-1.981-.834-4.414-5.282-10.591-3.175-4.41-6.089-8.019-6.474-8.019-.385 0-1.775-2.138-3.089-4.75-2.54-5.049-10.465-17.077-12.355-18.75-.622-.55-3.219-3.925-5.773-7.5-2.553-3.575-7.969-10.433-12.035-15.24s-10.399-13.132-14.074-18.5c-12.071-17.631-27.44-39.376-37.17-52.588-3.31-4.495-6.91-9.571-8-11.28-5.436-8.524-11.529-17.315-14.582-21.04-1.87-2.282-5.2-6.74-7.4-9.908-2.2-3.168-5.152-7.151-6.561-8.852-1.408-1.701-5.145-7.142-8.305-12.092-3.159-4.95-8.082-12.322-10.939-16.381-2.857-4.06-8.12-11.802-11.695-17.206-12.454-18.822-16.531-24.482-25.401-35.259-4.91-5.965-9.866-12.131-11.013-13.702-6.374-8.728-15.892-22.656-16.369-23.952-.303-.825-2.587-4.2-5.074-7.5-2.487-3.3-6.919-9.515-9.848-13.812-2.93-4.297-6.154-9.022-7.165-10.5-1.011-1.478-5.352-7.991-9.646-14.472-4.294-6.481-10.246-14.322-13.227-17.424-2.981-3.103-7.128-8.15-9.216-11.216-5.993-8.8-18.867-19.543-26.399-22.029-6.801-2.245-13.368 1.499-13.075 7.453.186 3.756-2.091 9.013-5.752 13.285-1.548 1.806-2.815 3.891-2.815 4.633 0 2.307-3.896 2.51-9.722.506-7.323-2.52-8.422-2.441-11.468.826-3.476 3.728-12.687 17.502-16.216 24.25-1.583 3.025-3.855 6.85-5.051 8.5-1.195 1.65-5.487 8.336-9.536 14.857-4.657 7.501-8.579 12.645-10.672 14-1.821 1.179-3.316 2.758-3.323 3.509-.019 2.158-3.574 12.789-5.813 17.384-.201.413.32.75 1.159.75.838 0 1.813.468 2.167 1.04.417.675-.351.827-2.191.432-2.769-.594-2.788-.569-.834 1.094 1.652 1.407 1.696 1.598.25 1.1-.962-.332-1.75-.115-1.75.482s-.866.859-1.924.582c-1.96-.512-9.588 6.75-15.813 15.056-1.52 2.028-4.199 5.143-5.954 6.924-1.755 1.781-3.944 4.825-4.864 6.764-.92 1.939-2.297 3.526-3.059 3.526s-1.386.675-1.386 1.5-.374 1.5-.831 1.5c-.457 0-1.404 1.071-2.104 2.379-.793 1.481-1.914 2.212-2.969 1.936-1.352-.354-1.717.291-1.799 3.179-.137 4.837-1.995 9.078-4.775 10.9-1.252.82-2.585 2.719-2.961 4.22-.377 1.5-4.07 8.164-8.207 14.807-4.137 6.643-8.046 12.975-8.688 14.07-.641 1.095-2.629 4.291-4.416 7.103-1.788 2.812-3.25 5.434-3.25 5.826 0 .392-1.125 2.188-2.5 3.991s-2.5 3.798-2.5 4.433c0 .636-.46 1.156-1.021 1.156-.562 0-1.566 1.237-2.23 2.75-.665 1.513-1.466 2.975-1.78 3.25-.315.275-2.011 2.638-3.77 5.25-1.76 2.612-4.549 6.736-6.199 9.163-1.65 2.428-3.007 5.465-3.015 6.75-.011 1.662-.26 1.951-.861 1.003-.675-1.064-.975-.997-1.485.332-.351.916-.639 2.324-.639 3.129 0 .805-2.263 4.817-5.03 8.917-2.766 4.099-8.151 13.641-11.967 21.205-3.816 7.563-7.571 14.876-8.344 16.251-.774 1.375-4.672 9.025-8.662 17-3.991 7.975-8.097 15.429-9.126 16.564-1.029 1.136-1.871 2.625-1.871 3.309 0 .685-.411.991-.913.681-2.479-1.532-3.076-13.911-3.521-73.054-.394-52.338-.852-61.584-3.644-73.55-1.839-7.884-1.913-9.874-.938-25.5 2.827-45.361 3.131-52.514 2.544-59.95-.836-10.583-3.423-25.759-4.594-26.95-.514-.522-.934-1.89-.934-3.039 0-1.148-.9-3.854-2.001-6.012-1.806-3.543-1.942-5.19-1.4-16.961.929-20.175.987-68.816.11-91.538a3685.952 3685.952 0 0 1-1.279-39.5c-.268-10.45-.697-21.25-.952-24-.256-2.75-.719-11.525-1.03-19.5-.31-7.975-.75-17.875-.977-22-.228-4.125-.843-15.825-1.368-26-.525-10.175-1.257-21.875-1.626-26-1.22-13.649-1.677-45.58-.989-69 1.708-58.072 1.889-152.962.3-156.889-.581-1.436-.965-6.323-.854-10.861.114-4.624-.211-8.25-.737-8.25-.555 0-.969-8.814-1.01-21.528-.038-11.84-.326-22.335-.639-23.321-.506-1.593.484-10.196 1.972-17.151.294-1.375.699-6.325.9-11 .515-12.008 1.469-23.278 2.709-32 3.087-21.729 6.279-52.261 6.062-58-.55-14.592-1.044-26.995-1.266-31.788-.19-4.11.236-5.939 1.915-8.21 1.337-1.807 2.16-4.394 2.16-6.785 0-4.396 2.735-23.945 3.668-26.217.338-.825.736-13.291.884-27.702.281-27.473.115-28.601-4.086-27.818-1.081.202-2.577.401-3.324.443-.963.055-1.173.878-.72 2.827.474 2.04.377 2.363-.376 1.25-.742-1.096-1.019-1.148-1.031-.191-.009.769-.531 1.007-1.265.578-.687-.402-.462.169.5 1.27.963 1.1 1.75 2.551 1.75 3.224 0 1.247-4.011 9.204-5.1 10.116-.33.277-.892 1.178-1.249 2.003-.357.825-.425-.525-.152-3 .645-5.838-.659-8.091-2.476-4.278l-1.325 2.778-1.099-4c-1.956-7.118-7.62-12.745-10.924-10.852-.646.37-.857.32-.468-.111 1.111-1.232-5.287-5.068-10.749-6.446-2.727-.687-10.133-1.61-16.458-2.05-7.396-.515-13.603-1.555-17.392-2.916-8.343-2.995-25.885-4.597-37.13-3.391-6.682.717-10.96.631-16.5-.329-4.113-.713-19.178-1.536-33.478-1.83-20.811-.427-26.844-.252-30.229.876M963.698 60.75c-.801 3.207-.696 7.367.172 6.83.472-.291.857-2.341.857-4.555 0-4.329-.333-5.065-1.029-2.275M337.004 178c-.645 3.736-.865 6.22-1.504 17-.853 14.395-4.309 42.052-5.429 43.451-1.123 1.402-1.947 5.726-2.539 13.325-.269 3.451-.895 7.051-1.391 8-1.082 2.069-1.185 10.369-.121 9.711.411-.254 1.311.897 1.999 2.558.687 1.66 1.423 2.846 1.635 2.634.798-.797 1.326-16.679.555-16.679-.444 0-.624 1.575-.399 3.5.25 2.142-.022 3.5-.701 3.5-1.977 0-1.22-9.377 1.258-15.578 1.302-3.257 2.664-9.278 3.026-13.379.363-4.102 1.073-7.713 1.578-8.025.505-.312.785-1.456.622-2.543-.162-1.086.27-2.875.961-3.975 1.089-1.734 2.747-19.147 2.666-28-.038-4.256-1.905-17.305-2.216-15.5m-14.337 98.667c-1.035 1.034-.786 6.142.333 6.833.604.373 1-.99 1-3.441 0-4.145-.164-4.562-1.333-3.392M82.252 392.5c.011 2.2.216 2.982.455 1.738.239-1.244.23-3.044-.02-4s-.446.062-.435 2.262m845 19c.011 2.2.216 2.982.455 1.738.239-1.244.23-3.044-.02-4s-.446.062-.435 2.262M83.272 500c0 2.475.195 3.488.434 2.25.238-1.238.238-3.262 0-4.5-.239-1.238-.434-.225-.434 2.25m235.814 23.5c-.035 7.602.279 11.471.857 10.557.502-.793.754-2.7.56-4.237-.195-1.537.062-3.051.571-3.366.51-.315.926.074.926.865 0 1.561 2.948 4.483 3.081 3.053l.364-3.872c.155-1.65-.164-5.229-.708-7.953l-.99-4.953-2.039 2.453c-1.122 1.349-1.803 1.778-1.512.953.29-.825.171-2.4-.264-3.5-.46-1.161-.814 3.033-.846 10m.914 50c0 1.375.45 2.5 1 2.5s1-1.125 1-2.5-.45-2.5-1-2.5-1 1.125-1 2.5M83.886 589.25c-.063 1.788-.261 4.487-.44 6s.097 2.75.614 2.75.94-2.7.94-6c0-6.221-.913-8.475-1.114-2.75m28.366 30.25c.011 2.2.216 2.982.455 1.738.239-1.244.23-3.044-.02-4s-.446.062-.435 2.262M322 620.882c0 5.198 1.419 6.074 1.769 1.092.148-2.108-.19-4.116-.75-4.462-.627-.388-1.019.908-1.019 3.37m-5.714 43.618c.008 2.75.202 3.756.432 2.236.229-1.52.223-3.77-.014-5-.237-1.23-.425.014-.418 2.764m.122 12.878c-.29.758-.092 2.895.442 4.75l.97 3.372.09-4.75c.089-4.717-.488-6.014-1.502-3.372m-4.158 163.015c0 1.434.394 2.607.875 2.607 1.112 0 1.104-2.091-.015-3.857-.607-.957-.86-.589-.86 1.25M285.32 1042c0 3.575.182 5.037.403 3.25.222-1.787.222-4.713 0-6.5-.221-1.787-.403-.325-.403 3.25m.065 45c0 6.875.16 9.688.355 6.25.196-3.437.196-9.062 0-12.5-.195-3.437-.355-.625-.355 6.25m625.365 30.332c-.413 1.007-.736 3.032-.72 4.5.027 2.32.166 2.436 1.064.892.569-.976.893-3.001.72-4.5-.262-2.275-.438-2.422-1.064-.892m-800.498 7.168c.011 2.2.216 2.982.455 1.738.239-1.244.23-3.044-.02-4s-.446.062-.435 2.262M120 1133c0 2.75.338 5 .75 5s.75-2.25.75-5-.338-5-.75-5-.75 2.25-.75 5m-56 5.059c0 1.132.45 1.781 1 1.441.55-.34 1-1.266 1-2.059 0-.793-.45-1.441-1-1.441s-1 .927-1 2.059M329.272 1140c0 2.475.195 3.487.434 2.25.238-1.237.238-3.263 0-4.5-.239-1.237-.434-.225-.434 2.25m-37.579 9.5c.605 6.514.82 7.261 1.52 5.293.253-.711-.111-3.543-.809-6.293l-1.269-5 .558 6m2.422 29.95c-.069 2.986.244 4.573.791 4 .509-.533.559-2.704.115-4.95l-.791-4-.115 4.95m-229.328.55c.242 1.65.614 3 .826 3 .213 0 .387-1.35.387-3s-.372-3-.827-3c-.455 0-.628 1.35-.386 3m1100.465 23.5c.011 2.2.216 2.982.455 1.738.239-1.244.23-3.044-.02-4s-.446.062-.435 2.262m31.373 8.598c1.334 8.429 2.196 9.851 2.289 3.774.06-3.923-.379-6.013-1.45-6.902-1.357-1.126-1.455-.761-.839 3.128M962.31 1231.5c.005 3.3.192 4.529.415 2.732.222-1.797.218-4.497-.01-6-.229-1.503-.411-.032-.405 3.268m32.775 74.75c-.797 2.11-.422 4.42.559 3.439.712-.712 1.45-5.689.843-5.689-.303 0-.934 1.013-1.402 2.25m6.857 3.401c-.554 1.459-.81 3.146-.568 3.75.241.605.761-.356 1.154-2.135.394-1.778 1.111-2.989 1.594-2.691.483.299.878.066.878-.516 0-2.086-2.069-1.008-3.058 1.592m138.879 43.424c-.213 2.241-.036 4.292.395 4.559.431.266.784-1.568.784-4.075 0-5.66-.659-5.931-1.179-.484m-442.58 31.413c1.242 1.918 2.619 3.493 3.06 3.5.44.006-.401-1.563-1.869-3.488-3.432-4.5-4.103-4.507-1.191-.012m382.011 78.012c.011 2.2.216 2.982.455 1.738.239-1.244.23-3.044-.02-4s-.446.062-.435 2.262M1178 1571c0 2.2-.402 4-.894 4s-.83 1.132-.75 2.516c.13 2.265.269 2.346 1.394.809 1.179-1.611 1.823-11.325.75-11.325-.275 0-.5 1.8-.5 4m-232.286 2.654c-.359.58.568 2.133 2.06 3.451 1.885 1.665 2.22 1.785 1.099.395-.886-1.1-1.813-2.653-2.059-3.451-.283-.915-.689-1.061-1.1-.395M931 1581.5c.685.825 1.626 1.5 2.091 1.5.465 0 .587-.675.271-1.5-.317-.825-1.258-1.5-2.091-1.5-1.234 0-1.284.279-.271 1.5m241.606 18.083c-.369.963-.267 2.156.228 2.651 1.186 1.186 2.224-1.521 1.213-3.159-.567-.917-.945-.783-1.441.508m6.409 24.667c.009 2.338.459 4.925 1 5.75.695 1.06.921-.188.77-4.25-.246-6.601-1.793-7.912-1.77-1.5m-94.472 61.681a1.094 1.094 0 0 0 .35 1.503c1.183.731 4.107-.367 4.107-1.541 0-1.183-3.722-1.152-4.457.038" fill-rule="evenodd"/></svg>