<svg xmlns="http://www.w3.org/2000/svg" width="1240" height="1753"><path d="M966 150.97c0 .872-.9 2.356-2 3.298-1.1.942-2 1.512-2 1.267 0-.246-1.709.157-3.797.893-3.255 1.149-4.209 1.125-6.674-.167-2.637-1.381-2.987-1.356-4.203.307-.729.998-1.326 1.413-1.326.923s-.517-.374-1.149.258c-.865.865-1.791.852-3.75-.05-1.43-.66-5.188-1.199-8.35-1.199s-5.75-.364-5.75-.809c-.001-.445-.453-.53-1.005-.189-.552.341-.728 1.718-.391 3.059.353 1.408.174 2.439-.422 2.439-.569 0-3.308 2.25-6.087 5s-5.482 5-6.007 5c-.525 0-1.27 1.012-1.656 2.25-.387 1.238-1.003 2.475-1.371 2.75-.367.275-2.669 3.425-5.115 7s-4.784 6.65-5.197 6.833c-.413.184-.75.968-.75 1.743 0 .775-.987 2.544-2.194 3.932-1.206 1.387-2.305 3.284-2.442 4.215-.363 2.475-2.336 6.054-6.856 12.435a1240.747 1240.747 0 0 0-5.508 7.824c-.825 1.191-2.683 3.503-4.129 5.137C874.053 229.432 864 244.436 864 245.82c0 .649-.375 1.18-.834 1.18-1.005 0-8.166 10.223-8.166 11.659 0 .557-2.312 3.894-5.137 7.414-2.826 3.521-6.152 7.982-7.392 9.914-1.24 1.932-3.86 5.294-5.822 7.47-1.963 2.176-3.399 4.126-3.192 4.333.395.395-.341 1.312-5.999 7.478-1.902 2.073-3.458 4.285-3.458 4.917 0 .632-.302.846-.672.477-.369-.37-2.105 1.344-3.857 3.809-1.753 2.464-3.475 4.191-3.829 3.838-.353-.353-.642-.133-.642.49s-1.25 2.411-2.777 3.973c-1.528 1.563-5.458 6.866-8.734 11.785-3.277 4.918-6.195 9.168-6.487 9.443-.291.275-2.323 3.197-4.516 6.493-2.192 3.296-4.548 6.591-5.236 7.322-.687.73-1.25 1.714-1.25 2.185 0 .471-.579 1.452-1.287 2.179-.709.726-2.32 3.009-3.582 5.071-1.262 2.063-2.686 3.75-3.166 3.75-.479 0-1.619 1.575-2.532 3.5s-2.086 3.5-2.606 3.5-.71.381-.422.847c.288.465-.731 2.153-2.264 3.75-1.534 1.597-4.972 6.052-7.641 9.901-2.669 3.849-5.336 7.545-5.926 8.215-2.303 2.612-3.409 4.075-7.051 9.335-2.077 2.999-4.885 6.44-6.242 7.648-1.404 1.25-2.156 2.698-1.745 3.362.396.641.147 1.52-.554 1.953-.76.47-.99 1.526-.571 2.619.61 1.587 1.228 1.246 4.646-2.569 2.169-2.42 3.943-4.947 3.943-5.614 0-.668 1.125-1.429 2.5-1.692 3.231-.617 3.15.152-.5 4.745-1.65 2.076-3 4.133-3 4.57 0 .437-.836 1.06-1.857 1.385-1.834.582-5.51 8.141-4.643 9.546.247.398-1.002 2.112-2.776 3.807-1.773 1.695-3.774 3.67-4.446 4.387a71.407 71.407 0 0 1-2.27 2.305c-3.064 2.927-8.024 8.763-8.133 9.571l-.25 1.845c-.069.504-1.067 1.741-2.218 2.75-2.285 2.002-4.958 6.39-4.619 7.584.116.413-.249.75-.813.75-1.213 0-3.056 4.315-3.592 8.411-.21 1.601-1.607 4.976-3.106 7.5-1.499 2.524-2.736 4.943-2.751 5.375-.014.433-.669 1.185-1.456 1.671-.786.485-1.526 1.545-1.645 2.354-.119.81-2.063 4.252-4.321 7.651-2.257 3.399-4.104 6.393-4.104 6.654 0 .261-1.125 1.6-2.5 2.975s-2.5 2.822-2.5 3.215c0 .393-1.237 2.049-2.75 3.68-1.513 1.631-2.75 3.378-2.75 3.881 0 .503-.882 1.414-1.96 2.024-1.078.61-2.715 2.009-3.637 3.109-3.559 4.243-8.073 8.942-7.444 7.75.955-1.811-.28-1.536-3.114.694-2.407 1.892-8.29 9.85-8.327 11.261-.01.387-1.176 1.862-2.592 3.278-1.415 1.416-2.392 3.12-2.17 3.786.223.667-.081 1.718-.676 2.335-.594.618-2.655 3.072-4.58 5.455-1.925 2.382-4.409 5.256-5.519 6.386-1.11 1.13-3.342 3.855-4.959 6.055-1.617 2.2-3.592 4.495-4.387 5.101-.796.605-1.544 2.18-1.662 3.5-.118 1.319-.643 2.313-1.166 2.208-.523-.105-1.594.725-2.379 1.844a68.536 68.536 0 0 1-3.178 4.093c-.962 1.133-1.75 2.539-1.75 3.125 0 .586-1.058 1.98-2.352 3.097-1.293 1.118-3.093 3.472-4 5.232-.906 1.76-2.25 3.56-2.987 4-.736.44-1.77 1.593-2.297 2.563-.904 1.664-1.079 1.651-3.088-.22-1.171-1.092-3.397-3.685-4.947-5.764-1.549-2.078-3.392-4.144-4.094-4.59-.702-.447-1.016-1.234-.697-1.75.319-.517-.108-.939-.95-.939-.841 0-2.359-1.809-3.373-4.02-1.013-2.21-2.089-3.773-2.39-3.471-.302.301-2.073-1.476-3.937-3.95-1.863-2.473-3.838-4.521-4.388-4.55-.55-.029-2.35-2.067-4-4.529-1.65-2.462-3.45-4.48-4-4.485-.55-.005-2.064-1.571-3.365-3.481-1.3-1.91-3.1-4.383-4-5.496a516.605 516.605 0 0 1-4.135-5.223c-1.375-1.759-3.839-4.571-5.475-6.247-1.636-1.676-4.972-5.748-7.412-9.048-4.444-6.01-16.113-18.221-16.113-16.862 0 .398-1.751-1.623-3.891-4.491-2.139-2.868-4.952-6.239-6.25-7.49-3.66-3.53-6.859-7.571-6.859-8.665 0-.545-.385-.992-.855-.992-1.032 0-9.145-11.391-9.145-12.841 0-.562-1.35-1.984-3-3.159-1.65-1.175-3-2.898-3-3.828 0-.931-1.125-2.906-2.5-4.389-1.375-1.482-2.5-3.128-2.5-3.656s-.368-1.11-.817-1.294c-.449-.183-3.486-3.933-6.75-8.333-3.263-4.4-6.428-8.45-7.034-9-2.049-1.862-6.399-8.182-6.399-9.298 0-.609-1.984-3.267-4.409-5.905-2.426-2.638-7.126-8.397-10.446-12.797-3.32-4.4-7.636-9.729-9.591-11.843-1.955-2.113-3.554-4.139-3.554-4.503 0-.776-6.688-10.306-7.794-11.107-.416-.301-3.203-3.922-6.193-8.047-2.99-4.125-6.691-8.823-8.225-10.44-1.533-1.617-2.788-3.492-2.788-4.167 0-.674-.364-1.376-.809-1.56-1.041-.429-9.191-11.283-9.191-12.241 0-.896-4.786-7.453-7.212-9.881-1.642-1.643-2.172-3.066-1.538-4.13.137-.231-.687-1.469-1.832-2.75-3.312-3.706-10.418-14.924-10.418-16.445 0-.762-.441-1.386-.981-1.386-.539 0-1.255-1.092-1.59-2.426-.335-1.335-1.468-3.205-2.519-4.155-1.05-.951-1.91-2.237-1.91-2.858 0-1.664-6.741-11.837-8.494-12.818-.828-.463-1.506-1.494-1.506-2.29 0-.797-1.463-3.587-3.25-6.201-4.263-6.233-5.512-8.24-7-11.252-.68-1.375-2.026-3.372-2.993-4.439-.966-1.066-1.757-2.458-1.757-3.094 0-.636-1.127-2.463-2.505-4.061-1.378-1.599-2.291-3.473-2.028-4.165.262-.692-.41-1.813-1.495-2.491-1.085-.677-1.972-1.76-1.972-2.407s-.379-1.326-.842-1.51c-1.241-.491-10.241-12.962-11.246-15.583-.474-1.238-1.324-2.25-1.887-2.25-.564 0-1.025-.689-1.025-1.531 0-.843-.675-1.791-1.5-2.107-.825-.317-1.5-1.123-1.5-1.792s-2.226-3.6-4.946-6.512c-2.721-2.913-7.108-8.05-9.75-11.416-2.642-3.365-7.399-8.824-10.571-12.13-3.173-3.307-6.773-7.471-8-9.255-1.228-1.784-2.698-3.246-3.267-3.25-.569-.004-1.784-1.245-2.701-2.757-.916-1.513-2.813-4.057-4.215-5.656-1.403-1.598-2.55-3.255-2.55-3.682 0-.428-.933-1.073-2.072-1.435-1.246-.395-1.857-1.22-1.532-2.067.298-.776.053-1.41-.544-1.41-1.347 0-8.852-7.632-8.852-9.001 0-.55-.8-.999-1.777-.999-.978 0-2.666-.619-3.75-1.376-2.268-1.583-8.674-1.473-12.788.219-1.548.636-3.371 1.157-4.05 1.157-.679 0-1.7.465-2.268 1.033-.896.896-5.382 1.72-10.394 1.909-3.487.132-12.962 11.649-11.512 13.995.285.46-.265.775-1.222.7-.956-.075-1.626.426-1.489 1.113.213 1.063-2.402 1.779-5 1.368-1.822-.287-.502 1.962 2 3.408 2.674 1.545 2.681 1.571.25.951-6.96-1.777-6.899-1.781-6.733.417.087 1.158.539 2.106 1.005 2.106.465 0 .563.457.218 1.016a1.188 1.188 0 0 1-1.626.4c-.549-.34-1.244.323-1.545 1.472-.301 1.149-.9 1.871-1.331 1.604-.432-.266-1.843.631-3.137 1.994-1.293 1.364-2.801 2.494-3.351 2.513-.55.018-2.523 1.376-4.386 3.017-1.862 1.641-3.718 2.984-4.125 2.984-.406 0-1.46 1.463-2.341 3.25-.881 1.787-1.613 2.865-1.625 2.394-.013-.47-1.466.655-3.23 2.5-1.764 1.846-3.114 3.694-3 4.106.114.413-.36.75-1.052.75-.693 0-1.833.917-2.533 2.039-.7 1.121-1.708 1.77-2.239 1.442-.531-.328-1.966.104-3.19.961-1.223.857-1.939 1.558-1.592 1.558.348 0-.552 1.35-2 3s-3.347 3-4.221 3c-1.73 0-5.966 3.53-5.966 4.972 0 .491-.907 1.181-2.015 1.533-1.108.351-1.756 1.057-1.441 1.567.316.51-.382.928-1.551.928-2.375 0-6.137 1.752-7.169 3.339-.372.572-1.914 1.206-3.427 1.408-3.881.52-8.376 3.99-8.513 6.571-.09 1.692-.219 1.789-.573.432-.561-2.145-2.17-2.281-2.949-.25-.317.825-1.229 1.5-2.028 1.5-.825 0-1.15.488-.754 1.13.427.69.158.937-.691.635-2.025-.721-4.884 1.034-4.921 3.02-.035 1.922-2.968 6.275-2.968 4.406 0-1.997-2.732-1.326-3.29.809-.532 2.034-3.918 2.914-3.46.9.137-.606-1.213-1.277-3-1.492-2.389-.288-3.25.004-3.25 1.1 0 .821-.417 1.492-.927 1.492-.509 0-1.072.733-1.25 1.63-.193.974-1.531 1.761-3.323 1.957-3.614.394-5.214.796-8.5 2.133-1.375.559-3.062.803-3.75.542-.687-.262-1.25.07-1.25.738 0 .668-.602.983-1.338.701-1.729-.664-7.651 2.182-9.947 4.779-2.428 2.749-3.981 6.423-4.234 10.02-.117 1.65-.566 3.84-.998 4.867-.733 1.74-.877 1.706-2.1-.5-.721-1.302-1.328-3.504-1.348-4.894-.053-3.844-2.641-6.947-5.3-6.354-3.181.709-5.157 1.198-5.735 1.42-.275.105-1.023.252-1.662.326-.639.074-2.106 1.221-3.259 2.548-2.072 2.385-2.165 4.193-.703 13.566.34 2.183-.882 3.756-3.769 4.85-1.041.395-1.619.992-1.284 1.327.89.89-3.823 4.339-5.981 4.376-1.013.017-2.716.692-3.783 1.5-1.068.807-1.57 1.468-1.115 1.468.454 0-.36.933-1.809 2.073-1.449 1.139-2.635 2.714-2.635 3.5 0 .785-.45 1.427-1 1.427-1.885 0-1 1.679 1.48 2.809 1.619.738 2.277 1.662 1.893 2.661-.323.841-.16 1.53.361 1.53 1.505 0-.186 8.595-2.06 10.469-1.822 1.822-2.199 3.531-.78 3.531.492 0 .83 1.125.75 2.499-.079 1.375-.508 2.5-.953 2.5-.445.001-.529.454-.187 1.008.343.554-.081 1.277-.941 1.607-.859.33-1.563 1.65-1.563 2.934 0 1.284-.457 2.617-1.016 2.962-.559.346-.756 1.05-.437 1.566s-.15 1.218-1.041 1.56c-.892.342-1.375 1.262-1.075 2.045.303.788.105 1.15-.442.812-.544-.336-.989.042-.989.841 0 .799.675 1.711 1.5 2.028.825.316 1.5.113 1.5-.452 0-.566.45-.75 1-.41s1 1.491 1 2.559.354 1.941.787 1.941c.433 0 .861.972.95 2.16.09 1.188.548 2.426 1.02 2.75.471.325 1.487 2.165 2.258 4.09.77 1.925 1.993 4.105 2.716 4.845.724.739 1.937 2.539 2.697 4 .76 1.46 2.55 3.746 3.977 5.079 1.427 1.334 2.595 2.914 2.595 3.511 0 .598 1.35 2.202 3 3.565s3 3.045 3 3.739.45 1.261 1 1.261 1 .603 1 1.339c0 .737 1.125 1.853 2.5 2.479 1.375.627 2.5 1.824 2.5 2.661 0 .836.675 1.521 1.5 1.521s1.501.337 1.502.75c.002.413 1.367 2.325 3.035 4.25 3.612 4.169 9.956 13.496 9.979 14.669.009.457 1.407 2.406 3.106 4.331 1.7 1.925 4.908 6.087 7.129 9.25 2.221 3.162 4.435 5.75 4.919 5.75s1.296 1.096 1.806 2.436c1.016 2.672 3.609 5.936 9.139 11.502 1.989 2.001 3.962 4.746 4.385 6.1.423 1.354 1.067 2.687 1.431 2.962 1.428 1.079 10.069 12.903 10.069 13.778 0 .511 1.125 2.144 2.5 3.627 1.375 1.484 2.5 2.891 2.5 3.127 0 .236 1.575 2.891 3.5 5.901 1.925 3.009 3.5 6.182 3.5 7.05 0 .869.654 1.831 1.454 2.138.8.307 2.397 2.506 3.55 4.887 1.153 2.382 2.749 4.872 3.546 5.534.798.661 1.457 1.935 1.466 2.83.009.896 1.354 3.203 2.989 5.128 4.025 4.738 3.803 4.451 10.451 13.5 3.232 4.4 6.252 8.15 6.71 8.333.459.184.834.934.834 1.667s.396 1.483.88 1.667c1.066.403 12.12 15.028 12.12 16.035 0 .391 1.795 2.643 3.989 5.005 2.193 2.361 4.735 5.868 5.647 7.793.913 1.925 1.961 3.725 2.329 4 1.57 1.173 9.035 11.783 9.035 12.841 0 .637.353 1.159.784 1.159.432 0 1.631 1.462 2.666 3.25 1.034 1.788 3.648 5.388 5.808 8 2.161 2.612 3.561 4.75 3.112 4.75-.449 0 .662 1.35 2.469 3 4.132 3.774 5.592 3.855 4.69.26-.378-1.507-1-2.969-1.381-3.25-1.43-1.051-4.635-6.572-4.749-8.181-.098-1.383.201-1.471 1.741-.509 1.023.638 1.86 1.533 1.86 1.987 0 .455 1.123 2.299 2.495 4.098 1.373 1.799 2.271 3.495 1.997 3.77-.596.596 6.727 7.417 7.639 7.114.348-.116 2.072 2.584 3.831 6 4.176 8.111 5.366 10.196 6.818 11.946.662.797.94 1.712.618 2.033-.321.322.808 1.304 2.509 2.184 1.873.968 3.093 2.378 3.093 3.574 0 1.086.477 1.974 1.059 1.974s.833.365.557.812c-.61.987 10.203 12.702 10.994 11.911.621-.621 3.81 1.753 6.283 4.677a109.973 109.973 0 0 0 3.357 3.75c.963 1.018 1.75 2.127 1.75 2.466 0 .339 1.8 2.312 4 4.384 2.2 2.072 4 4.17 4 4.661 0 .492.788 1.654 1.75 2.582 3.905 3.765 5.75 5.946 5.75 6.796 0 .493.675 1.704 1.5 2.691 3.313 3.966 7.417 10.843 7.173 12.02-.144.688.157 1.25.667 1.25.802 0 1.931 2.514 1.797 4-.047.513 2.691 3.987 5.363 6.806 1.341 1.414 1.315 1.512-.25.919-1.899-.719-2.544 1.666-.75 2.775.55.34 1 1.273 1 2.073 0 1.586 6.528 10.287 13.073 17.427 3.695 4.031 7.983 10.666 16.067 24.863 1.669 2.93 3.228 4.53 4.234 4.347.992-.181 1.398.22 1.076 1.061-.57 1.483 6.027 10.729 7.655 10.729.557 0 .757.414.445.919-.313.506.127 1.615.977 2.465.849.849 1.53 1.784 1.512 2.077-.017.293.979 1.695 2.215 3.116 1.235 1.421 2.246 2.979 2.246 3.463 0 1.001 1.931 3.931 5.339 8.099 1.286 1.574 2.042 2.861 1.678 2.861-.363 0-.065.659.662 1.465 4.057 4.499 8.821 11.373 8.821 12.728 0 .729.9 1.888 2 2.575 1.1.687 2 1.682 2 2.211 0 .529 2.7 4.552 6 8.941 3.3 4.388 6 8.395 6 8.906 0 .51 1.8 2.838 4 5.174 2.2 2.336 4 4.836 4 5.556 0 .72.9 1.595 2 1.944s2 1.022 2 1.496.579 1.456 1.286 2.183c.708.726 2.62 3.116 4.25 5.31 1.63 2.195 4.142 5.12 5.583 6.5 1.44 1.381 4.06 4.536 5.822 7.011 1.762 2.475 3.427 4.364 3.701 4.197.273-.167 2.062 1.747 3.975 4.253 2.742 3.59 3.263 4.926 2.461 6.303-.559.961-1.031 1.323-1.048.806-.054-1.673-2.965 2.882-2.998 4.691-.018.962-.438 1.75-.934 1.75-.496 0-1.373 1.35-1.948 3s-1.519 3-2.098 3-1.052.614-1.052 1.364c0 .751-1.346 2.888-2.99 4.75-1.645 1.863-3.243 4.15-3.552 5.085-.308.934-1.437 1.977-2.509 2.317-1.072.34-1.949.988-1.949 1.439 0 1.175-6.792 11.085-9.626 14.045-1.316 1.375-4.009 4.975-5.984 8-1.975 3.025-4.496 6.288-5.601 7.25-1.106.962-1.669 1.75-1.251 1.75.417 0-.658 1.354-2.39 3.009-1.731 1.654-3.148 3.454-3.148 3.998s-1.804 2.902-4.009 5.241c-2.206 2.339-4.261 5.04-4.568 6.002-.307.962-.923 1.75-1.369 1.75-.446 0-1.364 1.335-2.04 2.967-.676 1.631-2.058 3.229-3.07 3.551-1.013.321-2.118 1.455-2.456 2.519-.338 1.064-1.849 3.179-3.358 4.699-1.51 1.52-4.645 5.571-6.967 9.002-2.322 3.432-5.03 7.032-6.018 8-.987.969-3.337 3.992-5.22 6.717-1.884 2.725-4.663 6.279-6.175 7.898-1.512 1.619-2.75 3.497-2.75 4.173 0 .676-.646 1.765-1.435 2.42-.789.654-2.413 3.072-3.609 5.372-1.196 2.3-2.463 4.407-2.815 4.682-.353.275-2.441 3.2-4.641 6.5-4.431 6.647-4.507 6.75-8.018 11-1.364 1.65-2.48 3.376-2.481 3.837-.001.881-5.618 9.193-7.751 11.471-.687.734-1.25 1.653-1.25 2.041 0 .388-2.245 3.844-4.99 7.678-5.724 7.999-5.513 7.687-11.476 16.973-2.472 3.85-5.516 8.299-6.765 9.887-1.248 1.588-2.446 3.356-2.662 3.929-.588 1.56-7.192 10.084-8.408 10.854-.582.369-1.171 1.44-1.309 2.381-.138.941-1.583 3.114-3.21 4.83-1.628 1.715-3.243 4.019-3.591 5.119-.347 1.1-2.394 3.92-4.548 6.267-2.154 2.347-4.2 5.16-4.546 6.25-.347 1.091-1.019 1.983-1.495 1.983-.476 0-1.116.787-1.423 1.75-.307.963-2.362 3.663-4.568 6.002-2.205 2.339-4.009 4.904-4.009 5.7 0 .797-.562 1.808-1.25 2.248-.687.44-3.048 3.5-5.245 6.8s-4.56 6.595-5.25 7.321c-.69.727-1.255 1.708-1.255 2.179 0 .471-.563 1.455-1.25 2.185-.688.731-2.992 3.913-5.122 7.072-2.129 3.159-4.267 5.743-4.75 5.743-.483 0-.878.675-.878 1.5s-.364 1.5-.81 1.5c-.445 0-2.692 2.813-4.992 6.25-2.3 3.438-5.53 7.825-7.179 9.75-3.868 4.516-3.82 4.451-8.519 11.5-2.2 3.3-4.338 6.15-4.75 6.333-.412.184-.75.886-.75 1.562 0 .675-.802 2.1-1.782 3.166-.98 1.067-2.817 3.627-4.081 5.689-1.265 2.062-2.713 3.75-3.219 3.75-.505 0-.918.702-.918 1.559s-.45 1.281-1 .941c-.55-.34-1-.174-1 .37 0 .543-.617 1.604-1.37 2.357-.754.754-2.116 2.811-3.026 4.572-.91 1.761-2.094 3.201-2.63 3.201s-.974.675-.974 1.5-.45 1.5-1 1.5-1 .548-1 1.218c0 .67-1.016 2.133-2.258 3.25-1.242 1.118-3.604 4.057-5.25 6.532-1.646 2.475-3.494 4.95-4.108 5.5-.614.55-3.036 3.7-5.384 7-2.348 3.3-4.807 6.45-5.465 7-.659.55-3.385 4.15-6.058 8-2.673 3.85-6.349 9.133-8.169 11.74-1.819 2.607-3.308 4.949-3.308 5.204 0 .256-2.25 3.475-5 7.153-2.75 3.679-5 7.252-5 7.939 0 .688-.675 1.509-1.5 1.826-.825.316-1.5 1.264-1.5 2.107 0 .842-.395 1.531-.879 1.531-.483 0-1.438 1.35-2.121 3s-1.638 3-2.121 3c-.484 0-.879.653-.879 1.45 0 .798-.569 1.81-1.264 2.25-.695.44-3.058 3.497-5.25 6.793-2.192 3.296-4.548 6.591-5.236 7.322-.687.73-1.25 1.714-1.25 2.185 0 .471-.563 1.452-1.251 2.179-.688.726-2.574 3.796-4.19 6.821-3.245 6.071-5.001 8.225-5.94 7.286-.706-.706-.771-.393-1.163 5.55-.298 4.539-2.188 10.164-3.415 10.164-.394 0-.773 1.491-.842 3.313-.068 1.823-.813 4.635-1.655 6.25-.843 1.616-1.57 3.612-1.617 4.437-.058 1.027-.244 1.106-.589.25-.858-2.125-2.338-1.379-2.338 1.179 0 1.335.678 3.107 1.508 3.936.934.934 1.124 1.744.5 2.13-.555.343-1.008 2.764-1.008 5.381 0 3.273-.899 6.517-2.882 10.393-1.585 3.099-2.699 5.817-2.476 6.04.224.223-.28.975-1.118 1.671-.838.696-1.524 2.024-1.524 2.953 0 .928-1.115 4.533-2.477 8.009-1.363 3.477-2.236 6.713-1.941 7.19.295.477.132.868-.361.868s-.957 1.608-1.031 3.573c-.1 2.665.522 4.182 2.445 5.965 1.419 1.315 2.869 2.321 3.222 2.236 1.443-.348 7.143 1.447 7.143 2.248 0 .475.947.681 2.103.458 1.452-.279 2.262.2 2.614 1.546.281 1.073.96 1.674 1.508 1.335.549-.34 1.353-.043 1.787.658.593.96 1.093.786 2.025-.707 1.165-1.866 1.659-1.567 8.448 5.103 7.39 7.262 11.631 11.021 12.515 11.091.275.022 1.759 1.226 3.297 2.676 2.617 2.465 8.538 5.791 11.08 6.223.618.105 2.248.829 3.623 1.608 1.375.779 2.8 1.432 3.167 1.452.366.019.973.341 1.347.716.375.375 1.267.457 1.983.182.715-.275 1.586-.038 1.934.525.348.564 1.294.771 2.101.461.807-.309 2.255-.216 3.218.208 2.141.942 2.882 1.157 4.543 1.318.711.069 1.724 1.588 2.25 3.375s1.52 3.25 2.207 3.25c.688 0 1.174.225 1.081.5-.093.275.411 1.584 1.121 2.91 1.14 2.131 1.398 2.217 2.223.742.513-.917.63-2.159.258-2.76-.467-.756-.023-.743 1.446.043 1.167.625 2.121 1.618 2.121 2.209 0 .654 1.007.82 2.579.425 2.125-.533 3.266.061 6.475 3.367 2.142 2.208 4.181 5.15 4.529 6.539.398 1.587 1.337 2.525 2.525 2.525 1.041 0 1.892.465 1.892 1.033 0 1.37 6.634 7.967 8.012 7.967.593 0 2.245 1.166 3.67 2.591 1.425 1.425 3.767 2.794 5.204 3.043 1.438.248 3.176 1.192 3.862 2.097.686.905 2.261 1.821 3.5 2.036 1.239.214 2.769.487 3.401.605.632.119 1.864.809 2.737 1.533.923.767 2.613 1.061 4.036.704 2.47-.62 4.735 1.126 9.335 7.193.96 1.266 2.511 2.414 3.446 2.552.936.137 2.51.929 3.499 1.76 2.547 2.141 7.298 5.027 7.298 4.434 0-.274 1.148-.062 2.551.471 1.403.534 4.216 1.191 6.25 1.46 5.883.778 7.422 1.239 12.199 3.653 2.475 1.25 4.725 2.302 5 2.337 1.214.156 4.852 3.961 4.434 4.637-.616.997 3.271 2.194 4.553 1.402.552-.341 1.56.642 2.238 2.186 1.458 3.315 2.786 4.42 4.227 3.518 2.032-1.272 3.679-1.035 4.287.617.338.919 1.098 2.002 1.688 2.406.721.494.663.739-.177.75-1.694.02-1.592 2.67.128 3.33.758.291 1.915.001 2.571-.643.921-.905 1.028-.508.472 1.742-.606 2.453-.459 2.815.929 2.282 1.072-.411 1.65-.118 1.65.835 0 .808.429 1.469.953 1.469s1.684 1.54 2.577 3.423c1.574 3.315 4.47 5.575 4.47 3.487 0-.566.45-.75 1-.41s1-.127 1-1.037c0-1.645 3.556-7.379 5.337-8.606.513-.353 2.39-.033 4.171.711 1.781.744 3.52 1.071 3.865.726.345-.345.627-.119.627.503 0 1.479 6.976 6.203 9.161 6.203.933 0 2.403-.707 3.268-1.571.864-.865 1.571-1.253 1.571-.864 0 .389 1.186-.479 2.636-1.929 1.45-1.45 2.913-2.64 3.25-2.644.338-.004 2.189-2.464 4.114-5.465 1.925-3.002 4.32-5.739 5.322-6.083 1.044-.358 1.592-1.227 1.282-2.034-.298-.776-.16-1.41.306-1.41.466 0 1.413-1.364 2.103-3.032.691-1.668 1.485-2.804 1.764-2.524.279.279 2.01-1.619 3.846-4.218 3.494-4.946 3.717-5.273 7.987-11.726 5.959-9.005 8.981-13.068 10.64-14.307.963-.718 1.75-1.975 1.75-2.792 0-.818 1.697-3.83 3.771-6.694 2.075-2.864 4.873-6.861 6.218-8.882 1.345-2.021 2.868-3.413 3.383-3.095.515.318.647.11.294-.462-.354-.573.026-1.597.845-2.277.819-.68 1.489-1.657 1.489-2.171 0-.514 1.942-3.721 4.316-7.127 2.373-3.406 5.378-8.33 6.677-10.943 1.299-2.612 2.677-4.75 3.063-4.75.386 0 1.261-1.35 1.944-3s1.676-3 2.205-3c.529 0 .757-.563.506-1.25s.517-2.6 1.706-4.25 3-4.912 4.024-7.25c1.025-2.338 2.244-4.25 2.711-4.25.466 0 .848-.787.849-1.75 0-.963 1.561-3.55 3.468-5.75 4.599-5.305 4.182-4.737 11.013-15.007 3.29-4.946 6.777-9.721 7.75-10.61.972-.89 1.768-1.99 1.768-2.446 0-.455 1.06-1.977 2.356-3.382 1.296-1.405 4.513-5.705 7.15-9.555 2.637-3.85 5.401-7.36 6.144-7.8.742-.44 1.35-1.677 1.35-2.75 0-1.072.42-1.95.933-1.95.513 0 1.217-.897 1.565-1.994.348-1.097 1.166-2.562 1.818-3.257.651-.694 2.982-3.96 5.179-7.256 2.197-3.296 4.56-6.588 5.25-7.314.69-.727 1.255-1.708 1.255-2.179 0-.471.563-1.455 1.25-2.185.688-.731 3.048-4.026 5.245-7.322 2.197-3.296 4.53-6.558 5.184-7.249.655-.691 1.475-2.153 1.823-3.25.348-1.097.98-1.994 1.405-1.994.424 0 1.631-1.795 2.682-3.989 1.051-2.193 2.248-3.993 2.661-4 .413-.006.75-.911.75-2.011s.42-2 .933-2c.513 0 1.217-.897 1.565-1.994.348-1.097 1.166-2.571 1.818-3.277 2.179-2.361 5.888-7.914 6.063-9.078.094-.633 1.764-3.626 3.71-6.651s4.399-7.187 5.452-9.25c1.053-2.062 2.231-3.75 2.619-3.75.388 0 1.012-.968 1.388-2.151.375-1.183 3.218-4.689 6.317-7.792 3.099-3.103 6.501-7.198 7.56-9.099 1.058-1.902 2.183-3.683 2.5-3.958 1.892-1.644 5.075-7.219 5.075-8.888 0-1.083.577-2.564 1.283-3.291.706-.726 3.836-4.921 6.955-9.321 3.12-4.4 6.082-8.478 6.582-9.063.5-.585 1.481-2.131 2.18-3.437 1.421-2.656 1.845-3.239 5.448-7.5 4.212-4.982 5.992-7.222 7.274-9.157 6.487-9.786 9.008-13.264 11.44-15.783 1.561-1.617 2.838-3.272 2.838-3.678 0-.407.562-1.337 1.25-2.067.688-.731 3.047-4.026 5.243-7.322 2.196-3.296 5.233-7.265 6.75-8.82 1.516-1.555 2.757-3.388 2.757-4.074 0-.686 1.575-3.462 3.5-6.17 1.925-2.707 3.5-4.524 3.5-4.036 0 .487 1.164-.864 2.586-3.003 1.423-2.14 3.144-4.34 3.825-4.89.681-.55 3.679-4.6 6.664-9 2.984-4.4 5.988-8.595 6.675-9.321.688-.727 1.25-1.686 1.25-2.132 0-.445 1.275-2.101 2.833-3.678 1.558-1.578 4.371-5.109 6.25-7.846 1.879-2.738 4.317-5.752 5.417-6.699 1.916-1.649 2.115-1.6 4.75 1.173 1.513 1.592 2.75 3.29 2.75 3.773 0 .483 1.575 3.093 3.5 5.801 1.925 2.707 3.5 5.288 3.5 5.734 0 .883 4.974 7.553 8.9 11.935 1.35 1.506 2.172 3.021 1.827 3.366-.344.345 1.758 3.615 4.672 7.267 2.914 3.652 6.025 8.046 6.913 9.763.888 1.717 2.31 3.389 3.16 3.715.851.326 1.489.943 1.419 1.371-.324 1.97.215 3.28 1.359 3.306.688.015 2.375 1.623 3.75 3.573s3.204 4.3 4.064 5.223c2.834 3.038 11.936 16.125 11.936 17.161 0 .558.439 1.015.976 1.015.537 0 3.572 3.487 6.745 7.75s6.025 7.975 6.34 8.25c.314.275 2.929 3.65 5.811 7.5 6.409 8.561 10.075 13.193 12.378 15.64.962 1.023 1.75 2.117 1.75 2.431 0 .315.563 1.199 1.25 1.966 4.893 5.456 11.75 15.33 11.75 16.92 0 .849.599 1.543 1.331 1.543s1.947 1.237 2.7 2.75c.754 1.513 2.718 4.212 4.366 6 1.647 1.787 2.682 3.25 2.299 3.25s0 .787.852 1.75c3.434 3.884 12.254 15.938 13.719 18.75.86 1.65 2.501 3.994 3.648 5.208 1.147 1.215 2.085 2.569 2.085 3.01 0 .442 1.237 2.131 2.75 3.756 1.513 1.624 3.2 3.725 3.75 4.669.55.944 3.514 5.01 6.586 9.036 3.073 4.027 8.001 10.921 10.952 15.321 2.952 4.4 6.837 9.753 8.634 11.895 1.797 2.142 3.029 4.279 2.739 4.75-.291.47-.052.855.53.855.582 0 1.059.638 1.059 1.417s.375 1.566.834 1.75c.458.183 3.467 3.933 6.685 8.333 3.219 4.4 6.132 8.225 6.473 8.5 1.643 1.324 8.008 10.428 8.008 11.455 0 .642.788 2.041 1.75 3.107 3.803 4.215 7.25 9.384 7.25 10.871 0 .862.702 1.567 1.559 1.567s1.279.453.937 1.007c-.343.554.081 1.277.941 1.607.859.33 1.563.998 1.563 1.485 0 .487 2.137 3.857 4.75 7.489 2.612 3.631 4.75 6.908 4.75 7.282 0 .694.207.969 5.465 7.262 1.669 1.998 3.035 4.135 3.035 4.75 0 .615.401 1.118.892 1.118.49 0 1.174 1.125 1.519 2.5s1.069 2.5 1.608 2.5c.54 0 .981.605.981 1.345s.949 2.202 2.11 3.25c1.16 1.048 4.366 5.168 7.125 9.155 2.758 3.987 5.409 7.25 5.89 7.25.481 0 .875.445.875.989 0 1.046 2.097 3.879 5.644 7.625 1.179 1.246 1.923 2.486 1.653 2.756-.271.27.452 1.081 1.606 1.801 1.153.721 2.097 1.769 2.097 2.33 0 .561 1.017 2.14 2.26 3.509 1.243 1.37 4.725 5.865 7.736 9.99s6.075 8.126 6.809 8.89c.733.765 2.078 2.565 2.99 4 .911 1.436 2.23 2.97 2.931 3.41.701.44 1.274 1.147 1.274 1.571 0 .424 2.016 2.875 4.48 5.447 2.464 2.572 4.762 5.798 5.106 7.169.463 1.844 1.64 2.766 4.52 3.542 2.142.576 3.894 1.481 3.894 2.01 0 .528.442.961.982.961s2.605 1.577 4.589 3.504c1.985 1.927 3.977 3.275 4.427 2.997.451-.279 1.981.874 3.401 2.561 1.622 1.929 3.049 2.787 3.841 2.311.806-.484.743-.12-.176 1.011-1.247 1.537-1.247 1.887 0 2.677 2.227 1.409 6.192 1.178 5.334-.311-.396-.687.365-.28 1.691.905s4.324 2.719 6.661 3.408c2.337.69 4.25 1.82 4.25 2.512s.437 1.408.97 1.592c.534.183 2.897 2.005 5.25 4.048 8.773 7.615 14.282 11.785 15.571 11.785.73 0 1.049.45.709 1-.34.55.084 1 .941 1s1.559.395 1.559.878 1.824 1.342 4.053 1.908c3.941 1 4.163.917 8.006-2.964 2.175-2.196 3.699-4.404 3.388-4.907-.311-.503.084-.915.877-.915.794 0 1.678-.9 1.966-2 .333-1.276 1.372-2.006 2.866-2.015 1.88-.013 2.047-.207.844-.985-1.2-.776-1.026-.972.872-.985 1.871-.012 2.137-.299 1.259-1.357-.612-.738-.818-1.638-.456-2 .362-.362.021-.672-.758-.689-.78-.017 2.569-2.017 7.441-4.443 4.873-2.427 9.633-5.113 10.579-5.969.946-.856 2.199-1.557 2.785-1.557.585 0 1.348-.739 1.695-1.643.346-.904.917-1.356 1.268-1.005 1.176 1.175 11.192-7.385 13.342-11.402.59-1.103 1.501-1.742 2.023-1.419.523.323.95-.115.95-.972s.45-1.559 1-1.559 1-.627 1-1.393.675-1.652 1.5-1.969c.825-.316 1.5-1.469 1.5-2.562 0-2.503 4.641-9.466 5.444-8.167.935 1.514 4.625.831 5.627-1.042.649-1.212 1.768-1.56 3.918-1.221 3.349.527 3.74-.06 1.519-2.281-.836-.835-2.046-1.16-2.75-.737-.869.522-.834.233.114-.936.755-.931 2.246-1.692 3.313-1.692 1.411 0 1.855-.581 1.628-2.13-.195-1.324.444-2.545 1.687-3.228 1.1-.603 3.125-1.77 4.5-2.591 1.375-.822 3.65-1.552 5.055-1.622 1.406-.07 3.692-.872 5.08-1.782 1.389-.91 2.728-1.45 2.977-1.202.249.249 3.129-1.549 6.401-3.996 3.271-2.447 6.471-4.449 7.11-4.449 1.129 0 2.836-2.797 2.556-4.189-.076-.379.77-.977 1.88-1.33 1.11-.352 3.163-2.371 4.563-4.486 1.399-2.114 3.182-4.09 3.961-4.389.779-.299 1.417-1.421 1.417-2.493 0-2.835 1.074-5.185 2.084-4.561.481.297 1.896-.041 3.145-.751 2.196-1.249 2.819-1.439 5.542-1.686.7-.063 1.784-1.24 2.411-2.615.626-1.375 1.655-2.5 2.286-2.5 1.966 0 7.532-5.201 7.532-7.038 0-.961.606-1.981 1.348-2.265.741-.285 2.368-2.695 3.616-5.357 1.247-2.662 3.94-6.415 5.983-8.34 2.043-1.925 4.006-4.297 4.361-5.27.354-.974 2.016-2.045 3.693-2.38 1.719-.344 3.918-1.832 5.044-3.413 1.098-1.542 2.999-2.946 4.225-3.12 1.406-.2 2.345-1.128 2.542-2.512.22-1.547.785-2.013 1.914-1.58 1.158.445 1.373.244.774-.725-.605-.979-.38-1.168.836-.701.963.369 1.664.149 1.664-.522 0-.637.586-.358 1.303.622 1.184 1.62 1.422 1.637 2.622.191.976-1.175 1.031-1.938.213-2.923-.834-1.006-.755-1.334.322-1.334.786 0 1.341.488 1.234 1.084-.106.595.481 1.083 1.306 1.083.825 0 1.35-.675 1.167-1.5-.184-.825-.014-1.18.377-.79.39.391 2.191.092 4.001-.665 1.811-.756 3.515-1.152 3.788-.879.273.273 1.429-.004 2.571-.614 2.328-1.247 2.331-5.147.004-5.906-4.002-1.305-6.801-7.396-4.47-9.727.866-.866 2.045-2.452 2.619-3.525.574-1.073 1.412-1.722 1.862-1.444 1.491.921 8.081-6.417 8.081-8.998 0-1.349-.45-2.452-1-2.452s-1-1.302-1-2.893c0-1.657-.645-3.14-1.509-3.472-.83-.319-1.452-.929-1.382-1.357.286-1.743-.218-2.904-2.36-5.435-3.356-3.964-5.249-6.808-5.249-7.884 0-.527-.367-.936-.816-.907-1.203.076-4.684-4.633-4.684-6.337 0-.809-.614-1.979-1.364-2.602-.75-.622-4.012-4.754-7.25-9.182-3.237-4.428-6.831-9.1-7.987-10.381-1.155-1.282-3.141-4.068-4.412-6.19-1.272-2.123-3.279-4.76-4.46-5.86-2.978-2.772-13.713-17.493-12.784-17.53.416-.017-.04-.495-1.014-1.062-.974-.567-1.491-1.484-1.149-2.037.341-.553-.228-1.228-1.265-1.499-1.038-.271-3.446-2.778-5.351-5.57-1.905-2.792-5.039-6.754-6.964-8.805-1.925-2.05-5.75-6.332-8.5-9.515-2.75-3.183-8.487-9.407-12.75-13.83-4.263-4.424-7.75-8.568-7.75-9.21 0-1.07-4.026-6.817-7.315-10.442-2.695-2.971-9.72-12.982-10.851-15.464-.635-1.395-1.758-2.536-2.495-2.536-.736 0-1.339-.706-1.339-1.57 0-.863-2.925-5.315-6.5-9.893-3.575-4.579-6.5-9.047-6.5-9.931 0-.883-.675-1.606-1.5-1.606s-1.5-.365-1.5-.811c0-.447-1.013-1.892-2.25-3.213-1.237-1.321-4.95-6.059-8.25-10.53-13.505-18.298-23.407-31.121-26.667-34.534-.916-.96-1.386-2.026-1.043-2.368.342-.343-.258-.86-1.334-1.149-1.076-.289-3.474-2.746-5.329-5.459-1.856-2.713-5.568-7.198-8.25-9.966-2.682-2.769-4.877-5.469-4.877-6.002 0-.532-.42-.968-.933-.968-.513 0-1.211-.877-1.551-1.949-.34-1.072-1.383-2.198-2.317-2.502-1.638-.534-10.313-11.603-10.38-13.245-.019-.442-.976-2.604-2.128-4.804-1.153-2.2-2.013-4.31-1.913-4.689.1-.379-.709-.972-1.798-1.317-1.089-.346-1.98-1.273-1.98-2.061s-.38-1.433-.843-1.433c-.464 0-2.363-2.226-4.219-4.947-1.888-2.766-4.421-5.208-5.748-5.541-1.505-.378-2.175-1.11-1.832-2.003.322-.838-.278-1.666-1.484-2.049-1.114-.353-1.779-.888-1.479-1.188.539-.54-2.607-5.514-5.132-8.113-1.363-1.404-13.109-17.952-17.319-24.402-1.344-2.059-2.781-3.746-3.194-3.75-.413-.004-.75-.645-.75-1.424 0-.779-.341-1.566-.757-1.75-1.34-.589-8.411-10.443-9.926-13.833-.369-.825-.957-1.725-1.307-2-1.485-1.167-13.01-17.145-13.01-18.036 0-.537-1.19-1.987-2.644-3.221-2.824-2.395-13.606-18.303-13.992-20.643-.127-.77-.629-1.67-1.114-2-.486-.33-2.879-3.275-5.317-6.544-2.438-3.27-5.687-7.32-7.22-9-1.532-1.681-3.067-4.181-3.41-5.556-.342-1.375-2.576-4.742-4.963-7.483-2.387-2.74-4.34-5.74-4.34-6.666 0-.927-.354-1.834-.786-2.018-1.135-.481-5.627-7.04-5.847-8.536-.102-.697-1.813-3.169-3.803-5.493-1.989-2.324-3.385-4.829-3.102-5.567.283-.737.085-1.075-.44-.751-.525.325-2.312-1.339-3.97-3.698-4.051-5.758-3.957-5.636-8.802-11.501-2.337-2.83-4.25-5.695-4.25-6.365 0-.671-1.575-2.75-3.5-4.619-1.925-1.87-3.5-3.842-3.5-4.383 0-.54-.675-1.242-1.5-1.558-.825-.317-1.5-1.428-1.5-2.469s-.562-1.903-1.25-1.914c-.687-.012-2.587-1.925-4.222-4.25-3.585-5.101-4.506-6.298-6.778-8.801-.962-1.06-1.75-2.173-1.75-2.472 0-.299-1.13-1.761-2.511-3.25-4.283-4.616-4.105-5.629 2.461-13.968 7.78-9.88 15.447-20.908 15.52-22.324.016-.322 1.718-3.185 3.78-6.363 2.063-3.178 3.75-6.177 3.75-6.664 0-.488.401-.887.892-.887.49 0 1.178-1.143 1.529-2.541.351-1.397 1.022-2.303 1.492-2.013.47.291 1.412-.816 2.092-2.459.681-1.643 1.536-2.987 1.901-2.987.364 0 1.945-2.7 3.512-6s3.195-6 3.618-6c.423 0 1.271-1.442 1.886-3.205.922-2.645 7.264-12.981 9.078-14.795 1.362-1.362 4.978-7.036 6.96-10.922 1.223-2.398 2.639-4.859 3.146-5.469 1.869-2.248 5.894-8.722 5.894-9.479 0-.43 1.134-1.846 2.519-3.148 1.386-1.302 2.364-2.833 2.174-3.403-.19-.57.033-1.495.495-2.057 2.068-2.514 5.812-8.704 5.812-9.607 0-1.053 3.94-7.002 5.303-8.007.441-.325.68-1 .53-1.5-.267-.892 4.524-8.702 6.85-11.164.652-.691 1.471-2.153 1.819-3.25.348-1.097.973-1.994 1.388-1.994.416 0 1.817-2.125 3.114-4.723 2.116-4.237 5.648-10.067 7.74-12.777 2.116-2.742 4.701-7.148 4.891-8.338.118-.735.967-2.17 1.887-3.187.921-1.017 1.41-2.276 1.087-2.799-.323-.522.083-1.505.902-2.185.819-.68 1.489-1.874 1.489-2.654 0-1.354 3.092-6.265 5.75-9.131.688-.742 1.25-1.94 1.25-2.663 0-1.144 7.43-13.179 8.979-14.543.312-.275 1.379-1.775 2.371-3.332.992-1.558 3.295-4.483 5.118-6.5 1.822-2.018 3.368-4.118 3.434-4.668.336-2.765 1.384-4.456 3.098-5 1.044-.331 2.143-1.376 2.443-2.321.3-.945 2.793-4.859 5.541-8.698 2.747-3.84 5.437-7.656 5.977-8.481 6.672-10.188 8.576-12.822 10.632-14.702 1.324-1.211 2.407-2.619 2.407-3.128 0-.509.67-1.481 1.489-2.161.819-.68 1.275-1.582 1.014-2.005-.262-.423.353-1.834 1.366-3.136 3.981-5.117 17.131-24.944 17.131-25.829 0-.517.569-1.299 1.264-1.739.695-.44 3.058-3.497 5.25-6.793 2.192-3.296 4.549-6.591 5.236-7.322.688-.73 1.25-1.714 1.25-2.185 0-.471.563-1.455 1.25-2.185.688-.731 3.048-4.026 5.245-7.322 2.197-3.296 4.56-6.588 5.25-7.314.69-.727 1.255-1.708 1.255-2.179 0-.471.579-1.452 1.287-2.179.709-.726 2.254-2.902 3.436-4.834 1.181-1.933 3.189-4.451 4.462-5.595 2.348-2.111 2.729-2.623 7.505-10.086 1.476-2.306 2.977-4.012 3.336-3.79.358.221 1.591-1.269 2.74-3.313 1.148-2.043 3.133-4.655 4.411-5.804 1.278-1.149 2.998-3.088 3.823-4.31.825-1.221 3.862-4.727 6.75-7.79 2.888-3.064 5.25-5.986 5.25-6.494s.45-.645 1-.305 1 .233 1-.238c0-1.038 2.852-4.894 5.25-7.098.963-.885 1.75-2.117 1.75-2.738s1.237-2.489 2.75-4.151c3.802-4.177 6.25-7.522 6.25-8.537 0-.471.418-.598.928-.282.51.315 1.216-.333 1.567-1.441.352-1.108 1.029-2.015 1.505-2.015s1.153-.907 1.505-2.015c.351-1.108 1.057-1.756 1.567-1.441.51.316.928.093.928-.494 0-.588 1.237-2.39 2.75-4.005 6.364-6.796 10.499-11.91 14.384-17.789 2.269-3.434 5.253-7.46 6.63-8.946 1.377-1.486 4.536-5.651 7.02-9.256 2.484-3.605 5.124-7.264 5.866-8.133.743-.868 1.358-2.218 1.368-3 .009-.781 2.238-4.571 4.952-8.421 2.714-3.85 5.805-8.854 6.869-11.121 1.064-2.266 2.435-4.431 3.048-4.809.612-.378 1.113-1.493 1.113-2.476 0-.983.85-2.768 1.889-3.966 1.039-1.198 2.469-3.629 3.178-5.403 1.353-3.384 6.936-12 8.127-12.54.381-.173 1.205-1.864 1.83-3.759.626-1.894 1.551-3.189 2.057-2.876.505.312.919-.123.919-.968 0-.846 1.371-4.071 3.047-7.169 1.676-3.097 2.865-6.145 2.643-6.772-.221-.628-.051-2.096.38-3.262 1.435-3.89-1.826-10.473-9.28-18.734-1.49-1.651-2.979-4.23-3.309-5.73-.661-3.012-6.701-7.524-9.981-7.456-1.1.022-2.265-.318-2.588-.756-.324-.439-1.674-.924-3-1.078-3.831-.445-5.83-1.674-5.238-3.219.383-.996.061-1.241-1.063-.81-.914.35-1.611.113-1.611-.548 0-.641-.427-.902-.95-.579-.522.323-1.436-.321-2.03-1.431-1.111-2.077-2.893-2.297-4.346-.538-.535.648-1.005.56-1.333-.25-.279-.687-1.262-1.25-2.184-1.25-.922 0-2.265-.944-2.986-2.097-.72-1.154-1.586-1.821-1.925-1.483-.338.338-1.994-.711-3.68-2.333-1.686-1.621-3.739-3.091-4.562-3.267-.823-.176-1.999-.959-2.612-1.741-.613-.782-1.796-1.521-2.627-1.643-2.076-.305-8.478-3.332-13.108-6.199-2.114-1.309-4.425-2.156-5.137-1.883-.894.343-1.125-.147-.749-1.585.342-1.311.154-1.841-.509-1.431-.579.358-1.312-.026-1.629-.853-.318-.827-.927-1.427-1.355-1.333-1.478.325-6.619-2.236-7.915-3.941-.715-.941-1.314-1.273-1.331-.738-.018.534-.733-.028-1.589-1.25-.856-1.223-2.206-2.223-3-2.223s-1.443-.477-1.443-1.059-.437-.789-.971-.459-1.987-.569-3.229-1.997c-1.242-1.428-4.857-5.32-8.034-8.648-4.99-5.228-6.149-5.974-8.521-5.484-1.51.312-2.182.323-1.495.024 1.71-.744 1.584-3.377-.161-3.377-.776 0-2.464-1.238-3.75-2.75s-3.464-2.856-4.839-2.986c-5.537-.522-5.901-.696-5.701-2.723.147-1.495-.301-1.955-1.676-1.718-1.573.271-1.769-.107-1.209-2.335 1.039-4.139-.156-6.349-3.801-7.033-2.709-.508-3.763-1.549-6.11-6.034-1.56-2.982-3.211-5.421-3.669-5.421-.459 0-.834-.468-.834-1.04 0-2.172-7.237-11.211-9.253-11.558-.686-.118-3.162-.66-5.503-1.203-2.341-.544-4.47-.643-4.732-.219-.525.851-5.539 1.077-6.827.308-1.127-.673 2.295-4.288 4.06-4.288 2.699 0 6.615-6.229 4.505-7.167-.413-.183-1.716-2.133-2.897-4.333-1.18-2.2-2.53-4.007-3-4.015-.469-.009-1.303-.288-1.853-.621s-1.9-.412-3-.176-2.562.478-3.25.537c-.687.06-1.25.411-1.25.781 0 .37-1.237 1.273-2.75 2.006-2.789 1.353-5.341 1.379-6.25.065-.537-.776-3.678-2.21-5.8-2.647-1.952-.402-4.2-2.51-4.2-3.937 0-.695-1.125-2-2.5-2.901-1.375-.901-2.5-1.348-2.5-.993 0 .355-.661.097-1.47-.574-2.311-1.918-7.53-1.955-7.53-.055M737 420.417c0 .871-.337 1.595-.75 1.61-.413.015-1.847 1.805-3.188 3.979-1.34 2.173-2.651 3.739-2.911 3.478-.261-.26-1.526 1.075-2.812 2.968-2.258 3.322-2.964 5.548-1.761 5.548 1.196 0 8.422-8.222 8.422-9.582 0-.78.441-1.418.981-1.418.539 0 1.263-1.125 1.608-2.5.345-1.375 1.292-2.5 2.103-2.5 1.684 0 1.289-2.173-.504-2.771-.654-.218-1.188.317-1.188 1.188m17.174 6.715c-1.279 1.577-1.954 2.854-1.5 2.837.929-.036 4.716-4.939 4.174-5.406-.191-.165-1.395.991-2.674 2.569M223 621.583c0 .871.534 1.406 1.188 1.188 1.854-.618 2.161-2.771.395-2.771-.87 0-1.583.712-1.583 1.583m2 2.867c0 .798.596 1.81 1.325 2.25 1.304.787 3.107 4.195 2.873 5.431-.065.347.764 1.429 1.842 2.405 1.078.976 1.96 2.379 1.96 3.119 0 .74.45 1.345 1 1.345s1 .675 1 1.5c0 .849.896 1.5 2.064 1.5 2.046 0 2.044-.037-.25-4.25-1.273-2.337-2.652-4.4-3.064-4.583-.412-.184-.751-.859-.751-1.5-.001-.642-1.126-2.474-2.5-4.073-1.375-1.598-2.499-3.285-2.499-3.75 0-.464-.675-.844-1.5-.844s-1.5.653-1.5 1.45m15.543 21.481c-.74 1.197 1.141 2.382 2.473 1.559 1.119-.691.384-2.49-1.016-2.49-.485 0-1.141.419-1.457.931" fill-rule="evenodd"/></svg>