<svg xmlns="http://www.w3.org/2000/svg" width="1240" height="1753"><path d="M278.397 41.285c-1.157.668-1.913 1.761-1.679 2.428.713 2.038-4.463 2.684-7.19.897-2.309-1.512-2.522-1.489-3.521.376-.614 1.148-2.001 1.936-3.285 1.865-1.222-.067-3.006.211-3.964.617-1.17.497-1.943.214-2.357-.864-.338-.882-1.017-1.604-1.508-1.604-1.326 0-1.082 5.411.307 6.8.782.782.824 1.2.122 1.2-.592 0-1.637-.675-2.322-1.5s-1.865-1.5-2.622-1.5c-.758 0-1.378-.354-1.378-.787 0-.433-.9-.855-2-.938-1.143-.086-2 .466-2 1.287 0 1.709-1.669 1.931-2.215.294-.485-1.457-5.785-2.072-5.785-.671 0 .576-.9.813-2 .525-1.11-.29-2-.03-2 .584 0 .756-.379.727-1.2-.094-1.394-1.394-6.96-1.608-8.35-.321-.523.484-2.637 1.419-4.7 2.078-2.062.659-3.75 1.688-3.75 2.287s-.293.796-.651.438c-.358-.358-1.161.046-1.784.898-1.006 1.376-1.425 1.318-3.756-.516-3.125-2.458-3.809-2.559-3.809-.564 0 .825-.675 1.5-1.5 1.5s-1.447-.337-1.382-.75c.333-2.105-.281-3.25-1.74-3.25-1.323 0-1.395.275-.389 1.487 1.075 1.296.831 1.346-1.898.395-2.361-.823-3.497-.79-4.612.135-.813.675-1.479.893-1.479.483 0-.41-.604-.244-1.342.369-.738.612-1.643.813-2.01.445-.368-.367-1.325.199-2.127 1.259-1.364 1.804-1.459 1.812-1.489.118-.018-.995-.462-1.543-.988-1.218-.526.325-.703 1.252-.393 2.059.309.807.023 1.468-.638 1.468-.66 0-1.436-.901-1.724-2.001-.48-1.837-.759-1.734-3.39 1.25-1.577 1.788-2.874 3.84-2.883 4.56-.009.72-.435 1.05-.947.734-.512-.317-1.214-.117-1.561.443-.426.691-1.255.685-2.568-.018-3.068-1.642-11.663-.136-12.26 2.149-.606 2.317-2.417 2.472-2.857.246-.319-1.615-1.917-1.892-15.09-2.621-2.572-.143-3.614-.611-3.282-1.475.268-.697.081-1.267-.415-1.267s-1.153.793-1.46 1.761c-1.039 3.272-23.856 7.022-25.596 4.206-.63-1.018-1.158-1.064-2.207-.193-2.126 1.764-14.535 2.122-25.961.749-6.034-.725-11.512-.895-13.204-.41-1.591.456-3.279.591-3.75.299-.472-.292-.858.157-.858.998 0 2.392-2.982.701-3.116-1.767-.088-1.619-.226-1.726-.564-.44-.75 2.848-5.256 3.394-10.57 1.279-1.061-.422-1.75-.239-1.75.463 0 .637-1.35 1.63-3 2.205-1.65.575-3 1.452-3 1.948s-.477.902-1.059.902-.781-.45-.441-1c.854-1.382-1.084-1.252-3.725.25-3.266 1.857-4.434 3.102-5.21 5.547-.605 1.905-.319 2.214 2.118 2.282 1.549.043 2.302.29 1.673.548-.629.258-.904 1.385-.611 2.505.299 1.145.816 1.579 1.18.99.355-.576 1.643-.786 2.861-.468 1.735.454 2.214 1.311 2.214 3.963 0 1.86.477 3.383 1.059 3.383s.795.427.473.949c-.873 1.412 1.585 10.43 3.087 11.328.715.428 1.595 2.345 1.954 4.261.36 1.916 1.101 3.76 1.647 4.098.633.391.584.867-.136 1.312-1.153.713.064 9.021 1.984 13.552 2.641 6.229 5.986 18.186 5.552 19.845-.287 1.098.529 3.452 1.893 5.46 1.319 1.941 2.137 3.952 1.818 4.469-.324.524-.962.339-1.441-.417-1.248-1.97-1.081-.371.271 2.596.638 1.401 1.507 2.547 1.93 2.547.423 0 .965 1.012 1.203 2.25.43 2.231.435 2.232.57.071.075-1.198-.571-2.885-1.435-3.75-.865-.864-1.149-1.571-.633-1.571.811 0 6.311 6.905 11.204 14.065.825 1.207 3.419 4.333 5.763 6.947 6.543 7.292 8.527 10.031 7.797 10.762-.368.367-1.077.006-1.576-.803-2.475-4.013-4.834-6.776-14.575-17.074-1.875-1.982-3.409-4.093-3.409-4.691 0-.599-.45-1.366-1-1.706-1.782-1.101-1.062 1.129 1.649 5.11 2.827 4.151 5.773 9.124 8.124 13.714.796 1.553 2.07 3.062 2.831 3.354.762.293 1.167.883.901 1.313-.266.431.187 1.338 1.006 2.018.819.68 1.489 1.702 1.489 2.273 0 .889 7.301 11.281 8.935 12.718C91.556 208.304 107 227.009 107 227.88c0 .616.41 1.12.91 1.12.861 0 7.272 7.364 20.382 23.41 3.186 3.9 6.576 7.99 7.532 9.09.957 1.1 2.471 3.125 3.365 4.5.893 1.375 3.906 4.863 6.695 7.75 4.877 5.049 7.051 6.631 5.495 4-1.925-3.255 6.416 6.306 8.941 10.25 1.585 2.475 3.921 5.625 5.191 7 1.271 1.375 3.297 4.415 4.503 6.755s2.605 4.51 3.109 4.821c.503.311 2.081 2.896 3.506 5.745 1.426 2.848 3.385 6.079 4.355 7.179.97 1.1 2.99 4.25 4.489 7 1.499 2.75 3.298 5.675 3.996 6.5.699.825 4.072 6 7.495 11.5s7.262 11.125 8.531 12.5c1.269 1.375 5.515 7.225 9.435 13 3.921 5.775 9.12 12.975 11.553 16 2.434 3.025 7.247 9.1 10.695 13.5 3.448 4.4 6.507 8.225 6.798 8.5.291.275 3.224 3.875 6.519 8 3.294 4.125 9.368 11.571 13.497 16.547 4.13 4.976 8.858 10.79 10.508 12.921 1.65 2.13 5.237 6.608 7.971 9.952 2.733 3.344 5.305 6.53 5.714 7.08 2.791 3.753 11.438 13.435 19.202 21.5 5.031 5.225 11.582 12.425 14.56 16 2.978 3.575 7.534 8.75 10.124 11.5 7.424 7.883 13.049 14.369 19.948 23 3.517 4.4 7.173 8.9 8.124 10 11.316 13.091 19.853 22.797 23.232 26.413 2.269 2.427 6.375 7.226 9.125 10.664 2.75 3.438 8.866 10.677 13.59 16.087 4.725 5.41 11.358 13.886 14.74 18.836 6.444 9.431 18.54 26.575 24.606 34.877 1.96 2.682 3.57 5.382 3.577 6 .008.617 2.252 3.598 4.987 6.623 2.735 3.025 4.979 5.904 4.987 6.397.007.493 1.694 2.968 3.748 5.5 2.055 2.532 4.076 5.053 4.492 5.603.416.55 2.693 3.475 5.06 6.5 2.367 3.025 7.626 10 11.687 15.5 4.061 5.5 9.891 13.318 12.955 17.373a2706.7 2706.7 0 0 1 7.526 10c1.076 1.445 5.313 6.227 9.416 10.627 4.103 4.4 8.942 10.312 10.753 13.137 1.811 2.825 3.932 5.776 4.713 6.557 2.469 2.469 2.813 7.2 1.706 23.469-1.829 26.866-1.3 120.336.7 123.698 1.104 1.856.834 21.759-.45 33.139-1.495 13.265-1.567 74.213-.097 83 2.349 14.041 3.391 30.087 3.277 50.5-.068 12.375-.244 23.175-.39 24-.294 1.657-.386 34.942-.188 67.5.093 15.305-.259 22.487-1.298 26.484-.784 3.017-1.213 5.829-.952 6.25.26.421.05.766-.468.766-.817 0-1.614 11.481-1.422 20.5.397 18.647.3 23.579-.493 24.996-.6 1.072-.456 3.48.405 6.8 1.621 6.248 1.718 11.919.229 13.408-.711.711-.775 1.69-.181 2.752 1.365 2.438.362 7.787-1.337 7.135-1.834-.703-1.768 1.841.087 3.38 1.06.88 1.544 3.885 1.75 10.872l.285 9.657 1.78-5.759c1.213-3.92 1.481-6.319.841-7.514-.916-1.712.637-5.227 2.31-5.227.966 0 .446 11.664-.714 16-.846 3.164-1.846 25.961-1.687 38.471.076 5.938-1.683 14.119-3.74 17.392-.9 1.433-1.677 5.924-1.973 11.411-.269 4.977-.921 10.184-1.449 11.572-.527 1.388-1.23 6.041-1.562 10.339-.464 6.015-.306 7.815.684 7.815.993 0 1.139 1.765.639 7.75-.356 4.263-1.144 13.825-1.751 21.25-.607 7.425-1.737 14.937-2.511 16.694-1.521 3.452-1.538 9.53-.025 8.594.56-.345.634 1.37.187 4.32-1.275 8.421-1.94 89.648-.916 111.892.486 10.552.996 14.205 2.071 14.831 1.042.606 1.137 1.18.353 2.125-1.883 2.268-1.217 43.652.713 44.295 1.545.514 1.669 4.249.142 4.249-.683 0-.868.96-.481 2.5.345 1.375.25 2.5-.21 2.5-.46 0-.741 1.463-.623 3.25.117 1.788.497 7.975.844 13.75.649 10.795 1.808 24.766 3.744 45.117 1.047 11.013 1.271 11.793 4.304 15.007 1.759 1.865 4.849 4.513 6.866 5.883 2.017 1.371 3.899 3.209 4.183 4.085.283.875 1.668 2.675 3.078 4 2.458 2.31 3.137 2.408 16.732 2.408 7.794 0 17.546-.143 21.671-.318 4.125-.174 28.425-.075 54 .222 47.203.546 64.01-.075 74.118-2.743 3.09-.816 9.84-1.785 15-2.154l9.382-.671 1.215 3.22c1.193 3.16 1.261 3.189 3.715 1.582 3.152-2.065 7-2.201 6.24-.221-.299.78.105 1.667.898 1.971.92.353 2.387-.874 4.049-3.385 3.074-4.646 3.203-4.697 15.13-5.927 5.085-.525 9.651-1.204 10.146-1.51.495-.306 4.547-.753 9.004-.993 6.414-.346 8.103-.151 8.103.936 0 4.507 6.988.995 10.491-5.272 1.683-3.011 2.409-5.498 2.038-6.978-.318-1.265-.053-3.279.587-4.476 1.196-2.234 1.417-33.346.361-50.783-.283-4.675-.704-12.911-.936-18.303-.231-5.391-.908-13.041-1.504-17-1.865-12.383-1.774-25.287.474-66.697.134-2.475.299-17.888.367-34.25.077-18.923.483-29.75 1.114-29.75.638 0 .863 8.562.631 24.022-.198 13.212.03 24.264.508 24.559.478.295.869.173.87-.272 0-.445.643-3.959 1.429-7.809 1.578-7.736 2.388-21.123 3.056-50.5.244-10.725.747-25.8 1.118-33.5.371-7.7.574-20.883.45-29.295-.131-8.952.186-15.795.764-16.5.59-.719 1.199-16.13 1.51-38.205.404-28.747.288-34.9-.522-27.586-.712 6.423-1.325 8.911-1.929 7.831-.487-.871-1.319-12.083-1.847-24.914-.528-12.832-1.684-28.502-2.568-34.822-.929-6.639-1.386-14.45-1.084-18.5.909-12.164 1.026-37.518.236-50.942-.568-9.658-1.249-13.891-2.687-16.711-1.06-2.077-1.927-4.469-1.927-5.316 0-.847-.563-1.428-1.25-1.29-.724.145-1.392-1.013-1.588-2.75-.187-1.65-.697-3.45-1.135-4-1.642-2.063-2.111-7.476-1.003-11.588 1.555-5.776 2.936-3.415 2.976 5.088.017 3.575.507 7.175 1.09 8 .798 1.13.925.637.514-2-.3-1.925-.85-8.787-1.222-15.25-.371-6.463-1.024-11.75-1.449-11.75-.762 0-2.089-4.579-2.464-8.5-.258-2.695.539-4.613 1.636-3.935 1.585.98 1.003-8.231-.605-9.565-1.792-1.488-2.162-14.613-.428-15.191 2.881-.96 3.727-60.34 1.906-133.809-1.158-46.757-1.899-71.203-2.44-80.5-.224-3.85-.686-15.296-1.028-25.435-.341-10.139-.784-18.699-.985-19.024-1.604-2.596-2.101-75.097-.534-78.024.555-1.037 1.011-2.928 1.013-4.201.004-2.351 2.951-7.914 5.593-10.556.797-.797 2.177-2.869 3.066-4.605 2.431-4.747 12.963-22.289 17.805-29.655 2.35-3.575 5.975-9.2 8.056-12.5 2.082-3.3 5.636-8.925 7.9-12.5 2.263-3.575 4.967-8.075 6.008-10 1.042-1.925 3.109-5.075 4.594-7 1.485-1.925 3.48-5.023 4.433-6.886.953-1.862 5.722-9.829 10.597-17.705 4.876-7.876 10.069-16.703 11.539-19.615 2.921-5.783 11.015-14.714 13.405-14.791 3.136-.1 5.785-3.805 8.937-12.503 6.566-18.116 9.688-25.237 16.001-36.5 8.365-14.923 16.725-29.228 17.841-30.526.485-.564 1.74-2.364 2.789-4 1.048-1.636 3.148-4.324 4.665-5.974 1.517-1.65 2.76-3.336 2.762-3.747.003-.411 2.081-3.561 4.618-7 2.537-3.439 5-7.266 5.475-8.503.474-1.237 1.248-2.25 1.718-2.25.471 0 1.481-1.237 2.244-2.75.764-1.512 2.64-4.39 4.169-6.394 1.53-2.004 2.781-3.936 2.781-4.292 0-.357.471-1.192 1.047-1.856 2.06-2.376 7.953-11.901 7.953-12.854 0-.535.355-.752.789-.484.435.268 1.886-1.618 3.225-4.191 1.339-2.574 3.009-5.039 3.711-5.479.701-.44 1.293-1.565 1.316-2.5.022-.935 1.353-3.236 2.958-5.113 1.605-1.876 2.643-3.857 2.307-4.401-.356-.576-1.115-.3-1.819.663-.664.908-1.447 1.651-1.74 1.651-.969 0-1.83-3.329-1.015-3.92.44-.319 2.096-2.155 3.68-4.08 1.584-1.925 3.039-3.387 3.234-3.25 1.235.872 3.207.029 2.745-1.173-.317-.826.366-1.912 1.625-2.586l2.172-1.162-2.068-2.202c-1.995-2.123-2.009-2.334-.386-5.914 1.755-3.873 3.644-4.776 4.628-2.213.912 2.378-.351 4.754-1.862 3.5-.921-.764-1.435-.613-1.883.556-.871 2.268-.805 2.444.917 2.444 2.435 0 7.703-5.945 6.959-7.853-1.112-2.855-1.033-3.655.332-3.372.91.189 1.124-.36.683-1.75-.445-1.402-.194-2.025.816-2.025.803 0 1.742-1.125 2.087-2.5.345-1.375 1.051-2.5 1.569-2.5 1.39 0 4.848-3.922 7.668-8.697 2.006-3.395 2.27-4.588 1.381-6.25-.736-1.374-.757-2.053-.064-2.053.569 0 1.035-.627 1.035-1.393s.712-1.666 1.582-2c2.352-.903 2.69-.759 2.062.878-.455 1.186-.224 1.268 1.143.406 2.657-1.676 7.826-8.985 9.292-13.141.728-2.063 1.622-3.75 1.988-3.75.366 0 2.26-2.047 4.21-4.549 2-2.568 3.827-4.092 4.193-3.5.356.577.37 1.499.03 2.049-.34.55-.19 1 .334 1s1.211-.675 1.528-1.5c.316-.825.139-1.5-.393-1.5-.533 0-.969-.9-.969-2s.567-2 1.259-2c.693 0 1.833-.917 2.533-2.039.7-1.121 1.709-1.77 2.241-1.441.532.329.967.095.967-.52s.45-.84 1-.5c.55.34 1-.099 1-.976s.702-2.666 1.56-3.976c1.315-2.005 1.354-2.731.25-4.595-1.038-1.755-1.05-2.308-.06-2.667.688-.249 1.25-1.014 1.25-1.7 0-.687 1.237-1.886 2.75-2.665 1.513-.78 3.122-1.869 3.576-2.419.533-.647 1.013-.537 1.354.309.41 1.019.95.929 2.424-.405 1.043-.944 1.896-2.335 1.896-3.092 0-.757.675-1.636 1.5-1.952.825-.317 1.5-1.154 1.5-1.861 0-.706 1.165-1.577 2.588-1.934 2.123-.533 2.372-.91 1.388-2.096-.957-1.153-.874-1.573.406-2.064.883-.339 1.358-1.019 1.053-1.512-.304-.492-.076-.895.506-.895s1.059-.908 1.059-2.017c0-1.767 2.478-6.41 13-24.353 3.425-5.841 7.361-10.747 6.522-8.13-.502 1.567-.377 1.739.576.792.956-.948.943-1.538-.063-2.75-.869-1.046-.919-1.542-.157-1.542.617 0 1.122-.675 1.122-1.5s.45-1.5 1-1.5 1-.702 1-1.559.423-1.298.939-.978c1.151.711 5.875-4.106 7.139-7.278.507-1.273.967-3.748 1.022-5.5.095-3.044.135-3.074.9-.685.44 1.375.845 1.905.9 1.179.055-.727.775-1.997 1.6-2.822.825-.825 1.5-2.411 1.5-3.524s.951-3.359 2.113-4.991c1.52-2.135 1.944-3.809 1.511-5.971-.477-2.388.166-4.169 3.137-8.687 2.055-3.126 4.19-6.809 4.744-8.184 2.156-5.354 5.655-11.124 7.075-11.669.819-.314 2.298-2.205 3.286-4.201 4.19-8.467 8.756-15.74 11.882-18.925 1.239-1.263 2.252-3.076 2.252-4.03 0-.953.954-2.395 2.121-3.204 1.167-.809 3.364-4.171 4.884-7.471 1.519-3.3 3.715-6.994 4.879-8.208 1.164-1.215 2.126-2.79 2.138-3.5.012-.711.902-2.417 1.978-3.792s1.966-3.077 1.978-3.781c.012-.705.697-1.541 1.522-1.857.825-.317 1.505-1.09 1.511-1.719.011-1.064 1.928-4.969 7.897-16.082 1.324-2.466 2.863-4.202 3.42-3.858.623.385.746-.068.32-1.179-.468-1.217-.048-2.256 1.288-3.192 1.115-.781 1.733-2.03 1.415-2.859-.311-.81-.093-1.473.483-1.473 1.874 0 2.093 1.586.615 4.436-1.864 3.592-1.861 4.597.006 1.932 1.321-1.886 4.29-9.182 4.89-12.017.133-.632.815-1.838 1.514-2.681.699-.842 1.31-2.897 1.357-4.566.048-1.669.468-2.799.935-2.511.467.289.849-.203.849-1.093 0-.89-.45-1.34-1-1-.55.34-1 .164-1-.391s.787-1.468 1.75-2.029c.971-.566 1.194-1.033.5-1.05-1.488-.036-1.678-5.362-.284-7.967.532-.993 1.094-3.663 1.25-5.933.16-2.327.795-4.128 1.456-4.129.645 0 1.716-1.689 2.381-3.751.664-2.062 1.654-4.313 2.2-5 .694-.874.579-1.255-.381-1.265-.873-.01-.99-.283-.321-.75.974-.681 4.449-8.897 4.449-10.518 0-.395-.523-.605-1.163-.467-.789.169-1.089-1.408-.931-4.898.127-2.832-.249-5.446-.837-5.81-.588-.363-1.069-2.108-1.069-3.879 0-4.545-2.464-7.663-6.057-7.663-1.934 0-2.943.508-2.943 1.483 0 1.224-.601 1.145-3.439-.448l-3.438-1.932-.312 2.699c-.242 2.103-.916 2.768-3.055 3.014-2.147.247-2.613-.025-2.143-1.25.331-.861.134-1.566-.436-1.566-.571 0-1.182 1.008-1.357 2.24-.366 2.559-3.653 3.63-4.935 1.608-.658-1.038-.858-.939-.87.433-.018 2.101-2.373 3.249-4.217 2.058-.714-.462-2.878-.858-4.809-.882-1.93-.024-4.068-.388-4.75-.809-.681-.421-1.239-.463-1.239-.092s-1.138-.071-2.528-.983c-1.391-.911-2.959-1.39-3.485-1.065-.527.325-2.269-.75-3.872-2.391-2.147-2.196-3.51-2.826-5.172-2.392-1.435.375-2.021.21-1.61-.454.8-1.295-1.886-3.665-3.22-2.841-.536.332-1.257.145-1.603-.414-1.203-1.946-2.544-1-1.948 1.375.33 1.315.114 2.691-.481 3.059-.595.367-1.081.143-1.081-.499 0-.731-.892-.944-2.386-.569-1.509.379-2.839.051-3.622-.892-.68-.819-2.082-1.49-3.114-1.49-1.442 0-1.878-.736-1.878-3.167 0-1.741-.332-2.835-.737-2.429-.406.405-.743 1.493-.75 2.417-.011 1.376-1.05 1.679-5.761 1.679-3.162 0-5.749-.337-5.75-.75-.001-.413.466-.75 1.037-.75.604 0 .499-.604-.25-1.439-1.098-1.227-1.448-1.234-2.364-.048-.651.841-1.97 1.157-3.34.799-1.718-.449-2.158-1.148-1.825-2.893.538-2.811-1.638-3.798-11.998-5.445-6.452-1.026-7.646-.951-11 .688-2.729 1.333-3.935 2.662-4.394 4.838-.464 2.207-.663 2.421-.75.809-.065-1.205-.503-2.429-.974-2.72-.47-.291-.66.695-.421 2.191.339 2.13.203 2.395-.629 1.22-.908-1.28-1.066-1.226-1.079.367-.012 1.52-.525 1.749-2.765 1.235-4.5-1.033-8.156-1.259-7.671-.474.919 1.487-1.466 1.842-2.879.429-.804-.804-1.74-1.183-2.081-.843-.34.341-.619.205-.619-.301 0-1.548-14.945-1.72-15.536-.179-.335.872-2.105 1.256-5.235 1.135-2.601-.1-4.729-.254-4.729-.343 0-.089-1.407-.346-3.127-.572-4.371-.574-8.373-2.213-8.373-3.429 0-.564-.756-1.025-1.679-1.025s-3.061-.437-4.75-.97c-1.689-.534-4.752-1.228-6.807-1.543-2.054-.315-3.629-1.076-3.5-1.691.552-2.621-11.247-3.727-13.304-1.247-1.292 1.556-4.557 1.539-15.46-.078-6.694-.994-12.842-.793-16 .521-5.363 2.232-16.598 3.819-17.815 2.516-1.657-1.774-5.908-.521-8.685 2.562-5.969 6.624-6.371 7.93-2.441 7.93 3.352 0 2.32 1.574-1.538 2.346-2.853.57-4.445 3.654-1.886 3.654.624 0-.055.936-1.51 2.08-1.454 1.144-2.404 2.468-2.111 2.943.294.475-.94 2.393-2.74 4.264C915.358 83.913 894 112.013 894 113.511c0 .657-11.033 16.785-12.99 18.989-.977 1.1-2.566 3.575-3.533 5.5-.966 1.925-2.256 3.831-2.867 4.235-.61.404-.795.741-.411.75.75.016-7.641 16.515-9.671 19.015-1.843 2.271-6.582 10.943-14.752 27-7.616 14.968-10.197 19.338-22.526 38.133-3.987 6.079-7.25 11.437-7.25 11.908 0 .471-1.188 2.117-2.639 3.657-1.452 1.541-3.533 4.793-4.625 7.227-1.091 2.434-2.829 5.331-3.86 6.439-1.032 1.107-1.876 2.456-1.876 2.997 0 2.339-3.685 8.62-5.705 9.724-1.212.662-2.912 2.695-3.777 4.517-.864 1.822-2.079 3.627-2.699 4.01-.721.446-.849.245-.353-.557.608-.985.319-1.01-1.345-.12-1.167.625-2.121 1.821-2.121 2.659 0 .838.445 1.249.989.913.566-.35.735.05.395.935-.327.851-1.066 1.255-1.643.898-.613-.379-.753-.169-.336.505.392.635.405 1.653.029 2.262-.492.795-.89.774-1.416-.077-.948-1.535-7.261 6.895-6.55 8.747.28.73.064 1.052-.479.716-.544-.336-.989-.172-.989.365 0 .536.563 1.202 1.25 1.48.961.388.948.522-.059.583-.72.043-1.031.529-.691 1.079.34.55-.11 1-1 1-1.004 0-1.35-.474-.912-1.25 2.744-4.861-10.874 12.402-15.088 19.126-.55.878-1.856 2.39-2.903 3.36-1.047.97-1.531 1.764-1.076 1.764.455 0-.065 1.012-1.156 2.25s-2.519 3.375-3.173 4.75c-.655 1.375-2.766 4.525-4.691 7-1.926 2.475-3.817 5.175-4.204 6-1.432 3.056-6.239 9.659-9.721 13.351-1.974 2.093-4.112 4.782-4.75 5.975-.753 1.406-1.311 1.719-1.588.889-.234-.703.302-2.39 1.191-3.747.889-1.357 1.157-2.468.594-2.468-.563 0-1.027.337-1.031.75-.005.413-2.009 2.775-4.455 5.25-2.445 2.475-4.467 5.063-4.492 5.75-.025.688-.453 1.25-.951 1.25-.986 0-7.844 9.173-8.859 11.849-.344.908-1.886 3.001-3.426 4.651-1.54 1.65-2.802 3.408-2.804 3.906-.003.498-1.129 2.379-2.504 4.181-1.374 1.802-2.947 4.32-3.495 5.595-.548 1.275-3.474 6.322-6.501 11.216-3.028 4.894-5.505 9.247-5.505 9.673 0 .427-1.248 2.047-2.773 3.602-3.55 3.619-7.543 10.078-14.728 23.827-3.161 6.05-6.315 11.675-7.007 12.5-.692.825-2.179 3.33-3.302 5.567-2.703 5.379-4.847 7.139-7.024 5.766-1.712-1.08-7.524-8.085-15.831-19.083-2.596-3.437-5.064-6.25-5.483-6.25-.419 0-3.56-3.712-6.979-8.25-3.419-4.537-8.379-10.5-11.022-13.25-2.643-2.75-8.46-9.725-12.925-15.5-4.466-5.775-11.778-14.488-16.25-19.363-4.471-4.875-9.04-10.093-10.153-11.597-2.52-3.405-14.496-16.916-16.523-18.64a656.784 656.784 0 0 0-5.992-4.962c-2.471-2.026-5.063-4.499-5.76-5.494-.697-.995-2.5-3.103-4.007-4.684-4.58-4.803-26.241-31.865-26.241-32.783 0-.781-5.198-7.305-11.052-13.871-2.503-2.808-5.305-6.311-6.226-7.785-.921-1.473-6.013-7.719-11.316-13.879-5.303-6.16-10.74-12.82-12.084-14.799-1.343-1.98-2.753-3.834-3.132-4.121-.38-.287-2.24-2.547-4.134-5.022-4.839-6.324-14.087-16.593-26.991-29.972-6.086-6.31-11.065-11.823-11.065-12.25 0-.428-.788-1.6-1.75-2.604s-5.001-5.653-8.974-10.33c-3.973-4.678-8.575-9.54-10.227-10.806-1.652-1.267-2.79-2.648-2.53-3.069.492-.796-12.5-14.654-16.019-17.086-1.1-.761-4.08-3.858-6.622-6.883s-7.604-8.645-11.25-12.488c-3.645-3.843-6.628-7.27-6.628-7.614 0-.345-1.346-2.15-2.99-4.012-1.645-1.863-3.25-4.173-3.568-5.136-.317-.963-.963-1.75-1.436-1.75s-1.56-1.405-2.417-3.122l-1.557-3.122 2.984.597c1.68.336 2.984.171 2.984-.378a.98.98 0 0 0-.981-.975c-.539 0-1.263-1.125-1.608-2.5-.345-1.375-1.264-2.5-2.041-2.5-.777 0-1.956-1.237-2.62-2.75-.665-1.513-1.78-3.11-2.479-3.55-.699-.44-1.271-1.419-1.271-2.177s-1.163-2.292-2.584-3.41c-1.61-1.267-2.303-2.519-1.84-3.323.41-.709.386-.966-.053-.569-.439.396-2.561-1.741-4.716-4.75-2.154-3.009-4.288-5.471-4.741-5.471-.453 0-1.344-1.237-1.979-2.75-.636-1.513-2.742-4.1-4.681-5.75-1.939-1.65-4.51-4.089-5.715-5.42-1.205-1.331-5.229-5.592-8.941-9.468-3.712-3.876-6.75-7.611-6.75-8.299 0-.755-.659-.997-1.664-.612-1.074.413-1.422.247-.981-.466.376-.608-.393-2.182-1.709-3.498-1.315-1.315-2.989-4.044-3.72-6.064-.73-2.02-1.762-3.673-2.294-3.673-.531 0-.669-.296-.307-.658.362-.362.195-1.215-.37-1.897-1.296-1.56-4.986-.689-4.329 1.022.726 1.891-2.965 2.466-4.6.716-.98-1.049-1.535-1.157-1.804-.349-.605 1.815-1.934 1.374-2.512-.834-.592-2.265-2.244-2.487-5.313-.715m781.197 22.33c-.322.84-.14 1.223.417.878.544-.336.989-.172.989.365 0 .536-.391 1.125-.868 1.309-.477.183-1.171 1.309-1.542 2.502-.843 2.714 2.318 4.03 5.261 2.192 2.327-1.453 3.394-6.553 1.521-7.272-.789-.303-1.06.061-.714.962.352.918-.072 1.449-1.158 1.449-1.068 0-1.509-.534-1.17-1.417.299-.78-.066-1.651-.81-1.937-.745-.286-1.612.15-1.926.969M45.012 123.55c.012 2.068 3.299 15.788 4.465 18.64.38.93 1.759 2.39 3.065 3.245l2.374 1.556-2.098-6.246c-5.372-15.994-7.832-21.414-7.806-17.195m68.734 77.7c.804 3.239 4.555 8.347 5.046 6.873.335-1.003-4.414-9.123-5.334-9.123-.149 0-.019 1.012.288 2.25M94 202.64c0 .776 3.203 3.284 4.25 3.328.412.018-.15-.868-1.25-1.968-2.055-2.055-3-2.483-3-1.36m1010.21 63.798c-1.464 3.215-1.086 4.322.73 2.134.674-.812 1.074-2.259.89-3.215-.257-1.334-.634-1.082-1.62 1.081m10.027 4.725c-.68.68-1.237 1.854-1.237 2.608 0 1.074.343 1.029 1.58-.208.87-.87 1.426-2.044 1.238-2.609-.216-.649-.8-.572-1.581.209m-5.552 8.371c-1.896 3.976-1.999 4.469-.935 4.458.412-.004 1.776-1.804 3.03-4 1.645-2.88 1.905-3.992.935-3.992-.739 0-2.103 1.59-3.03 3.534m-5.23 8.921c-1.027 1.906-1.588 3.745-1.247 4.087.342.341 1.393-1.007 2.337-2.997 2.233-4.704 1.338-5.599-1.09-1.09m-11.376.362c-.043.724-1.204 2.791-2.579 4.594-1.375 1.803-2.495 3.91-2.488 4.683.006.773 1.399-.715 3.095-3.308 1.696-2.593 2.851-5.293 2.567-6-.412-1.027-.532-1.021-.595.031M785 289.918c0 .505-.262 1.743-.582 2.75-.532 1.676-.447 1.667 1-.109 1.812-2.223 2.03-3.559.582-3.559-.55 0-1 .413-1 .918m-6.55 11.001c.313.506-.005 1.519-.705 2.25-2.38 2.487-7.745 9.616-7.745 10.292 0 .37-1.178 2.217-2.619 4.106-1.44 1.888-2.185 3.433-1.655 3.433 1.295 0 4.274-3.365 4.274-4.829 0-.644.395-1.171.879-1.171.483 0 1.401-1.261 2.039-2.803.639-1.542 2.213-3.937 3.498-5.323 2.772-2.989 4.237-6.874 2.592-6.874-.619 0-.87.414-.558.919m-6.267 19.298c-.65.651-1.183 1.574-1.183 2.051 0 .477-2.698 4.964-5.996 9.97-3.298 5.006-5.795 9.304-5.548 9.551 1.088 1.088 6.609-6.773 11.736-16.711 2.833-5.491 3.143-7.013.991-4.861m-11.211 6.835c-.604 1.129-.958 2.769-.785 3.643.198 1.006.951.251 2.047-2.052 1.8-3.783.672-5.205-1.262-1.591m306.069 5.89c-1.197 1.682-1.809 3.044-1.359 3.027 1.097-.043 4.646-4.975 4.025-5.595-.269-.269-1.469.887-2.666 2.568m-311.893 3.848-2.352 3.71 2.674-2.784c1.471-1.531 2.529-3.201 2.352-3.71-.177-.509-1.38.744-2.674 2.784m307.467 2.675c-.888 1.355-1.615 2.893-1.615 3.416 0 .524-.562 1.179-1.25 1.457-.785.317-.831.533-.122.583 1.337.094 2.554-1.42 4.155-5.171 1.457-3.412.961-3.534-1.168-.285m-305.662 5.285c-.82.962-2.54 3.449-3.82 5.527-1.281 2.077-2.847 4.327-3.481 5-2.779 2.951-9.79 12.918-9.378 13.331.25.25 1.182-.655 2.071-2.012.889-1.356 2.75-3.6 4.135-4.986 1.386-1.385 2.52-2.99 2.52-3.565 0-.575.45-1.045 1-1.045s1-.59 1-1.311c0-.722 1.01-2.396 2.244-3.721 3.126-3.355 6.849-8.968 5.948-8.968-.411 0-1.419.788-2.239 1.75m292.929 14c-3.922 5.255-6.252 9.25-5.394 9.25.734 0-2.464 4.956-4.84 7.5-6.45 6.907-18.648 25.219-18.648 27.995 0 3.44 1.93 3.15 3.306-.495.623-1.65 1.484-3 1.913-3 .43 0 .781-.45.781-1s.9-1.9 2-3 2-2.652 2-3.448c0-.797 1.125-2.663 2.5-4.147 1.375-1.483 2.5-3.213 2.5-3.843 0-.63 1.463-2.734 3.25-4.675 1.787-1.942 4.026-4.848 4.975-6.459.948-1.61 2.143-2.83 2.655-2.71.512.12 1.193-.465 1.514-1.302.332-.865.157-1.257-.405-.909-.544.336-.989-.325-.989-1.469 0-1.242.995-2.534 2.469-3.206 1.357-.618 2.231-1.509 1.941-1.978-.481-.777.958-1.27 2.84-.972.412.065.75-.332.75-.882s-.675-1-1.5-1-1.5-.402-1.5-.893.675-1.152 1.5-1.469c.825-.316 1.5-1.039 1.5-1.607 0-2.112-1.674-.896-5.118 3.719m11.056 2.532c-1.72 1.341-3.297 4.75-2.157 4.663 1.027-.079 5.541-5.952 4.545-5.913-.454.017-1.529.58-2.388 1.25M732.25 377.496c-1.423 1.616-1.597 2.504-.491 2.504.418 0 1.322-.9 2.009-2 1.426-2.283.36-2.637-1.518-.504m-16.202 3.946c-.68.82-1.045 2.067-.81 2.772.27.81.885.424 1.675-1.052 1.471-2.747.911-3.859-.865-1.72m-4.048 6.45c0 .674-.342 1.015-.759.757-.417-.258-1.645 1.353-2.728 3.58-1.083 2.226-3.217 5.384-4.741 7.015-1.525 1.632-2.772 3.798-2.772 4.812 0 1.015-.569 2.204-1.263 2.644-.695.44-1.74 2.15-2.323 3.8-.582 1.65-1.622 2.876-2.31 2.725-.712-.156-.949.216-.55.862.386.625.307 1.424-.176 1.775-1.345.977-3.679 5.442-2.447 4.681 1.352-.836 8.898-11.888 9.745-14.273.346-.974 2.038-3.795 3.761-6.27 4.682-6.728 7.712-12.184 7.104-12.793-.298-.297-.541.011-.541.685m9.269 4.369c-.527.681-1.286 1.914-1.687 2.739-.572 1.176-.444 1.157.594-.088.728-.873 1.977-1.803 2.775-2.067.955-.315 1.079-.708.363-1.151-.598-.37-1.518-.114-2.045.567m-12.019 7.298c-.687.746-1.247 2.163-1.244 3.149.004 1.24.472.899 1.518-1.107 1.7-3.259 1.591-4.067-.274-2.042m1.867 7.348c-3.364 4.954-6.117 9.444-6.117 9.979 0 .534-.729 1.7-1.619 2.59-.891.891-1.279 1.935-.863 2.322.416.386.959.131 1.208-.566s1.197-2.012 2.107-2.922c1.608-1.608 3.342-4.246 4.805-7.31.394-.825.974-1.725 1.289-2 1.611-1.406 6.315-10.092 5.764-10.643-.251-.251-3.21 3.597-6.574 8.55m306.133-.411c-1.743 1.979-1.567 2.4.75 1.794 1.1-.288 2-1.146 2-1.907 0-1.757-1.145-1.71-2.75.113m-4.289 9.528c-1.038.641-1.139 1.198-.36 1.977.778.778 1.423.674 2.29-.37 1.447-1.743.102-2.863-1.93-1.607m-2.89 4.391c-.746.898-1.059 1.93-.697 2.292.934.934 2.932-1.29 2.452-2.729-.276-.828-.818-.693-1.755.437m-315.08 2.88c-2.702 4.154-4.046 7.04-3.726 7.999.176.528 1.549-1.411 3.053-4.308 2.815-5.427 3.21-7.592.673-3.691m.777 9.455c-5.819 10.476-6.862 12.676-7.441 15.689-.489 2.548-.248 2.21 3.87-5.439 1.925-3.575 5.184-9.538 7.243-13.25 2.059-3.712 3.293-6.75 2.743-6.75-.55 0-3.437 4.387-6.415 9.75M683 447c-.639 1.194-.937 2.396-.662 2.671.275.275 1.023-.477 1.662-1.671s.937-2.396.662-2.671c-.275-.275-1.023.477-1.662 1.671m309 12c0 .615-.401.87-.891.568-.489-.303-1.625.57-2.523 1.941-1.341 2.047-1.38 2.491-.216 2.491.779 0 1.675-.675 1.992-1.5.316-.825 1.264-1.5 2.107-1.5 1.723 0 2.055-1.558.531-2.5-.55-.34-1-.115-1 .5m-311.398 4.41c-.833 1.994-1.496 3.905-1.473 4.246.023.341-.334.896-.794 1.232-1.412 1.034-3.507 5.273-2.904 5.876.772.772.827.684 4.472-7.128 1.761-3.775 2.98-7.086 2.708-7.358-.272-.272-1.176 1.138-2.009 3.132m-10.419 18.807c-1.4 1.4-1.545 2.783-.29 2.783.916 0 2.425-3.016 1.814-3.626-.187-.188-.873.192-1.524.843M544.607 562.7c1.591 2.31 3.484 4.444 4.206 4.743 1.644.68-1.766-4.204-4.848-6.943-1.838-1.633-1.72-1.23.642 2.2m159.516 18.929c-1.665 3.655-.939 3.857 1.099.306.927-1.614 1.328-2.935.892-2.935-.436 0-1.332 1.183-1.991 2.629M511.517 717.75c2.764 4.662 4.435 6.631 5.08 5.986.711-.711-4.689-8.682-5.904-8.715-.443-.011-.072 1.216.824 2.729m30.501 171c.01 3.712-.171 16.538-.403 28.501-.24 12.378-.032 21.991.482 22.309.53.327.903-11.458.903-28.501 0-15.982-.225-29.059-.5-29.059s-.492 3.038-.482 6.75M551.3 904c0 3.025.187 4.263.416 2.75.229-1.513.229-3.987 0-5.5s-.416-.275-.416 2.75m-.014 10.5c.008 2.75.202 3.756.432 2.236.229-1.52.223-3.77-.014-5-.237-1.23-.425.014-.418 2.764m-.47 16.234c-.266 5.921-.18 13.916.192 17.766.497 5.13.74 5.932.911 3 .314-5.387.053-30.862-.321-31.235-.163-.163-.515 4.548-.782 10.469m-8.53 16.766c.008 2.75.202 3.756.432 2.236.229-1.52.223-3.77-.014-5-.237-1.23-.425.014-.418 2.764m-5.616 94c.758 4.943 1.335 5.785 1.315 1.917-.009-1.604-.446-3.592-.972-4.417-.651-1.021-.761-.224-.343 2.5m63.997 21.167c-.998.997-.804 2.536.238 1.892.509-.315.692 1.082.42 3.191-.267 2.062.013 4.875.621 6.25 1.05 2.369 1.081 2.33.606-.75-.276-1.787-.164-3.25.249-3.25.414 0 .58-1.8.37-4-.365-3.836-1.068-4.77-2.504-3.333M650.35 1088c.343 1.375.629 5.088.636 8.25.008 3.162.351 5.751.764 5.752 1.14.004.247-14.358-.964-15.502-.736-.695-.869-.239-.436 1.5m-37.287 20.583c.041 4.446.345 6.203.85 4.917.878-2.232.668-10.252-.294-11.214-.34-.341-.59 2.493-.556 6.297m-.231 19.167c-.193 5.912-.061 12.325.294 14.25.354 1.925.696-2.912.759-10.75.063-7.838-.069-14.25-.294-14.25-.225 0-.567 4.838-.759 10.75m-7.165 12.917c-.928.928-.838 4.333.115 4.333.43 0 .875-1.125.989-2.5.216-2.608.01-2.948-1.104-1.833m-.112 14.451c.481 7.074 1.445 7.44 1.445.549 0-3.117-.403-5.667-.896-5.667-.494 0-.74 2.303-.549 5.118m7.794 9.882c0 4.675.173 6.588.383 4.25.211-2.338.211-6.162 0-8.5-.21-2.338-.383-.425-.383 4.25m-7.742 2.582c-.974 2.537-.699 8.418.393 8.418.55 0 1-2.25 1-5 0-5.205-.364-6.099-1.393-3.418m7.771 18.418c0 6.325.163 8.912.361 5.75.198-3.162.198-8.338 0-11.5-.198-3.162-.361-.575-.361 5.75m-9.101 17.5c-.027 6.219.238 9.479.608 7.5.36-1.925.381-6.875.046-11-.571-7.049-.61-6.838-.654 3.5m9.009 8c.008 2.75.202 3.756.432 2.236.229-1.52.223-3.77-.014-5-.237-1.23-.425.014-.418 2.764m-9.679 12.082c-.893 2.326-.739 4.617.268 3.995.481-.297.875-1.674.875-3.059 0-2.913-.292-3.153-1.143-.936m9.729 9.418c0 4.125.177 5.813.392 3.75.216-2.062.216-5.437 0-7.5-.215-2.062-.392-.375-.392 3.75m-.439 23.75c-.309 2.253.342 46.817.689 47.167.228.229.414-10.459.414-23.75 0-13.292-.225-24.167-.5-24.167s-.546.338-.603.75m-9.897 6.191c0 2.782.409 5.059.91 5.059 1.14 0 1.076-8.891-.069-9.598-.463-.286-.841 1.757-.841 4.539m1.272 13.059c0 2.475.195 3.487.434 2.25.238-1.237.238-3.263 0-4.5-.239-1.237-.434-.225-.434 2.25M603 1300.833c0 2.292.47 4.167 1.045 4.167.662 0 .797-1.376.368-3.75-.939-5.189-1.413-5.329-1.413-.417m214.152 7.358c-.088 6.221.266 10.949.848 11.309 1.141.705 1.155-5.537.036-15.5-.694-6.169-.739-5.955-.884 4.191m-213.336 18.811c-.174 5.501.021 10.001.434 10 .413-.001.75-4.502.75-10.002 0-5.5-.195-10-.434-10-.238 0-.576 4.501-.75 10.002m-.043 19.748c.576 5.805 1.061 6.228 1.148 1 .043-2.612-.281-4.75-.72-4.75-.44 0-.632 1.688-.428 3.75m-.599 18.5c.017 7.584.312 11.06.775 9.125 1.119-4.679 1.227-21.375.138-21.375-.537 0-.928 5.25-.913 12.25m-.174 20.917c0 3.391.163 5.979.362 5.75.888-1.022 1.405-11.917.566-11.917-.511 0-.928 2.775-.928 6.167M531.3 1403c0 3.025.187 4.263.416 2.75.229-1.513.229-3.987 0-5.5s-.416-.275-.416 2.75m71 0c0 3.025.187 4.263.416 2.75.229-1.513.229-3.987 0-5.5s-.416-.275-.416 2.75m97.739 57.136c1.016 3.542 1.968 4.901 1.947 2.781-.024-2.508-1.195-5.917-2.033-5.917-.447 0-.409 1.411.086 3.136m108.213 7.364c.011 2.2.216 2.982.455 1.738.239-1.244.23-3.044-.02-4s-.446.062-.435 2.262m-1.237 12.25c-.008 1.787.158 3.25.368 3.25.91 0 1.296-3.898.51-5.139-.586-.925-.867-.321-.878 1.889m-54.265 171.956c1.237.238 3.263.238 4.5 0 1.237-.239.225-.434-2.25-.434s-3.487.195-2.25.434m-20.704 5.38c.614 1.147 1.36 1.841 1.659 1.543.824-.824-.496-3.629-1.709-3.629-.739 0-.724.639.05 2.086" fill-rule="evenodd"/></svg>