<svg xmlns="http://www.w3.org/2000/svg" width="1240" height="1753"><path d="M1073.801 20.532c-.293.293-18.03.531-39.417.53-21.386-.002-45.409.452-53.384 1.009-7.975.556-30.25 1.433-49.5 1.948-31.381.84-60.641 1.396-181 3.442-19.25.327-49.85.631-68 .675-18.15.043-39.975.495-48.5 1.003-8.525.508-23.825 1.126-34 1.372-10.175.247-29.3.942-42.5 1.546-13.2.604-36.825.996-52.5.871-15.675-.124-47.175.29-70 .92l-58.5 1.614c-9.35.258-25.55 1.16-36 2.005-10.45.844-27.1 1.966-37 2.493-20.713 1.102-26.625 1.607-42.5 3.633-6.325.807-18.475 1.696-27 1.975-8.525.28-16.456.71-17.624.958-1.169.247-8.819.488-17 .536-26.243.154-58.216 4.109-97.876 12.107-5.5 1.11-16.265 3.088-23.922 4.396-7.657 1.308-14.265 2.729-14.686 3.157-1.311 1.336-5.089 17.322-4.473 18.928 1.21 3.152 2.461 41.841 1.5 46.35-2.861 13.409-3.133 19.304-1.364 29.5.954 5.5 2.955 14.91 4.448 20.912 1.947 7.83 2.497 11.872 1.946 14.314-.422 1.871-.321 6.625.225 10.565.546 3.939.725 8.973.397 11.186-.844 5.697-1.395 34.821-.682 36.023.554.935 1.202 10.883 1.074 16.5-.203 8.932-.662 11.888-2.213 14.257-1.916 2.926-2.361 7.743-.715 7.743.654 0 .58.829-.201 2.25-1.34 2.437-1.575 4.259-2.448 18.951-.559 9.423-.503 9.773 1.974 12.25 1.402 1.402 3.369 2.549 4.372 2.549 1.003 0 2.711.617 3.795 1.371 6.484 4.505 29.194 5.875 50.172 3.026 8.953-1.215 20.487-1.609 47.801-1.631 45.8-.037 104.343 1.121 116 2.294 13.776 1.386 37.904 1.111 53.739-.612 16.851-1.834 37.055-4.274 44.761-5.405 6.397-.94 21.869-2.473 41-4.064 7.425-.617 17.55-1.857 22.5-2.755 7.709-1.398 19.396-1.66 81.5-1.83 117.643-.322 197.943-1.203 206.5-2.265 4.4-.547 13.4-1.706 20-2.577 6.6-.87 13.575-1.547 15.5-1.503 1.925.043 8.675-.4 15-.984 23.306-2.156 33.823-2.457 35.556-1.018 2.34 1.941 1.242 5.828-3.875 13.725-2.398 3.7-5.747 9.279-7.443 12.398-1.695 3.118-6.42 11.218-10.499 18-4.079 6.781-9.457 16.155-11.951 20.83-2.495 4.675-6.688 12.55-9.319 17.5-2.63 4.95-5.612 10.194-6.626 11.654-1.014 1.46-1.843 2.93-1.843 3.267 0 .337-2.025 3.949-4.5 8.026s-4.5 7.602-4.5 7.833c0 .231-2.302 4.65-5.115 9.82-2.814 5.17-6.336 11.65-7.827 14.4-6.076 11.205-13.523 24.401-17.495 31-8.46 14.055-11.416 19.159-15.64 27-3.793 7.042-8.839 15.298-17.724 29-1.427 2.2-3.55 5.125-4.72 6.5-1.169 1.375-5.39 7.675-9.38 14-3.99 6.325-9.042 13.975-11.227 17a397.893 397.893 0 0 0-7.45 10.744c-1.912 2.885-5.489 7.716-7.949 10.736-2.46 3.021-4.473 5.703-4.473 5.96 0 .471-7.921 11.53-12.16 16.978-1.249 1.605-3.187 4.567-4.306 6.58-1.961 3.53-8.031 13.31-17.59 28.339-2.505 3.94-5.64 9.188-6.966 11.663-1.325 2.475-3.15 5.4-4.055 6.5-.905 1.1-4.949 7.825-8.985 14.944-4.037 7.12-8.533 14.32-9.992 16-1.458 1.681-4.834 6.881-7.502 11.556-2.669 4.675-7.685 12.612-11.148 17.638-3.463 5.027-6.296 9.498-6.296 9.936 0 .438-.843 1.726-1.874 2.862-1.031 1.135-3.099 4.314-4.595 7.064-1.497 2.75-3.524 5.9-4.504 7-.98 1.1-5.59 7.85-10.243 15-4.654 7.15-12.718 19.525-17.921 27.5-5.203 7.975-11.667 18.1-14.365 22.5-2.698 4.4-5.893 9.35-7.1 11-1.208 1.65-3.259 4.8-4.558 7l-4.351 7.363c-1.094 1.85-3.901 6.329-6.239 9.953-2.337 3.625-4.25 6.94-4.25 7.368 0 .427-2.171 4.049-4.823 8.047-2.653 3.998-5.45 8.844-6.214 10.769-.765 1.925-2.461 5.075-3.77 7-1.309 1.925-3.478 5.652-4.82 8.283-1.342 2.631-4.113 7.3-6.157 10.377-10.333 15.552-19.767 31.831-22.218 38.34-1.294 3.437-5.302 9.529-7.565 11.5-1.601 1.394-7.61 12.169-9.518 17.069-.871 2.238-3.348 6.513-5.504 9.5-2.156 2.987-4.931 7.295-6.168 9.573a3439.581 3439.581 0 0 1-3.538 6.5c-.708 1.297-2.732 4.584-4.497 7.304-1.764 2.72-3.208 5.262-3.208 5.649 0 .387-1.79 3.562-3.978 7.055-2.189 3.492-5.625 9.275-7.638 12.85-2.012 3.575-4.653 8.075-5.869 10-8.686 13.75-13.157 21.848-19.878 36-1.175 2.475-2.373 4.725-2.662 5-1.799 1.715-8.975 11.414-8.975 12.131 0 1.744.966.759 4.545-4.633 3.71-5.589 5.19-7.096 6.087-6.199.644.643-5.282 11.165-7.171 12.733-.791.657-1.192 1.594-.891 2.081.301.488.089.887-.472.887-.561 0-2.492 2.25-4.293 5-1.8 2.75-3.618 5-4.039 5-.421 0-.766.845-.766 1.878 0 1.032-.675 2.437-1.5 3.122s-1.536 1.977-1.579 2.872c-.051 1.046-.26 1.179-.585.372-.279-.691-.899-1.014-1.378-.718-.479.296-.589 1.272-.244 2.17.418 1.091.238 1.392-.544.909-.644-.398-1.219-.359-1.28.086-.06.445-.234 2.306-.386 4.136-.154 1.839-1.381 4.523-2.744 6-2.452 2.657-4.219 5.998-3.922 7.413.086.407-1.128 2.882-2.696 5.5-1.569 2.618-5.47 9.26-8.671 14.76-3.2 5.5-7.213 11.8-8.916 14-1.704 2.2-4.438 6.019-6.076 8.487-2.569 3.87-13.304 18.56-15.721 21.513-.45.55-3.572 5.275-6.937 10.5s-8.677 12.875-11.805 17c-6.527 8.608-27.334 40.084-31.12 47.078-1.799 3.324-13.073 20.266-13.921 20.922-.865.668-7.975 11.89-7.975 12.586 0 .784-5.354 7.849-6.25 8.247-.412.184-.75.939-.75 1.679 0 .74-.568 1.94-1.262 2.667-.694.726-3.594 4.921-6.444 9.321-2.85 4.4-6.554 9.841-8.232 12.091-1.678 2.25-4.125 6.075-5.438 8.5-1.313 2.425-4.906 8.574-7.986 13.665-3.079 5.091-7.07 11.887-8.868 15.102-1.96 3.504-5.941 8.208-9.938 11.744-3.667 3.244-7.637 7.135-8.822 8.648-1.186 1.513-2.628 2.75-3.205 2.75-.622 0-.503-.714.292-1.75.738-.962.107-.649-1.402.698-1.51 1.346-4.196 5.335-5.97 8.864-2.099 4.177-4.796 7.668-7.725 10.001-6.841 5.449-7.156 5.985-5.457 9.27 3.014 5.828 1.929 8.331-8.07 18.617l-6.027 6.2.648 6.3c.356 3.465 1.126 7.771 1.712 9.569.601 1.843.657 3.017.13 2.691-1.113-.687-1.262.881-.186 1.956.993.993 1.07 2.096 1.598 23.084.254 10.056.047 18.761-.468 19.723-.626 1.17-.297 3.576 1.024 7.488 1.322 3.915 1.627 6.149.952 6.963-.661.796-.653 1.837.023 3.1.56 1.047.773 2.842.472 3.991-.359 1.372.173 2.703 1.552 3.884 1.153.987 2.09 2.258 2.082 2.823-.009.566-.358.489-.777-.169-.479-.754-1.287-.872-2.182-.319-1.114.688-.824 1.151 1.337 2.136 2.228 1.015 2.643 1.718 2.158 3.652-.346 1.379-.204 2.15.334 1.818 1.392-.861 2.346 2.463 1.128 3.931-1.27 1.53 1.241 4.471 3.838 4.494 1.45.014 1.474.148.179.985-.825.533-1.05.991-.5 1.016.55.026.102.726-.995 1.555-1.541 1.165-1.699 1.691-.692 2.313 1.322.817.783 5.496-.879 7.632-.747.96.461 9.229 1.824 12.484.991 2.367.949 4.391-.12 5.813-.543.722-1.089 4.322-1.215 8-.125 3.678-.552 9.977-.95 13.998-.683 6.913-.607 7.341 1.402 7.867 2.205.576 2.966 2.322 1.012 2.322-.676 0-.936 1.216-.66 3.093.294 2.002-.017 3.273-.881 3.604-.734.282-1.109.878-.833 1.324.275.446.745 5.877 1.043 12.069.298 6.192.806 11.687 1.13 12.21.323.524.698 2.783.833 5.022.341 5.635 2.604 7.103 14.186 9.196 8.169 1.476 12.949 1.663 28.795 1.125 10.45-.355 25.722-1.306 33.937-2.113 10.892-1.071 16.715-1.204 21.5-.49 3.61.539 11.288 1.689 17.063 2.556 8.588 1.29 24.522 1.673 87.5 2.103 42.35.289 90.569.67 107.153.847 16.585.177 34.36-.073 39.5-.556 5.141-.482 25.547-1.123 45.347-1.424 19.8-.3 46.8-.792 60-1.092 13.2-.3 34.35-.742 47-.981 12.65-.24 31.325-.718 41.5-1.063s32-.106 48.5.532 39.675 1.312 51.5 1.499c13.196.208 24.783.921 30 1.846 4.962.879 18.488 1.768 32.5 2.135 13.2.346 29.625 1.057 36.5 1.579 18.263 1.388 49.281 1.903 58.5.972 14.22-1.437 24.491-3.198 23.932-4.103-.301-.486.604-.446 2.011.088 1.659.631 2.557.63 2.557-.003 0-.536 2.138-1.042 4.75-1.125 2.934-.092 3.699-.309 2-.566-1.513-.229-2.75-.85-2.75-1.379 0-.595 8.353-.856 21.906-.683 12.048.153 21.696-.06 21.441-.472-.256-.413 4.399-.697 10.344-.632 6.64.073 9.652.392 7.809.827-3.745.883 5.126 1.723 27 2.556 8.25.313 20.625 1.07 27.5 1.681 13.422 1.193 14.252 1.208 47.5.813 12.1-.143 34.375.052 49.5.433 17.626.445 28.398.336 30-.303 1.748-.698 1.974-1.017.75-1.062-4.943-.179 1.653-4.063 6.899-4.063 1.293 0 2.351-.47 2.351-1.044 0-.574-.562-.936-1.25-.804-3.061.588-5.749-1.301-5.65-3.969.11-2.957 1.641-8.428 1.8-6.433.055.688.775 1.25 1.6 1.25 1.777 0 1.895-1.846 1.556-24.5-.131-8.8.054-15.711.412-15.357.894.883 1.477 5.755 1.945 16.239.249 5.601.853 9.164 1.634 9.647.682.422.992 1.713.69 2.87-.336 1.283-.155 1.859.463 1.477.635-.392.762.169.34 1.499-.4 1.261-.241 2.125.393 2.125.587 0 1.081-1.687 1.097-3.75.025-3.043.224-3.419 1.055-1.992.563.967.767 2.173.453 2.681-.314.507-.133 1.193.402 1.524.535.331.742 1.202.46 1.938-.293.763.328 1.556 1.448 1.849 1.631.426 2.038-.099 2.417-3.119.251-1.997.058-4.141-.429-4.763-.487-.623-.867-2.423-.845-4 .022-1.578-.185-4.668-.46-6.868-1.252-10.007-1.099-33.501.219-33.499.412 0 .881 3.713 1.041 8.25.159 4.537.702 10.724 1.205 13.749.503 3.025.559 7.335.125 9.577-.434 2.242-.686 4.717-.56 5.5.479 2.979.972 4.383 1.939 5.529 1.205 1.427 2.813.71 1.861-.83-1.172-1.897-1.433-7.614-.377-8.266.565-.349 1.079.397 1.158 1.681.078 1.27.43.509.782-1.691.781-4.877.384-5.616-1.609-2.998-1.47 1.93-1.497 1.913-.796-.502.399-1.375 1.143-3.022 1.652-3.661.579-.725.533-1.404-.122-1.809-1.636-1.011-1.231-2.814.483-2.156 1.948.747 4.088-4.154 2.505-5.737-.57-.57-1.03-1.51-1.022-2.087.009-.578.401-.442.872.301 1.472 2.323 2.158-6.443 1.64-20.965-.267-7.487-.785-14.395-1.152-15.351-.366-.955-.173-2.042.431-2.415.787-.487.717-2.504-.249-7.149-.942-4.527-1.033-6.856-.303-7.752.748-.919.611-1.626-.484-2.5-1.639-1.309-1.351-8.719.339-8.719 1.444 0 1.099-14.75-.359-15.338-.949-.382-.956-.523-.031-.583.67-.043 1.022-.641.783-1.329-.24-.687-.653-8.675-.918-17.75-.494-16.876-2.365-33.662-5.239-47-.888-4.125-1.667-8.588-1.73-9.917-.063-1.329-.565-2.566-1.115-2.748-.572-.189-.854-2.928-.658-6.403.189-3.34-.146-7.278-.744-8.752-.598-1.474-1.168-6.146-1.267-10.382-.098-4.235-.446-7.536-.773-7.334-.327.202-.426-1.405-.219-3.572s-.363-6.197-1.265-8.957c-.903-2.759-1.45-5.336-1.215-5.726.234-.39.076-2.509-.352-4.709-.69-3.55-.792-3.663-.907-1-.147 3.387-1.638 6.296-2.688 5.246-.383-.383-.663-3.295-.622-6.471.04-3.176-.458-6.489-1.108-7.362-1.541-2.068-5.569-4.209-8.541-4.538-1.297-.144-3.132-.962-4.078-1.818-.946-.857-2.166-1.557-2.712-1.557-.545 0-2.503-1.35-4.351-3-3.486-3.112-5.441-3.714-6.5-2-.34.55-1.716 1-3.059 1-1.412 0-2.441.583-2.441 1.383 0 .761-1.013 1.655-2.25 1.987-3.201.857-9.545.771-10.106-.137-.261-.422-5.8-.585-12.309-.361-6.509.224-13.86.424-16.335.445-5.725.049-25.707-2.16-29-3.205-1.375-.437-3.85-.411-5.5.057-2.696.765-28.251-.586-29.209-1.545-.472-.471 12.826-2.074 14.209-1.712 3.705.969 8.583.838 8.23-.221-.217-.653-2.158-1.264-4.313-1.358-2.154-.093-5.674-.502-7.822-.907-3.12-.59-3.741-.471-3.085.591.514.831-.073.702-1.567-.344-1.605-1.125-4.408-1.673-8.551-1.673-5.86 0-12.106 1.953-10.71 3.348.358.359.174.652-.408.652-.583 0-1.285-.587-1.561-1.305-.592-1.542-31.857-2.173-97.463-1.966-40.069.127-52.67-.82-30.25-2.273 6.05-.392 11-1.128 11-1.636 0-.957-21.824-.401-45.5 1.16-7.15.471-17.275 1.115-22.5 1.431-5.225.316-12.2 1.049-15.5 1.628-3.3.58-7.248 1.238-8.773 1.463-1.526.225-3.127.627-3.559.894-.431.267-12.244.568-26.249.669-14.006.101-27.537.498-30.069.882s-7.921.35-11.977-.076c-11.065-1.162-32.74-1.604-33.658-.686-.444.444-2.361 1.005-4.261 1.247-5.549.708-38.806.777-39.93.083-.563-.348-1.513-.331-2.11.038s-7.685.817-15.75.994c-17.557.387-29.708 1.179-37.164 2.424-5.942.991-22.959 2.223-19.25 1.393 2.551-.57 3.07-2.364.684-2.364-.861 0-2.548.534-3.75 1.188-1.297.705-7.06 1.239-14.184 1.316-6.6.07-13.8.256-16 .412-3.66.259-3.788.359-1.5 1.17 1.831.65 1.563.692-1 .16-6.14-1.275-70.51-.899-72.1.421-1.078.896-1.823.862-3.199-.144-2.039-1.49-5.374-.956-7.951 1.273-1.572 1.36-1.75 1.345-1.75-.141 0-2.231-3.724-2.149-4.311.095-.419 1.605-.467 1.599-.573-.074-.097-1.518-.913-1.797-4.866-1.661-2.613.089-5.287.123-5.944.074-1.993-.148 2.181-8.239 11.279-21.861 4.628-6.93 8.415-13.159 8.415-13.842 0-.682 1.072-2.084 2.383-3.115 1.31-1.031 3.545-4.168 4.965-6.972 5.538-10.927 12.558-19.609 15.124-18.703 1.422.502 6.154-6.917 13.456-21.096 6.285-12.203 11.24-19.422 6.864-10-1.278 2.75-2.759 5.675-3.292 6.5-.533.825-2.001 3.525-3.261 6-1.261 2.475-2.949 5.625-3.751 7s-1.465 3.25-1.473 4.167c-.008.917-.985 3.842-2.171 6.5-2.878 6.454-2.921 6.904-.66 6.904 1.433 0 3.135-2.308 6.481-8.785 3.99-7.726 5.149-9.145 7.339-8.986.757.054 13.148-16.499 15.869-21.2 2.637-4.556 5.993-10.674 11.498-20.965 2.021-3.776 5.013-8.491 6.651-10.478s2.978-3.936 2.978-4.332c0-1.77 14.252-29.978 18.101-35.825 6.691-10.164 19.012-30.75 23.299-38.926 2.142-4.084 6.303-11.68 9.247-16.878 2.944-5.199 5.353-9.647 5.353-9.885 0-.545 24.457-43.472 27.704-48.626 1.322-2.099 3.237-5.299 4.256-7.113 1.018-1.814 2.457-4.372 3.196-5.685.739-1.313 2.072-3.287 2.961-4.387.89-1.1 3.421-5.375 5.625-9.5 9.596-17.956 17.569-32.575 18.272-33.5 2.399-3.155 21.541-40.778 24.052-47.271 3.552-9.188 7.094-16.229 8.163-16.229.424 0 .771-.468.771-1.04 0-.908 3.568-6.564 5.02-7.96.287-.275 1.071-1.625 1.743-3 .672-1.375 1.62-3.175 2.105-4 2.884-4.903 5.128-10.019 5.105-11.636-.014-1.025-1.43.723-3.146 3.886-1.716 3.162-3.391 5.749-3.723 5.748-.332-.002-.654-1.389-.715-3.084-.071-1.985.182-2.609.711-1.753 1.371 2.22 3.76-2.075 3.285-5.906-.397-3.196 1.554-8.482 3.596-9.744 1.21-.747.242 2.168-1.647 4.962-1.53 2.261-1.791 4.927-.398 4.067.515-.319 2.143-3.045 3.617-6.059 1.475-3.015 3.105-5.481 3.623-5.481.518 0 .622-.518.23-1.152-.391-.633-.037-1.646.788-2.25 2.595-1.901 7.329-12.657 4.913-11.164-2.015 1.245-1.152-1.166 2.176-6.084 12.615-18.637 27.988-39.781 29.689-40.832 1.625-1.005 1.202.445-.916 3.138-1.069 1.359-1.689 3.137-1.377 3.95.65 1.694 2.954 1.237 2.562-.507-.142-.634 1.32-3.496 3.25-6.362s3.509-5.779 3.509-6.474c0-.694.45-1.263 1-1.263s1-.605 1-1.345.86-2.123 1.91-3.074c1.051-.95 2.184-2.82 2.519-4.155.335-1.334 1.077-2.426 1.649-2.426.572 0 .795-.397.495-.882-.583-.943 2.986-6.079 5.162-7.429.719-.447 1.034-1.254.7-1.794-.609-.985 3.536-7.092 6.717-9.895 2.226-1.962 5.848-8.967 5.848-11.31 0-2.537 7.358-14.7 11.007-18.196 1.646-1.578 2.993-3.413 2.993-4.079 0-1.773 4.08-8.661 8.375-14.139C858.603 786.781 881 753.872 881 752.278c0-.568.646-1.569 1.435-2.224.789-.654 2.404-3.072 3.59-5.372s4.253-7.68 6.816-11.955c4.713-7.864 5.758-9.55 14.55-23.479 25.653-40.64 40.397-65.747 50.651-86.248 3.439-6.875 6.799-13.175 7.467-14 1.371-1.694 8.034-13.956 16.844-31 10.374-20.07 11.641-22.403 14.668-27 1.63-2.475 3.461-5.737 4.069-7.25.608-1.512 1.523-2.75 2.033-2.75.509 0 1.32-1.034 1.8-2.298.481-1.264 3.957-6.95 7.725-12.636 9.527-14.373 15.114-23.619 22.702-37.566 3.591-6.6 7.681-13.55 9.089-15.444 1.409-1.895 2.561-3.987 2.561-4.65 0-.663 1.575-3.545 3.5-6.406 1.925-2.861 3.5-5.59 3.5-6.067 0-.848 2.388-6.739 4.122-10.169.483-.955.878-2.643.878-3.75 0-1.108.43-2.014.955-2.014.525 0 1.269-1.687 1.653-3.75.73-3.926 3.958-10.864 5.496-11.814.493-.305.896-1.445.896-2.535 0-2.498 3.725-9.901 4.982-9.901.517 0 1.411-1.748 1.987-3.884.575-2.135 1.75-4.468 2.611-5.183.861-.714 2.881-4.029 4.487-7.366 1.607-3.337 4.258-8.092 5.891-10.567 1.633-2.475 4.345-7.425 6.026-11 1.682-3.575 4.247-8.75 5.7-11.5 1.453-2.75 6.387-12.312 10.965-21.248 4.578-8.936 9.376-17.936 10.662-20 3.116-5 4.711-7.998 10.237-19.252 2.567-5.225 6.305-12.345 8.309-15.823 2.004-3.477 4.133-7.187 4.732-8.243.599-1.056 1.863-2.776 2.81-3.823.948-1.046 3.158-4.176 4.912-6.955a419.57 419.57 0 0 1 6.806-10.355c6.429-9.423 14.896-22.782 17.817-28.108 1.566-2.856 4.831-8.793 7.256-13.193 8.095-14.688 14.945-30.414 18.295-42 .954-3.3 2.355-8.025 3.113-10.5 1.404-4.582 1.654-9.113 1.435-26-.105-8.094-.511-10.277-2.742-14.75-1.44-2.888-2.946-5.25-3.346-5.25-1.504 0-1.912-5.056-.819-10.153 1.279-5.964 1.509-21.927.51-35.347l-1.081-14.5c-.462-6.185-2.001-11-3.516-11-.655 0-1.109 11.368-1.289 32.25l-.279 32.25-.235-34.75c-.174-25.675-.541-34.75-1.403-34.75-.641 0-.904-.263-.583-.583.614-.614-2.711-4.356-4-4.502-.412-.047-1.294-.537-1.959-1.088-.873-.725-1.372-.354-1.796 1.335-.765 3.043-5.144 3.519-6.052.658-.369-1.162-1.2-1.744-2.033-1.424-.776.298-1.41.079-1.41-.486 0-.566-.45-.75-1-.41s-1 1.491-1 2.559-.45 1.941-1 1.941-1 1.125-1 2.5c0 2.798-.304 2.943-3.066 1.465-1.632-.874-1.934-.701-1.934 1.107 0 1.517-.449 1.97-1.538 1.552-.903-.347-1.792.072-2.154 1.015-.521 1.358-.896 1.24-2.44-.767-1.003-1.305-1.834-3.531-1.846-4.948-.025-2.872-1.915-4.793-10.143-10.31-10.748-7.206-16.905-8.738-38.879-9.675-23.386-.998-34.48-1.126-35.199-.407M805.264 313.718c1.52.229 3.77.223 5-.014 1.23-.237-.014-.425-2.764-.418-2.75.008-3.756.202-2.236.432M529.058 822.626c-1.177 1.994-1.976 3.789-1.776 3.989.199.199 1.371-1.432 2.604-3.626 2.801-4.983 2.084-5.297-.828-.363m-7.558 10.561c-2.2 3.327-4.9 7.534-6 9.349-1.1 1.814-3.706 6.092-5.792 9.506-2.085 3.414-3.615 6.385-3.398 6.601.518.518 2.594-2.603 17.644-26.523 3.829-6.085 1.648-5.137-2.454 1.067M501 866c-1.925 3.284-3.837 5.977-4.25 5.985-.413.008-.748.803-.745 1.765.006 2.224 3.501-1.993 7.398-8.925 3.922-6.977 1.755-5.917-2.403 1.175m-16.507 26.655c-3.665 5.7-10.314 17.569-10.417 18.595-.153 1.513 1.709.696 2.28-1 .633-1.88 3.762-7.426 5.354-9.489 2.303-2.985 7.364-12.761 6.606-12.761-.457 0-2.177 2.095-3.823 4.655m290.856 24.802c-.711.77-.812 1.78-.265 2.645.72 1.136.888 1.086.901-.269.008-.916.555-1.846 1.216-2.067.686-.228.793-.648.25-.978-.523-.318-1.469-.017-2.102.669m-305.795.88c-1.006.736-1.634 1.922-1.396 2.637.279.838 1.047.363 2.161-1.337 1.957-2.987 1.832-3.199-.765-1.3M465.2 924.2c-.66.66-1.2 2.01-1.2 3 0 .99-.343 1.8-.763 1.8-.794 0-2.301 2.554-4.276 7.25-.636 1.513-1.563 2.75-2.059 2.75-.496 0-.902.513-.902 1.139 0 .627-1.376 3.376-3.058 6.109-1.682 2.734-2.807 5.221-2.5 5.528.307.306.672.37.811.141.14-.229 1.265-1.861 2.5-3.627 1.236-1.765 2.247-3.707 2.247-4.316s1.075-2.54 2.388-4.291c1.314-1.751 3.555-5.514 4.981-8.362 1.426-2.849 3.052-5.463 3.612-5.809 1.208-.747 1.362-2.512.219-2.512-.44 0-1.34.54-2 1.2m-20.959 35.786c-1.831 2.931-1.511 3.568.759 1.514 2.031-1.838 2.62-3.5 1.241-3.5-.418 0-1.318.894-2 1.986m-7.358 12.837c-2.397 2.8-3.075 4.177-2.057 4.177 1.044 0 4.561-4.947 3.951-5.557-.211-.211-1.063.41-1.894 1.38m-8.248 13.611c-1.806 2.757-2.009 3.57-.885 3.558.839-.009 3.43-5.146 2.875-5.7-.195-.195-1.09.769-1.99 2.142m-106.423 151c-1.748 3.836-1.483 5.608.322 2.149.836-1.605 1.379-3.343 1.206-3.864-.174-.52-.861.251-1.528 1.715M942.5 1378c.34.55 1.518 1 2.618 1 1.1 0 1.722-.45 1.382-1-.34-.55-1.518-1-2.618-1-1.1 0-1.722.45-1.382 1m-225.738 13.707c1.244.239 3.044.23 4-.02s-.062-.446-2.262-.435c-2.2.011-2.982.216-1.738.455m-543.905 27.543c-1.617 2.306-1.766 2.838-.513 1.832 1.782-1.431 4.124-5.082 3.259-5.082-.257 0-1.492 1.463-2.746 3.25m80.608 9-1.585 3.25 2.038-2.5c1.962-2.407 2.602-4 1.608-4-.261 0-1.188 1.463-2.061 3.25m773.193 19.425c-.362.362-.651 1.146-.643 1.742.009.596.452.408.985-.417.646-1 .974-1.083.985-.25.008.688.901 1.25 1.984 1.25 1.441 0 1.794-.455 1.316-1.699-.431-1.125-.792-1.28-1.066-.459-.29.872-.784.934-1.658.208-.685-.568-1.541-.737-1.903-.375M1200 1492.718c0 3.866.931 6.443 2.072 5.737.989-.611.095-6.483-1.204-7.905-.508-.556-.868.343-.868 2.168m1.606 14.032c.058 2.062.369 7.125.69 11.25.321 4.125.36 6.6.085 5.5-.274-1.1-.756-2.675-1.072-3.5-.315-.825-.715-2.575-.888-3.89-.484-3.679-1.239-5.117-2.64-5.031-1.011.062-1.016.186-.025.585.691.279.947 1.007.569 1.618-.864 1.399-.481 10.094.648 14.718.47 1.925 1.109 6.875 1.42 11 .684 9.089 1.437 12 3.107 12 1.578 0 2.459 3.15 2.518 9 .025 2.475.738 5.4 1.585 6.5 1.401 1.821 1.487.884.958-10.5-.32-6.875-.82-14.3-1.112-16.5-.526-3.956-.773-6.309-1.895-18-.749-7.808-2.765-18.5-3.487-18.5-.312 0-.519 1.687-.461 3.75m-1056.481 6.875c-.66 1.448-.971 2.863-.69 3.143.28.28.984-.74 1.565-2.268 1.372-3.608.684-4.296-.875-.875m2 3c-.66 1.448-.971 2.863-.69 3.143.28.28.984-.74 1.565-2.268 1.372-3.608.684-4.296-.875-.875m1054.216 10.82c.362.945.659 2.132.659 2.637 0 .505.481.918 1.07.918 1.554 0 .687-4.259-.979-4.808-.99-.326-1.213.047-.75 1.253m-1068.575 10.488c-2.433 2.185-2.978 3.225-2.139 4.077.842.855 1.622.43 3.086-1.683 4.348-6.275 4.093-6.92-.947-2.394m1061.765 2.36c-.428.986-.497 2.074-.155 2.417 1.016 1.015 1.835-.411 1.367-2.382-.414-1.747-.468-1.748-1.212-.035M1218.67 1562c-.884 3.223-.24 11.102.88 10.762 1.122-.343 1.226-2.281.446-8.312-.531-4.105-.758-4.523-1.326-2.45m-6.67 71.333c0 7.283.402 12.667.945 12.667 1.077 0 .835-23.553-.253-24.641-.381-.381-.692 5.008-.692 11.974m-1080.917 6.023c1.108.948 6.96 1.522 6.408.629-.335-.542-2.007-.985-3.717-.985-1.709 0-2.92.16-2.691.356m1065.455 2.827c-.509 1.895-1.183 2.507-2.29 2.082-1.246-.478-1.443-.103-.958 1.816.549 2.175.478 2.242-.7.669-1.415-1.89-8.59-2.517-8.59-.75 0 .55.536 1 1.191 1s.318.666-.75 1.481c-1.671 1.275-1.734 1.617-.45 2.458.82.538 1.539 1.559 1.598 2.269.058.711.21 3.317.338 5.792.127 2.475.458 3.938.735 3.25.868-2.151 2.338-1.365 2.338 1.25 0 1.556.567 2.5 1.5 2.5.825 0 1.5.45 1.5 1s.675 1 1.5 1 1.5.685 1.5 1.521c0 1.447 4.54 4.273 5.431 3.381.407-.407 1.333-7.404 1.492-11.274.064-1.55.336-1.658 1.577-.628 1.282 1.064 1.5.763 1.5-2.069 0-3.128-.082-3.205-1.468-1.372-1.449 1.916-1.47 1.915-1.6-.059-.11-1.677-.261-1.597-.932.5-.762 2.379-.805 2.344-.9-.719-.068-2.181.303-3.071 1.15-2.76 2.291.839 5.476-3.018 5.316-6.438-.105-2.259-2.566-2.497-2.566-.248 0 3.059-1.063 5.165-2.607 5.165-.766 0-1.444-.562-1.507-1.25-.299-3.275-.903-6.514-1.725-9.25l-.902-3-.721 2.683" fill-rule="evenodd"/></svg>