<svg xmlns="http://www.w3.org/2000/svg" width="1240" height="1753"><path d="M351.5 60.017c-15.666.506-19.5 1.142-19.5 3.237 0 .698-2.543.779-7.75.245-8.772-.9-11.513-1.104-26.25-1.951-8.592-.494-11.863-.249-18 1.35-7.125 1.856-7.829 2.307-14.083 9.028-3.62 3.891-7.099 7.074-7.731 7.074-.631 0-1.429 1.12-1.773 2.489-1.148 4.574-10.369 10.99-10.435 7.261-.012-.687-.876-.139-1.919 1.219-2.402 3.125-3.624 10.645-2.041 12.552.735.886.885 2.601.41 4.688-.412 1.81-.823 4.139-.913 5.176-.09 1.037-.857 2.392-1.705 3.012-.847.62-2.949 3.917-4.671 7.327-2.694 5.338-2.969 6.555-1.974 8.739.945 2.075 1.855 2.537 4.996 2.537 2.111 0 3.839-.422 3.839-.938s.9-.87 2-.787c2.559.193 2.546.249-.884 3.919-4.401 4.709-5.507 9.58-3.514 15.475.898 2.657 1.918 5.056 2.266 5.331 1.136.898 4.187 10.406 4.653 14.5.25 2.2 1.065 4.45 1.811 5 1.644 1.213 2.931 7.533 1.874 9.2-.726 1.143-.121 12.881 1.33 25.8.761 6.776.749 31.729-.018 38.369-.278 2.403-.93 6.003-1.45 8-.519 1.997-.848 7.456-.731 12.131.117 4.689-.371 10.515-1.088 12.995-.715 2.471-1.035 5.702-.711 7.178.324 1.477-.114 4.757-.974 7.291-1.687 4.967-2.127 16.07-.674 16.968.49.303 1.662 3.699 2.605 7.547l1.714 6.997 7.163 3.953c6.288 3.472 8.199 4.023 15.646 4.517 4.665.309 12.307.819 16.982 1.132 4.675.313 12.885 1.211 18.243 1.996 5.451.798 17.25 1.426 26.779 1.426 16.94 0 17.068-.017 22.978-3 5.035-2.541 7.094-3 13.471-3 4.141 0 7.529.398 7.529.885 0 1.066 9.875.495 23.5-1.359 11.776-1.602 22.375-1.872 23.909-.609.6.494 3.566 1.394 6.591 2 16.383 3.281 34.103 9.334 44.961 15.358 4.146 2.301 8.769 4.868 10.272 5.704 9.53 5.304 13.923 8.374 17.788 12.429 2.407 2.526 5.187 4.592 6.178 4.592 1.072 0 1.801.733 1.801 1.813 0 .997 3.642 5.159 8.093 9.25 10.63 9.769 9.969 9.106 13.407 13.444a405.014 405.014 0 0 0 6.027 7.389c1.665 1.982 3.654 4.842 4.419 6.354.766 1.512 1.766 2.75 2.223 2.75.457 0 .831.499.831 1.11 0 .61 2.25 3.572 5 6.581 9.271 10.143 12.5 16.05 20.657 37.793.822 2.191 1.675 5.392 1.895 7.112.22 1.72 1.254 5.12 2.299 7.555 1.956 4.564 3.674 10.781 3.341 12.094-.103.409.936 5.071 2.31 10.359S587 509.317 587 510.659c0 1.342.624 3.655 1.386 5.141 1.627 3.17 3.754 12.861 4.184 19.061.166 2.399.764 6.449 1.329 9 .565 2.552 1.511 9.736 2.103 15.965.591 6.229 1.931 15.487 2.977 20.574 1.047 5.087 1.858 10.79 1.802 12.674-.208 7.051 1.183 18.004 3.125 24.604 1.104 3.752 2.48 10.938 3.058 15.969.579 5.03 1.674 10.91 2.435 13.067.761 2.156 1.932 6.563 2.603 9.794.67 3.23 1.575 6.575 2.011 7.432.436.858 1.257 4.26 1.824 7.56 1.875 10.903 3.294 17.979 3.911 19.5.628 1.549 3.462 18.821 5.251 32 .56 4.125 1.194 8.688 1.409 10.14 1.069 7.206 17.242 51.86 18.783 51.86.51 0 .668.419.352.931-.317.512-.118 1.213.441 1.559.559.345 1.016 1.726 1.016 3.069s.382 2.441.848 2.441c.845 0 4.284 6.812 4.171 8.26-.079 1.015 3.065 7.107 3.994 7.74 1.411.96 8.936 16.872 9.503 20.093.315 1.787 1.186 4.409 1.936 5.828 1.909 3.614 5.45 19.587 5.67 25.579.241 6.568-.698 13.84-2.133 16.521-.633 1.183-.908 2.394-.61 2.691.562.562-2.131 6.41-3.356 7.288-.383.275-3.962 6.8-7.953 14.5-3.99 7.7-8.086 14.9-9.102 16-1.016 1.1-1.87 2.45-1.899 3-.029.55-.678 1.731-1.443 2.624-5.965 6.966-22.842 44.327-20.901 46.268.308.308.105 1.133-.45 1.834-.556.701-1.811 3.749-2.79 6.774-.979 3.025-2.161 5.75-2.628 6.056-.466.306-.921 1.881-1.011 3.5-.09 1.619-.999 6.544-2.019 10.944-1.232 5.31-2.068 14.053-2.486 26-.504 14.397-1.032 19.101-2.637 23.5-1.634 4.476-2.06 8.473-2.291 21.472-.156 8.784-.553 19.359-.881 23.5-1.039 13.107-2.585 27.338-3.586 33.028-.533 3.025-1.447 11.35-2.031 18.5-.585 7.15-1.253 14.575-1.485 16.5-.232 1.925-.621 7.775-.865 13-.593 12.695-1.433 20.707-2.649 25.273-.553 2.075-.721 4.234-.372 4.798.348.563.138 3.14-.466 5.726-.604 2.587-1.26 6.503-1.457 8.703-.197 2.2-1.356 8.45-2.574 13.889-1.695 7.563-1.931 10.065-1.003 10.638.667.412.961 1.156.653 1.654-.307.497-.803 2.685-1.102 4.862-.298 2.176-1.425 6.443-2.505 9.482-1.079 3.038-2.228 7.739-2.553 10.445-.324 2.706-1.287 6.97-2.139 9.475-.852 2.505-1.74 6.04-1.974 7.855-.233 1.815-1.052 4.515-1.819 6-1.451 2.809-3.654 10.236-4.063 13.7-.13 1.1-1.821 5.15-3.758 9-1.937 3.85-3.851 8.125-4.253 9.5-1.085 3.711-5.636 10.053-6.729 9.378-.522-.323-2.047.443-3.388 1.703-2.697 2.534-11.414 16.082-11.414 17.741 0 1.501-6.79 8.975-19.75 21.74-6.187 6.094-11.25 11.611-11.25 12.259 0 .648-.76 1.179-1.688 1.179-2.109 0-8.296 4.134-8.305 5.549-.004.577-1.64 1.64-3.636 2.361-2.683.971-3.269 1.54-2.25 2.186.994.63.66.878-1.197.889-1.466.008-3.62 1.131-5 2.606-2.973 3.177-22.237 12.623-30.424 14.918-39.589 11.096-42.107 11.482-59 9.031-12.85-1.865-23.5-2.404-23.5-1.189 0 1.926-16.402-.112-22.46-2.791-5.517-2.44-6.639-2.56-23.914-2.558-9.969.001-24.426.657-32.126 1.458-7.7.801-17.15 1.535-21 1.63-3.85.095-9.7.586-13 1.091-5.51.844-6.501 1.413-12.132 6.974-4.948 4.885-6.236 6.821-6.666 10.027-.293 2.185-1.265 4.782-2.16 5.772-2.762 3.051-2.98 8.251-.616 14.687 2.432 6.622 2.357 6.336 2.177 8.359-.116 1.297-.257 1.304-1.05.052-.593-.937-.716.121-.349 3 .311 2.446 1.021 5.023 1.577 5.726.556.703.982 5.428.948 10.5-.035 5.072.425 11.022 1.021 13.222.596 2.2 1.259 8.275 1.475 13.5 1.117 27.109 1.198 25.308-1.662 36.75-.925 3.698-1.329 16.234-.823 25.5.186 3.401-.115 4.75-1.061 4.75-.727 0-2.006.684-2.841 1.52-1.189 1.188-1.299 2.154-.504 4.435.811 2.324.626 3.681-.909 6.691-1.059 2.077-1.925 4.492-1.925 5.365 0 .874-.386 2.016-.858 2.539-.472.522-1.407 3.65-2.077 6.95-1.378 6.78-.733 9.412 3.357 13.706 2.514 2.639 3.9 6.516 1.456 4.072-.617-.617-1.742-.884-2.5-.593-.758.291-1.378.031-1.378-.578s-1.575-1.107-3.5-1.107c-2.96 0-3.501.347-3.509 2.25-.004 1.237-.265 4.5-.579 7.25-.57 4.987-.561 5.006 3.374 7.202 3.783 2.112 3.973 2.461 4.618 8.5 1.413 13.206 2.715 17.893 5.241 18.853 3.599 1.368 9.288 6.956 8.684 8.529-.327.853.452 1.763 2.021 2.359 1.405.534 3.214 2.228 4.02 3.764.806 1.536 3.239 4.51 5.408 6.609 3.15 3.049 5.528 4.227 11.832 5.856 7.14 1.847 9.961 1.991 29.688 1.52 19.401-.463 22.701-.303 30 1.453 7.45 1.793 11.797 1.974 47.397 1.968 23.558-.004 40.712-.414 43-1.029 4.193-1.128 16.003-3.151 35.682-6.113 7.083-1.066 13.383-2.325 14-2.799.618-.474 3.148-1.373 5.623-1.998 18.13-4.58 35.996-9.541 38.59-10.716 2.791-1.264 11.297-3.828 17.175-5.177 1.245-.286 2.509-.916 2.809-1.4.299-.485 1.348-.881 2.331-.881.983 0 3.094-.641 4.691-1.425 6.235-3.061 31.194-13.42 36.404-15.109 7.971-2.585 22.37-9.53 25.664-12.378.641-.554 2.284-1.288 3.652-1.631 1.367-.343 3.447-1.519 4.62-2.612 1.174-1.094 4.031-2.863 6.349-3.931 2.318-1.069 6.015-3.049 8.215-4.401 2.2-1.352 5.462-3.122 7.25-3.934 1.787-.812 3.255-1.837 3.26-2.278.006-.441 2.481-1.899 5.5-3.242 3.02-1.343 5.49-2.775 5.49-3.183 0-.408 1.004-1.06 2.231-1.449 2.08-.661 7.642-4.169 8.769-5.532.275-.332 5.9-4.696 12.5-9.697 6.6-5.001 13.218-10.242 14.706-11.646 1.489-1.403 3.146-2.552 3.683-2.552.537 0 1.262-.9 1.611-2s1.022-2 1.496-2 2.413-1.462 4.309-3.25c1.896-1.787 7.634-6.85 12.752-11.25 5.119-4.4 10.933-9.575 12.922-11.5 1.989-1.925 6.451-5.975 9.916-9 7.44-6.495 10.863-9.921 17.605-17.617 2.75-3.14 8.6-9.401 13-13.914 10.799-11.078 19.228-20.593 22.3-25.177 1.398-2.085 3.074-4.115 3.725-4.51 2.386-1.448 16.09-20.451 18.773-26.032 1.52-3.162 3.145-5.75 3.612-5.75.466 0 1.426-1.463 2.133-3.25.708-1.787 1.866-3.937 2.574-4.776 1.771-2.099 13.052-24.804 14.972-30.135 1.426-3.96 2.116-6.328 2.763-9.488.13-.632.742-1.76 1.361-2.506.62-.746 1.458-2.704 1.865-4.351.406-1.647 2.017-5.525 3.58-8.618 1.563-3.093 2.842-5.968 2.842-6.39 0-.422.853-2.616 1.896-4.876 1.043-2.261 2.369-5.91 2.948-8.11 1.73-6.583 6.154-25.843 6.455-28.104.154-1.157 1.082-3.328 2.062-4.824 2.041-3.115 2.322-4.142 4.121-15.072.724-4.4 2.683-12.113 4.352-17.141 1.67-5.027 3.485-11.327 4.033-14 1.343-6.539 2.555-10.766 5.044-17.584 1.149-3.149 2.089-7.049 2.089-8.667 0-1.618.462-3.095 1.027-3.284.564-.188 1.245-2.363 1.512-4.833.267-2.47.718-5.518 1.001-6.774.283-1.255.735-5.719 1.004-9.918.27-4.199.87-8.122 1.336-8.717 1.434-1.835 2.176-13.126.943-14.359-.816-.816-.789-1.89.098-4.032 1.43-3.454 2.108-12.058 1.118-14.191-.63-1.356-.009-14.687 1.422-30.5.298-3.3.773-12.075 1.054-19.5.282-7.425.941-15.864 1.465-18.753.524-2.889.591-6.232.149-7.428-.443-1.196-.422-4.219.045-6.719.711-3.808 1.794-23.666 1.886-34.6.046-5.487 3.171-26.985 4.062-27.95.483-.522.878-1.991.878-3.264 0-1.272.387-3.095.859-4.05.472-.955 2.542-5.336 4.598-9.736 2.057-4.4 5.263-10.521 7.124-13.602 1.861-3.081 3.965-6.681 4.674-8 1.904-3.542 9.078-14.242 10.322-15.398.592-.55 2.611-3.025 4.487-5.5 6.558-8.653 23.821-28.511 25.87-29.758 1.136-.693 2.066-1.727 2.066-2.299 0-.572 3.263-4.328 7.25-8.348 33.951-34.222 42.551-43.66 58.515-64.218 3.159-4.067 3.216-4.337 4.201-19.834.886-13.932.811-16.069-.656-18.877-.911-1.741-1.74-4.966-1.842-7.166-.32-6.831-1.691-12.648-3.11-13.193-.747-.286-1.358-1.079-1.358-1.76 0-1.922-3.036-7.547-4.073-7.547-.51 0-.927-.82-.927-1.823 0-2.041-9.019-12.177-10.835-12.177-.641 0-1.165-.38-1.165-.844 0-1.395-4.472-6.156-5.782-6.156-.67 0-1.218-.381-1.218-.847 0-1.745-3.809-5.153-5.76-5.153-1.114 0-2.285-.675-2.602-1.5-.316-.825-1.192-1.5-1.946-1.5s-3.395-2.588-5.869-5.75c-2.474-3.163-10.083-11.731-16.91-19.042-6.827-7.311-15.932-17.211-20.233-22-4.302-4.789-8.811-9.096-10.022-9.571-2.163-.847-11.715-12.231-14.658-17.468-.825-1.468-2.003-2.996-2.619-3.395-.615-.4-1.715-2.2-2.443-4-.728-1.801-1.698-3.532-2.155-3.847-.456-.316-1.03-1.615-1.275-2.887-.245-1.273-1.06-3.04-1.811-3.927-1.99-2.351-7.697-18.822-7.697-22.215 0-1.594-.349-2.898-.775-2.898-.426 0-1.591-3.937-2.59-8.75-.999-4.812-2.182-9.65-2.629-10.75-1.289-3.173-4.17-15.66-4.498-19.5-.165-1.925-1.046-6.425-1.958-10-.913-3.575-1.831-7.85-2.041-9.5-.21-1.65-.843-5.025-1.407-7.5-3.815-16.752-9.456-56.256-9.211-64.5.285-9.562.047-11.946-1.412-14.173-.897-1.369-1.37-3.168-1.052-3.998.319-.83.303-1.957-.036-2.505-.338-.547-.791-4.219-1.007-8.159-.495-9.034-1.285-13.844-2.185-13.289-.384.238-.871-1.662-1.081-4.222-.21-2.56-.49-5.779-.621-7.154a150.545 150.545 0 0 1-.368-4.75c-.071-1.238-.757-2.25-1.524-2.25-1.359 0-2.073-2.973-3-12.5-.499-5.127-4.353-26.136-5.58-30.413-.516-1.799-.702-4.467-.413-5.929.295-1.491-.585-6.171-2.004-10.658-1.391-4.4-2.773-9.958-3.072-12.351-.299-2.393-.852-4.852-1.23-5.464-.379-.611-1.011-2.928-1.406-5.148-.395-2.221-1.235-6.962-1.866-10.537-.631-3.575-1.753-7.43-2.494-8.567-.741-1.138-2.264-4.963-3.385-8.5-2.903-9.163-5.877-16.893-7.035-18.288-.547-.659-2.105-4.6-3.462-8.756-2.11-6.464-6.285-15.916-10.331-23.389-.596-1.1-1.925-3.762-2.955-5.917-3.932-8.226-5.676-11.108-7.493-12.38-1.034-.724-1.894-2.078-1.912-3.01-.018-.931-1.344-3.493-2.945-5.693-1.601-2.2-4.952-6.971-7.446-10.603-2.494-3.631-6.557-8.714-9.03-11.295-2.473-2.581-5.129-5.597-5.903-6.701-6.614-9.443-52.897-56.543-74.621-75.939-9.584-8.556-14.219-12.747-17.106-15.469-.871-.821-1.903-1.493-2.294-1.493-.39 0-1.927-1.149-3.416-2.552-1.488-1.404-8.106-6.645-14.706-11.646-6.6-5.001-12.225-9.388-12.5-9.749-.275-.361-2.75-2.208-5.5-4.104-2.75-1.897-5.225-3.71-5.5-4.03-.275-.319-2.75-1.669-5.5-3-2.75-1.33-5.45-2.961-6-3.624-.55-.663-2.125-1.68-3.5-2.261-1.375-.58-4.3-2.173-6.5-3.539s-6.138-3.442-8.75-4.612c-2.612-1.171-4.75-2.599-4.75-3.173 0-.574-.285-.758-.634-.409-.349.348-1.759-.252-3.135-1.334-1.375-1.082-3.115-1.967-3.866-1.967-.751 0-1.365-.344-1.365-.764 0-1.198-14.629-7.772-26.156-11.754-6.835-2.361-11.351-4.214-18.344-7.526-6.991-3.312-16.655-7.073-28.5-11.091-6.325-2.146-12.175-4.192-13-4.547a45.849 45.849 0 0 0-2-.818 86.095 86.095 0 0 1-2-.756c-1.658-.645-27.608-7.804-35.5-9.794-2.75-.693-5.505-1.648-6.123-2.122-.617-.474-7.142-1.773-14.5-2.887-19.324-2.926-20.275-3.101-21.377-3.933-.55-.416-3.25-1.062-6-1.436-2.75-.374-6.35-1.096-8-1.606-3.5-1.081-53.743-1.7-77-.949M680.158 221c1.22 1.65 2.668 3 3.217 3 .55 0-.294-1.35-1.875-3s-3.028-3-3.217-3c-.189 0 .655 1.35 1.875 3m4.342 1318.765c-.55.404-1.893 1.86-2.984 3.235-1.658 2.088-1.452 2.016 1.25-.437 2.92-2.652 3.711-3.592 2.984-3.548-.138.009-.7.346-1.25.75" fill-rule="evenodd"/></svg>