<svg xmlns="http://www.w3.org/2000/svg" width="1240" height="1753"><path d="M321.5 673.52c-8.8.681-19.375 1.72-23.5 2.31-4.125.59-10.425 1.345-14 1.677-3.575.332-7.4.987-8.5 1.455-1.1.468-6.725 1.634-12.5 2.592-5.775.958-11.175 2.088-12 2.511-.825.423-4.2 1.543-7.5 2.49-3.3.946-6.429 1.967-6.954 2.268-1.237.71-21.499 7.789-28.296 9.886-2.887.891-5.25 1.996-5.25 2.456 0 .459-.533.835-1.184.835-.652 0-3.014.873-5.25 1.94s-6.991 3.035-10.566 4.372c-3.575 1.337-9.875 4.305-14 6.595s-8.738 4.642-10.25 5.226c-1.512.585-2.75 1.469-2.75 1.965s-.643.902-1.429.902c-.785 0-2.023.579-2.75 1.288-.726.708-9.054 4.564-18.506 8.569-9.452 4.005-17.72 7.926-18.373 8.712-.653.787-2.011 1.431-3.017 1.431-2.258 0-6.925 2.057-6.925 3.052 0 .402-1.869 1.479-4.154 2.393-6.715 2.687-35.316 16.942-35.679 17.784-.184.424-.959.771-1.723.771C64.495 767 54 772.068 54 773.009c0 .426-1.013 1.029-2.25 1.341-4.629 1.167-12.217 8.252-14.802 13.821-1.105 2.381-2.408 5.004-2.895 5.829-2.735 4.629-4.5 10.033-4.573 14-.105 5.648 1.234 12.006 2.945 13.985.72.833 1.381 2.19 1.469 3.015.088.825.34 3.3.56 5.5.617 6.164 2.814 12.765 5.296 15.915 1.238 1.57 2.25 3.643 2.25 4.606 0 .963 1.598 6.64 3.55 12.615 5.85 17.901 7.469 24.195 7.813 30.364.107 1.925.596 4.144 1.087 4.932.491.787 1 3.66 1.131 6.385.131 2.724.642 5.23 1.135 5.568.494.338 1.496 2.095 2.228 3.903.732 1.809 2.174 3.74 3.206 4.292 1.42.76 1.645 1.435.924 2.781-.688 1.287-.417 2.587.981 4.708 1.062 1.612 1.935 3.663 1.938 4.559.004.895.663 2.171 1.465 2.837.948.787 1.259 2.2.89 4.046-.348 1.739.013 3.666.932 4.978.824 1.177 1.289 2.944 1.032 3.927-.257.982.275 2.528 1.182 3.435.907.907 1.337 1.649.955 1.649s-.134.675.551 1.5.895 1.5.467 1.5c-1.694 0 2.841 3.86 5.243 4.463 1.41.354 4.007 1.745 5.771 3.09 1.764 1.346 3.767 2.447 4.451 2.447.897 0 1.055 1.115.568 4-.582 3.446-.421 4.011 1.162 4.079 1.052.045 1.303.295.588.583-1.973.797-1.461 2.771 1 3.851 1.746.767 2.185 1.677 1.96 4.061-.16 1.69.601 5.153 1.691 7.696 1.865 4.35 2.149 4.576 4.8 3.816 4.2-1.205 13.299-5.991 13.299-6.996 0-1.65 3.505-2.442 11.5-2.6 4.418-.087 10.015-.878 12.5-1.768 2.475-.886 5.73-1.83 7.234-2.097 1.503-.268 3.303-.848 4-1.29.696-.443 1.491-.848 1.766-.901 4.777-.926 6.933-1.818 20-8.277 3.575-1.767 7.063-3.201 7.75-3.185.688.015 1.25-.414 1.25-.955 0-1.2 5.501-4.022 22.485-11.533 7.142-3.159 17.267-7.884 22.5-10.501 5.233-2.617 11.99-5.76 15.015-6.985 3.025-1.225 11.192-4.629 18.148-7.565 22.689-9.577 37.958-14.221 50.852-15.469 6.325-.612 12.234-1.5 13.13-1.972 2.009-1.059 21.534-.383 28.808.996 2.934.557 7.687 1.012 10.562 1.012 2.875 0 7.638.457 10.584 1.016 2.947.559 7.171 1.242 9.387 1.517 2.216.276 4.706.714 5.533.973.827.26 5.327.918 10 1.462 4.673.545 10.971 1.469 13.996 2.053 3.025.585 6.636 1.235 8.025 1.445 1.389.21 5.664 1.591 9.5 3.069 3.836 1.477 7.875 2.822 8.975 2.989 1.1.166 3.8 1.096 6 2.066 2.2.97 4.45 1.856 5 1.97.55.113 4.6 1.429 9 2.925 4.4 1.495 8.45 2.798 9 2.894 2.4.419 12.5 4.92 12.5 5.57 0 .395.563.724 1.25.732 2.559.029 11.75 4.612 11.75 5.859 0 1.567 8.401 4.948 9.936 3.999.6-.37 3.637.067 6.749.972 6.247 1.816 27.387 12.081 28.55 13.863.404.619.741.786.75.37.022-1.079 29.794 13.972 32.35 16.354 1.169 1.088 3.259 2.224 4.645 2.522 3.542.763 17.757 7.573 22.41 10.736 2.139 1.454 4.547 2.644 5.351 2.644.803 0 8.053 3.102 16.11 6.894 17.389 8.183 27.298 12.291 27.986 11.602.275-.275 1.212.117 2.082.871 1.75 1.517 17.425 7.704 20.581 8.123 1.1.146 5.15 1.476 9 2.956 13.203 5.073 23.667 8.557 27.582 9.183 2.155.345 3.918 1.067 3.918 1.606 0 .538.62.741 1.378.45.758-.291 1.852-.055 2.43.523 2.216 2.216 17.299 2.97 17.989.9.206-.616.723-.905 1.15-.641.426.264 2.3.69 4.164.946 6.615.911 31.416 6.585 33.125 7.578.955.555 2.813 1.009 4.128 1.009 2.211 0 5.147 2.156 4.211 3.092-.4.4.282.465 9.425.907 2.475.119 4.993.616 5.596 1.103.603.488 4.878 1.067 9.5 1.287 12.178.579 21.219 1.724 22.664 2.872.694.551 6.769 1.074 13.5 1.162 15.358.203 63.722-1.041 69.74-1.794 2.475-.309 9.45-1.062 15.5-1.673 10.201-1.031 19.693-3.261 21.95-5.158.523-.439 2.631-.798 4.685-.798 7.546 0 33.782-7.139 37.615-10.235.687-.555 1.25-.751 1.25-.434 0 .605 21.218-6.714 23.298-8.036.661-.42 1.539-.828 1.952-.905.413-.077.862-.234 1-.348.138-.115 1.15-.326 2.25-.469 1.1-.142 3.575-1.204 5.5-2.359 1.925-1.154 8.154-4.367 13.842-7.139 11.105-5.412 44.164-25.537 45.416-27.647.416-.703 2.333-1.798 4.259-2.434 1.926-.635 3.244-1.572 2.929-2.082-.315-.509.243-1.227 1.241-1.594.997-.367 2.173-1.264 2.613-1.993.44-.729 1.254-1.325 1.809-1.325.555 0 .688.52.296 1.155-.446.721-.274.882.457.43.644-.398.864-1.219.49-1.824-.437-.707-.089-.874.972-.467 1.019.391 1.561.169 1.414-.58-.131-.668.662-1.235 1.762-1.261 1.1-.025 1.876-.621 1.725-1.324-.164-.762.206-.981.916-.542.711.439 2.174-.436 3.634-2.176 1.345-1.601 2.123-2.315 1.73-1.587-.587 1.087-.35 1.096 1.326.05 1.122-.701 1.81-1.645 1.53-2.099-.28-.453-.139-.706.315-.562 2.652.845 16.044-7.621 21.297-13.463 1.36-1.513 2.935-2.757 3.5-2.765.565-.009 3.371-2.161 6.235-4.782 2.864-2.622 7.472-6.777 10.24-9.235 2.767-2.457 5.036-4.76 5.042-5.118.005-.357 1.473-2.202 3.26-4.098 1.787-1.897 4.6-5.119 6.25-7.161 1.65-2.041 3.863-4.472 4.918-5.401 5.116-4.506 9.557-9.661 11.61-13.478 1.246-2.316 4.168-5.787 6.493-7.712 2.325-1.925 4.847-4.422 5.603-5.548.757-1.127 3.768-4.254 6.692-6.949 4.758-4.386 5.53-4.768 7.348-3.633 2.432 1.519 2.37 1.572 3.63-3.043.736-2.698.673-4.158-.239-5.5-.682-1.005-1.711-3.627-2.286-5.827-3.468-13.262-8.353-28.744-10.23-32.423-1.198-2.349-1.942-4.507-1.654-4.796.289-.288-.498-2.607-1.75-5.153-1.251-2.545-2.849-6.653-3.552-9.128-1.32-4.65-4.861-13.52-8.184-20.5-1.048-2.2-1.903-4.562-1.902-5.25.002-.687-.447-1.25-.997-1.25s-1-.81-1-1.8-.461-2.261-1.023-2.823c-.563-.563-1.204-1.957-1.423-3.098-.22-1.141-1.559-3.912-2.977-6.157-1.417-2.245-2.577-4.485-2.577-4.977 0-3.772-24.232-31.563-30.329-34.784-1.556-.821-3.454-2.99-4.218-4.818-.906-2.17-2.444-3.693-4.427-4.384-1.67-.582-3.439-2.094-3.93-3.359-.49-1.265-3.186-4.775-5.99-7.8-2.804-3.025-5.774-6.85-6.602-8.5-4.872-9.719-7.452-13.23-11.967-16.28-5.077-3.431-7.03-3.677-7.047-.886-.006.914-1.655 2.543-3.666 3.62-2.01 1.078-5.464 3.732-7.675 5.9-2.211 2.168-4.275 3.687-4.585 3.377-.31-.31-.564-.009-.564.67 0 .744-.732 1.001-1.843.649-1.082-.344-2.902.248-4.408 1.432-2.757 2.169-4.249 2.637-3.249 1.018.855-1.383.402-1.287-4.856 1.039-2.535 1.122-4.955 2.104-5.377 2.183-.422.079-4.289 1.907-8.593 4.061-8.752 4.381-23.837 16.545-36.174 29.171-4.4 4.503-11.825 11.284-16.5 15.069-4.675 3.785-10.566 8.703-13.091 10.929a1630.769 1630.769 0 0 1-10.38 9.048c-3.185 2.75-8.841 8.038-12.57 11.75-3.729 3.712-7.141 6.75-7.582 6.75-.441 0-2.618 1.744-4.839 3.876-2.221 2.132-6.513 5.492-9.538 7.466-3.025 1.974-7.394 4.955-9.708 6.624-2.314 1.668-4.677 3.034-5.25 3.034-.573 0-1.042.45-1.042 1s-.338.921-.75.825c-.413-.095-2.1.411-3.75 1.125s-4.013 1.693-5.25 2.175a442.23 442.23 0 0 0-4.5 1.784c-4.692 1.897-6.35 2.37-9.707 2.774-1.901.228-3.995.862-4.653 1.408-.657.546-3.827 1.224-7.043 1.507-3.216.282-7.046.902-8.512 1.376-1.466.475-2.941.586-3.279.249-.338-.338-5.889-.721-12.335-.852-6.447-.131-14.646-.525-18.221-.876a1890.72 1890.72 0 0 0-10-.96c-1.925-.177-6.062-.995-9.193-1.818-3.131-.824-5.894-1.297-6.139-1.051-.246.245-3.175-.261-6.51-1.125s-7.997-1.811-10.361-2.104c-4.309-.533-25.979-1.563-30.945-1.47-1.457.027-4.607-.769-7-1.768-2.394-1-5.865-1.914-7.713-2.033-1.849-.118-4.324-.745-5.5-1.392-1.177-.648-2.589-1.264-3.139-1.37-.55-.106-3.379-1.14-6.287-2.298-2.908-1.158-6.428-2.106-7.821-2.106-1.394 0-3.21-.675-4.035-1.5-.825-.825-2.531-1.5-3.791-1.5-2.912 0-15.106-5.011-23.178-9.526-3.417-1.911-6.872-3.474-7.678-3.474s-1.984-.625-2.618-1.389c-.634-.764-2.152-1.627-3.373-1.918-4.958-1.182-11.402-3.987-14.402-6.27-1.751-1.333-3.737-2.423-4.412-2.423-1.229 0-9.961-4.769-10.905-5.955-.275-.346-2.413-1.245-4.75-1.997s-4.25-1.746-4.25-2.208c0-.462-.732-.84-1.627-.84s-4.945-1.832-9-4.07c-4.055-2.239-7.373-3.775-7.373-3.414 0 .361-2.925-.98-6.5-2.979s-6.5-3.376-6.5-3.06c0 .316-1.394-.147-3.098-1.028s-3.841-1.774-4.75-1.985c-2.851-.663-9.527-3.235-12.652-4.876-1.65-.867-3.419-1.578-3.93-1.582-1.322-.009-9.948-3.902-17.57-7.931a1281.794 1281.794 0 0 0-14.734-7.62c-4.529-2.301-8.804-4.617-9.5-5.147-1.615-1.229-11.038-4.802-11.969-4.538-.387.109-2.862-.738-5.5-1.882-2.639-1.145-13.35-4.927-23.803-8.404-10.453-3.477-21.928-7.673-25.5-9.325-3.572-1.651-7.732-3.311-9.244-3.689-1.512-.378-2.75-1.088-2.75-1.578 0-.491-.7-.892-1.555-.892s-3.458-.867-5.785-1.927c-2.326-1.06-5.534-2.254-7.128-2.654-1.594-.4-4.054-1.331-5.465-2.067-1.412-.737-3.328-1.342-4.258-1.346-.93-.003-1.938-.405-2.239-.893-.301-.487-2.24-1.203-4.309-1.589-2.069-.387-4.211-1.054-4.761-1.483-.55-.428-3.475-1.358-6.5-2.065-3.025-.707-6.175-1.623-7-2.037-1.713-.858-7.986-2.615-16-4.48-3.025-.705-8.425-1.996-12-2.87-20.781-5.083-55.086-7.191-82.5-5.069M722 1039.845c0 .408 1.837 1.232 4.083 1.832 2.246.599 3.709.754 3.25.343-1.348-1.209-7.333-2.983-7.333-2.175" fill-rule="evenodd"/></svg>