<svg xmlns="http://www.w3.org/2000/svg" width="1240" height="1753"><path d="M653 44.871c-1.375.41-10.375.643-20 .519-14.72-.19-18.634.084-24.641 1.723-3.927 1.072-9.777 1.903-13 1.847-6.326-.11-7.083-.009-18.359 2.431-4.125.893-10.65 1.899-14.5 2.234-3.85.336-7.997 1.233-9.215 1.993S550.098 57 548.909 57c-1.189 0-4.911 1.397-8.271 3.105-5.062 2.572-6.945 3.024-10.98 2.636-2.679-.257-5.161-.867-5.515-1.354-.957-1.32-4.919-3.387-6.49-3.387-.756 0-3.023-1.119-5.039-2.487-2.016-1.369-4.892-2.757-6.39-3.086-1.498-.328-4.299-1.179-6.224-1.891-5.715-2.111-21 1.097-21 4.408 0 .491-1.751 2.716-3.892 4.944-4.581 4.768-6.1 11.143-6.121 25.694-.009 6.535-.811 12.108-3 20.857-1.643 6.567-2.987 13.489-2.987 15.384 0 1.895-.522 5.188-1.161 7.319-1.003 3.349-1.715 4.025-5.25 4.985a943.316 943.316 0 0 0-8.589 2.389c-6.196 1.76-12.412 3.212-19.5 4.555-13.274 2.514-40.725 12.71-53.5 19.87a2140.75 2140.75 0 0 1-15.086 8.369c-3.622 1.982-8.827 5.086-11.567 6.897s-7.574 4.868-10.742 6.793c-3.168 1.925-7.362 4.738-9.32 6.25-1.958 1.512-4.111 2.75-4.785 2.75-.674 0-2.924 1.35-5 3s-4.372 3-5.103 3c-.73 0-2.806 1.289-4.612 2.865-1.807 1.576-4.218 3.156-5.359 3.512-1.14.355-2.94 1.44-4 2.41-2.793 2.558-7.974 5.445-17.451 9.724-9.512 4.295-17.025 8.826-18.243 11.003-.457.817-1.458 1.486-2.225 1.486-2.271 0-14.259 10.75-18.715 16.782-2.271 3.074-5.291 6.816-6.711 8.315-6.143 6.487-15 16.564-20.882 23.761-1.815 2.222-4.565 5.393-6.11 7.047-1.546 1.655-3.378 4.378-4.071 6.052-.693 1.673-1.895 3.043-2.671 3.043-.775 0-1.71.788-2.078 1.75-.367.963-1.478 2.622-2.469 3.689-.99 1.066-1.8 2.528-1.8 3.25 0 .721-.413 1.311-.918 1.311-.506 0-1.944 1.687-3.198 3.75-1.253 2.063-2.55 3.975-2.883 4.25-.332.275-2.12 2.637-3.972 5.25-1.852 2.612-3.768 4.75-4.258 4.75-.489 0-.63.419-.314.931.317.512.119 1.213-.439 1.558s-2.637 4.088-4.621 8.319c-1.983 4.231-6.526 13.672-10.096 20.981-3.569 7.308-6.596 13.833-6.727 14.5-.354 1.802-5.283 11.747-7.629 15.391-1.126 1.748-2.95 5.749-4.054 8.89-1.104 3.14-3.291 8.459-4.861 11.82-2.905 6.216-3.742 8.41-3.817 9.998-.023.489-.419 1.164-.879 1.5-.889.651-5.334 9.385-5.334 10.482 0 .359-.851 2.559-1.892 4.891-1.983 4.443-3.307 8.041-3.137 8.525.055.157-.591.976-1.435 1.821-.845.845-1.536 2.124-1.536 2.842s-.622 1.823-1.383 2.454c-1.078.894-1.535.756-2.067-.627-.654-1.698-.729-1.697-1.688.012-.553.984-1.849 6.609-2.88 12.5-1.651 9.428-9.099 31.883-14.549 43.863-.788 1.733-1.442 3.758-1.454 4.5-.011.742-1.582 5.849-3.491 11.349-1.908 5.5-3.474 10.806-3.479 11.792-.005.985-1.333 4.624-2.952 8.085-1.618 3.462-4.113 11.43-5.543 17.708-1.431 6.278-3.239 13.89-4.018 16.915-2.114 8.206-5.138 26.169-7.999 47.5-1.401 10.45-2.965 21.025-3.475 23.5-.511 2.475-1.645 9-2.52 14.5s-2.285 14.275-3.132 19.5c-.848 5.225-1.896 13.325-2.33 18-.434 4.675-1.308 10.3-1.942 12.5-1.634 5.666-2.934 18.945-4.063 41.5-.537 10.725-1.414 25.575-1.95 33a4248.24 4248.24 0 0 0-2.049 30.5c-1.222 19.315-2.787 42.438-3.621 53.5-.311 4.125-.738 11.325-.95 16-.373 8.219-.754 14.459-2.047 33.5-.336 4.95-.812 9.325-1.057 9.723-.245.397-.662 19.431-.927 42.298-.42 36.338-.289 41.767 1.043 43.098 1.2 1.201 1.53 4.213 1.557 14.202.019 6.974.346 17.854.728 24.179 1.054 17.474.77 30.089-1.023 45.5-.896 7.7-1.673 18.947-1.728 24.994-.054 6.046-.458 11.353-.897 11.792-.44.44-1.138-5.632-1.552-13.493-.414-7.861-1.076-16.768-1.472-19.793-.663-5.063-.786-5.269-1.555-2.586-.468 1.637-.349 9.966.272 19 .609 8.847 1.147 16.972 1.195 18.055.049 1.083.49 2.217.979 2.519.49.303 1.593 4.592 2.452 9.531.859 4.94 2.19 12.356 2.958 16.481.769 4.125 1.873 10.2 2.454 13.5.581 3.3 1.249 6.9 1.484 8 .236 1.1 1.194 6.5 2.13 12 .936 5.5 1.943 10.675 2.237 11.5.295.825.687 2.85.872 4.5.999 8.921 3.385 20.18 8.263 39 1.71 6.6 3.778 15.6 4.594 20 4.155 22.388 6.737 30.883 18.949 62.334 1.994 5.134 4.076 11.884 4.628 15 1.366 7.717 1.571 8.716 3.32 16.166 2.042 8.698 7.828 25.318 9.133 26.235.575.404.732.741.35.75-.615.013.575 3.099 5.216 13.515.735 1.65 1.391 3.225 1.457 3.5.606 2.514 2.245 6.612 4.999 12.5 1.801 3.85 3.962 8.575 4.802 10.5.84 1.925 2.696 6.142 4.124 9.371 1.428 3.229 2.597 6.935 2.597 8.236 0 1.771.905 2.744 3.596 3.869 4.098 1.712 14.777 11.64 17.003 15.807.851 1.594 1.961 2.489 2.598 2.095.612-.378.852-.266.533.249-.318.515 1.975 3.9 5.096 7.522 3.121 3.622 7.474 8.949 9.674 11.837 11.003 14.444 18.034 22.304 38.132 42.628 19.272 19.488 33.974 32.553 45.368 40.315 1.925 1.312 5.138 3.932 7.139 5.823 4.668 4.409 16.792 13.281 23.861 17.46 3.025 1.788 7.322 5.059 9.55 7.269 2.227 2.211 5.827 5.188 8 6.617 11.825 7.778 16.219 10.396 23.228 13.842 4.247 2.088 20.997 10.337 37.222 18.331 29.791 14.679 40.253 19.234 63 27.428 6.875 2.477 15.392 5.629 18.926 7.004 10.85 4.223 27.115 8.098 62.254 14.831 29.836 5.717 33.928 5.914 94.058 4.513 29.556-.689 56.781-.975 60.5-.637 9.647.878 43.183-.912 62.262-3.324 25.291-3.197 21.372-2.242 54-13.172 25.177-8.434 31.899-10.881 39.186-14.27 3.127-1.454 6.194-2.644 6.815-2.644.62 0 3.237-.832 5.814-1.849 2.577-1.016 9.185-3.325 14.685-5.129 10.952-3.594 30.5-12.63 30.5-14.099 0-.508.788-.926 1.75-.929 2.024-.006 20.28-12.537 31.268-21.461 4.134-3.358 10.434-7.863 14-10.012 14.115-8.505 37.926-29.184 36.416-31.627-.304-.492.093-.894.881-.894 2.249 0 20.685-20.474 20.685-22.972 0-.394 1.124-2.024 2.499-3.622 1.374-1.599 2.499-3.423 2.5-4.056.002-2.015 12.507-17.521 22.206-27.534 1.487-1.536 4.47-5.385 6.628-8.554 2.158-3.169 4.879-6.619 6.045-7.667 1.167-1.048 2.122-2.278 2.122-2.735 0-.456 1.291-2.974 2.869-5.595 1.578-2.621 4.133-8.14 5.678-12.265s4.284-9.809 6.086-12.632c1.803-2.822 4.672-7.772 6.376-11 1.705-3.227 4.633-8.343 6.506-11.368 1.874-3.025 3.425-6.062 3.446-6.75.021-.687.489-1.25 1.039-1.25.55 0 1-.51 1-1.133 0-.94 4.252-9.826 7.983-16.685 1.124-2.065 7.4-15.49 7.565-16.182.6-2.51 10.652-24.032 14.946-32 .741-1.375 1.46-4.75 1.598-7.5.138-2.75.622-6.038 1.076-7.307.529-1.477.467-2.086-.171-1.691-.548.339-.997.125-.997-.474 0-.6.688-1.355 1.53-1.678.965-.37 1.309-1.281.932-2.468-.411-1.296-.109-1.882.971-1.882.862 0 1.567-.413 1.567-.918 0-.505.301-1.704.67-2.664.454-1.183.296-1.515-.489-1.03-.75.464-.954.183-.577-.798.319-.833 1.446-1.788 2.503-2.124 1.057-.335 1.722-.933 1.478-1.328-.423-.685 1.121-4.719 3.88-10.138.7-1.375 2.259-5.393 3.464-8.929 1.206-3.536 2.667-7.316 3.248-8.401.888-1.661.787-1.87-.642-1.322-1.435.551-1.622.149-1.209-2.598.694-4.607 2.715-10.074 4.16-11.257 1.945-1.591 4.751-12.438 4.848-18.743.049-3.162.444-5.75.878-5.75.433 0 .788-1.125.788-2.5s.414-2.5.92-2.5c.505 0 1.697-2.362 2.647-5.25.95-2.888 2.224-5.571 2.83-5.962.607-.392 1.659-2.642 2.338-5 2.503-8.688.5 10.393-3.136 29.862a56.38 56.38 0 0 1-1 4.25l-1.166 4.1c-.312 1.1-.139 2 .386 2s1.198-1.237 1.496-2.75c.298-1.513 1.266-5.9 2.152-9.75.885-3.85 2.023-9.7 2.529-13 .505-3.3 1.831-10.275 2.946-15.5 1.895-8.882 4.609-34.783 3.735-35.656-.216-.216-.944 2.43-1.617 5.881s-1.587 7.175-2.03 8.275c-1.172 2.909-.503-23.641.818-32.5.615-4.125 1.775-14.802 2.577-23.726.817-9.087 2.113-17.667 2.945-19.5 1.704-3.752 2.502-11.601 3.127-30.774.295-9.069.119-12.949-.538-11.823-.537.923-1.085 4.185-1.218 7.25-.133 3.064-.504 5.572-.824 5.573-.321 0-.613 1.463-.65 3.25-.083 4.125-3.503 29.943-4.603 34.75a369.88 369.88 0 0 0-1.113 5.241c-1.524 7.402-2.339 2.477-2.278-13.767.056-14.932.639-18.69 2.014-12.974.265 1.1.566-.475.671-3.5.104-3.025.359-8.088.566-11.25.208-3.163 0-5.75-.462-5.75s-.819.563-.793 1.25c.178 4.795-.37 12.982-.838 12.515-.458-.458-1.38-23.031-1.475-36.114-.012-1.567.669-5.541 1.511-8.831.843-3.29 1.54-7.183 1.548-8.651.016-2.648 1.939-6.963 1.97-4.419.008.688.526 1.25 1.151 1.25.791 0 .914-1.442.404-4.75-1.41-9.15-1.367-10.804.459-17.75 1.998-7.603 3.788-16.901 4.445-23.086.228-2.153 1.616-9.314 3.082-15.914 3.071-13.815 3.278-14.97 3.391-18.917.046-1.604.4-2.599.788-2.211.388.388.661 7.55.607 15.917-.169 26.17 1.541 10.884 2.7-24.136.811-24.49.788-32.689-.093-33.75-.842-1.016-.853-1.403-.039-1.403 1.441 0 .67-71.474-.956-88.681-.615-6.5-1.222-21.944-1.35-34.319-.178-17.238-.586-23.432-1.748-26.483l-1.515-3.983-.679 11.983c-.373 6.591-.226 23.908.326 38.483 1.779 46.947 2.077 56.161 2.439 75.5.307 16.386.175 18.575-.959 15.908-1.439-3.384-3.473-24.576-4.023-41.908-.192-6.05-.845-16.175-1.452-22.5-.607-6.325-1.45-23.765-1.873-38.756-.423-14.991-1.006-27.493-1.296-27.784-.291-.29-.877 2.3-1.304 5.756-.72 5.837-.829 6.045-1.529 2.924-.414-1.847-1.065-8.597-1.445-15-.381-6.402-1.12-15.015-1.643-19.14-.523-4.125-1.358-17.4-1.855-29.5-.498-12.1-1.161-24.7-1.474-28-1.02-10.749-7.644-45.894-9.99-53-.726-2.2-1.591-6.025-1.921-8.5-.331-2.475-1.062-7.2-1.626-10.5-.563-3.3-1.471-9.779-2.017-14.399-.545-4.619-1.389-8.894-1.874-9.5-.485-.605-.706-2.632-.491-4.504.462-4.016-1.504-12.625-6.19-27.097-1.87-5.775-4.574-14.55-6.011-19.5-1.436-4.95-5.679-16.875-9.429-26.5-6.517-16.728-8.434-21.062-21.453-48.5-6.375-13.436-8.033-17.118-8.978-19.944-.634-1.896-.599-1.898 1.393-.095 1.607 1.455 2.043 1.539 2.043.394 0-.8-.468-1.923-1.04-2.495-2.196-2.196-10.417-18.236-9.709-18.944.166-.166 2.066 2.134 4.223 5.11 2.156 2.977 4.083 5.251 4.28 5.053.391-.39-7.01-12.785-9.648-16.159-.894-1.144-2.247-1.873-3.005-1.62-.759.253-1.097.003-.752-.555.787-1.274-1.229-7.245-2.447-7.245-.496 0-.902-.73-.902-1.622 0-1.329-.271-1.398-1.5-.378-1.808 1.5-2.02-.076-.25-1.859 1.002-1.01.911-1.131-.458-.609-1.268.482-1.876-.018-2.359-1.941-.357-1.425-.955-2.591-1.327-2.591-.373 0-.727-.788-.787-1.75-.255-4.063-1.58-6.574-9.943-18.841-4.839-7.1-9.941-15.012-11.338-17.583-4.815-8.866-13.172-22.812-18.347-30.619-7.095-10.702-7.36-11.11-10.46-16.116-1.502-2.426-3.968-5.86-5.481-7.632-1.513-1.773-2.75-3.639-2.75-4.147 0-.985-3.283-5.697-7.761-11.14l-4.739-5.759c-1.1-1.337-3.35-4.26-5-6.496-1.65-2.236-5.25-6.64-8-9.787-10.188-11.658-17.045-19.386-18.621-20.985-.891-.905-7.123-8.17-13.848-16.145-6.726-7.975-12.767-14.95-13.425-15.5-.659-.55-1.939-2.075-2.844-3.39-.905-1.314-6.401-7.389-12.211-13.5a6017.09 6017.09 0 0 1-11.808-12.437c-6.091-6.501-20.988-19.718-23.96-21.256-2.044-1.058-4.197-2.822-4.785-3.92-.587-1.098-1.671-1.997-2.407-1.997-.737 0-3.059-1.575-5.161-3.5-2.101-1.925-4.347-3.5-4.991-3.5-.643 0-2.268-.865-3.612-1.921-3.23-2.541-12.068-7.599-18.485-10.578-2.837-1.317-5.431-2.836-5.764-3.375-.762-1.234-20.4-11.126-22.086-11.126-.686 0-1.783-.646-2.439-1.436-.655-.789-2.473-1.717-4.039-2.061-1.566-.344-3.095-1.273-3.399-2.064-.304-.791-1.093-1.439-1.755-1.439-.661 0-1.913-.617-2.781-1.371-1.552-1.347-21.938-8.629-24.158-8.629-.624 0-.896.624-.603 1.387.375.975-.043 1.236-1.408.879-2.551-.667-2.639-.856-3.832-8.263-.563-3.493-1.467-6.626-2.01-6.961-.544-.336-1.064-2.62-1.157-5.076-.094-2.456-.969-7.391-1.946-10.966-2.776-10.163-4.705-20.286-6.859-36-1.093-7.975-2.848-17.071-3.901-20.214C717.741 55.425 713.647 50 710.556 50c-1.288 0-2.601-.675-2.918-1.5-.81-2.112-3.638-1.872-3.638.309 0 .995-.611 2.644-1.358 3.665-1.253 1.714-1.41 1.577-2.038-1.773-.829-4.42-2.049-5.313-4.779-3.501-1.553 1.031-3.749 1.196-8.701.652-3.643-.4-11.349-1.199-17.124-1.774-5.775-.576-11.4-1.25-12.5-1.499-1.1-.249-3.125-.117-4.5.292m83.18 116.32c.229 1.568 1.315 2.431 3.82 3.035 4.147 1 6.638 2.16 14 6.515 3.025 1.79 6.288 3.255 7.25 3.256.962.002 1.75.669 1.75 1.484 0 .814 1.062 1.747 2.359 2.073 3.055.767 12.45 5.363 11.141 5.45-1.613.108 8.822 4.875 10.809 4.938.995.032 1.561.46 1.257.951-.304.491 1.434 1.827 3.862 2.968 2.428 1.142 4.702 2.54 5.052 3.107 1.058 1.711 2.506 1.159 1.798-.685-.584-1.523-.479-1.551.927-.25.872.807 1.395 1.782 1.162 2.167-.676 1.118 3.333 2.853 5.061 2.189.864-.331 1.572-.908 1.572-1.28 0-.758-4.458-3.544-10.5-6.563-4.182-2.09-7.5-4.565-7.5-5.595 0-.333 1.371-.403 3.046-.158 1.676.246 2.822.672 2.548.946-.927.928 2.381 3.394 3.568 2.661.814-.503.964-.17.485 1.077-.584 1.521-.455 1.608.819.551 1.661-1.378 1.169-3.028-.903-3.028-.725 0-1.842-.631-2.482-1.402-.639-.771-2.378-1.707-3.862-2.079-1.484-.373-3.007-1.175-3.383-1.784-.49-.792-1.111-.752-2.19.144-1.242 1.031-1.699.89-2.606-.804-.605-1.131-1.424-2.011-1.82-1.957-.396.054-1.845-.257-3.22-.692-1.375-.434-2.593-.596-2.707-.358-.114.238-.935-.468-1.824-1.568-.89-1.1-1.282-1.325-.871-.5.601 1.209.373 1.182-1.176-.138-2.089-1.78-7.041-4.085-17.922-8.341-3.85-1.505-7.691-3.347-8.537-4.091-1.718-1.514-8.301-4.43-10-4.43-.606 0-.958.986-.783 2.191m72.445 37.607c-.694 1.122.502 2.706 3.059 4.052 4.024 2.118 4.675.494 1.127-2.811-2.351-2.191-3.406-2.504-4.186-1.241m8.704 7.613c-1.804 2.058 2.665 4.198 5.546 2.656 2.43-1.301 2.867-2.289.633-1.432-.851.327-1.755-.116-2.107-1.031-.741-1.932-2.475-2.014-4.072-.193m7.671 4.037c0 .993 5.058 5.828 5.565 5.32.3-.3-.543-1.721-1.874-3.157-2.232-2.408-3.691-3.263-3.691-2.163m7 6.017c0 .78 4.071 4.794 6.629 6.535 1.212.825 4.986 3.668 8.387 6.317 3.401 2.65 6.449 4.552 6.773 4.227.325-.324-.411-1.291-1.634-2.148-1.223-.857-3.221-2.558-4.44-3.78-4.962-4.979-15.715-12.609-15.715-11.151m-474.5 4.017a159.116 159.116 0 0 1-8.169 4.507c-4.267 2.161-7.426 5.011-5.554 5.011.562 0 3.362-1.575 6.223-3.5 2.861-1.925 5.718-3.516 6.35-3.536.633-.02 2.5-1.143 4.15-2.495 3.802-3.117 2.215-3.11-3 .013m500.696 16.606c.227.682 1.411 1.903 2.629 2.712 1.849 1.227 2.127 1.238 1.676.064-.713-1.859-4.899-4.558-4.305-2.776m-238.253 21.019c-.756 1.413-.797 2.439-.123 3.113 1.339 1.339 3.459-.05 2.78-1.821-.316-.822.092-1.399.99-1.399.841 0 1.25-.45.91-1-1.039-1.682-3.367-1.116-4.557 1.107m-236.214 1.623c-2.624 1.409-4.536 2.797-4.248 3.084.61.61 4.987-1.493 8.404-4.038 3.354-2.498 1.466-2.065-4.156.954m-175.442 59.9c-1.187 2.556-1.17 2.574.75.837 1.992-1.803 2.578-3.473 1.213-3.459-.412.004-1.296 1.184-1.963 2.622m-17.7 28.213c-.954 1.839-1.512 3.565-1.241 3.837.808.808 3.879-4.506 3.409-5.898-.245-.725-1.187.171-2.168 2.061M753 347.227c0 1.823 1.773 3.334 2.757 2.349.343-.343-.137-1.384-1.067-2.314-1.558-1.559-1.69-1.562-1.69-.035m-569.027 44.874c-.608 2.255-.872 4.334-.587 4.618.284.284.805-.774 1.158-2.351.353-1.577.855-3.656 1.116-4.618.261-.962.237-1.75-.054-1.75s-1.026 1.845-1.633 4.101M890 428.786c0 .497.965 1.761 2.146 2.809 2.13 1.892 2.137 1.89.994-.289-1.275-2.431-3.14-3.928-3.14-2.52m-727.875 12.839c-.66 1.448-.971 2.863-.69 3.143.28.28.984-.74 1.565-2.268 1.372-3.608.684-4.296-.875-.875M161.736 452c-1.324 3.999-2.636 9.433-2.348 9.721.644.645 3.766-8.756 3.311-9.972-.336-.9-.605-.829-.963.251M1039 456.542c0 .298.935 1.535 2.079 2.75l2.078 2.208-1.239-2.75c-1.077-2.391-2.918-3.784-2.918-2.208m-883 9.376c0 .505-.262 1.743-.582 2.75-.532 1.676-.447 1.667 1-.109 1.812-2.223 2.03-3.559.582-3.559-.55 0-1 .413-1 .918m896 8.622c0 .297.856 2.209 1.902 4.25 2.197 4.284 6.098 9.032 6.098 7.422 0-.602-.459-1.377-1.019-1.724-.56-.346-2.143-2.848-3.517-5.559-2.23-4.402-3.464-5.965-3.464-4.389m-10.787 6.307c-1.499.951 1.016 7.653 5.16 13.752 2.036 2.995 2.522 3.287 2.919 1.748.389-1.509.497-1.435.592.403.064 1.238.566 2.25 1.116 2.25.55 0 1 .75 1 1.667 0 .916.298 1.369.662 1.005 2.034-2.035-6.947-19.884-9.51-18.9-1.086.416-1.322.113-.857-1.098.731-1.906.68-1.945-1.082-.827M440.5 484.726c-1.65.856-3.36 2.168-3.8 2.916-.44.747-1.456 1.358-2.259 1.358-.804 0-2.231.9-3.173 2-.942 1.1-2.287 2-2.99 2-.703 0-1.278.9-1.278 2 0 1.36-.667 2-2.083 2-1.215 0-1.911.518-1.67 1.241.478 1.434-1.552 3.759-3.283 3.759-.654 0-.913.69-.582 1.552.327.854.18 1.295-.328.982-1.116-.69-7.757 5.956-8.598 8.605-.33 1.04-1.021 1.63-1.535 1.312-.514-.318-1.236.238-1.604 1.236-.939 2.548-5.269 6.461-6.386 5.77-1.61-.995-1.011 1.319.819 3.166 1.667 1.681 1.667 1.734 0 1.102-.962-.364-1.75-.226-1.75.306 0 .533-.531.969-1.179.969-1.316 0-7.821 6.758-7.821 8.126 0 .481-.45.874-1 .874s-1 .745-1 1.656c0 .91-1.15 3.163-2.555 5.005-1.406 1.843-2.336 3.707-2.066 4.143.269.435.069 1.445-.445 2.244-.81 1.259-1.057 1.261-1.857.018-.681-1.059-1.009-.534-1.25 2-.265 2.781-.708 3.378-2.327 3.142-1.662-.242-1.747-.112-.5.771 1.293.915 1.195 1.318-.707 2.917-1.215 1.021-1.927 2.137-1.584 2.48.343.343-.181.624-1.165.624-1.506 0-1.584.246-.497 1.556.929 1.121.957 1.471.097 1.25-1.389-.356-3.017 2.193-7.149 11.194-1.641 3.575-4.091 8.3-5.444 10.5-1.354 2.2-3.935 6.587-5.737 9.75-1.802 3.163-3.769 5.75-4.372 5.75-1.499 0-10.052 18.182-11.841 25.172-.798 3.12-2.835 9.836-4.526 14.923-1.691 5.088-3.075 10.2-3.075 11.36 0 1.16-.689 4.57-1.53 7.577-4.125 14.736-5.841 27.941-4.015 30.895.461.746.022 1.397-1.149 1.703-1.379.361-2.353 2.317-3.576 7.183-2.27 9.033-3.378 22.187-1.868 22.187 1.541 0 1.485 9.505-.072 12.316-.784 1.414-1.255 7.65-1.336 17.684-.069 8.525-.63 21.125-1.246 28-1.468 16.376-1.934 39.874-.851 42.875.558 1.546.506 2.158-.149 1.753-1.333-.823-2.027 7.694-1.05 12.872.415 2.2.774 6.362.798 9.25.024 2.888.443 5.25.93 5.25 1.793 0 2.126 9.016 1.108 30-.573 11.825-1.467 35.038-1.986 51.585-.519 16.546-1.218 30.799-1.553 31.672-.335.874-1.25 1.834-2.032 2.134-.973.373-1.438 2.218-1.471 5.828-.026 2.904-.615 10.118-1.308 16.031-.694 5.913-.972 10.75-.62 10.75.844 0 .589 3.2-.38 4.768-.419.677-.529 1.61-.243 2.071.285.462.794 10.249 1.131 21.75.337 11.501.771 22.486.963 24.411.193 1.925.421 6.2.507 9.5.086 3.3.383 5.438.66 4.75 1.557-3.858 2.096 1.658 2.836 29 1.038 38.415 1.144 40.725 1.887 41.468 1.143 1.143.625 3.282-.795 3.282-1.045 0-1.587 2.138-2.09 8.25-.822 9.984-.421 14.958 1.25 15.506.894.294 1.25-1.094 1.25-4.873 0-7.308 1.726-5.062 2.394 3.117.293 3.575.291 5.713-.004 4.75-.295-.963-.841-1.743-1.213-1.735-.986.023-3.389 1.642-3.111 2.097.13.213-.09 2.563-.489 5.221-.796 5.308.111 12.978 1.438 12.158.461-.285 1.148 1.963 1.527 4.995.47 3.767 1.137 5.514 2.105 5.514.78 0 1.824 1.013 2.322 2.25.553 1.375.954 1.667 1.033.75.071-.825 1.183 3.225 2.471 9 3.146 14.105 5.271 22.588 7.015 28 2.381 7.394 5.72 18.429 5.9 19.5.093.55.519 1.561.947 2.246.428.686.936 2.036 1.128 3 .544 2.734 11.231 24.239 14.538 29.254 1.632 2.475 3.24 5.175 3.573 6 1.748 4.32 3.293 6.746 6.951 10.914 2.213 2.522 4.893 6.255 5.954 8.294 1.062 2.04 4.314 6.898 7.226 10.796 3.599 4.818 5.295 8.035 5.295 10.042 0 1.959.505 2.954 1.5 2.954.825 0 1.5-.45 1.5-1s-.45-1-1-1-.976-.787-.948-1.75c.045-1.479.293-1.406 1.603.47 1.881 2.695 14.675 13.28 16.051 13.28.541 0 1.799.9 2.794 2 .995 1.1 2.168 2 2.605 2 .681 0 15.753 9.488 38.916 24.5 28.346 18.371 57.388 30.12 91.479 37.01 19.293 3.899 40.66 7.49 44.57 7.49 2.35 0 4.255-.702 5.43-2 2.142-2.366 6.5-2.702 6.5-.5 0 2.173 2.606 1.84 4.905-.628 1.389-1.492 2.524-1.893 3.789-1.342.993.433 2.101.73 2.462.66.361-.07 13.186-.377 28.5-.683 35.506-.708 35.605-.719 50.297-5.492 6.799-2.208 13.311-4.015 14.472-4.015 1.161 0 3.765-1.124 5.786-2.498 2.022-1.373 4.489-2.633 5.482-2.799.994-.165 2.932-.93 4.307-1.7 1.375-.77 5.425-2.828 9-4.573 18.285-8.928 38.825-26.486 48.877-41.781 2.838-4.318 7.964-11.218 11.391-15.334 3.428-4.116 8.057-9.705 10.287-12.419 2.231-2.714 5.156-5.698 6.5-6.63 1.345-.932 3.345-2.833 4.445-4.226 3.154-3.992 10.884-11.004 12.151-11.023.633-.009 3.346-2.605 6.029-5.767 3.953-4.66 5.485-7.647 8.079-15.75 3.399-10.618 7.364-24.069 9.285-31.5.639-2.475 1.791-6.315 2.559-8.533.769-2.219 1.397-5.005 1.397-6.191 0-1.187.402-2.407.894-2.711.492-.304 1.106-2.243 1.364-4.309.259-2.066 1.428-7.131 2.6-11.256 1.171-4.125 3.055-11.55 4.187-16.5 2.357-10.31 4.807-16.5 6.531-16.5 2.226 0 2.372-4.151.247-7.026-2.55-3.449-3.967-15.165-3.626-29.974.134-5.775-.126-11.092-.577-11.817-.451-.724-.554-1.582-.229-1.908.325-.325.09-1.195-.522-1.933-.613-.738-.721-1.342-.241-1.343.479 0 .937-1.122 1.016-2.493.079-1.371-.259-2.244-.75-1.94-.492.303-.894-.15-.894-1.007 0-.857.563-1.566 1.25-1.574.898-.011.86-.263-.138-.895-2.124-1.345-1.722-10.171.999-21.937.592-2.559 1.28-6.678 1.529-9.153.249-2.475 1.53-11.25 2.846-19.5s2.51-16.575 2.653-18.5c.287-3.869-.698-14.509-2.13-23-2.779-16.478-4.497-55.836-4.474-102.5.007-15.244.277-18.498 1.763-21.25.964-1.788 2.408-3.25 3.209-3.25 2.312 0 2.799-4.317 1.606-14.26-.61-5.082-1.302-14.19-1.539-20.24-.236-6.05-.681-12.575-.988-14.5-.656-4.114-2.375-19.152-3.086-27-.274-3.025-1.381-12.475-2.46-21-1.078-8.525-1.979-18.687-2-22.583-.022-3.896-.463-9.521-.979-12.5-.517-2.979-1.447-9.917-2.067-15.417-.62-5.5-1.565-11.689-2.1-13.753-.535-2.065-1.05-6.935-1.145-10.822-.094-3.888-.527-7.288-.96-7.556-.434-.268-.784-1.473-.779-2.678.018-3.705-7.143-33.051-8.651-35.452-.78-1.243-1.66-5.518-1.954-9.5-.598-8.089-2.561-15.771-5.94-23.239-1.244-2.75-3-6.784-3.902-8.965-.902-2.181-1.961-4.206-2.352-4.5-.391-.294-1.61-2.335-2.709-4.535-1.098-2.2-2.448-4.515-3-5.145-.551-.63-2.122-2.543-3.491-4.25-1.369-1.708-2.771-3.105-3.115-3.105-.344 0 .434 4.163 1.73 9.25 1.295 5.087 2.359 10.236 2.365 11.441.005 1.205.459 2.469 1.009 2.809.55.34 1 1.148 1 1.795s-1.013-.272-2.25-2.042c-1.237-1.77-3.022-3.226-3.965-3.236-1.822-.018-4.146-3.323-3.083-4.386.347-.347.138-.631-.465-.631s-2.513-4.612-4.246-10.25c-8.058-26.215-9.095-28.274-30.619-60.75-12.549-18.935-20.992-29-24.324-29-1.033 0-3.729-2.103-5.991-4.672-2.492-2.832-4.471-4.309-5.021-3.75-.5.507-1.393 15.547-1.984 33.422-.592 17.875-1.316 34.3-1.609 36.5-.294 2.2-1.18 8.864-1.968 14.808-1.681 12.677-3.964 18.479-8.606 21.869-7.445 5.437-23.153 9.875-39.953 11.289-6.624.557-7.35.785-16.432 5.161-13.903 6.698-39.87 7.136-80.458 1.358-4.985-.71-6.945-.613-8.525.422-2.403 1.575-9.292.772-14.001-1.632-5.144-2.625-12.701-4.886-20.5-6.134-8.148-1.303-17.893-5.35-17.959-7.458-.027-.856-.739-1.096-2.031-.686-1.14.362-2.942-.036-4.222-.933-1.228-.86-3.092-1.564-4.142-1.564-2.008 0-8.625-3.648-9.881-5.447-.404-.579-.741-.705-.75-.28-.018.943-4.943-2.104-7.015-4.341-.825-.89-2.013-1.443-2.641-1.229-.627.215-2.042-.755-3.143-2.156-1.102-1.401-2.414-2.547-2.915-2.547-.5 0-3.633-2.587-6.961-5.75-3.327-3.163-6.678-5.878-7.445-6.035-1.345-.275-3.072-2.088-9.307-9.772-4.108-5.062-9.172-8.693-12.124-8.693-1.868 0-2.388-.42-2.01-1.625.28-.894-.172-4.1-1.005-7.125-1.606-5.834-3.154-38.089-3.547-73.89-.116-10.665-.48-20.64-.807-22.166-.587-2.738-.635-2.755-3.595-1.218m614.518 3.139c-.024 1.823 5.329 11.594 5.716 10.433.167-.501-1.047-3.36-2.697-6.354-1.651-2.994-3.009-4.83-3.019-4.079m-892.38 1.8c-.352 1.009-.892 2.51-1.201 3.335-.394 1.051-.14.981.849-.234.776-.954 1.705-1.442 2.063-1.084.941.941.772-.943-.226-2.517-.662-1.045-.984-.936-1.485.5m600.093 2.961c-.349.565-.391 1.959-.093 3.099.481 1.839 1.101 2.026 4.362 1.32.275-.06-.214-.657-1.088-1.327-.873-.67-1.803-1.871-2.067-2.669-.291-.882-.728-1.048-1.114-.423m7.495 5.553c.216.648 1.264 1.66 2.329 2.25 1.065.589 3.202 1.908 4.748 2.93 1.547 1.023 3.086 1.585 3.421 1.25.335-.335.058-.609-.616-.609s-.946-.453-.603-1.008c.342-.554.022-1.608-.712-2.342-3.171-3.171-9.399-4.968-8.567-2.471m117.806.321c.002 1.191 5.926 11.355 5.951 10.21.018-.835-3.202-7.178-4.929-9.71-.563-.825-1.023-1.05-1.022-.5m-128.017 4.842c-.008.464.885 1.987 1.985 3.385l2 2.543v-2.694c0-1.722-.401-2.446-1.112-2.007-.611.378-1.504.067-1.984-.691-.481-.758-.88-.999-.889-.536m14.579.507c-.392.633-.226 1.151.368 1.151.595 0 1.633 1.238 2.308 2.75.675 1.512 4.268 5.9 7.985 9.75l6.758 7-2.507-4.803c-2.879-5.517-3.238-7.549-1.006-5.697 1.245 1.033 1.5.917 1.5-.681 0-2.229-6.609-9.044-7.706-7.946-.405.405-.074 1.154.735 1.666 2.108 1.333.549 1.175-2.732-.277-1.538-.681-3.291-1.874-3.894-2.651-.796-1.025-1.293-1.097-1.809-.262m30.863 1.901c2.231 4.066 6.363 8.764 7.079 8.048 1.057-1.057-5.927-10.798-7.742-10.798-.465 0-.166 1.238.663 2.75m247.099-1.84c-.79 1.277.43 4.265 2.604 6.379 2.291 2.227 2.327 1.526.134-2.589-.938-1.76-1.613-3.537-1.5-3.95.288-1.047-.56-.938-1.238.16M160 507.559c0 .936-.468 1.27-1.17.836-.772-.477-.965-.19-.569.844.331.862-.028 2.398-.798 3.414-1.615 2.132-1.915 5.347-.498 5.347.53 0 1.509-1.013 2.175-2.25 1.619-3.009 2.812-9.75 1.726-9.75-.476 0-.866.702-.866 1.559m616 3.631c0 .79 1.417 2.758 3.15 4.373l3.15 2.937-1.9-3.327c-2.384-4.175-4.4-6-4.4-3.983m1 10.231c0 .367 1.125 1.88 2.5 3.362 2.245 2.421 3.563 2.206 1.735-.283-1.161-1.579-4.235-3.814-4.235-3.079m20.015 3.849c-.034 1.735 5.348 9.14 5.756 7.918.239-.717-.287-2.101-1.168-3.075-1.861-2.056-2.128-3.556-.448-2.518.721.446.882.274.43-.457-.398-.644-1.192-.881-1.766-.526-.573.354-1.435.024-1.915-.734-.481-.758-.88-1.032-.889-.608m24.017 1.48c.053 1.272 5.036 6.515 5.628 5.923.719-.719-3.499-6.673-4.728-6.673-.513 0-.918.337-.9.75M783 528.254c0 1.922 3.921 6.768 3.967 4.904.018-.739-.867-2.487-1.967-3.885-1.346-1.712-2-2.045-2-1.019m29-.934c0 .176 1.35 1.832 3 3.68 3.44 3.853 3.993 3.203.932-1.096-1.712-2.403-3.932-3.863-3.932-2.584m-18 2.217c0 1.639 3.571 6.463 4.784 6.463.965 0 .747-.85-.762-2.97-2.17-3.047-4.022-4.655-4.022-3.493m33.579 5.335c-.71 1.149 1.407 5.128 2.729 5.128.908 0-.072-4.002-1.308-5.337-.426-.461-1.065-.366-1.421.209m-38.946 1.628c.396 1.1 1.765 3.392 3.043 5.094 1.278 1.702 2.324 3.545 2.324 4.095 0 .551.919 1.833 2.043 2.85 1.791 1.62 1.963 1.64 1.393.155-.357-.932-.961-1.694-1.342-1.694-.381 0-1.292-1.659-2.025-3.686-.733-2.027-2.418-4.84-3.745-6.25-1.997-2.124-2.287-2.22-1.691-.564m31.003 1.462c2.579 4.364 8.364 11.482 8.364 10.289 0-1.178-8.705-13.251-9.554-13.251-.308 0 .228 1.333 1.19 2.962m-240.886.61c-.413.419-.75 1.901-.75 3.295 0 1.82.305 2.228 1.085 1.448.596-.596.934-2.079.75-3.295-.184-1.215-.672-1.867-1.085-1.448m359.285.987c.064 1.677 2.894 6.015 2.898 4.441.002-.825-.657-2.374-1.465-3.441-.807-1.068-1.452-1.518-1.433-1m145.549 5.964c-.375 1.492-.434 2.96-.133 3.262.302.301.549-.164.549-1.035 0-.871.436-1.733.968-1.917.551-.19.608-.912.132-1.678-.609-.981-1.02-.61-1.516 1.368m-173.549-.973c.02.522.714 2.075 1.542 3.45l1.506 2.5-.654-2.5c-.682-2.608-2.458-5.167-2.394-3.45m-103.013 3.578c-.022 1.613 2.651 4.532 3.434 3.75.224-.225-.452-1.526-1.502-2.893-1.423-1.852-1.915-2.071-1.932-.857m147.532 3.122c1.096 3.582 2.695 5.75 2.028 2.75-.305-1.375-.561-3.062-.568-3.75-.008-.687-.494-1.25-1.081-1.25-.645 0-.795.892-.379 2.25m-39.915 4.5c1.699 4.147 4.361 7.482 4.361 5.464 0-.668-.45-1.214-1-1.214s-1-.585-1-1.301c0-1.786-2.34-6.682-3.199-6.691-.384-.004-.008 1.68.838 3.742m172.396 5.309c.02.792.679 2.566 1.465 3.941 1.263 2.21 1.43 2.268 1.433.5.002-1.1-.657-2.874-1.465-3.941-1.033-1.366-1.458-1.515-1.433-.5M575.74 564.75c-.263 2.063-.087 4.178.391 4.7.509.557.869-.34.869-2.168 0-1.715.273-3.83.607-4.7.334-.87.158-1.582-.391-1.582-.548 0-1.213 1.688-1.476 3.75m7.42 4.875c-.088 1.169-.397 3.644-.687 5.5-.482 3.091-.436 3.167.548.91.59-1.356.899-3.831.686-5.5-.229-1.794-.452-2.166-.547-.91m-8.827 5.419c0 1.626.375 2.956.834 2.956.458 0 .833-1.098.833-2.441 0-1.343-.375-2.673-.833-2.956-.459-.283-.834.815-.834 2.441M682 613.706c-.825.326-1.803 1.06-2.174 1.63-.449.691-1.184.612-2.206-.236-2.055-1.706-3.324-.74-4.159 3.161-.38 1.782-1.115 3.765-1.632 4.409-1.034 1.285.802 1.317 2.831.049.638-.399 1.953-.421 2.923-.049 1.336.513 1.616.291 1.154-.914-.362-.942.009-1.828.908-2.173 2.693-1.034 3.355-.634 3.355 2.024 0 1.966.389 2.458 1.582 2 .87-.334 1.995-.607 2.5-.607.505 0 .918-.848.918-1.883 0-1.06.899-2.119 2.055-2.421 1.547-.405 2.298.101 3.037 2.046.725 1.908 1.276 2.29 2.103 1.463.827-.827.813-1.491-.055-2.536-.646-.778-.894-2.148-.55-3.042.434-1.131.057-1.652-1.233-1.71-2.268-.102-5.192-.578-7.857-1.28-1.1-.289-2.675-.258-3.5.069m-180.613 7.206c.077 5.572.207 5.998.995 3.25.565-1.968.531-4.389-.088-6.412-.885-2.887-.986-2.534-.907 3.162m567.984-1.662c.926 5.066 1.898 13.069 1.822 15-.038.962.321 1.75.798 1.75.91 0 .753-4.64-.482-14.25-.407-3.163-1.188-5.75-1.736-5.75-.578 0-.747 1.361-.402 3.25M497.115 619c.046 1.375.445 3.625.885 5 .734 2.291.808 2.207.885-1 .046-1.925-.352-4.175-.885-5-.762-1.179-.951-.966-.885 1m23.501 7.176c.875 5.715 1.384 6.1 1.384 1.05 0-2.26-.461-4.393-1.024-4.741-.674-.417-.797.842-.36 3.691m564.816 1.324c.234 2.2.458 5.88.497 8.179.039 2.298.675 4.782 1.413 5.52.738.738 1.879 2.345 2.535 3.572.656 1.226 1.628 2.229 2.158 2.229 1.286 0 1.242-4.711-.051-5.51-.559-.346-.745-1.068-.412-1.607 1.064-1.722-1.591-10.378-4.12-13.431l-2.446-2.952.426 4m6.654 22.5c.03 1.375.441 3.4.914 4.5.738 1.717.867 1.576.914-1 .031-1.65-.381-3.675-.914-4.5-.764-1.182-.958-.97-.914 1m-3.054 4.309c-.018.995-.493 1.524-1.057 1.176-.563-.348-.026 1.087 1.194 3.191 1.231 2.123 2.308 5.825 2.42 8.324.279 6.198.28 6.199 1.47 5.464.591-.366.789-1.881.447-3.435-.429-1.955-.075-3.322 1.192-4.599 1.665-1.679 1.669-1.768.058-1.158-1.423.539-1.859-.065-2.374-3.285-.347-2.17-1.236-4.742-1.975-5.716-1.282-1.69-1.345-1.689-1.375.038M283.5 663c-1.394 2.75-2.309 5-2.034 5 .275 0 1.64-2.25 3.034-5s2.309-5 2.034-5c-.275 0-1.64 2.25-3.034 5m808.929 12.988c0 1.107.611 2.012 1.359 2.012.747 0 1.213-.75 1.035-1.667-.471-2.431-2.394-2.707-2.394-.345m-6.762 5.679c-1.095 1.095-.739 6.475.816 12.317.803 3.017 2.015 9.624 2.694 14.682.679 5.059 1.592 8.977 2.029 8.707.437-.27.794.634.794 2.009s.411 2.754.913 3.064c.502.311 1.229 2.475 1.616 4.809.387 2.335 1.172 5.135 1.744 6.223 1.037 1.97 1.044 1.97 1.736 0 .486-1.38 1.064.137 1.914 5.022.67 3.85 2.267 11.05 3.549 16 1.282 4.95 2.655 11.608 3.051 14.796.395 3.187.939 5.575 1.209 5.306.593-.594-2.318-26.891-3.836-34.658-.864-4.416-1.693-5.955-4.037-7.5-2.55-1.68-2.87-2.385-2.359-5.194.486-2.676.274-3.253-1.205-3.265-1.521-.013-1.566-.161-.295-.969 1.05-.667 1.5-2.685 1.5-6.734 0-4.092.365-5.709 1.25-5.532.688.137 1.25-.425 1.25-1.25s-.675-1.5-1.5-1.5-1.5-.477-1.5-1.059-.498-.751-1.107-.375c-.745.461-.887-.011-.433-1.441.4-1.261.241-2.125-.393-2.125-.587 0-1.067-1.602-1.067-3.559 0-2.118-.405-3.309-1-2.941-.567.351-1-.49-1-1.941 0-1.968.519-2.574 2.25-2.622 2.216-.063 2.218-.077.155-.911-1.349-.545-2.552-2.481-3.38-5.436-1.214-4.337-3.368-5.914-5.358-3.923m9.063 2.96c-.305.494.017 1.966.715 3.271.699 1.305 1.52 1.968 1.825 1.475.305-.494-.017-1.966-.715-3.271-.699-1.305-1.52-1.968-1.825-1.475m-9.212 19.631c-.953 2.269.103 7.854 1.949 10.318 1.316 1.756 1.393 1.575.882-2.076-.307-2.2-.904-5.35-1.326-7-.629-2.457-.901-2.682-1.505-1.242m-155.429.242c-.136 1.526 2.705 14.627 3.301 15.224.289.288.242-1.219-.102-3.35-.756-4.675-3.073-13.276-3.199-11.874m-11.019 9.583c.039 1.33.478 3.317.977 4.417.631 1.394.721.788.297-2-.707-4.643-1.375-5.911-1.274-2.417m14.531 10.583c.92 3.832 1.399 4.194 1.399 1.06 0-1.435-.468-2.897-1.04-3.251-.682-.421-.806.333-.359 2.191m-11.979 4.084c.941 3.926 1.378 4.058 1.378.417 0-1.742-.459-3.167-1.019-3.167-.605 0-.751 1.117-.359 2.75m13.615 4.25c0 1.375.343 3.85.763 5.5.681 2.676.763 2.73.763.5 0-1.375-.343-3.85-.763-5.5-.681-2.676-.763-2.73-.763-.5m188.805 7.05c.024 1.897.699 5.925 1.501 8.95l1.458 5.5-.505-7.955c-.506-7.972-2.538-13.35-2.454-6.495m-27.972 4.641c.039 2.095.445 4.709.903 5.809.582 1.398.81.405.758-3.297-.041-2.913-.447-5.528-.903-5.809-.455-.282-.796 1.202-.758 3.297m38.358 18.815c.685 20.012 1.447 29.114 2.672 31.939.569 1.314.718-1.009.414-6.445-.262-4.675-.758-14.35-1.102-21.5-.796-16.531-1.072-19.493-1.896-20.318-.368-.368-.408 6.978-.088 16.324m-186.019-11.181c-.796.912-.728 1.587.25 2.502 1.098 1.025 1.341.792 1.341-1.288 0-2.877-.083-2.94-1.591-1.214m177.661 6.758c.039 1.879.484 4.317.99 5.417.637 1.384.751.467.371-2.975-.646-5.86-1.461-7.323-1.361-2.442M948 758.031c0 .533.42.969.934.969.513 0 1.121 1.237 1.35 2.75.4 2.645.422 2.63.566-.393.094-1.978-.406-3.356-1.35-3.719-.825-.316-1.5-.139-1.5.393M939.272 769c0 2.475.195 3.487.434 2.25.238-1.237.238-3.263 0-4.5-.239-1.237-.434-.225-.434 2.25m.461 9.25c.718 5.631 1.267 6.053 1.267.976 0-2.26-.407-4.36-.905-4.667-.516-.319-.672 1.266-.362 3.691m170.934-.583c-1.047 1.047-.779 5.333.333 5.333.55 0 1-1.35 1-3 0-3.107-.204-3.463-1.333-2.333M964 781.5c0 1.375.45 2.5 1 2.5s1-1.125 1-2.5-.45-2.5-1-2.5-1 1.125-1 2.5m-23.274 11c.303 4.95.714 9.188.913 9.417.724.835.138-13.489-.652-15.917-.467-1.436-.578 1.331-.261 6.5m23.812.25c.692 7.035 2.462 11.055 2.462 5.59 0-5.375-1.241-12.34-2.198-12.34-.543 0-.652 2.796-.264 6.75m.714 15.75c.011 2.2.216 2.982.455 1.738.239-1.244.23-3.044-.02-4s-.446.062-.435 2.262m142.603-.917c-.71 9.371-.282 16.177.94 14.955.689-.688.391-15.685-.326-16.402-.258-.258-.534.393-.614 1.447M867 817.559c0 1.407.421 2.299.936 1.98 1.113-.687.986-4.539-.149-4.539-.433 0-.787 1.152-.787 2.559m241.163 13.283c.124 4.637.575 7.064 1.265 6.807.59-.219 1.003-.793.918-1.274-.084-.481-.386-3.277-.67-6.212-.773-7.979-1.734-7.547-1.513.679m18.837-2.401c0 .793.45 1.719 1 2.059.55.34 1-.309 1-1.441 0-1.132-.45-2.059-1-2.059s-1 .648-1 1.441M955.32 838c0 3.575.182 5.038.403 3.25.222-1.788.222-4.712 0-6.5-.221-1.788-.403-.325-.403 3.25m172.68-1.618c0 1.375.45 2.778 1 3.118.565.349 1-.47 1-1.882 0-1.375-.45-2.778-1-3.118-.565-.349-1 .47-1 1.882m-34.333 6.285c-1.047 1.047-.779 5.333.333 5.333.55 0 1-1.35 1-3 0-3.107-.204-3.463-1.333-2.333M938.1 848.75c.089 3.347.185 3.481.9 1.25 1.145-3.575 1.145-5 0-5-.55 0-.955 1.688-.9 3.75m.915 8.333c.009 1.879.465 4.092 1.015 4.917.698 1.048.802.145.345-3-.813-5.601-1.38-6.4-1.36-1.917m200.085 94.108c-.055 4.23.35 7.969.9 8.309 1.196.739 1.196-9.764 0-13.5-.56-1.749-.831-.189-.9 5.191M241.32 1054c0 3.575.182 5.037.403 3.25.222-1.787.222-4.713 0-6.5-.221-1.787-.403-.325-.403 3.25m893.289 22.671c-.408 3.467-.267 6.071.362 6.7.705.705 1.029-1.079 1.029-5.671 0-3.685-.163-6.7-.362-6.7-.2 0-.663 2.552-1.029 5.671m-.987 13.487c-1.168 9.602-1.501 17.842-.721 17.842.892 0 2.572-20.86 1.747-21.685-.274-.274-.736 1.455-1.026 3.843m-17.486 14.741c-.075.769-1.698 2.916-3.607 4.77-2.997 2.911-3.383 3.811-2.826 6.597.355 1.774 1.263 3.843 2.019 4.599.755.755 1.102 1.644.771 1.975-.331.331-.971.005-1.422-.726-.575-.929-1.026-.995-1.505-.221-.866 1.401.264 3.33 1.503 2.564.512-.316.931.127.931.984s-.612 1.559-1.361 1.559c-.894 0-1.576 1.798-1.991 5.25-.876 7.292-.805 8.965.352 8.25.55-.34 1.007-2.729 1.015-5.309.009-2.58.501-5.366 1.095-6.191.916-1.274.996-1.241.528.218-.303.945-.09 2.003.474 2.351.563.348.772 1.291.463 2.095-.308.804-.792 4.021-1.075 7.149a797.786 797.786 0 0 1-1.08 10.937c-.338 3.153-.172 5.25.418 5.25.54 0 1.279-3.937 1.642-8.75.363-4.812 1.114-12.35 1.669-16.75 2.125-16.842 2.416-20.349 1.646-19.873-.437.27-.795-.173-.795-.985 0-.811.494-1.64 1.098-1.841.604-.202.89-1.477.636-2.834s-.523-1.837-.598-1.068m-251.783 24.433c.356 1.007.647 2.47.647 3.25 0 .78.48 1.418 1.067 1.418 1.227 0 .273-3.954-1.327-5.5-.705-.682-.829-.418-.387.832m-.285 14.718c.063 3.24.134 3.311 1.167 1.167.813-1.687.796-2.586-.068-3.45-.889-.889-1.151-.347-1.099 2.283m-547.952 3.141c-.064 2.58.24 4.911.675 5.18.435.269.634-1.167.442-3.191-.586-6.184-.995-6.913-1.117-1.989m793.634 12.141c-1.189 2.904-.954 7.272.323 5.995.59-.59.927-2.592.75-4.45-.25-2.616-.492-2.964-1.073-1.545m-5.531 16.668c-.047 1.65.335 3 .848 3 .513 0 .933-1.35.933-3s-.382-3-.848-3c-.466 0-.886 1.35-.933 3m24.369.25c-.277 1.787-.742 7.975-1.034 13.75-.389 7.69-.256 9.846.496 8.058 1.096-2.604 2.523-25.058 1.593-25.058-.304 0-.779 1.463-1.055 3.25m-245.199 11.748c.061 3.299.448 5.999.861 6 .413.001.755-1.011.761-2.248.006-1.237.29-3.937.631-6 .485-2.934.295-3.75-.872-3.75-1.168 0-1.467 1.299-1.381 5.998m-17.704-1.748c-.294 1.787-1.018 5.462-1.61 8.166-.592 2.704-.931 5.061-.753 5.239.359.36 6.699-14.72 6.686-15.905-.004-.412-.859-.75-1.899-.75-1.356 0-2.041.918-2.424 3.25m-619.549 15.418c-.075 1.193-.395 2.993-.712 4-.544 1.734-.514 1.737.566.053.628-.978.948-2.778.712-4-.429-2.219-.43-2.219-.566-.053m2.519 3.7c-.414 1.577-.516 3.104-.227 3.393.805.805 1.789-2.415 1.361-4.453-.281-1.333-.579-1.054-1.134 1.06m851.227 4.382c-.066.412-.089 1.018-.052 1.346.037.327-.542 2.62-1.287 5.094-.832 2.765-1.011 5.04-.464 5.904.621.98.9.345.921-2.094.021-2.397.307-3.064.907-2.117.64 1.011 1.09.474 1.675-2 .439-1.861.713-3.721.608-4.133-.104-.412.26-.75.81-.75s1-.45 1-1c0-1.148-3.939-1.387-4.118-.25m-244.311 10.75c-.435 1.65-1.416 4.928-2.181 7.285-1.647 5.077-1.659 5.215-.461 5.215 1.247 0 4.282-10.639 3.808-13.349-.323-1.846-.488-1.726-1.166.849m14.096 7.167c-.367.366-.667 1.546-.667 2.622 0 1.625.254 1.745 1.5.711.825-.685 1.5-1.865 1.5-2.622 0-1.458-1.217-1.828-2.333-.711m115 15c-.976.975-.815 4.333.208 4.333.481 0 .875-1.125.875-2.5 0-2.706-.078-2.838-1.083-1.833m107.583 13.277c-1.426 1.189-2.25 2.987-2.25 4.907 0 1.667-.443 3.305-.985 3.64-.541.334-.98 1.598-.974 2.809.006 1.21-.202 4.675-.462 7.7-.415 4.822-.37 5.007.366 1.5.462-2.2.666-4.29.453-4.645-.213-.355.243-.887 1.012-1.182 1.602-.615 3.924-10.01 2.591-10.485-.482-.172-.117-1.113.812-2.092.928-.978 2.019-1.602 2.426-1.385.406.216.47-.305.143-1.159-.713-1.856-.39-1.896-3.132.392m-7.165 26.556c-.161 2.796-2.399 8.968-3.915 10.795-.697.839-1.529 3.142-1.849 5.116-.321 1.974-.974 3.589-1.452 3.589s-.869.839-.869 1.865-.9 3.009-2 4.408c-2.064 2.624-2.771 6.322-1 5.227.55-.34 1 .309 1 1.441 0 1.132.45 2.059 1 2.059s1-.922 1-2.05c0-1.127.665-3.335 1.477-4.905.812-1.571 1.586-4.283 1.718-6.027.133-1.743.642-3.417 1.13-3.719.489-.302.278-.936-.468-1.409-.991-.628-.75-.864.893-.875 1.82-.012 2.25-.577 2.25-2.956 0-1.618.457-3.224 1.016-3.569.559-.346.763-1.038.454-1.538-.309-.501-.162-1.707.327-2.681s.555-2.896.146-4.271c-.612-2.057-.764-2.146-.858-.5m-10.969 36.25c-.064.688-.739 1.25-1.499 1.25-1.705 0-2.547 2.915-1.868 6.469.493 2.575.577 2.52 2.417-1.592 1.049-2.342 1.718-4.96 1.487-5.818-.232-.857-.473-.996-.537-.309m-39.544 46.136c-1.415 2.241-2.572 4.449-2.572 4.907 0 .458-1.059 3.054-2.353 5.77-2.774 5.82-4.028 10.437-2.835 10.437.779 0 6.188-11.06 6.188-12.653 0-.379.594-1.4 1.321-2.268 1.419-1.697 3.872-9.219 3.219-9.873-.218-.217-1.553 1.439-2.968 3.68m-884.856-2.269c-.365.365-.078 1.838.637 3.273.715 1.436 2.053 4.109 2.973 5.941.921 1.832 1.674 3.984 1.674 4.781 0 .798.675 1.71 1.5 2.026.825.317 1.5 1.114 1.5 1.773 0 2.176 5.445 12.126 5.763 10.53.388-1.951-13.14-29.231-14.047-28.324m-14.7 9.883c.027 1.869 2.643 8.559 3.799 9.715.634.634 1.484.82 1.889.414.406-.406.276-1.051-.289-1.433-.564-.383-2.014-2.721-3.22-5.196-1.206-2.475-2.187-4.05-2.179-3.5m17.016 15.25c.017.412.692 1.624 1.5 2.691 1.497 1.98 1.955.992.861-1.859-.611-1.592-2.42-2.229-2.361-.832m870.563 2.468c-.821 1.255-2.196 3.97-3.057 6.032-.861 2.063-1.959 3.75-2.44 3.75-.482 0-1.173 1.585-1.536 3.522-.364 1.938-1.539 4.071-2.612 4.741-1.072.67-1.95 1.935-1.95 2.811 0 .876-.337 1.93-.75 2.343-.413.412-.77 1.275-.795 1.916-.025.642-.542 1.07-1.148.951-.622-.122-.886.61-.606 1.68.309 1.182-.232 2.351-1.438 3.104-1.304.814-1.786 1.976-1.481 3.57.312 1.634-.011 2.362-1.049 2.362-1.618 0-3.004 4.714-1.635 5.561.457.282 1.859-1.208 3.116-3.312a482.813 482.813 0 0 1 3.508-5.787c.673-1.079 1.959-3.537 2.859-5.462.9-1.925 2.715-5.592 4.035-8.149 1.319-2.557 2.117-5.383 1.773-6.28-.374-.973.146-2.324 1.29-3.351 2.451-2.201 6.674-8.22 5.767-8.22-.38 0-.164-.635.48-1.411.761-.917.819-1.628.166-2.032-.552-.341-1.676.406-2.497 1.661M141.067 1403c-.002.825.657 2.374 1.465 3.441 1.868 2.47 1.847.846-.032-2.441-.829-1.45-1.431-1.87-1.433-1m118.001 9.185c-.038.377.421 1.952 1.018 3.5.598 1.548 1.093 4.269 1.1 6.045.011 2.566.69 3.648 3.3 5.262 1.808 1.117 3.521 2.926 3.807 4.019.286 1.094 1.038 1.989 1.672 1.989.671 0 .828-.523.375-1.25-5.158-8.293-7.34-12.437-7.34-13.941 0-.995-.381-1.809-.847-1.809-.466 0-1.336-1.013-1.933-2.25-.596-1.237-1.115-1.942-1.152-1.565m-28.064 1.916c-.002.33.479 1.986 1.069 3.679.744 2.133.756 3.671.039 5.011-.883 1.649-.71 1.913 1.177 1.799 1.638-.098 2.152-.694 1.984-2.3-.202-1.918-4.26-9.703-4.269-8.189m22.996 5.774c0 .691.46 2.117 1.023 3.168.819 1.53.727 1.798-.462 1.342-.817-.313-1.768-1.462-2.114-2.553-.346-1.09-.83-1.782-1.076-1.537-.928.928 1.953 5.556 3.751 6.027 2.339.611 2.547-2.854.346-5.763-.816-1.079-1.468-1.383-1.468-.684m-33.655 2.954c.91 1.006 1.655 2.581 1.655 3.5s.414 1.671.921 1.671c.506 0 1.238 1.463 1.627 3.25s1.325 4.138 2.08 5.223c1.366 1.963 1.372 1.963 1.341 0-.053-3.356-6.604-15.473-8.365-15.473-.502 0-.169.823.741 1.829M152 1424.465c0 .844.401 1.535.891 1.535.491 0 1.612 1.8 2.492 4 .881 2.2 2.024 4 2.542 4 .517 0 1.226.9 1.575 2s1.006 2 1.46 2c.453 0 .007-1.603-.992-3.562-.998-1.959-2.264-4.849-2.813-6.422-1.162-3.335-5.155-6.085-5.155-3.551m49.551 3.003c.797 1.907 1.463 4.495 1.479 5.75.026 1.918.182 2.023.98.658.959-1.642-1.709-9.844-3.209-9.866-.384-.005-.047 1.551.75 3.458m40.236-2.644c-1.247.492-1.451 1.085-.75 2.176.808 1.258 1.106 1.278 1.851.122.506-.785 1.423-1.048 2.13-.611.795.492 1.083.291.799-.559-.55-1.65-1.811-2.003-4.03-1.128m-9.474 2.508c.378 1.007.687 2.245.687 2.75 0 .505.45.918 1 .918 1.595 0 1.157-2.627-.687-4.128-1.485-1.208-1.605-1.153-1 .46m12.678 5.157c.68.819 1.642 1.238 2.139.931 1.276-.789.055-2.42-1.811-2.42-1.272 0-1.333.278-.328 1.489m753.492 2.773c-1.067 1.231-1.817 2.801-1.668 3.488.15.688-.089 1.25-.531 1.25-.441 0-1.365.9-2.052 2-1.015 1.626-.999 2 .09 2 1.903 0 8.132-8.946 7.01-10.068-.544-.544-1.686-.01-2.849 1.33m-792.222 3.238c.591 1.925 1.449 3.5 1.907 3.5 1.167 0 1.051-.676-.694-4.05-2.04-3.945-2.525-3.725-1.213.55m784.98 8.486c-1.776 2.843-1.536 3.247.759 1.282 2.035-1.742 2.614-3.268 1.241-3.268-.418 0-1.318.894-2 1.986m-808.203 18.559c.654.788 1.588 1.186 2.075.885 1.54-.952.964-1.999-1.189-2.161-1.693-.127-1.856.107-.886 1.276m-17.932 10.666c-.058.941-1.094 2.631-2.3 3.756-1.702 1.584-1.926 2.313-1 3.239.925.925 1.194.836 1.194-.399 0-3.281 2.887-2.661 6.43 1.381 1.964 2.24 3.57 4.591 3.57 5.224 0 1.676 4.704 1.803 5.34.144.504-1.313-3.152-4.556-5.136-4.556-.476 0-1.468-1.125-2.204-2.5-.736-1.375-1.85-2.5-2.476-2.5-.626 0-1.627-1.237-2.225-2.75-.697-1.765-1.124-2.137-1.193-1.039m617.033 14.822c-3.066 2.555-1.41 2.525 1.861-.033 1.375-1.076 2.05-1.951 1.5-1.944-.55.006-2.062.896-3.361 1.977m56.266 5.104-1.905 2.137 3.5-1.764c4.523-2.28 4.736-2.51 2.322-2.51-1.107 0-2.869.962-3.917 2.137m-41.544 4.83c-1.299 1.081-1.868 1.981-1.266 2 .602.018 1.91-.867 2.905-1.967 2.316-2.559 1.415-2.577-1.639-.033m-7.611 3.253c-2.299 1.109-3.05 2.78-1.25 2.78.55 0 1-.45 1-1s.648-1 1.441-1 1.719-.45 2.059-1c.775-1.255-.349-1.178-3.25.22M773 1513.5c-1.351 1.628-1.028 1.832 1.418.893.87-.334 1.582-1.009 1.582-1.5 0-1.383-1.62-1.055-3 .607m-194.736 31.218c1.52.229 3.77.223 5-.014 1.23-.237-.014-.425-2.764-.418-2.75.008-3.756.202-2.236.432m8.736.33c0 .523 1.65.952 3.667.952 4.284 0 3.936-.943-.56-1.512-1.709-.216-3.107.036-3.107.56m17.5-.048c-5.648.625-5.472.667 3 .723 4.95.033 11.7-.275 15-.685 5.734-.711 5.601-.743-3-.723-4.95.012-11.7.32-15 .685m-317.268 15c.687 1.1 1.607 2 2.044 2 .437 0 .313-.9-.276-2s-1.508-2-2.044-2c-.539 0-.416.892.276 2M856 1585.941c0 .518.372 1.171.826 1.452 1.274.787 5.223-.506 4.604-1.507-.733-1.186-5.43-1.139-5.43.055m22 25.918c-1.375.903-2.65 1.979-2.833 2.391-.184.412-.923.75-1.643.75-.721 0-1.58.703-1.91 1.563-.46 1.198.077 1.081 2.298-.5 1.593-1.135 3.335-2.063 3.87-2.063 1.107 0 3.709-2.856 3.111-3.415-.216-.201-1.518.372-2.893 1.274m-559.361.835c-1.126 1.126-.685 2.306.861 2.306.825 0 1.5-.423 1.5-.941 0-1.261-1.562-2.164-2.361-1.365m57.361 7.869c0 .988 2.799 3.437 3.929 3.437.589 0 1.071.351 1.071.781 0 .705 3.034 2.241 8.5 4.302 1.1.415 4.446 1.683 7.435 2.817 2.99 1.135 5.67 1.828 5.957 1.542.286-.287-.472-.781-1.686-1.098-1.213-.318-2.206-.975-2.206-1.461 0-.485-.547-.883-1.215-.883-1.055 0-15.044-6.325-20.035-9.059-.962-.527-1.75-.697-1.75-.378m390.5 38.488c-1.562.711-1.267.821 1.344.502 1.84-.224 3.602-.666 3.917-.981.893-.893-3.032-.536-5.261.479m-47.262 4.939c-1.097 1.757-1.008 2.01.706 2.01 2.405 0 7.056-2.037 7.056-3.091 0-.423-1.325-.389-2.945.075-1.733.497-3.072.464-3.253-.079-.17-.509-.873-.02-1.564 1.085m-18.913-.332c.362.362.16 1.257-.448 1.99-.853 1.028-.566 1.536 1.259 2.225 2.956 1.118 3.112.965 2.304-2.255-.361-1.44-1.358-2.618-2.215-2.618-.857 0-1.262.296-.9.658m6.704 2.303c-1.995 1.262-.946 2.091 1.753 1.386 1.208-.316 1.949-.973 1.648-1.461-.692-1.119-1.543-1.1-3.401.075m6.471.039c-1.772.762-1.687.867.75.93 1.513.038 2.75-.38 2.75-.93 0-1.174-.769-1.174-3.5 0m21.043 1.931c-.317.512-.231 1.134.191 1.382.872.515 5.266-.971 5.266-1.781 0-.928-4.857-.573-5.457.399M678.5 1669c-1.056 1.708 7.204 1.646 8.95-.068.59-.579-.81-.932-3.691-.932-2.553 0-4.919.45-5.259 1m40.301 2.533c-.293.293-4.531.727-9.417.966-7.728.377-19.125 1.56-30.134 3.129-1.788.254-3.25.951-3.25 1.548 0 .7 1.331.861 3.75.453 2.063-.347 8.379-.926 14.036-1.285 5.658-.359 10.522-1.033 10.809-1.498.288-.465 2.409-.855 4.714-.865 4.376-.02 15.746-2.735 12.108-2.892-1.146-.049-2.323.151-2.616.444" fill-rule="evenodd"/></svg>