<svg xmlns="http://www.w3.org/2000/svg" width="1240" height="1753"><path d="M594.687 53.374c-.29.755-2.138 1.676-4.107 2.045-1.969.369-3.58 1.048-3.58 1.508 0 1.024-8.775 3.33-9.938 2.611-.459-.284-1.391.154-2.071.973-.68.819-2.25 1.489-3.488 1.489-1.239 0-3.751.3-5.581.666-2.818.563-3.029.782-1.375 1.429 1.303.51.186.788-3.356.835-3.994.053-5.123-.24-4.558-1.18.573-.954.409-.986-.691-.135-2.299 1.778-42.463 4.037-41.407 2.329.735-1.189-.11-1.181-8.343.084-3.681.566-19.742 1.494-35.692 2.064-42.415 1.515-47.5 1.861-47.5 3.236 0 .655-.9 1.753-2 2.44s-2 1.758-2 2.381c0 2.666-4.815 10.528-8.588 14.022-2.249 2.082-4.916 5.708-5.927 8.057-1.011 2.35-2.659 6.16-3.662 8.467-1.003 2.307-1.823 4.767-1.823 5.467 0 1.946-3.181 10.148-4.59 11.838-2.538 3.042-10.657 28.355-14.434 45-.686 3.025-4.076 14.05-7.533 24.5-7.77 23.487-10.65 32.735-13.388 43-1.174 4.4-3.019 10.025-4.1 12.5-1.08 2.475-2.808 8.775-3.838 14-1.03 5.225-3.542 15.8-5.583 23.5-3.978 15.011-7.427 29.959-10.615 46-3.339 16.797-8.742 37.105-14.9 56-5.955 18.275-14.136 46.088-16.766 57-1.622 6.734-5.898 21.686-7.292 25.5-.503 1.375-2.54 9.475-4.528 18-3.559 15.269-7.847 31.184-10.776 40-13.151 39.582-19.237 62.831-20.156 77-.339 5.224-4.153 22.958-5.158 23.982-.261.265-.213-1.985.106-5l.579-5.482-1.557 4c-.856 2.2-1.355 4.787-1.108 5.749.247.962.02 2.015-.505 2.339-.581.359-.498 1.141.213 1.997.907 1.094.577 3.301-1.484 9.911-1.458 4.677-3.051 8.504-3.539 8.504-1.838 0-7.071 18.99-6.985 25.347.097 7.128-1.104 13.702-4.046 22.153-1.148 3.3-2.227 6.9-2.397 8-.17 1.1-1.256 4.925-2.414 8.5-1.158 3.575-3.515 11.225-5.237 17-1.723 5.775-3.782 12.525-4.575 15-.793 2.475-3.478 11.475-5.967 20-2.489 8.525-5.637 18.875-6.996 23-3.412 10.358-13.352 51.03-23.828 97.5-.868 3.85-3.394 17.8-5.614 31-6.772 40.269-12.105 63.458-21.963 95.5-5.24 17.033-16.13 52.084-22.214 71.5-11.335 36.173-13.722 44.059-17.26 57-1.954 7.15-3.553 13.519-3.552 14.152 0 .634-2.65 10.534-5.889 22-3.239 11.467-7.313 27.148-9.052 34.848-1.739 7.7-6.34 24.125-10.223 36.5-9.407 29.977-11.502 37.569-13.796 50-1.817 9.844-5.88 29.483-7.964 38.5-.509 2.2-1.697 7.6-2.641 12s-2.105 8.762-2.58 9.692c-.866 1.696-2.874 10.885-7.28 33.308-2.604 13.252-4.42 20.959-5.654 24-.446 1.1-.799 3.125-.784 4.5.015 1.375-.646 5.425-1.468 9s-2.043 9.2-2.714 12.5c-2.461 12.117-7.538 28.77-14.848 48.701-1.149 3.136-2.789 9.886-3.644 15-.854 5.115-2.433 12.872-3.508 17.239-2.045 8.308-2.57 20.929-1.085 26.107.479 1.669 3.385 5.491 6.457 8.494l5.587 5.459.293 8.877c.206 6.234.688 9.028 1.62 9.386.729.28 1.748 1.619 2.264 2.975.687 1.809 1.399 2.279 2.673 1.766 2.219-.895 8.542-1.051 9.847-.244 1.368.845 8.52-.855 9.368-2.226.484-.783 1.475-.812 3.354-.098 1.467.558 2.667.822 2.667.587s1.084.577 2.409 1.805c2.59 2.4 6.786 3.343 6.022 1.354-.25-.653.365-1.698 1.367-2.324 2.314-1.445 8.157.785 8.861 3.382.571 2.107 6.746 5.425 8.701 4.676.76-.292 1.628.109 1.928.892.3.782 2.651 2.044 5.225 2.804 2.574.76 6.067 2.62 7.763 4.135 1.696 1.514 3.721 2.753 4.5 2.753.778 0 2.835.739 4.57 1.643 5.962 3.105 6.654 3.372 6.654 2.565 0-.444-.54-1.348-1.2-2.008-.854-.854-.873-1.2-.067-1.2.623 0 1.431.941 1.796 2.091.458 1.444 1.254 1.938 2.569 1.594 1.048-.274 1.653-.09 1.344.408-.308.499.254.972 1.249 1.052.995.08 3.384.266 5.309.414 7.181.551 18.524 3.782 23.047 6.565 2.571 1.582 5.405 2.876 6.299 2.876 2.04 0 10.982 2.289 11.654 2.983.948.98 3 1.015 3 .05 0-1.08 8.378-.672 11.5.56 1.1.434 3.754 2.052 5.899 3.597 2.708 1.95 4.263 2.506 5.092 1.818.656-.545 1.487-.696 1.847-.337.36.36 2.118.814 3.908 1.009 1.79.195 3.404.797 3.587 1.337.184.541.998.983 1.809.983.812 0 1.207.436.878.968-.909 1.47 3.338 10.056 5.278 10.672.936.298 2.733 1.037 3.993 1.642 1.81.869 2.902.74 5.189-.611 2.743-1.62 2.95-1.618 3.877.038.93 1.662 1.079 1.659 2.962-.045 2.132-1.93 3.603-.926 2.573 1.757-1.05 2.735 2.039.813 3.983-2.479 2.392-4.05 6.644-7.872 8.125-7.303.707.271 2.059-1.533 3.253-4.338 2.456-5.771 7.247-20.845 7.247-22.801 0-.768 1.044-2.524 2.321-3.901 1.831-1.976 2.589-4.554 3.591-12.211.698-5.338 1.644-10.422 2.102-11.297 1.446-2.762 10.984-32.846 11.021-34.761.039-2.015 2.873-7.521 2.93-5.692.019.626-2.006 9.304-4.5 19.285-4.568 18.277-9.465 41.006-9.465 43.929 0 1.384.178 1.398 1.462.112 1.699-1.701 4.538-14.268 4.538-20.088 0-2.197.388-3.754.863-3.461.474.293 1.12-1.961 1.435-5.01.314-3.049 1.055-6.125 1.645-6.837.591-.711 1.537-3.943 2.104-7.181.566-3.238 1.428-6.787 1.916-7.887.854-1.928 1.524-4.631 2.723-11 .311-1.65.883-3.45 1.272-4 .388-.55 1.28-3.7 1.982-7s1.677-7.305 2.168-8.899c.491-1.595.908-4.745.927-7 .02-2.256.723-5.226 1.563-6.601l1.527-2.5-.506 2.394c-.279 1.317-.156 1.992.274 1.5 1.032-1.181 6.299-21.057 6.597-24.894.128-1.65 1.195-6.973 2.371-11.829 2.442-10.08 2.632-12.742.549-7.671-.871 2.119-1.23 2.514-.911 1 .29-1.375 1.463-7.45 2.606-13.5 1.144-6.05 5.379-20.9 9.411-33 8.94-26.831 17.144-56.397 18.453-66.5.534-4.125 1.435-9.072 2.001-10.993.567-1.922 1.03-4.763 1.03-6.315 0-1.552.863-4.93 1.917-7.507 2.519-6.157 3.48-10.548 2.123-9.71-.572.354-1.04-.032-1.04-.857 0-1.959 1.704-2.994 2.263-1.374.468 1.351 2.737-8.042 2.737-11.328 0-1.093.642-2.983 1.426-4.201.784-1.218 1.735-4.015 2.112-6.215.639-3.73.583-3.866-.84-2.008-1.422 1.857-1.505 1.653-1.228-3 .468-7.848 6.995-33.554 9.768-38.469 1.079-1.912 1.962-4.925 1.962-6.695 0-1.771.66-4.031 1.466-5.024 1.356-1.67 1.432-1.594 1.024 1.022-.544 3.482.911 2.217 1.858-1.615.515-2.085.343-2.717-.68-2.5-1.068.225-1.309-1.137-1.099-6.211.26-6.297.223-6.406-1.169-3.5-1.281 2.673-1.446 2.757-1.519.77-.044-1.226.545-3.926 1.31-6 .765-2.073 1.93-6.392 2.589-9.598.659-3.205 1.398-5.627 1.643-5.382.245.244-.036 2.589-.623 5.21-1.212 5.41-.786 6.942.775 2.782 1.928-5.141 6.46-28.274 5.934-30.288-.287-1.097-.21-1.994.172-1.994.381 0 .795-1.337.92-2.971.124-1.634.648-4.079 1.163-5.433.66-1.737.582-2.607-.264-2.953-.885-.362-.836-.745.187-1.461.844-.589 1.191-1.994.887-3.584-.433-2.264-.291-2.446 1.055-1.357 1.202.973 1.386.978.811.021-.409-.682.202-3.376 1.357-5.988 1.241-2.805 1.86-5.71 1.512-7.095-.324-1.291-.191-2.1.296-1.8.486.301 1.673-3.149 2.636-7.666.963-4.517 2.158-9.247 2.655-10.51 1.185-3.011 1.147-4.471-.096-3.703-1.422.879-1.229-.537.533-3.915.836-1.604 1.66-4.193 1.831-5.754.402-3.672 1.286-4.508 2.09-1.976.35 1.104-.059 4.69-.909 7.97-1.951 7.53-1.986 8.786-.202 7.305.739-.613 3.281-9.106 5.649-18.872 2.368-9.767 4.866-19.108 5.551-20.758.686-1.65 1.531-4.575 1.879-6.5.479-2.65.015-2.042-1.91 2.5-1.398 3.3-3.241 7.35-4.095 9l-1.554 3 .588-2.751c.323-1.513.866-4.888 1.206-7.5.341-2.612 1.046-5.292 1.567-5.955.522-.664.652-1.685.291-2.27-.361-.585-.078-2.742.629-4.794.708-2.051 1.385-4.63 1.505-5.73.652-5.975 2.871-11.746 4.792-12.465 2.019-.756 9.041-1.35 31.059-2.629 6.33-.367 11.907-1.204 13.136-1.97 3.473-2.166 11.028-2.649 46.864-2.993 18.7-.18 45.025-.874 58.5-1.542 13.475-.669 49.925-1.277 81-1.352l56.5-.136 12-2.795c6.6-1.537 12.9-3.008 14-3.268 1.799-.425 2.777 1.82 9.728 22.339 4.251 12.546 9.919 28.211 12.596 34.811 2.677 6.6 5.871 15.375 7.097 19.5 2.976 10.008 6.193 18.202 7.782 19.821.713.727 1.29 1.852 1.282 2.5-.01.713-.443.585-1.095-.321-.959-1.333-1.029-1.333-.63 0 2.571 8.594 4.21 12.694 5.478 13.702.858.682 1.24 1.913.882 2.845-.346.903.272 3.682 1.375 6.175s2.007 5.263 2.01 6.155c.004 1.416 2.264 8.133 7.611 22.623.812 2.2 2.328 6.475 3.369 9.5 1.042 3.025 3.499 9.775 5.461 15 3.566 9.495 3.567 9.497 3.148 4.245-.48-6.017.827-6.266 1.775-.338.348 2.173 1.224 4.546 1.949 5.272.724.727 1.825 3.121 2.446 5.321.621 2.2 2.032 7.15 3.134 11 4.494 15.697 7.83 28.5 7.427 28.5-.236 0-.908-1.373-1.493-3.051-.585-1.678-1.237-2.877-1.45-2.664-.401.401 8.33 25.761 9.153 26.583.788.788.526-.443-1.035-4.868-1.929-5.468-1.908-7.027.058-4.22 2.508 3.58 6.378 17.598 5.085 18.42-.761.485-.284 3.106 1.548 8.5 1.456 4.29 5.622 16.575 9.258 27.3 7.035 20.753 8.489 29.39 3.142 18.665-1.6-3.21-4.363-9.96-6.14-15a4530.716 4530.716 0 0 0-8.277-23.165c-2.775-7.7-5.372-15.334-5.772-16.964-.635-2.592-.816-2.717-1.443-1-.41 1.122-.071 3.464.791 5.464.83 1.925 1.477 4.297 1.44 5.272-.038.974.306 1.539.764 1.256.459-.283.831.495.829 1.729-.003 1.233 4.091 14.332 9.096 29.107 5.481 16.176 8.886 27.724 8.559 29.027-.314 1.25.989 6.161 3.087 11.636 1.996 5.21 4.675 12.623 5.953 16.473 1.277 3.85 3.279 9.611 4.449 12.802 1.17 3.191 1.856 6.239 1.526 6.775-.331.535-.062.849.598.698 2.767-.634 1.746 2.141-1.766 4.801-2.082 1.576-5.135 4.229-6.785 5.895-1.65 1.666-5.219 4.829-7.932 7.029-2.712 2.2-6.184 5.237-7.716 6.75-1.531 1.513-3.25 2.75-3.818 2.75-.569 0-1.034.353-1.034.784 0 .432-1.463 1.618-3.25 2.636-2.093 1.193-.669-.565 4-4.939 8.14-7.624 9.785-10.754 2.5-4.756-2.613 2.15-6.325 4.891-8.25 6.089-1.925 1.198-5.053 3.755-6.952 5.682-1.898 1.927-3.811 3.504-4.25 3.504-.439 0-.798.686-.798 1.525 0 .838-1.237 1.995-2.748 2.569-3.529 1.342-6.255 3.813-7.342 6.656-.473 1.237-1.547 2.25-2.385 2.25-.839 0-1.525.645-1.525 1.433s-1.013 1.742-2.25 2.121-7.93 6.297-14.873 13.151c-6.943 6.855-14.101 13.437-15.908 14.629a760.932 760.932 0 0 0-5.688 3.79c-6.194 4.183-31.689 29.031-45.017 43.876-4.796 5.342-7.264 10.81-7.264 16.094 0 4.141 4.248 14.906 5.883 14.906.546 0 .932.803.858 1.784-.195 2.591 6.194 11.721 13.458 19.23 5.67 5.862 9.359 9.016 22.189 18.97 2.138 1.659 3.499 3.016 3.024 3.016-.475 0 2.726 3.394 7.112 7.542 4.387 4.147 10.92 10.447 14.518 14 3.599 3.552 7.086 6.458 7.75 6.458.665 0 1.222.338 1.239.75.018.412 1.164 1.575 2.548 2.583 2.022 1.472 2.807 1.592 3.993.607.812-.674 1.765-.936 2.119-.583.353.354.062.643-.647.643-.993 0-1.021.322-.125 1.403.641.771.808 1.598.373 1.836-.436.238-.205.287.511.108.717-.179 2.292.636 3.5 1.811 1.209 1.175 1.565 1.775.792 1.335-.97-.554-1.171-.425-.649.419.415.672.994.981 1.287.688.293-.293 1.878 1.324 3.521 3.592 2.538 3.503 3.129 3.875 3.917 2.467 1.061-1.896 5.357-2.232 6.425-.503.508.821-.153.983-2.274.558-2.037-.407-2.989-.201-2.989.647 0 .804 1.027 1.093 2.906.817 2.06-.302 2.85-.026 2.715.948-.347 2.498.194 6.398.71 5.118.279-.691.918-1.002 1.421-.691.503.311.915-.163.915-1.053 0-.948-.468-1.329-1.13-.92-.648.401-.957.181-.725-.516.777-2.329 2.354-.54 2.253 2.554-.085 2.59.218 3.034 1.792 2.622 1.042-.273 1.823-.101 1.734.382-.088.483-.108 1.959-.042 3.281l.118 2.403 1.867-2.153c2.208-2.545 4.133-2.8 4.133-.546 0 1.002.553 1.395 1.468 1.044.807-.31 1.714-.166 2.014.321.301.486-.359 1.172-1.467 1.523-1.108.352-2.015 1.108-2.015 1.679 0 .572-.698.772-1.552.444-.954-.366-1.297-.183-.891.474.374.605 1.777.79 3.227.426 2.11-.53 2.361-.398 1.414.743-.869 1.047-.862 1.675.026 2.563 1.745 1.745 3.076 1.424 2.381-.574-.479-1.376-.296-1.322.858.25.808 1.1 2.047 2.666 2.753 3.48.706.814 1.165 1.845 1.02 2.293-.312.958 3.395-.899 4.013-2.012.233-.418.334-.311.225.239-.108.55.159 1.9.594 3 .671 1.695.802 1.733.862.25.135-3.358 2.07-1.722 2.07 1.75 0 2.444.452 3.5 1.5 3.5.825 0 1.5.45 1.5 1s.45 1 1 1c1.486 0 1.212-1.646-.571-3.429-1.429-1.428-1.429-1.571 0-1.571.864 0 1.571.381 1.571.847 0 1.619 3.508 4.837 4.794 4.399.949-.324 1.112.279.613 2.267-.61 2.43-.46 2.638 1.462 2.029 1.479-.47 2.327-.195 2.743.889.331.863 1.229 1.569 1.995 1.569s1.407.563 1.424 1.25c.042 1.639 3.749 4.254 7.26 5.12 1.535.379 2.541 1.092 2.237 1.585-.305.494 1.105.743 3.133.554 2.028-.188 3.177-.027 2.553.359-2.21 1.365 2.413 2.953 8.128 2.791 3.112-.088 5.658.186 5.658.609 0 .842 4.893-.108 6.5-1.261 1.95-1.4 5.412-1.778 5.952-.651.396.827.709.798 1.131-.106.321-.688 1.334-1.251 2.25-1.251 1.447-.001 3.164-1.158 8.875-5.979.664-.561 1.836-1.02 2.604-1.02s2.488-1.013 3.823-2.25 3.415-2.199 4.622-2.138c1.329.068 2.429-.622 2.787-1.75.325-1.024 1.125-1.862 1.779-1.862.653 0 3.017-1.687 5.252-3.75 6.82-6.294 11.717-10.569 16.739-14.612 2.637-2.124 4.558-4.099 4.268-4.39-.91-.909 5.613-8.387 6.888-7.898 1.3.499 7.196-5.187 6.78-6.538-.137-.447.473-.812 1.357-.812.992 0 1.394-.554 1.051-1.449-.392-1.02-.076-1.265 1.067-.826 1.214.466 1.461.201.98-1.051-.353-.921-.238-1.674.255-1.674s1.604-.707 2.469-1.571c.864-.865 1.571-1.076 1.571-.469 0 .607-.675 1.362-1.5 1.678-.825.317-1.5 1.077-1.5 1.69 0 .612 1.626-.561 3.614-2.607 1.988-2.047 4.043-3.721 4.567-3.721.525 0 .648-1.013.274-2.25-.526-1.742-.406-1.99.533-1.1.919.872 1.632.751 2.947-.5.954-.907 2.761-2.325 4.015-3.15 3.82-2.514 10.048-9.366 10.674-11.743.324-1.234.973-2.006 1.442-1.716 1.402.866 4.934-1.883 4.934-3.841 0-1 .452-1.539 1.003-1.198 1.363.842 15.942-12.482 15.349-14.027-.267-.695.627-1.504 2.059-1.863 1.391-.35 4.186-2.426 6.211-4.614 2.024-2.188 5.975-5.346 8.779-7.018 6.128-3.655 10.453-6.621 17.032-11.684 2.713-2.088 5.487-4.021 6.165-4.296.677-.275 2.963-2.075 5.079-4 8.567-7.794 20.027-17.711 23.323-20.184 8.629-6.475 42.029-41.237 59.88-62.324 10.259-12.118 15.402-17.78 22.704-24.992 4.454-4.4 9.705-10.025 11.668-12.5 4.017-5.064 7.509-8.933 21.667-24 10.678-11.364 23.174-26.237 31.709-37.74l5.372-7.241v-17.041c0-14.374-.239-17.133-1.53-17.628-.842-.323-2.174-1.771-2.96-3.219-1.047-1.926-1.441-2.162-1.47-.881-.06 2.622-3.497 2.132-5.022-.716-.726-1.356-1.661-2.255-2.078-1.997-1.488.92-3.94-.784-3.94-2.738 0-1.145-.847-2.208-2-2.509-1.1-.288-2-1.146-2-1.907 0-1.591-2.579-1.874-3.5-.383-1.209 1.957-2.59 1.036-1.5-1 .782-1.462.76-2-.081-2-.66 0-.929-.855-.629-2.001.288-1.101.115-1.75-.383-1.441-.499.308-.907 1.403-.907 2.434 0 1.863-3.572 3.769-4.788 2.554-.35-.35-.133-1.443.483-2.429.709-1.136.824-3.041.314-5.204-.442-1.877-.85-2.651-.907-1.72-.11 1.82-3.73 4.807-5.825 4.807-.702 0-1.277-.932-1.277-2.071 0-1.14-.615-2.687-1.366-3.438-1.155-1.155-1.698-1.135-3.508.133-1.916 1.342-2.205 1.333-2.75-.088-.492-1.28-.896-1.35-2.091-.357-1.246 1.034-1.443.84-1.237-1.225.135-1.35-.215-3.579-.776-4.954-1.23-3.015.329-4.541 2.462-2.409 1.651 1.651 2.665 1.864 1.739.365-.355-.574-.044-1.785.691-2.692.828-1.021.883-1.376.145-.934-.869.522-1.036-.237-.619-2.808.372-2.29.176-3.522-.559-3.522-.622 0-1.131.436-1.131.969 0 .532-.634.725-1.41.427-.847-.325-1.672.286-2.067 1.532-1.065 3.356-2.229 2.416-4.007-3.239-1.634-5.195-1.623-5.394.543-9.064 1.787-3.03 1.967-3.981.931-4.939-1.01-.934-1.13-.867-.564.314.395.825-.326.291-1.604-1.187-1.277-1.478-3.559-3.154-5.072-3.725-1.753-.662-2.75-1.773-2.75-3.063 0-1.133-.661-2.025-1.5-2.025-.906 0-1.5-.927-1.5-2.339 0-1.521-.869-2.736-2.48-3.47-1.669-.76-2.281-1.65-1.871-2.719.385-1.003-.503-2.678-2.406-4.538-1.658-1.622-4.225-5.421-5.703-8.442-1.478-3.02-3.007-5.492-3.398-5.492-.907 0-4.676-6.252-4.371-7.25.126-.412-.43-.75-1.236-.75-.805 0-1.919-.848-2.473-1.885-.555-1.037-2.165-2.175-3.577-2.529-1.412-.355-2.297-1.081-1.967-1.615.33-.534.129-.971-.448-.971-1.805 0-5.07-3.363-5.07-5.222 0-.978-.45-1.778-1-1.778s-1-.633-1-1.406c0-.916-.785-1.261-2.25-.989-1.237.229-1.687.15-1-.177 2.172-1.033 1.499-3.642-.755-2.926-2.631.835-4.04-2.338-1.636-3.683 1.444-.808 1.477-1.126.244-2.359-.784-.784-1.189-2.327-.901-3.43.335-1.28-.059-2.23-1.089-2.625-.887-.34-1.613-1.733-1.613-3.095 0-1.625-.43-2.276-1.25-1.894-.687.321-2.063.867-3.057 1.215-.993.347-1.583 1.214-1.31 1.925.521 1.359-4.14 5.02-5.13 4.03-.316-.315.467-1.476 1.74-2.58 1.773-1.537 1.94-2.006.717-2.006-.878 0-2.268.959-3.09 2.131-1.073 1.533-2.002 1.91-3.306 1.342-.998-.435-2.152-.719-2.564-.632-1.142.242-.909-.668.865-3.376.888-1.356 2.576-2.485 3.75-2.509 3.44-.071 12.005-2.567 12.349-3.599.174-.521-.65-1.984-1.83-3.251-1.728-1.855-2.754-2.168-5.265-1.609-1.715.382-4.153.839-5.417 1.016-2.718.38-5.202 2.252-5.202 3.921 0 .655-1.35 2.188-3 3.408-3.634 2.687-3.977 1.424-.5-1.842 1.375-1.292 2.5-2.923 2.5-3.625 0-.701.787-1.782 1.75-2.401 1.567-1.007 1.54-1.053-.25-.434-1.1.38-3.8.891-6 1.135s-4.675.714-5.5 1.043c-.825.33-1.783.546-2.129.481-.346-.065-6.075 4.588-12.73 10.341-6.655 5.753-12.335 10.46-12.621 10.46-.286 0-.52-.566-.52-1.257s-1.567-5.249-3.483-10.128l-3.482-8.871 3.17-4.122 3.17-4.122-2.992 2.75c-3.526 3.241-4.383 3.411-4.383.872 0-1.032-.65-2.417-1.445-3.077-.795-.659-2.214-3.527-3.154-6.372-.939-2.845-2.258-6.073-2.93-7.173-.671-1.1-1.752-4.211-2.401-6.913-.65-2.702-2.126-6.077-3.282-7.5-1.155-1.423-1.832-1.831-1.503-.908.329.923.872 3.398 1.208 5.5.599 3.757.574 3.738-1.547-1.179-3.659-8.481-3.81-8.9-4.508-12.5-.373-1.925-1.805-6.332-3.182-9.793-1.377-3.461-2.298-6.498-2.048-6.749.648-.648 2.261 2.736 6.215 13.042 4.682 12.205 4.488 8.595-.299-5.548-4.389-12.967-11.983-36.266-18.032-55.322-2.246-7.078-5.408-15.628-7.026-19-3.852-8.028-8.599-20.228-9.584-24.63-.43-1.925-.976-2.941-1.212-2.259-.237.683.1 2.851.749 4.817 1.633 4.947.363 5.636-1.559.846-4.575-11.405-6.061-14.347-7.062-13.982-.607.221-2.132-2.081-3.39-5.115-1.782-4.301-2.006-5.69-1.015-6.303.926-.572.717-.961-.768-1.433-2.432-.771-3.76-3.622-2.152-4.616.738-.456.785-.925.134-1.327-.553-.342-1.55-2.986-2.215-5.875-.665-2.889-2.248-6.828-3.518-8.753-1.994-3.024-4.451-9.791-4.468-12.309-.003-.445.502-.495 1.124-.111.685.424.947.152.666-.691-.254-.764-1.03-1.389-1.722-1.389-1.365 0-3.833-6.17-4.4-11-.335-2.845-1.872-8.217-3.809-13.314-.621-1.631-.551-2.11.235-1.624.754.466.896.001.44-1.437-.373-1.174-.239-2.125.299-2.125.536 0 .738-.9.451-2-.288-1.1-.302-2-.032-2s1.509 3.164 2.752 7.031c1.244 3.867 2.471 6.821 2.729 6.564.257-.258-.696-3.984-2.119-8.282-3.345-10.108-8.495-31.092-8.425-34.33.03-1.385-1.351-6.613-3.07-11.619-1.719-5.006-3.125-9.803-3.125-10.661 0-.858-.572-2.155-1.271-2.882-4.436-4.612-8.495-13.647-14.771-32.88-3.802-11.648-7.197-22.813-7.546-24.81-.676-3.87-3.552-15.242-6.04-23.875-.831-2.884-1.238-6.102-.905-7.151.354-1.117-1.433-7.434-4.315-15.255C904.165 793.178 900 781.333 900 780.291c0-.538-2.25-2.875-5-5.194-3.258-2.747-5-4.997-5-6.457 0-1.232-.421-2.668-.935-3.19-2.004-2.036-5.432-16.216-5.548-22.95-.122-7.15-1.435-11.523-12.53-41.728-2.217-6.034-3.658-11.466-3.294-12.414.414-1.079.255-1.444-.44-1.014-.666.411-1.724-1.246-2.732-4.281-1.118-3.366-2.08-4.786-3.003-4.432-1.109.426-1.014 1.522.522 5.984 1.033 3.004 2.717 6.682 3.742 8.174 2.893 4.211 6.214 12.757 6.628 17.062.207 2.144.714 4.964 1.127 6.266.666 2.098.568 2.215-.866 1.025-.89-.739-1.919-2.985-2.286-4.992-.368-2.008-1.28-4.538-2.027-5.623-.747-1.084-1.358-2.774-1.358-3.753 0-.98-.9-3.46-2-5.513-1.1-2.052-2-4.265-2-4.917 0-.652-1.575-4.92-3.5-9.484-1.925-4.565-3.5-8.891-3.5-9.615 0-.723-.677-2.349-1.505-3.613-.828-1.263-4.826-11.935-8.885-23.715-4.058-11.779-7.881-22.684-8.494-24.232-.614-1.548-1.116-3.185-1.116-3.636 0-1.379-9.254-23.128-9.666-22.717-.211.212 2.04 6.636 5.004 14.277 6.656 17.16 10.688 28.805 10.58 30.559-.12 1.971-2.933-4.863-4.562-11.087-1.55-5.919-7.111-17.081-8.51-17.081-1.48 0-4.843-6.354-4.763-9 .041-1.375.302-1.937.579-1.25.278.687.865 1.25 1.304 1.25.922 0-.779-5.256-4.23-13.071-1.319-2.986-3.165-8.129-4.101-11.429-.937-3.3-2.39-8.025-3.229-10.5-.839-2.475-2.585-8.55-3.88-13.5-1.295-4.95-4.596-15.075-7.336-22.5-2.74-7.425-5.539-15.525-6.219-18-.681-2.475-2.571-8.325-4.202-13-1.63-4.675-3.395-10.075-3.922-12-.527-1.925-2.081-6.83-3.452-10.901-1.371-4.07-2.274-7.971-2.007-8.667.267-.697-.131-1.503-.886-1.793-.754-.289-1.354-1.789-1.332-3.333.021-1.543-1.193-5.506-2.698-8.806-1.505-3.3-3.741-9.6-4.969-14-2.338-8.38-8.151-20.357-17.958-37-4.801-8.148-7.545-13.527-7.55-14.803-.002-.658-1.406-4.797-3.119-9.197-3.65-9.376-5.895-17.5-4.837-17.5.411 0 1.031.739 1.378 1.643.346.904.873 1.401 1.169 1.104.296-.296-1.458-4.523-3.9-9.393-2.441-4.87-5.649-12.004-7.128-15.854-1.48-3.85-4.637-11.956-7.017-18.012-2.379-6.057-5.709-16.303-7.4-22.769-3.133-11.981-10.131-28.141-14.436-33.337-1.313-1.585-2.65-3.782-2.971-4.882-.32-1.1-2.625-9.2-5.122-18-2.496-8.8-7.969-27.025-12.161-40.5-4.191-13.475-8.224-26.75-8.96-29.5-5.659-21.135-10.417-32.04-28.8-66-9.524-17.595-9.19-17.018-14.786-25.5-2.721-4.125-5.897-9.525-7.056-12-2.035-4.346-8.626-11.556-9.639-10.544-.272.273.083 1.192.79 2.044.707.852 1.071 1.762.81 2.024-.262.261-1.871-1.261-3.576-3.383-4.751-5.912-15.231-10.198-16.547-6.767M547.5 58.373l-3 1.283 5.5.663c3.025.365 7.75.658 10.5.65l5-.013L563 59c-2.944-2.303-10.834-2.622-15.5-.627m-16.772 5.349c1.775.221 4.925.224 7 .008 2.074-.217.622-.397-3.228-.402-3.85-.004-5.548.173-3.772.394m8.993 489.028c-.958 3.712-3.058 11.025-4.666 16.25-2.477 8.051-9.414 32.315-13.293 46.5-1.152 4.214-7.222 21.591-8.731 25-1.772 4.001-5.98 18.214-7.993 27-1.967 8.586-4.674 15.616-6.288 16.333-.413.184-.75 1.676-.75 3.316s-.491 3.901-1.092 5.023c-.6 1.122-1.238 4.58-1.418 7.684-.179 3.104-1.064 8.457-1.966 11.895-.902 3.439-1.356 6.712-1.008 7.275.348.563.262.959-.192.88-1.859-.323-2.745.175-1.603.9.948.603.96 1.625.05 4.59-.98 3.191-1.305 3.511-1.992 1.959-.65-1.471-.724-1.36-.356.536.255 1.315-.201 4.983-1.012 8.152-.812 3.168-1.39 6.142-1.285 6.609.105.466-.087 1.523-.427 2.348-.71 1.721-2.979 10.152-9.477 35.216-4.467 17.232-4.543 17.772-2.768 19.733 1.471 1.625 3.009 1.999 7.935 1.93 7.196-.1 9.856-.673 9.067-1.951-.316-.51.465-.921 1.735-.913 1.704.012 1.948.244.931.889-.758.48-1.099 1.325-.757 1.878.342.552-.613 1.293-2.122 1.646-1.509.352-4.093 1.179-5.743 1.836l-3 1.194 4 .792c5.564 1.101 15.824.843 16.603-.417.45-.728.844-.728 1.293-.001.617.998 3.668.864 5.455-.24 1.824-1.127 15.149-1.789 15.149-.753 0 .574-.498 1.351-1.107 1.727-.771.477-.696.944.25 1.544 1.792 1.135 4.009 1.088 5.857-.125 1.333-.876 1.333-1.094 0-1.97-2.09-1.372.496-1.355 3.066.02 1.333.714 1.934.714 1.934 0 0-.569.477-1.035 1.059-1.035s.781.45.441 1 .276 1 1.37 1c1.093 0 2.662.675 3.487 1.5.825.825 2.095 1.507 2.822 1.515.985.012.939.283-.179 1.066-1.584 1.109-.676.995 4.875-.609 1.645-.475 2.161-.339 1.677.444-.493.798.427.973 3.124.594 9.063-1.275 20.518-2.622 29.824-3.508 13.743-1.309 46.929-5.183 47.316-5.523.174-.153-1.009-3.136-2.63-6.629-1.621-3.492-4.153-11.2-5.626-17.127-1.474-5.927-4.474-16.277-6.668-23-5.478-16.786-7.892-25.666-7.892-29.024 0-1.563-.675-3.517-1.5-4.342-.825-.825-1.5-2.503-1.5-3.728 0-1.226-.404-2.657-.898-3.179-.494-.523-2.296-5.225-4.005-10.45-3.596-10.999-4.55-13.774-5.648-16.424-.709-1.713-.558-1.685 1.377.25 1.196 1.196 2.174 2.822 2.174 3.615 0 .793.415 1.698.923 2.011.508.314 1.219 1.92 1.581 3.568.363 1.649 1.07 2.743 1.574 2.432.514-.318.262-1.828-.578-3.451-.82-1.587-1.901-5.777-2.402-9.311-.5-3.534-1.644-7.845-2.541-9.58-1.103-2.133-1.333-3.688-.71-4.801 2.068-3.696-8.35-33.292-11.731-33.324-1.15-.011-1.264-.239-.395-.791.886-.563.962-1.723.276-4.235-.519-1.902-1.642-6.044-2.497-9.205-.854-3.16-2.816-7.21-4.36-9-1.544-1.789-3.864-5.167-5.157-7.504-1.293-2.337-2.69-4.25-3.103-4.25-1.209 0-6.918-11.913-9.1-18.99-1.104-3.58-3.082-8.633-4.394-11.227-1.312-2.594-2.386-5.413-2.386-6.263 0-.851-.412-2.329-.916-3.284-.504-.955-1.655-3.434-2.558-5.509-.922-2.119-2.102-3.489-2.691-3.125-.665.411-.819-.078-.419-1.336.751-2.368-.256-5.483-1.521-4.701-.492.304-.895-.824-.895-2.506 0-5.074-1.431-3.462-3.279 3.691m.551 7.716c-.664 2.163-1.009 4.13-.767 4.372.689.69 2.61-5.002 2.275-6.743-.166-.859-.844.208-1.508 2.371M822 586.383c0 1.073 2.975 6.617 3.551 6.617.275 0-.243-1.462-1.152-3.25-1.857-3.65-2.399-4.411-2.399-3.367m12.033 20.32c-.05 1.82 2.173 6.297 3.128 6.297.461 0 .839-.625.839-1.389 0-1.721-3.921-6.572-3.967-4.908m-256.969 29.398c-.035.33.417 1.982 1.006 3.67 1.012 2.903 3.93 5.277 3.93 3.198 0-.533-.368-.969-.819-.969-.45 0-1.546-1.462-2.436-3.25-.889-1.788-1.646-2.98-1.681-2.649m265.953 8.649c.029 1.315 4.877 13.795 4.931 12.694.068-1.376-4.007-13.444-4.54-13.444-.224 0-.401.337-.391.75M584.066 658c.003.825.683 2.625 1.511 4l1.506 2.5-.662-2.5c-.365-1.375-1.045-3.175-1.512-4-.754-1.333-.848-1.333-.843 0m266.032 9.25c2.151 5.457 2.902 6.775 2.902 5.095 0-2.132-3.239-10.345-4.079-10.345-.491 0 .039 2.362 1.177 5.25m5.319-.794c.842 2.014 2.498 4.872 3.68 6.352l2.151 2.692-.719-2.5c-1.256-4.368-3.983-9.377-5.335-9.798-1.013-.315-.963.414.223 3.254M589 672.179c0 1.965 2.351 7.821 3.14 7.821.406 0 .049-2.025-.795-4.5-1.513-4.442-2.345-5.62-2.345-3.321M855.579 680c.365 1.375 1.045 3.175 1.512 4 .754 1.333.848 1.333.843 0-.003-.825-.683-2.625-1.511-4l-1.506-2.5.662 2.5m-366.933 95.143c-1.571 5.719-3.037 14.587-2.284 13.819.772-.786 4.699-18.234 4.214-18.719-.252-.252-1.12 1.953-1.93 4.9m65.645 28.482c1.03 1.029 13.669 1.331 16.024.382 1.5-.604-.765-.9-7.232-.944-5.179-.034-9.135.218-8.792.562M951.07 928.624c-.038.619.625 3.094 1.475 5.5.85 2.407 2.666 8.876 4.037 14.376 2.976 11.941 9.438 32.813 9.989 32.262.399-.398-3.583-15.646-6.205-23.762-.799-2.475-2.531-8.325-3.849-13-2.715-9.635-5.342-17.049-5.447-15.376m19.62 66.876c.334 1.65.962 3.9 1.395 5l.788 2 .019-2c.01-1.1-.618-3.35-1.396-5l-1.414-3 .608 3m-4.21 1.5c.392 1.925 1.345 4.807 2.117 6.404.771 1.597 1.403 3.734 1.403 4.75 0 1.015.398 1.846.883 1.846.486 0 1.143.993 1.461 2.206.317 1.214.843 1.94 1.169 1.614.55-.55-6.071-18.706-7.228-19.82-.285-.275-.198 1.075.195 3m6.563 6c-.01.275 1.523 5.9 3.407 12.5 3.991 13.978 4.74 13.774 1.003-.273-2.141-8.046-4.341-14.145-4.41-12.227m5.363 26.332c.327 1.007.594 2.046.594 2.309 0 .262.408.225.907-.083.498-.309.67.344.381 1.45-.29 1.106.427 4.228 1.593 6.937 1.165 2.709 2.125 5.742 2.132 6.74.007.998 1.096 4.065 2.421 6.815 3.514 7.296 3.284 2.509-.398-8.3-1.631-4.785-3.492-10.725-4.136-13.2-.644-2.475-1.39-3.887-1.657-3.137-.41 1.151-.637 1.151-1.458 0-.733-1.025-.827-.909-.379.469m3.243 28.903c-.375 1.432.212 3.405 1.633 5.493 3.988 5.858 4.523 3.771 1.149-4.478-1.571-3.843-2.002-4-2.782-1.015m-593.568 51.614c-1.303 2.435-1.412 5.151-.206 5.151.92 0 2.447-6.012 1.713-6.745-.234-.235-.912.483-1.507 1.594m-4.557 34.508c-.288.904-.735 2.318-.993 3.143-.257.825-.246 1.5.025 1.5.765 0 2.564-5.213 1.996-5.782-.278-.277-.741.235-1.028 1.139m-3.788 14.19c-.328 1.624-.94 3.853-1.36 4.953-.679 1.778-.597 1.833.736.5 2.11-2.11 2.725-4.182 1.915-6.453-.597-1.677-.78-1.536-1.291 1m-3.622 15.913c-.64 2.545-1.553 4.387-2.027 4.094-.475-.294-1.047.723-1.273 2.259-.299 2.035.025 2.825 1.196 2.913 1.147.086 2.053-1.547 3.167-5.705.859-3.204 1.233-6.357.832-7.007-.426-.689-1.214.745-1.895 3.446M372 1192.059c0 .582-.45.781-1 .441s-1 .047-1 .859c0 .813-.261 2.156-.579 2.986-.435 1.133-.061 1.374 1.5.965 1.499-.392 2.079-1.348 2.079-3.427 0-1.585-.225-2.883-.5-2.883s-.5.477-.5 1.059m-2.012 10.963c-.81 1.514-.852 2.514-.136 3.23.716.716 1.246.205 1.713-1.654.87-3.469-.064-4.403-1.577-1.576m-5.907 24.827c-1.312 2.451-1.356 3.151-.198 3.151.911 0 2.335-4.116 1.658-4.792-.208-.209-.865.53-1.46 1.641m424.102 8.237c.288.778 1.771 5.239 3.295 9.914 2.854 8.756 4.543 11.932 4.495 8.45-.015-1.072-1.365-5.087-3-8.921-1.635-3.834-2.973-7.52-2.973-8.191 0-.671-.526-1.545-1.17-1.943-.742-.459-.979-.206-.647.691M786.579 1247c.365 1.375 1.045 3.175 1.512 4 .754 1.333.848 1.333.843 0-.003-.825-.683-2.625-1.511-4l-1.506-2.5.662 2.5m-428.418 4.547c-1.385 3.039-1.551 5.279-.29 3.903.906-.988 2.437-6.45 1.809-6.45-.198 0-.881 1.146-1.519 2.547m-9.817 12.703c-.672 2.179-.764 3.75-.219 3.75 1.303 0 2.096-2.41 1.704-5.177-.276-1.947-.516-1.715-1.485 1.427m-1.402 8.401c-.554 1.459-.861 3.092-.682 3.629.179.537.827-.656 1.439-2.652 1.287-4.192.736-4.903-.757-.977m1.261 12.605c-.573.69-1.34 2.603-1.703 4.25-.365 1.652-.289 2.501.169 1.894.457-.605 1.458-1.302 2.225-1.548.766-.246 1.523-1.664 1.681-3.15.309-2.889-.676-3.49-2.372-1.446m-23.752 113.494c-.715 4.188-3.137 12.253-6.833 22.75-1.356 3.85-2.739 8.8-3.075 11-.381 2.495.381.99 2.025-4 1.45-4.4 3.301-8.75 4.113-9.666 2.279-2.571 5.119-12.804 5.164-18.609.048-6.144-.499-6.722-1.394-1.475m507.545 26.754c-2.381 2.534-4.704 3.451-3.401 1.341.456-.737.273-.882-.507-.399-.672.415-.955 1.021-.629 1.347.326.325-1.782 3.068-4.683 6.095-4.799 5.005-4.147 5.539.81.664 1.147-1.129 4.218-4.005 6.826-6.393 2.607-2.387 4.558-4.523 4.335-4.746-.223-.223-1.461.718-2.751 2.091m-520.897 17.67c-2.267 6.71-2.107 9.174.231 3.578 1.675-4.009 3.054-9.752 2.341-9.752-.268 0-1.426 2.778-2.572 6.174m-4.474 14.951c-.937 3.371-1.524 6.309-1.304 6.529.22.22 1.173-2.352 2.117-5.716.943-3.365 1.53-6.303 1.303-6.53-.226-.227-1.179 2.346-2.116 5.717m-45.418 154.389c-1.417 5.301-1.543 7.68-.289 5.486.928-1.625 2.501-10 1.877-10-.209 0-.924 2.031-1.588 4.514m4.387 3.164c-.877 2.573-1.601 5.611-1.609 6.75-.008 1.14-.7 4.042-1.539 6.45-.838 2.407-1.31 4.591-1.049 4.853.503.502 5.111-13.961 6.208-19.481.945-4.759-.174-3.964-2.011 1.428m-6.594 4.607c0 .979-2.734 11.017-3.577 13.129-.481 1.207-.389 1.683.248 1.289 1.282-.792 4.787-13.578 3.952-14.413-.343-.343-.623-.345-.623-.005" fill-rule="evenodd"/></svg>