<svg xmlns="http://www.w3.org/2000/svg" width="1240" height="1753"><path d="M448 37.168c0 .532-.922.674-2.048.317-1.126-.358-2.589-.224-3.25.296s-3.108 1.237-5.438 1.592c-3.856.588-8.73 2.314-13.619 4.823-1.279.656-1.648.618-1.191-.122.37-.598-.06-1.074-.969-1.074-2.675 0-13.687 11.118-13.129 13.254.264 1.008.05 3.276-.475 5.039-.525 1.764-1.619 10.407-2.431 19.207-.813 8.8-2.157 21.175-2.988 27.5-.832 6.325-1.788 14.088-2.126 17.25-.337 3.162-.942 5.75-1.343 5.75-.682 0-1.502 3.718-2.645 12-.521 3.775-3.226 10.043-4.848 11.235-.55.404-1.957.741-3.128.75-1.17.008-2.667.665-3.327 1.46-.659.795-3.527 2.208-6.372 3.141-2.845.932-6.303 2.486-7.683 3.452-1.381.966-5.309 2.675-8.729 3.798-6.924 2.273-17.9 7.314-23.288 10.694-1.939 1.217-5.082 2.555-6.985 2.973-1.902.417-4.535 1.464-5.85 2.326-1.315.862-4.905 2.416-7.978 3.453-3.073 1.038-6.744 2.71-8.158 3.716-1.413 1.007-4.354 2.15-6.536 2.54-2.181.391-6.441 2.187-9.466 3.992-3.025 1.804-9.325 5.141-14 7.415-10.318 5.018-15.173 7.923-18.772 11.23-1.5 1.378-4.178 3.077-5.951 3.776-1.772.698-4.334 2.232-5.693 3.409-1.359 1.177-4.585 3.715-7.168 5.64-9.245 6.888-19.06 15.464-27.916 24.39-8.975 9.046-11.588 12.094-17.67 20.61-1.767 2.475-3.577 4.65-4.022 4.833-.444.184-.808.923-.808 1.643 0 .721-.656 1.562-1.457 1.869-.802.308-2.642 2.435-4.089 4.727-1.447 2.293-3.83 5.352-5.296 6.798-2.25 2.219-4.877 6.236-12.648 19.333-4.723 7.962-10.066 16.132-12.079 18.473-1.336 1.553-2.429 3.387-2.43 4.074 0 .688-.407 1.25-.903 1.25-.496 0-1.375 1.355-1.952 3.011-.578 1.657-3.772 7.466-7.098 12.91-3.326 5.445-6.048 10.389-6.048 10.989 0 .599-.42 1.09-.933 1.09-.513 0-1.249 1.012-1.636 2.25-.388 1.238-1.756 3.507-3.04 5.044-2.497 2.987-9.69 17.595-11.919 24.206-3.961 11.748-5.645 16.115-7.023 18.219-2.299 3.508-8.915 22.722-10.943 31.781-.985 4.4-2.627 10.573-3.649 13.718-1.021 3.146-1.857 6.371-1.857 7.167 0 .797-.338 1.598-.75 1.782-.969.43-5.793 12.359-6.706 16.583-.387 1.788-1.119 3.25-1.627 3.25s-.836 2.588-.729 5.75c.233 6.851-1.497 15.884-4.345 22.696-1.137 2.72-2.73 7.22-3.54 10-.811 2.78-2.146 6.106-2.968 7.391-.822 1.285-1.232 2.599-.911 2.92.32.321-.026 1.519-.769 2.663-1.148 1.766-2.466 8.244-4.224 20.763-.207 1.475-1.084 5.975-1.95 10-1.931 8.982-3.151 15.624-5.017 27.317-.79 4.95-1.683 10.125-1.983 11.5-.503 2.295-1.59 21.255-2.954 51.5-.312 6.927-.174 11.436.327 10.666 2.167-3.331 2.369 6.681.215 10.704-.508.951-1.239 4.631-1.623 8.179-.385 3.548-1.299 7.141-2.032 7.985-2.779 3.198-4.761 47.782-2.478 55.742.565 1.972.571 3.037.013 2.693-.53-.328-.69.832-.376 2.73 1.342 8.112.681 47.866-.813 48.891-1.593 1.093-3.721 19.246-3.212 27.41l.965 15.5c.257 4.125.664 9.3.904 11.5.241 2.2.736 7.6 1.1 12 .364 4.4 1.109 10.025 1.654 12.5.546 2.475 1.443 9.675 1.994 16 .551 6.325 1.232 13.627 1.514 16.227.388 3.59.107 5.13-1.17 6.407-1.222 1.222-1.589 2.978-1.345 6.429.185 2.612-.001 4.54-.414 4.284-.413-.256-.75-1.338-.75-2.406S52.55 932 52 932s-1-1.004-1-2.232c0-1.942-.295-1.78-2.268 1.25-1.854 2.846-2.227 4.67-2.041 9.982.437 12.506.965 17.516 2.062 19.553 2.041 3.788 3.977 33.653 2.387 36.813-2.788 5.538-3.708 19.108-2.553 37.634.292 4.675.689 12.662.883 17.748.416 10.883 1.296 16.807 3.01 20.252.684 1.375 1.522 4.975 1.863 8 .341 3.025.842 6.85 1.114 8.5 1.216 7.381 2.207 23.926 2.036 34-.103 6.05.171 13.7.607 17 2.515 19.016 5.123 36.448 5.91 39.5a102.747 102.747 0 0 1 1.494 7c.325 1.925 1.282 6.425 2.127 10 .845 3.575 2.38 10.775 3.412 16 1.031 5.225 2.298 11.3 2.815 13.5.517 2.2 1.403 6.25 1.969 9 .566 2.75 2.182 7.475 3.592 10.5 1.409 3.025 2.566 6.063 2.571 6.75.006.688.348 1.254.76 1.258.922.009 3.25 4.873 3.25 6.79 0 .77.628 2.818 1.396 4.551 1.682 3.797 3.598 13.626 3.619 18.568.018 4.156 1.279 6.637 2.873 5.652.649-.401 1.112.02 1.112 1.012 0 .934.712 2.219 1.581 2.855.87.636 2.185 3.835 2.922 7.11.738 3.275 2.919 10.679 4.848 16.454 6.076 18.196 6.755 20.392 7.728 25 1.239 5.868 4.008 13.154 5.632 14.82.707.726 1.574 2.526 1.925 4 .352 1.474 1.117 3.284 1.7 4.021.583.738.964 2.777.846 4.532-.119 1.754 1.142 7.413 2.801 12.575 1.66 5.162 3.017 9.79 3.017 10.283 0 1.107 4.111 10.394 7.866 17.769 5.395 10.597 11.342 21.509 12.234 22.45.495.523.9 1.687.9 2.587 0 .901 1.906 4.298 4.235 7.55 4.075 5.69 6.332 9.495 9.439 15.913.799 1.65 1.887 3.675 2.418 4.5.531.825 1.74 2.805 2.687 4.4.946 1.594 3.521 5.665 5.721 9.046 2.2 3.381 4.639 7.364 5.419 8.851.78 1.487 1.793 2.703 2.25 2.703.457 0 .831.675.831 1.5s.348 1.5.773 1.5c.425 0 1.566 1.474 2.536 3.275s3.322 4.976 5.227 7.055c1.905 2.08 3.464 4.043 3.464 4.364 0 .32 1.687 2.458 3.75 4.749 2.062 2.292 6.218 7.068 9.235 10.612 8.064 9.475 27.479 28.797 35.484 35.313 3.834 3.12 8.559 6.103 10.5 6.63 5.481 1.484 15.042 9.173 17.164 13.803 1.746 3.809 5.727 7.556 12.367 11.641 1.65 1.016 3.754 2.569 4.676 3.452.923.883 3.173 2.628 5 3.878 9.995 6.833 14.824 10.708 14.824 11.896 0 .733.477 1.332 1.06 1.332.583 0 3.395 2.153 6.25 4.784 9.298 8.572 26.34 20.548 47.19 33.163 6.765 4.094 31.345 16.268 38.5 19.069 1.925.754 3.736 1.708 4.024 2.12.662.948 21.976 10.933 21.976 10.295 0-.259 1.753.423 3.896 1.516 2.142 1.093 7.205 2.885 11.25 3.983 4.045 1.098 13.429 4.533 20.854 7.634 24.189 10.101 33.391 13.441 40 14.519 3.575.583 8.127 1.478 10.116 1.989 1.989.51 4.576.928 5.75.928 1.174 0 2.134.398 2.134.883 0 .486 1.013 1.124 2.25 1.418 1.237.295 4.275 1.307 6.75 2.251 2.699 1.03 7.903 1.807 13 1.941 8.366.221 20.103 1.761 27.03 3.546 1.941.5 10.716.637 19.5.304 8.783-.332 16.87-.555 17.97-.495 21.487 1.175 30.59 1.444 49.5 1.462 22.954.023 32.079-1.031 40.224-4.645 1.802-.8 5.751-2.197 8.776-3.106 3.025-.909 6.175-1.917 7-2.24.825-.323 2.625-.707 4-.852 5.477-.579 19.711-4.265 23.005-5.958 1.922-.988 4.801-3.065 6.398-4.617 1.597-1.551 3.279-2.588 3.739-2.304.459.284.596-.107.304-.869-.323-.84 1.316-2.825 4.167-5.045 3.66-2.852 5-3.41 6.065-2.526.753.624 1.102 1.97.777 2.993-1.046 3.298 2.253 2.09 6.255-2.289 6.259-6.849 8.619-8.805 11.944-9.903 1.743-.575 3.42-1.699 3.726-2.497.307-.799 1.212-1.452 2.012-1.452s2.83-1.157 4.511-2.572c1.681-1.414 3.433-2.338 3.894-2.053.461.285 5.159-1.669 10.44-4.342 5.281-2.673 9.863-4.599 10.183-4.28.319.319.58-.02.58-.753s.291-1.042.648-.686c.856.857 8.409-3.413 7.795-4.406-.262-.423.051-1.095.695-1.493.731-.452.903-.291.457.43-.392.635-.418 1.155-.058 1.155 1.109 0 6.463-3.391 6.463-4.094 0-.364 2.813-1.653 6.25-2.864 3.438-1.212 7.038-2.62 8-3.131 2.557-1.356 2.153.569-.5 2.385-2.168 1.483-2.12 1.511 1.309.77 1.957-.423 4.882-1.612 6.5-2.643 5.325-3.392 14.441-12.01 14.441-13.652 0-.516.553-.753 1.228-.528.676.225 1.688.042 2.25-.408.562-.449 4.397-3.283 8.522-6.298s7.992-5.897 8.594-6.403c.602-.507 2.448-1.621 4.103-2.477 3.978-2.057 22.842-16.314 27.389-20.699 11.867-11.446 17.971-16.958 18.781-16.958 1.217 0 19.392-18.029 30.317-30.074 10.199-11.245 16.766-19.972 30.418-40.426 10.996-16.474 11.639-17.606 19.891-35 3.131-6.6 6.537-13.639 7.568-15.643 1.032-2.004 3.019-6.729 4.417-10.5 1.398-3.771 2.94-7.757 3.428-8.857 2.056-4.634 4.91-12.383 6.536-17.748.959-3.162 2.151-6.001 2.65-6.309.5-.309.908-1.507.908-2.664 0-2.096 1.513-7.827 5.106-19.349 2.195-7.037 2.415-11.053.644-11.768-.747-.301-.545-.536.5-.583 1.755-.079 2.235-1.594 1.86-5.877-.11-1.264 1.441-7.564 3.449-14 2.007-6.436 4.3-13.797 5.094-16.358.795-2.561 1.519-6.499 1.609-8.75.09-2.252.517-4.094.95-4.094.434 0 .788-1.323.788-2.941 0-3.119 1.492-4.925 2.326-2.815.273.691.28-.994.014-3.744-.492-5.099 1.508-14.308 5.539-25.5 1.649-4.58 1.982-4.998 1.987-2.5.003 1.65-.577 5.7-1.289 9s-1.109 6.212-.882 6.471c.703.801 2.276-2.27 3.428-6.691.604-2.321 1.724-4.738 2.488-5.372.764-.634 1.389-1.971 1.389-2.971 0-1.001.392-2.061.87-2.357 1.632-1.008 5.104-12.066 5.602-17.844.273-3.17.767-6.839 1.097-8.153.374-1.493.088-2.707-.764-3.236-.749-.466-1.84-1.962-2.425-3.324-1.037-2.419-1.099-2.371-2.642 2l-1.58 4.477-.079-4.628c-.082-4.816 2.241-11.872 3.909-11.872.536 0 .696 1.331.362 3-1.038 5.189 2.061 3.652 3.502-1.737.697-2.605 1.943-5.484 2.769-6.397 2.36-2.608 4.382-16.811 2.931-20.592-.565-1.472-.793-1.507-1.59-.246-.729 1.153-.935 1.178-.947.115-.008-.748-.642-1.116-1.412-.821-.91.349-1.564-.339-1.876-1.972-.3-1.565.035-2.705.891-3.034.754-.289 1.09-.979.748-1.533-.342-.553-.057-1.356.634-1.783.691-.427.921-1.318.512-1.98-.803-1.299-.733-23.223.085-26.524.416-1.681-.903-2.698-8.175-6.305-8.557-4.243-8.696-4.274-10.487-2.352-.998 1.071-1.542 2.221-1.208 2.555.333.333.157.606-.391.606-.549 0-1.6-1.125-2.336-2.5-.736-1.375-1.712-2.5-2.169-2.5-.457 0-.837-.562-.844-1.25-.013-1.259-14.828-11.432-16.078-11.04-.369.116-1.469-.672-2.445-1.75-1.368-1.512-3.083-1.96-7.497-1.96-3.779 0-6.131-.492-6.926-1.45-.662-.798-3.604-2.806-6.538-4.462-4.979-2.809-5.709-2.95-10.934-2.099-3.079.501-6.003 1.161-6.498 1.467-.495.306-1.078.023-1.296-.63-.258-.775-1.066-.896-2.335-.347-1.067.461-2.335.748-2.817.637-.781-.179-3.138-.406-14.096-1.358-1.636-.142-3.773-1.045-4.75-2.008-.978-.962-3.014-1.753-4.527-1.756-1.513-.004-4.1-.718-5.75-1.588-2.903-1.531-8.584-1.462-12.795.154-1.274.489-1.705.122-1.705-1.453 0-1.419-.634-2.107-1.941-2.107-1.068 0-2.187-.398-2.488-.885-.943-1.525-6.535-1.863-7.696-.465-.875 1.055-1.409.912-2.744-.737-2.992-3.694-19.131-2.574-19.131 1.327 0 1.248-2.625 3.76-3.929 3.76-.589 0-1.071-.45-1.071-1s-.498-1-1.107-1-.848.675-.531 1.5c.316.825.139 1.5-.393 1.5-.533 0-.969-.675-.969-1.5 0-1.794-3.111-1.989-4.8-.3-.933.933-1.2.6-1.2-1.5 0-1.485-.42-2.7-.933-2.7-.513 0-1.232-.944-1.598-2.098-.499-1.572-1.273-1.981-3.091-1.634-1.334.255-2.667.074-2.961-.402-.294-.476-1.633-.866-2.976-.866-1.644 0-2.453-.571-2.477-1.75-.045-2.186-3.704-6.6-6.801-8.203-3.142-1.627-11.403-.432-14.645 2.118-3.66 2.879-14.158 18.295-16.14 23.702-3.067 8.366-8.435 22.244-9.265 23.955-.448.923-2.225 4.422-3.948 7.777-1.724 3.354-2.841 6.392-2.483 6.75.358.358.126.651-.515.651-.642 0-1.167.9-1.167 2s-.45 2-1 2-1 .685-1 1.522c0 .836-1.613 5.648-3.584 10.693-1.971 5.044-3.993 11.447-4.492 14.228-1.132 6.296-2.861 12.39-6.971 24.557-1.764 5.225-3.375 10.802-3.578 12.394-.203 1.592-.785 3.395-1.292 4.006-.508.612-2.231 4.935-3.83 9.606-2.066 6.035-3.536 8.78-5.08 9.481-1.3.59-2.173 1.897-2.173 3.25 0 1.245-.45 2.263-1 2.263s-1 .48-1 1.067c0 .586-2.654 6.549-5.899 13.25-3.244 6.7-6.214 13.308-6.6 14.683-.997 3.548-5.585 12.934-6.642 13.587-.488.302-1.751 2.206-2.806 4.231-1.054 2.025-3.073 4.9-4.485 6.388-1.413 1.489-2.568 3.107-2.568 3.595 0 .489-.9 1.704-2 2.699-1.1.995-2 2.19-2 2.655 0 .948-6.574 7.467-19.506 19.345-4.79 4.4-10.749 9.933-13.242 12.297-2.492 2.363-5.931 5.004-7.642 5.87-1.71.866-3.939 2.307-4.952 3.204-3.438 3.041-13.666 8.588-20.658 11.204-1.925.72-5.075 2.307-7 3.527-1.925 1.221-5.525 2.535-8 2.922-2.475.386-5.005 1.109-5.623 1.606-1.29 1.038-4.377.124-4.377-1.296 0-.524.45-.674 1-.334s1 .145 1-.433c0-.696-2.284-.831-6.75-.4-13.497 1.303-28.932.466-30.232-1.638-.961-1.554-18.927-.801-23.518.985-1.832.713-8.451 1.126-17 1.062-11.902-.09-15.873-.558-26.5-3.119-6.875-1.658-16.775-3.932-22-5.054-11.139-2.393-24.058-6.425-28.982-9.046-1.915-1.019-5.065-2.138-7-2.486-1.935-.347-4.138-1.126-4.897-1.731-.758-.604-5.967-3.358-11.575-6.119-5.608-2.762-17.588-10.079-26.621-16.261-23.419-16.025-26.453-17.949-30.317-19.224-1.898-.627-5.173-2.383-7.279-3.903-2.106-1.521-6.754-4.25-10.329-6.065-13.246-6.726-14.594-7.494-19-10.821-2.475-1.869-6.214-6.089-8.308-9.377-2.095-3.287-4.477-6.234-5.293-6.547-.816-.313-2.43-2.427-3.586-4.696-1.156-2.27-3.094-5.477-4.306-7.127-1.213-1.65-3.24-6.375-4.505-10.5-1.264-4.125-3.978-12.675-6.031-19-4.995-15.391-8.491-27.325-9.959-34-.665-3.025-2.028-7.3-3.028-9.5-1.728-3.803-3.104-9.184-6.389-25-1.923-9.261-3.768-15.883-4.596-16.5-.892-.665-3.732-12.236-5.619-22.902a5304.388 5304.388 0 0 0-2.515-14.098c-1.154-6.394-2.639-15.987-3.25-21-.645-5.296-2.095-10.856-4.564-17.5-1.227-3.3-2.603-7.35-3.058-9-.455-1.65-1.775-6.15-2.933-10-1.166-3.878-2.53-12.454-3.058-19.228-.524-6.725-1.189-13.25-1.478-14.5-.949-4.101-2.774-23.179-2.636-27.549.094-2.986-.321-4.452-1.377-4.857-.831-.319-1.511-1.008-1.511-1.532s.462-.666 1.027-.317c.698.431.831-6.909.413-22.929-.337-12.96-.741-24.357-.897-25.326-.156-.969-.005-2.212.337-2.762.341-.55.853 1.7 1.138 5l.518 6 1.391-6c.968-4.175 1.326-11.475 1.177-24-.118-9.9-.376-34.425-.572-54.5-.365-37.276-1.109-51.38-2.659-50.421-.48.296-.873.062-.873-.52 0-.582.45-1.059 1-1.059s1-1.8 1-4c0-3.017-.397-4-1.617-4-1.256 0-1.47-.613-.958-2.75.362-1.513.846-5 1.074-7.75.327-3.927.236-4.356-.423-2-.706 2.525-.856 2.049-.942-3-.062-3.578.235-5.466.735-4.677.945 1.489 2.618-19.512 2.376-29.823-.251-10.75-.958-25.434-1.276-26.5-.163-.55.063-2.286.502-3.857.561-2.005.405-3.101-.521-3.674-.964-.595-1.029-1.176-.243-2.143.593-.729 1.104-4.926 1.135-9.326.032-4.4.33-11.15.663-15 1.384-16.005 1.798-37.805.704-37.129-1.19.735-1.359-1.943-.433-6.871.563-2.999.563-2.999 1.278-.5.544 1.9.705 1.42.67-2-.101-9.848 1.544-18.848 5.3-29 2.137-5.775 4.059-11.85 4.272-13.5.213-1.65.655-3.675.982-4.5.327-.825 1.013-6 1.524-11.5.512-5.5 2.295-15.175 3.963-21.5 1.668-6.325 3.338-13.525 3.709-16 .942-6.267 4.326-18.389 6.064-21.72.797-1.529 1.452-3.361 1.456-4.071.008-1.696 3.857-14.228 5.04-16.41 1.508-2.783 7.966-19.429 7.966-20.534 0-.561.677-1.582 1.504-2.268 3.097-2.57 9.041-13.802 13.501-25.511 5.668-14.878 14.805-29.492 18.436-29.484.702.002 1.121 6.489 1.243 19.25.232 24.267 1.35 46.748 2.324 46.748.411 0 .69 2.25.62 5-.07 2.751.154 5.113.499 5.25.719.286 1.674 7.087 2.423 17.25.284 3.85.685 8.8.891 11 .206 2.2.666 7.299 1.022 11.331.356 4.032 1.096 8.51 1.645 9.952.548 1.443 1.202 4.669 1.453 7.17.251 2.501.947 6.039 1.547 7.862 1.049 3.19 1.163 3.25 3.005 1.583 1.235-1.118 1.695-2.429 1.294-3.691-.41-1.292-.245-1.725.486-1.273.702.434 1.143-.343 1.207-2.125.089-2.529.164-2.587.75-.581.357 1.225 1.325 3.035 2.15 4.021.825.986 1.561 3.195 1.635 4.908.082 1.9 1.817 5.499 4.447 9.229 4.643 6.584 6.536 7.75 5.46 3.364-.647-2.638-.612-2.669.86-.75 1.728 2.252 2.065 4.5.675 4.5-.508 0-.25 1.35.573 3s2.165 3 2.982 3c.817 0 1.245.389.951.865-.294.476 2.568 4.432 6.36 8.792 5.957 6.848 7.631 8.159 12.313 9.635 8.135 2.564 14.43 3.834 22.744 4.588 4.699.427 9.072 1.51 11.71 2.9 3.312 1.746 5.883 2.22 12.05 2.22 4.312 0 8.268.399 8.79.887 2.425 2.262 16.094 3.53 39.7 3.681 13.612.087 24.75-.206 24.75-.65 0-.444 7.087-.795 15.75-.779 17.058.03 18.567-.122 25.105-2.524 2.395-.88 5.355-1.349 6.577-1.043 1.605.403 3.444-.462 6.612-3.108 2.413-2.017 4.541-3.208 4.729-2.646.347 1.043 7.188-2.082 10.416-4.759 1.283-1.064 1.456-1.781.661-2.739-.592-.714-1.47-1.055-1.952-.757-.481.297-.607-.157-.28-1.011.403-1.05-.005-1.573-1.261-1.616-1.328-.046-.976-.503 1.234-1.606 2.464-1.23 3.856-3.329 6.872-10.373 2.575-6.012 3.639-9.808 3.333-11.894-.247-1.685-.078-3.063.377-3.063 1.203 0 1.013-3.414-.26-4.687-.783-.783-.783-1.275 0-1.759.598-.37 1.087-2.435 1.087-4.589 0-3.009 1.404-6.269 6.053-14.055 5.785-9.686 6.986-12.806 3.642-9.462-1.39 1.39-1.525.956-1.369-4.398.178-6.076 1.548-6.937 1.951-1.226.256 3.641 2.057 3.709 2.561.098.185-1.332 1.251-3.408 2.369-4.613l2.031-2.191-2.119-2.694L672 558.73l-.09 2.385c-.072 1.891-.297 1.663-1.089-1.097-.674-2.35-.661-4.626.04-7 .741-2.513.677-6.518-.224-14.018-.694-5.775-1.154-12.75-1.022-15.5.132-2.75.263-8.264.291-12.253.033-4.691.582-8.062 1.553-9.545 1.226-1.871 1.519-6.788 1.592-26.747.117-32.181.087-33.37-1.012-40.955-.518-3.575-1.411-11-1.986-16.5-.574-5.5-1.302-11.8-1.618-14-.316-2.2-.805-6.925-1.086-10.5s-.924-6.928-1.43-7.45c-1.733-1.792-.908-2.325 5.331-3.447 8.051-1.448 49.925-1.014 51.871.537.759.605 3.16 1.421 5.337 1.814 2.312.417 5.197 1.927 6.939 3.63 1.641 1.604 3.742 2.916 4.67 2.916.929 0 2.248.675 2.933 1.5.685.825 1.687 1.5 2.227 1.5 1.459 0 10.591 4.722 13.63 7.047 1.454 1.113 6.468 4.929 11.143 8.481 4.675 3.552 10.075 7.976 12 9.832 6.631 6.39 14 14.192 14 14.822 0 .347 2.25 2.965 5 5.818 2.75 2.853 5 5.595 5 6.094 0 .498.45.906 1 .906s1 .567 1 1.26c0 .693 1.028 2.381 2.284 3.75 1.256 1.37 3.128 4.29 4.161 6.49 1.878 4.002 4.954 8.759 7.305 11.294.688.742 1.25 2.069 1.25 2.949 0 .88.769 2.449 1.708 3.487.94 1.038 2.471 4.224 3.403 7.079a271.201 271.201 0 0 0 3.716 10.469c1.112 2.903 2.021 5.498 2.021 5.766 0 .269.309 1.896.687 3.616.378 1.72.813 4.75.968 6.734.154 1.983.802 6.081 1.439 9.106.637 3.025 1.381 8.425 1.654 12 .272 3.575.719 8.075.993 10 .275 1.925.676 5.406.893 7.735.463 4.987 1.06 8.304 2.475 13.765.57 2.2 1.276 5.752 1.569 7.894.294 2.141.815 4.348 1.158 4.904.344.556.745 2.109.893 3.451.147 1.343 1.274 4.92 2.503 7.949 1.94 4.779 2.822 5.76 6.661 7.405 5.344 2.291 6.663 2.351 8.624.389 1.882-1.882 6.203-.252 6.955 2.625.49 1.874 8.343 5.885 11.513 5.881.917-.002 3.242-1.351 5.167-2.998 1.925-1.647 3.837-3.053 4.25-3.123.413-.07 1.2-.239 1.75-.377s1.418-.306 1.929-.375c.51-.069 1.565-.762 2.344-1.54.778-.779 2.902-1.65 4.72-1.937 1.817-.286 5.633-2.124 8.479-4.084 2.846-1.96 5.734-3.564 6.417-3.564.683 0 2.225-.54 3.427-1.201 1.201-.661 3.064-1.347 4.141-1.525 1.076-.179 2.306-.876 2.734-1.549.428-.674.785-.877.794-.452.008.425 1.028.11 2.265-.699 1.237-.81 3.15-1.328 4.25-1.152 1.1.177 2.45-.008 3-.41.55-.402 2.489-1.013 4.309-1.358 1.82-.345 6.095-1.96 9.5-3.588 3.405-1.629 8.328-3.237 10.941-3.575 2.612-.337 4.75-.994 4.75-1.458 0-.97 6.192-1.917 17-2.599 10.092-.636 12.88-1.038 17-2.447 1.925-.659 6.529-1.313 10.231-1.454 3.701-.141 7.301-.713 8-1.272 1.089-.872 7.635-1.432 15.469-1.322 1.211.017 2.425-.333 2.7-.777.274-.443 2.348-.66 4.61-.481 5.319.42 12.056-3.148 10.548-5.588-.314-.507-.168-1.073.324-1.258.492-.184 1.194-3.035 1.56-6.335 1.231-11.088 3.112-20.621 4.667-23.641.465-.903 1.04-3.153 1.278-5 .237-1.848 1.098-5.384 1.913-7.859 3.298-10.024 3.398-11.483 2.214-32.5-.372-6.6-1.055-12.392-1.517-12.872-.462-.479-.61-1.474-.327-2.21.282-.735-.013-3.718-.656-6.628-.643-2.909-1.383-6.415-1.644-7.79-1.199-6.311-8.688-35.124-10.137-39-.308-.825-.655-1.837-.772-2.25a8.623 8.623 0 0 0-.461-1.25 8.623 8.623 0 0 1-.461-1.25c-.117-.413-.471-1.425-.789-2.25-.317-.825-.808-2.85-1.091-4.5-.282-1.65-1.028-4.35-1.657-6-.628-1.65-1.102-3.117-1.052-3.26.05-.144-.605-1.606-1.455-3.25-.851-1.645-1.331-2.99-1.069-2.99.263 0-.099-1.917-.804-4.26-.705-2.343-1.096-4.818-.869-5.5.228-.682.036-1.24-.426-1.24-.96 0-2.803-4.11-3.797-8.468-.373-1.632-1.812-5.366-3.199-8.298-1.387-2.932-2.602-5.875-2.7-6.539-.097-.665-.954-2.318-1.904-3.674-.95-1.356-1.727-3.205-1.727-4.109 0-.903-1.004-2.918-2.23-4.478-1.836-2.333-5.996-10.264-6.926-13.202-.128-.402-1.084-1.632-2.125-2.732-1.041-1.1-2.713-3.575-3.715-5.5-1.002-1.925-4.337-6.995-7.413-11.266-3.075-4.272-5.591-8.025-5.591-8.341 0-.316-1.575-2.415-3.5-4.664-1.925-2.249-3.5-4.683-3.5-5.409s-.439-1.32-.975-1.32-1.898-2.025-3.025-4.5-2.489-4.5-3.025-4.5-.975-.868-.975-1.929c0-1.06-.675-2.603-1.5-3.428-.825-.825-1.5-1.982-1.5-2.572 0-.589-.477-1.071-1.059-1.071s-.803-.414-.491-.919c.313-.506-.206-1.694-1.153-2.641-.946-.947-1.818-2.382-1.936-3.189-.298-2.028-4.46-6.308-5.506-5.661-.47.29-.855.025-.855-.59s-.403-.869-.895-.565c-.493.305-1.153-.119-1.469-.941-.315-.822-1.262-1.494-2.105-1.494-.842 0-1.531-.45-1.531-1s-.605-1-1.345-1c-2.1 0-4.777-3.52-4.072-5.355.705-1.839-.555-2.177-2.375-.637-.655.555-1.031.765-.834.468.196-.297-2.845-3.673-6.758-7.502-14.794-14.475-16.184-15.851-18.803-18.627-3.372-3.572-4.573-4.484-8.313-6.316-1.65-.808-3.727-2.158-4.616-3-.889-.842-2.629-2.206-3.868-3.031-1.239-.825-4.038-2.85-6.22-4.5-2.182-1.65-5.391-3.98-7.132-5.178-1.74-1.199-5.189-4.033-7.664-6.299-4.986-4.566-14.615-12.023-15.524-12.023-.32 0-3.596-1.961-7.279-4.358-3.683-2.396-8.047-5.11-9.697-6.03-1.65-.92-4.35-2.554-6-3.631-1.65-1.078-3.675-2.228-4.5-2.558-.825-.329-6.45-3.037-12.5-6.018s-11.595-5.417-12.321-5.413c-.727.005-1.997-.667-2.822-1.492s-2.384-1.5-3.464-1.5-2.96-.626-4.178-1.392c-1.218-.765-4.465-1.688-7.215-2.051-2.75-.363-7.25-1.252-10-1.975-2.75-.724-7.7-1.865-11-2.537-3.3-.672-6.721-1.594-7.603-2.05-.882-.456-3.807-1.148-6.5-1.538-2.693-.39-5.347-1.056-5.897-1.48-.55-.424-3.475-1.048-6.5-1.387-3.025-.339-8.875-1.1-13-1.692-4.125-.593-11.325-1.197-16-1.343-4.675-.146-15.25-.843-23.5-1.548-10.278-.878-17.537-.992-23.06-.363-10.414 1.186-12.842.623-13.27-3.075-.182-1.569.163-3.157.766-3.529 1.377-.852 1.459-24.996.126-37.346-1.123-10.4-3.901-23.668-5.333-25.468-.558-.701-.737-1.552-.398-1.89.339-.339-.134-1.886-1.05-3.437-1.285-2.176-3.25-3.302-8.587-4.923-3.807-1.157-7.532-1.868-8.279-1.582-.746.287-2.062-.184-2.923-1.045-.979-.979-5.546-2.116-12.182-3.035-9.596-1.327-11.396-1.311-18.713.172-10.566 2.141-20.688 3.576-21.534 3.053-.683-.422-22.867-1.347-48.921-2.04-7.897-.21-14.52-.543-14.717-.741-.198-.197-3.862.051-8.142.553-8.405.984-9.928 1.006-18.283.268a863.39 863.39 0 0 0-12.534-.981c-3.868-.272-7.77-.778-8.671-1.123-.902-.346-2.603-.113-3.781.517-1.438.77-2.537.819-3.345.149-1.56-1.295-25.669-1.27-25.669.027m339 202.066c1.765 1.786 7 3.208 7 1.902 0-.497-1.013-1.122-2.25-1.391-1.237-.268-3.15-.835-4.25-1.258-1.782-.687-1.836-.605-.5.747M153.827 413.271c-2.021 1.798-3.974 4.465-4.34 5.926-.367 1.46-1.526 3.434-2.577 4.384-1.05.951-1.91 2.25-1.91 2.887s-1.15 3.542-2.556 6.456c-1.406 2.914-2.347 5.507-2.091 5.762.255.256.761-.469 1.123-1.611.362-1.141 1.234-2.075 1.936-2.075 1.643 0 4.16-2.871 5.035-5.744.541-1.774.356-2.118-.882-1.643-1.005.386-1.565.047-1.565-.947 0-2.096 2.037-3.224 3.002-1.662.528.853 1.352.007 2.556-2.622.978-2.135 2.29-4.557 2.916-5.382 1.13-1.488 3.693-7.001 3.255-6.999-.126 0-1.882 1.472-3.902 3.27m-38.253 22.586c-1.815 3.509-1.918 4.143-.672 4.143.982 0 3.379-6.052 2.676-6.755-.237-.237-1.139.939-2.004 2.612m-3.559 13.935c-.008.71-.915 2.258-2.015 3.438-1.1 1.181-2 3.375-2 4.877 0 1.501-.275 3.446-.611 4.323-.45 1.171-.18 1.427 1.018.967 1.39-.533 1.484-.24.636 1.989-.605 1.593-.626 2.614-.053 2.614 1.334 0 2.941-3.319 4.512-9.321.745-2.849 1.689-6.04 2.097-7.093.548-1.415.407-1.708-.541-1.122-.756.467-1.64.227-2.154-.586-.671-1.058-.877-1.078-.889-.086m304.36 119.605c1.074.862 1.622 2.169 1.282 3.055-.327.851-.158 1.548.374 1.548 1.925 0 .915-3.956-1.281-5.02-2.118-1.026-2.14-1.002-.375.417m1.954 9.187c-.489 1.275-.772 1.324-1.453.25-.661-1.042-.849-.977-.861.299-.008.899.773 1.84 1.735 2.091 1.299.34 1.75-.146 1.75-1.883 0-2.739-.328-2.952-1.171-.757m8.288 14.972c-.339.884-.588 2.583-.554 3.776.06 2.036.124 2.018 1.052-.308.807-2.022 1.159-2.205 1.921-1 .8 1.266.936 1.244.949-.152.008-.895-.607-2.144-1.368-2.775-1.071-.889-1.523-.785-2 .459m-109.005 20.141c-.889 4.842-1.615 10.461-1.614 12.488.001 2.027-.416 4.783-.926 6.126-.511 1.343-1.431 9.809-2.045 18.815-.614 9.006-1.557 18.174-2.096 20.374-1.229 5.02-1.826 9.253-2.467 17.5-1.072 13.779-2.987 32.613-3.913 38.5-1.096 6.96-1.776 47.243-.808 47.841.552.341 1.069 3.836 1.15 7.767.081 3.931.421 7.591.755 8.132.335.542.713 6.222.839 12.622.276 13.921 3.458 58.428 4.229 59.138.298.275.201-7.825-.215-18-.417-10.175-.872-22.325-1.011-27-.139-4.675-.531-11.875-.871-16-4.237-51.468-3.824-76.101 1.845-110 .874-5.225 2.003-15.125 2.509-22 .506-6.875 1.628-17 2.493-22.5.864-5.5 1.823-14.725 2.129-20.5.306-5.775 1.012-12.898 1.568-15.829.557-2.931.799-5.543.538-5.803-.261-.261-1.201 3.487-2.089 8.329m3.494 26.083c-1.886 17.17-1.858 16.87-2.603 27.72-.378 5.5-1.298 12.925-2.044 16.5-.746 3.575-1.843 12.125-2.438 19-.594 6.875-1.34 13.85-1.656 15.5-.398 2.076-.253 2.692.473 2 .577-.55 1.765-6.4 2.64-13 .876-6.6 2.229-15.825 3.007-20.5 1.335-8.015 1.67-11.49 3.067-31.769.314-4.547.737-9.133.94-10.189.589-3.06.875-16.008.365-16.519-.255-.255-1.043 4.811-1.751 11.257M310 751.882c0 3.903 1.437 4.79 1.707 1.053.114-1.578-.223-3.136-.75-3.461-.528-.327-.957.752-.957 2.408m.914 9.618c-.228 2.2.144 10.3.827 18 .682 7.7 1.447 20.014 1.698 27.365.252 7.351.767 13.651 1.144 14 1.159 1.072-.541-47.884-1.94-55.865-1.205-6.874-1.349-7.166-1.729-3.5m4.372 81c.008 2.75.202 3.756.432 2.236.229-1.52.223-3.77-.014-5-.237-1.23-.425.014-.418 2.764m-4.654 27c.355 3.3.808 6.188 1.007 6.417.87 1.003.23-9.569-.661-10.917-.678-1.027-.787.393-.346 4.5m2.812 36c1.058 17.955 2.575 27.252 1.957 12-.567-13.992-1.363-22.794-2.125-23.5-.297-.275-.221 4.9.168 11.5m2.892 38.5c0 4.125.177 5.813.392 3.75.216-2.062.216-5.437 0-7.5-.215-2.062-.392-.375-.392 3.75m5.437 2.75c.576 5.805 1.061 6.228 1.148 1 .043-2.612-.281-4.75-.72-4.75-.44 0-.632 1.688-.428 3.75m-4.33 23.25c.186 5.225.798 10.625 1.359 12 1.107 2.709.748-3.626-.877-15.5-.717-5.238-.778-4.794-.482 3.5m2.627 30.583c.047 4.583.345 6.242.884 4.917.816-2.007.479-10.4-.455-11.335-.275-.274-.467 2.614-.429 6.418m731.377 345.917c-.945 2.475-2.134 4.5-2.642 4.5s-.679.395-.381.877c.298.482-1.7 6.588-4.441 13.568-2.741 6.98-4.983 13.155-4.983 13.722 0 .567-.642 2.449-1.428 4.182-5.32 11.742-9.927 23.629-9.372 24.184.253.254 1.55-1.9 2.88-4.786 1.331-2.886 2.758-5.397 3.17-5.58.412-.184.75-1.164.75-2.179s.719-2.564 1.597-3.442c.879-.879 1.343-2.261 1.032-3.072-.312-.811-.13-1.474.402-1.474.533 0 .969-.9.969-2s.477-2 1.059-2 .769-.47.414-1.044c-.355-.574-.208-1.586.325-2.25.534-.663 1.301-2.745 1.703-4.625.721-3.367 4.773-13.579 8.63-21.749 1.978-4.188 3.605-11.332 2.583-11.332-.302 0-1.322 2.025-2.267 4.5m-6.921 4.45c-.839 1.623-1.526 3.778-1.526 4.789 0 1.011-.9 3.603-2 5.761s-1.984 4.615-1.964 5.461c.054 2.357 4.841-8.14 4.906-10.761.032-1.264.745-3.627 1.584-5.25.839-1.622 1.3-2.95 1.025-2.95-.275 0-1.186 1.328-2.025 2.95m-18.581 61.694c-.553 1.454-1.251 3.142-1.551 3.75-.301.608.388.044 1.53-1.255 1.142-1.298 2.076-2.986 2.076-3.75 0-2.207-.962-1.619-2.055 1.255m-3.366 8.92c-.86.86-1.986 1.302-2.502.983-1.522-.94-2.465 1.592-.955 2.565 1.156.745 1.136 1.047-.122 1.873-2.08 1.365-3.981 1.256-4.1-.235-.055-.687-.433-.125-.841 1.25s-.353 3.008.121 3.628c.556.727.17 1.309-1.085 1.637-1.264.33-2.384 2.039-3.194 4.872-.685 2.4-1.775 5.038-2.422 5.863-2.357 3.008-2.535 5-.448 5 2.189 0 2.666 2.455.719 3.7-1.471.941-3.75 4.805-3.75 6.358 0 1.395-2.538 3.942-3.929 3.942-1.566 0-1.308-2.62.429-4.357.825-.825 1.5-1.841 1.5-2.257 0-.416.934-1.751 2.075-2.966 1.142-1.215 1.685-2.45 1.208-2.745-.477-.295-2.873 2.61-5.325 6.456a2960.394 2960.394 0 0 1-6.708 10.475c-1.237 1.915-2.25 4.111-2.25 4.879 0 .769-.511 1.713-1.135 2.098-.733.453-.29 1.17 1.25 2.024 2.304 1.277 2.313 1.323.246 1.358-1.412.023-2.092.63-2 1.785.077.963-.357 1.66-.963 1.549-.656-.119-.912.79-.633 2.25.271 1.418-.003 2.451-.648 2.451-.615 0-1.117.675-1.117 1.5s-.702 1.5-1.559 1.5-1.279.453-.937 1.007c.343.554-.193 1.293-1.191 1.642-2.024.708-9.313 8.119-9.313 9.469 0 .476-.9 1.427-2 2.114-1.1.687-2 1.621-2 2.075 0 .455-1.125 2.301-2.5 4.104s-2.5 3.625-2.5 4.05c0 .425-1.687 2.428-3.75 4.45-2.062 2.022-5.408 5.721-7.434 8.22-2.026 2.499-5.851 6.808-8.5 9.575-2.649 2.767-6.052 6.434-7.563 8.15-1.874 2.128-4.025 3.324-6.772 3.763-2.214.354-4.264 1.029-4.555 1.501-.291.471.168.589 1.022.262 1.616-.62 1.833-.058 1.978 5.118.062 2.225.517 2.928 1.76 2.722 1.144-.19 1.777.536 1.995 2.289.303 2.437.38 2.468 1.522.618 1.019-1.653.821-2.333-1.298-4.451l-2.5-2.5 3.109-3.541c1.71-1.948 3.981-3.818 5.048-4.157 1.066-.338 1.938-1.234 1.938-1.991 0-.756.796-1.964 1.769-2.682.974-.719 3.336-3.332 5.25-5.807 1.915-2.475 4.831-5.902 6.481-7.616 5.793-6.015 10.462-11.419 14.582-16.876 2.287-3.029 4.51-5.508 4.939-5.508.43 0 1.711-1.575 2.846-3.5 1.136-1.925 2.809-3.5 3.718-3.5 1.34 0 1.144.667-1.04 3.53-1.48 1.941-2.469 4.078-2.197 4.75.321.794.522.693.573-.29.043-.831 1.164-2.681 2.491-4.111 1.326-1.431 3.359-4.576 4.517-6.99 2.801-5.836 4.314-8.224 5.821-9.189.688-.44 1.25-1.452 1.25-2.25 0-.797.39-1.45.867-1.45s2.065-1.81 3.529-4.023c3.716-5.614 5.854-7.977 7.219-7.977 1.534 0 2.385-2.35 2.385-6.582 0-1.88.45-3.418 1-3.418s1.007.563 1.015 1.25c.011.833.339.75.985-.25 1.397-2.161 1.22-3.022-.487-2.367-2.408.925 3.419-8.661 5.867-9.65 1.166-.471 1.558-.885.87-.92-1.802-.091-1.545-2.063.269-2.063 1.146 0 1.355-.654.85-2.664-.549-2.188-.379-2.554.949-2.044.89.341 1.884.19 2.209-.336.325-.526.114-.956-.468-.956-1.825 0-1.161-2.001 1.476-4.445 1.873-1.735 2.692-3.748 3.137-7.702.332-2.944 1.046-5.915 1.588-6.603 1.401-1.778.183-1.55-1.681.314m-10.43 16.107c-.743.803-1.145 1.667-.893 1.918.676.676 3.744-.666 3.744-1.637 0-1.587-1.506-1.736-2.851-.281m-3.804 6.872c-.326.849-.322 1.813.007 2.143.865.864 3.731-1.742 3.078-2.799-.854-1.381-2.432-1.045-3.085.656m-58.69 57.286c-1.823 2.014-2.225 3.641-.66 2.674 1.043-.644 3.352-4.503 2.695-4.503-.209 0-1.125.823-2.035 1.829m-27.395 33.881c-.681 1.454-1.055 2.828-.831 3.053.602.601 2.755-3.718 2.386-4.786-.173-.501-.873.278-1.555 1.733m-664.823 32.12c1.615 1.743 3.33 3.17 3.809 3.17 1.417 0-.079-1.75-3.526-4.124l-3.22-2.217 2.937 3.171M678.5 1713.026c-1.335.591-.505.688 2.5.291 2.475-.328 4.688-.758 4.917-.956.868-.752-5.507-.181-7.417.665" fill-rule="evenodd"/></svg>