<svg xmlns="http://www.w3.org/2000/svg" width="1240" height="1753"><path d="M174.5 34.68c-10.229.513-28.365 3.348-36.873 5.763-7.828 2.221-12.145 3.136-19.627 4.157-8.451 1.153-19.528 3.636-20.06 4.497-1.244 2.012-7.052 2.783-13.034 1.73-4.531-.798-7.113-.749-10.505.201-3.688 1.032-4.949 1.017-7.014-.088-2.077-1.112-2.659-1.118-3.331-.031-.668 1.081-.911 1.073-1.356-.046-.378-.95-.566-.833-.621.387C62.036 52.212 61.55 53 61 53c-2.339 0-1.015 15.965 3.112 37.5.527 2.75.697 7.925.379 11.5-1.549 17.413-1.888 22.768-4.521 71.5-1.39 25.741-1.752 32.04-2.469 43l-1.01 15.5c-.232 3.575-.697 11.9-1.034 18.5-.337 6.6-.769 14.096-.958 16.657-.661 8.915-1.963 86.465-1.752 104.343.971 82.4 1.018 105.009.243 118.5-.49 8.525-1.218 31.025-1.619 50-.923 43.718-1.082 242.867-.222 278 .955 39.01 1.814 61.05 2.532 65 .977 5.37 1.688 229.7.802 253-.932 24.503-2.54 55.458-3.013 58-.817 4.39-3.502 74.825-3.564 93.5-.033 9.9.199 25.875.517 35.5.317 9.625.815 25.884 1.105 36.132.917 32.316 6.455 81.226 12.479 110.201 1.212 5.831 1.866 12.806 1.798 19.167-.059 5.5.136 10.675.434 11.5a936.27 936.27 0 0 1 1.936 5.483c1.235 3.525 2.139 4.309 7.86 6.809 5.648 2.469 5.994 2.764 2.736 2.333l-3.728-.492 2.728 2.402c2.726 2.399 2.726 2.402.408 2.433-1.277.018-2.953.663-3.724 1.434-1.203 1.203-.834 1.629 2.592 3 2.196.879 5.023 1.598 6.282 1.598 1.259 0 3.113.603 4.12 1.339 1.632 1.193 1.656 1.407.223 1.956-.884.34-1.887.165-2.229-.387-.378-.611-1.076-.65-1.782-.099-.639.498-4.227.936-7.974.974-8.699.088-11.687 1.829-11.687 6.806 0 6.208 4.439 11.613 11 13.394 8.067 2.189 22.092 3.046 33.015 2.016 9.393-.886 12.795-.752 24.207.956 15.141 2.266 23.495 2.752 68.778 4.002 17.875.493 36.378 1.461 41.117 2.151 8.173 1.19 8.998 1.132 16-1.11 9.76-3.126 22.132-3.657 36.883-1.583 25.238 3.549 65.819 4.118 122.5 1.72 8.25-.349 21.975-.267 30.5.182 8.525.449 42.5.947 75.5 1.106 44.666.216 64.99.707 79.523 1.921 22.581 1.886 50.647 2.146 51.204.474.222-.665 5.81-1.405 14.318-1.895 7.675-.442 16.918-1.277 20.539-1.856 3.62-.579 9.92-.826 14-.549 13.34.906 26.404 2.656 26.999 3.618.321.519 6.396 1.335 13.5 1.814 7.801.527 14.021 1.452 15.704 2.336l2.786 1.465-3.686 4.874c-3.93 5.198-8.404 10.692-13.335 16.375-1.67 1.925-4.336 5.975-5.925 9-1.588 3.025-4.954 8.578-7.479 12.34-7.765 11.568-7.374 17.549 1.733 26.543 4.559 4.502 6.079 5.406 9.285 5.525 2.109.078 4.482.548 5.275 1.044.933.584 1.579.487 1.833-.275.216-.647 1.016-1.177 1.778-1.177.825 0 1.151.611.805 1.511-.414 1.079-.121 1.336 1.023.897.975-.375 1.844.013 2.219.988.338.882 1.467 1.604 2.508 1.604s1.893.563 1.894 1.25c0 .688 1.213 1.32 2.695 1.406 1.481.086 3.251.919 3.932 1.85.727.995 1.75 1.379 2.475.93.88-.543 1.039-.247.55 1.026-.648 1.69-.546 1.698 1.83.141 2.126-1.393 2.517-1.421 2.517-.185 0 .805-.457 1.747-1.016 2.092-.559.346-.795.986-.525 1.424.696 1.127 5.927.409 6.353-.871.698-2.094 3.011-1.009 4.02 1.885.839 2.408 1.544 2.911 3.847 2.75 2.236-.157 2.885.268 3.14 2.052.176 1.237.851 2.257 1.501 2.265.775.01.714.311-.177.875-.871.553-.986 1.089-.322 1.5.569.351 1.31-.226 1.645-1.283.815-2.567 3.708-3.589 5.033-1.778.578.791 1.94 1.619 3.026 1.841 1.197.244 1.861 1.071 1.685 2.1-.202 1.181.185 1.516 1.271 1.099.941-.361 2.601.44 4.177 2.016 1.438 1.438 3.228 2.615 3.978 2.615.802 0 1.397 1.133 1.443 2.75.043 1.513.29 2.235.548 1.606.65-1.585 4.373-.454 4.373 1.328 0 .996.627 1.252 2 .816 1.419-.45 2-.18 2 .933 0 .862.52 1.567 1.155 1.567.655 0 .371.866-.655 2-1.918 2.119-.742 2.842 1.3.8 1.18-1.18 1.32-1.051 1.58 1.45.075.725 1.192 1.127 2.657.957 2.453-.284 6.963 3.453 6.963 5.769 0 .529.727.682 1.615.341 1.27-.487 1.476-.178.96 1.448-.361 1.136-.208 2.344.341 2.683.548.339.743 1.277.433 2.084-.408 1.064.17 1.468 2.103 1.468 1.597 0 2.407.418 2.021 1.044-1.189 1.924 1.713 3.956 5.649 3.956 2.78 0 3.878.425 3.878 1.5 0 .825.689 1.5 1.531 1.5.843 0 1.768.616 2.057 1.368.289.753 2.784 2.832 5.545 4.621 2.761 1.789 5.504 4.315 6.095 5.613.968 2.124 3.553 3.741 6.272 3.924 2.065.14 5.5 3.017 5.5 4.608 0 1.799 1.964 2.866 5.278 2.866 3.424 0 9.945 5.04 9.369 7.242-.356 1.36-.031 1.776 1.181 1.516.92-.197 2.752.773 4.072 2.155 2.373 2.486 3.464 2.954 7.849 3.373 1.237.117 2.257.664 2.266 1.214.01.662.264.66.75-.006.404-.553 2.535-2.33 4.735-3.949 7.32-5.387 17.613-15.857 16.354-16.635-.676-.418-1.927.192-2.931 1.43-.963 1.188-2.03 1.882-2.371 1.543-.673-.671 5.973-9.592 10.665-14.315 2.666-2.684 7.178-10.506 6.469-11.215-.165-.165-2.299 2.057-4.743 4.937-2.444 2.88-6.87 7.481-9.835 10.223-5.35 4.948-5.379 4.959-3.601 1.487.985-1.925 2.58-4.058 3.545-4.739 2.383-1.683 9.948-13.795 9.948-15.928 0-1.515-.165-1.489-1.418.224-2.098 2.87-2.819 1.254-1.184-2.653 1.639-3.919 10.602-13.817 10.602-11.709 0 .773-.337 1.855-.75 2.406-.413.55.932-.82 2.988-3.044 2.055-2.225 3.63-4.66 3.5-5.411-.271-1.553 8.937-9.805 9.884-8.858 1.26 1.261-.733 5.669-4.867 10.764-8.891 10.96-12.313 16.41-12.524 19.948l-.208 3.5 2.048-2.5c1.126-1.375 5.396-5.988 9.488-10.251 4.093-4.262 7.441-8.386 7.441-9.164 0-.777 1.575-3.035 3.5-5.017 1.925-1.983 3.5-4.261 3.5-5.063 0-.802 1.012-2.126 2.25-2.942 2.283-1.504 10.213-11.009 10.294-12.338.117-1.911 6.694-11.025 9.401-13.026 1.68-1.243 3.055-2.736 3.055-3.32 0-.584 1.575-2.901 3.5-5.15 1.925-2.249 3.5-4.683 3.5-5.409s.405-1.32.899-1.32c.495 0 1.833-1.792 2.974-3.982 1.142-2.19 5.451-8.152 9.577-13.25 15.875-19.616 34.573-44.018 41.581-54.268 6.243-9.13 16.225-23.249 17.575-24.858.857-1.021 2.157-3.552 2.888-5.624.73-2.071 2.943-6.014 4.917-8.762 1.974-2.747 3.589-5.395 3.589-5.884 0-.489 2.587-4.77 5.75-9.512 3.162-4.743 8.61-13.15 12.107-18.683 3.496-5.533 7.208-10.831 8.25-11.773 1.041-.943 1.897-2.207 1.903-2.809.015-1.717 6.792-9.812 9.233-11.029 1.432-.714 2.681-2.835 3.582-6.081 1.305-4.706 4.511-9.485 6.363-9.485.461 0 .158 1.63-.675 3.622-1.674 4.007-2.032 8.817-.589 7.925 1.642-1.015 4.243-10.432 4.227-15.306-.016-4.927.243-5.436 12.352-24.241 2.301-3.575 5.043-8.062 6.091-9.97 1.048-1.909 2.263-3.934 2.699-4.5 2.496-3.243 14.689-22.154 14.697-22.795.009-.713 4.873-8.635 9.21-15.002 4.059-5.958 14.577-26.421 15.284-29.733.411-1.925 1.329-4.625 2.04-6 2.325-4.494 3.8-13.905 2.436-15.548-.663-.799-.837-1.452-.386-1.452.45 0-.708-1.575-2.574-3.5-1.866-1.925-3.873-3.5-4.461-3.5-.588 0-2.637-.831-4.554-1.847-1.917-1.015-4.61-2.139-5.985-2.497-1.375-.359-6.1-3.826-10.5-7.705-10.301-9.083-14.792-12.172-27.381-18.838-1.44-.762-5.613-4.25-9.272-7.75-3.659-3.499-7.114-6.363-7.679-6.363-.564 0-2.696-1.575-4.737-3.5s-4.516-3.5-5.499-3.5c-.984 0-2.395-.562-3.135-1.25-2.153-2-10.781-7.75-11.629-7.75-.426 0-2.55-1.291-4.721-2.87-2.171-1.578-6.958-4.482-10.637-6.454-9.362-5.016-11.101-6.013-12.81-7.346-3.072-2.395-14.427-8.429-22.213-11.803-4.425-1.917-9.55-4.635-11.391-6.039-4.813-3.67-16.782-8.328-19.881-7.736-1.503.288-4.131 2.428-6.287 5.121-2.038 2.545-5.974 6.877-8.748 9.627-2.773 2.75-6.802 7.25-8.953 10s-5.512 6.813-7.469 9.028c-5.325 6.029-9.017 10.595-14.558 18.007-2.75 3.678-6.82 8.775-9.045 11.326-4.136 4.743-4.77 5.602-11.179 15.139-2.032 3.025-5.535 7.75-7.783 10.5-2.249 2.75-6.499 8.6-9.444 13-2.946 4.4-6.975 9.837-8.953 12.082-1.978 2.245-4.387 5.067-5.354 6.271-1.614 2.009-1.985 2.074-4.5.786-1.508-.773-4.156-1.288-5.885-1.146-3.375.277-6.21-.848-4.617-1.833.525-.324 2.759-.718 4.964-.875 3.952-.281 3.987-.317 2.403-2.528-2.131-2.974-12.402-6.207-23.107-7.274-11.608-1.157-25.716-3.481-36.5-6.012-8.649-2.03-32.946-5.957-36.917-5.966-3.871-.01-.693 1.016 9.447 3.049 11.569 2.319 16.645 4.365 8.47 3.413-2.75-.32-7.025-.979-9.5-1.464-10.343-2.028-11.751-2.095-12.329-.588-.388 1.012.27 1.595 2.134 1.892 1.482.236-.144.393-3.614.348-3.471-.044-6.621.362-7 .902-1.977 2.815-6.561 3.447-20.938 2.888-8.043-.313-14.878-.594-15.188-.625-1.905-.191-3.105.306-2.623 1.086.308.498 1.423.681 2.477.405 1.055-.276 2.742.015 3.749.646 1.414.886-.508 1.004-8.423.515-5.641-.348-17.594-.801-26.564-1.006-8.97-.205-18.305-.889-20.745-1.521-8.237-2.132-11.909-2.279-13.817-.553-.98.887-2.071 1.322-2.426.968-.355-.355-1.218-.177-1.919.395-.72.588-8.666 1.225-18.274 1.467-13.953.35-17.762.769-21.25 2.338-2.338 1.052-4.25 2.256-4.25 2.676 0 .889-13.107 1.044-15.355.181-.835-.32-1.274-1.22-.975-2 .343-.894-.11-1.417-1.23-1.417-.975 0-1.545-.228-1.267-.506.361-.361 21.757-3.396 24.577-3.486.138-.004.25-.346.25-.758 0-.412-4.837-.75-10.75-.75-59.297-.003-150.772-2.408-173.25-4.556-26.882-2.568-32.563-2.882-54.929-3.03-13.127-.087-24.292.105-24.811.426-.52.321-11.703 1.278-24.852 2.128-13.15.85-26.456 1.821-29.571 2.158l-5.664.613-.38-7.37c-.407-7.868.355-35.137 2.314-82.869.797-19.414.989-45.569.561-76.5-.516-37.324-.347-50.5.821-64 1.679-19.416 1.848-38.084.521-57.336-1.666-24.147-2.358-50.831-1.334-51.464.532-.329 2.831-.708 5.108-.842 3.117-.184 3.891-.545 3.133-1.458-.739-.891.138-1.759 3.288-3.258 3.468-1.65 7.279-2.181 19.795-2.759 28.077-1.297 38.997-1.038 44.485 1.058 6.546 2.5 26.118 2.536 37.515.069 2.382-.515 2.41-.47.588.953-1.145.895-2.948 1.27-4.5.935-2.017-.436-2.257-.325-1.088.506 1.947 1.383 6.731 1.403 7.189.03.198-.596 4.308-1.29 9.319-1.574 5.274-.298 9.264-.991 9.692-1.683.937-1.514 32.92-1.965 37.55-.529 1.788.554 3.25 1.68 3.25 2.502 0 1.224-.974 1.372-5.396.82-5.843-.73-11.604.098-11.604 1.668 0 .539.487.679 1.081.312.595-.368 2.315.513 3.822 1.957l2.741 2.626 1.347-2.516c1.071-2.002 2.114-2.517 5.095-2.517 2.061 0 3.919-.515 4.129-1.144.286-.859 1.247-.859 3.853.001 1.91.631 8.188 1.595 13.952 2.144 21.685 2.065 31.622 3.611 32.518 5.061.264.427-.231 1.488-1.1 2.357-1.433 1.433-1.434 1.581-.009 1.581.864 0 1.571-.337 1.571-.75s1.013-.839 2.25-.949c5.211-.46 7.22-1.021 6.75-1.884-.275-.504-.794-.819-1.154-.699-.36.12-1.202-.443-1.873-1.25-.853-1.028-.882-1.468-.095-1.468.617 0 1.122-.852 1.122-1.893s.652-2.143 1.449-2.449c1.036-.398 1.268-.072.813 1.143-.543 1.451-.402 1.509.967.396 1.355-1.101 1.659-1.023 1.961.5.24 1.214.597 1.421 1.093.634.404-.644.056-1.849-.774-2.679-.83-.83-1.509-1.766-1.509-2.081 0-1.062 1.849-.579 3.288.859.786.787 4.17 1.928 7.52 2.535 4.944.897 6.743.832 9.56-.346 4.428-1.85 4.956-2.916 8.803-17.784 2.895-11.188 3.198-13.776 3.26-27.835.07-15.777-.795-27.924-2.561-35.984-.541-2.467-1.397-12.142-1.903-21.5-.505-9.359-1.189-19.941-1.519-23.516-.329-3.575.137-19.212 1.037-34.748.899-15.537 1.385-28.653 1.08-29.147-1.25-2.023-1.685-25.198-.641-34.105.613-5.225 1.394-12.296 1.736-15.714l.622-6.214-5.513-5.955-5.513-5.955 1.92-5.689c1.162-3.44 1.803-7.651 1.623-10.65-.255-4.225-.718-5.211-3.124-6.642-2.766-1.646-2.872-1.623-5.038 1.069-2.439 3.032-5.713 3.568-7.637 1.25-2.028-2.444-5-1.885-5 .941 0 3.481-1.968 4.274-2.152.868-.084-1.545-.203-3.311-.265-3.923-.179-1.763-2.694-4.386-4.205-4.386-1.639 0-1.863-2.672-.268-3.203.694-.232.507-.87-.5-1.706-1.419-1.178-1.61-.979-1.61 1.68 0 1.827-.623 3.254-1.582 3.622-2.501.96-8.597.706-7.956-.332.319-.516 1.471-.767 2.559-.557 1.088.21 1.979-.043 1.979-.561 0-.519.563-.831 1.25-.693.705.141 1.389-.959 1.569-2.523.318-2.768-1.411-3.463-3.054-1.227-.415.565-.741.238-.75-.75-.008-.962.697-1.75 1.568-1.75.871 0 1.394-.563 1.162-1.25-.815-2.417-31.519-.376-34.166 2.271-.538.538-1.987.979-3.22.979s-2.519.45-2.859 1c-.34.55.084 1 .941 1s1.559.45 1.559 1-2.08 1-4.622 1c-4.028 0-4.46.196-3.358 1.524.696.838 1.04 1.749.766 2.023-.275.275-9.226.13-19.893-.322-21.047-.892-28.881-.862-38.893.145-4.029.405-5.74.319-4.5-.227 1.224-.539-4.308-.764-14.266-.581-8.947.165-16.077-.006-15.845-.381.232-.375-13.148-.681-29.734-.681-16.585 0-35.78-.369-42.655-.821-7.823-.514-14.371-.445-17.5.183-6.451 1.297-7.655.168-8.638-8.094-.41-3.447-1.245-9.418-1.856-13.268-.61-3.85-1.047-12.4-.97-19 .076-6.6-.133-15.425-.465-19.61a536.004 536.004 0 0 1-.955-15.632c-.194-4.412-.684-8.558-1.089-9.214-.41-.664.137-2.155 1.237-3.368 2.831-3.122 3.02-4.648 3.787-30.676.382-12.925.89-23.837 1.13-24.25.24-.413-.014-.75-.566-.75-.65 0-.858-6.94-.591-19.75.226-10.863.425-21.464.443-23.559.02-2.278.435-3.561 1.033-3.191.55.34 1 1.968 1 3.618 0 1.859.403 2.751 1.061 2.345 1.795-1.11.825-13.582-1.298-16.687-1.665-2.436-1.799-4.079-1.262-15.5 1.191-25.351 1.722-31.616 4.005-47.276.761-5.225 1.669-13.775 2.018-19 .348-5.225.936-13.479 1.306-18.343.371-4.863.342-9.363-.063-10-.417-.655-.786.143-.851 1.843-.25 6.516-1.609 8.029-1.58 1.76.024-5.389.31-6.342 2.096-6.983 2.99-1.072 147.724-.42 162.568.733 6.875.534 25.1 1.443 40.5 2.021 15.4.577 31.116 1.491 34.925 2.031 6.197.877 68.384.46 83.575-.561 3.025-.203 10.814-.399 17.309-.435 6.495-.036 11.57-.453 11.277-.926-.624-1.011 9.736-2.473 16.914-2.388 4.081.049 4.448-.073 2-.662-2.79-.672-2.65-.768 2-1.382 12.579-1.661 18.5-1.925 18.5-.824 0 .614-.562 1.123-1.25 1.131-.907.011-.935.217-.103.75.631.404 5.693.593 11.25.419 7.959-.25 10.103-.621 10.103-1.75 0-2.464 5.967-1.762 8.529 1.003 2.139 2.308 2.861 2.437 13.615 2.432 6.246-.003 15.406-.698 20.356-1.544 4.95-.846 12.142-1.532 15.982-1.526 6.217.011 6.772-.14 5.073-1.383-1.05-.767-1.713-1.592-1.472-1.832 1.405-1.405 55.657.625 60.029 2.246 1.314.487 6.888 1.512 12.388 2.278 13.34 1.857 87.947 1.934 94.151.097 3.16-.935 7.699-.99 19-.228l22.515 1.514c4.233.284 7.815.106 8-.398.184-.502 2.809-1.219 5.834-1.593 3.025-.374 5.613-.977 5.751-1.34.138-.363 2.388-.623 5-.577 2.612.046 5.199-.221 5.749-.592.55-.371 2.944-1.43 5.32-2.352 3.573-1.389 5.041-1.483 8.5-.544 2.299.624 8.379 1.059 13.51.968 8.812-.157 9.362-.045 9.9 2.013l.57 2.178 1.862-2.377c1.739-2.219 1.952-2.262 3.199-.643 1.84 2.388 2.613 1.238 2.789-4.151.096-2.952.298-3.604.566-1.833.229 1.512.823 2.75 1.319 2.75s.661-.629.365-1.399c-.295-.769-.056-1.696.532-2.059.681-.421 1.068.63 1.068 2.899 0 1.957.45 3.559 1 3.559s1 .93 1 2.067c0 1.613.44 1.928 2 1.433 1.493-.474 2.009-.174 2.035 1.183.029 1.457.322 1.322 1.478-.683.97-1.68 1.396-5.127 1.301-10.511-.083-4.747.366-8.957 1.104-10.335 1.552-2.9.851-3.78-1.299-1.63-1.492 1.492-1.619 1.462-1.619-.381 0-1.1.647-2.648 1.439-3.439 1.252-1.252 1.122-1.583-1-2.55-1.951-.889-2.439-.832-2.439.284 0 .767.563 1.624 1.25 1.903.942.382.882.762-.241 1.541-.82.569-1.495 1.841-1.5 2.826-.007 1.371-.811 1.792-3.426 1.792-2.027 0-3.605-.565-3.879-1.389-.258-.773-.009-1.108.561-.756.564.348 1.283-.039 1.599-.861.758-1.977-.828-1.891-4.048.219-2.577 1.688-2.598 1.682-1.466-.433.631-1.179 2.048-2.43 3.149-2.78 1.101-.349 2.001-1.103 2.001-1.674 0-.572.67-.783 1.49-.468 1.022.392 1.698-.282 2.154-2.143.365-1.493 1.133-3.021 1.706-3.395 1.686-1.101 4.643 1.066 4.729 3.465.043 1.218.306 1.653.583.965.278-.688 1.152-1.25 1.943-1.25 1.69 0 2.753-2.43 4.43-10.128 1.475-6.77.898-28.043-.816-30.108-.637-.768-1.459-3.954-1.826-7.08-.368-3.126-1.009-5.684-1.425-5.684-.835 0-.85.136-1.585 14.75-.284 5.637-.864 10.25-1.289 10.25-.425 0-.9-5.288-1.056-11.75-.156-6.463-.4-15.919-.543-21.014-.143-5.095.093-9.481.523-9.747.817-.505.313-9.144-.621-10.656-.295-.477-.214-3.447.181-6.6.501-4.004.928-5.135 1.415-3.749 2.035 5.79 5.229-18.292 5.015-37.811-.08-7.245-.115-14.636-.077-16.423.037-1.791-.44-3.25-1.063-3.25-.743 0-.947-1.375-.595-4 .295-2.2.144-4-.337-4-.48 0-.614-.675-.298-1.5.317-.825.103-1.5-.475-1.5-.662 0-.836-1.577-.471-4.25.83-6.072.828-6.943-.039-20.25-.43-6.6-1.679-16.387-2.777-21.749-1.098-5.361-1.781-10.096-1.517-10.522.495-.801-1.482-10.718-3.534-17.729-.644-2.2-2.245-5.177-3.557-6.616-2.09-2.292-2.35-3.432-2.094-9.184.16-3.612-.038-6.897-.441-7.3-.403-.403-.765.354-.803 1.683-.064 2.205-.139 2.242-.847.428-.645-1.652-1.823-2.024-6.93-2.193-5.959-.196-6.153-.123-6.153 2.311 0 2.235-.167 2.347-1.5 1.014-.825-.825-1.5-1.982-1.5-2.572 0-.589-.45-1.071-1-1.071s-1 .689-1 1.531c0 .843-.614 1.767-1.364 2.055-.749.288-1.376 1.736-1.392 3.219-.015 1.482-.133 3.033-.261 3.445-.444 1.43-.734 2.756-.873 4-.104.927-.366.894-1.013-.127-.48-.758-.642-3.099-.359-5.203.282-2.103.177-4.634-.233-5.622-.64-1.546-.927-1.377-2.044 1.202-1.189 2.745-1.363 2.83-2.057 1-.849-2.24-2.299-3.462-4.135-3.485-.879-.011-1.06 1.234-.632 4.353.394 2.874.193 4.619-.586 5.1-1.785 1.104-2.51-.21-1.071-1.944.779-.938.859-1.524.209-1.524-.581 0-1.244-1.238-1.473-2.75-.387-2.56-.427-2.525-.566.5-.083 1.787-.648 3.25-1.257 3.25-.609 0-.861-.641-.56-1.425.317-.825-.479-2.096-1.893-3.023-1.342-.879-2.44-1.138-2.44-.575S1049.65 72 1048 72c-3.48 0-3.914-1.44-.917-3.044 1.948-1.043 1.97-1.197.347-2.384-.955-.698-1.418-1.782-1.031-2.409.47-.76.133-.92-1.011-.482-1.164.447-1.484.283-.993-.511.493-.798-.269-1.17-2.395-1.17-1.824 0-2.862.415-2.5 1 .967 1.565-1.186 1.171-2.885-.528-1-1-4.394-1.738-9.822-2.137-7.933-.582-11.319-1.676-10.299-3.326.613-.991-10.835-1.976-11.494-.989-.275.412-1.311.913-2.303 1.114-.991.201-1.739.776-1.66 1.276.249 1.595-3.034 2.838-4.431 1.678-.71-.589-1.595-.766-1.967-.393-.373.372-2.694.572-5.158.445-2.6-.135-4.481.207-4.481.814 0 .598-2.294 1.046-5.354 1.046-4.288 0-5.877-.485-7.984-2.438-2.316-2.145-3.622-2.453-10.896-2.568-10.807-.171-10.766-.175-10.766 1.113 0 .609.675.848 1.5.531.825-.316 1.5-.196 1.5.268 0 1.022-5.086 2.12-9.375 2.024-2.652-.06-2.822-.201-1.125-.93l2-.859-2-.238c-7.528-.893-49.162-1.404-72-.883-5.79.132-13.309-1.772-10.75-2.723 2.434-.903 1.205-2.297-2-2.267-2.825.027-3.006.173-1.38 1.117 3.1 1.801-.009 2.821-8.651 2.838-5.631.011-7.926.391-8.304 1.376-.383.999-2.573 1.333-8.219 1.256-4.233-.058-11.612.251-16.398.687-7.979.727-8.869.625-10.714-1.22-1.767-1.767-3.632-2.061-15.298-2.412-7.307-.22-14.147-.762-15.2-1.206-1.292-.544-1.695-.452-1.24.285.477.772-2.098.925-8.836.523-6.815-.407-9.51-.243-9.51.579 0 .722-2.019 1.147-5.453 1.147-5.347 0-10.291 1.456-11.816 3.48-.489.649-1.253.389-2.099-.714-.731-.954-1.559-1.506-1.84-1.225-.28.28-3.048.211-6.151-.153-5.662-.666-7.374-2.122-3.641-3.098 3.294-.862 2.396-3.28-1.25-3.368-1.788-.043-6.513-.223-10.5-.4-3.987-.177-7.25-.029-7.25.328 0 .358-3.937.663-8.75.678-4.812.015-10.775.308-13.25.65-2.475.343-6.664.668-9.309.723-2.708.056-4.556.508-4.231 1.035 1.53 2.476-15.217 2.456-25.46-.03-2.475-.601-11.25-1.49-19.5-1.976s-18.15-1.288-22-1.782c-4.527-.581-7.442-.546-8.25.099-.687.549-1.25.605-1.25.125 0-.479-7.875-.836-17.5-.792-9.625.044-17.5-.279-17.5-.719 0-.439-.629-.557-1.399-.261-.769.295-1.684.075-2.032-.488-.348-.564-1.181-.845-1.851-.627-.67.219-5.315.635-10.322.924-6.998.404-9.542.194-11-.91-1.043-.789-2.684-1.45-3.646-1.467-.962-.018-1.75-.482-1.75-1.032s-1.913-1.007-4.25-1.015c-2.337-.009-4.925-.454-5.75-.989-.996-.646 1.558-.762 7.605-.345 5.749.396 9.335.255 9.73-.384.391-.633-2.461-1.273-7.605-1.708-4.526-.382-11.305-1.384-15.063-2.226-4.668-1.046-12.746-1.565-25.5-1.64-23.895-.139-29.112.162-32.173 1.856-2.854 1.579-4.194 1.495 26.506 1.659 20.12.108 28.922.713 26 1.789-1.1.404-4.413.513-7.362.241-3.892-.36-5.604-.117-6.25.883-.563.874-1.163 1.013-1.638.379-1.336-1.781-22.164-2.652-25.75-1.076-5.105 2.242-10.804 2.62-47.75 3.167-30.964.458-34.75.345-34.75-1.039 0-.853-.477-1.552-1.059-1.552s-.781.45-.441 1c.837 1.354-1.824 1.276-3.193-.093-.79-.79-1.698-.768-3.282.08-3.418 1.829-25.33 3.879-35.417 3.314-8.532-.479-10.577-1.214-10.577-3.801 0-.55.436-.325.969.5.533.825.976 1.007.985.405.01-.727 2.869-1.006 8.515-.83 7.085.222 8.5.011 8.5-1.267 0-1.323-1.609-1.454-11.75-.955-6.462.317-11.863.593-12 .612-.137.019-.25.471-.25 1.004 0 .532.629.727 1.399.431.769-.295 1.696-.056 2.059.532.413.668-.484 1.068-2.399 1.068-4.045 0-4.559-.226-4.559-2 0-1.159-1.907-1.658-8.385-2.195-4.612-.382-9.112-1.007-10-1.389-2.992-1.288-17.535-3.529-28.615-4.41-25.972-2.067-77.548-3.304-97-2.326m231.272 5.395L404.093 43l6.204.114c7.014.129 11.397.555 13.324 1.294.723.278 1.581.074 1.906-.452.325-.526 2.702-1.001 5.282-1.056 4.682-.101 4.684-.103 1.191-.921-1.925-.451-7.281-1.013-11.903-1.249-5.585-.285-8.772-.898-9.504-1.829-1.769-2.253-3.031-1.946-4.821 1.174M361.5 42.727c-1.65.235-3.45.908-4 1.497-.688.735-.596.841.294.337.711-.403 1.929-.206 2.706.439.777.645 1.932.851 2.568.458.636-.393 1.555-.094 2.044.664.655 1.016 1.087 1.072 1.645.213.416-.641 4.129-1.492 8.25-1.891 12.217-1.181 12.47-2.325.493-2.231-6.05.048-12.35.279-14 .514M350 45.036c2.048.486 3.894.444 4.45-.103.59-.58-.734-.894-3.5-.831l-4.45.103 3.5.831M547.5 45c.34.55 2.054.955 3.809.9 3.047-.095 3.078-.135.691-.9-3.591-1.15-5.211-1.15-4.5 0M860 46.928c0 .487-.9.649-2 .362-1.1-.288-2-.077-2 .468 0 .923 4.486 2.242 7.625 2.242 2.215 0 1.583-1.584-1.125-2.818-1.375-.627-2.5-.741-2.5-.254m-187 .533c0 1.226 8.873 2.576 20.079 3.056 13.507.579 28.076-.296 25.813-1.55-2.016-1.117-14.154-1.563-15.729-.577a1.99 1.99 0 0 1-2.45-.277c-1.07-1.07-27.713-1.697-27.713-.652m177.364 7.045c3.489 1.82 3.303 1.82 3.303-.006 0-1.01-1.007-1.498-3.084-1.494l-3.083.006 2.864 1.494m180.719 1.884c.867.811 11.917 1.207 11.917.427 0-.449-2.775-.817-6.167-.817-3.391 0-5.979.176-5.75.39m-229.537 7.535c-.71 1.149 9.737 2.085 10.904.977.582-.553.195-.924-1-.96-1.073-.031-3.625-.234-5.672-.449-2.047-.216-3.951-.021-4.232.432M720 67.026c-2.605.568-1.502.74 4.313.672 4.297-.051 8.036-.453 8.309-.895.604-.978-7.794-.829-12.622.223m138.25.69c1.513.229 3.987.229 5.5 0s.275-.416-2.75-.416-4.263.187-2.75.416m240.765 53.534c-.008 1.513.435 2.75.985 2.75 1.264 0 1.264-2.043 0-4-.755-1.169-.973-.893-.985 1.25m-23.243 6.374c-.277.482.334 2.226 1.357 3.876 2.203 3.552 2.396 2.977.508-1.512-.749-1.782-1.589-2.846-1.865-2.364M1100 138.941c0 1.99 1.304 3.422 2.252 2.474.784-.784-.341-4.415-1.369-4.415-.485 0-.883.873-.883 1.941m-42.93 17.309c-.038 1.512.38 2.75.93 2.75 1.174 0 1.174-.769 0-3.5-.762-1.772-.867-1.687-.93.75m31.042 2.25c.022.55.647 2.575 1.388 4.5.883 2.292 1.362 2.81 1.388 1.5.023-1.1-.602-3.125-1.388-4.5-.786-1.375-1.411-2.05-1.388-1.5m-29.665 4.25c1.789 7.41 2.859 10.654 3.203 9.707.208-.574-.282-3.238-1.089-5.921-.807-2.683-1.237-5.251-.955-5.707.281-.456-.013-.829-.655-.829-.768 0-.941.941-.504 2.75m47.805 64.75c.011 2.2.216 2.982.455 1.738.239-1.244.23-3.044-.02-4s-.446.062-.435 2.262m-4.483 43.456c-.691 2.461-.278 3.886.812 2.797.319-.32.423-1.632.229-2.917l-.351-2.336-.69 2.456m-748.519 5.783c3.163.198 8.337.198 11.5 0 3.163-.198.575-.361-5.75-.361s-8.913.163-5.75.361m66.03-.003c2.629.207 6.679.204 9-.005 2.321-.21.17-.379-4.78-.376-4.95.003-6.849.175-4.22.381m33.97.003c3.163.198 8.337.198 11.5 0 3.163-.198.575-.361-5.75-.361s-8.913.163-5.75.361m37.75 1.188c4.125.402 12.701 1.296 19.058 1.987 6.357.691 12.882 1.1 14.5.909 3.803-.447-20.336-2.96-32.058-3.337l-9-.289 7.5.73m41.784 3.811c2.905.203 7.405.201 10-.004 2.594-.206.216-.371-5.284-.369-5.5.003-7.622.171-4.716.373M563 282.989c6.325.478 13.638 1.105 16.25 1.393 2.71.299 4.75.114 4.75-.429 0-.524-1.729-.953-3.843-.953s-9.426-.198-16.25-.441l-12.407-.44 11.5.87m539.125 6.702c-.069 3.955.325 7.469.875 7.809 1.181.73 1.204-4.018.051-10.5-.762-4.283-.807-4.154-.926 2.691m-509.998-5.23c.922.921 28.537 1.364 29.935.48.899-.569-4.525-.916-14.479-.926-8.754-.008-15.709.192-15.456.446m43.349 1.599c1.84.549 3.348.516 3.95-.086.632-.632-.413-.944-2.976-.888-3.904.085-3.915.096-.974.974m15.953.062c2.567.602 4.282.567 4.95-.101.695-.695-.56-.989-3.929-.921l-4.95.101 3.929.921m11.903-.457c1.07 1.07 5.668 1.287 5.668.267 0-.513-1.425-.932-3.167-.932-1.741 0-2.867.299-2.501.665m-295.249 12.747c.761.751 9.84.999 10.551.287.385-.384-1.926-.699-5.134-.699s-5.646.185-5.417.412m-13.321 1.295c1.244.239 3.044.23 4-.02s-.062-.446-2.262-.435c-2.2.011-2.982.216-1.738.455m88 0c1.244.239 3.044.23 4-.02s-.062-.446-2.262-.435c-2.2.011-2.982.216-1.738.455m105.966 1.015c1.775.221 4.925.224 7 .008 2.074-.217.622-.397-3.228-.402-3.85-.004-5.548.173-3.772.394m31.022 2.01c2.337.211 6.163.211 8.5 0 2.337-.21.425-.383-4.25-.383s-6.587.173-4.25.383m30.012.975c1.244.239 3.044.23 4-.02s-.062-.446-2.262-.435c-2.2.011-2.982.216-1.738.455m78.502 1.011c1.52.229 3.77.223 5-.014 1.23-.237-.014-.425-2.764-.418-2.75.008-3.756.202-2.236.432m-9.536 4.004c1.775.221 4.925.224 7 .008 2.074-.217.622-.397-3.228-.402-3.85-.004-5.548.173-3.772.394m15.022.01c2.337.211 6.163.211 8.5 0 2.337-.21.425-.383-4.25-.383s-6.587.173-4.25.383m389.857 17.85c-.939 2.446-.735 2.769.893 1.418 1.662-1.38 1.99-3 .607-3-.491 0-1.166.712-1.5 1.582M737 354c0 .55 1.098 1 2.441 1 1.343 0 2.719-.45 3.059-1 .361-.583-.656-1-2.441-1-1.682 0-3.059.45-3.059 1m87.399.164c-.285.46.935.836 2.709.836s2.916-.309 2.538-.687c-1.013-1.013-4.65-1.116-5.247-.149M554.75 666.716c-3.687.559-3.51 1.92.25 1.92 1.816 0 3-.52 3-1.318 0-.725-.112-1.251-.25-1.168-.138.082-1.487.337-3 .566m-102.016 2.381c1.153.427 3.372.413 4.931-.03 2.384-.677 2.05-.801-2.096-.775-3.494.021-4.32.256-2.835.805m79.266-.068c0 1.129 13.657 1.339 14.34.221.252-.413-2.872-.849-6.941-.971-4.271-.128-7.399.189-7.399.75m42.667 279.638c-1.151 1.15-.729 2.333.833 2.333.825 0 1.5-.675 1.5-1.5 0-1.562-1.183-1.984-2.333-.833M323.252 1203.5c.011 2.2.216 2.982.455 1.738.239-1.244.23-3.044-.02-4s-.446.062-.435 2.262M645 1310c-1.876.601-1.002.822 3.5.885 4.214.059 5.554-.204 4.5-.885-1.746-1.128-4.477-1.128-8 0m99.593 5.208c-1.026.574-4.166 1.381-6.979 1.793l-5.114.749 7.143.125c5.442.095 7.277-.225 7.706-1.343.764-1.989-.491-2.592-2.756-1.324m-56.165 1.676c.64 1.036 6.098.923 7.17-.148.404-.405-1.166-.736-3.49-.736-2.324 0-3.98.398-3.68.884M699 1317c3.575 1.145 5 1.145 5 0 0-.55-1.687-.955-3.75-.9-3.347.089-3.481.185-1.25.9m-46.335.668c-.368.368-4.918.667-10.112.665-6.245-.002-9.377.364-9.248 1.082.107.597-.424.954-1.18.793-.756-.16-2.106.356-3 1.147-.894.791-2.525 1.658-3.625 1.926s1.799.539 6.441.603c7.65.105 8.259.254 6.5 1.584-1.837 1.39-1.769 1.47 1.278 1.5 2.401.024 3.076.402 2.659 1.49-.611 1.59 3.086 2.984 6.281 2.369 2.715-.523 2.898-3.685.27-4.658l-2.219-.821 2.333-2.174c1.284-1.196 2.774-2.174 3.312-2.174.538 0 .664-.314.28-.698-.384-.384.329-1.268 1.584-1.965 1.583-.879 1.797-1.277.698-1.302-.871-.019-1.884.266-2.252.633m-53.834 3.436c-.563.348.35 1.112 2.029 1.697 3.339 1.164 9.154.783 10.065-.66.316-.5 1.475-1.136 2.575-1.412s-1.52-.447-5.823-.38c-4.302.068-8.283.407-8.846.755m1.169 7.063c0 1.191.127 1.979.283 1.75.156-.229.886-1.204 1.622-2.167 1.147-1.498 1.106-1.75-.283-1.75-.997 0-1.622.835-1.622 2.167m4.25-.505c-3.394 1.37-.404 2.338 7.219 2.338 7.116 0 8.376-.239 7.893-1.5-.69-1.797-4.481-1.981-6.162-.3-.933.933-1.467.933-2.4 0-1.213-1.213-4.257-1.463-6.55-.538m41.063 6.791c.487 1.483 4.707 1.927 6.002.632 1.142-1.142.916-1.238-3.581-1.511-1.542-.093-2.613.296-2.421.879m-9.033 15.283c2.629.207 6.679.204 9-.005 2.321-.21.17-.379-4.78-.376-4.95.003-6.849.175-4.22.381M486.5 1371c2.779 1.194 5.5 1.194 5.5 0 0-.55-1.687-.968-3.75-.93-3.008.057-3.354.241-1.75.93m23.25.706c1.238.238 3.263.238 4.5 0 1.237-.239.225-.434-2.25-.434s-3.488.195-2.25.434m170 46.031c2.888.202 7.612.202 10.5 0s.525-.367-5.25-.367-8.138.165-5.25.367m417 12.793c-2.489 3.337-2.234 5.399.347 2.817 1.154-1.153 1.941-2.787 1.75-3.631-.27-1.194-.734-1.014-2.097.814m-5.115 7.904c-.899 1.372-1.635 2.906-1.635 3.408 0 .502-.7 1.494-1.555 2.203-.855.71-1.99 2.105-2.523 3.1-.766 1.433-.651 1.688.555 1.226.838-.322 1.523-.955 1.523-1.407 0-.451.563-1.424 1.25-2.161 1.884-2.019 5.009-7.877 4.483-8.403-.254-.255-1.198.661-2.098 2.034m32.98 25.031c-2.066 3.153-2.197 5.263-.226 3.627 1.148-.952 2.908-6.092 2.087-6.092-.135 0-.973 1.109-1.861 2.465m-51.084 1.828c-.428.986-.497 2.074-.155 2.417 1.016 1.015 1.835-.411 1.367-2.382-.414-1.747-.468-1.748-1.212-.035m42.138 20.308c-1.394 1.503-3.342 4.233-4.329 6.066-.987 1.833-2.169 3.333-2.626 3.333-.458 0-.554.45-.214 1 .34.55.214 1-.28 1s-3.541 3.713-6.771 8.25-7.43 10.191-9.333 12.563c-1.903 2.371-3.57 5.296-3.704 6.5l-.329 2.934c-.046.411-1.77 2.638-3.833 4.949-2.472 2.77-2.898 3.571-1.25 2.35 3.728-2.761 16.077-19.477 20-27.073 1.375-2.662 3.084-5.545 3.799-6.406.714-.862 3.771-5.11 6.794-9.439 5.621-8.053 6.606-10.912 2.076-6.027M511.5 1551c-1.1.473-1.458.891-.795.93.662.038 2.329 1.195 3.704 2.57 2.038 2.038 3.571 2.529 8.296 2.658 3.187.086 6.47.042 7.295-.099.825-.141 3.413-.482 5.75-.758 4.761-.563 5.322-1.428 2-3.085-6.054-3.019-21.373-4.312-26.25-2.216m493.15 76c-1.944 3.898-.665 3.892 1.553-.006.937-1.647 1.308-2.994.824-2.994-.484 0-1.554 1.35-2.377 3m-11.213 22.125c-2.056 2.188-2.307 2.743-.835 1.852 1.816-1.1 5.005-4.977 4.094-4.977-.177 0-1.644 1.406-3.259 3.125m-23.061 27.125c-4.322 4.487-17.948 20.169-20.203 23.25-5.363 7.328-7.412 10.595-6.939 11.067.314.314 1.852-1.076 3.418-3.089 1.567-2.012 5.431-6.782 8.589-10.599 3.157-3.817 7.535-9.288 9.728-12.159 2.193-2.871 5.63-7.132 7.638-9.47 5.028-5.852 3.866-5.331-2.231 1" fill-rule="evenodd"/></svg>