<svg xmlns="http://www.w3.org/2000/svg" width="1240" height="1753"><path d="M268.725 71.006c-1.527.459-7.306 1.095-12.843 1.413-5.537.318-10.434.804-10.881 1.08-1.776 1.098-23.913.618-26.126-.566-3.276-1.753-31.634-2.153-61.875-.872-14.025.594-27.3 1.252-29.5 1.461-23.772 2.264-28.207 2.329-38 .56-4.409-.796-8.045-.774-13.711.084-9.192 1.392-9.806 1.71-10.185 5.27-.162 1.515-.701 3.049-1.199 3.409-.498.36-.905 1.218-.905 1.905 0 .688-.4 1.212-.888 1.165-1.684-.162-2.547 2.594-1.963 6.267.445 2.801.078 4.392-1.532 6.654-1.164 1.635-2.117 3.861-2.117 4.946 0 1.086-.716 3.686-1.59 5.78-5.158 12.344-6.715 34.83-4.601 66.438 1.691 25.272 4.605 104.087 4.437 120-.818 77.637-.937 168.775-.231 176.5.502 5.5 1.136 23.625 1.408 40.278.272 16.654.728 30.657 1.014 31.119 1.015 1.644.503 116.731-.704 158.103-.297 10.175-.81 37.4-1.141 60.5-.605 42.281-1.133 58.063-2.45 73.25-.393 4.538-.361 8.25.071 8.25.433 0 .787.675.787 1.5s-.45 1.5-1 1.5c-1.474 0-1.218 6.702.278 7.276 1.649.633 2.233 14.724.609 14.724-.721 0-.885 1.457-.48 4.25.732 5.035.675 15.808-.089 17.045-.296.478-.481 6.57-.412 13.537.089 9.011-.174 12.235-.911 11.168-.732-1.059-.926 2.173-.657 11 .209 6.875.502 31.057.653 53.738.208 31.389-.019 41.591-.951 42.713-.974 1.175-.904 2.116.346 4.622 2.315 4.64 2.666 60.958.407 65.429-.833 1.649-1.785 6.033-2.115 9.742-.331 3.71-1.162 7.76-1.847 9-.94 1.701-1.24 12.466-1.22 43.756.022 36.707.22 41.929 1.707 45.218 2.041 4.512 2.16 11.228.301 16.997-1.558 4.834-1.988 21.785-.553 21.785.536 0 .949 6.491.969 15.25.022 9.394.584 17.746 1.465 21.75.856 3.892 1.45 12.317 1.48 21 .051 14.676.377 16.5 2.948 16.5.785 0 1.755 1.221 2.154 2.714.399 1.492.723 17.917.721 36.5-.009 58.913-.094 56.001 2.246 76.786 3.423 30.393 3.654 68.132.803 131.243-.926 20.503-.918 29.361.036 40.5 3.623 42.29 5.6 56.525 9.341 67.257 3.572 10.249 5.492 11.513 21.271 13.999 6.05.953 13.257 2.768 16.015 4.033 2.758 1.265 9.058 3.292 14 4.505 8.636 2.119 9.581 2.156 24.333.934 12.889-1.067 27.006-1.35 46.152-.923 1.925.043 6.425.067 10 .054 3.575-.014 8.525.001 11 .034 2.475.032 8.775-.167 14-.443 5.225-.275 16.925.103 26 .841s22.8 1.589 30.5 1.892c7.7.303 24.8 1.047 38 1.653 19.835.911 29.032.825 53-.498 17.169-.947 56.129-1.86 95.5-2.238 56.601-.543 69.403-.397 86 .983 10.725.892 25.8 2.093 33.5 2.668 7.7.576 17.825 1.467 22.5 1.979 4.675.513 11.087 1.211 14.25 1.552 3.598.387 5.75 1.086 5.75 1.867 0 .686-1.628 3.151-3.619 5.476-1.99 2.325-3.34 4.506-3 4.846.341.341.619.094.619-.547 0-.642.503-1.167 1.118-1.167.615 0 2.656-1.35 4.535-3s4.076-3 4.882-3 1.465-.402 1.465-.893.71-1.165 1.577-1.498c1.444-.554 19.705.821 44.923 3.385 5.5.559 17.425 1.23 26.5 1.492 43.791 1.262 54.773 1.738 70.961 3.073 21.827 1.801 40.54 1.799 72.783-.008 16.35-.916 26.391-1.086 28.499-.481 5.804 1.664 35.522 3.264 38.543 2.074 6.806-2.679 46.927-5.27 59.053-3.813 6.384.767 9.548.691 13.5-.325 5.918-1.521 45.536-1.655 48.431-.164 1.703.878 43.041-1.172 45.92-2.277.769-.295 6.283-.997 12.255-1.56 5.971-.563 12.813-1.722 15.206-2.577 2.696-.962 10.438-1.868 20.376-2.384 16.887-.876 22.423-2.213 24.393-5.894 1.896-3.543 1.303-5.002-2.17-5.337-3.923-.378-3.809-1.945.239-3.313 1.628-.55 3.916-1.958 5.086-3.128 1.834-1.836 1.958-2.454.9-4.5-.674-1.305-2.122-3.358-3.218-4.563-1.716-1.885-1.838-2.638-.876-5.399 1.604-4.599 1.44-5.086-1.631-4.842-1.513.121-3.47-.093-4.351-.474-.88-.382-2.204-.559-2.94-.394-.737.165-1.52-.526-1.739-1.535-.32-1.471.163-1.799 2.44-1.654 4.564.29 7.033-.96 9.811-4.969 2.484-3.584 2.608-4.388 2.651-17.151.032-9.485-.401-14.703-1.483-17.891-1.009-2.972-1.724-10.273-2.104-21.5-.317-9.35-.781-19.925-1.031-23.5-.25-3.575-.642-10.464-.872-15.31-.23-4.845-.657-9.049-.949-9.34-.292-.292.04-2.178.737-4.19 1.36-3.926.592-8.892-1.65-10.659-.699-.55-1.885-2.351-2.637-4.001a153.991 153.991 0 0 0-2.258-4.75c-.7-1.373-.472-1.75 1.058-1.75 1.072 0 2.227-.45 2.567-1 .34-.55-.132-1-1.048-1-1.07 0-1.46-.537-1.09-1.5.316-.825.092-1.5-.499-1.5s.283-1.268 1.942-2.817c6.395-5.975 8.155-17.501 3.986-26.117-1.917-3.961-8.913-11.684-15.662-17.289-1.955-1.624-2.046-2.461-1.566-14.5.718-18.034.691-18.458-1.386-21.259-1.028-1.385-3.4-3.029-5.273-3.654-4.432-1.48-29.383-3.516-33.904-2.768-2.619.434-4.062.092-5.732-1.36-2.345-2.038-1.947-4.045.414-2.085.752.624 1.626.875 1.942.558 1.015-1.015-.524-2.467-3.365-3.176-1.517-.379-3.534-1.387-4.481-2.241-1.275-1.148-3.085-1.421-6.966-1.048-2.883.277-5.933.143-6.777-.298-.844-.441-8.285-1.321-16.535-1.956-17.747-1.365-18.777-1.528-15.761-2.498 1.231-.396 2.018-1.075 1.75-1.511-.628-1.014-7.698-.198-13.489 1.559-2.475.751-10.744 2.07-18.375 2.932-12.745 1.44-13.971 1.436-15.057-.048-1.072-1.467-1.639-1.477-6.125-.112-2.719.827-6.579 2.204-8.578 3.061-2.28.977-8.245 1.776-16 2.144-6.801.323-13.94.883-15.865 1.246-3.333.628-3.238.687 2 1.247 4.854.518 5.221.706 3.127 1.606-1.724.741 1.62.948 12.226.759 8.03-.143 14.844.135 15.143.618.879 1.423-7.113 2-20.496 1.48-6.875-.267-16.85-.596-22.166-.73-5.317-.133-10.004-.581-10.417-.993-.413-.413.562-.756 2.166-.764 4.416-.02 7.417-1.064 7.417-2.578 0-1.045-.592-1.134-2.565-.383-1.411.536-4.673 1.011-7.25 1.054-2.577.043-4.12.307-3.429.585.691.279 1.002.918.691 1.421-.785 1.27-8.183 1.152-8.983-.144-.372-.601-1.888-.787-3.508-.431-1.57.345-10.865.101-20.655-.541-9.791-.642-31.751-1.561-48.801-2.042-17.05-.481-34.6-1.248-39-1.705-4.4-.457-9.125-.508-10.5-.113-1.935.557-1.37.761 2.5.905 2.75.102 6.125.507 7.5.899 2.047.584 1.535.831-2.821 1.362-5.038.613-10.034-.178-21.679-3.434-2.2-.615-6.644-1.258-9.876-1.427-6.835-.36-17.979-1.897-28.624-3.95-4.125-.795-12.834-2.128-19.353-2.962-6.519-.833-12.819-1.757-14-2.051-1.181-.295-4.172-.713-6.647-.929-2.475-.216-7.425-1.078-11-1.916-3.575-.838-12.35-2.037-19.5-2.664-11.866-1.041-68.497-1.638-114.5-1.206-10.175.096-20.3-.04-22.5-.301-2.2-.261-28.525-.704-58.5-.984-47.078-.44-56.581-.277-69.783 1.197-13.583 1.517-17.31 1.563-33.5.413-10.019-.711-23.5-1.612-29.957-2.001-6.457-.389-11.922-.899-12.143-1.134-.989-1.046-.8-130.963.202-138.926.588-4.675 1.605-13.084 2.259-18.687l1.19-10.186 10.116-10.012c5.564-5.506 11.466-11.032 13.116-12.281 1.65-1.248 7.95-6.598 14-11.889 6.05-5.29 21.575-18.095 34.5-28.455 12.925-10.361 28.45-22.949 34.5-27.975 6.05-5.026 14.209-11.596 18.13-14.602 8.64-6.62 14.145-11.536 17.03-15.206 2.317-2.948 10.269-9.677 16.944-14.34 2.258-1.577 6.805-5.117 10.105-7.867 3.3-2.75 7.912-6.544 10.25-8.43 2.338-1.887 5.364-5.112 6.724-7.167 1.847-2.791 5.685-5.556 15.145-10.914 10.658-6.037 25.621-15.475 42.172-26.602 1.925-1.294 8.45-7.134 14.5-12.976 6.05-5.843 12.605-11.443 14.567-12.444 1.962-1.001 4.154-2.529 4.872-3.394.718-.865 1.705-1.573 2.194-1.573 1.106 0 10.25-6.336 14.652-10.152 1.806-1.567 3.64-2.848 4.075-2.848.681 0 3.164-1.788 14.593-10.509 1.075-.82 2.437-1.491 3.028-1.491 1.075 0 12.816-7.965 17.519-11.885 4.723-3.937 7.817-6.115 8.685-6.115.774 0 8.897-5.717 13.576-9.555.969-.795 1.996-1.445 2.282-1.445.285 0 12.318-7.797 26.738-17.326C745.967 920.361 755 913.081 755 909.497c0-.823.436-1.497.969-1.497.532 0 .74-.595.461-1.322-.29-.754.583-1.818 2.031-2.478 1.397-.637 2.539-1.821 2.539-2.633 0-2.906 7.25-8.746 15.132-12.191 3.067-1.34 3.712-2.179 4.142-5.383.28-2.088-.058-6.238-.752-9.222l-1.261-5.426 4.504-1.205 4.504-1.204-.504-6.272c-.277-3.45-1.058-7.148-1.735-8.218-1.972-3.114-8.151-7.446-10.622-7.446-1.675 0-3.731-1.999-7.839-7.625-3.063-4.194-5.569-8.227-5.569-8.963 0-1.107-14.502-19.904-18.639-24.16-.667-.686-2.922-4.061-5.011-7.5-2.089-3.438-4.485-7.077-5.324-8.086a766.966 766.966 0 0 0-3.276-3.903c-.962-1.138-1.75-2.365-1.75-2.727 0-.363-.793-1.531-1.762-2.597-2.88-3.168-9.238-12.37-9.238-13.37 0-.509-.578-1.521-1.284-2.248-.706-.726-2.586-3.571-4.178-6.321-1.592-2.75-4.071-6.125-5.509-7.5-3.518-3.363-7.177-9.5-6.266-10.507.405-.447.175-.49-.513-.094-.687.395-1.25.267-1.25-.285 0-.952-8.977-12.099-16.512-20.504-1.918-2.14-3.488-4.278-3.488-4.75 0-.473-.477-.86-1.059-.86s-.781-.45-.441-1 .141-1-.441-1-1.059-.659-1.059-1.465c0-.805-.904-1.948-2.008-2.539-1.827-.978-6.278-6.229-11.492-13.557-1.1-1.546-3.013-4.03-4.25-5.519-1.237-1.49-2.25-3.121-2.25-3.626 0-.504-.81-1.789-1.8-2.855-.99-1.067-2.678-3.514-3.75-5.439-1.073-1.925-2.512-3.86-3.2-4.3-.687-.44-1.25-1.259-1.25-1.821 0-1.206-2.513-3.879-3.647-3.879-.434 0-1.716-1.078-2.849-2.397-1.132-1.318-4.972-3.959-8.532-5.87-5.98-3.21-7.546-3.567-20.619-4.696-16.727-1.444-21.198-.798-35.037 5.062-5.052 2.139-9.849 3.634-10.66 3.322-.939-.36-1.73.236-2.175 1.639-.479 1.509-.937 1.821-1.451.988-.554-.895-.912-.798-1.359.368-.335.871-1.265 1.584-2.067 1.584-.802 0-2.344 1.125-3.425 2.5-1.082 1.375-2.745 2.5-3.695 2.5-1.423 0-1.509.265-.484 1.5 1.038 1.251.902 1.5-.819 1.5-1.134 0-2.346.457-2.691 1.016-.346.559-1.117.715-1.714.346-.605-.375-.801-.211-.442.37.354.573-.026 1.597-.845 2.277-.819.68-1.489 1.89-1.489 2.69 0 1.575-5.282 7.301-6.735 7.301-1.21 0-4.198 4.207-8.582 12.079-3.769 6.767-12.176 16.198-19.119 21.446-2.165 1.636-4.64 3.683-5.5 4.547-.86.865-2.914 2.505-4.564 3.645-1.65 1.139-6.6 5.539-11 9.777-4.4 4.239-9.913 9.033-12.25 10.654-2.337 1.622-4.25 3.304-4.25 3.74 0 .435-1.055 1.272-2.345 1.859-1.289.588-4.989 3.473-8.222 6.411-3.232 2.938-8.856 8.042-12.496 11.342a3928.841 3928.841 0 0 0-17.028 15.576c-16.586 15.258-28.62 26.085-34.216 30.783-2.856 2.398-9.693 8.535-15.193 13.638-5.5 5.104-12.25 11.136-15 13.405s-5.9 4.956-7 5.97c-5.391 4.972-13.533 10.664-18.279 12.777-6.379 2.841-6.515 2.851-5.743.422.492-1.552.066-1.992-2.183-2.25l-2.795-.321.253-88.5c.138-48.675.364-114.35.5-145.945s-.003-56.12-.31-54.5c-.657 3.468-1.748-25.157-2.536-66.525-.308-16.208-.697-29.708-.863-30-.626-1.095-1.522-25.612-2.086-57.03-1.057-58.84-1.079-62.459-.416-67l.658-4.5.203 5.5c.291 7.882 1.226 17.419 1.763 17.979.686.716-.253-21.542-1.582-37.479-.682-8.183-1.312-42.046-1.516-81.5-.341-66.011-.555-72.475-2.728-82.296-1.108-5.007-2.875-5.791-3.84-1.704-.692 2.932-2.675 3.717-3.3 1.305-.257-.993-.58 3.37-.718 9.695-.217 10.003-.359 10.849-1.09 6.5-.463-2.75-1.099-8.825-1.414-13.5-.706-10.465-2.087-16-3.992-16-1.078 0-1.279.786-.805 3.155.408 2.04.269 2.932-.392 2.524-.563-.348-1.282-3.906-1.598-7.906-.532-6.739-1.237-11.273-1.753-11.273-.118 0-.285-2.023-.371-4.495-.118-3.389-.583-4.577-1.888-4.828-.952-.184-1.666.039-1.587.495.08.455.075 3.078-.01 5.828l-.154 5-2.055-5.5c-2.232-5.976-2.846-17.176-.976-17.799.607-.202 1.103-2.58 1.103-5.284 0-2.704.45-4.917 1-4.917s1 1.069 1 2.375c0 3.838 1.179 8.625 2.125 8.625.481 0 .889-.787.906-1.75.018-.963 1.143-2.559 2.5-3.547l2.469-1.796v5.023c0 4.244.385 5.276 2.478 6.648 2.209 1.447 2.653 3.374 1.478 6.422-.106.275-.087.95.043 1.5s.451 3.377.714 6.283c.263 2.905.846 6.505 1.296 8 .726 2.407.829 2.218.905-1.655.074-3.769.293-4.201 1.586-3.128.825.685 1.506 2.202 1.514 3.372.02 3.204 1.107 6.628 2.103 6.628.485 0 .883-.81.883-1.8s.54-2.34 1.2-3c.66-.66.896-1.2.525-1.2-.372 0-.248-1.125.275-2.5.625-1.644.605-2.5-.06-2.5-.673 0-.667-.642.021-1.926 1.081-2.022 1.157-10.074.094-10.074-.339 0-.603-6.862-.586-15.25.017-8.388-.277-18.85-.653-23.25-.377-4.4-.714-8.364-.75-8.809-.036-.445-.516-.531-1.066-.191s-1-.11-1-1-.398-1.372-.884-1.072c-.486.301-1.413-.732-2.06-2.294-1.121-2.706-4.939-5.129-12.556-7.967-7.411-2.761-24.733-3.977-30.775-2.161m1.589 25.968c.478 3.132 1.686 3.628 1.686.693 0-1.467-.447-2.667-.994-2.667-.546 0-.858.888-.692 1.974M244 117.889c0 1.141-.65 1.834-1.642 1.75-.904-.076-1.77.435-1.925 1.136-.156.701-.055.817.223.258.339-.682 1.164-.664 2.507.054 1.589.851 2.27.703 3.308-.716.718-.983 1.083-2.369.811-3.079-.763-1.988-3.282-1.53-3.282.597m15.079 3.661c.078 3.906.09 3.918 1.112 1.112.734-2.013.711-3.16-.078-3.949-.817-.817-1.092-.063-1.034 2.837m-16.064 3.231c.009.946.398 2.323.866 3.061.623.983.981.662 1.337-1.2.303-1.585-.023-2.737-.866-3.061-.815-.312-1.346.164-1.337 1.2m18.475 3.235c-.346.559-1.047.758-1.559.441-.512-.316-.938.464-.946 1.734-.012 1.814-.215 1.994-.946.838-.512-.809-1.155-1.246-1.43-.971-.861.861.795 2.642 3.135 3.373 1.739.542 2.115.365 1.673-.787-.314-.818-.071-2.423.541-3.566 1.113-2.079.716-2.978-.468-1.062m3.876 3.769c-.985 1.577-.795 1.784 1.504 1.639 3.915-.247 4.13-.327 4.13-1.541 0-.615-.877-.887-1.952-.606-1.074.281-2.088.104-2.253-.393-.166-.497-.809-.092-1.429.901m-73.838.181c-1.752.636-1.668.774.75 1.236 1.497.286 2.722.16 2.722-.282 0-1.33-1.386-1.711-3.472-.954m46.022-.078c1.665 1.555 5.45 2.333 5.45 1.12 0-.619-.45-.848-1-.508-.55.34-1 .141-1-.441s-.99-1.059-2.2-1.059c-1.328 0-1.823.352-1.25.888m14.55.187c.176 2.52 1.694 6.532 1.8 4.758.055-.916.485-1.816.955-2 .47-.183.02-1.199-1-2.258-1.336-1.386-1.827-1.526-1.755-.5m-20.221 2.162c1.729 2.234.697 5.486-1.233 3.884-1.335-1.108-2.646-.561-2.646 1.105 0 .49.412.638.915.327.503-.311 1.178 0 1.5.691.467 1.003.703 1.004 1.168.006.321-.687 1.221-1.25 2-1.25 2.136 0 1.702-2.447-.816-4.595-1.784-1.522-1.962-1.556-.888-.168m-33.326 3.408c-.365 1.454-.278 3.03.193 3.501.477.477.902-.699.957-2.644.118-4.179-.248-4.452-1.15-.857M184.5 137c-.357.577.57.994 2.191.985 2.181-.012 2.474-.232 1.309-.985-1.921-1.242-2.733-1.242-3.5 0m59.226 1.94c-.44 1.684-.258 1.785 1.383.76 2.221-1.387 2.468-2.7.508-2.7-.761 0-1.612.873-1.891 1.94m-59.088 1.56c.317.825.923 1.5 1.347 1.5.423 0 1.33-.675 2.015-1.5 1.052-1.268.844-1.5-1.346-1.5-1.892 0-2.436.405-2.016 1.5m72.306 1.067c-.949 1.144-.861 1.433.434 1.433 1.716 0 2.249 1.602.721 2.167-.496.183-.271.913.5 1.622 1.177 1.084 1.401.795 1.401-1.809 0-1.811.416-2.841 1-2.48.55.34 1 .012 1-.728 0-1.832-3.585-1.977-5.056-.205m-68.58 4.939c.418 1.089.182 2.2-.58 2.735-.84.589-.183.766 1.903.512 2.675-.326 3.283-.008 3.781 1.975.326 1.3.328 2.793.004 3.318-.348.562 1.386.892 4.219.804 3.357-.104 3.903-.279 1.809-.577-3.839-.546-5.277-1.896-3.7-3.473.66-.66 1.186-1.673 1.168-2.25-.017-.578-.753-.15-1.634.95-1.085 1.354-1.426 1.482-1.056.397.312-.916-.339-2.361-1.52-3.372-1.78-1.525-1.98-1.545-1.443-.147.342.892.186 1.622-.346 1.622-.533 0-.969-.648-.969-1.441s-.526-1.766-1.17-2.164c-.808-.5-.952-.156-.466 1.111m12.221 1.385c-2.643 1.036-2.97 4.109-.437 4.109 1.083 0 1.692.45 1.352 1-.345.558.403.993 1.691.985 1.583-.011 1.904-.273 1.02-.833-.961-.61-1.031-1.496-.275-3.485 1.089-2.863.38-3.238-3.351-1.776m56.515 3.06c.055 1.402.392 3.516.75 4.698.55 1.817.849 1.933 1.939.75.71-.77.875-1.399.367-1.399s-1.144-1.159-1.415-2.576c-.352-1.838-.185-2.268.583-1.5 1.444 1.444 2.978 1.374 2.071-.094-.486-.787-.178-.961.941-.531.915.351 1.664.252 1.664-.221s-1.575-1.043-3.5-1.268c-3.211-.375-3.492-.198-3.4 2.141M148.252 241.5c.011 2.2.216 2.982.455 1.738.239-1.244.23-3.044-.02-4s-.446.062-.435 2.262m1.034 14c.008 2.75.202 3.756.432 2.236.229-1.52.223-3.77-.014-5-.237-1.23-.425.014-.418 2.764m-.958 45c.005 3.85.185 5.302.402 3.228.216-2.075.213-5.225-.008-7-.221-1.776-.398-.078-.394 3.772M47.678 434.784c-.343 6.444-1.078 17.791-1.632 25.216-2.657 35.61-4.004 95.29-2.176 96.419.479.297 1.161-11.912 1.519-27.19.81-34.536 1.41-50.206 2.728-71.229 1.571-25.048 1.819-33.921.963-34.45-.428-.265-1.059 4.791-1.402 11.234m-1.239 252.63c.305 3.802.781 7.14 1.058 7.416.997.997.447-11.366-.571-12.83-.747-1.075-.885.46-.487 5.414m564.344 2.562c.318 2.164.835 2.675 2.313 2.289 2.459-.643 2.364-1.386-.44-3.421-2.238-1.623-2.274-1.602-1.873 1.132m9.217 7.786c0 .51.9 1.743 2 2.738 1.1.995 2 2.315 2 2.932 0 1.359 5.773 6.568 7.279 6.568.59 0-.6-1.687-2.644-3.75-2.043-2.062-4.26-4.839-4.925-6.171-1.23-2.461-3.71-4.01-3.71-2.317m-21.644 13.865c-.629.258-.914 1.347-.633 2.421.713 2.728 1.749 2.433 1.921-.549.08-1.374.08-2.463 0-2.42-.079.043-.659.29-1.288.548M630 712.633c0 1.642 3.576 5.367 5.153 5.367 1.437 0 .934-2.029-.653-2.638-.825-.317-1.5-1.428-1.5-2.469s-.675-1.893-1.5-1.893-1.5.735-1.5 1.633M47.918 716.5c-.23 2.2-.185 6.25.101 9l.519 5 .714-5.5c.393-3.025.348-7.075-.1-9l-.815-3.5-.419 4m587.832 4.162c.688.278 1.25 1.367 1.25 2.421 0 1.055.45 1.917 1 1.917s1-.45 1-1 1.013-1.003 2.25-1.006c2.061-.006 2.01-.132-.614-1.5-1.576-.822-3.601-1.458-4.5-1.415-1.037.05-1.178.264-.386.583m6.432 6.204c-.979.621-.016 2.13 3.75 5.877 2.788 2.772 5.068 5.539 5.068 6.149 0 1.406 1.675 1.443 2.533.055.358-.579-.261-1.843-1.374-2.809-1.114-.966-2.329-2.967-2.7-4.447-.372-1.48-1.329-2.691-2.126-2.691-.798 0-1.202-.403-.898-.895.305-.493-.156-1.168-1.023-1.5-1.904-.731-1.63-.753-3.23.261m-33.544 3.634c-.316.825-.177 1.5.31 1.5s1.062-.53 1.278-1.177c.571-1.715 2.774-.025 2.774 2.129 0 2.032 2.597 3.508 3.527 2.004.325-.526-.062-.956-.86-.956-.797 0-1.733-1.125-2.078-2.5-.7-2.79-4.008-3.458-4.951-1m-555.971 1.167c-.367.366-.628 4.079-.581 8.25.099 8.781 1.558 6.124 1.773-3.233.133-5.738.017-6.226-1.192-5.017m600.714 8.781c-.305.797.346 2.416 1.447 3.598 1.598 1.715 2.373 1.93 3.837 1.067 1.722-1.014 1.696-1.12-.415-1.714-1.313-.369-2.25-1.417-2.25-2.516 0-2.218-1.818-2.52-2.619-.435M117.252 747.5c.011 2.2.216 2.982.455 1.738.239-1.244.23-3.044-.02-4s-.446.062-.435 2.262M47 747.441c0 1.407.45 2.559 1 2.559s1-.873 1-1.941-.45-2.219-1-2.559c-.567-.351-1 .49-1 1.941m616.019 4.036c-.717.864-1.015 1.86-.662 2.214.354.353.643.117.643-.524 0-.642.477-1.167 1.059-1.167s.8.419.484.931c-.317.512-.118 1.213.441 1.559 1.215.751 1.324-1.456.162-3.287-.656-1.034-1.087-.979-2.127.274m-402.942 53.36c.039 6.14.374 11.163.746 11.163.818 0 .592-20.918-.234-21.745-.32-.319-.55 4.443-.512 10.582M46.173 856.422c.18 1.452.777 2.626 1.327 2.609 1.496-.046 1.207-4.295-.327-4.807-.927-.309-1.228.354-1 2.198m616.452 111.01c-6.955 6.664-6.053 8.784 1.646 3.869 3.648-2.329 8.729-6.946 8.729-7.932 0-.176-1.151.118-2.557.653-1.691.643-2.349.634-1.941-.025 1.524-2.466-1.662-.604-5.877 3.435M61.07 1267.191c-.038 2.03.38 3.969.93 4.309 1.207.746 1.207-3.192 0-6-.693-1.612-.873-1.284-.93 1.691M1037 1422.177c-15.125.405-29.75 1.194-32.5 1.753-2.75.559-7.475 1.366-10.5 1.793l-5.5.777 6.5.5c5.144.396 6.448.824 6.252 2.053-.209 1.305.628 1.455 5.271.944 3.036-.334 5.735-.695 5.998-.802.264-.107 1.716-.24 3.229-.295l2.75-.099-2.5-.744c-1.375-.409-3.26-.362-4.189.103-.951.475-1.932.453-2.245-.053-.763-1.235 1.017-1.727 7.292-2.018 3.635-.169 5.144.099 4.691.831-1.026 1.661 3.087 1.301 4.808-.42 1.866-1.866 2.698-1.872 6.227-.041l2.812 1.459-2.448.978c-1.89.754-.467.992 6.243 1.041 5.152.037 8.96-.372 9.351-1.005.363-.587 2.977-.999 5.809-.915 2.832.085 7.624.056 10.649-.063 10.031-.396-.28-1.571-12-1.367-5.775.1-8.497-.022-6.05-.27 2.86-.29 3.977-.744 3.125-1.271-.756-.467 1.967-.797 6.337-.769 6.675.043 11.443-1.263 8.925-2.444-.46-.216-13.212-.061-28.337.344m-19.5 7.713c-1.83.398-2.545.94-1.834 1.389 1.107.698 11.334-.981 11.334-1.862 0-.595-5.956-.299-9.5.473m-684.25 173.826c1.512.229 3.988.229 5.5 0s.275-.416-2.75-.416-4.262.187-2.75.416m22.75.316c-1.809.556-.774.796 3.75.868 3.438.055 6.25-.254 6.25-.688 0-1.035-6.816-1.158-10-.18m14.762 6.675c1.244.239 3.044.23 4-.02s-.062-.446-2.262-.435c-2.2.011-2.982.216-1.738.455m68.238 6.395c0 .494.563.933 1.25.975 6.286.387 8.005.32 8.404-.327.255-.412-.125-.783-.845-.823-.72-.041-2.996-.22-5.059-.398-2.062-.178-3.75.08-3.75.573m-28.5.898c-1.772.762-1.687.867.75.93 1.512.038 2.75-.38 2.75-.93 0-1.174-.769-1.174-3.5 0m21.268 23.725c1.797.222 4.497.218 6-.01 1.503-.229.032-.411-3.268-.405-3.3.005-4.529.192-2.732.415M419 1653c-3.419.72-3.389.74 1.25.868 2.613.073 4.75-.318 4.75-.868 0-1.097-.788-1.097-6 0m37.25-.284c1.512.229 3.988.229 5.5 0s.275-.416-2.75-.416-4.262.187-2.75.416m35 .012c2.063.216 5.438.216 7.5 0 2.063-.215.375-.392-3.75-.392s-5.812.177-3.75.392M514 1653c0 .55.648 1 1.441 1s1.719-.45 2.059-1c.34-.55-.309-1-1.441-1-1.132 0-2.059.45-2.059 1m-180 1.147c0 .469 2.813.817 6.25.774 7.101-.09 6.708-.56-1-1.195-2.887-.238-5.25-.048-5.25.421m28-.147c-1.125.727-.625.969 2 .969s3.125-.242 2-.969c-.825-.533-1.725-.969-2-.969-.275 0-1.175.436-2 .969m167.75-.294c1.237.238 3.263.238 4.5 0 1.237-.239.225-.434-2.25-.434s-3.487.195-2.25.434m7.75.294c.34.55 1.491 1 2.559 1s1.941-.45 1.941-1-1.152-1-2.559-1c-1.451 0-2.292.433-1.941 1" fill-rule="evenodd"/></svg>