<svg xmlns="http://www.w3.org/2000/svg" width="1240" height="1753"><path d="M548.5 53.76c-4.4.753-9.998 2.253-12.441 3.333-2.442 1.08-8.216 2.622-12.831 3.427-4.615.804-8.869 1.758-9.453 2.119-.584.361-2.91.853-5.169 1.094-9.266.987-24.376 3.673-27.062 4.811-5.283 2.237-12.266 9.652-13.419 14.248-3.319 13.236-4.202 18.181-5.122 28.676-.568 6.474-1.261 12.141-1.541 12.594-.756 1.223-2.73 47.538-2.981 69.938-.12 10.725-.448 37.275-.73 59-.322 24.928-.01 52.412.847 74.5 1.278 32.922 1.256 35.077-.37 36.3-1.471 1.107-1.781 1.033-2.081-.5-.195-.99-1.001-2.532-1.793-3.426-.792-.894-1.71-3.291-2.04-5.327-.41-2.527-.868-3.28-1.442-2.374-.684 1.079-.844 1.083-.857.018-.008-.72-.426-1.055-.927-.745-.502.31-.785-.6-.629-2.022.168-1.527-.299-2.809-1.139-3.132-1.008-.386-1.245-1.457-.811-3.669.401-2.043.294-2.662-.309-1.79-.66.956-1.248.034-2.076-3.256-1.29-5.12-3.783-10.388-16.604-35.077-10.444-20.111-8.79-16.817-16.813-33.5-14.027-29.167-24.995-50.926-30.246-60-3.024-5.225-6.659-11.975-8.077-15-1.419-3.025-3.773-7.317-5.232-9.537-1.459-2.22-4.002-6.72-5.652-10-1.65-3.28-3.225-6.188-3.5-6.464-.275-.275-1.333-2.075-2.351-4a16245.89 16245.89 0 0 1-7.192-13.631c-2.937-5.572-8.572-15.202-12.521-21.4-3.95-6.197-8.084-13.338-9.188-15.868-2.354-5.396-10.469-13.566-14.46-14.556-1.533-.381-3.809-1.645-5.056-2.809-1.247-1.165-3.272-2.26-4.5-2.434-3.75-.533-6.004-4.196-5.474-8.898.338-2.999-.036-4.77-1.375-6.511-1.011-1.316-1.849-2.842-1.862-3.392-.013-.55-1.202-2.35-2.644-4-2.535-2.903-2.596-2.919-1.886-.5.495 1.688.404 2.175-.282 1.5-.558-.55-1.236-1.9-1.506-3-.467-1.901-.527-1.889-1.214.25-.814 2.536-2.489 3.04-2.489.75 0-.825.45-1.5 1-1.5s1-.45 1-1-.675-1-1.5-1-1.509.563-1.519 1.25c-.011.688-1.494-.439-3.297-2.504-2.212-2.533-5.154-4.414-9.044-5.781-3.172-1.115-6.525-2.498-7.453-3.073-2.61-1.617-7.183.499-7.202 3.333-.012 1.717-.234 1.931-.905.87-.907-1.432-6.078-2.518-6.082-1.277-.002.375-1.239.725-2.75.778-1.512.053-4.844.412-7.407.798l-4.658.701.442 4.203c.244 2.311.639 4.765.878 5.452.239.688-.253 1.25-1.093 1.25-.841 0-1.234-.476-.874-1.058.359-.581-.521-2.831-1.955-5-2.725-4.116-5.007-4.855-8.774-2.839-1.563.837-2.253.794-2.852-.176-.888-1.437-17.087-1.776-27.455-.576-6.431.745-8.311.8-13 .382-1.65-.147-4.315.069-5.922.48-1.651.421-3.441.316-4.114-.243-.656-.544-4.066-.961-7.578-.925-3.512.035-7.286.068-8.386.073-3.293.015-37.239-1.072-48.134-1.541-5.574-.241-13.453-.12-17.51.267-5.23.5-8.101.335-9.866-.568-1.37-.7-3.669-1.025-5.11-.723-1.441.302-4.767.724-7.39.938-2.623.213-5.246.865-5.83 1.449-.583.583-.676 1.06-.207 1.06.469 0-.185.9-1.453 2-2 1.735-3.741 2-13.122 2-9.203 0-10.729.224-10.24 1.5.37.963-.02 1.5-1.09 1.5-.916 0-1.388.45-1.048 1 .34.55.177 1-.362 1-1.204 0-2.734 6.407-3.702 15.5-1.461 13.729-3.933 31.076-4.489 31.5-2.091 1.597-3.392 15.592-3.019 32.5.218 9.9.316 24.3.218 32-.768 60.35.265 205.728 1.641 231.18.448 8.275.344 13.762-.28 14.746-.676 1.067-.617 2.168.184 3.45 1.387 2.222.692 64.026-.737 65.527-.482.506-.424 1.718.13 2.755.662 1.237.564 8.401-.296 21.596-.709 10.86-1.204 22.671-1.101 26.246.103 3.575-.253 15.779-.791 27.119-.645 13.6-.637 27.218.024 40 1.554 30.081 2.152 56.817 1.965 87.881-.304 50.331.592 132.582 1.547 142 .691 6.821 1.482 34.896 2.128 75.5.271 17.05.915 46.75 1.432 66 .516 19.25 1.026 43.1 1.133 53 .107 9.9.487 20.57.846 23.711.359 3.14.265 6.403-.209 7.25-.489.874-.48 1.539.022 1.539.485 0 .872 4.162.859 9.25-.029 11.1.88 23.55 1.905 26.101.427 1.063.278 2.138-.349 2.526-.66.408-.753 1.227-.234 2.066.482.78.469 2.415-.028 3.724-.488 1.283-.54 2.333-.116 2.333.425 0 .726 1.237.669 2.75-.056 1.513.315 3.313.826 4 .631.849.474 1.25-.487 1.25-1.147 0-1.372 2.038-1.186 10.75.272 12.751 1.308 51.75 1.374 51.75.026 0 .271 6.075.545 13.5.275 7.425 1.012 16.65 1.638 20.5.627 3.85 1.254 8.575 1.394 10.5.14 1.925.315 3.5.389 3.5.073 0 .323 3.15.555 7 .232 3.85.643 8.575.913 10.5.27 1.925.721 37.25 1.003 78.5.281 41.25.82 79.05 1.198 84 1.052 13.781.942 77.161-.147 84.5-1.105 7.446-1.125 30.184-.045 50.193.7 12.972.852 13.711 2.889 14.024 1.183.182 2.068.794 1.967 1.36-.102.566.968 1.005 2.377.976 2.193-.045 2.781.633 4.085 4.713.838 2.621 1.729 4.561 1.979 4.31.87-.87 4.452 3.277 3.776 4.371-.839 1.357 2.42 10.2 3.51 9.527 1.522-.941 1.678 2.047.195 3.75-1.339 1.538-1.322 1.999.153 4.25.956 1.459 1.198 2.526.573 2.526-.595 0-.799.457-.454 1.016.346.559 1.117.715 1.714.346.653-.404.797-.205.361.5-.398.644-1.219.864-1.824.49-.691-.427-.881-.106-.509.862.325.848.106 2.028-.488 2.622-.772.772-.697 1.539.264 2.698 1.128 1.359 1.117 1.758-.066 2.489-.876.542-1.682.43-2.131-.297-.397-.642-1.036-.854-1.419-.471s-.161 1.342.494 2.132c.812.978.857 1.641.143 2.083-.577.356-1.049 1.746-1.049 3.089s-.45 2.441-1 2.441-1-.525-1-1.167c0-.641-.279-.888-.619-.547-.341.34-1.273-.035-2.071-.834-1.867-1.866-3.687-1.876-2.973-.017.303.79.013 1.656-.643 1.924-.853.349-.766.792.306 1.55.825.583.994 1.067.375 1.076-1.228.016-2.231 3.83-2.988 11.355-.379 3.776-.2 4.679.814 4.109.714-.402.592.024-.273.946-2.299 2.453-1.322 6.871 1.85 8.368 3.277 1.547 4.55 1.576 3.628.085-.514-.832.471-.994 3.539-.582 5.314.713 14.8-3.634 14.243-6.527-.184-.956.175-1.739.798-1.739.622 0 .823.5.445 1.112-.98 1.585 1.4 2.764 4.728 2.343 1.562-.198 2.841.027 2.841.499s.794.651 1.764.397c.971-.253 2.883-.034 4.25.487 1.98.755 2.944.527 4.736-1.12 1.238-1.136 2.25-1.635 2.25-1.107s.9.96 2 .96 2-.38 2-.844c0-.465.383-.609.85-.32.468.289 3.826.771 7.463 1.07 3.637.299 7.642.914 8.9 1.366 2.232.802 13.047.574 15.537-.328.688-.249 1.25-.091 1.25.35 0 .441.563.817 1.25.836.688.019 3.95.564 7.25 1.212 7.535 1.479 37.642 2.662 40.139 1.578 1.024-.445 2.165-.748 2.536-.675.371.074 2.737-.487 5.257-1.246 2.521-.758 5.537-1.129 6.702-.825 1.389.364 2.45-.038 3.081-1.165.902-1.611 1.04-1.613 2.196-.032 1.01 1.381 2.04 1.541 5.662.882 2.435-.443 4.768-.72 5.184-.615.416.104 5.555.397 11.418.651 5.864.254 10.924.851 11.243 1.327.914 1.361 6.463.859 7.679-.694.797-1.018 1.293-1.087 1.809-.25.392.633.348 1.167-.097 1.186-.951.042 3.836 2.877 4.946 2.93.415.019 2.89-2.105 5.5-4.72 2.61-2.615 6.095-5.404 7.745-6.197 1.65-.793 5.343-3.154 8.207-5.245 2.864-2.092 5.691-3.803 6.281-3.803.591 0 1.327-.658 1.636-1.462.308-.804 1.307-1.703 2.218-1.998.912-.296 2.709-2.084 3.993-3.974 1.438-2.118 2.883-3.228 3.761-2.891.984.378 1.239.059.823-1.025-.332-.866.113-3.01.989-4.765.875-1.756 1.592-4.023 1.592-5.039 0-1.015.625-1.846 1.389-1.846s1.368.563 1.342 1.25c-.186 5.027.337 6.545 2.1 6.084 1.424-.372 1.813-1.407 1.75-4.656-.055-2.842.319-4.098 1.169-3.928 1.57.314 1.597-1.24.069-4.066-2.435-4.503-2.672-13.035-.854-30.684.595-5.775 1.184-11.7 1.308-13.167.125-1.466.564-3.004.977-3.416.413-.413.75-2.475.75-4.584 0-2.74.428-3.833 1.5-3.833.839 0 1.5-.891 1.5-2.021 0-1.112 1.08-3.7 2.399-5.75 1.917-2.979 2.533-5.64 3.063-13.229.365-5.225 1.067-11.075 1.559-13 .969-3.786 1.621-17.091 2.524-51.5.318-12.1.816-25.6 1.107-30 .576-8.695.548-102.603-.033-114-1.144-22.424-2.629-73.073-3.107-106-.304-20.9-.982-44.75-1.507-53-.525-8.25-1.222-21.151-1.549-28.669-.327-7.519-.765-15.844-.973-18.5-.948-12.085-2.484-40.227-2.966-54.331-.292-8.525-1.029-29.225-1.638-46-1.252-34.427-1.769-272.387-.605-278.367.414-2.126.927-4.151 1.14-4.5.214-.348.672-2.425 1.018-4.614 1.225-7.74 2.978-6.817 10.142 5.336 6.614 11.222 6.792 11.493 8.424 12.79 2.204 1.752 2.505.772.637-2.079-.899-1.372-1.635-3.186-1.635-4.031 0-1.352.224-1.343 1.886.079 11.373 9.728 12.505 11.567 35.31 57.386 9.171 18.425 19.556 38.675 23.077 45 12.445 22.354 19.766 35.218 21.238 37.319.819 1.169 1.489 2.753 1.489 3.519s1.972 4.379 4.383 8.028c2.411 3.648 5.797 9.334 7.526 12.634 1.728 3.3 4.005 7.35 5.06 9 1.056 1.65 2.546 4.125 3.313 5.5 5.402 9.684 7.334 12.977 9.682 16.5 1.466 2.2 3.947 6.25 5.514 9 1.567 2.75 3.113 5.225 3.435 5.5.323.275 1.347 1.85 2.277 3.5 8.202 14.563 17.474 29.131 26.858 42.2 2.449 3.41 8.502 12.05 13.452 19.2 5.709 8.246 9.498 12.83 10.361 12.538.861-.291 1.16.066.812.971-.302.788.463 2.525 1.701 3.86 2.258 2.437 4.759 6.361 9.389 14.731 1.369 2.475 3.252 5.4 4.185 6.5.933 1.1 3.59 5.15 5.905 9 2.314 3.85 5.984 9.7 8.154 13 2.169 3.3 4.898 7.753 6.064 9.896 1.742 3.204 8.349 12.912 11.641 17.108 2.01 2.56 12.288 18.548 12.288 19.114 0 .618 9.862 14.374 11.027 15.382.318.275 1.611 2.199 2.874 4.277 1.262 2.077 2.813 4.333 3.447 5.015.634.681 2.052 3.013 3.152 5.181s4.813 6.804 8.25 10.302c3.438 3.497 6.25 6.774 6.25 7.281 0 1.468 3.32 4.944 4.722 4.944.703 0 1.278-.675 1.278-1.5s.45-1.5 1-1.5 1 .638 1 1.417.418 1.566.928 1.75c.511.183 2.765 3.483 5.01 7.333 2.244 3.85 4.414 6.861 4.821 6.691.408-.17 1.034.73 1.391 2 .358 1.27.724 1.859.814 1.309.089-.55 1.193 2.083 2.453 5.851 1.802 5.393 2.906 7.163 5.186 8.318 3.65 1.849 12.397 12.492 12.397 15.085 0 2.257 5.509 10.246 7.065 10.246.579 0 .804.403.5.895-.305.493.119 1.153.941 1.469.822.315 1.494 1.469 1.494 2.564s1.146 3.246 2.548 4.781c3.589 3.933 7.452 10.101 7.452 11.901 0 2.186 2.018 5.677 4.159 7.197 1.012.718 1.841 1.733 1.841 2.254 0 .521 2.976 5.276 6.613 10.567 3.638 5.29 6.675 10.645 6.75 11.899.076 1.255.436 2.096.802 1.871.365-.226 1.696 1.28 2.958 3.346 1.262 2.066 2.944 4.25 3.738 4.854.795.604 1.141 1.589.771 2.189-.371.599-.098 1.455.607 1.902.704.446 2.176 2.543 3.271 4.66 1.094 2.118 3.34 4.998 4.99 6.402 1.65 1.404 2.866 3.165 2.703 3.914-.163.749.402 1.63 1.256 1.958.855.328 3.19 3.247 5.189 6.486 2 3.24 3.977 5.891 4.393 5.891.416 0 1.642 1.688 2.723 3.75a332.118 332.118 0 0 0 4.158 7.631c1.205 2.135 1.961 4.483 1.679 5.217-.282.735.817 2.666 2.443 4.292 1.626 1.626 2.956 3.341 2.956 3.811 0 .469.777 1.964 1.727 3.32.95 1.356 1.802 2.918 1.894 3.472.092.554 2.285 4.148 4.875 7.987 2.589 3.839 6.069 9.689 7.735 13 1.665 3.311 3.308 6.245 3.651 6.52.801.642 8.155 11.44 10.118 14.856.825 1.436 1.985 3.068 2.577 3.627 1.44 1.359 8.423 11.373 8.423 12.079 0 .306 3.263 4.42 7.25 9.141s9.013 11.107 11.168 14.19c2.154 3.084 6.429 8.905 9.5 12.936 11.176 14.673 14.009 18.728 15.137 21.671 4.602 12.009 6.003 14.355 12.253 20.524 6.416 6.333 9.99 10.855 17.37 21.976 2.008 3.025 3.94 5.725 4.296 6 1.292 1.001 9.836 15.568 10.557 18 .693 2.337 13.379 19.294 16.085 21.5 1.551 1.264 10.384 14.26 10.384 15.278 0 .417 1.125 2.413 2.5 4.437 1.375 2.023 2.5 4.183 2.5 4.799 0 .616 1.079 2.552 2.398 4.303 1.319 1.751 3.179 5.996 4.132 9.433.955 3.441 2.3 6.25 2.993 6.25.693 0 2.02 1.913 2.948 4.25 1.653 4.159 5.132 8.75 6.632 8.75.415 0 1.395-.641 2.178-1.424 1.232-1.232 1.41-1.03 1.322 1.498-.057 1.607-.589 2.922-1.183 2.924-1.448.003-1.152 7.258.316 7.747.633.211.904 1.03.601 1.82-.303.789-.079 1.435.497 1.435 1.796 0 2.308-1.867 1.12-4.087-.788-1.471-.819-2.448-.1-3.167.718-.718 1.249.553 1.723 4.122.572 4.316 1.072 5.257 3.054 5.754 1.303.327 2.369 1.066 2.369 1.641 0 .576.9.232 2-.763s2.015-1.403 2.033-.905c.019.498.95-.196 2.07-1.542 1.652-1.985 2.201-2.179 2.913-1.028.729 1.18.988 1.129 1.537-.303.364-.947 1.288-1.722 2.054-1.722.766 0 1.357-.787 1.314-1.75-.047-1.045-.282-1.247-.583-.5-.976 2.417-2.015 1.213-1.896-2.197.172-4.964 1.041-5.149 2.561-.544 1.575 4.772 3.485 6.766 4.342 4.533.332-.864 1.236-1.256 2.117-.918.916.351 1.544.041 1.553-.767.012-1.004.214-1.045.777-.16.502.79 1.263.88 2.234.266.997-.63 1.069-.937.224-.948-.687-.008-1.25-1.015-1.25-2.238 0-2.201.017-2.198 1.742.25.958 1.36 1.633 2.81 1.5 3.223-.552 1.711 2.323.089 3.059-1.726.622-1.532.987-1.675 1.629-.637.543.879.955.96 1.199.235.204-.608 1.608-1.207 3.121-1.331 2.783-.23 2.978-.523 3.009-4.515.02-2.548 1.724-2.036 1.773.533.017.93.652 2.51 1.411 3.511 1.334 1.759 1.414 1.759 2.438 0 .982-1.69 1.06-1.695 1.089-.07.02 1.192.827 1.75 2.53 1.75 1.375 0 2.5-.45 2.5-1 0-1.798 1.504-1.05 2.513 1.25.543 1.237 1.437 2.289 1.987 2.336.55.048 1.718.407 2.595.798.878.391 3.915.528 6.75.305 4.687-.37 5.162-.215 5.234 1.702.043 1.16.306 1.547.583.859.597-1.479 5.338-1.701 5.338-.25 0 .55.45 1 1 1s1-.927 1-2.059c0-1.132.45-1.781 1-1.441.55.34 1 .227 1-.25s.669-1.741 1.487-2.809c1.456-1.899 1.531-1.887 3.45.559 1.841 2.344 2.044 2.39 3.265.729 1.677-2.281 7.412-2.876 7.034-.729-.193 1.094.125 1.002 1.176-.341.989-1.263 2.106-1.629 3.563-1.167 1.166.37 2.662.256 3.323-.254 2.963-2.286 4.763-2.198 5.896.289 1.063 2.332 1.278 2.394 3.435.981 2.917-1.912 3.371-1.892 3.371.147 0 1.511.167 1.504 1.92-.083 1.833-1.659 1.973-1.64 3.072.413 1.077 2.012 1.305 2.05 3.527.594 3.043-1.993 5.075-1.183 6.373 2.541.797 2.287 1.551 2.887 3.32 2.644 1.258-.173 2.851-.667 3.538-1.098.688-.431 1.25-.393 1.25.084 0 1.679 10.097 1.137 14.574-.782 3.689-1.581 4.426-1.653 4.426-.432 0 .805.45 1.464 1 1.464s1.007-.562 1.015-1.25c.012-.963.205-.952.839.047.657 1.037 1.081.986 2.107-.25 1.096-1.32.937-1.559-1.089-1.626-1.304-.043-1.809-.306-1.122-.583.688-.278 1.25-1.169 1.25-1.98 0-.812.457-1.193 1.016-.848.559.346.751 1.16.426 1.809-.752 1.505 1.694-1.553 3.186-3.982 1.084-1.766 1.24-1.755 4.019.272 2.948 2.151 7.251 3.946 8.603 3.589.412-.109.75.279.75.861s.457.776 1.016.431c.559-.346.766-1.033.46-1.529-.306-.495 1.037-1.566 2.984-2.38 1.947-.813 3.593-2.064 3.658-2.78.065-.716.403.005.75 1.601.629 2.886 4.35 4.672 5.583 2.678.303-.491 1.368-.679 2.367-.417 1.759.46 2.265-.538 4.777-9.436.198-.7 1.157-1.572 2.132-1.938.975-.366 2.246-1.295 2.824-2.065.863-1.15 1.619-.868 4.25 1.59 1.903 1.777 3.199 3.974 3.199 5.421 0 1.337.269 2.701.598 3.029.973.974 3.402-.363 3.402-1.871 0-1.632 2.584-1.875 3.537-.333.414.67 1.131.409 1.951-.712 1.016-1.39 1.6-1.52 2.706-.602.775.644 2.318.933 3.427.643 1.734-.454 2.149.143 2.948 4.234.911 4.659 1.039 4.791 5.931 6.089 2.75.73 6.35 1.08 8 .778 1.65-.302 4.335-.522 5.967-.487 2.339.049 3.989-1.048 7.783-5.175 2.648-2.881 5.079-6.289 5.401-7.575 1.219-4.855-1.21-46.104-3.018-51.253-.29-.825-1.234-11.175-2.097-23-.864-11.825-2.025-23.771-2.58-26.547-.9-4.506-1.135-27.88-.515-51.453.122-4.675.286-20.2.364-34.5.077-14.3.162-27.575.189-29.5.027-1.925-.348-5.611-.833-8.191-.503-2.681-.508-6.967-.011-10 .943-5.754 1.158-88.121.252-96.309-.305-2.75-.532-6.35-.506-8 .076-4.794-.952-11.5-1.762-11.5-.41 0-.623 2.475-.475 5.5.209 4.284-.055 5.5-1.195 5.5-.805 0-1.486-.562-1.512-1.25-.833-21.786-.884-32.826-.149-32.372.496.307 1.153 5.107 1.46 10.667.306 5.559.822 10.374 1.147 10.698 2.027 2.027 2.274-4.222 1.098-27.743-.316-6.325-.156-15.775.356-21 .511-5.225.588-9.95.169-10.5-.911-1.198-.94-1.704-.977-17-.016-6.6.441-14.7 1.015-18 .575-3.3 1.291-7.685 1.591-9.744.301-2.06.893-3.531 1.316-3.269.645.398 1.446-3.177 2.574-11.487.112-.825.493-4.75.847-8.722.353-3.973.845-7.798 1.093-8.5.248-.703.913-7.353 1.478-14.778.566-7.425 1.231-15.075 1.478-17 .598-4.646 1.336-14.936 2.079-29 .335-6.325 1.211-17.575 1.946-25 .736-7.425 1.328-14.4 1.316-15.5-.022-1.993 1.909-32.049 2.73-42.5 4.121-52.449 6.017-112.662 5.889-187-.093-53.431-2.291-108.377-5.943-148.5-.2-2.2-.814-12.346-1.365-22.547-1.035-19.191-1.698-23.635-4.913-32.953-1.543-4.469-1.839-7.717-1.579-17.326.175-6.505.743-14.155 1.262-17 .519-2.846.766-7.626.55-10.623-.257-3.546.025-5.708.806-6.191 1.392-.86 2.21-25.545 1.819-54.86-.284-21.216-.049-75.063.359-82.5.151-2.75.592-14.225.98-25.5.389-11.275 1.125-22.975 1.636-26 .511-3.025 1.398-13.15 1.971-22.5 1.799-29.349 2.135-32.947 3.192-34.221 1.402-1.689 2.701-11.544 3.266-24.779.292-6.839.152-9.865-.371-8-1.061 3.785-1.556-9.291-1.041-27.5.194-6.875.362-35.9.373-64.5.033-85.933-1.61-91.752-27.41-97.068-4.125-.85-8.287-1.616-9.25-1.703-.963-.087-1.75-.467-1.75-.845 0-2.3-10.79-3.102-13.394-.995-1.554 1.257-14.796 2.327-30.106 2.433-10.452.072-13.239.392-14.218 1.634-1.08 1.368-1.222 1.341-1.25-.241-.026-1.453-.392-1.593-1.966-.75-2.676 1.432-7.063 1.299-7.081-.215-.011-.908-.217-.936-.75-.102-.936 1.462-4.877 1.874-8.735.913-6.012-1.497-6.519-1.721-5.956-2.633.316-.51-.09-.928-.902-.928-.811 0-1.629-.461-1.817-1.024-.187-.563-2.587-1.252-5.333-1.531-2.746-.279-6.272-.716-7.837-.97-2.231-.363-2.959-.028-3.372 1.552-.388 1.481-.859 1.74-1.778.977-.689-.571-1.938-.775-2.777-.453-.839.322-1.798.144-2.132-.395-.338-.547-1.782-.666-3.267-.269-2.744.734-11.457-.275-16.944-1.961-1.713-.527-5.2-1.048-7.75-1.159-2.549-.111-4.635-.554-4.635-.984 0-.431-.675-.783-1.5-.783s-1.5.477-1.5 1.059-.495.753-1.099.38c-.604-.374-2.967-.83-5.25-1.013-5.739-.462-10.957-1.524-12.162-2.476-1.345-1.062-13.3-1.443-16.595-.528-1.806.501-3.089.24-4.179-.85-1.016-1.016-3.365-1.572-6.644-1.572-3.124 0-5.071-.437-5.071-1.138 0-1.337-14.231-.344-17.103 1.193-1.231.659-2.193.506-3.207-.508-.797-.796-2.515-1.63-3.819-1.852-1.304-.222-1.808-.211-1.121.024.688.235 1.25.92 1.25 1.521 0 .601-.297.796-.661.433-.614-.615-2.401 1.823-3.904 5.327-2.109 4.917-5.052 10-5.79 10-.473 0-.6.675-.283 1.5.316.825.087 1.5-.51 1.5s-.85.901-.562 2.001c.288 1.101.115 1.75-.383 1.441-.822-.508-1.385 1.742-.984 3.933.088.481-.603 1.719-1.536 2.75S912.172 88 912.762 88c.589 0 1.221-.406 1.405-.901.183-.496.913-.271 1.622.5 1.053 1.144 1.053 1.404 0 1.416-2.974.036-3.913 2.217-5.832 13.551-3.054 18.043-3.52 22.298-4.421 40.434-.97 19.531-2.643 48.67-3.07 53.5-.244 2.75-.691 24.125-.995 47.5-.677 52.204-.886 58.783-2.929 92-1.838 29.89-2.362 73.252-1.378 114 .593 24.569-.931 71.545-2.627 81-.247 1.375-.7 11.725-1.006 23-.307 11.275-.769 25.675-1.027 32-.258 6.325-.718 19.6-1.023 29.5-.536 17.415-2.265 55.307-2.944 64.5-.182 2.475-.599 7.875-.925 12-.596 7.539-2.153 35.458-3.067 55-.27 5.775-.761 24.9-1.092 42.5-.331 17.6-.999 42.35-1.485 55-.486 12.65-.665 40.212-.398 61.25.307 24.207.132 38.25-.478 38.25-1.099 0-9.727-12.872-16.088-24-4.973-8.701-6.104-10.328-19.583-28.163-5.544-7.335-11.145-15.137-12.447-17.337-1.303-2.2-2.679-4.225-3.058-4.5-.38-.275-1.528-1.923-2.553-3.663-1.025-1.739-3.484-5.564-5.464-8.5-7.426-11.005-18.742-28.608-23.36-36.337-2.629-4.4-5.85-9.432-7.159-11.183-1.309-1.751-2.386-3.551-2.393-4-.007-.449-2.369-4.487-5.25-8.973a8437.234 8437.234 0 0 1-9.237-14.418c-2.2-3.444-4.675-7.297-5.5-8.562-.825-1.265-3.939-6.332-6.921-11.26-4.783-7.906-7.525-10.617-10.329-10.212-.413.059-.75-.322-.75-.848 0-1.657-5.149-8.557-6.172-8.269-.537.151-.729-.126-.426-.617.746-1.207-2.85-4.357-3.893-3.41-.457.414-.475.139-.041-.61.467-.806.254-1.692-.523-2.172-1.504-.93-4.057-9.966-2.815-9.966.451 0 .396-1.115-.122-2.478-.939-2.47-2.564-30.2-3.603-61.482-.301-9.054-.698-16.705-.883-17.004-.184-.299-.618-9.766-.963-21.04-.345-11.273-1.093-31.071-1.662-43.996-.713-16.209-.711-31.567.005-49.5.571-14.3 1.035-31.625 1.031-38.5-.133-225.84-.791-319.729-2.368-338-.926-10.725-1.84-26.475-2.032-35-.484-21.489-1.966-30.783-5.862-36.753-1.703-2.611-3.49-5.022-3.969-5.359-.48-.336-.722-1.011-.537-1.5.404-1.07-8.813-7.388-10.778-7.388-.763 0-1.313.338-1.223.75.309 1.415-1.381 6.25-2.185 6.25-.442 0-1.101-1.765-1.466-3.922-.377-2.234-1.363-4.19-2.29-4.546-.895-.343-9.074-.502-18.175-.352-36.667.604-45.354.288-53.685-1.952-12.869-3.462-25.665-6.231-28.785-6.229-1.606 0-5.854-1.172-9.438-2.606l-6.517-2.607-2.561 2.937c-1.409 1.616-3.124 2.845-3.812 2.732-.687-.113-1.61-.261-2.049-.33-.44-.069-1.371-1.707-2.071-3.641l-1.271-3.516-6.679.211c-3.674.116-10.28.827-14.68 1.581M939 62.5c0 .825.675 1.5 1.5 1.5s1.5-.675 1.5-1.5-.675-1.5-1.5-1.5-1.5.675-1.5 1.5m-17.441 40.206c-.36.939-.839 6.901-1.065 13.25-.463 13.021.828 9.12 2.055-6.206.677-8.46.376-10.603-.99-7.044m-463.006 3.544c-.212.688-.385 1.925-.384 2.75.002 1.805-1.281 19.133-1.509 20.375-.088.481.405 1.082 1.096 1.335.866.318 1.209-.575 1.103-2.875-.084-1.834.205-7.723.642-13.085.437-5.362.489-9.75.115-9.75-.373 0-.852.563-1.063 1.25M718.5 113c-.729 1.18.217 3 1.559 3 .518 0 .941-.9.941-2 0-2.109-1.455-2.691-2.5-1m208.451 5c-.061.825-.419 5.213-.796 9.75-.378 4.537-.342 8.25.079 8.25 1.138 0 .928 3.782-.25 4.51-1.081.668-.403 2.49.926 2.49 1.146 0 2.117-23.142 1.049-24.967-.786-1.342-.912-1.346-1.008-.033m-7.02 10.25c-.656 2.38-.576 5.75.137 5.75.513 0 .932-1.35.932-3s-.225-3-.5-3-.531.113-.569.25m-1.151 21.794c-.245 1.674-.072 3.276.387 3.559.458.283.833-1.087.833-3.044 0-4.361-.617-4.622-1.22-.515m6.797-1.857c-.225.722-.441 1.988-.48 2.813-.933 19.648-.988 25.051-.249 24.594.485-.3 1.134-2.421 1.441-4.714.308-2.292 1.156-4.546 1.885-5.009.999-.633 1.018-.844.076-.856-.687-.008-1.25-1.103-1.25-2.432s.563-2.605 1.25-2.837c.993-.333.979-1.174-.066-4.087-.724-2.017-1.043-4.527-.709-5.579.333-1.051.135-2.203-.441-2.559-.577-.356-1.232-.057-1.457.666m-7.938 8.588c-.263.426-.111 2.338.339 4.25.926 3.939.989 3.887 1.532-1.275.356-3.385-.639-4.968-1.871-2.975m.13 10.181c-.691 2.461-.278 3.886.812 2.797.319-.32.423-1.632.229-2.917l-.351-2.336-.69 2.456m6.6 17.867c-.033.923-.355 3.477-.716 5.677l-.655 4 1.456-3c1.609-3.315 1.976-7.116.76-7.868-.432-.267-.812.269-.845 1.191m-584.35-.57c-.01.414 1.322 2.889 2.962 5.5 1.64 2.611 2.99 4.408 3 3.994.01-.414-1.322-2.889-2.962-5.5-1.64-2.611-2.99-4.408-3-3.994M916.798 191c-.929 4.635-1.379 20.752-.601 21.53.813.813 2.06-14.823 1.637-20.53l-.334-4.5-.702 3.5m-568.279 9.699c1.747 4.181 2.481 5.193 2.481 3.418 0-1.429-2.829-7.117-3.539-7.117-.268 0 .208 1.664 1.058 3.699m575.052-.449c-.862 4.153-1.259 13.943-.51 12.589.964-1.744 2.354-14.839 1.575-14.839-.329 0-.808 1.012-1.065 2.25m-570.425 10c1.255 1.787 2.636 3.4 3.068 3.583.432.184.786 1.448.786 2.809 0 1.396.436 2.206 1 1.858.55-.34 1 .274 1 1.364 0 1.091 1.125 3.32 2.5 4.954s2.5 3.667 2.5 4.517c0 .851.387 1.786.859 2.078 1.202.743 8.141 15.15 8.141 16.903 0 .791.675 1.999 1.5 2.684s1.5 1.857 1.5 2.604c0 .748 1.786 4.855 3.969 9.128 2.566 5.023 3.979 6.968 4 5.504.017-1.245-.384-3.045-.892-4-4.024-7.574-8.015-16.236-7.481-16.236.357 0 .175-.571-.404-1.269-.579-.697-4.266-7.56-8.193-15.25-3.927-7.689-7.558-14.131-8.069-14.314-.512-.184-.93-1.196-.93-2.25s-.45-1.917-1-1.917-1-.675-1-1.5-.45-1.5-1-1.5-1-.675-1-1.5-.706-1.5-1.568-1.5c-1.278 0-1.146.602.714 3.25M638.109 220c.045 4.154.125 4.291 1.041 1.788.668-1.827.652-3.297-.049-4.5-.828-1.423-1.03-.87-.992 2.712m-475.392 18.974c-.281 1.074.118 2.474.886 3.112 1.134.941 1.397.676 1.397-1.405 0-3.17-1.589-4.359-2.283-1.707m751.813 10.212c-.371 2.923-.897 6.101-1.17 7.064-.272.962-.067 1.75.456 1.75.982 0 2.738-12.779 1.875-13.643-.267-.267-.789 1.906-1.161 4.829m-599.467 4.449c-.034.625.55 2.594 1.3 4.377.916 2.18 1.613 2.835 2.128 2.003.421-.681.28-1.538-.313-1.905s-1.522-1.779-2.065-3.138c-.542-1.36-1.015-1.961-1.05-1.337m69.51 18.13c.59.404 1.388 1.587 1.773 2.628.386 1.041.952 1.642 1.259 1.336.857-.857-1.518-4.731-2.89-4.714-.825.011-.871.251-.142.75m7.558 15.735c1.449 3.903 8.509 17.481 9.094 17.489 1.046.016-6.026-15.205-7.894-16.989-.864-.825-1.404-1.05-1.2-.5m-59.672 2.567c-.917 1.483-.055 2.099 1.892 1.352.901-.346 1.389-1.031 1.084-1.524-.748-1.211-2.172-1.129-2.976.172m-21.427 12.561c.017.479.692 1.746 1.5 2.813 1.175 1.554 1.468 1.628 1.468.373 0-.863-.675-2.129-1.5-2.814s-1.486-.852-1.468-.372M363.509 309c1.184 4.037 2.613 5.942 1.876 2.5-.354-1.65-1.086-3.45-1.627-4-.645-.657-.731-.142-.249 1.5m40.496 1.664c-.004 1.011 4.561 10.991 7.015 15.336.466.825 5.596 10.95 11.399 22.5 5.804 11.55 10.559 20.259 10.567 19.354.017-1.937-6.816-16.631-8.103-17.427-.486-.3-.883-1.418-.883-2.486 0-1.068-.45-1.941-1-1.941s-.887-.362-.75-.804c.257-.826-7.264-16.297-8.359-17.196-.335-.275-1.213-2.187-1.951-4.25-.738-2.062-1.701-3.75-2.141-3.75-.439 0-.813-.562-.83-1.25-.041-1.616-4.957-9.625-4.964-8.086M344 315.531c0 .808.45 1.469 1 1.469s1 .675 1 1.5.388 1.5.861 1.5c.474 0 .652-1.095.397-2.433-.514-2.688-3.258-4.402-3.258-2.036m3.726 6.077c-.648.648.958 3.926 3.024 6.175 1.75 1.903 1.598-.21-.276-3.833-1.624-3.14-1.8-3.291-2.748-2.342m9.49 20.579c1.153 2.372 2.283 3.766 2.512 3.098.536-1.569-1.873-6.522-3.418-7.024-.699-.228-.326 1.391.906 3.926m3.477 6.172c-.333.867-.145 1.861.417 2.209 1.557.962 2.189-.212 1.131-2.102-.842-1.505-1.008-1.516-1.548-.107m-9.164 32.139c.705 3.338 1.193 4.113 2.049 3.257.318-.318-.155-1.855-1.052-3.417l-1.63-2.838.633 2.998m25.42-.593c.629 1.175.869 2.58.534 3.123-.335.542.094 1.256.954 1.586.859.33 1.563 1.227 1.563 1.993s.45 1.393 1 1.393c1.464 0 1.22-2.637-.392-4.249-.766-.766-1.553-2.223-1.75-3.239-.197-1.015-.964-2.048-1.705-2.295-1.078-.359-1.119-.021-.204 1.688m11.233 22.595c.626 1.375 1.517 2.5 1.979 2.5 1.195 0 .987-1.221-.553-3.25-1.941-2.557-2.741-2.137-1.426.75m3.88 6.479c1.469 2.906 3.938 5.569 3.938 4.248 0-.504-1.168-2.223-2.596-3.821-2.365-2.648-2.484-2.686-1.342-.427m22.938.553c0 1.694 3.069 7.468 3.969 7.468.601 0 .174-1.759-.969-4-1.834-3.594-3-4.942-3-3.468m5.032 9.518c.017.798.739 2.35 1.603 3.45 1.527 1.943 1.551 1.929.856-.5-.874-3.052-2.504-5.008-2.459-2.95m5.972 10.75c-.006 2.036 3.273 7.835 3.706 6.554.213-.63-.533-2.655-1.658-4.5-1.124-1.845-2.046-2.769-2.048-2.054M19 453.918c0 1.055-.273 2.63-.607 3.5-.441 1.15 0 1.582 1.617 1.582 1.818 0 2.113-.41 1.62-2.25-.331-1.238-.609-2.812-.616-3.5-.008-.687-.464-1.25-1.014-1.25s-1 .863-1 1.918m440.636 9.588c-.315.822-.103 1.494.472 1.494 1.226 0 .936 6.941-.364 8.686-.515.693-.488 1.941.067 3 .522.998.727 3.276.456 5.064-.307 2.016-.071 3.25.62 3.25.75 0 1.113-3.57 1.113-10.941 0-10.059-.941-14.261-2.364-10.553m-33.603 9.22c-.018.674.865 2.699 1.963 4.5 1.688 2.768 1.997 2.943 2 1.135.004-2.229-3.904-7.787-3.963-5.635m34.912 26.524c-.03 1.788-.177 5.266-.326 7.73-.15 2.464.054 5.839.452 7.5.455 1.898.762-.973.827-7.73.056-5.913-.123-10.75-.398-10.75s-.525 1.462-.555 3.25m-34.584 10.5c.077.962.402 1.975.724 2.25.322.275 1.144 1.4 1.826 2.5 1.039 1.676 1.147 1.703.665.168-.317-1.007-.576-2.92-.576-4.25 0-1.397-.587-2.418-1.389-2.418-.764 0-1.326.788-1.25 1.75m-10.11 5.76c.173 2.435.833 3.695 2.155 4.117 1.048.334 2.9 1.679 4.115 2.99 1.214 1.311 2.51 2.383 2.879 2.383 1.114 0-1.047-3.286-4.64-7.056-1.864-1.956-3.21-4.093-2.991-4.75.219-.657-.09-1.194-.685-1.194-.619 0-.976 1.504-.833 3.51m5.029-2.046c-.975 1.109-.829 1.855.729 3.712 1.576 1.877 2.126 2.058 2.863.939.733-1.112 1.14-.96 2.067.771.634 1.185.881 2.596.548 3.135-.333.538-.177.979.347.979 1.697 0 1.981-2.533.508-4.542-.789-1.077-2.201-1.971-3.138-1.986-1.159-.019-1.628-.739-1.466-2.25.27-2.516-.661-2.803-2.458-.758m39.751 11.036c0 3.593.272 4.578.969 3.5.533-.825.969-2.4.969-3.5s-.436-2.675-.969-3.5c-.697-1.078-.969-.093-.969 3.5m-50.031.389c0 .657.9 2.161 2 3.341 1.1 1.181 2 1.681 2 1.112 0-.57-.9-2.074-2-3.342-1.1-1.268-2-1.768-2-1.111m4.393.693c.334.87.607 1.796.607 2.059 0 .262.43.211.956-.114 1.161-.718.229-3.527-1.17-3.527-.55 0-.727.712-.393 1.582m13.949 1.751c1.204 3.847 3.16 4.415 3.442 1 .107-1.283-.278-2.333-.854-2.333-.577 0-.77-.45-.43-1s-.241-1-1.292-1c-1.706 0-1.798.355-.866 3.333M901.5 530c-.399.646-.276 1.624.274 2.174.667.667 1.242.609 1.726-.174.399-.646.276-1.624-.274-2.174-.667-.667-1.242-.609-1.726.174m-476.5.941c0 .582.45 1.059 1 1.059s1 .852 1 1.893.68 2.154 1.512 2.473c1.348.517 1.348.265.007-2.329-1.625-3.142-3.519-4.808-3.519-3.096m36.538 7.084c.323 4.111.989 7.882 1.479 8.38 1.178 1.194.017-13.592-1.169-14.88-.532-.578-.658 2.066-.31 6.5m-25.767 9.45c1.844 3.706 4.177 4.668 4.308 1.775.05-1.1.27-1.273.594-.466.284.706-.015 1.923-.665 2.706-1.306 1.574-.555 3.554 1.301 3.431.81-.054.775-.246-.109-.6-1.036-.415-.993-.987.213-2.829 1.237-1.887 1.275-2.506.208-3.392-.718-.595-1.529-.859-1.802-.585-.274.273-1.315-.405-2.313-1.509-2.803-3.096-3.649-2.379-1.735 1.469m11.988 4.128c-.382.606-.123 1.884.576 2.84 1.172 1.603 1.375 1.611 2.625.105 1.113-1.341 1.122-1.848.051-2.84-.954-.883-1.126-.891-.641-.027.364.649.239 1.442-.278 1.762-.517.32-1.098-.212-1.29-1.181-.219-1.106-.608-1.351-1.043-.659M675 584.941c0 1.962 1.691 3.702 2.658 2.734.785-.785-.65-4.675-1.725-4.675-.513 0-.933.873-.933 1.941M573.252 587.5c.011 2.2.216 2.982.455 1.738.239-1.244.23-3.044-.02-4s-.446.062-.435 2.262m108.866 3.279c-.807 1.509-.817 2.289-.034 2.773 1.764 1.09 3.268-1.1 2.14-3.116-.912-1.631-1.062-1.606-2.106.343m292.413 16.514c-.428.986-.497 2.074-.155 2.417 1.016 1.015 1.835-.411 1.367-2.382-.414-1.747-.468-1.748-1.212-.035m54.082.89c.403.651 1.297 3.914 1.988 7.25l1.257 6.067-.372-6.5c-.204-3.575-.397-6.837-.429-7.25-.031-.413-.759-.75-1.616-.75-.946 0-1.271.465-.828 1.183m-353.299 10.791c.471 3.087 1.389 3.359 1.923.568.327-1.711.043-2.542-.869-2.542-.785 0-1.229.832-1.054 1.974m13.38 6.026c.321 4.125.746 7.688.945 7.917.776.895.169-11.534-.655-13.417-.54-1.235-.651.867-.29 5.5m-9.2 10.25c.003 6.737.264 12.475.58 12.75.315.275.289 2.975-.059 6l-.632 5.5-.805-4.75c-1.14-6.725-2.731-5.929-1.998 1 .67 6.345 1.118 7.356 2.365 5.339.635-1.028 1.009-.809 1.555.911 1.044 3.29 2.528.448 1.802-3.453-.397-2.135-.247-2.748.5-2.047 1.246 1.168 2.036 12.995.941 14.09-.408.409-.743 2.217-.743 4.018 0 4.344-1.857 5.355-2.641 1.437-.705-3.525-2.309-5.06-2.46-2.354-.18 3.213.201 8.762.725 10.559.831 2.848 2.376 1.996 2.376-1.309 0-1.785.417-2.802 1-2.441.55.34 1 1.95 1 3.578 0 2.708.234 2.909 2.75 2.36 1.583-.345 2.256-.244 1.585.237-.87.626-.807 1.327.25 2.772.778 1.065 1.449 1.737 1.492 1.494.042-.242.255-1.341.474-2.441.34-1.714-.878-13.681-2.037-20-1.464-7.985-1.7-12.5-.653-12.5 1.441 0 1.499-3.66.071-4.542-.588-.363-.869-1.18-.625-1.814.543-1.416-1.276-3.144-3.307-3.144-1.198 0-1.524-1.609-1.62-8-.2-13.441-.351-15.5-1.136-15.5-.416 0-.753 5.513-.75 12.25m3.683-9.583c.471 2.431 2.394 2.707 2.394.345 0-1.107-.611-2.012-1.359-2.012-.747 0-1.213.75-1.035 1.667m.754 12.583c-.791 2.871-.508 5.698.613 6.129.766.293 1.59.213 1.832-.178.701-1.134-.519-6.201-1.493-6.201-.485 0-.914.112-.952.25m16.807 14.488c-.608 12.554.093 20.522 2.092 23.762 1.004 1.628 1.127-.14.66-9.5-.72-14.448-1.524-25.368-1.896-25.739-.157-.157-.542 5.007-.856 11.477m-10.41-3.238c.005 3.85.185 5.302.402 3.228.216-2.075.213-5.225-.008-7-.221-1.776-.398-.078-.394 3.772m.501 8.707c-.763 2.359.332 13.793 1.32 13.793.604 0 .71-2.75.281-7.25-.737-7.735-.943-8.578-1.601-6.543m-46.011 5.308c-.853.854.231 19.749 1.204 20.985 1.074 1.365 1.559 6.75.729 8.094-.958 1.549.343 8.712 1.392 7.663 1.107-1.107-.166-25.361-1.295-24.663-1.148.709-1.072-1.306.134-3.56 1.031-1.926-.952-9.73-2.164-8.519m-11.332 13.789c.159 3.192.565 6.08.902 6.417.837.837.555-5.531-.408-9.221-.576-2.207-.707-1.466-.494 2.804M684 674.559c0 1.451.433 2.292 1 1.941.55-.34 1-1.491 1-2.559s-.45-1.941-1-1.941-1 1.152-1 2.559m8.252 1.941c.011 2.2.216 2.982.455 1.738.239-1.244.23-3.044-.02-4s-.446.062-.435 2.262m-23.252.833c0 2.017.386 3.667.857 3.667 1.031 0 .931-5.545-.118-6.594-.406-.407-.739.911-.739 2.927m31.516 4.18c.94 9.553 1.515 12.487 2.446 12.487 1.613 0 1.715-2.464.388-9.435-1.742-9.151-3.635-11.189-2.834-3.052m-61.644 5.237c-.07.962-.202 2.65-.293 3.75-.091 1.1.132 3.575.496 5.5.501 2.651.694 1.74.793-3.75.073-3.987-.093-7.25-.368-7.25s-.557.788-.628 1.75m61.637 13c.418 7.225.423 7.25 1.485 7.25.546 0 .805-1.013.574-2.25-.231-1.237-.453-3.937-.494-6-.041-2.062-.471-3.75-.957-3.75-.485 0-.759 2.138-.608 4.75M970 701.941c0 1.132.45 2.059 1 2.059s1-.648 1-1.441-.45-1.719-1-2.059c-.55-.34-1 .309-1 1.441m.622 26.809c.948 3.953 1.478 4.151 1.196.448-.134-1.759-.606-3.198-1.05-3.198-.443 0-.509 1.237-.146 2.75m30.63 39.75c.011 2.2.216 2.982.455 1.738.239-1.244.23-3.044-.02-4s-.446.062-.435 2.262m-715.165 7.337c-1.354 2.531-.28 16.516 1.45 18.883 1.011 1.383 1.184-.308.929-9.101-.173-5.94-.537-11.023-.809-11.295-.272-.273-.979.408-1.57 1.513M154.252 797.5c.011 2.2.216 2.982.455 1.738.239-1.244.23-3.044-.02-4s-.446.062-.435 2.262m816.415 2.167c-.367.366-.622 2.279-.567 4.25.087 3.128.187 3.267.792 1.093.472-1.695.938-2.094 1.46-1.25.882 1.427 2.648 1.665 2.648.357 0-.486-.958-1.134-2.13-1.441-1.423-.372-1.931-1.075-1.531-2.116.639-1.666.408-1.973-.672-.893m188.664 14.081c.093 1.786.507 3.249.919 3.25.954.003.851-1.928-.239-4.498-.68-1.604-.815-1.356-.68 1.248M533.429 815c0 1.1.578 2 1.285 2s1.286.525 1.286 1.167c0 .641.22.946.49.677.561-.562-1.716-5.824-2.526-5.836-.294-.004-.535.892-.535 1.992m433.312 22.332c-.408 1.007-.692 3.932-.631 6.5l.109 4.668.904-4.5c.498-2.475.782-5.4.632-6.5-.256-1.871-.321-1.882-1.014-.168m62.545 17.168c.008 2.75.202 3.756.432 2.236.229-1.52.223-3.77-.014-5-.237-1.23-.425.014-.418 2.764m-65.146 10.052c.112 1.622-.13 3.961-.536 5.198-.528 1.607-.342 2.25.648 2.25 1.021 0 1.315-1.217 1.114-4.62-.149-2.54-.532-4.879-.85-5.197-.318-.318-.487.748-.376 2.369M427.671 888.75c.335.962 1.108 2.209 1.719 2.77 2.296 2.11 3.684 5.674 3.033 7.793-.369 1.203-.319 1.853.111 1.446.43-.408 1.386-.24 2.124.372 1.051.872 1.342.654 1.342-1.009 0-1.167-.394-2.122-.876-2.122s-1.945-2.467-3.25-5.483c-1.306-3.016-2.922-5.491-3.593-5.5-.727-.01-.973.688-.61 1.733m604.97 14.46c-.338 1.26-.55 5.215-.473 8.79.142 6.5.142 6.5.827-2 .724-8.991.644-10.518-.354-6.79m-6.563 4.29c-.084.55-.347 2.8-.584 5l-.43 4 1.022-3.349c.563-1.842.825-4.092.584-5-.241-.908-.507-1.201-.592-.651m-7.806 8.5c0 2.475.195 3.487.434 2.25.238-1.237.238-3.263 0-4.5-.239-1.237-.434-.225-.434 2.25m12.565 9.587c-.201 2.522-.021 4.799.399 5.059.42.26.764-1.805.764-4.587 0-6.311-.677-6.585-1.163-.472m-590.977 1.107c1.275 2.431 3.14 3.928 3.14 2.52 0-.497-.965-1.761-2.146-2.809-2.13-1.892-2.137-1.89-.994.289m10.942-.163c-1.007 1.008 1.324 5.469 2.859 5.469.736 0 1.339-.4 1.339-.889 0-1.492-3.485-5.293-4.198-4.58m4.207 7.969c-.002 1.211 3.752 7.5 4.476 7.5.283 0 .499-.562.479-1.25-.043-1.497-4.954-7.69-4.955-6.25M463 948.614c0 .338 2.025 3.863 4.5 7.834 2.475 3.971 4.5 7.696 4.5 8.279 0 .582.675 1.318 1.5 1.635 2.61 1.001 1.658-1.315-4.092-9.957-5.241-7.877-6.408-9.296-6.408-7.791M264.706 951.5c-1.554 7.311-1.864 11.012-.796 9.5.942-1.333 1.074-1.333 1.19 0 .071.825.464-.226.871-2.335.408-2.109.434-5.259.057-7l-.684-3.165-.638 3m-7.488 7c.01 1.1.362 3.35.782 5 .686 2.695.765 2.746.782.5.01-1.375-.342-3.625-.782-5-.627-1.959-.797-2.067-.782-.5m7.379 7.75c-.347 1.788-.601 5.395-.564 8.017.037 2.621-.293 4.706-.733 4.631-1.996-.337-2.447.219-1.3 1.602 1.954 2.355 2.989 1.777 3.132-1.75l.131-3.25.737 3.5c.633 3.009.777 3.149 1.025 1 .584-5.072.222-9.418-.814-9.763-.63-.21-.838-1.762-.508-3.796.71-4.371-.263-4.539-1.106-.191m212.445 4.423c.154 3.035 9.568 16.05 10.753 14.865.356-.356.165-.96-.424-1.342-.589-.383-1.635-1.765-2.324-3.071-1.661-3.152-8.058-11.504-8.005-10.452M258.07 977.75c.063 2.437.168 2.522.93.75 1.174-2.731 1.174-3.5 0-3.5-.55 0-.968 1.237-.93 2.75m7.825 10.321c-.248 1.964-.184 4.664.142 6 .594 2.428.594 2.428 1.146-.352.303-1.53.239-4.23-.142-6l-.694-3.219-.452 3.571m-14.224 3.344c-.299.779-.161 2.691.307 4.25.788 2.628.856 2.524.936-1.415.089-4.392-.303-5.285-1.243-2.835m12.149 2.711c-.364.894-.041 2.821.717 4.282.758 1.462.948 2.391.421 2.066-.564-.348-.925 1.388-.879 4.217.043 2.645.336 4.134.65 3.309.314-.825 1.066-1.872 1.671-2.326.783-.588.74-.973-.15-1.333-.687-.279-1.25-.947-1.25-1.483 0-.537.45-.698 1-.358.55.34 1-.084 1-.941s.45-1.559 1-1.559c1.764 0 1.067-1.844-.937-2.48-1.065-.338-2.081-1.606-2.259-2.817-.26-1.78-.449-1.891-.984-.577M491 994.11c0 .619 1.35 2.664 3 4.543s3 3.899 3 4.489c0 .589.675.813 1.5.496.825-.316 1.5-.064 1.5.56 0 .624.261.874.58.555.9-.899-2.639-5.753-4.195-5.753-.762 0-1.385-.792-1.385-1.759 0-.968-.9-2.322-2-3.009-1.41-.881-2-.917-2-.122m536.807 9.64c-.187 4.813.005 9.178.427 9.7.421.522.766-3.415.766-8.75s-.192-9.7-.427-9.7c-.234 0-.579 3.938-.766 8.75m-541.159-3.989c-.551.891 1.055 3.118 3.777 5.239 1.885 1.469 1.887 1.443.135-1.25-.985-1.513-2.215-2.75-2.734-2.75-.519 0-.666-.45-.326-1s.393-1 .118-1-.712.342-.97.761m362.696 1.731c1.145 2.47 2.656 3.368 2.656 1.579 0-.867-2.737-4.071-3.477-4.071-.184 0 .185 1.121.821 2.492m-347.322 5.199c-.012.655.378 1.438.867 1.741.489.302 1.19 1.746 1.557 3.209s2.667 5.462 5.111 8.886c2.444 3.425 4.443 6.732 4.443 7.35 0 .618.45 1.123 1 1.123s1 .43 1 .956c0 .525 1.125 2.613 2.5 4.639 1.649 2.43 2.5 3.087 2.5 1.931 0-2.113-4.034-9.526-5.184-9.526-.449 0-.816-.643-.816-1.429 0-.785-.785-2.213-1.744-3.172-1.737-1.737-2.674-3.199-5.705-8.899-2.241-4.213-5.502-8.23-5.529-6.809M252 1007.843c0 .545.563 1.253 1.25 1.574.999.466.999.7.002 1.166-.793.37-1.02 1.556-.621 3.25 1.13 4.805 2.369 4.735 2.369-.133 0-2.585.024-5.037.053-5.45.029-.413-.646-.895-1.5-1.073-.854-.178-1.553.122-1.553.666m240.998 1.651c1.333 3.506 4.065 7.506 5.127 7.506.492 0-.282-2.25-1.72-5-2.7-5.163-5.084-6.917-3.407-2.506m-229.571 3.176c.353.921.065 2.036-.643 2.485-1 .634-1.007.818-.034.83.688.008 1.25.722 1.25 1.586 0 1.397.167 1.405 1.5.072.825-.825 1.493-2.545 1.485-3.822-.013-1.865-.206-2.027-.985-.821-.828 1.282-.972 1.246-.985-.25-.008-.962-.513-1.75-1.122-1.75-.623 0-.827.73-.466 1.67M499 1018.453c0 1.451 2.48 5.517 3.635 5.961 1.791.687 1.722-.001-.351-3.51-1.483-2.511-3.284-3.855-3.284-2.451m483.252 5.047c.011 2.2.216 2.982.455 1.738.239-1.244.23-3.044-.02-4s-.446.062-.435 2.262m44.536 3.75c-.215 3.438-.03 6.678.411 7.2.441.523.801-2.29.801-6.25s-.185-7.2-.411-7.2c-.226 0-.587 2.813-.801 6.25M865 1041.803c0 1.102 4.089 5.441 4.624 4.906.233-.232.179-1.059-.12-1.837-.631-1.645-4.504-4.284-4.504-3.069m161.286 8.697c.008 2.75.202 3.756.432 2.236.229-1.52.223-3.77-.014-5-.237-1.23-.425.014-.418 2.764M522 1052.929c0 .51.642 1.57 1.427 2.355.784.784 2.358 2.954 3.496 4.821 2.981 4.89 2.561 2.012-.508-3.479-2.378-4.254-4.415-5.96-4.415-3.697m13.509 5.071c.874 3.052 2.504 5.008 2.459 2.95-.017-.798-.739-2.35-1.603-3.45-1.527-1.943-1.551-1.929-.856.5m490.655 8.5c-.148 4.95-.43 14.4-.625 21l-.356 12 .932-8.5c.513-4.675.795-14.125.626-21-.273-11.132-.336-11.515-.577-3.5m-487.083-2.372c.044.754 1.14 3.172 2.435 5.372 1.295 2.2 3.461 6.029 4.814 8.51 3.194 5.855 6.316 9.671 7.197 8.794.384-.383-1.272-3.758-3.681-7.5s-5.234-8.498-6.278-10.569c-2.172-4.305-4.617-6.816-4.487-4.607m490.205 4.372c.008 2.75.202 3.756.432 2.236.229-1.52.223-3.77-.014-5-.237-1.23-.425.014-.418 2.764M532 1069.847c0 .466.9 1.885 2 3.153s2 2.719 2 3.224c0 .506.563 1.546 1.25 2.313 3.111 3.468 3.75 4.478 3.75 5.921 0 .848.45 1.542 1 1.542s1-.424 1-.943c0-1.542-4.123-8.057-5.099-8.057-.495 0-.916-.787-.934-1.75-.052-2.719-4.967-8.066-4.967-5.403m479.643 13.849c-.399 4.718-.262 8.085.353 8.7.672.672 1.004-1.874 1.004-7.696 0-4.785-.159-8.7-.353-8.7-.195 0-.646 3.463-1.004 7.696m85.677-1.696c0 3.575.182 5.037.403 3.25.222-1.787.222-4.713 0-6.5-.221-1.787-.403-.325-.403 3.25m-543.073 7.39c.764.764 3.609 4.701 6.321 8.75 2.713 4.048 5.495 7.72 6.182 8.16.688.44 1.286 1.565 1.329 2.5.046.992.285 1.192.573.48.272-.671-1.226-3.745-3.329-6.832-2.102-3.087-4.273-6.338-4.823-7.225-.55-.888-1.788-2.511-2.75-3.607s-1.75-2.358-1.75-2.805c0-.446-.707-.811-1.571-.811-1.342 0-1.368.203-.182 1.39m490.025 2.61c0 2.475.195 3.487.434 2.25.238-1.237.238-3.263 0-4.5-.239-1.237-.434-.225-.434 2.25m-6 3c0 2.475.195 3.487.434 2.25.238-1.237.238-3.263 0-4.5-.239-1.237-.434-.225-.434 2.25M565 1120.596c0 .644 2.93 6.125 4.353 8.143.481.681 1.306.971 1.836.644.54-.333.102-1.534-.999-2.738-1.078-1.18-2.267-3.158-2.642-4.395-.6-1.978-2.548-3.243-2.548-1.654m11.418 17.736c.32 1.007.582 2.245.582 2.75 0 .505.45.918 1 .918 1.448 0 1.23-1.336-.582-3.559-1.447-1.776-1.532-1.785-1-.109m2.61 5.449c.051 1.329 5.671 8.186 6.242 7.616.812-.812-3.091-7.114-4.816-7.776-.8-.307-1.441-.235-1.426.16m458.224 8.719c.011 2.2.216 2.982.455 1.738.239-1.244.23-3.044-.02-4s-.446.062-.435 2.262m-448.647 5.265c.607.404 1.827 2.085 2.71 3.735 1.453 2.716 1.609 2.787 1.645.75.022-1.237-.41-2.25-.96-2.25s-1-.675-1-1.5-.788-1.493-1.75-1.485c-1.084.01-1.329.295-.645.75m437.647 46.735c.011 2.2.216 2.982.455 1.738.239-1.244.23-3.044-.02-4s-.446.062-.435 2.262m-71.599 12c.32 2.75.987 5.436 1.483 5.969.934 1.003.207-3.869-1.264-8.469-.496-1.553-.579-.606-.219 2.5m141.426 11.75c-.043 3.162.316 5.75.798 5.75.483 0 .67-2.138.417-4.75-.686-7.085-1.127-7.448-1.215-1m.731 15.25c.225 1.925.585 3.5.799 3.5.215 0 .391-1.575.391-3.5s-.36-3.5-.799-3.5c-.44 0-.616 1.575-.391 3.5m.518 12c.005 3.85.185 5.302.402 3.228.216-2.075.213-5.225-.008-7-.221-1.776-.398-.078-.394 3.772M835 1259.929c0 .51.623 1.551 1.384 2.312.761.762 2.346 3.269 3.52 5.572 1.175 2.303 2.578 4.187 3.116 4.187 1.551 0 1.23-.742-3.057-7.055-3.975-5.852-4.963-6.851-4.963-5.016m10.033 14.891c-.031 1.223 5.497 10.051 7.001 11.18.366.275.846.974 1.066 1.553.748 1.969 16.275 23.406 16.668 23.012.216-.215-.371-1.556-1.303-2.978-.932-1.423-1.306-2.602-.83-2.62.476-.019-.035-.806-1.135-1.75s-5.15-6.435-9-12.201c-3.85-5.766-7.338-10.941-7.75-11.5-3.227-4.37-4.688-5.825-4.717-4.696m314.098 42.63c-.079 4.215.228 6.576.782 6 .524-.546.58-3.504.131-6.95l-.782-6-.131 6.95m-189.845 20.05c.008 2.75.202 3.756.432 2.236.229-1.52.223-3.77-.014-5-.237-1.23-.425.014-.418 2.764m-.419 12.75c-.202 1.237-.1 4.5.226 7.25.557 4.7.602 4.565.75-2.25.155-7.178-.268-9.347-.976-5M1157 1363.5c0 1.925.417 3.5.927 3.5 1.135 0 1.825-2.878 1.258-5.25-.73-3.053-2.185-1.888-2.185 1.75m-155.748 1c.011 2.2.216 2.982.455 1.738.239-1.244.23-3.044-.02-4s-.446.062-.435 2.262m-189.189 104.45c-.043 2.368.26 3.127.967 2.42.683-.683.704-1.848.064-3.45-.909-2.274-.971-2.212-1.031 1.03m8.959 27.3c-.012.963.443 1.75 1.01 1.75.568 0 1.439 1.013 1.937 2.25.5 1.245.923 1.58.945.75.023-.825-.838-2.625-1.914-4-1.585-2.026-1.96-2.168-1.978-.75m14.536 7.515c.582.404 1.819 1.848 2.75 3.208.931 1.359 1.692 1.927 1.692 1.261 0-1.571-3.143-5.238-4.472-5.219-.677.01-.667.266.03.75m273.567 4.86c-.66 1.448-.971 2.863-.69 3.143.28.28.984-.74 1.565-2.268.581-1.528.891-2.942.69-3.143-.201-.201-.905.82-1.565 2.268m-35.077 12.817c-.68.82-1.045 2.067-.81 2.772.27.81.885.424 1.675-1.052 1.471-2.747.911-3.859-.865-1.72m80.952 1.725c0 1.741.338 2.829.75 2.417 1.01-1.01 1.048-5.584.046-5.584-.438 0-.796 1.425-.796 3.167m-82 5.215c0 1.375.45 2.778 1 3.118.565.349 1-.47 1-1.882 0-1.375-.45-2.778-1-3.118-.565-.349-1 .47-1 1.882m-775.203 52.367c.216 4.184.015 5.342-.735 4.251-.641-.932-1.037-1.046-1.047-.3-.008.66.773 1.665 1.735 2.232 1.138.671 1.381 1.3.694 1.8-.581.422-1.169 2.568-1.307 4.768-.326 5.187 1.943 20.568 2.943 19.951.423-.262.953.318 1.177 1.287.225.969.303-2.582.174-7.892-.13-5.31-.55-10.644-.934-11.855-.384-1.21-.83-5.64-.991-9.845-.387-10.121-.39-10.146-1.256-10.147-.413-.001-.616 2.586-.453 5.75M931.272 1583c0 2.475.195 3.487.434 2.25.238-1.237.238-3.263 0-4.5-.239-1.237-.434-.225-.434 2.25m-868.741 13.293c-.428.986-.497 2.074-.155 2.417 1.016 1.015 1.835-.411 1.367-2.382-.414-1.747-.468-1.748-1.212-.035m-5.167 6.201c-.316.822-1.021 1.218-1.569.88-.603-.373-.576.167.07 1.374.586 1.094.826 2.228.533 2.52-.292.293-.04.835.56 1.206.6.371 1.027.304.948-.15-.078-.453-.032-1.049.105-1.324.395-.799.615-6 .254-6-.18 0-.586.672-.901 1.494" fill-rule="evenodd"/></svg>