<svg xmlns="http://www.w3.org/2000/svg" width="1240" height="1753"><path d="M508 15.608c-1.925.841-4.725 1.689-6.222 1.884-3.883.507-4.946 1.404-4.251 3.592.334 1.054.193 1.916-.315 1.916s-1.202 2.99-1.543 6.645c-.397 4.252-1.26 7.349-2.395 8.602-1.445 1.596-1.823 4.106-2.041 13.557-.147 6.379-.651 11.846-1.121 12.147-.469.302-1.124 2.349-1.455 4.549-2.007 13.352-2.126 13.515-12.212 16.684-4.92 1.546-9.957 2.812-11.195 2.813-1.238.002-2.25.453-2.25 1.003 0 .55-.906 1-2.014 1-1.107 0-2.795.43-3.75.956-.955.526-6.573 1.244-12.486 1.596-5.913.352-10.752.935-10.754 1.294-.003.36-1.572.734-3.487.832-4.464.228-39.377 10.182-41.982 11.969-1.084.744-2.547 1.353-3.25 1.353-.702 0-2.177.9-3.277 2s-3.012 2-4.25 2.001c-1.238 0-5.128 1.362-8.647 3.027-3.518 1.664-9.368 4.212-13 5.662-3.631 1.45-8.079 3.463-9.883 4.473-1.805 1.011-3.71 1.837-4.235 1.837-.525 0-3.149 1.35-5.831 3-2.681 1.65-5.803 3-6.938 3-1.134 0-3.4 1.125-5.034 2.5s-3.693 2.5-4.576 2.5c-.883 0-2.506.9-3.606 2s-2.45 2-3 2c-.55 0-1 .35-1 .778 0 .428-3.375 2.538-7.5 4.689-4.125 2.151-7.5 4.226-7.5 4.612 0 .385-2.137 1.702-4.75 2.927-2.613 1.224-4.975 2.566-5.25 2.981-.275.416-2.85 1.979-5.723 3.475-2.872 1.495-6.949 4.366-9.059 6.379-2.111 2.012-7.548 7.008-12.084 11.101-4.535 4.093-10.808 10.786-13.94 14.872-7.625 9.95-7.822 10.186-8.526 10.186-.658 0-3.377 2.386-13.911 12.211-3.709 3.459-6.746 6.515-6.75 6.792-.004.277-3.157 3.78-7.007 7.786-3.85 4.006-7 8.119-7 9.14 0 1.021-.675 2.116-1.5 2.433-.825.316-1.5 1.214-1.5 1.994s-1.346 2.482-2.991 3.781c-1.645 1.3-2.995 2.926-3 3.613-.005.688-.384 1.25-.843 1.25-.458 0-2.128 2.475-3.711 5.5-1.582 3.025-3.181 5.5-3.552 5.5s-1.475 1.688-2.453 3.75c-.978 2.063-3.451 6.225-5.495 9.25-2.044 3.025-5.212 8.425-7.041 12-1.828 3.575-3.682 6.65-4.119 6.833-.437.184-.795.902-.795 1.597 0 .694-.723 2.713-1.608 4.485-.884 1.773-1.72 4.879-1.858 6.904-.324 4.768-1.711 8.036-4.829 11.381-1.384 1.485-3.044 4.298-3.689 6.25-.644 1.953-1.586 3.55-2.094 3.55-.507 0-.922 1.35-.922 3s-.402 3-.894 3-.901 1.012-.91 2.25c-.02 2.915-2.605 12.778-4.064 15.503-.622 1.163-1.132 3.045-1.132 4.181 0 1.136-.374 2.066-.832 2.066-3.174 0-11.413 54.378-9.166 60.5.404 1.1.111 6.725-.651 12.5s-1.577 12.75-1.812 15.5c-1.197 14.019-1.683 18.703-2.747 26.5-1.382 10.129-1.602 32.674-.488 50 .441 6.875.95 16.775 1.131 22 .18 5.225.789 11.3 1.353 13.5.564 2.2 1.32 7.375 1.68 11.5.361 4.125 1.579 11.1 2.707 15.5 1.129 4.4 2.402 9.8 2.828 12 2.835 14.612 4.506 21.647 6.229 26.21 1.082 2.865 1.94 5.446 1.907 5.736-.164 1.433 6.608 17.738 8.952 21.554.507.825 1.2 2.175 1.54 3 2.264 5.499 6.096 12.693 10.784 20.25 2.986 4.812 5.126 8.757 4.757 8.765-.37.009-.192.346.394.75.586.404 2.558 3.435 4.381 6.735 6.558 11.873 13.687 22.203 23.286 33.745 5.372 6.459 9.767 12.197 9.767 12.75 0 .553.435 1.005.967 1.005s3.795 2.957 7.25 6.572c3.456 3.614 7.858 7.528 9.783 8.697 1.925 1.169 3.725 2.407 4 2.751.275.344 3.2 2.789 6.5 5.434s7.125 5.881 8.5 7.192c2.539 2.419 4.882 4.526 15.958 14.354 3.409 3.025 10.654 9.775 16.1 15 13.701 13.146 19.187 17.848 23.556 20.189 2.064 1.106 5.358 3.28 7.319 4.83 1.962 1.551 6.717 4.504 10.567 6.563 3.85 2.06 7.675 4.292 8.5 4.96.825.668 5.1 3.135 9.5 5.482 4.4 2.347 10.579 6.012 13.73 8.145 3.152 2.133 6.527 4.159 7.5 4.503.974.343 3.12 1.597 4.77 2.787 1.65 1.19 5.984 3.785 9.631 5.768 3.646 1.982 8.743 5.217 11.326 7.188 2.583 1.972 5.08 3.585 5.549 3.585.469 0 3.619 1.837 7 4.083 3.381 2.246 7.8 4.834 9.821 5.75 2.02.917 6.432 3.355 9.804 5.417 3.372 2.063 6.454 3.75 6.849 3.75 1.088 0 35.102 17.221 42.52 21.527 10.499 6.096 14.204 7.97 19.5 9.869 4.615 1.655 8.98 3.407 14 5.621 1.1.486 4.925 1.658 8.5 2.605 3.689.977 10.31 4.027 15.308 7.05 4.844 2.93 9.016 5.328 9.271 5.328 1.084 0 17.979 8.498 18.559 9.336.351.506 1.189.58 1.862.164.673-.416 1.55-.227 1.95.419.767 1.24 7.87 5.329 17.05 9.814 3.025 1.477 5.65 3.042 5.833 3.477.184.434.765.79 1.291.79.527 0 7.013 2.925 14.413 6.5 7.401 3.575 13.632 6.5 13.847 6.5.215 0 6.044 2.7 12.953 6 6.91 3.3 12.87 6 13.246 6 .376 0 3.661 1.516 7.3 3.368 3.64 1.853 9.092 4.425 12.117 5.717 3.025 1.291 6.348 3.128 7.385 4.082 1.037.953 3.287 2.412 5 3.242 1.713.831 4.465 2.68 6.115 4.11a2027.24 2027.24 0 0 0 5.085 4.39c2.478 2.128 7.415 3.559 7.415 2.149 0-1.094-3.982-5.058-5.082-5.058-.387 0-.954-.652-1.26-1.449-.372-.969-.076-1.265.893-.893.797.306 1.449.958 1.449 1.449 0 .491.577.893 1.281.893 1.523 0 10.268 8.912 17.664 18 4.923 6.048 11.969 12.785 23.534 22.5 2.619 2.2 5.608 4.787 6.642 5.75 1.681 1.565 1.879 1.579 1.879.128 0-1.329.271-1.398 1.5-.378.825.685 1.5 1.865 1.5 2.622 0 .758.45 1.378 1 1.378s1 .605 1 1.345c0 1.771 3.414 4.818 4.982 4.447.677-.161 2.071 1.283 3.098 3.208 1.026 1.925 2.891 4.481 4.143 5.679 1.252 1.199 3.402 3.261 4.777 4.583 5.117 4.919 8.703 9.448 13.535 17.097 2.731 4.322 5.64 8.863 6.465 10.09 1.9 2.827 6.085 9.233 11.466 17.551 2.312 3.575 5.227 8.525 6.477 11 1.985 3.931 12.338 18.623 14.093 20 1.702 1.336 6.127 10.288 8.388 16.971 1.39 4.109 3.469 8.745 4.619 10.302 1.928 2.606 15.949 42.941 15.963 45.919.004.719.755 2.658 1.671 4.308 2.324 4.189 2.157 12.634-.546 27.5-2.971 16.342-5.483 26.782-8.662 36-1.423 4.125-3.342 9.75-4.266 12.5-.923 2.75-2.176 5.524-2.784 6.165-1.187 1.25-2.074 3.44-5.198 12.835-3.378 10.158-5.687 15.985-6.471 16.333-.413.184-.75 1.22-.75 2.302 0 2.253-3.655 9.282-6.25 12.019-.963 1.015-1.75 2.273-1.75 2.796 0 .522-1.373 2.985-3.052 5.472-1.679 2.487-3.234 5.467-3.456 6.622-.223 1.155-3.005 4.43-6.182 7.278-3.177 2.848-7.843 7.203-10.368 9.678-5.789 5.675-9.763 8.859-12.904 10.339-1.355.639-3.558 2.174-4.896 3.411-1.339 1.237-2.837 2.25-3.33 2.25-.995 0-3.098 1.594-5.605 4.25-.908.963-2.676 1.75-3.929 1.75-1.253 0-2.278.45-2.278 1s-.675 1-1.5 1-1.5.45-1.5 1-1.055 1-2.345 1c-1.29 0-3.16.9-4.155 2-.995 1.1-2.33 2-2.966 2-.636 0-2.029.787-3.095 1.75-1.803 1.627-12.691 7.221-20.189 10.372-1.788.752-3.25 1.859-3.25 2.462 0 .602-1.116 1.604-2.48 2.225-1.493.68-2.267 1.687-1.944 2.529.413 1.075-.278 1.309-2.988 1.01-1.959-.216-6.076.509-9.271 1.632-3.161 1.111-6.551 2.02-7.532 2.02-.982 0-1.785.45-1.785 1s-.756 1-1.679 1c-1.88 0-7.902 1.781-10.557 3.123-.955.482-2.616.877-3.691.877-1.075 0-2.202.4-2.505.89-.302.489-2.016 1.128-3.809 1.419-1.792.292-9.985 2.571-18.205 5.064-10.277 3.118-16.838 4.555-21 4.602-19.718.221-25.209-.052-27.737-1.378-2.728-1.433-5.931-2.299-11.317-3.062-1.65-.234-4.462-.869-6.25-1.41-1.788-.542-3.25-.776-3.25-.52s-.882-.007-1.96-.584c-1.078-.577-5.466-1.759-9.75-2.628-4.285-.868-8.787-2.212-10.005-2.986s-2.793-1.41-3.5-1.413c-.707-.004-2.492-.636-3.968-1.406-1.475-.77-4.175-1.724-6-2.122-1.824-.397-4.205-1.339-5.29-2.094-1.084-.754-3.222-1.372-4.75-1.372-1.527 0-2.777-.45-2.777-1s-.569-1-1.263-1c-.695 0-3.508-1.504-6.25-3.343-5.366-3.597-21.363-11.657-23.137-11.657-.594 0-2.202-.882-3.573-1.961-1.371-1.078-3.806-2.192-5.411-2.474-3.581-.631-14.366-6.367-14.366-7.64 0-.509-.575-.925-1.277-.925-.703 0-2.728-1.325-4.5-2.944-1.773-1.619-3.223-2.74-3.223-2.492 0 .248-1.35-.751-3-2.222-1.65-1.47-3-3.243-3-3.939 0-.697-1.463-2.282-3.25-3.522-4.143-2.874-12.75-11.674-12.75-13.035 0-.571-.839-2.232-1.864-3.692-1.026-1.46-2.457-4.318-3.182-6.351-.724-2.033-1.755-3.426-2.29-3.095-.538.332-.654.085-.261-.552.392-.634.012-2.153-.845-3.377-.857-1.223-1.558-2.955-1.558-3.848 0-.893-.717-3.061-1.594-4.818-.876-1.757-1.789-4.639-2.028-6.404-.239-1.765-.717-4.334-1.062-5.709-.346-1.375-.757-4.672-.913-7.327-.157-2.654-.71-5.354-1.229-6-.519-.645-1.262-2.666-1.653-4.49-.39-1.825-1.339-4.525-2.109-6-.77-1.476-1.402-3.493-1.406-4.483-.003-.989-.669-3.081-1.479-4.648-1.906-3.686-3.695-11.356-3.978-17.052-.254-5.141-2.49-14.915-3.82-16.702-.492-.661-1.031-2.236-1.198-3.5-.166-1.264-.793-4.323-1.393-6.798-.599-2.475-1.1-5.963-1.114-7.75-.013-1.787-.453-3.25-.977-3.25-.549 0-.761-2.601-.5-6.143.755-10.244 3.691-18.708 5.483-15.808.426.688 1.155-.14 1.831-2.079.618-1.773 2.423-5.336 4.013-7.919 1.589-2.583 3.21-6.156 3.602-7.941.392-1.785 1.345-3.488 2.118-3.785.773-.296 1.406-1.391 1.406-2.432s.461-1.893 1.025-1.893c.563 0 1.457-1.137 1.985-2.526.528-1.389 1.642-2.787 2.475-3.107.833-.319 1.515-1.227 1.515-2.016 0-1.445.822-2.68 4.5-6.76 1.1-1.221 2.78-3.878 3.734-5.905.953-2.027 2.158-3.686 2.677-3.686 1.079 0 4.089-5.633 4.089-7.654 0-.74.588-1.346 1.308-1.346 1.566 0 5.092-7.544 4.2-8.987-.344-.557-.149-1.013.433-1.013s1.059-1.125 1.059-2.5.393-2.5.873-2.5c1.13 0 3.923-16.246 3.727-21.677-.16-4.429-.414-4.741-11.202-13.823-2.613-2.2-5.684-5.033-6.824-6.296-1.141-1.262-3.761-4.057-5.824-6.21-2.062-2.152-3.75-4.368-3.75-4.923 0-.554-.749-.721-1.664-.37-1.053.404-1.42.243-.998-.439.885-1.432-4.182-9.078-6.507-9.815-1.007-.32-1.831-.931-1.831-1.357 0-.426-1.575-1.623-3.5-2.66-1.925-1.037-3.5-2.594-3.5-3.461 0-1.634-5.933-7.969-7.464-7.969-.477 0-1.581-.654-2.452-1.454-5.252-4.82-6.179-5.546-7.076-5.546-.545 0-1.553-.9-2.24-2-.687-1.1-1.621-2-2.076-2-1.175 0-8.198-5.809-12.523-10.359-4.076-4.288-14.698-12.641-16.074-12.641-.486 0-2.329-1.35-4.095-3-1.766-1.65-3.633-3-4.148-3-.973 0-1.49-.379-6.154-4.516-1.54-1.366-3.183-2.484-3.65-2.484-.466 0-2.423-1.575-4.348-3.5-1.925-1.925-3.887-3.5-4.359-3.5-.473 0-1.422-.9-2.109-2s-1.821-2-2.52-2c-.699 0-1.919-.9-2.712-2-.793-1.1-2.467-2-3.721-2-1.253 0-2.279-.45-2.279-1s-.922-1-2.05-1c-1.127 0-3.305-.65-4.841-1.444-4.052-2.095-17.037-2.822-26.277-1.471-7.445 1.089-8.571 1.59-16.167 7.193-18.228 13.446-34.179 28.012-44.165 40.329-1.65 2.035-4.012 4.736-5.25 6.001-1.238 1.266-2.25 2.663-2.25 3.106 0 .443-.9 1.367-2 2.054-1.1.687-2 1.607-2 2.045 0 .438-2.812 3.761-6.25 7.385-6.589 6.947-11.027 12.252-11.583 13.846-.184.526-.941.956-1.683.956-.742 0-1.651 1.013-2.02 2.25-.37 1.237-2.442 3.953-4.606 6.034-2.164 2.081-3.665 4.219-3.337 4.75.328.531.18.966-.329.966-1.209 0-6.192 7.541-6.192 9.372 0 .778-.675 1.673-1.5 1.99-.825.316-1.5 1.452-1.5 2.523 0 1.072-.338 2.098-.75 2.282-.953.423-12.25 22.46-12.25 23.896 0 .589-1.125 2.545-2.5 4.348s-2.5 3.814-2.5 4.469c0 .655-.727 2.3-1.615 3.655-.888 1.356-1.364 2.465-1.057 2.465.307 0-.785 3.259-2.428 7.242-1.643 3.984-3.124 7.921-3.293 8.75a28.21 28.21 0 0 1-.828 3.008c-2.27 6.534-5.277 16.773-5.286 18-.007.825-.531 2.411-1.166 3.524-.635 1.113-1.692 4.938-2.349 8.5-.656 3.562-1.646 7.34-2.2 8.396-.554 1.056-1.193 4.632-1.419 7.946-.227 3.314-1.096 8.037-1.93 10.494-.834 2.458-1.276 5.096-.982 5.863.294.767.059 3.505-.522 6.086-.582 2.58-1.265 8.066-1.519 12.191-.253 4.125-.741 10.2-1.085 13.5-.834 7.998-.762 43.079.107 52.5.381 4.125.713 8.4.739 9.5.026 1.1.475 4.475 1 7.5.524 3.025 1.148 6.85 1.386 8.5.239 1.65.664 4.125.945 5.5.281 1.375.94 4.975 1.463 8 1.355 7.83 1.832 9.856 2.622 11.135.383.619.843 2.755 1.021 4.746.179 1.99.791 5.531 1.36 7.869.57 2.338 1.444 5.938 1.944 8 .499 2.063 1.887 6.9 3.085 10.75 1.198 3.85 2.336 7.9 2.528 9 .428 2.449 2.426 8.362 3.647 10.791.495.985.675 2.154.4 2.598-.274.445.359 1.728 1.406 2.853 1.048 1.125 1.708 2.242 1.467 2.483-.481.481 4.27 12.67 5.565 14.275.443.55 1.029 2.35 1.303 4 .608 3.678 1.664 6.566 3.05 8.348.576.741 1.173 2.316 1.326 3.5.153 1.183 1.371 4.402 2.707 7.152 2.239 4.611 3.507 7.798 3.584 9.009.017.268 1.749 3.768 3.848 7.777 2.1 4.009 3.636 7.835 3.413 8.502-.222.667-.007 1.212.479 1.212.485 0 1.436 1.532 2.113 3.405.677 1.872 1.921 3.669 2.765 3.993.843.323 1.284.99.98 1.482-.303.491.118 1.449.937 2.129.819.68 1.489 1.875 1.489 2.656 0 1.575.736 2.589 6.387 8.801 2.137 2.35 3.856 4.527 3.819 4.837-.036.311 1.477 2.202 3.364 4.202 1.886 2.001 3.43 4.174 3.43 4.829 0 .655 1.125 2.036 2.5 3.069 1.375 1.032 2.5 2.419 2.5 3.082 0 .662 1.124 2.511 2.499 4.109 1.374 1.599 2.499 3.175 2.5 3.503 0 .328.959 1.678 2.129 3 1.171 1.322 3.617 5.553 5.437 9.403 1.82 3.85 4.723 8.575 6.451 10.5 1.728 1.925 3.878 4.737 4.778 6.25.901 1.513 1.99 2.75 2.422 2.75.431 0 .784.675.784 1.5s.45 1.5 1 1.5 1.013.563 1.029 1.25c.016.688 2.153 3.525 4.75 6.306 2.596 2.78 7.646 8.354 11.221 12.386 9.201 10.376 24.221 25.058 25.633 25.058 1.094 0 10.25 7.203 14.936 11.75.708.688 1.745 1.25 2.303 1.25.558 0 1.603.81 2.321 1.8.719.99 2.769 2.395 4.557 3.122 1.788.726 3.25 1.662 3.25 2.079 0 .417 2.587 2.704 5.75 5.081 3.163 2.378 6.362 4.924 7.111 5.66.748.735 3.673 2.503 6.5 3.928 2.826 1.426 5.364 2.913 5.639 3.304.275.392 2.97 1.943 5.99 3.448 3.019 1.505 5.719 3.038 6 3.407.86 1.131 9.964 5.171 11.653 5.171.874 0 3.674 1.51 6.223 3.356 2.549 1.846 6.171 3.649 8.05 4.008 1.88.359 5.93 1.83 9 3.268 6.395 2.996 7.916 3.663 21.584 9.452 5.5 2.33 10.71 4.839 11.579 5.576.868.737 2.304 1.34 3.191 1.34.886 0 1.899.464 2.25 1.032.35.567 2.74 2.005 5.309 3.194 2.569 1.19 5.002 2.638 5.406 3.218.404.581.741.632.75.115.008-.518.578-.244 1.265.608.688.852 4.175 2.314 7.75 3.249 3.575.934 7.175 1.979 8 2.321 1.673.693 4.038 1.177 8.5 1.738 1.65.208 6.119 1.079 9.931 1.937 3.812.858 7.124 1.367 7.359 1.131.236-.235 2.517.37 5.069 1.346 2.553.975 7.341 2.348 10.641 3.051 3.3.703 6.675 1.526 7.5 1.83.825.303 2.625.679 4 .835 1.375.157 4.975.77 8 1.364 8.421 1.652 13.907 2.291 20.75 2.417 3.437.062 6.25.339 6.25.614 0 .558 33.327.312 45-.333 4.125-.227 16.05-.982 26.5-1.676 13.626-.906 28.758-1.042 53.5-.482 18.975.43 36.075.782 38 .783 7.879.003 28.284-2.13 28.87-3.017.764-1.157 10.97-3.067 17.026-3.186 2.417-.047 4.892-.458 5.5-.912 1.523-1.141 8.876-3.177 11.47-3.177 1.174 0 2.134-.392 2.134-.872s1.82-1.163 4.044-1.519c2.224-.356 4.811-1.025 5.75-1.487.938-.462 4.181-1.633 7.206-2.603 3.025-.969 5.725-2.047 6-2.395.275-.348 3.095-1.494 6.267-2.547 3.172-1.052 6.265-2.513 6.873-3.245.608-.733 1.748-1.332 2.534-1.332.787 0 3.094-.894 5.128-1.986 5.494-2.95 15.075-7.014 16.537-7.014.703 0 2.152-.661 3.22-1.468 1.067-.808 2.677-1.483 3.576-1.5 2.395-.047 11.712-2.912 16.642-5.118 2.352-1.053 4.884-1.914 5.627-1.914.743 0 1.875-.631 2.515-1.402.639-.771 2.355-1.701 3.813-2.067 1.457-.366 3.366-1.491 4.242-2.501.876-1.01 3.438-2.333 5.693-2.94 2.255-.608 4.658-1.776 5.339-2.597s1.678-1.493 2.214-1.493c1.426 0 17.959-8.188 20.142-9.976 1.023-.838 2.377-2.01 3.009-2.604.631-.595 1.705-.895 2.388-.667.683.228 1.241-.042 1.241-.6 0-.557 2.137-2.051 4.75-3.32 2.612-1.269 5.741-3.325 6.952-4.57 1.211-1.245 2.433-2.263 2.716-2.263.282 0 1.833-1.237 3.446-2.75 1.613-1.512 4.102-3.65 5.532-4.75 1.43-1.1 4.288-4.235 6.352-6.967 3.621-4.794 4.73-6.582 8.085-13.033 1.76-3.385 2.893-4.91 5.417-7.293.962-.908 1.75-2.241 1.75-2.961 0-.72.675-1.568 1.5-1.884.825-.317 1.5-1.393 1.5-2.391 0-1.214 1.244-2.222 3.75-3.041 2.063-.674 5.073-2.509 6.69-4.078 1.617-1.568 3.46-2.852 4.095-2.852 1.974 0 4.465-3.53 4.465-6.329 0-1.469.337-2.618.75-2.553 1.805.285 3.528-.174 2.923-.778-.936-.936 3.119-3.586 4.336-2.835.553.342 1.275-.082 1.605-.942.33-.859 1.114-1.573 1.743-1.584 1.429-.027 7.076-7.879 6.256-8.699-.33-.331.409-1.118 1.643-1.749s2.182-1.909 2.105-2.839c-.076-.931.486-1.692 1.25-1.692s1.389-.689 1.389-1.531c0-.843.634-1.775 1.409-2.073.775-.297 3.48-3.175 6.01-6.396s6.149-7.316 8.041-9.101c1.893-1.785 3.985-4.63 4.65-6.322.665-1.693 2.263-4.509 3.55-6.26 1.287-1.751 2.34-3.488 2.34-3.861 0-.372 2.025-3.574 4.5-7.115 2.475-3.54 4.5-6.765 4.5-7.167 0-.401.787-1.426 1.75-2.277.963-.851 5.8-6.848 10.75-13.328 4.95-6.479 9.834-12.745 10.854-13.925 2.139-2.474 6.646-11.442 6.646-13.224 0-.663.704-1.476 1.564-1.806.86-.33 1.466-1.391 1.346-2.357-.282-2.277 1.074-5.385 2.079-4.764.428.265 1.334-.975 2.013-2.756.679-1.78 2.019-5.037 2.977-7.237.959-2.2 4.559-11.425 8.001-20.5 3.442-9.075 6.647-17.4 7.123-18.5 3.358-7.761 7.315-21.433 9.334-32.252 1.308-7.011 2.859-13.985 3.446-15.498.587-1.512.828-2.75.536-2.75-.293 0 .168-1 1.024-2.223.856-1.222 1.557-3.597 1.557-5.277 0-1.68.6-3.943 1.334-5.027 2.337-3.455 7.92-35.275 7.555-43.06-.101-2.152.609-7.288 1.577-11.413.969-4.125 1.851-8.278 1.961-9.23.109-.951.508-2.038.886-2.416.378-.378.687-3.113.687-6.078 0-5.46 1.306-16.059 2.992-24.276 1.224-5.967 1.343-30.815.187-39-3.976-28.145-5.587-35.891-8.942-43-.908-1.925-1.543-4.041-1.411-4.703.132-.662-.486-2.912-1.374-5-.888-2.088-1.762-4.472-1.944-5.297-.181-.825-1.202-4.65-2.269-8.5-1.067-3.85-1.767-7.495-1.556-8.101.211-.605-.756-3.371-2.149-6.145-1.394-2.775-2.532-5.879-2.53-6.899.008-3.091-5.26-18.803-6.569-19.596-1.563-.946-9.314-19.356-15.476-36.759-5.081-14.35-10.496-28.522-11.844-31-.449-.825-2.326-4.425-4.171-8-1.846-3.575-4.551-8.169-6.012-10.209-1.46-2.04-3.197-5.018-3.86-6.617-.662-1.598-2.25-3.466-3.527-4.15-2.5-1.338-4.545-4.947-4.545-8.021 0-1.047-.596-2.263-1.325-2.703-1.107-.668-2.634-3.261-3.122-5.3-.066-.275-1.342-2.404-2.836-4.73-1.494-2.327-2.717-4.452-2.717-4.723 0-.886-9.48-16.038-10.247-16.379-.411-.183-2.396-3.333-4.411-7-2.015-3.668-5.079-8.693-6.809-11.168-1.73-2.475-3.421-5.229-3.758-6.12-.337-.892-3.492-5.617-7.011-10.5-3.519-4.884-7.646-11.894-9.171-15.577-2.475-5.978-5.529-10.184-15.672-21.587-1.607-1.806-2.921-3.759-2.921-4.341 0-1.474-8.098-12.875-9.145-12.875-.47 0-.855-.669-.855-1.486s-1.913-2.725-4.25-4.24c-2.337-1.515-4.642-3.378-5.12-4.14-2.105-3.351-15.216-15.392-19.463-17.875-5.571-3.255-6.686-4.185-18.755-15.631-8.697-8.249-11.693-10.758-17.461-14.628-1.23-.825-3.41-2.568-4.844-3.874-1.434-1.306-4.372-3.498-6.529-4.871-4.304-2.741-4.516-2.897-9.578-7.073-1.925-1.587-5.127-3.966-7.116-5.284l-9.342-6.194c-5.884-3.902-7.346-4.994-10.528-7.869-2.207-1.993-10.577-7.403-21.514-13.905-4.4-2.615-8.994-5.695-10.208-6.843-1.215-1.148-2.479-2.087-2.809-2.087-.802 0-8.892-6.296-9.316-7.25-.184-.413-.758-.75-1.277-.75-.519 0-5.035-2.466-10.035-5.481-5-3.014-13.65-7.781-19.223-10.594-5.573-2.813-12.666-6.647-15.763-8.52-3.097-1.873-5.993-3.405-6.435-3.405-.443 0-1.737-.876-2.876-1.946-2.369-2.225-22.548-11.01-27.058-11.779-1.65-.282-3.9-1.305-5-2.274-1.1-.969-3.8-2.376-6-3.126s-4.225-1.625-4.5-1.943c-.674-.78-3.973-2.01-6.871-2.563-1.304-.249-4.091-1.329-6.192-2.401-2.101-1.072-9.358-3.754-16.128-5.959-6.77-2.206-13.209-4.411-14.309-4.9-5.278-2.344-18.865-7.645-26.5-10.338-4.675-1.649-10.623-4.072-13.217-5.384-2.594-1.313-5.631-2.387-6.75-2.387-1.118 0-2.033-.343-2.033-.763 0-.847-.739-1.293-10.03-6.048-9.455-4.839-15.393-8.255-15.969-9.188-.279-.451-2.418-1.584-4.754-2.519-2.336-.934-4.247-2.1-4.247-2.591 0-.49-.436-.891-.969-.891-.533 0-4.02-1.966-7.75-4.368-3.729-2.402-7.794-4.683-9.031-5.067-1.237-.385-2.25-1.108-2.25-1.607 0-2.184-16.551-8.178-27.5-9.959-9.945-1.618-12.099-2.57-22.681-10.029-5.591-3.941-10.874-7.423-11.742-7.738-2.116-.769-14.193-9.246-16.077-11.285-.825-.893-4.425-3.579-8-5.97-3.575-2.39-6.64-4.44-6.811-4.556-.171-.115-.703-2.985-1.183-6.378-.785-5.556-1.445-6.821-6.649-12.748-3.177-3.619-8.044-8.319-10.817-10.446-2.772-2.126-5.701-4.424-6.509-5.107-.808-.683-3.283-2.055-5.5-3.048-7.608-3.409-13.361-8.137-17.465-14.351-2.236-3.386-4.066-6.803-4.066-7.595 0-.791-.9-2.253-2-3.248-1.1-.995-2-2.43-2-3.187 0-.758-2.587-4.98-5.75-9.383-5.754-8.012-10.807-16.357-13.884-22.93-.902-1.925-2.557-5.3-3.679-7.5a383.72 383.72 0 0 1-2.762-5.5c-.397-.825-1.882-3.885-3.301-6.8-2.205-4.529-4.42-16.048-4.462-23.2-.005-.825-.084-4.878-.176-9.007-.092-4.145.534-10.209 1.397-13.543.861-3.32 1.831-9.392 2.157-13.493.325-4.101 1.013-9.482 1.527-11.957.515-2.475 1.13-7.052 1.368-10.17.753-9.893 6.574-28.998 11.982-39.33.864-1.65 1.573-3.522 1.577-4.16.003-.638 4.393-5.671 9.756-11.185 5.363-5.513 11.325-11.831 13.25-14.039 1.925-2.208 5.975-5.939 9-8.291 3.025-2.353 7.525-6.126 10-8.386 2.475-2.26 7.425-5.836 11-7.948s7.625-4.541 9-5.396c1.375-.856 3.927-2.062 5.671-2.681 2.786-.987 3.231-.899 3.657.731.302 1.157-.044 1.855-.922 1.855-1.607 0-1.761.892-.498 2.885.595.94 1.756 1.165 3.605.701 2.598-.652 2.691-.55 1.949 2.115-.428 1.539-.888 5.724-1.021 9.299-.132 3.575-.296 6.5-.364 6.5-.067 0-.324 4.275-.571 9.5-.247 5.225-.902 14.45-1.456 20.5-.554 6.05-1.215 15.05-1.471 20-.255 4.95-.557 9.675-.671 10.5-.115.825.149 4.829.586 8.898.545 5.077.466 7.195-.251 6.752-1.246-.77-3.182 6.658-3.914 15.018-1.163 13.28-1.113 31.832.09 33.332.662.825 2.3 3.637 3.64 6.25 1.341 2.613 3.001 4.75 3.689 4.75.689 0 1.252.441 1.252.98 0 1.54 7.598 5.02 10.96 5.02 1.672 0 3.04.45 3.04 1s.868 1 1.929 1c1.06 0 2.603.675 3.428 1.5 1.653 1.652 3.643 1.994 3.643.625 0-1.155 5.549-2.235 7.547-1.469.862.331 1.329 1.225 1.037 1.987-.38.988.249 1.345 2.192 1.246 1.498-.076 8.081.213 14.629.642 8.498.558 11.714.47 11.234-.306-.369-.598-.214-1.369.345-1.715.559-.345 1.016-.036 1.016.688 0 .933 1.238 1.222 4.25.991 2.337-.18 9.955.1 16.927.622 7.568.565 14.419.587 17 .053 11.949-2.473 21.471-3.089 33.323-2.153 5.5.434 12.138.543 14.75.243 2.612-.3 4.75-.278 4.75.049 0 1.593 7.504 2.69 16.5 2.413 15.114-.465 18.441-.266 22.5 1.346 1.375.546 6.931 1.067 12.346 1.157 9.063.152 10.002-.014 11.791-2.077 2.111-2.435 8.482-3.317 12.611-1.748 1.287.489 2.252.476 2.252-.03 0-1.03.934-.901 6.829.944 2.605.816 4.595.985 5 .424.945-1.313 4.478-1.16 5.671.246.55.647 4.118 1.322 7.929 1.5l6.929.322 3.753-7.5 3.753-7.5-.917-8.375c-.505-4.606-1.644-11.806-2.531-16-.887-4.194-1.762-13.925-1.944-21.625-.45-18.988-1.243-29.321-2.573-33.5-.715-2.248-1.21-17.119-1.383-41.585-.176-24.933-.644-38.785-1.353-40.111-1.216-2.272-2.807-2.193 18.337-.907 10.803.657 22.337 2.462 24.092 3.771.6.448 2.4.994 4 1.214 5.319.732 9.443 1.866 9.988 2.747.296.479 1.651.871 3.01.871 1.36 0 2.732.675 3.048 1.5.317.825 1.178 1.5 1.914 1.5 1.983 0 15.486 6.922 18.948 9.713 1.65 1.33 4.948 4.077 7.328 6.103s5.08 4.096 6 4.599c.92.503 1.897 1.178 2.172 1.501.275.323 1.85 1.261 3.5 2.086 1.65.824 3.872 2.286 4.939 3.248 1.066.963 2.261 1.75 2.656 1.75s.498.842.229 1.87c-.308 1.177 1.024 3.867 3.589 7.25 2.243 2.959 4.08 6.317 4.083 7.463.002 1.146.31 2.39.685 2.764 1.927 1.928 5.643 22.951 5.506 31.153-.168 10.039-1.113 25.76-1.577 26.223-1.1 1.1-.64 2.277.89 2.277.825 0 1.5.258 1.5.574 0 .523-4.011 15.259-8.963 32.926-2.053 7.326-6.344 24.11-8.565 33.5-1.827 7.726-3.448 14.177-4.115 16.372-.497 1.635-.114 1.818 3.037 1.451 3.395-.397 3.606-.255 3.606 2.423 0 4.108 9.378 17.754 12.202 17.754 1.177 0 2.851.606 3.719 1.346.869.741 4.729 2.573 8.579 4.073 3.85 1.499 12.002 5.618 18.115 9.153 6.113 3.536 11.353 6.428 11.644 6.428.291 0 1.975 1.35 3.741 3s4.09 3 5.165 3c1.151 0 1.677.446 1.282 1.086-1.093 1.768 5.387 7.77 7.727 7.158 1.48-.387 1.887-1.143 1.554-2.884-.485-2.539-.031-2.837 2.184-1.435 1.194.755 1.155 1.151-.25 2.556-2.08 2.08-2.102 3.136-.08 3.912 2.333.895 2.418.829 2.418-1.893 0-1.375.45-2.5 1-2.5s1 .45 1 1 .788 1.036 1.75 1.079c1.045.047 1.247.282.5.583-.687.278-1.25 1.094-1.25 1.814 0 1.865 3.165 2.839 4.246 1.308.733-1.038 1.005-1.04 1.422-.009.488 1.207 6.29 4.144 9.162 4.637.731.126 1.631.683 2 1.239.368.556 5.395 3.504 11.17 6.552 5.775 3.049 13.397 7.246 16.939 9.328 4.218 2.48 7.839 3.848 10.5 3.965 7.343.325 7.797.446 7.231 1.921-.657 1.714 1.982 2.955 2.951 1.388.464-.752 1.064-.589 1.863.504.649.887 2.38 2.069 3.847 2.627 2.173.826 2.669.729 2.669-.52 0-.844.457-1.251 1.016-.906.559.346.756 1.05.437 1.566-2.141 3.465 12.926 1.238 19.52-2.885 6.2-3.875 8.007-4.832 11.777-6.229 1.787-.663 3.25-1.67 3.25-2.239 0-1.276 7.49-8.723 8.773-8.723 2.152 0 10.218-9.149 12.124-13.75.74-1.788 1.741-3.25 2.224-3.25.484 0 .879-.675.879-1.5s.441-1.5.981-1.5c.539 0 1.263-1.125 1.608-2.5.345-1.375.917-2.503 1.269-2.507.353-.004 1.713-1.579 3.021-3.5 1.308-1.921 2.895-3.493 3.527-3.493 1.37 0 11.162-17.921 14.615-26.75 1.344-3.437 2.79-6.25 3.212-6.25.422 0 .767-1.098.767-2.441 0-1.343.399-2.688.887-2.989.487-.301 1.183-2.128 1.545-4.059.362-1.931 1.088-3.511 1.613-3.511.525 0 .96-1.462.966-3.25.006-1.788.624-5.275 1.375-7.75 2.017-6.657 2.956-16.493 1.783-18.685-.727-1.358-.503-3.394.808-7.347 2.091-6.303 3.495-12.116 3.201-13.257-.112-.433.502-3.808 1.364-7.5.862-3.691 2.21-10.086 2.995-14.211.784-4.125 1.878-9.525 2.43-12 .981-4.397 2.457-25.539 2.339-33.5-.032-2.2-.549-6.25-1.149-9-.599-2.75-2.027-12.2-3.174-21-1.146-8.8-2.252-16.9-2.457-18-.205-1.1-.407-2.814-.449-3.809-.043-.995-.527-1.531-1.077-1.191-.55.34-1.057-.196-1.128-1.191-.35-4.97-.725-6.436-2.234-8.738-1.703-2.6-2.275-7.083-.786-6.162.469.29.383-1.232-.19-3.382-.574-2.15-1.408-3.684-1.853-3.409-.445.275-.809-.645-.809-2.044 0-2.128-5.295-13.934-6.985-15.574-.283-.275-.628-1.545-.766-2.822-.138-1.278-.926-2.997-1.75-3.822-.824-.824-1.5-2.029-1.501-2.677-.002-.649-1.351-2.754-2.998-4.679-1.647-1.925-2.996-3.974-2.998-4.553-.001-.579-3.109-5.825-6.905-11.658-3.797-5.833-7.209-11.565-7.581-12.739-.463-1.46-1.231-1.958-2.43-1.577-2.585.82-4.703-4.028-2.338-5.352 1.463-.819.799-2.263-5.192-11.28-3.779-5.688-9.406-13.491-12.505-17.341-3.1-3.85-8.518-10.825-12.04-15.5-8.962-11.893-11.505-14.271-25.011-23.391-7.035-4.75-13.364-9.565-21.827-16.609-5.485-4.565-10.155-8-10.875-8-.45 0-1.955-1.013-3.345-2.25-2.888-2.572-3.543-2.797-10.534-3.622-.595-.071-1.692-1.269-2.438-2.663-.748-1.399-1.944-2.309-2.669-2.031-.721.277-1.312.17-1.312-.238 0-.408-1.575-1.589-3.5-2.626s-3.5-2.22-3.5-2.63c0-.963-5.994-3.062-6.989-2.447-.418.258-1.849-.535-3.181-1.762-2.659-2.449-12.63-7.731-14.594-7.731-.68 0-1.236-.391-1.236-.868 0-.478-1.865-1.119-4.144-1.425-2.279-.305-4.417-.983-4.75-1.506-1.091-1.711-7.274-2.547-8.166-1.104-.628 1.017-1.329 1.057-3.125.179-1.273-.623-4.058-1.42-6.188-1.772-2.13-.353-4.605-1.045-5.5-1.539-3.543-1.956-15.289-6.116-18.853-6.677-2.076-.327-4.845-1.424-6.155-2.438-1.309-1.014-4.234-2.335-6.5-2.937-2.265-.601-5.469-1.699-7.119-2.44-9.281-4.17-15.708-6.462-16.589-5.918-.549.339-2.088-.096-3.42-.969-1.331-.872-3.506-1.586-4.833-1.586-1.327 0-2.937-.631-3.577-1.403-.64-.771-3.058-1.616-5.373-1.876-5.436-.612-14.861-3.359-15.619-4.551-.324-.51-2.389-1.17-4.589-1.467-2.2-.297-6.025-1.063-8.5-1.703-2.475-.64-6.3-1.397-8.5-1.684-2.2-.286-4.427-.925-4.95-1.418-.522-.494-2.441-.898-4.264-.898-1.822 0-4.196-.551-5.275-1.225-1.458-.911-2.251-.935-3.091-.095-.84.84-2.001.766-4.525-.288-1.867-.781-3.395-1.156-3.395-.834 0 .322-.675-.09-1.5-.915-1.09-1.09-1.504-3.774-1.515-9.822-.009-4.576-.478-8.996-1.044-9.821-.8-1.168-.995-.837-.878 1.5.287 5.779-.072 8.5-1.122 8.5-.582 0-.734-.526-.336-1.17.486-.787.178-.961-.941-.531-.915.351-1.657.315-1.649-.08.027-1.255 1.434-2.9 2.985-3.49 1.195-.455 1.144-.587-.25-.65-2.018-.091-2.345-1.671-.5-2.42.966-.391.936-.727-.132-1.474-1.105-.772-.946-1.105.791-1.656 2.043-.649 2.145-1.158 1.706-8.572-.627-10.613-2.015-12.392-10.808-13.848-3.681-.61-8.968-1.109-11.75-1.109-2.781 0-5.057-.378-5.057-.839 0-1.9-5.753-3.203-16.256-3.681-6.123-.279-12.733-.92-14.688-1.424-1.956-.505-10.981-1.418-20.056-2.031-26.98-1.82-45.243-3.146-49.5-3.593-2.2-.231-9.625-.34-16.5-.243-6.875.098-19.259.067-27.52-.069-8.261-.135-16.186.198-17.612.74-1.97.749-2.951.628-4.08-.501-2.991-2.991-28.96-4.298-34.788-1.751M840.5 109c.34.55 2.054.955 3.809.9 3.047-.095 3.078-.135.691-.9-3.591-1.15-5.211-1.15-4.5 0" fill-rule="evenodd"/></svg>