<svg xmlns="http://www.w3.org/2000/svg" width="1240" height="1753"><path d="M645.492 9.013c-.347.561-1.015.782-1.486.491-2.031-1.255-5.977 2.25-12.729 11.307C623.767 30.883 614 45.503 614 46.67c0 .37-.611 1.383-1.359 2.251-.747.869-4.632 7.879-8.634 15.579-7.818 15.046-10.661 20.043-12.778 22.464-.739.845-3.193 4.123-5.454 7.286-2.261 3.162-4.721 5.75-5.468 5.75-.746 0-1.754 1.013-2.241 2.25-.486 1.237-2.76 4.725-5.053 7.75-6.941 9.159-23.004 33.881-23.031 35.449-.02 1.172-3.267 6.07-9.979 15.051-2.466 3.3-5.33 7.575-6.364 9.5-1.034 1.925-2.488 3.853-3.231 4.283-.742.431-5.008 6.281-9.48 13-4.471 6.72-9.123 13.342-10.338 14.717-1.215 1.375-3.757 4.846-5.65 7.713-1.892 2.868-4.115 5.53-4.94 5.917-.825.386-27.15.824-58.5.972-31.35.149-63.525.549-71.5.889-21.311.908-72.309.6-79.952-.484-3.638-.516-13.349-.788-21.581-.605-17.894.399-63.56 3.924-65.389 5.048-1.273.782-25.053 4.492-32.078 5.004-18.126 1.321-48.268 2.624-69.5 3.004-20.731.371-32.557 1.51-43.07 4.149l-2.669.67.72 11.111c.686 10.589.856 11.234 3.619 13.701 3.029 2.704 3.809 6.602 1.736 8.675-.639.639-1.089 3.128-.998 5.53l.165 4.367-6.942 2.319c-7.422 2.478-7.791 2.908-10.034 11.701-.721 2.824-.757 6.392-.112 11 .525 3.75.995 7.494 1.046 8.319.05.825.318 5.1.595 9.5 1.146 18.236 1.05 27.991-.303 30.792-.741 1.536-1.316 4.911-1.278 7.5.039 2.589-.222 7.068-.579 9.953-.385 3.113-.232 5.755.377 6.5.564.69.832 2.605.596 4.255-1.25 8.734-2.246 33.414-1.81 44.893.273 7.209.436 16.257.361 20.107-.074 3.85-.07 7.9.009 9 .079 1.1.094 7.178.034 13.507-.106 11.242-.047 11.565 2.559 14C49.295 484.532 51 488.26 51 492.982c0 11.4 4.809 14.36 26.963 16.598 15.786 1.594 32.484 3.975 38.037 5.423 12.031 3.137 59.1 7.462 95.5 8.776 11 .396 41.712.69 68.25.652 26.537-.038 48.25.199 48.25.528 0 .669-1.446 2.699-11.5 16.138a2531.683 2531.683 0 0 0-9.217 12.381l-3.831 5.22c-.887 1.209-1.716 2.784-1.841 3.5-.374 2.149-4.659 10.063-7.473 13.802-1.449 1.925-3.422 5.732-4.385 8.46-.964 2.728-2.427 5.338-3.252 5.8-.826.461-1.501 1.388-1.501 2.058 0 .67-1.134 2.887-2.52 4.926-1.387 2.041-1.912 3.475-1.167 3.189 1.021-.391 1.238.29.886 2.774-.611 4.311-3.83 8.872-5.743 8.138-1.015-.39-2.103.788-3.508 3.795-2.815 6.023-5.955 11.219-7.311 12.095-.627.405-.689.748-.137.765.55.017.393.415-.348.885-.742.47-1.161 1.701-.931 2.735.332 1.496.757 1.164 2.078-1.62.913-1.925 2.087-4.175 2.609-5 .521-.825 1.258-2.4 1.636-3.5.399-1.158.878-1.498 1.137-.807.4 1.067-8.098 18.072-9.65 19.307-.345.275-1.727 2.073-3.071 3.994-3.125 4.468-10.717 11.97-12.269 12.124-.655.066-1.641.028-2.191-.083-.55-.111-.68.118-.29.508.391.391.042 2.004-.776 3.584-1.627 3.146-3.018 3.916-2.028 1.123.373-1.051-.153-.763-1.315.722-1.064 1.36-1.718 2.822-1.454 3.25.265.428-.169.778-.963.778-.794 0-2.175 1.115-3.068 2.478-.892 1.363-4.456 5.75-7.919 9.75-3.462 4-7.809 9.635-9.66 12.522-1.85 2.888-3.738 5.25-4.195 5.25-1.306 0-.98-1.257 1.168-4.5 1.093-1.65 1.99-3.64 1.993-4.421.004-.782.629-2.132 1.389-3 1.81-2.069 3.01-6.079 1.819-6.079-.513 0-2.784 2.812-5.047 6.25-2.262 3.438-4.572 6.794-5.133 7.458-.562.664-1.021 1.677-1.021 2.25s-.45 1.042-1 1.042-1.007 1.013-1.015 2.25c-.013 1.868-.198 1.995-1.087.75-.851-1.191-.963-1.01-.545.877.292 1.318-.167 3.435-1.028 4.75-1.326 2.023-1.341 2.373-.107 2.373.797 0 1.449.757 1.449 1.683 0 2.259-2.723 5.317-4.734 5.317-1.776 0-4.274 2.498-5.25 5.25-.341.963-1.069 1.75-1.616 1.75-.548 0-1.457.859-2.019 1.91-.827 1.546-.702 1.862.658 1.663.924-.136 2.849.949 4.277 2.41 1.429 1.461 3.205 2.454 3.946 2.207.864-.288 1.076-.007.59.78-.58.938-.295.981 1.199.181 2.106-1.127 6.282-.485 6.282.966 0 .485.653.883 1.45.883.798 0 1.855.723 2.35 1.607.835 1.492 6.79 3.321 11.892 3.651 1.387.09 2.404.987 2.769 2.442.459 1.831 1.264 2.3 3.95 2.3 2.763 0 3.486.452 4 2.5.345 1.375 1.187 2.5 1.871 2.5.684 0 2.088 1.125 3.121 2.5 1.032 1.375 2.672 2.5 3.643 2.5 1.274 0 1.621.557 1.244 2-.398 1.521-.031 2 1.534 2 1.132 0 2.355.481 2.718 1.068.363.588 1.29.827 2.059.532.77-.296 1.399-.174 1.399.271 0 .935 4.885 3.522 6.792 3.596.71.028 1.66.647 2.111 1.376.654 1.058.941 1.006 1.426-.259.335-.871 1.286-1.584 2.115-1.584 1.14 0 1.36.729.906 3-.382 1.911-.192 3 .525 3 .619 0 1.125-.477 1.125-1.059s.481-.762 1.068-.399c.588.363.846 1.239.575 1.946-.331.862.141 1.12 1.432.782 1.059-.277 1.925-.015 1.925.582s.64.84 1.423.539c.782-.3 2.357.389 3.5 1.532 1.142 1.142 3.095 2.077 4.34 2.077 1.387 0 2.645.87 3.25 2.25.543 1.237 1.437 2.258 1.987 2.267 1.048.017 4.183 2.399 8.271 6.284 1.332 1.266 2.925 2.134 3.54 1.929.615-.205 2.759 1.234 4.764 3.198 4.334 4.246 8.005 7.072 9.187 7.072.471 0 .622.378.336.841-.286.463.925 1.925 2.691 3.25 3.566 2.675 4.135 3.042 11.824 7.609 2.963 1.76 6.266 3.898 7.34 4.75 1.075.853 2.425 1.569 3 1.592.576.024 2.151 1.374 3.5 3 1.349 1.627 2.986 2.958 3.638 2.958.651 0 3.598 1.646 6.547 3.658 5.108 3.485 7.086 5.505 6.814 6.959-.203 1.087 2.392 2.351 4.857 2.368 1.27.008 2.06.418 1.756.91-.305.493.119 1.153.941 1.469.822.315 1.494.195 1.494-.268 0-.462 1.892-1.143 4.204-1.513 2.312-.369 5.687-1.589 7.5-2.709 4.782-2.956 4.039-1.533-1.348 2.58-4.179 3.191-4.404 3.56-2.25 3.683 5.396.309 9.894-.332 9.894-1.409 0-.465.384-.609.853-.319s1.706-.119 2.75-.909c2.157-1.633 7.853-2.046 6.897-.5-.844 1.366 3.811 1.271 6.91-.141 2.28-1.039 2.906-.745 6.991 3.282 3.225 3.179 4.24 4.822 3.609 5.843-1.285 2.079-.258 3.052 2.275 2.156 1.218-.432 3.551-.659 5.184-.505 1.633.153 3.694-.378 4.581-1.18.887-.803 1.951-1.121 2.364-.707.414.414.632.302.484-.248-.148-.55 1.659-3.025 4.014-5.5 2.356-2.475 7.643-9.556 11.75-15.737 4.107-6.18 8.004-11.58 8.659-12 .655-.419 2.47-2.478 4.033-4.575 1.563-2.097 3.923-4.223 5.244-4.725 1.321-.503 2.402-1.314 2.402-1.803 0-.489 1.35-2.412 3.001-4.274 2.511-2.833 3.166-3.141 4.007-1.886.855 1.273 1.305 1.122 2.977-1 1.084-1.375 1.981-3.936 1.993-5.691.012-1.755.422-3.438.911-3.741.489-.302 1.171-1.673 1.516-3.046.517-2.06 7.349-12.733 17.514-27.358 6.027-8.673 14.164-21.425 15.808-24.773 2.921-5.952 13.193-23.518 15.725-26.891 1.238-1.65 3-4.453 3.915-6.23.915-1.776 3.617-5.628 6.005-8.559 2.387-2.932 5.151-7.769 6.141-10.75.99-2.981 2.855-6.249 4.143-7.263 1.289-1.014 2.344-2.327 2.344-2.918 0-.591 1.486-2.92 3.303-5.177 1.817-2.257 7.068-9.503 11.671-16.103 11.61-16.652 18.763-26.269 23.223-31.228 2.092-2.325 3.803-4.625 3.803-5.112 0-.487 1.237-2.5 2.75-4.474a455.214 455.214 0 0 0 5.692-7.637c1.618-2.227 3.54-4.049 4.271-4.049.732 0 1.721-1.013 2.199-2.25 3.228-8.356 4.962-11.668 7.722-14.75 1.723-1.925 4.814-6.65 6.868-10.5 2.054-3.85 4.582-7.929 5.616-9.064 1.035-1.136 1.882-2.583 1.882-3.217 0-.633 1.8-3.936 4-7.34s4-6.569 4-7.034c0-.465 1.745-.845 3.878-.845 2.132 0 4.3-.562 4.818-1.25 1.308-1.739 3.318-8.918 2.752-9.834-.929-1.504 5.23-1.924 13.052-.89 4.4.582 10.148 1.328 12.772 1.658 4.072.512 4.686.873 4.183 2.458-.492 1.549-.052 1.858 2.646 1.858 1.779 0 6.197.469 9.817 1.041 3.62.573 8.09 1.277 9.934 1.565 7.312 1.141 1.29 1.665-17.246 1.501-13.883-.123-19.653.16-20.167.992-.4.647.018 1.577.942 2.094.913.512 1.4 1.352 1.081 1.868-.319.517-.13.939.42.939s1.259-.419 1.575-.93c.316-.512 2.992-1.232 5.947-1.601 6.68-.835 28.529-1.203 29.239-.492.537.537 1.173.681 3.964.898.956.074 1.386.702 1.061 1.549-.471 1.226-.068 1.223 2.901-.017 6.631-2.771 47.099-3.587 51.227-1.034.713.441 3.638.472 6.5.068 8.472-1.195 8.965-1.21 14.704-.444 3.025.404 6.513.356 7.75-.107 1.622-.606 2.25-.472 2.25.48 0 2.028-3.168 4.415-6.5 4.897-2.715.392-2.644.448.75.583 2.063.083 3.75.413 3.75.734 0 .322-5.25 7.859-11.667 16.75-13.09 18.137-21.433 29.792-28.824 40.265a2305.058 2305.058 0 0 1-7.805 11c-1.538 2.146-5.77 8.626-9.403 14.401a1943.89 1943.89 0 0 1-13.777 21.5c-13.655 20.95-14.888 23.354-14.65 28.568.146 3.213-.436 5.871-1.83 8.353-1.124 2.002-2.044 4.526-2.044 5.609 0 1.084-.45 1.97-1 1.97s-1.007.788-1.015 1.75c-.014 1.513-.162 1.547-1.095.25-.9-1.252-.981-1.2-.491.313.599 1.852-3.581 9.171-4.636 8.116-.308-.308-1.368 1.27-2.354 3.506-.987 2.236-2.184 4.065-2.66 4.065-.477 0-.587.453-.245 1.007.343.554-.081 1.277-.941 1.607-.859.33-1.563 1.227-1.563 1.993s-.438 1.393-.974 1.393-1.616 1.238-2.4 2.75c-.783 1.513-2.565 3.979-3.96 5.481-1.394 1.502-3.802 4.403-5.35 6.448-4.167 5.5-7.447 8.852-8.4 8.583-.464-.131-.609.374-.323 1.121.287.748-.179 2.06-1.035 2.917-.857.856-1.558 2.039-1.558 2.629 0 .589-.675 1.071-1.5 1.071s-1.5.422-1.5.937c0 1.62-7.44 8.08-8.745 7.594-.684-.255-2.231.871-3.438 2.502-2.083 2.818-4.759 4.3-3.195 1.77 1.372-2.221-5.078 2.981-11.622 9.372-3.575 3.491-8.404 9.493-10.731 13.337-2.327 3.843-5.252 8.208-6.5 9.7-3.551 4.244-11.769 15.609-11.769 16.275 0 .33-2.269 3.393-5.042 6.807a804.504 804.504 0 0 0-8.75 10.977c-2.039 2.624-4.27 5.404-4.958 6.178-.687.775-1.25 1.697-1.25 2.049 0 .353-1.35 2.604-3 5.002-1.65 2.398-3 4.792-3 5.32 0 .858-5.936 9.502-11.112 16.18-1.066 1.375-3.715 6.054-5.889 10.397-2.554 5.106-5.819 9.701-9.237 13-6.379 6.157-6.478 6.28-21.09 26.04-1.195 1.616-3.228 3.866-4.52 5-1.291 1.135-3.258 3.863-4.372 6.063-2.325 4.595-10.785 16.837-11.979 17.333-.441.184-.807.859-.815 1.5-.008.642-1.808 3.156-4 5.587-2.192 2.431-3.986 4.761-3.986 5.178 0 .418-.664 1.423-1.475 2.234-1.302 1.302-3.813 5.238-11.025 17.277-1.1 1.836-3.323 4.813-4.939 6.615-1.617 1.802-6.011 7.101-9.765 11.776-3.754 4.675-7.773 9.612-8.932 10.972-1.16 1.359-2.811 3.947-3.671 5.75-.86 1.803-1.875 3.278-2.257 3.278-.381 0-1.246 1.335-1.922 2.967-.676 1.631-1.968 3.233-2.872 3.558-2.099.755-13.252 13.856-14.758 17.335-.628 1.452-3.51 4.89-6.404 7.64-2.895 2.75-6.084 5.9-7.088 7-3.033 3.322-9.114 11.755-7.965 11.045 3.053-1.887.203 1.39-7.541 8.668-1.587 1.492-5.361 5.498-8.386 8.901-3.025 3.404-10.675 11.433-17 17.842-6.325 6.41-12.2 12.529-13.055 13.599-.855 1.07-6.48 6.604-12.5 12.298s-12.899 12.669-15.288 15.5c-2.388 2.831-7.175 8.072-10.637 11.647-3.461 3.575-9.305 10.55-12.985 15.5-3.681 4.95-7.107 9.15-7.614 9.333-.506.184-.921.934-.921 1.667s-.375 1.483-.833 1.667c-.458.183-2.514 3.356-4.568 7.05-6.251 11.244-16.566 21.14-16.614 15.939-.01-1.041-.288-1.247-.75-.554-.404.606-2.406 1.887-4.448 2.847-2.043.959-3.965 2.535-4.271 3.502-.732 2.306-9.196 10.143-13.016 12.051-3.366 1.681-5.569 4.077-4.837 5.262.267.432.034.662-.518.511-.552-.151-1.643.583-2.425 1.631-.782 1.048-2.501 1.994-3.821 2.102-1.713.139-2.336.738-2.178 2.093.121 1.045-.029 1.337-.333.649-.895-2.017-3.949-1.437-5.269 1-.671 1.237-3.021 3.534-5.223 5.103-2.468 1.759-3.869 3.485-3.655 4.5.355 1.679-2.346 4.018-7.741 6.702-1.65.821-7.669 6.095-13.375 11.719A65392.51 65392.51 0 0 0 204.23 1268c-.837.825-3.031 2.784-4.876 4.354-1.845 1.569-3.354 3.482-3.354 4.25 0 .768-.525 1.396-1.167 1.396-.641 0-.898.268-.57.596.327.328-.99 2.015-2.929 3.75-1.938 1.735-9.599 9.117-17.025 16.404-7.425 7.288-13.939 13.25-14.476 13.25-.537 0-1.651.675-2.476 1.5s-1.208 1.5-.852 1.5c.357 0-.849 1.238-2.678 2.75-1.83 1.513-3.455 3.021-3.611 3.352-.542 1.148-10.056 10.898-10.634 10.898-1.027 0-14.059 11.985-14.108 12.974-.06 1.201-2.088 3.765-3.65 4.615-2.772 1.507-11.904 9.518-18.306 16.059-4.471 4.567-7.175 6.466-10.518 7.385-2.475.681-3.825 1.438-3 1.682 4.554 1.346 4.584 1.372 2.742 2.406-.967.543-2.204.711-2.75.374-1.703-1.052-1.087.41 1.089 2.586 1.909 1.909 1.95 2.227.5 3.829-.869.961-1.581 2.275-1.581 2.919 0 1.429-1.252 1.519-2.586.185-.647-.647-.985-.33-.985.927 0 1.052.423 1.651.94 1.331.524-.324.606-.041.185.641-.416.673-2.173 1.147-3.905 1.054-5.476-.295-10.004.011-9.382.633.33.33 2.205.6 4.166.6 1.962 0 3.567.405 3.567.9s-1.35.9-3 .9-3 .436-3 .969c0 .532.592.741 1.315.464.723-.278 2.529.62 4.013 1.995 1.691 1.567 3.316 2.262 4.358 1.862 1.277-.49 1.506-.231.988 1.118-.371.966-.674 1.944-.674 2.174 0 .23-.691.418-1.535.418-1.225 0-1.319.404-.465 2 .943 1.761.76 2-1.524 2-1.706 0-2.35-.395-1.881-1.155.443-.715.275-.883-.44-.44-.635.392-1.155 1.613-1.155 2.713s.403 1.751.895 1.447c1.412-.873 1.812 7.409.451 9.351-1.017 1.453-.861 2.055.934 3.592 1.408 1.205 1.734 1.987.938 2.253-2.056.685-1.351 2.237 1.032 2.269 2.102.029 2.127.102.38 1.117-1.51.877-1.606 1.254-.5 1.955 1.077.682.996.871-.38.883-1.987.017-2.014.176-.859 5.145.772 3.318.442 4.221-3.839 10.499-2.575 3.778-5.553 7.03-6.617 7.228-1.064.197-2.497.815-3.185 1.373-1.325 1.076-1.775 8.853-.5 8.652 2.578-.408 4.042.314 3.791 1.868-.391 2.427.54 3.737 1.524 2.144.495-.8.792.368.756 2.971-.037 2.719-.574 4.487-1.465 4.829-1.146.439-1.171.823-.139 2.067 1.094 1.318.926 1.441-1.225.892-1.371-.349-1.929-.376-1.242-.06 1.787.82 1.552 2.737-.25 2.045-.914-.35-1.5-.001-1.5.893 0 .808-.45 1.469-1 1.469s-1 .675-1 1.5.563 1.507 1.25 1.515c.954.012.967.196.053.777-.736.467-.868 1.294-.343 2.144.47.76.661 1.889.423 2.508-.238.62.479 2.104 1.592 3.299 2.074 2.226 2.713 3.801 1.152 2.836-.484-.3-.719 4.235-.527 10.191.476 14.742.427 14.23 1.355 14.23.457 0 1.07.624 1.363 1.387.374.973-.042 1.236-1.393.883-1.452-.38-1.925.016-1.925 1.613 0 1.165-.477 2.117-1.059 2.117s-.805.412-.494.915c.311.503.126 1.065-.412 1.25-.537.184-1.14 1.235-1.338 2.335-.199 1.1-.903 3.907-1.564 6.237-.678 2.386-1.041 7.892-.833 12.604.277 6.264-.105 9.848-1.52 14.263-1.04 3.243-2.155 8.047-2.478 10.675-.323 2.629-.973 5.018-1.445 5.309-1.625 1.005-.848 3.353 2.293 6.93l3.15 3.588-.805 11.697c-.442 6.433-.826 13.354-.853 15.38-.027 2.039-.47 3.423-.991 3.101-.559-.345-.672.498-.278 2.067.394 1.567.249 2.649-.354 2.649-.56 0-1.019 1.151-1.019 2.557 0 3.371-2.034 11.617-3.249 13.171-.95 1.216-.46 11.361.69 14.294 1.137 2.895 4.92 4.197 14.968 5.152 5.55.527 15.266 1.859 21.591 2.961 6.325 1.101 22.3 2.625 35.5 3.386 13.2.761 34.125 2.142 46.5 3.069 24.077 1.805 30.127 1.454 43.5-2.519 4.777-1.42 9.023-1.737 20.832-1.559 11.782.178 14.94-.057 15.357-1.144.289-.752 1.073-1.368 1.744-1.368.67 0 2.275-1.125 3.567-2.5 1.292-1.375 2.972-2.5 3.733-2.5.762 0 1.12-.429.796-.954-.792-1.281 11.498-1.765 18.471-.728 3.025.451 12.7.581 21.5.289 36.066-1.193 50.015-.727 69.5 2.323 3.575.56 13.925 1.021 23 1.024 10.649.004 19.514.56 25 1.57 9.021 1.659 41.93 2.137 63.5.923 10.656-.601 54.288 2.15 72.5 4.57 4.125.549 12.225 1.037 18 1.087 5.775.049 14.55.492 19.5.983 4.95.491 15.75 1.572 24 2.4 38.768 3.896 46.69 4.5 71 5.413 14.3.538 27.575.729 29.5.426 2.956-.467 18.043-.741 85.5-1.551 27.563-.331 55.059.198 58 1.116 2.808.877 2.681.949-2 1.123-4.065.151-4.533.335-2.5.986 1.375.44 4.724.845 7.441.9 4.55.092 4.788-.016 3-1.368-1.832-1.386-1.745-1.479 1.559-1.659 10.209-.555 21.775 1.17 23.201 3.46.957 1.538 48.363 2.273 50.165.778 1.12-.93 10.752-.94 18.634-.02 3.494.408 17.938-1.117 20.766-2.192 1.29-.49 5.132-1.091 8.539-1.334 3.407-.244 10.245-1.181 15.195-2.084 9.712-1.77 25.403-1.589 35.5.41 7.154 1.416 33.403 2.577 35.713 1.58.983-.425 10.112-.909 20.287-1.077 29.075-.479 41.105-1.107 46.5-2.427 20.402-4.99 24.931-7.416 27.508-14.735 2.201-6.247 3.474-13.375 2.335-13.065-.464.126-1.805-.099-2.981-.501-1.87-.638-2.037-1.173-1.337-4.277.44-1.951 1.057-3.805 1.372-4.119 1.157-1.158-2.975-3.135-5.397-2.582-2.051.468-2.275.331-1.25-.759 1.811-1.925 1.533-3.262-.5-2.406-2.534 1.066-12.25 3.368-12.25 2.901 0-.217 2.588-1.74 5.75-3.384 6.73-3.499 9.422-5.48 9.075-6.678-.137-.474.28-1.815.927-2.981.648-1.165.862-2.434.476-2.82-.665-.665-1.358-10.162-1.135-15.561.124-3.002.173-9.727.091-12.5-.032-1.1-.061-3.8-.064-6-.004-2.2-.07-5.35-.148-7-.078-1.65.099-7.031.393-11.958.294-4.926.121-9.457-.386-10.068-.586-.706-.202-2.453 1.055-4.798 1.582-2.953 1.744-4.058.813-5.549-.701-1.123-.835-2.609-.337-3.745.454-1.035.952-5.932 1.106-10.882.316-10.189 1.021-15.805 2.295-18.294.949-1.853 2.607-10.475 3.692-19.206.376-3.025.78-6.175.896-7 .117-.825-.369-3.162-1.079-5.194-1.169-3.343-1.132-3.645.394-3.181.927.282.561-.177-.814-1.02-2.149-1.319-2.231-1.539-.583-1.57 1.054-.019 1.62-.331 1.258-.693-.362-.362-.156-1.262.456-2 .859-1.035.715-1.342-.631-1.342-1.251 0-1.468-.354-.767-1.25 1.309-1.672 2.304-5.891 1.234-5.23-.465.288-.777-.386-.694-1.498.084-1.112.718-2.022 1.408-2.022 2.394 0 .072-3.099-2.743-3.662-1.546-.31-3.034-1.144-3.307-1.856-.272-.711-1.876-1.597-3.563-1.967-1.688-.371-3.125-.976-3.196-1.344-.66-3.468-.347-5.373 1.013-6.179 1.407-.832 1.424-1.08.139-1.922-1.265-.829-1.168-1.384.682-3.886 1.675-2.266 1.894-3.201.976-4.177-.91-.967-.907-1.358.012-1.697.656-.241.944-1.09.638-1.886-.378-.986-.073-1.262.956-.867.83.319 1.807.099 2.17-.489.363-.587.199-1.068-.364-1.068s-1.5-.89-2.082-1.977c-.889-1.661-.789-1.875.623-1.333 1.457.559 1.597.124 1.051-3.272-.353-2.2-.266-3.336.199-2.591.56.897 1.026.106 1.439-2.437.353-2.175.151-4.318-.479-5.077-.824-.992-.694-1.313.533-1.313.892 0 1.642-.562 1.666-1.25.433-12.338.535-12.969 2.306-14.264 1.784-1.305 1.785-1.449.032-4.417-.997-1.688-2.166-3.069-2.598-3.069-.431 0-.784-1.035-.784-2.299 0-1.696-.871-2.614-3.321-3.5-4.033-1.459-4.987-1.508-4.188-.216.369.598-.491.784-2.191.473-9.689-1.771-17.501-2.223-30.3-1.752-7.975.294-15.712.475-17.194.402-1.623-.079-3.101.569-3.719 1.63-.802 1.377-1.033 1.434-1.056.262-.025-1.276-2.685-1.501-17.78-1.508-9.763-.004-22.476-.568-28.251-1.254-5.775-.686-17.925-1.677-27-2.202-9.075-.525-18.075-1.162-20-1.415-4.359-.573-9.632-1.149-28-3.059-18.173-1.89-41.409-3.527-92.5-6.517-9.9-.58-29.475-1.729-43.5-2.554-29.763-1.752-76.27-3.99-114.5-5.51-14.85-.591-29.7-1.273-33-1.517-8.417-.622-45.244-1.417-90.5-1.953-21.175-.25-38.837-.468-39.25-.483-.413-.015-.75-.433-.75-.929 0-1.06 7.808-11.594 11.223-15.141 1.301-1.352 4.821-5.379 7.822-8.95 3-3.571 9.06-10.546 13.466-15.5 4.407-4.954 11.677-13.508 16.157-19.008s15.224-17.2 23.875-26c8.652-8.8 18.42-19.15 21.707-23 3.287-3.85 6.53-7.45 7.206-8 .676-.55 5.254-6.4 10.175-13 7.908-10.608 12.89-17.564 26.434-36.909 1.96-2.8 5.11-7.268 7-9.928 1.889-2.66 4.6-6.71 6.023-9s6.598-9.899 11.5-16.909 12.512-18.392 16.912-25.292c4.4-6.901 10.247-15.566 12.993-19.255 2.746-3.689 6.571-9.005 8.5-11.813 1.929-2.809 4.976-6.859 6.772-9 2.781-3.317 6.643-8.726 16.008-22.42 3.114-4.553 16.584-23.413 18.679-26.153a456.136 456.136 0 0 1 4.922-6.274c1.581-1.977 5.288-6.959 8.238-11.07 2.95-4.111 7.281-9.916 9.625-12.899 2.345-2.984 5.613-7.372 7.262-9.752 14.555-20.997 22.497-32.605 27.248-39.826 3.075-4.675 6.566-9.625 7.757-11 1.191-1.375 4.709-6.588 7.816-11.585 5.163-8.301 12.465-17.494 24.614-30.987 2.511-2.789 6.366-7.263 8.566-9.941 2.2-2.679 6.475-7.679 9.5-11.111 6.715-7.619 11.141-13.368 22.073-28.677 9.323-13.056 11.648-16.283 20.679-28.699 3.401-4.675 8.455-11.65 11.233-15.5 2.778-3.85 7.334-10.15 10.126-14 2.791-3.85 7.621-10.774 10.732-15.388 10.626-15.754 12.662-18.668 18.958-27.137 3.465-4.661 7.065-9.53 8-10.82.934-1.29 4.624-6.28 8.199-11.09 7.379-9.927 10.075-13.663 17.007-23.565 2.695-3.85 5.483-7.664 6.197-8.475.713-.812 4.84-6.887 9.171-13.5 4.331-6.614 8.269-12.175 8.75-12.358.481-.184.875-.859.876-1.5 0-1.145 4.525-8.925 14.824-25.49 2.846-4.578 5.175-8.48 5.175-8.671 0-.191 2.179-3.871 4.843-8.177 2.664-4.306 6.923-11.686 9.465-16.4 2.543-4.714 6.101-11.058 7.907-14.097 1.807-3.04 10.604-20.108 19.55-37.929 16.486-32.846 17.113-34.477 18.675-48.631.364-3.291 3.921-8.442 9.467-13.709 3.552-3.373 3.973-2.518 1.089 2.211-2.592 4.251-2.762 7.907-.186 4.001.988-1.498 3.91-4.371 6.493-6.383 4.976-3.877 5.911-5.511 2.811-4.914-1.395.269-1.764-.1-1.42-1.418.645-2.463 13.879-18.761 16.277-20.045 1.075-.575 1.716-1.668 1.424-2.429-.292-.761-.051-1.681.537-2.044 1.763-1.09 1.207-4.397-.932-5.542-1.17-.626-2-2.094-2-3.535 0-1.44-.579-2.465-1.393-2.465-2.938 0-2.752-3.358.346-6.254 3.523-3.292 3.896-4.271 1.047-2.746-1.1.589-2.037.942-2.083.785-.665-2.274-.303-5.049.774-5.944 1.142-.947 1.124-1.388-.108-2.749-1.888-2.087-3.279-8.551-2.869-13.342.284-3.321.061-3.752-1.947-3.765-1.281-.009-1.798-.335-1.189-.75.593-.404 1.787-2.179 2.653-3.944 1.513-3.082 1.478-3.313-.883-5.861-2.29-2.471-2.346-2.774-.824-4.457 1.874-2.07 2.657-6.743 1.273-7.598-.513-.318-.67-1.264-.348-2.103.322-.839.073-2.143-.554-2.899-.745-.897-.806-1.807-.178-2.623 1.367-1.776 1.323-9.103-.059-9.983-.852-.541-.829-.74.086-.752.852-.01 1.094-1.182.77-3.716-.329-2.566.133-4.731 1.506-7.057 2.188-3.708 2.449-4.65 1.049-3.785-1.426.882-2.444-1.482-1.182-2.744 1.541-1.541 1.394-2.758-.256-2.125-1.821.699-2.765-3.105-1.558-6.279.518-1.362.66-2.932.316-3.488-.344-.557-.053-2.08.646-3.387.907-1.694.999-3.314.321-5.654-.722-2.489-.578-3.941.596-6.024.852-1.509 1.912-2.746 2.357-2.75.445-.003.487-.527.094-1.163-.393-.637-.659-2.662-.59-4.5.072-1.916-.362-3.343-1.018-3.343-.629 0-.087-1.125 1.205-2.5s1.916-2.5 1.387-2.5c-.529 0-1.034-1.8-1.122-4-.115-2.897.24-4 1.288-4 1.501 0 2.003-3.111.71-4.404-1.101-1.101-.914-3.936.348-5.279.612-.65 1.42-3.112 1.797-5.47.378-2.358 1.044-4.526 1.482-4.817 1.71-1.139 2.053-6.832.49-8.13-1.358-1.127-1.277-1.469.7-2.961l2.236-1.686-2.158-3.031c-1.187-1.667-2.158-3.55-2.158-4.185 0-.635-.45-.877-1-.537-.55.34-1 .127-1-.472 0-.6.637-1.335 1.415-1.634 1.879-.721 1.106-7.464-1.04-9.077-.867-.651-1.279-1.664-.916-2.25.362-.587.182-1.067-.4-1.067-.582 0-1.059-.661-1.059-1.468 0-.807-1.183-2.088-2.629-2.846l-2.629-1.377 4.085-1.037c2.971-.754 4.197-.728 4.498.096.227.622.74-.954 1.14-3.504.44-2.804.308-5.419-.333-6.618-.584-1.091-.822-2.223-.528-2.517.293-.293-1.635-.427-4.285-.297-6.356.312-9.319-.337-9.319-2.04 0-.766-.874-1.392-1.943-1.392s-2.668-1.013-3.552-2.25l-1.609-2.25-1.893 2.293c-1.676 2.029-2.158 2.144-4.198 1-1.268-.711-3.095-1.928-4.061-2.704-.966-.775-2.006-1.161-2.31-.856-.305.305-2.754-.026-5.442-.735-4.289-1.132-8.409-1.764-20.492-3.144-1.65-.188-9.062-.596-16.471-.907-11.583-.485-13.633-.342-14.631 1.024-.891 1.218-1.277 1.286-1.659.291-.338-.881-2.379-1.254-6.368-1.163-3.229.074-24.996.473-48.371.887-23.375.415-42.95 1.075-43.5 1.468-.55.392-7.3.62-15 .505-28.453-.422-65.428-.371-80 .111-25.645.848-53.5.963-53.5.22 0-.39 1.913-1.227 4.25-1.86 6.028-1.631 8.75-3.062 8.75-4.599 0-1.558 1.295-1.489-25.534-1.36l-21.035.102-.171-2.267c-.094-1.247-.955-2.841-1.913-3.542-2.391-1.748-2.089-7.328.635-11.734 1.554-2.515 1.759-3.368.713-2.967-3.444 1.322 1.214-12.885 5.195-15.843.902-.671 2.196-2.478 2.875-4.016.679-1.538 2.582-3.563 4.228-4.5 1.647-.937 2.997-2.465 3.001-3.395.003-.93.456-1.969 1.006-2.309.552-.341 1 .379 1 1.608 0 1.224.254 1.971.564 1.661.909-.909-.694-7.806-1.674-7.201-1.375.85-1.043-1.751.634-4.967.831-1.594 1.295-3.116 1.029-3.381-.265-.266.177-1.424.982-2.574 1.806-2.578 1.93-4.268.182-2.467-2.922 3.01-5.401 7.419-4.96 8.821.275.874-.188.665-1.11-.5-.889-1.123-1.597-1.452-1.615-.75-.018.688-.77 1.25-1.672 1.25-.902 0-2.241.787-2.977 1.75-2.325 3.044-.407-7.798 1.984-11.215 2.914-4.163 3.135-6.517.565-6.022-1.696.327-1.923.024-1.36-1.81.372-1.212.332-1.877-.088-1.479-.845.799-6.484-2.192-6.484-3.44 0-.431-.653-.784-1.45-.784-.798 0-1.87-.749-2.383-1.665-.857-1.533-1.125-1.513-3.366.25-2.695 2.12-2.62 2.007-3.446 5.165-.323 1.237-1.224 2.25-2.001 2.25-1.075 0-.873-.94.842-3.919 1.241-2.156 2.674-3.662 3.184-3.346.511.316.608.054.215-.58-.978-1.583-2.159-1.448-4.071.464-2.309 2.309-3.1.909-1.159-2.053 2.063-3.148 2.068-4.961.02-6.661-1.386-1.15-1.891-.998-3.569 1.074-1.614 1.993-2.115 2.162-2.87.968-.504-.796-.937-.997-.962-.447-.084 1.78-2.822 4.718-3.822 4.1-.587-.363-.195-2.64.996-5.774 1.66-4.369 1.715-4.966.353-3.835-1.389 1.153-1.69 1.039-2.178-.827-.312-1.19-.915-2.164-1.341-2.164-.426 0-1.035-1.035-1.353-2.301-.459-1.83-1.3-2.321-4.11-2.401-1.943-.055-3.784.305-4.09.801-.306.496-1.483.901-2.615.901-2.099 0-2.135-.792-.25-5.5.716-1.79.62-1.853-.911-.607-.941.765-1.993 1.11-2.338.765-.345-.345-1.235.154-1.979 1.108-1.28 1.642-1.319 1.642-.741-.016.377-1.085.112-1.75-.698-1.75-1.017 0-1.04-.267-.107-1.2 1.484-1.484 1.57-3.8.141-3.8-.582 0-.838.358-.567.796.27.437-.716.72-2.191.628-3.576-.222-3.554-.196-1.754-1.995 1.842-1.843 1.904-2.415.48-4.429-.799-1.129-1.187-1.191-1.568-.25-.279.688-1.01 1.25-1.624 1.25-.776 0-.751-.366.083-1.2 2.367-2.367 1.394-3.989-2.11-3.517-2.77.373-3.557.014-4.83-2.204-.836-1.457-1.451-3.6-1.365-4.762.121-1.639-.758-2.413-3.92-3.453-4.676-1.538-10.222-6.387-9.766-8.539.235-1.107-.127-1.234-1.5-.527-2.775 1.429-4.394.388-3.699-2.381.336-1.339.165-2.417-.385-2.417-.545 0-1.227-.899-1.514-1.997-.287-1.099-1.577-2.42-2.867-2.937-1.289-.517-1.965-.968-1.502-1.003.463-.034-1.337-2.125-4-4.646a1167.299 1167.299 0 0 1-9.89-9.5c-3.522-3.43-5.866-4.917-7.75-4.917-2.856 0-3.403-.899-1.626-2.676.767-.767.18-1.388-2.052-2.166-1.72-.599-3.055-1.668-2.967-2.374.213-1.707-1.124-5.769-1.924-5.843-6.599-.615-9.248-.449-12.341.775l-3.708 1.467-6.521-6.841c-3.587-3.763-6.531-7.212-6.542-7.663-.059-2.317-3.484-3.917-8.651-4.044l-5.544-.135.522-3.237c.375-2.328.071-3.489-1.084-4.135-.883-.494-2.317-2.413-3.188-4.263-1.804-3.835-5.359-4.819-10.184-2.82-1.923.796-3.313.868-4.143.215-1.999-1.575-6.569-2.36-7.257-1.247m177.745 140.15c-.68.68-1.237 1.877-1.237 2.659 0 1.151.286 1.185 1.5.178 1.118-.928 1.5-.944 1.5-.063 0 .649.498.873 1.107.497.676-.418.734-.927.15-1.309-.527-.344-1.143-1.204-1.37-1.912-.327-1.024-.666-1.034-1.65-.05m9.798 9.771c-1.275 2.383-1.33 4.066-.133 4.066.496 0 1.373-1.35 1.948-3 1.166-3.344-.175-4.131-1.815-1.066m-5.311 9.818c-.948 1.048-1.724 2.367-1.724 2.931 0 .564-1.125 2.239-2.5 3.722-2.39 2.58-3.337 5.603-1.75 5.588.699-.006 2.434-2.433 6.651-9.304 2.135-3.48 1.665-5.524-.677-2.937m282.733 65.191c-.56.56-4.154 1.42-7.987 1.911l-6.97.893 8 .245c4.4.135 8.45.141 9 .014.55-.127 3.025-.338 5.5-.468s5.737-.304 7.25-.387c1.513-.083 2.75-.603 2.75-1.155 0-.615-3.094-.883-7.98-.69-4.389.174-8.107-.066-8.262-.533-.156-.466-.741-.39-1.301.17m18.821 1.375c.426 1.263 7.609 1.106 12.492-.273 1.905-.538.37-.792-5.081-.84-5.59-.049-7.697.267-7.411 1.113m15.889.183c.774.774 8.754.911 9.502.163.366-.365-1.736-.664-4.669-.664s-5.108.225-4.833.501m32.842 277.988c-.68.819-1.56 1.289-1.956 1.044-.396-.245-.72.21-.72 1.011 0 2.083.903 1.755 2.964-1.075 1.945-2.673 1.729-3.41-.288-.98m-5.711 1.737c-2.268 2.929-2.408 4.116-.241 2.052 1.282-1.222 2.084-2.471 1.78-2.774-.304-.304-.996.021-1.539.722M795.5 528.074c-5.86 1.762-13.253 2.297-38.45 2.782-5.678.11-7.172.422-6.283 1.311.815.815 7.796 1.183 23.15 1.221 21.852.054 21.998.04 24.533-2.341 4.161-3.909 3.242-4.835-2.95-2.973m-479.952 5.052c-1.447 1.719-2.387 3.369-2.089 3.666.298.298.655.354.794.125.14-.229 1.278-1.879 2.53-3.667 2.894-4.131 2.195-4.201-1.235-.124m748.192 80.414c-1.507 1.398-2.74 3.257-2.74 4.132 0 .876-.951 3.131-2.114 5.013-1.163 1.881-1.894 3.641-1.624 3.91.27.27 1.435-.991 2.591-2.802l3.374-5.289c.7-1.097 2.091-3.235 3.091-4.75 2.277-3.449 1.023-3.553-2.578-.214m-669.883 52.71c-1.617 2.306-1.766 2.838-.513 1.832 1.782-1.431 4.124-5.082 3.259-5.082-.257 0-1.492 1.462-2.746 3.25m-199.184 43.569c-1.486 1.551-2.395 3.126-2.02 3.5.374.375.23.681-.32.681s-1 .677-1 1.504c0 1.29.258 1.271 1.81-.133.995-.901 1.588-1.997 1.317-2.436-.271-.438-.038-1.078.518-1.422 1.025-.633 3.384-4.513 2.744-4.513-.191 0-1.563 1.269-3.049 2.819m16.923 9.792c-.453 1.18-.192 1.448.974 1 .877-.336 1.782-.611 2.012-.611.23 0 .418-.45.418-1 0-1.629-2.733-1.138-3.404.611m41.436 32.139c.03 2.634.094 2.668 1.5.809 1.871-2.474 1.861-3.559-.032-3.559-.977 0-1.489.958-1.468 2.75M86 1384c0 .55.648 1 1.441 1s1.719-.45 2.059-1c.34-.55-.309-1-1.441-1-1.132 0-2.059.45-2.059 1m1078 3.883c0 1.015 4.153 2.298 4.927 1.523.647-.647-2.004-2.37-3.677-2.391-.687-.008-1.25.383-1.25.868M83.149 1411.604c-1.778 2.011-.857 2.791 2.346 1.987 2.278-.572 2.412-.827 1.118-2.121-1.777-1.776-1.775-1.777-3.464.134m35.993 190.146c-.615 1.157-.534 2.114.236 2.826 1.505 1.39 3.622.678 3.622-1.218 0-.861.481-1.179 1.155-.763.731.453.882.274.41-.489-.575-.931-1.067-.934-2.177-.013-1.164.966-1.315.881-.804-.452.845-2.201-1.266-2.107-2.442.109m1010.038 28.474c-3.476.533-6.111 1.179-5.855 1.435.516.515 16.924-1.575 17.59-2.241.639-.639-4.706-.272-11.735.806m-3.719 4.712c.361.585 2.28 1.064 4.265 1.064 4.413 0 4.032-.507-1.074-1.431-2.621-.474-3.639-.357-3.191.367m12.039 4.511c-3.85.697-11.275 1.629-16.5 2.071-5.225.443-10.625.921-12 1.062-1.375.142-5.763.294-9.75.339-4.004.045-7.25.519-7.25 1.059 0 .955 22.802.615 35-.52 6.569-.612 18.117-3.326 19.45-4.571 1.202-1.122-.103-1.041-8.95.56m-2 13.153-6 1.343 5.259-.507c2.893-.279 6.268-.913 7.5-1.408 3.116-1.253.344-1.019-6.759.572m-13.738 2.107c1.244.239 3.044.23 4-.02s-.062-.446-2.262-.435c-2.2.011-2.982.216-1.738.455" fill-rule="evenodd"/></svg>