<svg xmlns="http://www.w3.org/2000/svg" width="1240" height="1753"><path d="M709 54.044c-4.125.413-18.075.765-31 .782-30.811.041-31.986.06-35.5.587-1.65.247-5.538.48-8.639.518-4.705.058-5.616.355-5.5 1.796.11 1.368-1.001 1.871-5.351 2.42-3.781.477-5.723.329-6.235-.477-.67-1.053-1.159-.261-.922 1.493.112.835-23.637 1.089-24.968.266-.614-.38-.52-1.164.252-2.094.99-1.192.95-1.669-.201-2.401-.79-.502-1.908-.741-2.485-.532-.578.21-4.178.05-8-.355-3.823-.405-7.851-.387-8.951.039-1.1.427-3.237 1.04-4.75 1.364-1.513.323-2.75 1.255-2.75 2.069 0 .859-.945 1.496-2.25 1.516-1.237.02-5.484.287-9.437.594-5.77.448-7.773.212-10.157-1.196-1.708-1.009-2.752-2.323-2.456-3.094.386-1.006-.819-1.377-4.843-1.491-6.772-.193-7.096-.237-8.607-1.183-.687-.431-1.25-.381-1.25.109 0 .491-1.237.934-2.75.983-14.202.47-47.317 3.208-48.876 4.043-1.089.582-4.796 1.307-8.239 1.609-7.033.618-8.135 1.055-8.135 3.227 0 .835-1.365 2.883-3.033 4.55-1.968 1.969-2.835 3.656-2.469 4.807.403 1.271-.095 1.94-1.753 2.356-1.274.32-2.401 1.385-2.505 2.366-.104.982-.435 5.61-.736 10.285-.3 4.675-1.243 10.275-2.094 12.444-1.118 2.847-1.63 8.47-1.84 20.229-.178 9.933-.72 16.803-1.39 17.61-.604.728-1.768 7.698-2.587 15.488-.818 7.79-1.927 14.984-2.463 15.985-1.696 3.17-5.188 18.584-5.038 22.237.257 6.213-1.163 32.319-2.093 38.507-3.479 23.129-3.453 21.738-.523 28.267 2.362 5.264 2.556 6.453 1.611 9.859-2.383 8.581-.016 24.116 4.141 27.181 1.976 1.457 2.403 5.816.629 6.407-.851.284-.856.919-.022 2.478.617 1.153 1.772 6.082 2.566 10.952.794 4.871 1.786 9.756 2.204 10.856 1.663 4.375 5.155 7.853 10.395 10.352 5.424 2.587 5.785 2.621 26 2.464 11.275-.087 26.125-.699 33-1.358 18.68-1.793 78.577-1.524 87.5.393 6.11 1.312 21.88 3.082 17.25 1.936-.962-.239-1.75-.851-1.75-1.36 0-.51 4.388-.941 9.75-.958 22.897-.074 34.879-.617 36.766-1.667 1.395-.776 4.322-.855 9.5-.256 4.116.476 12.521.886 18.677.91 9.972.039 11.344.259 12.573 2.013 1.297 1.852 1.517 1.871 3.722.327 1.754-1.228 2.135-1.283 1.517-.219-.455.783.287.411 1.648-.827 1.362-1.238 3.43-2.25 4.596-2.25 1.167 0 3.388-.49 4.936-1.089 3.107-1.202 3.791-1.359 10.315-2.378 8.912-1.391 16.625-3.623 23.5-6.799 3.85-1.779 7.225-3.521 7.5-3.872.275-.35 2.143-1.321 4.151-2.157 2.008-.836 4.258-2.657 5-4.046 4.032-7.549 9.289-16.202 10.022-16.494.462-.185.583-.751.269-1.258-.313-.507.134-1.626.994-2.486.86-.86 1.567-3.219 1.57-5.242.004-2.024.683-4.977 1.511-6.564 1.17-2.245 1.242-3.201.32-4.311-.948-1.143-.639-1.933 1.557-3.969 1.988-1.843 2.695-3.406 2.572-5.688-.26-4.851-.07-5.647 1.351-5.647.816 0 1.992-2.863 3.09-7.518.975-4.135 2.313-8.073 2.973-8.75 1.825-1.871 4.62-6.078 4.62-6.955 0-.427-.845-.777-1.878-.777-2.052 0-4.789-2.667-3.776-3.68.348-.347 2.324-.941 4.393-1.32l3.761-.688-2.614-1.079c-4.528-1.871-4.258-6.233.386-6.233 1.672 0 1.804-.561 1.238-5.25-.348-2.887-.818-15.6-1.044-28.25-.526-29.431-1.805-44.002-4.481-51.039-.542-1.425-.985-4.11-.985-5.967 0-1.857-.4-3.623-.89-3.926-.489-.302-1.095-2.016-1.347-3.809-.252-1.792-.8-4.046-1.218-5.009-.61-1.407-.26-1.75 1.789-1.75 2.998 0 4.042-1.356 4.327-5.619.164-2.459-.317-3.359-2.273-4.25-1.365-.622-3.162-1.131-3.994-1.131-.832 0-1.234-.45-.894-1 .34-.55 1.436-1 2.437-1 2.4 0 4.255-2.335 3.473-4.373-.9-2.348-6.31-2.07-9.005.462-1.98 1.86-2.948 2.012-8.814 1.384-3.625-.388-6.591-1.059-6.591-1.49 0-.431 1.653-1.175 3.673-1.653 3.485-.824 5.89-3.186 3.126-3.07-5.546.234-6.933-.294-6.595-2.51.219-1.437.877-2.088 1.82-1.802.812.246 3.164.369 5.226.273 2.063-.096 3.75.168 3.75.586 0 1.404 5.778 4.193 8.654 4.178 7.02-.038 6.882-3.78-.259-7.033-3.424-1.56-4.329-2.375-3.326-2.995.844-.521 1.673-.388 2.139.346.5.786.767.532.777-.737.02-2.53-3.884-10.566-5.133-10.566-.534 0-.692-.45-.352-1 .34-.55-.032-1-.827-1-.795 0-2.226-1.687-3.181-3.75-2.043-4.417-6.317-9.25-8.179-9.25-.722 0-1.201-.496-1.063-1.102.137-.606-1.985-1.686-4.717-2.4-2.732-.715-5.132-1.794-5.333-2.398-.202-.605-.765-1.1-1.252-1.1s-.626.675-.31 1.5c.365.95-.013 1.5-1.031 1.5-.884 0-1.607-.45-1.607-1s-.675-1-1.5-1-1.5-.461-1.5-1.025c0-1.327-3.793-2.746-9.203-3.443-2.363-.304-6.097-.987-8.297-1.519-4.521-1.091-14.41-1.079-25.5.031m-39.523 9.993c-.429.694 1.119.836 4.679.429 6.973-.797 7.461-1.466 1.07-1.466-2.81 0-5.396.467-5.749 1.037M761 73.487c0 .719 7.233 3.614 7.746 3.1.242-.242-.93-1.148-2.603-2.013-3.03-1.567-5.143-2.014-5.143-1.087m1 3.946c0 1.563 4.331 4.654 5.755 4.108 1.383-.531 1.407-.798.173-1.97-1.556-1.477-5.928-3.055-5.928-2.138m1.861 10.6c3.411 2.842 6.652 2.468 5.463-.631-.329-.857-1.953-1.389-4.181-1.369l-3.643.034 2.361 1.966m9.348 3.112c.267.81 2.224 1.459 4.869 1.614 4.918.288 3.782-1.025-1.946-2.25-2.61-.558-3.268-.414-2.923.636M365.816 426.518c-.24.239-12.784.659-27.876.932-30.985.561-45.269 1.231-55.44 2.599-3.85.518-16 1.162-27 1.432-11 .271-22.7.704-26 .964-3.3.26-18.825 1.408-34.5 2.551-41.345 3.014-40.765 2.949-41.409 4.627-.32.834-.136 1.214.42.87.544-.336.996-.022 1.004.698.011.951.281.899.985-.191.862-1.333.973-1.333 1 0 .027 1.333.138 1.333 1 0 .588-.909.975-1.029.985-.305.009.764 1.732 1.181 4.765 1.154 16.579-.147 16.137.812-.78 1.692-6.858.357-13.82.879-15.47 1.16-1.65.281-5.025.685-7.5.898-9.296.8-14.564 2.817-11.806 4.521.85.525.951 1.127.298 1.766-1.205 1.178-19.385 3.298-20.797 2.426-.568-.352-.695-.12-.29.533.975 1.579-13.413 1.564-16.884-.017-2.983-1.36-2.829-3.186.307-3.648 1.195-.175 2.172-.738 2.172-1.25 0-.511.477-.93 1.059-.93s.781.45.441 1-.141 1 .441 1S96 450.523 96 449.941s.419-.8.931-.484c.512.317 1.213.118 1.559-.441.345-.559.039-1.034-.681-1.056-7.68-.233-12.29-.904-12.6-1.834-.485-1.455-3.209-1.471-3.209-.019 0 .609-.698.839-1.552.511-.954-.366-1.297-.183-.891.475.391.632-.1.989-1.198.873-3.606-.381-4.989.119-2.859 1.034 1.836.789 1.795.866-.5.945-1.375.047-2.983.416-3.573.82-1.649 1.13-2.461 4.096-1.315 4.804.563.348.804 1.208.534 1.91-.269.703.034 1.801.674 2.441 1.332 1.332-.609 3.038-3.488 3.065-3.982.036-4.6.986-4.289 6.59.28 5.033.097 5.562-2.37 6.868-4.693 2.483-9.173 7.306-9.173 9.875 0 1.337-.652 4.277-1.448 6.534-1.154 3.273-1.235 5.375-.396 10.376 1.23 7.333.478 33.115-1.646 56.47-1.677 18.44-2.017 28.505-1.118 33.076.438 2.223.238 3.432-.623 3.764-.81.312-1.309 2.643-1.378 6.436-.063 3.392-.749 6.932-1.596 8.237-1.346 2.073-1.306 2.477.429 4.287 1.22 1.274 1.744 2.891 1.443 4.461-.295 1.547.145 2.957 1.181 3.788 1.502 1.203 1.508 1.424.068 2.429-1.44 1.004-1.418 1.725.24 7.906 1.003 3.741 1.807 9.64 1.787 13.11-.088 14.84.098 18.565 1.151 23.074.612 2.621 1.899 5.321 2.861 6 3.179 2.245 5.375 7.715 4.164 10.373-.813 1.783-.775 2.369.152 2.393.731.019.525.566-.505 1.349-.954.724-1.556 1.497-1.337 1.718.218.22.047 2.314-.382 4.651-.428 2.337-.416 4.25.027 4.25.442 0 .719 1.903.615 4.23-.184 4.129-.088 4.265 4.061 5.719 5.25 1.84 5.447 3.046.5 3.066-5.219.022-6.769 1.146-5.318 3.858.626 1.17.907 2.127.623 2.127-.283 0 .297 1.452 1.289 3.227 1.307 2.341 3.019 3.599 6.229 4.579 4.456 1.361 28.353 3.252 30.671 2.427 1.961-.697.247-2.464-1.857-1.914-1.038.272-1.887.086-1.887-.413 0-.498 1.237-.873 2.75-.832 3.595.097 12.041 1.605 10.75 1.919-3.386.825 6.395 1.402 13.489.797 4.681-.4 19.067-.238 31.968.36 20.774.962 33.653.817 50.543-.57 22.38-1.836 159.041-3.008 172-1.474 9.469 1.121 36.894 1.812 93 2.345 22.55.214 42.771.62 44.936.901 2.165.281 6.215.836 9 1.232s6.189.854 7.564 1.018c1.375.163 6.1.754 10.5 1.313 29.902 3.798 58.042 4.827 85.517 3.127 8.516-.527 41.808-1.179 73.983-1.45 48.555-.409 58.811-.26 60.332.877 1.701 1.274 1.322 1.855-5.354 8.201-13.164 12.513-34.419 33.912-39.141 39.405-2.564 2.984-7.514 8.737-11 12.786-3.485 4.048-6.787 8.098-7.337 9-.55.901-2.913 4.42-5.25 7.818-2.337 3.399-4.25 6.569-4.25 7.045 0 1.601-9.604 11.276-11.193 11.276-1.869 0-9.807 7.686-9.807 9.495 0 .693-.695 1.837-1.546 2.543-.85.705-1.332 1.837-1.072 2.516.751 1.957-3.761 5.61-5.977 4.84-1.79-.623-1.785-.56.095 1.053 1.749 1.501 1.774 1.645.198 1.146-1.097-.347-1.552-.166-1.164.462.562.909-.812 3.098-6.517 10.382-3.853 4.919-20.77 22.299-23.655 24.302-1.774 1.232-3.803 3.838-4.509 5.79-1.071 2.964-1.971 3.724-5.445 4.598-4.086 1.029-7.321 4.107-8.819 8.392-.381 1.09-3.32 4.186-6.532 6.88-6.805 5.71-9.495 7.415-8.905 5.644.219-.656.836-1.272 1.372-1.368.536-.096 1.809-1.862 2.83-3.925 1.02-2.062 2.258-3.75 2.751-3.75.492 0 .895-.661.895-1.469 0-2.072-2.345-.927-3.558 1.738-.558 1.227-1.561 2.119-2.229 1.981-.667-.137-1.213.238-1.213.834 0 .597-3.506 4.534-7.792 8.75-4.286 4.217-10.248 10.54-13.25 14.052-7.341 8.589-8.599 9.963-22.458 24.533-6.6 6.938-12.17 13.17-12.377 13.848-.207.678-4.708 5.733-10.002 11.233-5.294 5.5-13.224 14.026-17.623 18.946-4.399 4.92-8.898 9.859-9.998 10.975-1.1 1.116-3.575 3.913-5.5 6.214-9.808 11.727-26.582 30.107-41.862 45.872-6.401 6.603-13.438 14.253-15.638 17-2.2 2.746-5.35 6.413-7 8.148-3.33 3.502-5.219 5.823-12.487 15.345-2.728 3.575-6.991 8.975-9.472 12-2.481 3.025-5.848 7.75-7.482 10.5-3.722 6.262-10.099 13.168-12.605 13.651-1.047.202-2.405 1.373-3.018 2.602-.613 1.229-1.412 1.938-1.775 1.574-.364-.363-.661-.087-.661.613s-2.137 3.373-4.75 5.938c-2.613 2.566-6.18 6.23-7.927 8.144-1.747 1.913-3.997 4.26-5 5.216-1.003.955-2.948 3.103-4.323 4.772-5.841 7.089-21.386 21.99-22.94 21.99-1.757 0-15.266 13.656-40.06 40.498-7.975 8.634-16.3 16.853-18.5 18.264-9.98 6.405-23.898 17.597-33.864 27.234-30.162 29.164-44.04 43.005-43.136 43.019.662.01.66.264-.006.75-.553.404-2.336 2.535-3.962 4.735-1.626 2.2-7.684 8.725-13.463 14.5-5.778 5.775-10.408 10.838-10.288 11.25.121.412-.375.75-1.101.75-1.974 0-5.668 4.689-6.339 8.047-.325 1.624-.985 2.953-1.466 2.953s-.875.637-.875 1.417c0 .779-.337 1.566-.75 1.75-.412.183-1.65 2.11-2.75 4.282-1.1 2.171-3.238 5.309-4.75 6.973-1.513 1.663-2.75 3.806-2.75 4.762 0 .957-2.052 3.851-4.56 6.431-2.623 2.699-4.12 4.965-3.524 5.333 1.239.766-3.238 7.588-6.916 10.54-1.375 1.104-3.4 2.913-4.5 4.02-4.34 4.368-5.924 5.005-3.088 1.242 1.554-2.063 3.27-3.75 3.814-3.75.543 0 .729-.675.412-1.5-.356-.93.005-1.5.952-1.5.841 0 1.25-.45.91-1-.351-.567.49-1 1.941-1 1.407 0 2.559-.45 2.559-1s-.45-1-1-1c-1.779 0-1.058-1.997.75-2.079 1.066-.048 1.257-.278.487-.587-.694-.28-2.719.679-4.5 2.13-8.941 7.29-12.026 9.534-13.082 9.517-.635-.01 2.077-3.048 6.026-6.75 8.722-8.175 9.698-8.983 15.148-12.539 3.827-2.497 4.235-3.124 3.679-5.656-.541-2.464-.079-3.286 3.433-6.109 2.233-1.794 4.059-3.676 4.059-4.183 0-.793-1.744.401-7.724 5.286-.672.55-2.247 1.46-3.5 2.022-3.747 1.684-10.351 5.913-9.276 5.941.55.014-1.239 1.11-3.977 2.435-2.737 1.325-5.303 2.208-5.703 1.961-.789-.488-2.746 1.007-9.16 6.995-3.784 3.533-8.94 7.347-13.796 10.205-1.017.598-2.759 2.136-3.87 3.418-1.111 1.281-2.802 2.397-3.757 2.479-.955.082-3.177.906-4.937 1.832-1.761.925-4.686 1.697-6.5 1.715-1.815.018-5.775.903-8.8 1.967-3.025 1.064-8.2 1.974-11.5 2.023-5.464.08-6.219.364-8.448 3.18-3.832 4.839-3.571 16.701.334 15.202.682-.261 2.099.474 3.149 1.634 1.05 1.16 1.472 2.022.937 1.917-2.191-.434-2.525.134-.986 1.673.933.933 1.35 2.321.976 3.25-.36.892-.912 2.257-1.228 3.035-.368.907-.154 1.155.596.691 1.708-1.056 1.455 1.913-.286 3.359-.801.664-1.879.947-2.395.628-1.136-.702-2.4 2.193-1.554 3.561.33.535-.213 1.872-1.207 2.971-1.441 1.592-1.541 2.164-.491 2.812.817.505 1.061 1.622.643 2.939-.371 1.169-.285 2.125.192 2.125 1.312 0 1.176 25.346-.14 26.25-.717.493-.749 1.007-.092 1.5 1.285.964 1.309 15.274.029 17.25-.535.825-1.063 3.75-1.174 6.5-.112 2.75-.438 7.832-.726 11.294-.288 3.462-.612 14.577-.721 24.699-.139 12.912-.546 18.538-1.362 18.851-1.534.589-1.241 12.924.32 13.445.624.208 1.134.817 1.134 1.353 0 .537-.458.693-1.019.346-.56-.346-1.667.865-2.46 2.691-.794 1.827-1.46 2.894-1.482 2.371-.024-.594-.399-.59-.999.01-.527.527-1.043 4.006-1.145 7.731-.103 3.724-.578 7.013-1.057 7.309-.479.296-.649.897-.378 1.335.271.439-.403 1.608-1.498 2.599-1.262 1.142-1.771 2.494-1.39 3.693.33 1.04-.147 3.465-1.06 5.39-1.623 3.42-1.603 3.575.892 6.846 1.404 1.841 4.163 4.342 6.131 5.558l3.577 2.212-.55 6.133c-.303 3.374-.991 10.634-1.53 16.134-1.67 17.033-1.393 22.282 1.344 25.535 1.923 2.285 3.745 8.47 3.744 12.706-.001.417.901 1.093 2.004 1.501 1.102.407 1.724 1.195 1.381 1.75-.343.554.042 1.008.854 1.008.813 0 2.189.273 3.059.607 1.906.731 2.227-2.158.332-2.987-1.83-.801 55.263.289 65.25 1.245 4.675.448 8.928.436 9.45-.025 1.337-1.182 10.302-1.05 11.052.163.375.607 1.286.658 2.309.13 2.364-1.221 16.189-1.316 16.189-.112 0 .539-1.238 1.04-2.75 1.115-2.358.117-2.429.198-.5.57 1.237.238 2.25.771 2.25 1.184 0 .414 6.188 1.32 13.75 2.014 7.563.694 16.45 1.837 19.75 2.539 7.605 1.62 18.695 2.067 50 2.017 16.207-.025 26.919-.477 30.456-1.283 17.413-3.971 65.089-6.199 90.044-4.209 8.525.68 21.575 1.597 29 2.037 15.543.923 81.499-.453 100-2.086 14.963-1.321 45.157-1.313 57.569.016 4.912.526 15.231 1.967 22.931 3.204 12.166 1.954 17.668 2.243 42 2.211 35.774-.048 106.551-1.049 130.5-1.847 20.808-.693 45.145-.711 48.366-.036 1.174.246 7.084.706 13.134 1.023 14.758.771 36.652 2.367 49.5 3.608 17.41 1.681 45.812 2.303 47.339 1.036 1.458-1.21 36.492-1.702 87.161-1.223 18.239.172 29.928-.108 31.5-.755 2.272-.935 2.089-1.041-2-1.163-2.475-.073-5.4-.498-6.5-.944-1.7-.689-1.476-.895 1.5-1.377 1.925-.313 6.087-.784 9.249-1.048 5.188-.432 5.598-.328 4.202 1.067-2.134 2.135-.962 2.92 1.996 1.337 1.45-.776 3.99-1.085 6.248-.759 2.093.301 3.243.326 2.555.056-.687-.27-1.25-1.07-1.25-1.777 0-1.758 7.179-2.871 8.182-1.269.524.837-.25 1.399-2.459 1.787-2.784.488-2.407.667 2.777 1.316 3.3.413 6.961 1.219 8.135 1.792 1.175.573 5.9 1.024 10.5 1.003 32.12-.148 37.865-.332 37.865-1.21 0-.532-1.463-.983-3.25-1.003-16.443-.181-20.773-1.947-9.533-3.889 10.826-1.87 11.055-2.021 2.15-1.429-4.564.304-8.385.135-8.706-.386-.315-.509-.03-.984.633-1.053 5.661-.594 17.635-3.513 17.212-4.197-.233-.377-4.491-.575-9.462-.439-4.971.136-9.292-.164-9.603-.666-.31-.502-1.548-.67-2.752-.374-2.672.657-13.785 1.231-13.237.684 1.721-1.721 17.548-3.61 17.548-2.094 0 .632.739.808 1.75.417 4.76-1.839 11.363-2.444 13.927-1.275 2.103.958 2.751.952 3.077-.025.671-2.014 4.379-1.444 4.956.762.371 1.417 1.364 2 3.407 2 1.682 0 2.883-.535 2.883-1.286 0-.707.787-1.364 1.75-1.461 14.736-1.474 15.359-1.465 17.271.266 1.159 1.049 2.76 1.51 4.061 1.17 1.182-.309 2.884-.165 3.783.32s3.348 1.156 5.441 1.492c2.093.336 4.765 1.57 5.937 2.742 1.381 1.381 2.271 1.714 2.528.945.218-.654.835-1.188 1.371-1.188.537 0 .718.417.404.926-.315.51 1.931 1.24 4.991 1.622 3.059.382 6.276 1.407 7.147 2.278 1.464 1.465 5.932 1.824 16.066 1.292 2.634-.138 3.08-3.184.75-5.118-.865-.718-1.5-.815-1.5-.229 0 .558-.6 1.245-1.333 1.527-1.909.732-1.812-5.326.121-7.548.837-.963 1.115-1.757.617-1.765-.498-.009-.282-.41.479-.892.857-.543 1.495-3.106 1.675-6.735.161-3.222.681-7.658 1.156-9.858.476-2.2.753-5.125.617-6.5-.234-2.37.525-10.862 2.683-30 .527-4.675 1.415-13 1.973-18.5s1.522-12.301 2.142-15.112c.89-4.04.757-9.181-.635-24.5-1.793-19.738-2.692-61.951-1.365-64.098.402-.65.311-1.967-.202-2.925-.595-1.11-.568-1.969.072-2.365.651-.402.669-1.25.05-2.406-1.792-3.349-2.222-7.597-2.642-26.094-.391-17.233-1.273-23.738-3.621-26.702-.524-.661-.69-2.027-.37-3.035.32-1.008-.011-4.116-.734-6.906-1.567-6.038-.666-18.12 1.45-19.46 1.279-.81.468-1.335-1.506-.975-.48.088-.592-.534-.25-1.381l1.23-3.041c.334-.825.109-1.5-.5-1.5a1.115 1.115 0 0 1-1.107-1.117c0-.634 1.02-.921 2.363-.664 1.874.358 2.268.085 1.902-1.315-.293-1.119-1.036-1.546-2.028-1.165-1.153.443-1.34.227-.709-.819.708-1.174.586-1.202-.703-.158-1.272 1.03-1.794.981-2.83-.268-.698-.841-1.374-2.309-1.502-3.262-.127-.953-.578-2.783-1.001-4.067-.579-1.756-.979-2.004-1.615-1-.561.885-.852.219-.862-1.974-.009-1.955.394-3.056.985-2.691.55.34 1 .141 1-.441s-.93-1.059-2.067-1.059c-1.641 0-1.931.431-1.406 2.085.591 1.863.304 2.054-2.697 1.795-1.847-.159-3.91.051-4.583.467-.851.526-1.05.207-.654-1.045.545-1.722.504-1.721-.92.015-.82.999-1.757 1.786-2.082 1.75-.325-.037-.703-.038-.841-.003-4.879 1.246-25.005 1.709-26.5.61-.885-.651-1.25-.358-1.25 1.004 0 2.043-1.769 4.322-3.355 4.322-.525 0-.21-.823.7-1.829 2.432-2.687 2.134-4.55-.595-3.719-2.377.723-4.888 1.076-13.645 1.919-2.967.285-5.834.958-6.372 1.496-.537.537-1.675.709-2.528.381-1.141-.437-1.382-.152-.91 1.078.845 2.202-.458 2.121-3.427-.215-7.008-5.513-17.55-8.032-40.368-9.648-4.4-.311-10.527-1.002-13.617-1.534-3.089-.533-6.464-.692-7.5-.354-1.426.465-1.547.374-.498-.373 1.139-.812 1.05-1.16-.5-1.959-1.037-.535-2.447-.771-3.135-.525-.687.247-1.25.033-1.25-.474 0-2.461-10.983-4.339-15.418-2.637-3.422 1.313-1.414 2.584 3.418 2.163 2.75-.239 5-.06 5 .398 0 .457-1.987.832-4.417.832-2.579 0-4.585.506-4.822 1.216-.507 1.523-53.336 2.276-57.177.816-1.952-.742-2.376-.653-1.966.414.724 1.887-10.171 2.56-12.702.785-.995-.698-3.825-1.357-6.289-1.465-2.464-.107-4.283-.513-4.042-.903.24-.389-1.03-.313-2.824.171-4.87 1.312-13.078 2.215-24.261 2.671-22.102.9-27.986.809-29.321-.455-1.619-1.531-3.179-1.621-3.179-.183 0 .613-.853.797-2.004.432-1.102-.35-3.034-.746-4.292-.88-1.259-.134-2.832-.58-3.496-.991-.665-.41-1.208-.356-1.208.12 0 .897-3.46.749-8.264-.353-2.399-.55-2.672-.386-2.063 1.236.631 1.681.523 1.724-1.069.427-1.827-1.487-5.858-2.278-5.064-.994.246.398-.675.659-2.046.58-1.371-.079-2.493-.707-2.493-1.394-.001-1.421-2.129-1.256-3.236.25-.455.619-.74.524-.75-.25-.008-.687-.492-1.25-1.074-1.25-.582 0-.828.373-.546.829.62 1.004-2.446.875-4.142-.173-.666-.411-2.091-.278-3.167.298-2.351 1.258-3.387 1.343-2.693.219.281-.455-5.149-.913-12.067-1.019-6.918-.105-12.969-.433-13.448-.729-.479-.296-5.934-.536-12.124-.534-6.19.002-15.079-.616-19.754-1.374-12.86-2.083-71.717-1.259-82 1.149-1.375.322-10.674.667-20.665.766-12.763.127-18.609.551-19.661 1.423-1.118.928-1.676.95-2.209.088-.515-.834-5.058-.994-16.339-.578-8.594.317-16.381.589-17.303.606-.922.016-1.882.816-2.134 1.779-.326 1.248-.49 1.068-.573-.627-.111-2.275-.343-2.349-5.366-1.728-2.888.358-5.7.627-6.25.598-.55-.028-10.225-.263-21.5-.521-51.401-1.175-64.517-1.882-65.537-3.532-.265-.428.226-1.487 1.092-2.352.865-.865 1.283-2.041.929-2.613-.353-.573.334-2.714 1.527-4.758l2.171-3.717-3.341 3.127c-1.838 1.72-3.903 2.92-4.591 2.667-.687-.253-1.25.053-1.25.682 0 .628.45.864 1 .524.55-.34 1-.141 1 .441s-.45 1.059-1 1.059-1 .62-1 1.378c0 2.294-2.774 3.895-5.545 3.2l-2.57-.645 3.017-3.716c5.861-7.221 13.635-14.959 16.598-16.523 1.65-.871 3.9-2.742 5-4.158 2.929-3.769 8.379-9.536 9.012-9.536.734 0-3.314 5.502-6.9 9.378-1.589 1.717-3.553 4.135-4.365 5.372-.812 1.238-2.213 2.286-3.112 2.329-1.1.053-1.212.248-.343.597 1.035.416 1.044.847.047 2.171-1.543 2.05 6.845-5.488 9.631-8.655 1.116-1.269 3.718-4.117 5.78-6.329 2.062-2.212 3.75-4.19 3.75-4.397 0-.552 5.009-5.466 5.572-5.466.265 0 3.482-2.475 7.149-5.5 3.668-3.025 7.212-5.5 7.878-5.5.665 0 4.74-2.824 9.055-6.275 4.315-3.451 11.436-8.738 15.824-11.75 9.426-6.468 20.299-16.535 27.913-25.842 6.458-7.894 15.765-21.079 18.637-26.404 1.119-2.074 6.621-8.149 12.227-13.5A3094.931 3094.931 0 0 0 666.151 1250c22.467-21.872 40.167-38.603 41.782-39.495 1.646-.909 16.585-14.96 49.014-46.099 6.354-6.102 15.153-14.375 19.553-18.386 4.4-4.011 9.35-8.736 11-10.499 7.237-7.733 17.5-20.843 17.5-22.355 0-.45 1.125-1.874 2.5-3.166 1.375-1.292 2.5-2.731 2.5-3.198 0-1.434 6.788-11.071 10.777-15.302 2.075-2.2 4.76-5.606 5.967-7.569 2.641-4.293 14.099-15.422 14.976-14.545.342.342-.407 1.716-1.664 3.054l-2.285 2.433 2.334-.611c1.284-.335 3.296-1.544 4.473-2.686 1.176-1.142 4.615-4.186 7.643-6.765 5.218-4.445 6.568-6.871 7.3-13.117.208-1.781 1.869-3.859 10.141-12.694a5657.67 5657.67 0 0 0 7.242-7.75c3.237-3.474 5.724-4.329 4.68-1.609-.508 1.324-.356 1.414.787.466.779-.646 2.722-1.34 4.319-1.542 4.329-.548 9.436-3.03 12.81-6.225 1.65-1.562 6.375-5.52 10.5-8.795 15.415-12.239 31.893-29.154 44.084-45.253 4.079-5.386 7.651-10.017 7.938-10.292.287-.275 2.537-3.636 5-7.469 2.463-3.834 8.865-12.096 14.228-18.361 5.362-6.265 9.75-12.03 9.75-12.811 0-.781 1.592-2.817 3.537-4.525 1.945-1.708 5.158-5.549 7.141-8.536 1.982-2.986 5.863-7.313 8.624-9.614 9.574-7.981 26.326-26.22 39.114-42.587 3.253-4.164 6.472-8.128 7.152-8.808.68-.68 2.269-2.935 3.531-5.012 1.263-2.078 2.584-4.002 2.937-4.277.352-.275 2.178-2.75 4.057-5.5 1.879-2.75 4.603-6.575 6.054-8.5 1.451-1.925 3.474-5.077 4.496-7.004 1.021-1.927 2.796-4.852 3.944-6.5 1.148-1.648 2.339-3.671 2.647-4.496.307-.825 2.068-3.484 3.912-5.908 1.845-2.425 4.058-5.575 4.918-7 .86-1.426 3.11-3.438 5-4.472 1.89-1.034 5.236-4.171 7.436-6.971s12.165-13.204 22.144-23.12c20.23-20.102 34.123-37.359 45.063-55.975 3.358-5.713 3.539-7.499 3.858-38.054.388-37.086 1.056-60.283 2.491-86.5.586-10.725 1.455-27.6 1.931-37.5.476-9.9 1.344-22.725 1.929-28.5.585-5.775 1.181-19.5 1.324-30.5l.26-20-2.263-.114c-1.244-.063-2.203.387-2.131 1 .292 2.483-.177 3.614-1.499 3.614-1.978 0-2.607-2.265-2.607-9.391 0-8.11-1.155-9.579-8.021-10.199-3.014-.272-6.082-1.094-6.818-1.827-.925-.92-2.37-1.1-4.673-.58-2.111.476-3.748.338-4.464-.376-.714-.712-6.171-1.176-14.827-1.259-7.533-.073-27.872-.414-45.197-.758-17.325-.344-40.5-.799-51.5-1.011-11-.211-20-.49-20-.619s-3.6-.351-8-.495c-4.4-.143-17.675-.578-29.5-.966-37.493-1.23-90.304-2.004-113.5-1.665-8.8.129-18.25-.004-21-.295-13.555-1.436-49.025-3.573-75-4.518-15.95-.581-36.425-1.513-45.5-2.073-37.112-2.288-72.681-2.075-111.5.667-14.399 1.017-68.813 1.88-77 1.221-4.4-.354-30.725-.466-58.5-.249-48.207.378-57.131.124-107.124-3.042-4.194-.266-7.821-.287-8.06-.047M367 433.5c0 .825.675 1.5 1.5 1.5s1.5-.675 1.5-1.5-.675-1.5-1.5-1.5-1.5.675-1.5 1.5m511.847 6.816c.738.888 3.133 1.234 7.373 1.062 4.7-.189 5.4-.069 2.78.48-1.925.403-5.42.631-7.766.508-2.429-.129-4.018.175-3.691.704.328.53-1.782.93-4.902.93-7.821 0-9.067.627-6.572 3.304 1.948 2.091 2.033 2.096 5.37.299 1.865-1.005 3.906-1.508 4.535-1.119s4.982.814 9.674.946c6.061.169 8.788.648 9.425 1.654.631.998.901 1.047.912.166.008-.687.492-1.25 1.074-1.25.582 0 .838.357.568.794-.529.857 52.86.641 54.251-.218.46-.285 2.301-.098 4.089.415 2.328.667 3.604.581 4.489-.304.68-.68 2.878-1.159 4.885-1.065 2.008.095 3.397-.236 3.089-.736-.309-.499-1.782-.815-3.274-.701-1.492.114-3.15-.05-3.685-.364-.534-.314-3.355-.255-6.269.131s-5.539.312-5.834-.165c-.294-.477-2.635-.635-5.202-.352-3.597.396-4.249.27-2.846-.549 1.759-1.028 1.759-1.109 0-2.443-1.001-.759-1.29-1.394-.641-1.411.648-.018 1.853.643 2.678 1.468 1.558 1.558 4.654 2.06 4.628.75-.04-1.954-1.784-3.264-3.479-2.614-1.129.433-1.595.317-1.213-.301.395-.639-2.279-1.039-7.336-1.098-7.725-.089-11.179 1.318-4.784 1.95 5.926.585 4.004 2.32-2.78 2.509-5.937.165-6.421.036-4.752-1.262 1.692-1.316 1.606-1.355-.956-.44-1.548.553-4.334 1.006-6.191 1.006-1.857 0-3.608.376-3.893.836-.661 1.069-11.991.188-12.434-.967-.184-.478-1.309-.905-2.5-.948-1.192-.043-1.604-.306-.917-.583 3.574-1.442.174-2.338-8.872-2.338-8.256 0-9.921.243-9.031 1.316m145.629 5.723c-.386.624-1.551.913-2.589.642-1.038-.272-1.887-.115-1.887.349 0 .463-2.025.653-4.5.421-2.475-.232-4.5-.037-4.5.435 0 .781 9.515 1.645 28.75 2.613 3.987.2 7.25.001 7.25-.442 0-1.091-5.197-2.057-11.066-2.057-2.649 0-5.099-.457-5.444-1.016-.346-.559-1.067-.746-1.603-.414-.536.331-1.59.092-2.342-.532-1.019-.847-1.545-.846-2.069.001m-35.226 1.677c1.513.229 3.987.229 5.5 0s.275-.416-2.75-.416-4.263.187-2.75.416m58.75 1.878c0 .773.9 1.406 2 1.406s2-.398 2-.883c0-.486-.9-1.119-2-1.407-1.3-.34-2-.03-2 .884m-167.238 1.113c1.244.239 3.044.23 4-.02s-.062-.446-2.262-.435c-2.2.011-2.982.216-1.738.455M666.25 537.728c2.063.216 5.438.216 7.5 0 2.063-.215.375-.392-3.75-.392s-5.812.177-3.75.392m29 0c2.063.216 5.438.216 7.5 0 2.063-.215.375-.392-3.75-.392s-5.812.177-3.75.392m43.512.979c1.244.239 3.044.23 4-.02s-.062-.446-2.262-.435c-2.2.011-2.982.216-1.738.455m369.231 75.043c-.004 4.263-.24 10.9-.525 14.75-.362 4.882-.231 6.353.433 4.863 1.16-2.607 1.945-27.363.868-27.363-.423 0-.772 3.487-.776 7.75m-4.213.294c-.245 1.674-.072 3.276.387 3.559.458.283.833-1.087.833-3.044 0-4.361-.617-4.622-1.22-.515m7.971 11.48c-.266 1.388-.093 2.765.383 3.059.476.294.866-.842.866-2.524 0-3.712-.593-3.967-1.249-.535m-8.146 1.608c-.789 3.798-1.419 21.016-.744 20.341.591-.592 1.985-21.59 1.482-22.341-.135-.202-.467.698-.738 2m-12.505 11.059c.055.72.46 2.434.9 3.809.765 2.387.805 2.356.9-.691.055-1.755-.35-3.469-.9-3.809-.55-.34-.955-.029-.9.691M794 643c0 .55.927 1 2.059 1 1.132 0 1.781-.45 1.441-1-.34-.55-1.266-1-2.059-1-.793 0-1.441.45-1.441 1m316.16 4.667c-.088 1.741-.722 3.373-1.41 3.625-.983.36-.99.734-.033 1.75 1.643 1.744 2.571-.653 2.013-5.197l-.41-3.345-.16 3.167m-19.476 34.715c-.376.98-.655 2.532-.621 3.45.042 1.105.39.853 1.029-.746.531-1.328.81-2.88.62-3.45-.19-.569-.653-.233-1.028.746M972.945 805.746c-2.259 4.507-2.227 4.952.105 1.462 1.21-1.81 1.991-3.5 1.737-3.754s-1.083.777-1.842 2.292m-6.088 9.504c-1.617 2.306-1.766 2.838-.513 1.832 1.782-1.431 4.124-5.082 3.259-5.082-.257 0-1.492 1.462-2.746 3.25m-13.607 1.412c-.687.278-1.25 1.12-1.25 1.872 0 .751-.784 1.805-1.742 2.341-.958.536-1.403 1.313-.989 1.727.413.414 1.43-.115 2.258-1.175 1.672-2.138 3.702-5.471 3.258-5.348-.157.043-.847.306-1.535.583m1.557 15.088c-2.22 2.586-3.036 4.25-2.082 4.25.464 0 1.641-1.35 2.616-3 1.979-3.35 1.744-3.902-.534-1.25M911 849.226c-6.058 7.252-7.41 9.474-2.601 4.274 4.106-4.439 7.188-8.533 6.386-8.482-.157.01-1.86 1.903-3.785 4.208m-254.69-.795c-.654.746-.921 1.625-.592 1.954.712.712 3.282-1.252 3.282-2.507 0-1.279-1.32-1.007-2.69.553m-7.728 20.81C641.95 876.287 638 881.28 638 882.619c0 1.175-.695 2.713-1.546 3.419-.85.705-1.34 1.818-1.089 2.472.469 1.222-3.485 6.49-4.871 6.49-.907 0-3.416 3.13-3.462 4.32-.018.45.939.675 2.126.5 1.267-.188 3.559-2.385 5.549-5.32 1.865-2.75 3.942-5.675 4.617-6.5.675-.825 1.79-2.85 2.479-4.5.688-1.65 2.793-4.003 4.677-5.229 3.63-2.36 6.448-6.271 4.52-6.271-1.526 0 .116-2.623 4.959-7.92 3.594-3.931 4.875-6.08 3.623-6.08-.23 0-5.18 5.059-11 11.241m322.275-7.991c-1.617 2.306-1.766 2.838-.513 1.832 1.782-1.431 4.124-5.082 3.259-5.082-.257 0-1.492 1.462-2.746 3.25m-323.462 28.056c-2.692 2.918-6.386 7.081-8.209 9.25-2.731 3.25-3.099 3.459-2.088 1.19 1.695-3.804.277-4.719-2.392-1.543-1.213 1.444-3.146 2.896-4.296 3.227-1.149.332-2.667 1.833-3.372 3.337a180.777 180.777 0 0 1-2.66 5.387c-2.62 5.046-1.36 5.253 3.406.558 4.412-4.345 8.216-6.078 8.216-3.743 0 .532.692.703 1.537.378 1.62-.621 5.037-6.266 4.644-7.671-.127-.454.18-.571.681-.261 1.162.718 3.093-1.586 3.619-4.317.641-3.33 1.544-4.225 3.603-3.571 1.054.334 1.916.165 1.916-.376 0-.542-.519-1.157-1.153-1.369-.788-.262-.594-1.239.615-3.083 2.701-4.122 1.331-3.245-4.067 2.607m49.105-.954c-4.134 4.291-5.337 6.376-2.381 4.127 2.858-2.175 7.372-7.528 6.207-7.36-.454.065-2.176 1.52-3.826 3.233m-70.387 3.705c-2.932 3.332-5.139 6.25-4.904 6.485.572.572 11.791-10.512 11.791-11.649 0-1.965-1.798-.617-6.887 5.164M862.5 911.789c-2.568 3.329-3.712 5.211-3.168 5.211.673 0 5.913-7.09 5.519-7.468-.193-.185-1.251.831-2.351 2.257m-217.465 6.145c-1.507 2.816-1.284 3.239.965 1.834 2.062-1.288 2.744-3.768 1.035-3.768-.53 0-1.43.87-2 1.934m202.156 11.991c-3.955 4.359-7.175 8.297-7.155 8.75.02.454 1.032-.361 2.25-1.811s4.621-5.388 7.563-8.75c7.719-8.823 5.812-7.523-2.658 1.811m79.064 13.142c-1.178 1.859-1.88 3.617-1.561 3.907.319.289.783-.045 1.032-.742s1.124-1.939 1.944-2.759c.82-.82 1.318-2.008 1.108-2.639-.21-.631-1.346.373-2.523 2.233m-99.309 7.683-3.446 3.75 3.75-3.446c2.063-1.896 3.75-3.583 3.75-3.75 0-.764-.846-.044-4.054 3.446M813.5 963c-1.581 1.65-2.371 3-1.755 3 .615 0 2.08-1.35 3.255-3 1.175-1.65 1.965-3 1.755-3-.209 0-1.674 1.35-3.255 3m33.25 111.324c-1.513 1.238-2.75 2.588-2.75 2.999 0 1.317 3.916-1.297 5.012-3.346 1.32-2.466 1.139-2.438-2.262.347m-13.095 5.857c-2.395 2.891-3.305 4.819-2.274 4.819.748 0 5.812-7.14 5.375-7.578-.246-.245-1.641.996-3.101 2.759m-557.575 250.26c-1.82 1.343-4.006 3.481-4.857 4.75-1.441 2.149-1.347 2.13 1.364-.277l5.352-4.75c3.267-2.899 2.238-2.746-1.859.277M231.732 1370c-.942 1.1-1.337 2-.877 2 .459 0 1.65-.9 2.645-2 .995-1.1 1.39-2 .877-2-.513 0-1.703.9-2.645 2M137 1391.802c-1.375.934-2.644 2.018-2.821 2.41-.176.392-1.887 1.681-3.802 2.864-3.894 2.407-3.973 3.481-.148 2.027 2.47-.939 5.99-3.93 8.654-7.353 1.667-2.142 1.336-2.133-1.883.052m95.5 8.995c-1.1.952-2.626 2.522-3.391 3.49-1.202 1.519-1.189 1.681.097 1.187.82-.314 2.472-1.899 3.672-3.523 2.497-3.377 2.429-3.583-.378-1.154m672.62 5.656c.87.87 7.819 1.257 7.293.406-.292-.472-2.154-.859-4.139-.859-1.984 0-3.404.204-3.154.453m200.439 10.015c2.539 1.921 4.025 1.94 2.441.032-.685-.825-1.951-1.5-2.814-1.5-1.255 0-1.181.293.373 1.468M121 1418.5c-1.292 1.375-1.985 2.5-1.542 2.5.752 0 4.542-3.883 4.542-4.653 0-.775-.766-.225-3 2.153m-6.417.143c-.954 2.486-.125 2.623 2.525.415 2.355-1.961 2.359-1.992.249-2.025-1.179-.018-2.427.706-2.774 1.61m1022.861 7.803c-.356 1.896-.411 4.033-.124 4.75.287.717.558.265.601-1.005.043-1.27.512-2.041 1.042-1.714.551.34.871-.703.75-2.439-.285-4.063-1.47-3.849-2.269.408M603 1425c-2.369.759-2.329.806.75.9 1.788.055 3.25-.35 3.25-.9 0-1.13-.471-1.13-4 0m-5.736 5.718c1.52.229 3.77.223 5-.014 1.23-.237-.014-.425-2.764-.418-2.75.008-3.756.202-2.236.432M1120.5 1433c.34.55 1.604.993 2.809.985 1.781-.013 1.91-.197.691-.985-1.97-1.273-4.287-1.273-3.5 0m-1.015 98.025c-.408.659-.121 1.584.637 2.055 1.663 1.033 2.559-.799 1.103-2.255-.666-.666-1.246-.599-1.74.2m82.515 47.908c0 1.543 3.94 2.304 7.837 1.514 3.477-.705 3.536-.781 1.163-1.495-3.63-1.093-9-1.104-9-.019M1091.272 1612c0 2.475.195 3.487.434 2.25.238-1.237.238-3.263 0-4.5-.239-1.237-.434-.225-.434 2.25M887 1698c.825.533 3.075.945 5 .914 2.86-.045 3.134-.212 1.5-.914-1.1-.473-3.35-.884-5-.914-2.291-.042-2.646.174-1.5.914m-2.5 2.703c-9.728.892-8.057 2.929 2.191 2.67 10.106-.256 10.309-.285 10.309-1.434 0-.696-1.598-.822-4.642-.365-3.355.503-4.448.381-3.941-.439.385-.624.562-1.059.392-.967-.17.093-2.109.333-4.309.535m-809.58 1.391c1.602.64 2.767.619 3.45-.064.707-.707-.052-1.01-2.42-.967-3.242.06-3.304.122-1.03 1.031m5.08-.216c0 1.087 17.778 2.07 20.429 1.13 1.166-.414-1.165-.946-5.901-1.346-10.552-.892-14.528-.833-14.528.216m922 .97c0 1.641 1.196 1.921 10.697 2.503 5.884.36 11.081.271 11.55-.198.469-.469-3.297-.927-8.388-1.02-6.571-.119-9.712-.595-10.878-1.65-2.175-1.969-2.981-1.87-2.981.365m-890.345-.098c-.255.412 1.025.75 2.845.75 1.82 0 3.1-.338 2.845-.75-.254-.412-1.535-.75-2.845-.75-1.31 0-2.591.338-2.845.75m826.845.182c-1.1.435-2.562.58-3.25.323-.687-.258-1.25.029-1.25.638 0 .662 2.011 1.107 5 1.107 3.778 0 5-.367 5-1.5 0-1.611-2.271-1.846-5.5-.568m104.077 1.383c-1.761 1.292-1.446 1.471 3.74 2.119 3.114.389 6.679.36 7.923-.065 1.978-.676 1.76-.86-1.74-1.474-2.2-.386-4.9-.991-6-1.346-1.127-.363-2.839-.029-3.923.766m-812.136 4.217c2.191 1.657 4.998 1.988 4.066.479-.341-.552.03-.742.84-.431.798.306 1.748.076 2.111-.512.434-.702-.986-1.057-4.149-1.036-4.446.029-4.662.142-2.868 1.5m-171.426.718c-.012 1.406.857 1.75 4.426 1.75 2.443 0 4.687-.399 4.988-.886.832-1.345-4.74-2.093-6.255-.84-.984.814-1.561.727-2.235-.338-.746-1.179-.911-1.123-.924.314m145.985-.219-3.5.53 2.855.765c1.571.421 4.833.468 7.25.106 2.957-.443 4.395-.295 4.395.454 0 .613.675 1.114 1.5 1.114s1.5-.45 1.5-1 1.323-1 2.941-1c1.618 0 3.15-.338 3.404-.75.529-.855-15.047-1.022-20.345-.219m770.768-.306c1.797.222 4.497.218 6-.01 1.503-.229.032-.411-3.268-.405-3.3.005-4.529.192-2.732.415m-857.633 3.383c1.518.966 14.295.988 13.33.023-.335-.335-3.779-.673-7.653-.75-4.316-.087-6.514.195-5.677.727" fill-rule="evenodd"/></svg>